G75*
G70*
%OFA0B0*%
%FSLAX24Y24*%
%IPPOS*%
%LPD*%
%AMOC8*
5,1,8,0,0,1.08239X$1,22.5*
%
%ADD10C,0.1182*%
%ADD11R,0.0634X0.0634*%
%ADD12C,0.0700*%
%ADD13C,0.0634*%
%ADD14C,0.0780*%
%ADD15R,0.0780X0.0780*%
%ADD16C,0.1300*%
%ADD17C,0.0000*%
%ADD18C,0.0001*%
%ADD19C,0.0375*%
D10*
X017519Y016059D03*
D11*
X004637Y006960D03*
D12*
X003637Y006960D03*
X003637Y008960D03*
D13*
X003637Y009960D03*
X003637Y010960D03*
X003637Y011960D03*
X003637Y012960D03*
X003637Y013960D03*
X003637Y014960D03*
X003637Y015960D03*
X003637Y016960D03*
X003637Y017960D03*
X003637Y018960D03*
X004637Y018960D03*
X004637Y017960D03*
X004637Y016960D03*
X004637Y015960D03*
X004637Y014960D03*
X004637Y013960D03*
X004637Y012960D03*
X004637Y011960D03*
X004637Y010960D03*
X004637Y009960D03*
X004637Y008960D03*
X004637Y007960D03*
X003637Y007960D03*
D14*
X008887Y013460D03*
X009387Y012460D03*
X009887Y013460D03*
X010387Y012460D03*
X010887Y013460D03*
X011387Y012460D03*
X011887Y013460D03*
X014887Y013460D03*
X015387Y012460D03*
X015887Y013460D03*
X016387Y012460D03*
X016887Y013460D03*
X017387Y012460D03*
X017887Y013460D03*
D15*
X014387Y012460D03*
X008387Y012460D03*
D16*
X007887Y009960D03*
X012387Y009960D03*
X013887Y009960D03*
X018387Y009960D03*
D17*
X013385Y016356D02*
X012842Y016356D01*
X012826Y016395D01*
X012810Y016431D01*
X012790Y016470D01*
X012806Y016509D01*
X012822Y016553D01*
X012838Y016596D01*
X012853Y016639D01*
X012869Y016683D01*
X012885Y016726D01*
X012901Y016765D01*
X013279Y016765D01*
X013326Y016765D01*
X013342Y016726D01*
X013357Y016683D01*
X013373Y016639D01*
X013389Y016596D01*
X013405Y016553D01*
X013420Y016509D01*
X013436Y016470D01*
X013420Y016431D01*
X013405Y016395D01*
X013385Y016356D01*
D18*
X012842Y016356D01*
X012841Y016357D02*
X013385Y016357D01*
X013386Y016358D02*
X012841Y016358D01*
X012840Y016359D02*
X013386Y016359D01*
X013387Y016360D02*
X012840Y016360D01*
X012840Y016361D02*
X013387Y016361D01*
X013388Y016362D02*
X012839Y016362D01*
X012839Y016363D02*
X013388Y016363D01*
X013389Y016364D02*
X012838Y016364D01*
X012838Y016365D02*
X013389Y016365D01*
X013390Y016366D02*
X012838Y016366D01*
X012837Y016367D02*
X013390Y016367D01*
X013391Y016368D02*
X012837Y016368D01*
X012836Y016369D02*
X013391Y016369D01*
X013392Y016370D02*
X012836Y016370D01*
X012836Y016371D02*
X013392Y016371D01*
X013393Y016372D02*
X012835Y016372D01*
X012835Y016373D02*
X013393Y016373D01*
X013394Y016374D02*
X012834Y016374D01*
X012834Y016375D02*
X013394Y016375D01*
X013395Y016376D02*
X012834Y016376D01*
X012833Y016377D02*
X013395Y016377D01*
X013396Y016378D02*
X012833Y016378D01*
X012832Y016379D02*
X013396Y016379D01*
X013397Y016380D02*
X012832Y016380D01*
X012832Y016381D02*
X013397Y016381D01*
X013398Y016382D02*
X012831Y016382D01*
X012831Y016383D02*
X013398Y016383D01*
X013399Y016384D02*
X012830Y016384D01*
X012830Y016385D02*
X013399Y016385D01*
X013400Y016386D02*
X012830Y016386D01*
X012829Y016387D02*
X013400Y016387D01*
X013401Y016388D02*
X012829Y016388D01*
X012828Y016389D02*
X013401Y016389D01*
X013402Y016390D02*
X012828Y016390D01*
X012828Y016391D02*
X013402Y016391D01*
X013403Y016392D02*
X012827Y016392D01*
X012827Y016393D02*
X013403Y016393D01*
X013404Y016394D02*
X012826Y016394D01*
X012826Y016395D02*
X013404Y016395D01*
X013405Y016396D02*
X012825Y016396D01*
X012825Y016397D02*
X013405Y016397D01*
X013406Y016398D02*
X012825Y016398D01*
X012824Y016399D02*
X013406Y016399D01*
X013407Y016400D02*
X012824Y016400D01*
X012823Y016401D02*
X013407Y016401D01*
X013407Y016402D02*
X012823Y016402D01*
X012822Y016403D02*
X013408Y016403D01*
X013408Y016404D02*
X012822Y016404D01*
X012821Y016405D02*
X013409Y016405D01*
X013409Y016406D02*
X012821Y016406D01*
X012821Y016407D02*
X013410Y016407D01*
X013410Y016408D02*
X012820Y016408D01*
X012820Y016409D02*
X013411Y016409D01*
X013411Y016410D02*
X012819Y016410D01*
X012819Y016411D02*
X013411Y016411D01*
X013412Y016412D02*
X012818Y016412D01*
X012818Y016413D02*
X013412Y016413D01*
X013413Y016414D02*
X012817Y016414D01*
X012817Y016415D02*
X013413Y016415D01*
X013414Y016416D02*
X012817Y016416D01*
X012816Y016417D02*
X013414Y016417D01*
X013415Y016418D02*
X012816Y016418D01*
X012815Y016419D02*
X013415Y016419D01*
X013415Y016420D02*
X012815Y016420D01*
X012814Y016421D02*
X013416Y016421D01*
X013416Y016422D02*
X012814Y016422D01*
X012813Y016423D02*
X013417Y016423D01*
X013417Y016424D02*
X012813Y016424D01*
X012813Y016425D02*
X013418Y016425D01*
X013418Y016426D02*
X012812Y016426D01*
X012812Y016427D02*
X013419Y016427D01*
X013419Y016428D02*
X012811Y016428D01*
X012811Y016429D02*
X013419Y016429D01*
X013420Y016430D02*
X012810Y016430D01*
X012810Y016431D02*
X013420Y016431D01*
X013421Y016432D02*
X012809Y016432D01*
X012809Y016433D02*
X013421Y016433D01*
X013422Y016434D02*
X012808Y016434D01*
X012808Y016435D02*
X013422Y016435D01*
X013422Y016436D02*
X012807Y016436D01*
X012807Y016437D02*
X013423Y016437D01*
X013423Y016438D02*
X012806Y016438D01*
X012806Y016439D02*
X013424Y016439D01*
X013424Y016440D02*
X012805Y016440D01*
X012805Y016441D02*
X013424Y016441D01*
X013425Y016442D02*
X012804Y016442D01*
X012804Y016443D02*
X013425Y016443D01*
X013426Y016444D02*
X012803Y016444D01*
X012803Y016445D02*
X013426Y016445D01*
X013426Y016446D02*
X012802Y016446D01*
X012802Y016447D02*
X013427Y016447D01*
X013427Y016448D02*
X012801Y016448D01*
X012801Y016449D02*
X013428Y016449D01*
X013428Y016450D02*
X012800Y016450D01*
X012800Y016451D02*
X013428Y016451D01*
X013429Y016452D02*
X012799Y016452D01*
X012799Y016453D02*
X013429Y016453D01*
X013430Y016454D02*
X012798Y016454D01*
X012798Y016455D02*
X013430Y016455D01*
X013430Y016456D02*
X012797Y016456D01*
X012797Y016457D02*
X013431Y016457D01*
X013431Y016458D02*
X012796Y016458D01*
X012796Y016459D02*
X013432Y016459D01*
X013432Y016460D02*
X012795Y016460D01*
X012795Y016461D02*
X013432Y016461D01*
X013433Y016462D02*
X012794Y016462D01*
X012794Y016463D02*
X013433Y016463D01*
X013434Y016464D02*
X012793Y016464D01*
X012793Y016465D02*
X013434Y016465D01*
X013434Y016466D02*
X012792Y016466D01*
X012792Y016467D02*
X013435Y016467D01*
X013435Y016468D02*
X012791Y016468D01*
X012791Y016469D02*
X013436Y016469D01*
X013436Y016470D02*
X012790Y016470D01*
X012791Y016471D02*
X013436Y016471D01*
X013435Y016472D02*
X012791Y016472D01*
X012791Y016473D02*
X013435Y016473D01*
X013435Y016474D02*
X012792Y016474D01*
X012792Y016475D02*
X013434Y016475D01*
X013434Y016476D02*
X012793Y016476D01*
X012793Y016477D02*
X013433Y016477D01*
X013433Y016478D02*
X012793Y016478D01*
X012794Y016479D02*
X013433Y016479D01*
X013432Y016480D02*
X012794Y016480D01*
X012795Y016481D02*
X013432Y016481D01*
X013431Y016482D02*
X012795Y016482D01*
X012795Y016483D02*
X013431Y016483D01*
X013431Y016484D02*
X012796Y016484D01*
X012796Y016485D02*
X013430Y016485D01*
X013430Y016486D02*
X012797Y016486D01*
X012797Y016487D02*
X013429Y016487D01*
X013429Y016488D02*
X012797Y016488D01*
X012798Y016489D02*
X013429Y016489D01*
X013428Y016490D02*
X012798Y016490D01*
X012799Y016491D02*
X013428Y016491D01*
X013427Y016492D02*
X012799Y016492D01*
X012799Y016493D02*
X013427Y016493D01*
X013427Y016494D02*
X012800Y016494D01*
X012800Y016495D02*
X013426Y016495D01*
X013426Y016496D02*
X012801Y016496D01*
X012801Y016497D02*
X013425Y016497D01*
X013425Y016498D02*
X012801Y016498D01*
X012802Y016499D02*
X013425Y016499D01*
X013424Y016500D02*
X012802Y016500D01*
X012803Y016501D02*
X013424Y016501D01*
X013423Y016502D02*
X012803Y016502D01*
X012803Y016503D02*
X013423Y016503D01*
X013423Y016504D02*
X012804Y016504D01*
X012804Y016505D02*
X013422Y016505D01*
X013422Y016506D02*
X012805Y016506D01*
X012805Y016507D02*
X013421Y016507D01*
X013421Y016508D02*
X012805Y016508D01*
X012806Y016509D02*
X013421Y016509D01*
X013420Y016510D02*
X012806Y016510D01*
X012807Y016511D02*
X013420Y016511D01*
X013419Y016512D02*
X012807Y016512D01*
X012807Y016513D02*
X013419Y016513D01*
X013419Y016514D02*
X012808Y016514D01*
X012808Y016515D02*
X013418Y016515D01*
X013418Y016516D02*
X012808Y016516D01*
X012809Y016517D02*
X013418Y016517D01*
X013417Y016518D02*
X012809Y016518D01*
X012810Y016519D02*
X013417Y016519D01*
X013416Y016520D02*
X012810Y016520D01*
X012810Y016521D02*
X013416Y016521D01*
X013416Y016522D02*
X012811Y016522D01*
X012811Y016523D02*
X013415Y016523D01*
X013415Y016524D02*
X012811Y016524D01*
X012812Y016525D02*
X013415Y016525D01*
X013414Y016526D02*
X012812Y016526D01*
X012812Y016527D02*
X013414Y016527D01*
X013414Y016528D02*
X012813Y016528D01*
X012813Y016529D02*
X013413Y016529D01*
X013413Y016530D02*
X012814Y016530D01*
X012814Y016531D02*
X013413Y016531D01*
X013412Y016532D02*
X012814Y016532D01*
X012815Y016533D02*
X013412Y016533D01*
X013411Y016534D02*
X012815Y016534D01*
X012815Y016535D02*
X013411Y016535D01*
X013411Y016536D02*
X012816Y016536D01*
X012816Y016537D02*
X013410Y016537D01*
X013410Y016538D02*
X012816Y016538D01*
X012817Y016539D02*
X013410Y016539D01*
X013409Y016540D02*
X012817Y016540D01*
X012818Y016541D02*
X013409Y016541D01*
X013409Y016542D02*
X012818Y016542D01*
X012818Y016543D02*
X013408Y016543D01*
X013408Y016544D02*
X012819Y016544D01*
X012819Y016545D02*
X013407Y016545D01*
X013407Y016546D02*
X012819Y016546D01*
X012820Y016547D02*
X013407Y016547D01*
X013406Y016548D02*
X012820Y016548D01*
X012820Y016549D02*
X013406Y016549D01*
X013406Y016550D02*
X012821Y016550D01*
X012821Y016551D02*
X013405Y016551D01*
X013405Y016552D02*
X012822Y016552D01*
X012822Y016553D02*
X013405Y016553D01*
X013404Y016554D02*
X012822Y016554D01*
X012823Y016555D02*
X013404Y016555D01*
X013403Y016556D02*
X012823Y016556D01*
X012823Y016557D02*
X013403Y016557D01*
X013403Y016558D02*
X012824Y016558D01*
X012824Y016559D02*
X013402Y016559D01*
X013402Y016560D02*
X012824Y016560D01*
X012825Y016561D02*
X013402Y016561D01*
X013401Y016562D02*
X012825Y016562D01*
X012825Y016563D02*
X013401Y016563D01*
X013401Y016564D02*
X012826Y016564D01*
X012826Y016565D02*
X013400Y016565D01*
X013400Y016566D02*
X012827Y016566D01*
X012827Y016567D02*
X013399Y016567D01*
X013399Y016568D02*
X012827Y016568D01*
X012828Y016569D02*
X013399Y016569D01*
X013398Y016570D02*
X012828Y016570D01*
X012828Y016571D02*
X013398Y016571D01*
X013398Y016572D02*
X012829Y016572D01*
X012829Y016573D02*
X013397Y016573D01*
X013397Y016574D02*
X012829Y016574D01*
X012830Y016575D02*
X013397Y016575D01*
X013396Y016576D02*
X012830Y016576D01*
X012831Y016577D02*
X013396Y016577D01*
X013395Y016578D02*
X012831Y016578D01*
X012831Y016579D02*
X013395Y016579D01*
X013395Y016580D02*
X012832Y016580D01*
X012832Y016581D02*
X013394Y016581D01*
X013394Y016582D02*
X012832Y016582D01*
X012833Y016583D02*
X013394Y016583D01*
X013393Y016584D02*
X012833Y016584D01*
X012833Y016585D02*
X013393Y016585D01*
X013393Y016586D02*
X012834Y016586D01*
X012834Y016587D02*
X013392Y016587D01*
X013392Y016588D02*
X012835Y016588D01*
X012835Y016589D02*
X013391Y016589D01*
X013391Y016590D02*
X012835Y016590D01*
X012836Y016591D02*
X013391Y016591D01*
X013390Y016592D02*
X012836Y016592D01*
X012836Y016593D02*
X013390Y016593D01*
X013390Y016594D02*
X012837Y016594D01*
X012837Y016595D02*
X013389Y016595D01*
X013389Y016596D02*
X012837Y016596D01*
X012838Y016597D02*
X013389Y016597D01*
X013388Y016598D02*
X012838Y016598D01*
X012839Y016599D02*
X013388Y016599D01*
X013387Y016600D02*
X012839Y016600D01*
X012839Y016601D02*
X013387Y016601D01*
X013387Y016602D02*
X012840Y016602D01*
X012840Y016603D02*
X013386Y016603D01*
X013386Y016604D02*
X012840Y016604D01*
X012841Y016605D02*
X013386Y016605D01*
X013385Y016606D02*
X012841Y016606D01*
X012841Y016607D02*
X013385Y016607D01*
X013385Y016608D02*
X012842Y016608D01*
X012842Y016609D02*
X013384Y016609D01*
X013384Y016610D02*
X012843Y016610D01*
X012843Y016611D02*
X013383Y016611D01*
X013383Y016612D02*
X012843Y016612D01*
X012844Y016613D02*
X013383Y016613D01*
X013382Y016614D02*
X012844Y016614D01*
X012844Y016615D02*
X013382Y016615D01*
X013382Y016616D02*
X012845Y016616D01*
X012845Y016617D02*
X013381Y016617D01*
X013381Y016618D02*
X012845Y016618D01*
X012846Y016619D02*
X013381Y016619D01*
X013380Y016620D02*
X012846Y016620D01*
X012847Y016621D02*
X013380Y016621D01*
X013379Y016622D02*
X012847Y016622D01*
X012847Y016623D02*
X013379Y016623D01*
X013379Y016624D02*
X012848Y016624D01*
X012848Y016625D02*
X013378Y016625D01*
X013378Y016626D02*
X012848Y016626D01*
X012849Y016627D02*
X013378Y016627D01*
X013377Y016628D02*
X012849Y016628D01*
X012849Y016629D02*
X013377Y016629D01*
X013377Y016630D02*
X012850Y016630D01*
X012850Y016631D02*
X013376Y016631D01*
X013376Y016632D02*
X012851Y016632D01*
X012851Y016633D02*
X013375Y016633D01*
X013375Y016634D02*
X012851Y016634D01*
X012852Y016635D02*
X013375Y016635D01*
X013374Y016636D02*
X012852Y016636D01*
X012852Y016637D02*
X013374Y016637D01*
X013374Y016638D02*
X012853Y016638D01*
X012853Y016639D02*
X013373Y016639D01*
X013373Y016640D02*
X012853Y016640D01*
X012854Y016641D02*
X013373Y016641D01*
X013372Y016642D02*
X012854Y016642D01*
X012855Y016643D02*
X013372Y016643D01*
X013371Y016644D02*
X012855Y016644D01*
X012855Y016645D02*
X013371Y016645D01*
X013371Y016646D02*
X012856Y016646D01*
X012856Y016647D02*
X013370Y016647D01*
X013370Y016648D02*
X012856Y016648D01*
X012857Y016649D02*
X013370Y016649D01*
X013369Y016650D02*
X012857Y016650D01*
X012857Y016651D02*
X013369Y016651D01*
X013369Y016652D02*
X012858Y016652D01*
X012858Y016653D02*
X013368Y016653D01*
X013368Y016654D02*
X012859Y016654D01*
X012859Y016655D02*
X013367Y016655D01*
X013367Y016656D02*
X012859Y016656D01*
X012860Y016657D02*
X013367Y016657D01*
X013366Y016658D02*
X012860Y016658D01*
X012860Y016659D02*
X013366Y016659D01*
X013366Y016660D02*
X012861Y016660D01*
X012861Y016661D02*
X013365Y016661D01*
X013365Y016662D02*
X012861Y016662D01*
X012862Y016663D02*
X013365Y016663D01*
X013364Y016664D02*
X012862Y016664D01*
X012863Y016665D02*
X013364Y016665D01*
X013363Y016666D02*
X012863Y016666D01*
X012863Y016667D02*
X013363Y016667D01*
X013363Y016668D02*
X012864Y016668D01*
X012864Y016669D02*
X013362Y016669D01*
X013362Y016670D02*
X012864Y016670D01*
X012865Y016671D02*
X013362Y016671D01*
X013361Y016672D02*
X012865Y016672D01*
X012865Y016673D02*
X013361Y016673D01*
X013361Y016674D02*
X012866Y016674D01*
X012866Y016675D02*
X013360Y016675D01*
X013360Y016676D02*
X012867Y016676D01*
X012867Y016677D02*
X013359Y016677D01*
X013359Y016678D02*
X012867Y016678D01*
X012868Y016679D02*
X013359Y016679D01*
X013358Y016680D02*
X012868Y016680D01*
X012868Y016681D02*
X013358Y016681D01*
X013358Y016682D02*
X012869Y016682D01*
X012869Y016683D02*
X013357Y016683D01*
X013357Y016684D02*
X012869Y016684D01*
X012870Y016685D02*
X013357Y016685D01*
X013356Y016686D02*
X012870Y016686D01*
X012871Y016687D02*
X013356Y016687D01*
X013355Y016688D02*
X012871Y016688D01*
X012871Y016689D02*
X013355Y016689D01*
X013355Y016690D02*
X012872Y016690D01*
X012872Y016691D02*
X013354Y016691D01*
X013354Y016692D02*
X012872Y016692D01*
X012873Y016693D02*
X013354Y016693D01*
X013353Y016694D02*
X012873Y016694D01*
X012873Y016695D02*
X013353Y016695D01*
X013353Y016696D02*
X012874Y016696D01*
X012874Y016697D02*
X013352Y016697D01*
X013352Y016698D02*
X012875Y016698D01*
X012875Y016699D02*
X013351Y016699D01*
X013351Y016700D02*
X012875Y016700D01*
X012876Y016701D02*
X013351Y016701D01*
X013350Y016702D02*
X012876Y016702D01*
X012876Y016703D02*
X013350Y016703D01*
X013350Y016704D02*
X012877Y016704D01*
X012877Y016705D02*
X013349Y016705D01*
X013349Y016706D02*
X012877Y016706D01*
X012878Y016707D02*
X013349Y016707D01*
X013348Y016708D02*
X012878Y016708D01*
X012879Y016709D02*
X013348Y016709D01*
X013347Y016710D02*
X012879Y016710D01*
X012879Y016711D02*
X013347Y016711D01*
X013347Y016712D02*
X012880Y016712D01*
X012880Y016713D02*
X013346Y016713D01*
X013346Y016714D02*
X012880Y016714D01*
X012881Y016715D02*
X013346Y016715D01*
X013345Y016716D02*
X012881Y016716D01*
X012881Y016717D02*
X013345Y016717D01*
X013345Y016718D02*
X012882Y016718D01*
X012882Y016719D02*
X013344Y016719D01*
X013344Y016720D02*
X012883Y016720D01*
X012883Y016721D02*
X013343Y016721D01*
X013343Y016722D02*
X012883Y016722D01*
X012884Y016723D02*
X013343Y016723D01*
X013342Y016724D02*
X012884Y016724D01*
X012884Y016725D02*
X013342Y016725D01*
X013342Y016726D02*
X012885Y016726D01*
X012885Y016727D02*
X013341Y016727D01*
X013341Y016728D02*
X012885Y016728D01*
X012886Y016729D02*
X013340Y016729D01*
X013340Y016730D02*
X012886Y016730D01*
X012887Y016731D02*
X013340Y016731D01*
X013339Y016732D02*
X012887Y016732D01*
X012887Y016733D02*
X013339Y016733D01*
X013338Y016734D02*
X012888Y016734D01*
X012888Y016735D02*
X013338Y016735D01*
X013338Y016736D02*
X012889Y016736D01*
X012889Y016737D02*
X013337Y016737D01*
X013337Y016738D02*
X012889Y016738D01*
X012890Y016739D02*
X013336Y016739D01*
X013336Y016740D02*
X012890Y016740D01*
X012891Y016741D02*
X013336Y016741D01*
X013335Y016742D02*
X012891Y016742D01*
X012891Y016743D02*
X013335Y016743D01*
X013334Y016744D02*
X012892Y016744D01*
X012892Y016745D02*
X013334Y016745D01*
X013334Y016746D02*
X012893Y016746D01*
X012893Y016747D02*
X013333Y016747D01*
X013333Y016748D02*
X012893Y016748D01*
X012894Y016749D02*
X013332Y016749D01*
X013332Y016750D02*
X012894Y016750D01*
X012895Y016751D02*
X013332Y016751D01*
X013331Y016752D02*
X012895Y016752D01*
X012895Y016753D02*
X013331Y016753D01*
X013330Y016754D02*
X012896Y016754D01*
X012896Y016755D02*
X013330Y016755D01*
X013330Y016756D02*
X012897Y016756D01*
X012897Y016757D02*
X013329Y016757D01*
X013329Y016758D02*
X012897Y016758D01*
X012898Y016759D02*
X013328Y016759D01*
X013328Y016760D02*
X012898Y016760D01*
X012899Y016761D02*
X013328Y016761D01*
X013327Y016762D02*
X012899Y016762D01*
X012899Y016763D02*
X013327Y016763D01*
X013326Y016764D02*
X012900Y016764D01*
X012900Y016765D02*
X013326Y016765D01*
D19*
X007637Y016551D03*
X007637Y015370D03*
M02*
