G75*
G70*
%OFA0B0*%
%FSLAX24Y24*%
%IPPOS*%
%LPD*%
%AMOC8*
5,1,8,0,0,1.08239X$1,22.5*
%
%ADD10R,0.0800X0.0260*%
%ADD11R,0.0240X0.0870*%
%ADD12R,0.0433X0.0748*%
%ADD13R,0.0433X0.0394*%
%ADD14R,0.0394X0.0433*%
%ADD15R,0.0453X0.0394*%
%ADD16R,0.0551X0.0394*%
%ADD17R,0.0210X0.0630*%
%ADD18R,0.1220X0.0950*%
%ADD19C,0.0060*%
%ADD20R,0.0440X0.0710*%
%ADD21R,0.0440X0.0570*%
%ADD22R,0.0570X0.0440*%
%ADD23R,0.1280X0.0310*%
%ADD24R,0.0860X0.0640*%
%ADD25R,0.3150X0.0870*%
D10*
X006207Y020210D03*
X006207Y020710D03*
X006207Y021210D03*
X006207Y021710D03*
X006207Y022210D03*
X006207Y022710D03*
X006207Y023210D03*
X006207Y023710D03*
X006207Y024210D03*
X010067Y024210D03*
X010067Y023710D03*
X010067Y023210D03*
X010067Y022710D03*
X010067Y022210D03*
X010067Y021710D03*
X010067Y021210D03*
X010067Y020710D03*
X010067Y020210D03*
D11*
X009887Y016990D03*
X010387Y016990D03*
X010887Y016990D03*
X010887Y014930D03*
X010387Y014930D03*
X009887Y014930D03*
X009387Y014930D03*
X009387Y016990D03*
D12*
X010934Y022732D03*
X011840Y022732D03*
X011840Y024189D03*
X010934Y024189D03*
D13*
X011052Y025210D03*
X011721Y025210D03*
X011721Y021710D03*
X011052Y021710D03*
X010471Y017960D03*
X009802Y017960D03*
X008471Y024960D03*
X007802Y024960D03*
D14*
X007637Y018545D03*
X007637Y017876D03*
X008637Y017876D03*
X008637Y018545D03*
X006637Y018545D03*
X006637Y017876D03*
X011637Y016295D03*
X011637Y015626D03*
D15*
X008749Y015960D03*
X008749Y014976D03*
X008749Y016944D03*
X006525Y016944D03*
X006525Y015960D03*
X006525Y014976D03*
D16*
X006570Y011711D03*
X006570Y012459D03*
X005704Y012085D03*
D17*
X013387Y017920D03*
X013887Y017920D03*
X014387Y017920D03*
X014887Y017920D03*
X014887Y020000D03*
X014387Y020000D03*
X013887Y020000D03*
X013387Y020000D03*
D18*
X014137Y018960D03*
D19*
X014177Y018520D02*
X014707Y018520D01*
X014707Y019400D01*
X014177Y019400D01*
X014177Y018520D01*
X014097Y018520D02*
X014097Y019400D01*
X013567Y019400D01*
X013567Y018520D01*
X014097Y018520D01*
D20*
X013797Y014710D03*
X014977Y014710D03*
D21*
X014372Y016960D03*
X013652Y016960D03*
D22*
X015637Y018600D03*
X015637Y019320D03*
D23*
X016862Y022210D03*
X018662Y022210D03*
D24*
X015117Y015835D03*
X013657Y015835D03*
D25*
X017762Y017840D03*
X017762Y020080D03*
M02*
