G75*
G70*
%OFA0B0*%
%FSLAX24Y24*%
%IPPOS*%
%LPD*%
%AMOC8*
5,1,8,0,0,1.08239X$1,22.5*
%
%ADD10R,0.0594X0.0594*%
%ADD11C,0.0660*%
%ADD12C,0.0594*%
%ADD13C,0.0740*%
%ADD14R,0.0740X0.0740*%
%ADD15R,0.0800X0.0260*%
%ADD16R,0.0240X0.0870*%
%ADD17R,0.0433X0.0748*%
%ADD18R,0.0433X0.0394*%
%ADD19R,0.0394X0.0433*%
%ADD20R,0.0453X0.0394*%
%ADD21R,0.0551X0.0394*%
%ADD22R,0.0210X0.0630*%
%ADD23R,0.1220X0.0950*%
%ADD24R,0.0440X0.0710*%
%ADD25R,0.0440X0.0570*%
%ADD26R,0.0570X0.0440*%
%ADD27R,0.1280X0.0310*%
%ADD28R,0.0860X0.0640*%
%ADD29R,0.3150X0.0870*%
%ADD30C,0.0100*%
%ADD31C,0.0238*%
%ADD32C,0.0160*%
%ADD33C,0.0200*%
%ADD34C,0.0240*%
%ADD35C,0.0060*%
%ADD36C,0.0317*%
%ADD37C,0.0400*%
D10*
X004637Y006960D03*
D11*
X003637Y006960D03*
X003637Y008960D03*
D12*
X003637Y009960D03*
X003637Y010960D03*
X003637Y011960D03*
X003637Y012960D03*
X003637Y013960D03*
X003637Y014960D03*
X003637Y015960D03*
X003637Y016960D03*
X003637Y017960D03*
X003637Y018960D03*
X004637Y018960D03*
X004637Y017960D03*
X004637Y016960D03*
X004637Y015960D03*
X004637Y014960D03*
X004637Y013960D03*
X004637Y012960D03*
X004637Y011960D03*
X004637Y010960D03*
X004637Y009960D03*
X004637Y008960D03*
X004637Y007960D03*
X003637Y007960D03*
D13*
X008887Y011585D03*
X009387Y010585D03*
X009887Y011585D03*
X010387Y010585D03*
X010887Y011585D03*
X011387Y010585D03*
X011887Y011585D03*
X014887Y011585D03*
X015387Y010585D03*
X015887Y011585D03*
X016387Y010585D03*
X016887Y011585D03*
X017887Y011585D03*
X017387Y010585D03*
D14*
X014387Y010585D03*
X008387Y010585D03*
D15*
X010067Y020210D03*
X010067Y020710D03*
X010067Y021210D03*
X010067Y021710D03*
X010067Y022210D03*
X010067Y022710D03*
X010067Y023210D03*
X010067Y023710D03*
X010067Y024210D03*
X006207Y024210D03*
X006207Y023710D03*
X006207Y023210D03*
X006207Y022710D03*
X006207Y022210D03*
X006207Y021710D03*
X006207Y021210D03*
X006207Y020710D03*
X006207Y020210D03*
D16*
X009387Y016990D03*
X009887Y016990D03*
X010387Y016990D03*
X010887Y016990D03*
X010887Y014930D03*
X010387Y014930D03*
X009887Y014930D03*
X009387Y014930D03*
D17*
X010934Y022732D03*
X011840Y022732D03*
X011840Y024189D03*
X010934Y024189D03*
D18*
X011052Y025210D03*
X011721Y025210D03*
X011721Y021710D03*
X011052Y021710D03*
X010471Y017960D03*
X009802Y017960D03*
X008471Y024960D03*
X007802Y024960D03*
D19*
X007637Y018545D03*
X007637Y017876D03*
X008637Y017876D03*
X008637Y018545D03*
X006637Y018545D03*
X006637Y017876D03*
X011637Y016295D03*
X011637Y015626D03*
D20*
X008749Y015960D03*
X008749Y014976D03*
X008749Y016944D03*
X006525Y016944D03*
X006525Y015960D03*
X006525Y014976D03*
D21*
X006570Y012459D03*
X006570Y011711D03*
X005704Y012085D03*
D22*
X013387Y017920D03*
X013887Y017920D03*
X014387Y017920D03*
X014887Y017920D03*
X014887Y020000D03*
X014387Y020000D03*
X013887Y020000D03*
X013387Y020000D03*
D23*
X014137Y018960D03*
D24*
X013797Y014710D03*
X014977Y014710D03*
D25*
X014372Y016960D03*
X013652Y016960D03*
D26*
X015637Y018600D03*
X015637Y019320D03*
D27*
X016862Y022210D03*
X018662Y022210D03*
D28*
X015117Y015835D03*
X013657Y015835D03*
D29*
X017762Y017840D03*
X017762Y020080D03*
D30*
X018137Y020710D02*
X013637Y020710D01*
X013387Y020460D01*
X013387Y020085D01*
X013387Y020000D01*
X011762Y021710D02*
X011762Y022085D01*
X011762Y021710D02*
X011721Y021710D01*
X011387Y022210D02*
X011387Y023185D01*
X011374Y023197D01*
X011840Y022732D01*
X011374Y023197D02*
X011111Y023460D01*
X010637Y023460D01*
X010387Y023210D01*
X010067Y023210D01*
X010067Y023710D02*
X010637Y023710D01*
X010934Y024007D01*
X010934Y024189D01*
X011052Y024307D01*
X011052Y025210D01*
X011721Y025210D02*
X011721Y025126D01*
X011762Y025085D01*
X011762Y024835D01*
X011387Y022210D02*
X011052Y021876D01*
X011052Y021710D01*
X010067Y020710D02*
X009637Y020710D01*
X009387Y020460D01*
X009387Y016990D01*
X009887Y016990D02*
X009887Y016210D01*
X010137Y015960D01*
X011262Y015960D01*
X011596Y015626D01*
X011637Y015626D01*
X011637Y016295D02*
X011677Y016335D01*
X011677Y016670D01*
X011637Y016710D01*
X011637Y016295D02*
X010552Y016295D01*
X010387Y016460D01*
X010387Y016990D01*
X010887Y016990D02*
X010887Y017210D01*
X011137Y017460D01*
X011137Y019140D01*
X010067Y020210D01*
X009887Y018335D02*
X009887Y017960D01*
X009802Y017960D01*
X009762Y017960D01*
X009637Y017835D01*
X009637Y015710D01*
X009387Y015460D01*
X009387Y014930D01*
X009887Y014930D02*
X009887Y014460D01*
X009637Y014210D01*
X008387Y014210D01*
X008387Y012085D01*
X008887Y011585D01*
X008887Y010335D01*
X009762Y009460D01*
X014887Y009460D01*
X015387Y009710D02*
X010262Y009710D01*
X009387Y010585D01*
X008387Y010335D02*
X009512Y009210D01*
X014387Y009210D01*
X016637Y009960D02*
X016887Y010210D01*
X016887Y011585D01*
X016637Y009960D02*
X011137Y009960D01*
X010887Y010210D01*
X010887Y011585D01*
X009762Y013960D02*
X008637Y013960D01*
X008387Y014210D02*
X008387Y015835D01*
X008512Y015960D01*
X008749Y015960D01*
X008749Y016944D02*
X008749Y017763D01*
X008637Y017876D01*
X008637Y018545D02*
X007637Y018545D01*
X006637Y018545D01*
X006637Y017876D02*
X006525Y017763D01*
X006525Y016944D01*
X006525Y015960D02*
X006525Y015848D01*
X006137Y015460D01*
X006137Y013960D01*
X006137Y013335D01*
X006137Y012144D01*
X006570Y011711D01*
X007261Y011711D01*
X008387Y010585D01*
X008387Y010335D01*
X008387Y012085D02*
X008013Y012459D01*
X006570Y012459D01*
X006137Y013335D02*
X006137Y013960D01*
X005387Y014960D02*
X005137Y014960D01*
X005137Y007460D01*
X004637Y006960D01*
X003637Y007960D02*
X003137Y008460D01*
X003137Y015210D01*
X003137Y016210D01*
X003387Y016460D01*
X003887Y016460D01*
X004137Y016710D01*
X004137Y017210D01*
X004387Y017460D01*
X004637Y017460D01*
X004637Y017960D02*
X004387Y017960D01*
X004137Y018210D01*
X004137Y022460D01*
X004387Y022710D01*
X006207Y022710D01*
X006207Y022210D02*
X005387Y022210D01*
X005137Y021960D01*
X005137Y016210D01*
X004887Y015960D01*
X004637Y015960D01*
X004637Y014960D02*
X005137Y014960D01*
X005387Y014960D02*
X005637Y015210D01*
X005637Y015335D01*
X005637Y015835D01*
X005637Y015335D01*
X005637Y015835D02*
X005637Y017835D01*
X005637Y018335D01*
X005637Y017835D01*
X005637Y018335D02*
X005637Y019960D01*
X005887Y020210D01*
X006207Y020210D01*
X007637Y020210D01*
X007887Y020460D01*
X007887Y020710D01*
X006207Y020710D01*
X006207Y021210D02*
X005637Y021210D01*
X005387Y021460D02*
X005387Y016960D01*
X003637Y016960D02*
X003387Y016960D01*
X003137Y017210D01*
X003137Y022710D01*
X003637Y023210D01*
X006207Y023210D01*
X006207Y021710D02*
X005637Y021710D01*
X005387Y021460D01*
X007637Y017876D02*
X007637Y017210D01*
X007887Y020710D02*
X007887Y024876D01*
X007802Y024960D01*
X008471Y024960D02*
X008471Y024376D01*
X008512Y024335D01*
X008512Y024960D01*
X008887Y024960D01*
X008512Y024335D02*
X008637Y024210D01*
X010067Y024210D01*
X008637Y024210D01*
X008512Y024335D01*
X010471Y017960D02*
X010887Y017960D01*
X010137Y017585D02*
X009887Y017335D01*
X009887Y016990D01*
X009887Y016210D02*
X010137Y015960D01*
X010387Y014930D02*
X010387Y014585D01*
X009762Y013960D01*
X010887Y014930D02*
X010887Y014960D01*
X011262Y014960D01*
X005704Y012085D02*
X005704Y012027D01*
X005637Y011960D01*
X005637Y011460D01*
X018137Y020710D02*
X018137Y020935D01*
X018662Y021460D01*
D31*
X014637Y019335D03*
X014387Y019085D03*
X014637Y018835D03*
X014387Y018585D03*
X014137Y018835D03*
X013887Y018585D03*
X013637Y018835D03*
X013887Y019085D03*
X014137Y019335D03*
X013637Y019335D03*
X013387Y020460D03*
X011762Y022085D03*
X011762Y024835D03*
X008887Y024960D03*
X005637Y021210D03*
X005637Y018335D03*
X004637Y017460D03*
X005387Y016960D03*
X006137Y013960D03*
X005637Y011460D03*
X008637Y013960D03*
X007637Y017210D03*
X009887Y018335D03*
X010137Y017585D03*
X010887Y017960D03*
X011637Y016710D03*
X011262Y014960D03*
X014387Y009210D03*
X014887Y009460D03*
X015387Y009710D03*
D32*
X003637Y007960D02*
X003637Y006960D01*
D33*
X003637Y006585D02*
X003887Y006335D01*
X019137Y006335D01*
X019199Y006398D01*
X019637Y006835D01*
X003637Y006585D02*
X003637Y007960D01*
D34*
X014387Y014710D02*
X014387Y016945D01*
X014372Y016960D01*
X014372Y017905D01*
X014387Y017920D01*
X014887Y017920D02*
X015567Y018600D01*
X015637Y018600D01*
X017002Y018600D01*
X017762Y017840D01*
X017642Y017960D01*
X017137Y017960D01*
X015117Y015940D01*
X015117Y015835D01*
X014977Y014710D02*
X014387Y014710D01*
X015567Y019320D02*
X014887Y020000D01*
X015567Y019320D02*
X015637Y019320D01*
X017762Y020080D02*
X018662Y020980D01*
X018662Y021460D01*
X018662Y022210D01*
D35*
X018137Y022460D02*
X019387Y022460D01*
X019387Y019585D01*
X016262Y019585D01*
X016262Y020585D01*
X018137Y022460D01*
X018134Y022457D02*
X019387Y022457D01*
X019387Y022399D02*
X018075Y022399D01*
X018017Y022340D02*
X019387Y022340D01*
X019387Y022282D02*
X017958Y022282D01*
X017900Y022223D02*
X019387Y022223D01*
X019387Y022165D02*
X017841Y022165D01*
X017783Y022106D02*
X019387Y022106D01*
X019387Y022048D02*
X017724Y022048D01*
X017666Y021989D02*
X019387Y021989D01*
X019387Y021931D02*
X017607Y021931D01*
X017549Y021872D02*
X019387Y021872D01*
X019387Y021814D02*
X017490Y021814D01*
X017432Y021755D02*
X019387Y021755D01*
X019387Y021697D02*
X017373Y021697D01*
X017315Y021638D02*
X019387Y021638D01*
X019387Y021580D02*
X017256Y021580D01*
X017198Y021521D02*
X019387Y021521D01*
X019387Y021463D02*
X017139Y021463D01*
X017081Y021404D02*
X019387Y021404D01*
X019387Y021346D02*
X017022Y021346D01*
X016964Y021287D02*
X019387Y021287D01*
X019387Y021229D02*
X016905Y021229D01*
X016847Y021170D02*
X019387Y021170D01*
X019387Y021112D02*
X016788Y021112D01*
X016730Y021053D02*
X019387Y021053D01*
X019387Y020995D02*
X016671Y020995D01*
X016613Y020936D02*
X019387Y020936D01*
X019387Y020878D02*
X016554Y020878D01*
X016496Y020819D02*
X019387Y020819D01*
X019387Y020761D02*
X016437Y020761D01*
X016379Y020702D02*
X019387Y020702D01*
X019387Y020644D02*
X016320Y020644D01*
X016262Y020585D02*
X019387Y020585D01*
X019387Y020527D02*
X016262Y020527D01*
X016262Y020468D02*
X019387Y020468D01*
X019387Y020410D02*
X016262Y020410D01*
X016262Y020351D02*
X019387Y020351D01*
X019387Y020293D02*
X016262Y020293D01*
X016262Y020234D02*
X019387Y020234D01*
X019387Y020176D02*
X016262Y020176D01*
X016262Y020117D02*
X019387Y020117D01*
X019387Y020059D02*
X016262Y020059D01*
X016262Y020000D02*
X019387Y020000D01*
X019387Y019942D02*
X016262Y019942D01*
X016262Y019883D02*
X019387Y019883D01*
X019387Y019825D02*
X016262Y019825D01*
X016262Y019766D02*
X019387Y019766D01*
X019387Y019708D02*
X016262Y019708D01*
X016262Y019649D02*
X019387Y019649D01*
X019387Y019591D02*
X016262Y019591D01*
X016142Y019563D02*
X016142Y019536D01*
X016212Y019465D01*
X019437Y019465D01*
X019507Y019536D01*
X019507Y022510D01*
X019437Y022580D01*
X019337Y022580D01*
X018087Y022580D01*
X018017Y022510D01*
X016357Y020850D01*
X013579Y020850D01*
X013497Y020768D01*
X013398Y020669D01*
X013300Y020669D01*
X013178Y020547D01*
X013178Y020374D01*
X013195Y020356D01*
X013192Y020353D01*
X013192Y019648D01*
X013245Y019595D01*
X013529Y019595D01*
X013582Y019648D01*
X013582Y020353D01*
X013578Y020356D01*
X013596Y020374D01*
X013596Y020471D01*
X013695Y020570D01*
X016115Y020570D01*
X016097Y020553D01*
X016097Y019608D01*
X016142Y019563D01*
X016145Y019532D02*
X016012Y019532D01*
X016012Y019578D02*
X016012Y019080D01*
X019437Y019080D01*
X019507Y019010D01*
X019507Y017286D01*
X019437Y017215D01*
X017562Y017215D01*
X015757Y015411D01*
X015687Y015340D01*
X014597Y015340D01*
X014597Y014920D01*
X014667Y014920D01*
X014667Y015103D01*
X014720Y015155D01*
X015234Y015155D01*
X015287Y015103D01*
X015287Y014769D01*
X015302Y014733D01*
X015302Y013960D01*
X020137Y013960D01*
X020137Y023960D01*
X012637Y023960D01*
X012637Y013960D01*
X014722Y013960D01*
X014722Y014265D01*
X014720Y014265D01*
X014667Y014318D01*
X014667Y014500D01*
X014300Y014500D01*
X014177Y014623D01*
X014177Y016585D01*
X014115Y016585D01*
X014062Y016638D01*
X014062Y017283D01*
X014115Y017335D01*
X014162Y017335D01*
X014162Y017992D01*
X014192Y018022D01*
X014192Y018273D01*
X014245Y018325D01*
X014529Y018325D01*
X014556Y018299D01*
X014587Y018330D01*
X014587Y018330D01*
X015267Y019010D01*
X015267Y019010D01*
X015291Y019034D01*
X015262Y019063D01*
X015262Y019328D01*
X014995Y019595D01*
X014745Y019595D01*
X014692Y019648D01*
X014692Y019898D01*
X014677Y019913D01*
X014677Y020087D01*
X014692Y020102D01*
X014692Y020353D01*
X014745Y020405D01*
X015029Y020405D01*
X015082Y020353D01*
X015082Y020102D01*
X015554Y019630D01*
X015959Y019630D01*
X016012Y019578D01*
X015999Y019591D02*
X016114Y019591D01*
X016097Y019649D02*
X015535Y019649D01*
X015476Y019708D02*
X016097Y019708D01*
X016097Y019766D02*
X015418Y019766D01*
X015359Y019825D02*
X016097Y019825D01*
X016097Y019883D02*
X015301Y019883D01*
X015242Y019942D02*
X016097Y019942D01*
X016097Y020000D02*
X015184Y020000D01*
X015125Y020059D02*
X016097Y020059D01*
X016097Y020117D02*
X015082Y020117D01*
X015082Y020176D02*
X016097Y020176D01*
X016097Y020234D02*
X015082Y020234D01*
X015082Y020293D02*
X016097Y020293D01*
X016097Y020351D02*
X015082Y020351D01*
X014692Y020351D02*
X014582Y020351D01*
X014582Y020353D02*
X014529Y020405D01*
X014245Y020405D01*
X014192Y020353D01*
X014192Y019648D01*
X014245Y019595D01*
X014529Y019595D01*
X014582Y019648D01*
X014582Y020353D01*
X014582Y020293D02*
X014692Y020293D01*
X014692Y020234D02*
X014582Y020234D01*
X014582Y020176D02*
X014692Y020176D01*
X014692Y020117D02*
X014582Y020117D01*
X014582Y020059D02*
X014677Y020059D01*
X014677Y020000D02*
X014582Y020000D01*
X014582Y019942D02*
X014677Y019942D01*
X014692Y019883D02*
X014582Y019883D01*
X014582Y019825D02*
X014692Y019825D01*
X014692Y019766D02*
X014582Y019766D01*
X014582Y019708D02*
X014692Y019708D01*
X014692Y019649D02*
X014582Y019649D01*
X014192Y019649D02*
X014082Y019649D01*
X014082Y019648D02*
X014082Y020353D01*
X014029Y020405D01*
X013745Y020405D01*
X013692Y020353D01*
X013692Y019648D01*
X013745Y019595D01*
X014029Y019595D01*
X014082Y019648D01*
X014082Y019708D02*
X014192Y019708D01*
X014192Y019766D02*
X014082Y019766D01*
X014082Y019825D02*
X014192Y019825D01*
X014192Y019883D02*
X014082Y019883D01*
X014082Y019942D02*
X014192Y019942D01*
X014192Y020000D02*
X014082Y020000D01*
X014082Y020059D02*
X014192Y020059D01*
X014192Y020117D02*
X014082Y020117D01*
X014082Y020176D02*
X014192Y020176D01*
X014192Y020234D02*
X014082Y020234D01*
X014082Y020293D02*
X014192Y020293D01*
X014192Y020351D02*
X014082Y020351D01*
X013692Y020351D02*
X013582Y020351D01*
X013582Y020293D02*
X013692Y020293D01*
X013692Y020234D02*
X013582Y020234D01*
X013582Y020176D02*
X013692Y020176D01*
X013692Y020117D02*
X013582Y020117D01*
X013582Y020059D02*
X013692Y020059D01*
X013692Y020000D02*
X013582Y020000D01*
X013582Y019942D02*
X013692Y019942D01*
X013692Y019883D02*
X013582Y019883D01*
X013582Y019825D02*
X013692Y019825D01*
X013692Y019766D02*
X013582Y019766D01*
X013582Y019708D02*
X013692Y019708D01*
X013692Y019649D02*
X013582Y019649D01*
X013192Y019649D02*
X012637Y019649D01*
X012637Y019591D02*
X014999Y019591D01*
X015058Y019532D02*
X012637Y019532D01*
X012637Y019474D02*
X015116Y019474D01*
X015175Y019415D02*
X012637Y019415D01*
X012637Y019357D02*
X015233Y019357D01*
X015262Y019298D02*
X012637Y019298D01*
X012637Y019240D02*
X015262Y019240D01*
X015262Y019181D02*
X012637Y019181D01*
X012637Y019123D02*
X015262Y019123D01*
X015262Y019064D02*
X012637Y019064D01*
X012637Y019006D02*
X015263Y019006D01*
X015204Y018947D02*
X012637Y018947D01*
X012637Y018889D02*
X015146Y018889D01*
X015087Y018830D02*
X012637Y018830D01*
X012637Y018772D02*
X015029Y018772D01*
X014970Y018713D02*
X012637Y018713D01*
X012637Y018655D02*
X014912Y018655D01*
X014853Y018596D02*
X012637Y018596D01*
X012637Y018538D02*
X014795Y018538D01*
X014736Y018479D02*
X012637Y018479D01*
X012637Y018421D02*
X014678Y018421D01*
X014619Y018362D02*
X012637Y018362D01*
X012637Y018304D02*
X013223Y018304D01*
X013245Y018325D02*
X013192Y018273D01*
X013192Y017568D01*
X013245Y017515D01*
X013529Y017515D01*
X013582Y017568D01*
X013582Y018273D01*
X013529Y018325D01*
X013245Y018325D01*
X013192Y018245D02*
X012637Y018245D01*
X012637Y018187D02*
X013192Y018187D01*
X013192Y018128D02*
X012637Y018128D01*
X012637Y018070D02*
X013192Y018070D01*
X013192Y018011D02*
X012637Y018011D01*
X012637Y017953D02*
X013192Y017953D01*
X013192Y017894D02*
X012637Y017894D01*
X012637Y017836D02*
X013192Y017836D01*
X013192Y017777D02*
X012637Y017777D01*
X012637Y017719D02*
X013192Y017719D01*
X013192Y017660D02*
X012637Y017660D01*
X012637Y017602D02*
X013192Y017602D01*
X013216Y017543D02*
X012637Y017543D01*
X012637Y017485D02*
X014162Y017485D01*
X014162Y017543D02*
X013557Y017543D01*
X013582Y017602D02*
X014162Y017602D01*
X014162Y017660D02*
X013582Y017660D01*
X013582Y017719D02*
X014162Y017719D01*
X014162Y017777D02*
X013582Y017777D01*
X013582Y017836D02*
X014162Y017836D01*
X014162Y017894D02*
X013582Y017894D01*
X013582Y017953D02*
X014162Y017953D01*
X014181Y018011D02*
X013582Y018011D01*
X013582Y018070D02*
X014192Y018070D01*
X014192Y018128D02*
X013582Y018128D01*
X013582Y018187D02*
X014192Y018187D01*
X014192Y018245D02*
X013582Y018245D01*
X013551Y018304D02*
X014223Y018304D01*
X014551Y018304D02*
X014561Y018304D01*
X014637Y018210D02*
X014637Y017328D01*
X014682Y017283D01*
X014682Y016638D01*
X014637Y016593D01*
X014637Y015460D01*
X015637Y015460D01*
X017512Y017335D01*
X019387Y017335D01*
X019387Y018960D01*
X015387Y018960D01*
X014637Y018210D01*
X014637Y018187D02*
X019387Y018187D01*
X019387Y018245D02*
X014672Y018245D01*
X014730Y018304D02*
X019387Y018304D01*
X019387Y018362D02*
X014789Y018362D01*
X014847Y018421D02*
X019387Y018421D01*
X019387Y018479D02*
X014906Y018479D01*
X014964Y018538D02*
X019387Y018538D01*
X019387Y018596D02*
X015023Y018596D01*
X015081Y018655D02*
X019387Y018655D01*
X019387Y018713D02*
X015140Y018713D01*
X015198Y018772D02*
X019387Y018772D01*
X019387Y018830D02*
X015257Y018830D01*
X015315Y018889D02*
X019387Y018889D01*
X019387Y018947D02*
X015374Y018947D01*
X016012Y019123D02*
X020137Y019123D01*
X020137Y019181D02*
X016012Y019181D01*
X016012Y019240D02*
X020137Y019240D01*
X020137Y019298D02*
X016012Y019298D01*
X016012Y019357D02*
X020137Y019357D01*
X020137Y019415D02*
X016012Y019415D01*
X016012Y019474D02*
X016204Y019474D01*
X016097Y020410D02*
X013596Y020410D01*
X013596Y020468D02*
X016097Y020468D01*
X016097Y020527D02*
X013651Y020527D01*
X013431Y020702D02*
X012637Y020702D01*
X012637Y020644D02*
X013275Y020644D01*
X013216Y020585D02*
X012637Y020585D01*
X012637Y020527D02*
X013178Y020527D01*
X013178Y020468D02*
X012637Y020468D01*
X012637Y020410D02*
X013178Y020410D01*
X013192Y020351D02*
X012637Y020351D01*
X012637Y020293D02*
X013192Y020293D01*
X013192Y020234D02*
X012637Y020234D01*
X012637Y020176D02*
X013192Y020176D01*
X013192Y020117D02*
X012637Y020117D01*
X012637Y020059D02*
X013192Y020059D01*
X013192Y020000D02*
X012637Y020000D01*
X012637Y019942D02*
X013192Y019942D01*
X013192Y019883D02*
X012637Y019883D01*
X012637Y019825D02*
X013192Y019825D01*
X013192Y019766D02*
X012637Y019766D01*
X012637Y019708D02*
X013192Y019708D01*
X013489Y020761D02*
X012637Y020761D01*
X012637Y020819D02*
X013548Y020819D01*
X012637Y020878D02*
X016385Y020878D01*
X016443Y020936D02*
X012637Y020936D01*
X012637Y020995D02*
X016502Y020995D01*
X016560Y021053D02*
X012637Y021053D01*
X012637Y021112D02*
X016619Y021112D01*
X016677Y021170D02*
X012637Y021170D01*
X012637Y021229D02*
X016736Y021229D01*
X016794Y021287D02*
X012637Y021287D01*
X012637Y021346D02*
X016853Y021346D01*
X016911Y021404D02*
X012637Y021404D01*
X012637Y021463D02*
X016970Y021463D01*
X017028Y021521D02*
X012637Y021521D01*
X012637Y021580D02*
X017087Y021580D01*
X017145Y021638D02*
X012637Y021638D01*
X012637Y021697D02*
X017204Y021697D01*
X017262Y021755D02*
X012637Y021755D01*
X012637Y021814D02*
X017321Y021814D01*
X017379Y021872D02*
X012637Y021872D01*
X012637Y021931D02*
X017438Y021931D01*
X017496Y021989D02*
X012637Y021989D01*
X012637Y022048D02*
X017555Y022048D01*
X017613Y022106D02*
X012637Y022106D01*
X012637Y022165D02*
X017672Y022165D01*
X017730Y022223D02*
X012637Y022223D01*
X012637Y022282D02*
X017789Y022282D01*
X017847Y022340D02*
X012637Y022340D01*
X012637Y022399D02*
X017906Y022399D01*
X017964Y022457D02*
X012637Y022457D01*
X012637Y022516D02*
X018023Y022516D01*
X018081Y022574D02*
X012637Y022574D01*
X012637Y022633D02*
X020137Y022633D01*
X020137Y022691D02*
X012637Y022691D01*
X012637Y022750D02*
X020137Y022750D01*
X020137Y022808D02*
X012637Y022808D01*
X012637Y022867D02*
X020137Y022867D01*
X020137Y022925D02*
X012637Y022925D01*
X012637Y022984D02*
X020137Y022984D01*
X020137Y023042D02*
X012637Y023042D01*
X012637Y023101D02*
X020137Y023101D01*
X020137Y023159D02*
X012637Y023159D01*
X012637Y023218D02*
X020137Y023218D01*
X020137Y023276D02*
X012637Y023276D01*
X012637Y023335D02*
X020137Y023335D01*
X020137Y023393D02*
X012637Y023393D01*
X012637Y023452D02*
X020137Y023452D01*
X020137Y023510D02*
X012637Y023510D01*
X012637Y023569D02*
X020137Y023569D01*
X020137Y023627D02*
X012637Y023627D01*
X012637Y023686D02*
X020137Y023686D01*
X020137Y023744D02*
X012637Y023744D01*
X012637Y023803D02*
X020137Y023803D01*
X020137Y023861D02*
X012637Y023861D01*
X012637Y023920D02*
X020137Y023920D01*
X020137Y022574D02*
X019442Y022574D01*
X019501Y022516D02*
X020137Y022516D01*
X020137Y022457D02*
X019507Y022457D01*
X019507Y022399D02*
X020137Y022399D01*
X020137Y022340D02*
X019507Y022340D01*
X019507Y022282D02*
X020137Y022282D01*
X020137Y022223D02*
X019507Y022223D01*
X019507Y022165D02*
X020137Y022165D01*
X020137Y022106D02*
X019507Y022106D01*
X019507Y022048D02*
X020137Y022048D01*
X020137Y021989D02*
X019507Y021989D01*
X019507Y021931D02*
X020137Y021931D01*
X020137Y021872D02*
X019507Y021872D01*
X019507Y021814D02*
X020137Y021814D01*
X020137Y021755D02*
X019507Y021755D01*
X019507Y021697D02*
X020137Y021697D01*
X020137Y021638D02*
X019507Y021638D01*
X019507Y021580D02*
X020137Y021580D01*
X020137Y021521D02*
X019507Y021521D01*
X019507Y021463D02*
X020137Y021463D01*
X020137Y021404D02*
X019507Y021404D01*
X019507Y021346D02*
X020137Y021346D01*
X020137Y021287D02*
X019507Y021287D01*
X019507Y021229D02*
X020137Y021229D01*
X020137Y021170D02*
X019507Y021170D01*
X019507Y021112D02*
X020137Y021112D01*
X020137Y021053D02*
X019507Y021053D01*
X019507Y020995D02*
X020137Y020995D01*
X020137Y020936D02*
X019507Y020936D01*
X019507Y020878D02*
X020137Y020878D01*
X020137Y020819D02*
X019507Y020819D01*
X019507Y020761D02*
X020137Y020761D01*
X020137Y020702D02*
X019507Y020702D01*
X019507Y020644D02*
X020137Y020644D01*
X020137Y020585D02*
X019507Y020585D01*
X019507Y020527D02*
X020137Y020527D01*
X020137Y020468D02*
X019507Y020468D01*
X019507Y020410D02*
X020137Y020410D01*
X020137Y020351D02*
X019507Y020351D01*
X019507Y020293D02*
X020137Y020293D01*
X020137Y020234D02*
X019507Y020234D01*
X019507Y020176D02*
X020137Y020176D01*
X020137Y020117D02*
X019507Y020117D01*
X019507Y020059D02*
X020137Y020059D01*
X020137Y020000D02*
X019507Y020000D01*
X019507Y019942D02*
X020137Y019942D01*
X020137Y019883D02*
X019507Y019883D01*
X019507Y019825D02*
X020137Y019825D01*
X020137Y019766D02*
X019507Y019766D01*
X019507Y019708D02*
X020137Y019708D01*
X020137Y019649D02*
X019507Y019649D01*
X019507Y019591D02*
X020137Y019591D01*
X020137Y019532D02*
X019504Y019532D01*
X019445Y019474D02*
X020137Y019474D01*
X020137Y019064D02*
X019452Y019064D01*
X019507Y019006D02*
X020137Y019006D01*
X020137Y018947D02*
X019507Y018947D01*
X019507Y018889D02*
X020137Y018889D01*
X020137Y018830D02*
X019507Y018830D01*
X019507Y018772D02*
X020137Y018772D01*
X020137Y018713D02*
X019507Y018713D01*
X019507Y018655D02*
X020137Y018655D01*
X020137Y018596D02*
X019507Y018596D01*
X019507Y018538D02*
X020137Y018538D01*
X020137Y018479D02*
X019507Y018479D01*
X019507Y018421D02*
X020137Y018421D01*
X020137Y018362D02*
X019507Y018362D01*
X019507Y018304D02*
X020137Y018304D01*
X020137Y018245D02*
X019507Y018245D01*
X019507Y018187D02*
X020137Y018187D01*
X020137Y018128D02*
X019507Y018128D01*
X019507Y018070D02*
X020137Y018070D01*
X020137Y018011D02*
X019507Y018011D01*
X019507Y017953D02*
X020137Y017953D01*
X020137Y017894D02*
X019507Y017894D01*
X019507Y017836D02*
X020137Y017836D01*
X020137Y017777D02*
X019507Y017777D01*
X019507Y017719D02*
X020137Y017719D01*
X020137Y017660D02*
X019507Y017660D01*
X019507Y017602D02*
X020137Y017602D01*
X020137Y017543D02*
X019507Y017543D01*
X019507Y017485D02*
X020137Y017485D01*
X020137Y017426D02*
X019507Y017426D01*
X019507Y017368D02*
X020137Y017368D01*
X020137Y017309D02*
X019507Y017309D01*
X019472Y017251D02*
X020137Y017251D01*
X020137Y017192D02*
X017539Y017192D01*
X017480Y017134D02*
X020137Y017134D01*
X020137Y017075D02*
X017422Y017075D01*
X017363Y017017D02*
X020137Y017017D01*
X020137Y016958D02*
X017305Y016958D01*
X017246Y016900D02*
X020137Y016900D01*
X020137Y016841D02*
X017188Y016841D01*
X017129Y016783D02*
X020137Y016783D01*
X020137Y016724D02*
X017743Y016724D01*
X017658Y016760D02*
X017379Y016760D01*
X017122Y016653D01*
X016925Y016456D01*
X016818Y016198D01*
X016818Y015919D01*
X016925Y015662D01*
X017122Y015464D01*
X017379Y015358D01*
X017658Y015358D01*
X017916Y015464D01*
X018113Y015662D01*
X018220Y015919D01*
X018220Y016198D01*
X018113Y016456D01*
X017916Y016653D01*
X017658Y016760D01*
X017884Y016666D02*
X020137Y016666D01*
X020137Y016607D02*
X017961Y016607D01*
X018020Y016549D02*
X020137Y016549D01*
X020137Y016490D02*
X018078Y016490D01*
X018123Y016432D02*
X020137Y016432D01*
X020137Y016373D02*
X018147Y016373D01*
X018171Y016315D02*
X020137Y016315D01*
X020137Y016256D02*
X018195Y016256D01*
X018220Y016198D02*
X020137Y016198D01*
X020137Y016139D02*
X018220Y016139D01*
X018220Y016081D02*
X020137Y016081D01*
X020137Y016022D02*
X018220Y016022D01*
X018220Y015964D02*
X020137Y015964D01*
X020137Y015905D02*
X018214Y015905D01*
X018190Y015847D02*
X020137Y015847D01*
X020137Y015788D02*
X018165Y015788D01*
X018141Y015730D02*
X020137Y015730D01*
X020137Y015671D02*
X018117Y015671D01*
X018064Y015613D02*
X020137Y015613D01*
X020137Y015554D02*
X018005Y015554D01*
X017947Y015496D02*
X020137Y015496D01*
X020137Y015437D02*
X017850Y015437D01*
X017709Y015379D02*
X020137Y015379D01*
X020137Y015320D02*
X014597Y015320D01*
X014597Y015262D02*
X020137Y015262D01*
X020137Y015203D02*
X014597Y015203D01*
X014597Y015145D02*
X014709Y015145D01*
X014667Y015086D02*
X014597Y015086D01*
X014597Y015028D02*
X014667Y015028D01*
X014667Y014969D02*
X014597Y014969D01*
X014177Y014969D02*
X012637Y014969D01*
X012637Y014911D02*
X014177Y014911D01*
X014177Y014852D02*
X012637Y014852D01*
X012637Y014794D02*
X014177Y014794D01*
X014177Y014735D02*
X012637Y014735D01*
X012637Y014677D02*
X014177Y014677D01*
X014182Y014618D02*
X012637Y014618D01*
X012637Y014560D02*
X014240Y014560D01*
X014299Y014501D02*
X012637Y014501D01*
X012637Y014443D02*
X014667Y014443D01*
X014667Y014384D02*
X012637Y014384D01*
X012637Y014326D02*
X014667Y014326D01*
X014717Y014267D02*
X012637Y014267D01*
X012637Y014209D02*
X014722Y014209D01*
X014722Y014150D02*
X012637Y014150D01*
X012637Y014092D02*
X014722Y014092D01*
X014722Y014033D02*
X012637Y014033D01*
X012637Y013975D02*
X014722Y013975D01*
X015302Y013975D02*
X020137Y013975D01*
X020137Y014033D02*
X015302Y014033D01*
X015302Y014092D02*
X020137Y014092D01*
X020137Y014150D02*
X015302Y014150D01*
X015302Y014209D02*
X020137Y014209D01*
X020137Y014267D02*
X015302Y014267D01*
X015302Y014326D02*
X020137Y014326D01*
X020137Y014384D02*
X015302Y014384D01*
X015302Y014443D02*
X020137Y014443D01*
X020137Y014501D02*
X015302Y014501D01*
X015302Y014560D02*
X020137Y014560D01*
X020137Y014618D02*
X015302Y014618D01*
X015302Y014677D02*
X020137Y014677D01*
X020137Y014735D02*
X015301Y014735D01*
X015287Y014794D02*
X020137Y014794D01*
X020137Y014852D02*
X015287Y014852D01*
X015287Y014911D02*
X020137Y014911D01*
X020137Y014969D02*
X015287Y014969D01*
X015287Y015028D02*
X020137Y015028D01*
X020137Y015086D02*
X015287Y015086D01*
X015245Y015145D02*
X020137Y015145D01*
X019387Y017368D02*
X014637Y017368D01*
X014637Y017426D02*
X019387Y017426D01*
X019387Y017485D02*
X014637Y017485D01*
X014637Y017543D02*
X019387Y017543D01*
X019387Y017602D02*
X014637Y017602D01*
X014637Y017660D02*
X019387Y017660D01*
X019387Y017719D02*
X014637Y017719D01*
X014637Y017777D02*
X019387Y017777D01*
X019387Y017836D02*
X014637Y017836D01*
X014637Y017894D02*
X019387Y017894D01*
X019387Y017953D02*
X014637Y017953D01*
X014637Y018011D02*
X019387Y018011D01*
X019387Y018070D02*
X014637Y018070D01*
X014637Y018128D02*
X019387Y018128D01*
X017486Y017309D02*
X014655Y017309D01*
X014682Y017251D02*
X017427Y017251D01*
X017369Y017192D02*
X014682Y017192D01*
X014682Y017134D02*
X017310Y017134D01*
X017252Y017075D02*
X014682Y017075D01*
X014682Y017017D02*
X017193Y017017D01*
X017135Y016958D02*
X014682Y016958D01*
X014682Y016900D02*
X017076Y016900D01*
X017018Y016841D02*
X014682Y016841D01*
X014682Y016783D02*
X016959Y016783D01*
X016901Y016724D02*
X014682Y016724D01*
X014682Y016666D02*
X016842Y016666D01*
X016784Y016607D02*
X014651Y016607D01*
X014637Y016549D02*
X016725Y016549D01*
X016667Y016490D02*
X014637Y016490D01*
X014637Y016432D02*
X016608Y016432D01*
X016550Y016373D02*
X014637Y016373D01*
X014637Y016315D02*
X016491Y016315D01*
X016433Y016256D02*
X014637Y016256D01*
X014637Y016198D02*
X016374Y016198D01*
X016316Y016139D02*
X014637Y016139D01*
X014637Y016081D02*
X016257Y016081D01*
X016199Y016022D02*
X014637Y016022D01*
X014637Y015964D02*
X016140Y015964D01*
X016082Y015905D02*
X014637Y015905D01*
X014637Y015847D02*
X016023Y015847D01*
X015965Y015788D02*
X014637Y015788D01*
X014637Y015730D02*
X015906Y015730D01*
X015848Y015671D02*
X014637Y015671D01*
X014637Y015613D02*
X015789Y015613D01*
X015731Y015554D02*
X014637Y015554D01*
X014637Y015496D02*
X015672Y015496D01*
X015784Y015437D02*
X017187Y015437D01*
X017090Y015496D02*
X015842Y015496D01*
X015901Y015554D02*
X017032Y015554D01*
X016973Y015613D02*
X015959Y015613D01*
X016018Y015671D02*
X016921Y015671D01*
X016896Y015730D02*
X016076Y015730D01*
X016135Y015788D02*
X016872Y015788D01*
X016848Y015847D02*
X016193Y015847D01*
X016252Y015905D02*
X016824Y015905D01*
X016818Y015964D02*
X016310Y015964D01*
X016369Y016022D02*
X016818Y016022D01*
X016818Y016081D02*
X016427Y016081D01*
X016486Y016139D02*
X016818Y016139D01*
X016818Y016198D02*
X016544Y016198D01*
X016603Y016256D02*
X016842Y016256D01*
X016866Y016315D02*
X016661Y016315D01*
X016720Y016373D02*
X016890Y016373D01*
X016915Y016432D02*
X016778Y016432D01*
X016837Y016490D02*
X016959Y016490D01*
X017018Y016549D02*
X016895Y016549D01*
X016954Y016607D02*
X017076Y016607D01*
X017012Y016666D02*
X017153Y016666D01*
X017071Y016724D02*
X017294Y016724D01*
X017329Y015379D02*
X015725Y015379D01*
X014177Y015379D02*
X012637Y015379D01*
X012637Y015437D02*
X014177Y015437D01*
X014177Y015496D02*
X012637Y015496D01*
X012637Y015554D02*
X014177Y015554D01*
X014177Y015613D02*
X012637Y015613D01*
X012637Y015671D02*
X014177Y015671D01*
X014177Y015730D02*
X012637Y015730D01*
X012637Y015788D02*
X014177Y015788D01*
X014177Y015847D02*
X012637Y015847D01*
X012637Y015905D02*
X014177Y015905D01*
X014177Y015964D02*
X012637Y015964D01*
X012637Y016022D02*
X014177Y016022D01*
X014177Y016081D02*
X012637Y016081D01*
X012637Y016139D02*
X014177Y016139D01*
X014177Y016198D02*
X012637Y016198D01*
X012637Y016256D02*
X014177Y016256D01*
X014177Y016315D02*
X012637Y016315D01*
X012637Y016373D02*
X014177Y016373D01*
X014177Y016432D02*
X012637Y016432D01*
X012637Y016490D02*
X014177Y016490D01*
X014177Y016549D02*
X012637Y016549D01*
X012637Y016607D02*
X014092Y016607D01*
X014062Y016666D02*
X012637Y016666D01*
X012637Y016724D02*
X014062Y016724D01*
X014062Y016783D02*
X012637Y016783D01*
X012637Y016841D02*
X014062Y016841D01*
X014062Y016900D02*
X012637Y016900D01*
X012637Y016958D02*
X014062Y016958D01*
X014062Y017017D02*
X012637Y017017D01*
X012637Y017075D02*
X014062Y017075D01*
X014062Y017134D02*
X012637Y017134D01*
X012637Y017192D02*
X014062Y017192D01*
X014062Y017251D02*
X012637Y017251D01*
X012637Y017309D02*
X014089Y017309D01*
X014162Y017368D02*
X012637Y017368D01*
X012637Y017426D02*
X014162Y017426D01*
X014177Y015320D02*
X012637Y015320D01*
X012637Y015262D02*
X014177Y015262D01*
X014177Y015203D02*
X012637Y015203D01*
X012637Y015145D02*
X014177Y015145D01*
X014177Y015086D02*
X012637Y015086D01*
X012637Y015028D02*
X014177Y015028D01*
D36*
X018137Y020710D03*
X020637Y020710D03*
D37*
X020637Y007835D01*
X019199Y006398D01*
X016387Y010585D02*
X016387Y011085D01*
X015887Y011585D01*
X015137Y012335D01*
X015012Y012335D01*
X010637Y012335D01*
X009887Y011585D01*
X010387Y011085D01*
X010387Y010585D01*
X015012Y012335D02*
X015012Y014675D01*
X014977Y014710D01*
X017887Y014210D02*
X017887Y011585D01*
M02*
