%
M48
M72
T01C0.0118
T02C0.0394
T03C0.0400
%
T01
X5637Y15335
X5137Y15460
X5387Y16960
X5637Y20460
X8387Y16710
X8137Y15210
X9637Y17585
X10137Y15585
X11012Y14960
X11387Y16710
X13137Y15210
X14387Y14960
X15637Y14710
X17137Y14210
X19637Y15085
X19637Y19960
X18262Y21710
X15137Y20085
X13762Y21710
X12512Y20710
X11762Y21335
X11762Y24085
X8887Y24210
X13137Y11210
T02
X3637Y6960
X3637Y7960
X3637Y8960
X3637Y9960
X3637Y10960
X3637Y11960
X3637Y12960
X3637Y13960
X3637Y14960
X3637Y15960
X3637Y16960
X3637Y17960
X3637Y18960
X4637Y18960
X4637Y17960
X4637Y16960
X4637Y15960
X4637Y14960
X4637Y13960
X4637Y12960
X4637Y11960
X4637Y10960
X4637Y9960
X4637Y8960
X4637Y7960
X4637Y6960
X8387Y12460
X8887Y13460
X9387Y12460
X9887Y13460
X10387Y12460
X10887Y13460
X11387Y12460
X11887Y13460
X14387Y12460
X14887Y13460
X15387Y12460
X15887Y13460
X16387Y12460
X16887Y13460
X17387Y12460
X17887Y13460
T03
X7387Y15460
X7387Y16460
M30
