G75*
G70*
%OFA0B0*%
%FSLAX24Y24*%
%IPPOS*%
%LPD*%
%AMOC8*
5,1,8,0,0,1.08239X$1,22.5*
%
%ADD10R,0.0594X0.0594*%
%ADD11C,0.0660*%
%ADD12C,0.0594*%
%ADD13C,0.0740*%
%ADD14R,0.0740X0.0740*%
%ADD15C,0.0000*%
%ADD16C,0.0001*%
%ADD17C,0.0238*%
%ADD18C,0.0100*%
%ADD19C,0.0200*%
%ADD20C,0.0240*%
%ADD21C,0.0160*%
D10*
X004637Y006960D03*
D11*
X003637Y006960D03*
X003637Y008960D03*
D12*
X003637Y009960D03*
X003637Y010960D03*
X003637Y011960D03*
X003637Y012960D03*
X003637Y013960D03*
X003637Y014960D03*
X003637Y015960D03*
X003637Y016960D03*
X003637Y017960D03*
X003637Y018960D03*
X004637Y018960D03*
X004637Y017960D03*
X004637Y016960D03*
X004637Y015960D03*
X004637Y014960D03*
X004637Y013960D03*
X004637Y012960D03*
X004637Y011960D03*
X004637Y010960D03*
X004637Y009960D03*
X004637Y008960D03*
X004637Y007960D03*
X003637Y007960D03*
D13*
X008887Y013460D03*
X009387Y012460D03*
X009887Y013460D03*
X010387Y012460D03*
X010887Y013460D03*
X011387Y012460D03*
X011887Y013460D03*
X014887Y013460D03*
X015387Y012460D03*
X015887Y013460D03*
X016387Y012460D03*
X016887Y013460D03*
X017387Y012460D03*
X017887Y013460D03*
D14*
X014387Y012460D03*
X008387Y012460D03*
D15*
X012842Y016356D02*
X012826Y016395D01*
X012810Y016431D01*
X012790Y016470D01*
X012806Y016509D01*
X012822Y016553D01*
X012838Y016596D01*
X012853Y016639D01*
X012869Y016683D01*
X012885Y016726D01*
X012901Y016765D01*
X013279Y016765D01*
X013326Y016765D01*
X013342Y016726D01*
X013357Y016683D01*
X013373Y016639D01*
X013389Y016596D01*
X013405Y016553D01*
X013420Y016509D01*
X013436Y016470D01*
X013420Y016431D01*
X013405Y016395D01*
X013385Y016356D01*
X012842Y016356D01*
D16*
X013385Y016356D01*
X013385Y016357D02*
X012841Y016357D01*
X012841Y016358D02*
X013386Y016358D01*
X013386Y016359D02*
X012840Y016359D01*
X012840Y016360D02*
X013387Y016360D01*
X013387Y016361D02*
X012840Y016361D01*
X012839Y016362D02*
X013388Y016362D01*
X013388Y016363D02*
X012839Y016363D01*
X012838Y016364D02*
X013389Y016364D01*
X013389Y016365D02*
X012838Y016365D01*
X012838Y016366D02*
X013390Y016366D01*
X013390Y016367D02*
X012837Y016367D01*
X012837Y016368D02*
X013391Y016368D01*
X013391Y016369D02*
X012836Y016369D01*
X012836Y016370D02*
X013392Y016370D01*
X013392Y016371D02*
X012836Y016371D01*
X012835Y016372D02*
X013393Y016372D01*
X013393Y016373D02*
X012835Y016373D01*
X012834Y016374D02*
X013394Y016374D01*
X013394Y016375D02*
X012834Y016375D01*
X012834Y016376D02*
X013395Y016376D01*
X013395Y016377D02*
X012833Y016377D01*
X012833Y016378D02*
X013396Y016378D01*
X013396Y016379D02*
X012832Y016379D01*
X012832Y016380D02*
X013397Y016380D01*
X013397Y016381D02*
X012832Y016381D01*
X012831Y016382D02*
X013398Y016382D01*
X013398Y016383D02*
X012831Y016383D01*
X012830Y016384D02*
X013399Y016384D01*
X013399Y016385D02*
X012830Y016385D01*
X012830Y016386D02*
X013400Y016386D01*
X013400Y016387D02*
X012829Y016387D01*
X012829Y016388D02*
X013401Y016388D01*
X013401Y016389D02*
X012828Y016389D01*
X012828Y016390D02*
X013402Y016390D01*
X013402Y016391D02*
X012828Y016391D01*
X012827Y016392D02*
X013403Y016392D01*
X013403Y016393D02*
X012827Y016393D01*
X012826Y016394D02*
X013404Y016394D01*
X013404Y016395D02*
X012826Y016395D01*
X012825Y016396D02*
X013405Y016396D01*
X013405Y016397D02*
X012825Y016397D01*
X012825Y016398D02*
X013406Y016398D01*
X013406Y016399D02*
X012824Y016399D01*
X012824Y016400D02*
X013407Y016400D01*
X013407Y016401D02*
X012823Y016401D01*
X012823Y016402D02*
X013407Y016402D01*
X013408Y016403D02*
X012822Y016403D01*
X012822Y016404D02*
X013408Y016404D01*
X013409Y016405D02*
X012821Y016405D01*
X012821Y016406D02*
X013409Y016406D01*
X013410Y016407D02*
X012821Y016407D01*
X012820Y016408D02*
X013410Y016408D01*
X013411Y016409D02*
X012820Y016409D01*
X012819Y016410D02*
X013411Y016410D01*
X013411Y016411D02*
X012819Y016411D01*
X012818Y016412D02*
X013412Y016412D01*
X013412Y016413D02*
X012818Y016413D01*
X012817Y016414D02*
X013413Y016414D01*
X013413Y016415D02*
X012817Y016415D01*
X012817Y016416D02*
X013414Y016416D01*
X013414Y016417D02*
X012816Y016417D01*
X012816Y016418D02*
X013415Y016418D01*
X013415Y016419D02*
X012815Y016419D01*
X012815Y016420D02*
X013415Y016420D01*
X013416Y016421D02*
X012814Y016421D01*
X012814Y016422D02*
X013416Y016422D01*
X013417Y016423D02*
X012813Y016423D01*
X012813Y016424D02*
X013417Y016424D01*
X013418Y016425D02*
X012813Y016425D01*
X012812Y016426D02*
X013418Y016426D01*
X013419Y016427D02*
X012812Y016427D01*
X012811Y016428D02*
X013419Y016428D01*
X013419Y016429D02*
X012811Y016429D01*
X012810Y016430D02*
X013420Y016430D01*
X013420Y016431D02*
X012810Y016431D01*
X012809Y016432D02*
X013421Y016432D01*
X013421Y016433D02*
X012809Y016433D01*
X012808Y016434D02*
X013422Y016434D01*
X013422Y016435D02*
X012808Y016435D01*
X012807Y016436D02*
X013422Y016436D01*
X013423Y016437D02*
X012807Y016437D01*
X012806Y016438D02*
X013423Y016438D01*
X013424Y016439D02*
X012806Y016439D01*
X012805Y016440D02*
X013424Y016440D01*
X013424Y016441D02*
X012805Y016441D01*
X012804Y016442D02*
X013425Y016442D01*
X013425Y016443D02*
X012804Y016443D01*
X012803Y016444D02*
X013426Y016444D01*
X013426Y016445D02*
X012803Y016445D01*
X012802Y016446D02*
X013426Y016446D01*
X013427Y016447D02*
X012802Y016447D01*
X012801Y016448D02*
X013427Y016448D01*
X013428Y016449D02*
X012801Y016449D01*
X012800Y016450D02*
X013428Y016450D01*
X013428Y016451D02*
X012800Y016451D01*
X012799Y016452D02*
X013429Y016452D01*
X013429Y016453D02*
X012799Y016453D01*
X012798Y016454D02*
X013430Y016454D01*
X013430Y016455D02*
X012798Y016455D01*
X012797Y016456D02*
X013430Y016456D01*
X013431Y016457D02*
X012797Y016457D01*
X012796Y016458D02*
X013431Y016458D01*
X013432Y016459D02*
X012796Y016459D01*
X012795Y016460D02*
X013432Y016460D01*
X013432Y016461D02*
X012795Y016461D01*
X012794Y016462D02*
X013433Y016462D01*
X013433Y016463D02*
X012794Y016463D01*
X012793Y016464D02*
X013434Y016464D01*
X013434Y016465D02*
X012793Y016465D01*
X012792Y016466D02*
X013434Y016466D01*
X013435Y016467D02*
X012792Y016467D01*
X012791Y016468D02*
X013435Y016468D01*
X013436Y016469D02*
X012791Y016469D01*
X012790Y016470D02*
X013436Y016470D01*
X013436Y016471D02*
X012791Y016471D01*
X012791Y016472D02*
X013435Y016472D01*
X013435Y016473D02*
X012791Y016473D01*
X012792Y016474D02*
X013435Y016474D01*
X013434Y016475D02*
X012792Y016475D01*
X012793Y016476D02*
X013434Y016476D01*
X013433Y016477D02*
X012793Y016477D01*
X012793Y016478D02*
X013433Y016478D01*
X013433Y016479D02*
X012794Y016479D01*
X012794Y016480D02*
X013432Y016480D01*
X013432Y016481D02*
X012795Y016481D01*
X012795Y016482D02*
X013431Y016482D01*
X013431Y016483D02*
X012795Y016483D01*
X012796Y016484D02*
X013431Y016484D01*
X013430Y016485D02*
X012796Y016485D01*
X012797Y016486D02*
X013430Y016486D01*
X013429Y016487D02*
X012797Y016487D01*
X012797Y016488D02*
X013429Y016488D01*
X013429Y016489D02*
X012798Y016489D01*
X012798Y016490D02*
X013428Y016490D01*
X013428Y016491D02*
X012799Y016491D01*
X012799Y016492D02*
X013427Y016492D01*
X013427Y016493D02*
X012799Y016493D01*
X012800Y016494D02*
X013427Y016494D01*
X013426Y016495D02*
X012800Y016495D01*
X012801Y016496D02*
X013426Y016496D01*
X013425Y016497D02*
X012801Y016497D01*
X012801Y016498D02*
X013425Y016498D01*
X013425Y016499D02*
X012802Y016499D01*
X012802Y016500D02*
X013424Y016500D01*
X013424Y016501D02*
X012803Y016501D01*
X012803Y016502D02*
X013423Y016502D01*
X013423Y016503D02*
X012803Y016503D01*
X012804Y016504D02*
X013423Y016504D01*
X013422Y016505D02*
X012804Y016505D01*
X012805Y016506D02*
X013422Y016506D01*
X013421Y016507D02*
X012805Y016507D01*
X012805Y016508D02*
X013421Y016508D01*
X013421Y016509D02*
X012806Y016509D01*
X012806Y016510D02*
X013420Y016510D01*
X013420Y016511D02*
X012807Y016511D01*
X012807Y016512D02*
X013419Y016512D01*
X013419Y016513D02*
X012807Y016513D01*
X012808Y016514D02*
X013419Y016514D01*
X013418Y016515D02*
X012808Y016515D01*
X012808Y016516D02*
X013418Y016516D01*
X013418Y016517D02*
X012809Y016517D01*
X012809Y016518D02*
X013417Y016518D01*
X013417Y016519D02*
X012810Y016519D01*
X012810Y016520D02*
X013416Y016520D01*
X013416Y016521D02*
X012810Y016521D01*
X012811Y016522D02*
X013416Y016522D01*
X013415Y016523D02*
X012811Y016523D01*
X012811Y016524D02*
X013415Y016524D01*
X013415Y016525D02*
X012812Y016525D01*
X012812Y016526D02*
X013414Y016526D01*
X013414Y016527D02*
X012812Y016527D01*
X012813Y016528D02*
X013414Y016528D01*
X013413Y016529D02*
X012813Y016529D01*
X012814Y016530D02*
X013413Y016530D01*
X013413Y016531D02*
X012814Y016531D01*
X012814Y016532D02*
X013412Y016532D01*
X013412Y016533D02*
X012815Y016533D01*
X012815Y016534D02*
X013411Y016534D01*
X013411Y016535D02*
X012815Y016535D01*
X012816Y016536D02*
X013411Y016536D01*
X013410Y016537D02*
X012816Y016537D01*
X012816Y016538D02*
X013410Y016538D01*
X013410Y016539D02*
X012817Y016539D01*
X012817Y016540D02*
X013409Y016540D01*
X013409Y016541D02*
X012818Y016541D01*
X012818Y016542D02*
X013409Y016542D01*
X013408Y016543D02*
X012818Y016543D01*
X012819Y016544D02*
X013408Y016544D01*
X013407Y016545D02*
X012819Y016545D01*
X012819Y016546D02*
X013407Y016546D01*
X013407Y016547D02*
X012820Y016547D01*
X012820Y016548D02*
X013406Y016548D01*
X013406Y016549D02*
X012820Y016549D01*
X012821Y016550D02*
X013406Y016550D01*
X013405Y016551D02*
X012821Y016551D01*
X012822Y016552D02*
X013405Y016552D01*
X013405Y016553D02*
X012822Y016553D01*
X012822Y016554D02*
X013404Y016554D01*
X013404Y016555D02*
X012823Y016555D01*
X012823Y016556D02*
X013403Y016556D01*
X013403Y016557D02*
X012823Y016557D01*
X012824Y016558D02*
X013403Y016558D01*
X013402Y016559D02*
X012824Y016559D01*
X012824Y016560D02*
X013402Y016560D01*
X013402Y016561D02*
X012825Y016561D01*
X012825Y016562D02*
X013401Y016562D01*
X013401Y016563D02*
X012825Y016563D01*
X012826Y016564D02*
X013401Y016564D01*
X013400Y016565D02*
X012826Y016565D01*
X012827Y016566D02*
X013400Y016566D01*
X013399Y016567D02*
X012827Y016567D01*
X012827Y016568D02*
X013399Y016568D01*
X013399Y016569D02*
X012828Y016569D01*
X012828Y016570D02*
X013398Y016570D01*
X013398Y016571D02*
X012828Y016571D01*
X012829Y016572D02*
X013398Y016572D01*
X013397Y016573D02*
X012829Y016573D01*
X012829Y016574D02*
X013397Y016574D01*
X013397Y016575D02*
X012830Y016575D01*
X012830Y016576D02*
X013396Y016576D01*
X013396Y016577D02*
X012831Y016577D01*
X012831Y016578D02*
X013395Y016578D01*
X013395Y016579D02*
X012831Y016579D01*
X012832Y016580D02*
X013395Y016580D01*
X013394Y016581D02*
X012832Y016581D01*
X012832Y016582D02*
X013394Y016582D01*
X013394Y016583D02*
X012833Y016583D01*
X012833Y016584D02*
X013393Y016584D01*
X013393Y016585D02*
X012833Y016585D01*
X012834Y016586D02*
X013393Y016586D01*
X013392Y016587D02*
X012834Y016587D01*
X012835Y016588D02*
X013392Y016588D01*
X013391Y016589D02*
X012835Y016589D01*
X012835Y016590D02*
X013391Y016590D01*
X013391Y016591D02*
X012836Y016591D01*
X012836Y016592D02*
X013390Y016592D01*
X013390Y016593D02*
X012836Y016593D01*
X012837Y016594D02*
X013390Y016594D01*
X013389Y016595D02*
X012837Y016595D01*
X012837Y016596D02*
X013389Y016596D01*
X013389Y016597D02*
X012838Y016597D01*
X012838Y016598D02*
X013388Y016598D01*
X013388Y016599D02*
X012839Y016599D01*
X012839Y016600D02*
X013387Y016600D01*
X013387Y016601D02*
X012839Y016601D01*
X012840Y016602D02*
X013387Y016602D01*
X013386Y016603D02*
X012840Y016603D01*
X012840Y016604D02*
X013386Y016604D01*
X013386Y016605D02*
X012841Y016605D01*
X012841Y016606D02*
X013385Y016606D01*
X013385Y016607D02*
X012841Y016607D01*
X012842Y016608D02*
X013385Y016608D01*
X013384Y016609D02*
X012842Y016609D01*
X012843Y016610D02*
X013384Y016610D01*
X013383Y016611D02*
X012843Y016611D01*
X012843Y016612D02*
X013383Y016612D01*
X013383Y016613D02*
X012844Y016613D01*
X012844Y016614D02*
X013382Y016614D01*
X013382Y016615D02*
X012844Y016615D01*
X012845Y016616D02*
X013382Y016616D01*
X013381Y016617D02*
X012845Y016617D01*
X012845Y016618D02*
X013381Y016618D01*
X013381Y016619D02*
X012846Y016619D01*
X012846Y016620D02*
X013380Y016620D01*
X013380Y016621D02*
X012847Y016621D01*
X012847Y016622D02*
X013379Y016622D01*
X013379Y016623D02*
X012847Y016623D01*
X012848Y016624D02*
X013379Y016624D01*
X013378Y016625D02*
X012848Y016625D01*
X012848Y016626D02*
X013378Y016626D01*
X013378Y016627D02*
X012849Y016627D01*
X012849Y016628D02*
X013377Y016628D01*
X013377Y016629D02*
X012849Y016629D01*
X012850Y016630D02*
X013377Y016630D01*
X013376Y016631D02*
X012850Y016631D01*
X012851Y016632D02*
X013376Y016632D01*
X013375Y016633D02*
X012851Y016633D01*
X012851Y016634D02*
X013375Y016634D01*
X013375Y016635D02*
X012852Y016635D01*
X012852Y016636D02*
X013374Y016636D01*
X013374Y016637D02*
X012852Y016637D01*
X012853Y016638D02*
X013374Y016638D01*
X013373Y016639D02*
X012853Y016639D01*
X012853Y016640D02*
X013373Y016640D01*
X013373Y016641D02*
X012854Y016641D01*
X012854Y016642D02*
X013372Y016642D01*
X013372Y016643D02*
X012855Y016643D01*
X012855Y016644D02*
X013371Y016644D01*
X013371Y016645D02*
X012855Y016645D01*
X012856Y016646D02*
X013371Y016646D01*
X013370Y016647D02*
X012856Y016647D01*
X012856Y016648D02*
X013370Y016648D01*
X013370Y016649D02*
X012857Y016649D01*
X012857Y016650D02*
X013369Y016650D01*
X013369Y016651D02*
X012857Y016651D01*
X012858Y016652D02*
X013369Y016652D01*
X013368Y016653D02*
X012858Y016653D01*
X012859Y016654D02*
X013368Y016654D01*
X013367Y016655D02*
X012859Y016655D01*
X012859Y016656D02*
X013367Y016656D01*
X013367Y016657D02*
X012860Y016657D01*
X012860Y016658D02*
X013366Y016658D01*
X013366Y016659D02*
X012860Y016659D01*
X012861Y016660D02*
X013366Y016660D01*
X013365Y016661D02*
X012861Y016661D01*
X012861Y016662D02*
X013365Y016662D01*
X013365Y016663D02*
X012862Y016663D01*
X012862Y016664D02*
X013364Y016664D01*
X013364Y016665D02*
X012863Y016665D01*
X012863Y016666D02*
X013363Y016666D01*
X013363Y016667D02*
X012863Y016667D01*
X012864Y016668D02*
X013363Y016668D01*
X013362Y016669D02*
X012864Y016669D01*
X012864Y016670D02*
X013362Y016670D01*
X013362Y016671D02*
X012865Y016671D01*
X012865Y016672D02*
X013361Y016672D01*
X013361Y016673D02*
X012865Y016673D01*
X012866Y016674D02*
X013361Y016674D01*
X013360Y016675D02*
X012866Y016675D01*
X012867Y016676D02*
X013360Y016676D01*
X013359Y016677D02*
X012867Y016677D01*
X012867Y016678D02*
X013359Y016678D01*
X013359Y016679D02*
X012868Y016679D01*
X012868Y016680D02*
X013358Y016680D01*
X013358Y016681D02*
X012868Y016681D01*
X012869Y016682D02*
X013358Y016682D01*
X013357Y016683D02*
X012869Y016683D01*
X012869Y016684D02*
X013357Y016684D01*
X013357Y016685D02*
X012870Y016685D01*
X012870Y016686D02*
X013356Y016686D01*
X013356Y016687D02*
X012871Y016687D01*
X012871Y016688D02*
X013355Y016688D01*
X013355Y016689D02*
X012871Y016689D01*
X012872Y016690D02*
X013355Y016690D01*
X013354Y016691D02*
X012872Y016691D01*
X012872Y016692D02*
X013354Y016692D01*
X013354Y016693D02*
X012873Y016693D01*
X012873Y016694D02*
X013353Y016694D01*
X013353Y016695D02*
X012873Y016695D01*
X012874Y016696D02*
X013353Y016696D01*
X013352Y016697D02*
X012874Y016697D01*
X012875Y016698D02*
X013352Y016698D01*
X013351Y016699D02*
X012875Y016699D01*
X012875Y016700D02*
X013351Y016700D01*
X013351Y016701D02*
X012876Y016701D01*
X012876Y016702D02*
X013350Y016702D01*
X013350Y016703D02*
X012876Y016703D01*
X012877Y016704D02*
X013350Y016704D01*
X013349Y016705D02*
X012877Y016705D01*
X012877Y016706D02*
X013349Y016706D01*
X013349Y016707D02*
X012878Y016707D01*
X012878Y016708D02*
X013348Y016708D01*
X013348Y016709D02*
X012879Y016709D01*
X012879Y016710D02*
X013347Y016710D01*
X013347Y016711D02*
X012879Y016711D01*
X012880Y016712D02*
X013347Y016712D01*
X013346Y016713D02*
X012880Y016713D01*
X012880Y016714D02*
X013346Y016714D01*
X013346Y016715D02*
X012881Y016715D01*
X012881Y016716D02*
X013345Y016716D01*
X013345Y016717D02*
X012881Y016717D01*
X012882Y016718D02*
X013345Y016718D01*
X013344Y016719D02*
X012882Y016719D01*
X012883Y016720D02*
X013344Y016720D01*
X013343Y016721D02*
X012883Y016721D01*
X012883Y016722D02*
X013343Y016722D01*
X013343Y016723D02*
X012884Y016723D01*
X012884Y016724D02*
X013342Y016724D01*
X013342Y016725D02*
X012884Y016725D01*
X012885Y016726D02*
X013342Y016726D01*
X013341Y016727D02*
X012885Y016727D01*
X012885Y016728D02*
X013341Y016728D01*
X013340Y016729D02*
X012886Y016729D01*
X012886Y016730D02*
X013340Y016730D01*
X013340Y016731D02*
X012887Y016731D01*
X012887Y016732D02*
X013339Y016732D01*
X013339Y016733D02*
X012887Y016733D01*
X012888Y016734D02*
X013338Y016734D01*
X013338Y016735D02*
X012888Y016735D01*
X012889Y016736D02*
X013338Y016736D01*
X013337Y016737D02*
X012889Y016737D01*
X012889Y016738D02*
X013337Y016738D01*
X013336Y016739D02*
X012890Y016739D01*
X012890Y016740D02*
X013336Y016740D01*
X013336Y016741D02*
X012891Y016741D01*
X012891Y016742D02*
X013335Y016742D01*
X013335Y016743D02*
X012891Y016743D01*
X012892Y016744D02*
X013334Y016744D01*
X013334Y016745D02*
X012892Y016745D01*
X012893Y016746D02*
X013334Y016746D01*
X013333Y016747D02*
X012893Y016747D01*
X012893Y016748D02*
X013333Y016748D01*
X013332Y016749D02*
X012894Y016749D01*
X012894Y016750D02*
X013332Y016750D01*
X013332Y016751D02*
X012895Y016751D01*
X012895Y016752D02*
X013331Y016752D01*
X013331Y016753D02*
X012895Y016753D01*
X012896Y016754D02*
X013330Y016754D01*
X013330Y016755D02*
X012896Y016755D01*
X012897Y016756D02*
X013330Y016756D01*
X013329Y016757D02*
X012897Y016757D01*
X012897Y016758D02*
X013329Y016758D01*
X013328Y016759D02*
X012898Y016759D01*
X012898Y016760D02*
X013328Y016760D01*
X013328Y016761D02*
X012899Y016761D01*
X012899Y016762D02*
X013327Y016762D01*
X013327Y016763D02*
X012899Y016763D01*
X012900Y016764D02*
X013326Y016764D01*
X013326Y016765D02*
X012900Y016765D01*
D17*
X013137Y015210D03*
X014387Y014960D03*
X015637Y014710D03*
X017137Y014210D03*
X019637Y015085D03*
X019637Y019960D03*
X018262Y021710D03*
X015137Y020085D03*
X013762Y021710D03*
X012512Y020710D03*
X011762Y022085D03*
X011762Y024835D03*
X008887Y024960D03*
X005637Y021210D03*
X005637Y018335D03*
X004637Y017460D03*
X005387Y016960D03*
X007637Y017210D03*
X009887Y018335D03*
X010137Y017585D03*
X010887Y017960D03*
X011637Y016710D03*
X011262Y014960D03*
X010387Y015585D03*
X013137Y011210D03*
X007137Y012460D03*
X006137Y012085D03*
D18*
X002787Y006110D02*
X002787Y025495D01*
X022172Y025495D01*
X022172Y006110D01*
X002787Y006110D01*
X002787Y006157D02*
X022172Y006157D01*
X022172Y006256D02*
X002787Y006256D01*
X002787Y006354D02*
X022172Y006354D01*
X022172Y006453D02*
X002787Y006453D01*
X002787Y006551D02*
X003474Y006551D01*
X003549Y006520D02*
X003388Y006587D01*
X003264Y006711D01*
X003197Y006873D01*
X003197Y007048D01*
X003264Y007209D01*
X003388Y007333D01*
X003549Y007400D01*
X003724Y007400D01*
X003886Y007333D01*
X004010Y007209D01*
X004077Y007048D01*
X004077Y006873D01*
X004010Y006711D01*
X003886Y006587D01*
X003724Y006520D01*
X003549Y006520D01*
X003799Y006551D02*
X022172Y006551D01*
X022172Y006650D02*
X005044Y006650D01*
X005044Y006618D02*
X005044Y007303D01*
X004979Y007367D01*
X004294Y007367D01*
X004230Y007303D01*
X004230Y006618D01*
X004294Y006553D01*
X004979Y006553D01*
X005044Y006618D01*
X005044Y006748D02*
X022172Y006748D01*
X022172Y006847D02*
X005044Y006847D01*
X005044Y006945D02*
X022172Y006945D01*
X022172Y007044D02*
X005044Y007044D01*
X005044Y007142D02*
X022172Y007142D01*
X022172Y007241D02*
X005044Y007241D01*
X005007Y007339D02*
X022172Y007339D01*
X022172Y007438D02*
X002787Y007438D01*
X002787Y007536D02*
X022172Y007536D01*
X022172Y007635D02*
X004887Y007635D01*
X004867Y007615D02*
X004982Y007730D01*
X005044Y007879D01*
X005044Y008041D01*
X004982Y008191D01*
X004867Y008305D01*
X004718Y008367D01*
X004556Y008367D01*
X004406Y008305D01*
X004292Y008191D01*
X004230Y008041D01*
X004230Y007879D01*
X004292Y007730D01*
X004406Y007615D01*
X004556Y007553D01*
X004718Y007553D01*
X004867Y007615D01*
X004983Y007733D02*
X022172Y007733D01*
X022172Y007832D02*
X005024Y007832D01*
X005044Y007930D02*
X022172Y007930D01*
X022172Y008029D02*
X005044Y008029D01*
X005008Y008127D02*
X022172Y008127D01*
X022172Y008226D02*
X004947Y008226D01*
X004821Y008324D02*
X022172Y008324D01*
X022172Y008423D02*
X002787Y008423D01*
X002787Y008521D02*
X003441Y008521D01*
X003453Y008515D02*
X003524Y008492D01*
X003588Y008482D01*
X003588Y008912D01*
X003158Y008912D01*
X003169Y008848D01*
X003192Y008776D01*
X003226Y008709D01*
X003271Y008648D01*
X003324Y008594D01*
X003385Y008550D01*
X003453Y008515D01*
X003588Y008521D02*
X003685Y008521D01*
X003685Y008482D02*
X003749Y008492D01*
X003821Y008515D01*
X003888Y008550D01*
X003950Y008594D01*
X004003Y008648D01*
X004047Y008709D01*
X004082Y008776D01*
X004105Y008848D01*
X004115Y008912D01*
X003685Y008912D01*
X003685Y008482D01*
X003718Y008367D02*
X003556Y008367D01*
X003406Y008305D01*
X003292Y008191D01*
X003230Y008041D01*
X003230Y007879D01*
X003292Y007730D01*
X003406Y007615D01*
X003556Y007553D01*
X003718Y007553D01*
X003867Y007615D01*
X003982Y007730D01*
X004044Y007879D01*
X004044Y008041D01*
X003982Y008191D01*
X003867Y008305D01*
X003718Y008367D01*
X003821Y008324D02*
X004452Y008324D01*
X004327Y008226D02*
X003947Y008226D01*
X004008Y008127D02*
X004266Y008127D01*
X004230Y008029D02*
X004044Y008029D01*
X004044Y007930D02*
X004230Y007930D01*
X004250Y007832D02*
X004024Y007832D01*
X003983Y007733D02*
X004290Y007733D01*
X004387Y007635D02*
X003887Y007635D01*
X003872Y007339D02*
X004267Y007339D01*
X004230Y007241D02*
X003979Y007241D01*
X004038Y007142D02*
X004230Y007142D01*
X004230Y007044D02*
X004077Y007044D01*
X004077Y006945D02*
X004230Y006945D01*
X004230Y006847D02*
X004066Y006847D01*
X004025Y006748D02*
X004230Y006748D01*
X004230Y006650D02*
X003949Y006650D01*
X003325Y006650D02*
X002787Y006650D01*
X002787Y006748D02*
X003248Y006748D01*
X003208Y006847D02*
X002787Y006847D01*
X002787Y006945D02*
X003197Y006945D01*
X003197Y007044D02*
X002787Y007044D01*
X002787Y007142D02*
X003236Y007142D01*
X003295Y007241D02*
X002787Y007241D01*
X002787Y007339D02*
X003402Y007339D01*
X003387Y007635D02*
X002787Y007635D01*
X002787Y007733D02*
X003290Y007733D01*
X003250Y007832D02*
X002787Y007832D01*
X002787Y007930D02*
X003230Y007930D01*
X003230Y008029D02*
X002787Y008029D01*
X002787Y008127D02*
X003266Y008127D01*
X003327Y008226D02*
X002787Y008226D01*
X002787Y008324D02*
X003452Y008324D01*
X003588Y008620D02*
X003685Y008620D01*
X003685Y008718D02*
X003588Y008718D01*
X003588Y008817D02*
X003685Y008817D01*
X003685Y008912D02*
X003588Y008912D01*
X003588Y009009D01*
X003588Y009439D01*
X003524Y009428D01*
X003453Y009405D01*
X003385Y009371D01*
X003324Y009326D01*
X003271Y009273D01*
X003226Y009212D01*
X003192Y009144D01*
X003169Y009073D01*
X003158Y009009D01*
X003588Y009009D01*
X003685Y009009D01*
X003685Y009439D01*
X003749Y009428D01*
X003821Y009405D01*
X003888Y009371D01*
X003950Y009326D01*
X004003Y009273D01*
X004047Y009212D01*
X004082Y009144D01*
X004105Y009073D01*
X004115Y009009D01*
X003685Y009009D01*
X003685Y008912D01*
X003685Y008915D02*
X004230Y008915D01*
X004230Y008879D02*
X004292Y008730D01*
X004406Y008615D01*
X004556Y008553D01*
X004718Y008553D01*
X004867Y008615D01*
X004982Y008730D01*
X005044Y008879D01*
X005044Y009041D01*
X004982Y009191D01*
X004867Y009305D01*
X004718Y009367D01*
X004556Y009367D01*
X004406Y009305D01*
X004292Y009191D01*
X004230Y009041D01*
X004230Y008879D01*
X004256Y008817D02*
X004095Y008817D01*
X004052Y008718D02*
X004303Y008718D01*
X004402Y008620D02*
X003975Y008620D01*
X003833Y008521D02*
X022172Y008521D01*
X022172Y008620D02*
X004872Y008620D01*
X004970Y008718D02*
X022172Y008718D01*
X022172Y008817D02*
X005018Y008817D01*
X005044Y008915D02*
X022172Y008915D01*
X022172Y009014D02*
X005044Y009014D01*
X005014Y009112D02*
X022172Y009112D01*
X022172Y009211D02*
X018615Y009211D01*
X018542Y009180D02*
X018829Y009299D01*
X019048Y009518D01*
X019167Y009805D01*
X019167Y010115D01*
X019048Y010402D01*
X018829Y010621D01*
X018542Y010740D01*
X018232Y010740D01*
X017945Y010621D01*
X017726Y010402D01*
X017607Y010115D01*
X017607Y009805D01*
X017726Y009518D01*
X017945Y009299D01*
X018232Y009180D01*
X018542Y009180D01*
X018839Y009309D02*
X022172Y009309D01*
X022172Y009408D02*
X018937Y009408D01*
X019036Y009506D02*
X022172Y009506D01*
X022172Y009605D02*
X019084Y009605D01*
X019125Y009703D02*
X022172Y009703D01*
X022172Y009802D02*
X019165Y009802D01*
X019167Y009900D02*
X022172Y009900D01*
X022172Y009999D02*
X019167Y009999D01*
X019167Y010097D02*
X022172Y010097D01*
X022172Y010196D02*
X019133Y010196D01*
X019093Y010294D02*
X022172Y010294D01*
X022172Y010393D02*
X019052Y010393D01*
X018959Y010491D02*
X022172Y010491D01*
X022172Y010590D02*
X018860Y010590D01*
X018667Y010688D02*
X022172Y010688D01*
X022172Y010787D02*
X005050Y010787D01*
X005051Y010789D02*
X005073Y010856D01*
X005082Y010912D01*
X004685Y010912D01*
X004685Y010515D01*
X004741Y010524D01*
X004808Y010546D01*
X004871Y010578D01*
X004928Y010619D01*
X004978Y010669D01*
X005019Y010726D01*
X005051Y010789D01*
X005077Y010885D02*
X022172Y010885D01*
X022172Y010984D02*
X013234Y010984D01*
X013232Y010981D02*
X013366Y011115D01*
X013366Y011305D01*
X013232Y011439D01*
X013042Y011439D01*
X012973Y011370D01*
X009703Y011370D01*
X008867Y012207D01*
X008867Y012550D01*
X008875Y012550D01*
X008868Y012509D01*
X009338Y012509D01*
X009338Y012936D01*
X009536Y013133D01*
X009615Y013053D01*
X009791Y012980D01*
X009982Y012980D01*
X010159Y013053D01*
X010294Y013188D01*
X010367Y013365D01*
X010367Y013556D01*
X010294Y013732D01*
X010159Y013867D01*
X009982Y013940D01*
X009791Y013940D01*
X009666Y013888D01*
X009828Y014050D01*
X009953Y014050D01*
X010047Y014144D01*
X010453Y014550D01*
X010453Y014550D01*
X010547Y014644D01*
X010547Y015421D01*
X010616Y015490D01*
X010616Y015680D01*
X010482Y015814D01*
X010292Y015814D01*
X010158Y015680D01*
X010158Y015490D01*
X010227Y015421D01*
X010227Y014777D01*
X009821Y014370D01*
X009696Y014370D01*
X009321Y013995D01*
X009227Y013902D01*
X009227Y013799D01*
X009159Y013867D01*
X008982Y013940D01*
X008791Y013940D01*
X008615Y013867D01*
X008480Y013732D01*
X008434Y013620D01*
X008071Y013620D01*
X007977Y013527D01*
X007140Y012689D01*
X007042Y012689D01*
X006908Y012555D01*
X006908Y012365D01*
X007042Y012231D01*
X007232Y012231D01*
X007366Y012365D01*
X007366Y012463D01*
X008203Y013300D01*
X008434Y013300D01*
X008480Y013188D01*
X008615Y013053D01*
X008791Y012980D01*
X008931Y012980D01*
X008846Y012896D01*
X008802Y012940D01*
X007971Y012940D01*
X007907Y012876D01*
X007907Y012045D01*
X007971Y011980D01*
X008641Y011980D01*
X009477Y011144D01*
X009571Y011050D01*
X012973Y011050D01*
X013042Y010981D01*
X013232Y010981D01*
X013333Y011082D02*
X022172Y011082D01*
X022172Y011181D02*
X013366Y011181D01*
X013366Y011279D02*
X022172Y011279D01*
X022172Y011378D02*
X013293Y011378D01*
X013137Y011210D02*
X009637Y011210D01*
X008387Y012460D01*
X008637Y012710D01*
X008887Y012710D01*
X009387Y013210D01*
X009387Y013835D01*
X009762Y014210D01*
X009887Y014210D01*
X010387Y014710D01*
X010387Y015585D01*
X010616Y015613D02*
X015409Y015613D01*
X015507Y015515D02*
X010616Y015515D01*
X010547Y015416D02*
X013019Y015416D01*
X013042Y015439D02*
X012908Y015305D01*
X012908Y015115D01*
X013042Y014981D01*
X013140Y014981D01*
X014453Y013668D01*
X014407Y013556D01*
X014407Y013365D01*
X014480Y013188D01*
X014615Y013053D01*
X014791Y012980D01*
X014982Y012980D01*
X015159Y013053D01*
X015294Y013188D01*
X015367Y013365D01*
X015367Y013556D01*
X015294Y013732D01*
X015159Y013867D01*
X014982Y013940D01*
X014791Y013940D01*
X014679Y013894D01*
X013366Y015207D01*
X013366Y015305D01*
X013232Y015439D01*
X013042Y015439D01*
X012920Y015318D02*
X010547Y015318D01*
X010547Y015219D02*
X012908Y015219D01*
X012908Y015121D02*
X010547Y015121D01*
X010547Y015022D02*
X013001Y015022D01*
X013197Y014924D02*
X010547Y014924D01*
X010547Y014825D02*
X013296Y014825D01*
X013394Y014727D02*
X010547Y014727D01*
X010531Y014628D02*
X013493Y014628D01*
X013591Y014530D02*
X010433Y014530D01*
X010334Y014431D02*
X013690Y014431D01*
X013788Y014333D02*
X010236Y014333D01*
X010137Y014234D02*
X013887Y014234D01*
X013985Y014136D02*
X010039Y014136D01*
X010047Y014144D02*
X010047Y014144D01*
X009986Y013939D02*
X010788Y013939D01*
X010791Y013940D02*
X010615Y013867D01*
X010480Y013732D01*
X010407Y013556D01*
X010407Y013365D01*
X010480Y013188D01*
X010615Y013053D01*
X010791Y012980D01*
X010982Y012980D01*
X011159Y013053D01*
X011294Y013188D01*
X011367Y013365D01*
X011367Y013556D01*
X011294Y013732D01*
X011159Y013867D01*
X010982Y013940D01*
X010791Y013940D01*
X010986Y013939D02*
X011788Y013939D01*
X011791Y013940D02*
X011615Y013867D01*
X011480Y013732D01*
X011407Y013556D01*
X011407Y013365D01*
X011480Y013188D01*
X011615Y013053D01*
X011791Y012980D01*
X011982Y012980D01*
X012159Y013053D01*
X012294Y013188D01*
X012367Y013365D01*
X012367Y013556D01*
X012294Y013732D01*
X012159Y013867D01*
X011982Y013940D01*
X011791Y013940D01*
X011986Y013939D02*
X014182Y013939D01*
X014084Y014037D02*
X009815Y014037D01*
X009788Y013939D02*
X009717Y013939D01*
X009461Y014136D02*
X005004Y014136D01*
X004982Y014191D02*
X004867Y014305D01*
X004718Y014367D01*
X004556Y014367D01*
X004406Y014305D01*
X004292Y014191D01*
X004230Y014041D01*
X004230Y013879D01*
X004292Y013730D01*
X004406Y013615D01*
X004556Y013553D01*
X004718Y013553D01*
X004867Y013615D01*
X004982Y013730D01*
X005044Y013879D01*
X005044Y014041D01*
X004982Y014191D01*
X004938Y014234D02*
X009560Y014234D01*
X009658Y014333D02*
X004801Y014333D01*
X004718Y014553D02*
X004867Y014615D01*
X004982Y014730D01*
X005044Y014879D01*
X005044Y015041D01*
X004982Y015191D01*
X004867Y015305D01*
X004718Y015367D01*
X004556Y015367D01*
X004406Y015305D01*
X004292Y015191D01*
X004230Y015041D01*
X004230Y014879D01*
X004292Y014730D01*
X004406Y014615D01*
X004556Y014553D01*
X004718Y014553D01*
X004880Y014628D02*
X010079Y014628D01*
X010177Y014727D02*
X004979Y014727D01*
X005021Y014825D02*
X010227Y014825D01*
X010227Y014924D02*
X005044Y014924D01*
X005044Y015022D02*
X010227Y015022D01*
X010227Y015121D02*
X007837Y015121D01*
X007817Y015101D02*
X007906Y015190D01*
X007954Y015307D01*
X007954Y015433D01*
X007906Y015549D01*
X007817Y015639D01*
X007700Y015687D01*
X007574Y015687D01*
X007457Y015639D01*
X007368Y015549D01*
X007319Y015433D01*
X007319Y015307D01*
X007368Y015190D01*
X007457Y015101D01*
X007574Y015052D01*
X007700Y015052D01*
X007817Y015101D01*
X007918Y015219D02*
X010227Y015219D01*
X010227Y015318D02*
X007954Y015318D01*
X007954Y015416D02*
X010227Y015416D01*
X010158Y015515D02*
X007920Y015515D01*
X007842Y015613D02*
X010158Y015613D01*
X010189Y015712D02*
X004964Y015712D01*
X004982Y015730D02*
X005044Y015879D01*
X005044Y016041D01*
X004982Y016191D01*
X004867Y016305D01*
X004718Y016367D01*
X004556Y016367D01*
X004406Y016305D01*
X004292Y016191D01*
X004230Y016041D01*
X004230Y015879D01*
X004292Y015730D01*
X004406Y015615D01*
X004556Y015553D01*
X004718Y015553D01*
X004867Y015615D01*
X004982Y015730D01*
X005015Y015810D02*
X010288Y015810D01*
X010486Y015810D02*
X015212Y015810D01*
X015310Y015712D02*
X010584Y015712D01*
X011262Y014960D02*
X011262Y016585D01*
X011387Y016710D01*
X011637Y016710D01*
X011137Y017210D01*
X007637Y017210D01*
X007700Y016868D02*
X007574Y016868D01*
X007457Y016820D01*
X007368Y016731D01*
X007319Y016614D01*
X007319Y016488D01*
X007368Y016371D01*
X007457Y016282D01*
X007574Y016233D01*
X007700Y016233D01*
X007817Y016282D01*
X007906Y016371D01*
X007954Y016488D01*
X007954Y016614D01*
X007906Y016731D01*
X007817Y016820D01*
X007700Y016868D01*
X007841Y016795D02*
X012791Y016795D01*
X012791Y016789D02*
X012782Y016765D01*
X012766Y016725D01*
X012767Y016723D01*
X012750Y016677D01*
X012734Y016634D01*
X012719Y016591D01*
X012704Y016550D01*
X012700Y016548D01*
X012687Y016508D01*
X012671Y016469D01*
X012673Y016465D01*
X012672Y016462D01*
X012691Y016424D01*
X012707Y016385D01*
X012711Y016383D01*
X012724Y016352D01*
X012732Y016335D01*
X012732Y016310D01*
X012748Y016294D01*
X012756Y016273D01*
X012779Y016263D01*
X012796Y016246D01*
X012819Y016246D01*
X012840Y016237D01*
X012863Y016246D01*
X013359Y016246D01*
X013376Y016237D01*
X013403Y016246D01*
X013430Y016246D01*
X013444Y016260D01*
X013463Y016266D01*
X013475Y016291D01*
X013495Y016310D01*
X013495Y016328D01*
X013503Y016347D01*
X013505Y016348D01*
X013513Y016366D01*
X013523Y016387D01*
X013522Y016390D01*
X013539Y016428D01*
X013538Y016430D01*
X013555Y016469D01*
X013554Y016470D01*
X013555Y016472D01*
X013538Y016512D01*
X013523Y016549D01*
X013492Y016633D01*
X013477Y016676D01*
X013461Y016720D01*
X013460Y016723D01*
X013461Y016725D01*
X013444Y016765D01*
X013436Y016789D01*
X013436Y016811D01*
X013420Y016827D01*
X013411Y016849D01*
X013389Y016858D01*
X013371Y016875D01*
X013348Y016875D01*
X013327Y016884D01*
X013305Y016875D01*
X012922Y016875D01*
X012899Y016884D01*
X012878Y016875D01*
X012855Y016875D01*
X012838Y016858D01*
X012815Y016849D01*
X012807Y016827D01*
X012791Y016811D01*
X012791Y016789D01*
X012757Y016697D02*
X007920Y016697D01*
X007954Y016598D02*
X012721Y016598D01*
X012684Y016500D02*
X007954Y016500D01*
X007918Y016401D02*
X012700Y016401D01*
X012739Y016303D02*
X007838Y016303D01*
X007436Y016303D02*
X004870Y016303D01*
X004968Y016204D02*
X014907Y016204D01*
X014907Y016115D02*
X017042Y013980D01*
X017152Y013870D01*
X016982Y013940D01*
X016791Y013940D01*
X016679Y013894D01*
X015866Y014707D01*
X015866Y014805D01*
X015732Y014939D01*
X015542Y014939D01*
X015408Y014805D01*
X015408Y014615D01*
X015542Y014481D01*
X015640Y014481D01*
X016453Y013668D01*
X016407Y013556D01*
X016407Y013365D01*
X016480Y013188D01*
X016615Y013053D01*
X016791Y012980D01*
X016982Y012980D01*
X017159Y013053D01*
X017294Y013188D01*
X017367Y013365D01*
X017367Y013556D01*
X017297Y013725D01*
X017424Y013598D01*
X017407Y013556D01*
X017407Y013365D01*
X017480Y013188D01*
X017615Y013053D01*
X017791Y012980D01*
X017982Y012980D01*
X018159Y013053D01*
X018294Y013188D01*
X018367Y013365D01*
X018367Y013556D01*
X018294Y013732D01*
X018159Y013867D01*
X017982Y013940D01*
X017791Y013940D01*
X017749Y013923D01*
X017367Y014306D01*
X015367Y016306D01*
X015367Y020181D01*
X015232Y020315D01*
X015042Y020315D01*
X014907Y020181D01*
X014907Y016115D01*
X014916Y016106D02*
X005017Y016106D01*
X005044Y016007D02*
X015015Y016007D01*
X015113Y015909D02*
X005044Y015909D01*
X004862Y015613D02*
X007432Y015613D01*
X007353Y015515D02*
X002787Y015515D01*
X002787Y015613D02*
X003354Y015613D01*
X003346Y015619D02*
X003403Y015578D01*
X003465Y015546D01*
X003532Y015524D01*
X003588Y015515D01*
X003588Y015912D01*
X003192Y015912D01*
X003201Y015856D01*
X003223Y015789D01*
X003255Y015726D01*
X003296Y015669D01*
X003346Y015619D01*
X003265Y015712D02*
X002787Y015712D01*
X002787Y015810D02*
X003216Y015810D01*
X003193Y015909D02*
X002787Y015909D01*
X002787Y016007D02*
X003588Y016007D01*
X003588Y016009D02*
X003588Y015912D01*
X003685Y015912D01*
X003685Y015515D01*
X003741Y015524D01*
X003808Y015546D01*
X003871Y015578D01*
X003928Y015619D01*
X003978Y015669D01*
X004019Y015726D01*
X004051Y015789D01*
X004073Y015856D01*
X004082Y015912D01*
X003685Y015912D01*
X003685Y016009D01*
X003588Y016009D01*
X003588Y016405D01*
X003532Y016396D01*
X003465Y016374D01*
X003403Y016342D01*
X003346Y016301D01*
X003296Y016251D01*
X003255Y016194D01*
X003223Y016132D01*
X003201Y016065D01*
X003192Y016009D01*
X003588Y016009D01*
X003637Y015960D02*
X004137Y015960D01*
X004137Y017210D01*
X004137Y018710D01*
X004137Y018960D01*
X004637Y018960D01*
X004685Y018962D02*
X014907Y018962D01*
X014907Y018864D02*
X005074Y018864D01*
X005073Y018856D02*
X005082Y018912D01*
X004685Y018912D01*
X004685Y018515D01*
X004741Y018524D01*
X004808Y018546D01*
X004871Y018578D01*
X004928Y018619D01*
X004978Y018669D01*
X005019Y018726D01*
X005051Y018789D01*
X005073Y018856D01*
X005039Y018765D02*
X014907Y018765D01*
X014907Y018667D02*
X004975Y018667D01*
X004852Y018568D02*
X014907Y018568D01*
X014907Y018470D02*
X010076Y018470D01*
X010116Y018430D02*
X009982Y018564D01*
X009792Y018564D01*
X009723Y018495D01*
X005801Y018495D01*
X005732Y018564D01*
X005542Y018564D01*
X005408Y018430D01*
X005408Y018240D01*
X005542Y018106D01*
X005732Y018106D01*
X005801Y018175D01*
X009723Y018175D01*
X009792Y018106D01*
X009982Y018106D01*
X010116Y018240D01*
X010116Y018430D01*
X010116Y018371D02*
X014907Y018371D01*
X014907Y018273D02*
X010116Y018273D01*
X010050Y018174D02*
X014907Y018174D01*
X014907Y018076D02*
X005029Y018076D01*
X005044Y018041D02*
X004982Y018191D01*
X004867Y018305D01*
X004718Y018367D01*
X004556Y018367D01*
X004406Y018305D01*
X004292Y018191D01*
X004230Y018041D01*
X004230Y017879D01*
X004043Y017879D01*
X004044Y017879D02*
X004044Y018041D01*
X003982Y018191D01*
X003867Y018305D01*
X003718Y018367D01*
X003556Y018367D01*
X003406Y018305D01*
X003337Y018236D01*
X003297Y018277D01*
X003297Y018725D01*
X003406Y018615D01*
X003556Y018553D01*
X003718Y018553D01*
X003867Y018615D01*
X003982Y018730D01*
X004044Y018879D01*
X004044Y019041D01*
X003982Y019191D01*
X003867Y019305D01*
X003718Y019367D01*
X003556Y019367D01*
X003406Y019305D01*
X003297Y019196D01*
X003297Y020894D01*
X003453Y021050D01*
X005473Y021050D01*
X005542Y020981D01*
X005732Y020981D01*
X005866Y021115D01*
X005866Y021305D01*
X005732Y021439D01*
X005542Y021439D01*
X005473Y021370D01*
X003321Y021370D01*
X003071Y021120D01*
X002977Y021027D01*
X002977Y018144D01*
X003227Y017894D01*
X003230Y017891D01*
X003230Y017879D01*
X002787Y017879D01*
X002787Y017977D02*
X003144Y017977D01*
X003230Y017879D02*
X003292Y017730D01*
X003406Y017615D01*
X003556Y017553D01*
X003718Y017553D01*
X003867Y017615D01*
X003982Y017730D01*
X004044Y017879D01*
X004044Y017977D02*
X004230Y017977D01*
X004230Y017879D02*
X004292Y017730D01*
X004406Y017615D01*
X004450Y017597D01*
X004408Y017555D01*
X004408Y017365D01*
X004450Y017323D01*
X004406Y017305D01*
X004292Y017191D01*
X004230Y017041D01*
X004230Y016879D01*
X004292Y016730D01*
X004406Y016615D01*
X004556Y016553D01*
X004718Y016553D01*
X004867Y016615D01*
X004982Y016730D01*
X005011Y016800D01*
X005223Y016800D01*
X005292Y016731D01*
X005482Y016731D01*
X005616Y016865D01*
X005616Y017055D01*
X005482Y017189D01*
X014907Y017189D01*
X014907Y017091D02*
X005580Y017091D01*
X005616Y016992D02*
X014907Y016992D01*
X014907Y016894D02*
X005616Y016894D01*
X005546Y016795D02*
X007433Y016795D01*
X007354Y016697D02*
X004949Y016697D01*
X005009Y016795D02*
X005228Y016795D01*
X005387Y016960D02*
X004637Y016960D01*
X005011Y017120D02*
X004982Y017191D01*
X004872Y017300D01*
X010078Y017300D01*
X010134Y017356D01*
X010232Y017356D01*
X010366Y017490D01*
X010366Y017680D01*
X010232Y017814D01*
X010042Y017814D01*
X009908Y017680D01*
X009908Y017620D01*
X004872Y017620D01*
X004982Y017730D01*
X005044Y017879D01*
X005044Y018041D01*
X005044Y017977D02*
X014907Y017977D01*
X014907Y017879D02*
X005043Y017879D01*
X005003Y017780D02*
X010008Y017780D01*
X009909Y017682D02*
X004934Y017682D01*
X004637Y017460D02*
X009762Y017460D01*
X010012Y017460D01*
X010137Y017585D01*
X010366Y017583D02*
X014907Y017583D01*
X014907Y017485D02*
X010360Y017485D01*
X010262Y017386D02*
X014907Y017386D01*
X014907Y017288D02*
X004885Y017288D01*
X004982Y017189D02*
X005292Y017189D01*
X005223Y017120D01*
X005011Y017120D01*
X005292Y017189D02*
X005482Y017189D01*
X004826Y016598D02*
X007319Y016598D01*
X007319Y016500D02*
X002787Y016500D01*
X002787Y016598D02*
X003448Y016598D01*
X003406Y016615D02*
X003556Y016553D01*
X003718Y016553D01*
X003867Y016615D01*
X003982Y016730D01*
X004044Y016879D01*
X004044Y017041D01*
X003982Y017191D01*
X003867Y017305D01*
X003718Y017367D01*
X003556Y017367D01*
X003406Y017305D01*
X003292Y017191D01*
X003230Y017041D01*
X003230Y016879D01*
X003292Y016730D01*
X003406Y016615D01*
X003325Y016697D02*
X002787Y016697D01*
X002787Y016795D02*
X003265Y016795D01*
X003230Y016894D02*
X002787Y016894D01*
X002787Y016992D02*
X003230Y016992D01*
X003251Y017091D02*
X002787Y017091D01*
X002787Y017189D02*
X003291Y017189D01*
X003389Y017288D02*
X002787Y017288D01*
X002787Y017386D02*
X004408Y017386D01*
X004408Y017485D02*
X002787Y017485D01*
X002787Y017583D02*
X003484Y017583D01*
X003340Y017682D02*
X002787Y017682D01*
X002787Y017780D02*
X003271Y017780D01*
X003387Y017960D02*
X003137Y018210D01*
X003137Y020960D01*
X003387Y021210D01*
X004387Y021210D01*
X005637Y021210D01*
X005866Y021228D02*
X022172Y021228D01*
X022172Y021326D02*
X005845Y021326D01*
X005746Y021425D02*
X022172Y021425D01*
X022172Y021523D02*
X018399Y021523D01*
X018357Y021481D02*
X018491Y021615D01*
X018491Y021805D01*
X018357Y021939D01*
X018167Y021939D01*
X018098Y021870D01*
X013926Y021870D01*
X013857Y021939D01*
X013667Y021939D01*
X013533Y021805D01*
X013533Y021615D01*
X013667Y021481D01*
X013857Y021481D01*
X013926Y021550D01*
X018098Y021550D01*
X018167Y021481D01*
X018357Y021481D01*
X018491Y021622D02*
X022172Y021622D01*
X022172Y021720D02*
X018491Y021720D01*
X018477Y021819D02*
X022172Y021819D01*
X022172Y021917D02*
X018379Y021917D01*
X018145Y021917D02*
X013879Y021917D01*
X013645Y021917D02*
X002787Y021917D01*
X002787Y021819D02*
X013546Y021819D01*
X013533Y021720D02*
X002787Y021720D01*
X002787Y021622D02*
X013533Y021622D01*
X013625Y021523D02*
X002787Y021523D01*
X002787Y021425D02*
X005527Y021425D01*
X005492Y021031D02*
X003434Y021031D01*
X003335Y020932D02*
X022172Y020932D01*
X022172Y020834D02*
X003297Y020834D01*
X003297Y020735D02*
X022172Y020735D01*
X022172Y020637D02*
X003297Y020637D01*
X003297Y020538D02*
X022172Y020538D01*
X022172Y020440D02*
X003297Y020440D01*
X003297Y020341D02*
X022172Y020341D01*
X022172Y020243D02*
X015305Y020243D01*
X015367Y020144D02*
X019497Y020144D01*
X019542Y020189D02*
X019408Y020055D01*
X019408Y019865D01*
X019427Y019846D01*
X019427Y015199D01*
X019408Y015180D01*
X019408Y014990D01*
X019542Y014856D01*
X019732Y014856D01*
X019866Y014990D01*
X019866Y015180D01*
X019847Y015199D01*
X019847Y019846D01*
X019866Y019865D01*
X019866Y020055D01*
X019732Y020189D01*
X019542Y020189D01*
X019408Y020046D02*
X015367Y020046D01*
X015367Y019947D02*
X019408Y019947D01*
X019424Y019849D02*
X015367Y019849D01*
X015367Y019750D02*
X019427Y019750D01*
X019427Y019652D02*
X015367Y019652D01*
X015367Y019553D02*
X019427Y019553D01*
X019427Y019455D02*
X015367Y019455D01*
X015367Y019356D02*
X019427Y019356D01*
X019427Y019258D02*
X015367Y019258D01*
X015367Y019159D02*
X019427Y019159D01*
X019427Y019061D02*
X015367Y019061D01*
X015367Y018962D02*
X019427Y018962D01*
X019427Y018864D02*
X015367Y018864D01*
X015367Y018765D02*
X019427Y018765D01*
X019427Y018667D02*
X015367Y018667D01*
X015367Y018568D02*
X019427Y018568D01*
X019427Y018470D02*
X015367Y018470D01*
X015367Y018371D02*
X019427Y018371D01*
X019427Y018273D02*
X015367Y018273D01*
X015367Y018174D02*
X019427Y018174D01*
X019427Y018076D02*
X015367Y018076D01*
X015367Y017977D02*
X019427Y017977D01*
X019427Y017879D02*
X015367Y017879D01*
X015367Y017780D02*
X019427Y017780D01*
X019427Y017682D02*
X015367Y017682D01*
X015367Y017583D02*
X019427Y017583D01*
X019427Y017485D02*
X015367Y017485D01*
X015367Y017386D02*
X019427Y017386D01*
X019427Y017288D02*
X015367Y017288D01*
X015367Y017189D02*
X019427Y017189D01*
X019427Y017091D02*
X015367Y017091D01*
X015367Y016992D02*
X019427Y016992D01*
X019427Y016894D02*
X015367Y016894D01*
X015367Y016795D02*
X019427Y016795D01*
X019427Y016697D02*
X017862Y016697D01*
X017927Y016670D02*
X017662Y016780D01*
X017375Y016780D01*
X017110Y016670D01*
X016908Y016467D01*
X016798Y016202D01*
X016798Y015915D01*
X016908Y015650D01*
X017110Y015448D01*
X017375Y015338D01*
X017662Y015338D01*
X017927Y015448D01*
X018130Y015650D01*
X018240Y015915D01*
X018240Y016202D01*
X018130Y016467D01*
X017927Y016670D01*
X017999Y016598D02*
X019427Y016598D01*
X019427Y016500D02*
X018097Y016500D01*
X018157Y016401D02*
X019427Y016401D01*
X019427Y016303D02*
X018198Y016303D01*
X018239Y016204D02*
X019427Y016204D01*
X019427Y016106D02*
X018240Y016106D01*
X018240Y016007D02*
X019427Y016007D01*
X019427Y015909D02*
X018237Y015909D01*
X018196Y015810D02*
X019427Y015810D01*
X019427Y015712D02*
X018155Y015712D01*
X018093Y015613D02*
X019427Y015613D01*
X019427Y015515D02*
X017994Y015515D01*
X017852Y015416D02*
X019427Y015416D01*
X019427Y015318D02*
X016355Y015318D01*
X016453Y015219D02*
X019427Y015219D01*
X019408Y015121D02*
X016552Y015121D01*
X016650Y015022D02*
X019408Y015022D01*
X019474Y014924D02*
X016749Y014924D01*
X016847Y014825D02*
X022172Y014825D01*
X022172Y014727D02*
X016946Y014727D01*
X017044Y014628D02*
X022172Y014628D01*
X022172Y014530D02*
X017143Y014530D01*
X017241Y014431D02*
X022172Y014431D01*
X022172Y014333D02*
X017340Y014333D01*
X017438Y014234D02*
X022172Y014234D01*
X022172Y014136D02*
X017537Y014136D01*
X017635Y014037D02*
X022172Y014037D01*
X022172Y013939D02*
X017986Y013939D01*
X017788Y013939D02*
X017734Y013939D01*
X017407Y013545D02*
X017367Y013545D01*
X017367Y013446D02*
X017407Y013446D01*
X017414Y013348D02*
X017360Y013348D01*
X017319Y013249D02*
X017455Y013249D01*
X017517Y013151D02*
X017256Y013151D01*
X017156Y013052D02*
X017617Y013052D01*
X017586Y012942D02*
X017509Y012967D01*
X017435Y012979D01*
X017435Y012509D01*
X017338Y012509D01*
X017338Y012979D01*
X017265Y012967D01*
X017187Y012942D01*
X017114Y012905D01*
X017048Y012857D01*
X016990Y012799D01*
X016942Y012733D01*
X016905Y012660D01*
X016880Y012582D01*
X016868Y012509D01*
X017338Y012509D01*
X017338Y012412D01*
X016868Y012412D01*
X016880Y012338D01*
X016905Y012261D01*
X016942Y012188D01*
X016990Y012121D01*
X017048Y012064D01*
X017114Y012015D01*
X017187Y011978D01*
X017265Y011953D01*
X017338Y011941D01*
X017338Y012412D01*
X017435Y012412D01*
X017435Y011941D01*
X017509Y011953D01*
X017586Y011978D01*
X017659Y012015D01*
X017726Y012064D01*
X017783Y012121D01*
X017832Y012188D01*
X017869Y012261D01*
X017894Y012338D01*
X017906Y012412D01*
X017435Y012412D01*
X017435Y012509D01*
X017906Y012509D01*
X017894Y012582D01*
X017869Y012660D01*
X017832Y012733D01*
X017783Y012799D01*
X017726Y012857D01*
X017659Y012905D01*
X017586Y012942D01*
X017551Y012954D02*
X022172Y012954D01*
X022172Y013052D02*
X018156Y013052D01*
X018256Y013151D02*
X022172Y013151D01*
X022172Y013249D02*
X018319Y013249D01*
X018360Y013348D02*
X022172Y013348D01*
X022172Y013446D02*
X018367Y013446D01*
X018367Y013545D02*
X022172Y013545D01*
X022172Y013643D02*
X018331Y013643D01*
X018284Y013742D02*
X022172Y013742D01*
X022172Y013840D02*
X018186Y013840D01*
X017727Y012855D02*
X022172Y012855D01*
X022172Y012757D02*
X017814Y012757D01*
X017869Y012658D02*
X022172Y012658D01*
X022172Y012560D02*
X017898Y012560D01*
X017898Y012363D02*
X022172Y012363D01*
X022172Y012461D02*
X017435Y012461D01*
X017338Y012461D02*
X016867Y012461D01*
X016867Y012556D02*
X016794Y012732D01*
X016659Y012867D01*
X016482Y012940D01*
X016291Y012940D01*
X016115Y012867D01*
X015980Y012732D01*
X015907Y012556D01*
X015907Y012365D01*
X015980Y012188D01*
X016115Y012053D01*
X016291Y011980D01*
X016482Y011980D01*
X016659Y012053D01*
X016794Y012188D01*
X016867Y012365D01*
X016867Y012556D01*
X016865Y012560D02*
X016876Y012560D01*
X016904Y012658D02*
X016824Y012658D01*
X016769Y012757D02*
X016959Y012757D01*
X017046Y012855D02*
X016671Y012855D01*
X016617Y013052D02*
X016156Y013052D01*
X016159Y013053D02*
X016294Y013188D01*
X016367Y013365D01*
X016367Y013556D01*
X016294Y013732D01*
X016159Y013867D01*
X015982Y013940D01*
X015791Y013940D01*
X015679Y013894D01*
X014616Y014957D01*
X014616Y015055D01*
X014482Y015189D01*
X014292Y015189D01*
X014158Y015055D01*
X014158Y014865D01*
X014292Y014731D01*
X014390Y014731D01*
X015453Y013668D01*
X015407Y013556D01*
X015407Y013365D01*
X015480Y013188D01*
X015615Y013053D01*
X015791Y012980D01*
X015982Y012980D01*
X016159Y013053D01*
X016256Y013151D02*
X016517Y013151D01*
X016455Y013249D02*
X016319Y013249D01*
X016360Y013348D02*
X016414Y013348D01*
X016407Y013446D02*
X016367Y013446D01*
X016367Y013545D02*
X016407Y013545D01*
X016443Y013643D02*
X016331Y013643D01*
X016284Y013742D02*
X016379Y013742D01*
X016281Y013840D02*
X016186Y013840D01*
X016182Y013939D02*
X015986Y013939D01*
X016084Y014037D02*
X015536Y014037D01*
X015635Y013939D02*
X015788Y013939D01*
X015985Y014136D02*
X015438Y014136D01*
X015339Y014234D02*
X015887Y014234D01*
X015788Y014333D02*
X015241Y014333D01*
X015142Y014431D02*
X015690Y014431D01*
X015493Y014530D02*
X015044Y014530D01*
X014945Y014628D02*
X015408Y014628D01*
X015408Y014727D02*
X014847Y014727D01*
X014748Y014825D02*
X015428Y014825D01*
X015526Y014924D02*
X014650Y014924D01*
X014616Y015022D02*
X016000Y015022D01*
X016098Y014924D02*
X015747Y014924D01*
X015846Y014825D02*
X016197Y014825D01*
X016295Y014727D02*
X015866Y014727D01*
X015945Y014628D02*
X016394Y014628D01*
X016492Y014530D02*
X016044Y014530D01*
X016142Y014431D02*
X016591Y014431D01*
X016689Y014333D02*
X016241Y014333D01*
X016339Y014234D02*
X016788Y014234D01*
X016886Y014136D02*
X016438Y014136D01*
X016536Y014037D02*
X016985Y014037D01*
X016986Y013939D02*
X017083Y013939D01*
X016788Y013939D02*
X016635Y013939D01*
X016887Y013460D02*
X015637Y014710D01*
X015901Y015121D02*
X014550Y015121D01*
X014387Y014960D02*
X015887Y013460D01*
X015586Y012942D02*
X015659Y012905D01*
X015726Y012857D01*
X015783Y012799D01*
X015832Y012733D01*
X015869Y012660D01*
X015894Y012582D01*
X015906Y012509D01*
X015435Y012509D01*
X015338Y012509D01*
X015338Y012979D01*
X015265Y012967D01*
X015187Y012942D01*
X015114Y012905D01*
X015048Y012857D01*
X014990Y012799D01*
X014942Y012733D01*
X014905Y012660D01*
X014880Y012582D01*
X014868Y012509D01*
X015338Y012509D01*
X015338Y012412D01*
X014868Y012412D01*
X014880Y012338D01*
X014905Y012261D01*
X014942Y012188D01*
X014990Y012121D01*
X015048Y012064D01*
X015114Y012015D01*
X015187Y011978D01*
X015265Y011953D01*
X015338Y011941D01*
X015338Y012412D01*
X015435Y012412D01*
X015435Y011941D01*
X015509Y011953D01*
X015586Y011978D01*
X015659Y012015D01*
X015726Y012064D01*
X015783Y012121D01*
X015832Y012188D01*
X015869Y012261D01*
X015894Y012338D01*
X015906Y012412D01*
X015435Y012412D01*
X015435Y012509D01*
X015435Y012979D01*
X015509Y012967D01*
X015586Y012942D01*
X015551Y012954D02*
X017223Y012954D01*
X017338Y012954D02*
X017435Y012954D01*
X017435Y012855D02*
X017338Y012855D01*
X017338Y012757D02*
X017435Y012757D01*
X017435Y012658D02*
X017338Y012658D01*
X017338Y012560D02*
X017435Y012560D01*
X017435Y012363D02*
X017338Y012363D01*
X017338Y012264D02*
X017435Y012264D01*
X017435Y012166D02*
X017338Y012166D01*
X017338Y012067D02*
X017435Y012067D01*
X017435Y011969D02*
X017338Y011969D01*
X017217Y011969D02*
X015557Y011969D01*
X015435Y011969D02*
X015338Y011969D01*
X015338Y012067D02*
X015435Y012067D01*
X015435Y012166D02*
X015338Y012166D01*
X015338Y012264D02*
X015435Y012264D01*
X015435Y012363D02*
X015338Y012363D01*
X015338Y012461D02*
X014867Y012461D01*
X014867Y012363D02*
X014876Y012363D01*
X014867Y012264D02*
X014904Y012264D01*
X014867Y012166D02*
X014958Y012166D01*
X015044Y012067D02*
X014867Y012067D01*
X014867Y012045D02*
X014802Y011980D01*
X013971Y011980D01*
X013907Y012045D01*
X013907Y012876D01*
X013971Y012940D01*
X014802Y012940D01*
X014867Y012876D01*
X014867Y012045D01*
X015217Y011969D02*
X011557Y011969D01*
X011586Y011978D02*
X011659Y012015D01*
X011726Y012064D01*
X011783Y012121D01*
X011832Y012188D01*
X011869Y012261D01*
X011894Y012338D01*
X011906Y012412D01*
X011435Y012412D01*
X011435Y011941D01*
X011509Y011953D01*
X011586Y011978D01*
X011435Y011969D02*
X011338Y011969D01*
X011338Y011941D02*
X011338Y012412D01*
X010868Y012412D01*
X010880Y012338D01*
X010905Y012261D01*
X010942Y012188D01*
X010990Y012121D01*
X011048Y012064D01*
X011114Y012015D01*
X011187Y011978D01*
X011265Y011953D01*
X011338Y011941D01*
X011217Y011969D02*
X009557Y011969D01*
X009586Y011978D02*
X009509Y011953D01*
X009435Y011941D01*
X009435Y012412D01*
X009338Y012412D01*
X008868Y012412D01*
X008880Y012338D01*
X008905Y012261D01*
X008942Y012188D01*
X008990Y012121D01*
X009048Y012064D01*
X009114Y012015D01*
X009187Y011978D01*
X009265Y011953D01*
X009338Y011941D01*
X009338Y012412D01*
X009338Y012509D01*
X009435Y012509D01*
X009435Y012979D01*
X009509Y012967D01*
X009586Y012942D01*
X009659Y012905D01*
X009726Y012857D01*
X009783Y012799D01*
X009832Y012733D01*
X009869Y012660D01*
X009894Y012582D01*
X009906Y012509D01*
X009435Y012509D01*
X009435Y012412D01*
X009906Y012412D01*
X009894Y012338D01*
X009869Y012261D01*
X009832Y012188D01*
X009783Y012121D01*
X009726Y012064D01*
X009659Y012015D01*
X009586Y011978D01*
X009435Y011969D02*
X009338Y011969D01*
X009338Y012067D02*
X009435Y012067D01*
X009435Y012166D02*
X009338Y012166D01*
X009338Y012264D02*
X009435Y012264D01*
X009435Y012363D02*
X009338Y012363D01*
X009338Y012461D02*
X008867Y012461D01*
X008867Y012363D02*
X008876Y012363D01*
X008867Y012264D02*
X008904Y012264D01*
X008908Y012166D02*
X008958Y012166D01*
X009006Y012067D02*
X009044Y012067D01*
X009105Y011969D02*
X009217Y011969D01*
X009203Y011870D02*
X022172Y011870D01*
X022172Y011772D02*
X009302Y011772D01*
X009400Y011673D02*
X022172Y011673D01*
X022172Y011575D02*
X009499Y011575D01*
X009597Y011476D02*
X022172Y011476D01*
X022172Y011969D02*
X017557Y011969D01*
X017729Y012067D02*
X022172Y012067D01*
X022172Y012166D02*
X017816Y012166D01*
X017870Y012264D02*
X022172Y012264D01*
X022172Y014924D02*
X019799Y014924D01*
X019866Y015022D02*
X022172Y015022D01*
X022172Y015121D02*
X019866Y015121D01*
X019847Y015219D02*
X022172Y015219D01*
X022172Y015318D02*
X019847Y015318D01*
X019847Y015416D02*
X022172Y015416D01*
X022172Y015515D02*
X019847Y015515D01*
X019847Y015613D02*
X022172Y015613D01*
X022172Y015712D02*
X019847Y015712D01*
X019847Y015810D02*
X022172Y015810D01*
X022172Y015909D02*
X019847Y015909D01*
X019847Y016007D02*
X022172Y016007D01*
X022172Y016106D02*
X019847Y016106D01*
X019847Y016204D02*
X022172Y016204D01*
X022172Y016303D02*
X019847Y016303D01*
X019847Y016401D02*
X022172Y016401D01*
X022172Y016500D02*
X019847Y016500D01*
X019847Y016598D02*
X022172Y016598D01*
X022172Y016697D02*
X019847Y016697D01*
X019847Y016795D02*
X022172Y016795D01*
X022172Y016894D02*
X019847Y016894D01*
X019847Y016992D02*
X022172Y016992D01*
X022172Y017091D02*
X019847Y017091D01*
X019847Y017189D02*
X022172Y017189D01*
X022172Y017288D02*
X019847Y017288D01*
X019847Y017386D02*
X022172Y017386D01*
X022172Y017485D02*
X019847Y017485D01*
X019847Y017583D02*
X022172Y017583D01*
X022172Y017682D02*
X019847Y017682D01*
X019847Y017780D02*
X022172Y017780D01*
X022172Y017879D02*
X019847Y017879D01*
X019847Y017977D02*
X022172Y017977D01*
X022172Y018076D02*
X019847Y018076D01*
X019847Y018174D02*
X022172Y018174D01*
X022172Y018273D02*
X019847Y018273D01*
X019847Y018371D02*
X022172Y018371D01*
X022172Y018470D02*
X019847Y018470D01*
X019847Y018568D02*
X022172Y018568D01*
X022172Y018667D02*
X019847Y018667D01*
X019847Y018765D02*
X022172Y018765D01*
X022172Y018864D02*
X019847Y018864D01*
X019847Y018962D02*
X022172Y018962D01*
X022172Y019061D02*
X019847Y019061D01*
X019847Y019159D02*
X022172Y019159D01*
X022172Y019258D02*
X019847Y019258D01*
X019847Y019356D02*
X022172Y019356D01*
X022172Y019455D02*
X019847Y019455D01*
X019847Y019553D02*
X022172Y019553D01*
X022172Y019652D02*
X019847Y019652D01*
X019847Y019750D02*
X022172Y019750D01*
X022172Y019849D02*
X019849Y019849D01*
X019866Y019947D02*
X022172Y019947D01*
X022172Y020046D02*
X019866Y020046D01*
X019777Y020144D02*
X022172Y020144D01*
X022172Y021031D02*
X005781Y021031D01*
X005866Y021129D02*
X022172Y021129D01*
X022172Y022016D02*
X002787Y022016D01*
X002787Y022114D02*
X022172Y022114D01*
X022172Y022213D02*
X002787Y022213D01*
X002787Y022311D02*
X022172Y022311D01*
X022172Y022410D02*
X002787Y022410D01*
X002787Y022508D02*
X022172Y022508D01*
X022172Y022607D02*
X002787Y022607D01*
X002787Y022705D02*
X022172Y022705D01*
X022172Y022804D02*
X002787Y022804D01*
X002787Y022902D02*
X022172Y022902D01*
X022172Y023001D02*
X002787Y023001D01*
X002787Y023099D02*
X022172Y023099D01*
X022172Y023198D02*
X002787Y023198D01*
X002787Y023296D02*
X022172Y023296D01*
X022172Y023395D02*
X002787Y023395D01*
X002787Y023493D02*
X022172Y023493D01*
X022172Y023592D02*
X002787Y023592D01*
X002787Y023690D02*
X022172Y023690D01*
X022172Y023789D02*
X002787Y023789D01*
X002787Y023887D02*
X022172Y023887D01*
X022172Y023986D02*
X002787Y023986D01*
X002787Y024084D02*
X022172Y024084D01*
X022172Y024183D02*
X002787Y024183D01*
X002787Y024281D02*
X022172Y024281D01*
X022172Y024380D02*
X002787Y024380D01*
X002787Y024478D02*
X022172Y024478D01*
X022172Y024577D02*
X002787Y024577D01*
X002787Y024675D02*
X022172Y024675D01*
X022172Y024774D02*
X002787Y024774D01*
X002787Y024872D02*
X022172Y024872D01*
X022172Y024971D02*
X002787Y024971D01*
X002787Y025069D02*
X022172Y025069D01*
X022172Y025168D02*
X002787Y025168D01*
X002787Y025266D02*
X022172Y025266D01*
X022172Y025365D02*
X002787Y025365D01*
X002787Y025463D02*
X022172Y025463D01*
X018262Y021710D02*
X013762Y021710D01*
X013899Y021523D02*
X018125Y021523D01*
X017176Y016697D02*
X015367Y016697D01*
X015367Y016598D02*
X017039Y016598D01*
X016940Y016500D02*
X015367Y016500D01*
X015367Y016401D02*
X016880Y016401D01*
X016840Y016303D02*
X015370Y016303D01*
X015468Y016204D02*
X016799Y016204D01*
X016798Y016106D02*
X015567Y016106D01*
X015665Y016007D02*
X016798Y016007D01*
X016801Y015909D02*
X015764Y015909D01*
X015862Y015810D02*
X016841Y015810D01*
X016882Y015712D02*
X015961Y015712D01*
X016059Y015613D02*
X016945Y015613D01*
X017043Y015515D02*
X016158Y015515D01*
X016256Y015416D02*
X017186Y015416D01*
X017331Y013643D02*
X017379Y013643D01*
X016876Y012363D02*
X016866Y012363D01*
X016904Y012264D02*
X016825Y012264D01*
X016771Y012166D02*
X016958Y012166D01*
X017044Y012067D02*
X016673Y012067D01*
X016101Y012067D02*
X015729Y012067D01*
X015816Y012166D02*
X016002Y012166D01*
X015948Y012264D02*
X015870Y012264D01*
X015898Y012363D02*
X015908Y012363D01*
X015907Y012461D02*
X015435Y012461D01*
X015435Y012560D02*
X015338Y012560D01*
X015338Y012658D02*
X015435Y012658D01*
X015435Y012757D02*
X015338Y012757D01*
X015338Y012855D02*
X015435Y012855D01*
X015435Y012954D02*
X015338Y012954D01*
X015223Y012954D02*
X011551Y012954D01*
X011586Y012942D02*
X011509Y012967D01*
X011435Y012979D01*
X011435Y012509D01*
X011338Y012509D01*
X011338Y012979D01*
X011265Y012967D01*
X011187Y012942D01*
X011114Y012905D01*
X011048Y012857D01*
X010990Y012799D01*
X010942Y012733D01*
X010905Y012660D01*
X010880Y012582D01*
X010868Y012509D01*
X011338Y012509D01*
X011338Y012412D01*
X011435Y012412D01*
X011435Y012509D01*
X011906Y012509D01*
X011894Y012582D01*
X011869Y012660D01*
X011832Y012733D01*
X011783Y012799D01*
X011726Y012857D01*
X011659Y012905D01*
X011586Y012942D01*
X011617Y013052D02*
X011156Y013052D01*
X011223Y012954D02*
X009551Y012954D01*
X009435Y012954D02*
X009357Y012954D01*
X009338Y012855D02*
X009435Y012855D01*
X009435Y012757D02*
X009338Y012757D01*
X009338Y012658D02*
X009435Y012658D01*
X009435Y012560D02*
X009338Y012560D01*
X009435Y012461D02*
X009907Y012461D01*
X009907Y012556D02*
X009907Y012365D01*
X009980Y012188D01*
X010115Y012053D01*
X010291Y011980D01*
X010482Y011980D01*
X010659Y012053D01*
X010794Y012188D01*
X010867Y012365D01*
X010867Y012556D01*
X010794Y012732D01*
X010659Y012867D01*
X010482Y012940D01*
X010291Y012940D01*
X010115Y012867D01*
X009980Y012732D01*
X009907Y012556D01*
X009908Y012560D02*
X009898Y012560D01*
X009869Y012658D02*
X009949Y012658D01*
X010005Y012757D02*
X009814Y012757D01*
X009727Y012855D02*
X010103Y012855D01*
X010156Y013052D02*
X010617Y013052D01*
X010517Y013151D02*
X010256Y013151D01*
X010319Y013249D02*
X010455Y013249D01*
X010414Y013348D02*
X010360Y013348D01*
X010367Y013446D02*
X010407Y013446D01*
X010407Y013545D02*
X010367Y013545D01*
X010331Y013643D02*
X010443Y013643D01*
X010490Y013742D02*
X010284Y013742D01*
X010186Y013840D02*
X010588Y013840D01*
X011186Y013840D02*
X011588Y013840D01*
X011490Y013742D02*
X011284Y013742D01*
X011331Y013643D02*
X011443Y013643D01*
X011407Y013545D02*
X011367Y013545D01*
X011367Y013446D02*
X011407Y013446D01*
X011414Y013348D02*
X011360Y013348D01*
X011319Y013249D02*
X011455Y013249D01*
X011517Y013151D02*
X011256Y013151D01*
X011338Y012954D02*
X011435Y012954D01*
X011435Y012855D02*
X011338Y012855D01*
X011338Y012757D02*
X011435Y012757D01*
X011435Y012658D02*
X011338Y012658D01*
X011338Y012560D02*
X011435Y012560D01*
X011435Y012461D02*
X013907Y012461D01*
X013907Y012363D02*
X011898Y012363D01*
X011870Y012264D02*
X013907Y012264D01*
X013907Y012166D02*
X011816Y012166D01*
X011729Y012067D02*
X013907Y012067D01*
X014137Y011710D02*
X013887Y011460D01*
X013387Y010960D01*
X006137Y010960D01*
X006137Y012085D01*
X006910Y012363D02*
X004728Y012363D01*
X004718Y012367D02*
X004556Y012367D01*
X004406Y012305D01*
X004292Y012191D01*
X004230Y012041D01*
X004230Y011879D01*
X004292Y011730D01*
X004406Y011615D01*
X004556Y011553D01*
X004718Y011553D01*
X004867Y011615D01*
X004982Y011730D01*
X005044Y011879D01*
X005044Y012041D01*
X004982Y012191D01*
X004867Y012305D01*
X004718Y012367D01*
X004545Y012363D02*
X003728Y012363D01*
X003718Y012367D02*
X003556Y012367D01*
X003406Y012305D01*
X003292Y012191D01*
X003230Y012041D01*
X003230Y011879D01*
X003292Y011730D01*
X003406Y011615D01*
X003556Y011553D01*
X003718Y011553D01*
X003867Y011615D01*
X003982Y011730D01*
X004044Y011879D01*
X004044Y012041D01*
X003982Y012191D01*
X003867Y012305D01*
X003718Y012367D01*
X003685Y012515D02*
X003741Y012524D01*
X003808Y012546D01*
X003871Y012578D01*
X003928Y012619D01*
X003978Y012669D01*
X004019Y012726D01*
X004051Y012789D01*
X004073Y012856D01*
X004082Y012912D01*
X003685Y012912D01*
X003685Y012515D01*
X003685Y012560D02*
X003588Y012560D01*
X003588Y012515D02*
X003588Y012912D01*
X003192Y012912D01*
X003201Y012856D01*
X003223Y012789D01*
X003255Y012726D01*
X003296Y012669D01*
X003346Y012619D01*
X003403Y012578D01*
X003465Y012546D01*
X003532Y012524D01*
X003588Y012515D01*
X003588Y012658D02*
X003685Y012658D01*
X003685Y012757D02*
X003588Y012757D01*
X003588Y012855D02*
X003685Y012855D01*
X003685Y012912D02*
X003588Y012912D01*
X003588Y013009D01*
X003588Y013405D01*
X003532Y013396D01*
X003465Y013374D01*
X003403Y013342D01*
X003346Y013301D01*
X003296Y013251D01*
X003255Y013194D01*
X003223Y013132D01*
X003201Y013065D01*
X003192Y013009D01*
X003588Y013009D01*
X003685Y013009D01*
X003685Y013405D01*
X003741Y013396D01*
X003808Y013374D01*
X003871Y013342D01*
X003928Y013301D01*
X003978Y013251D01*
X004019Y013194D01*
X004051Y013132D01*
X004073Y013065D01*
X004082Y013009D01*
X003685Y013009D01*
X003685Y012912D01*
X003685Y012954D02*
X004230Y012954D01*
X004230Y012879D02*
X004292Y012730D01*
X004406Y012615D01*
X004556Y012553D01*
X004718Y012553D01*
X004867Y012615D01*
X004982Y012730D01*
X005044Y012879D01*
X005044Y013041D01*
X004982Y013191D01*
X004867Y013305D01*
X004718Y013367D01*
X004556Y013367D01*
X004406Y013305D01*
X004292Y013191D01*
X004230Y013041D01*
X004230Y012879D01*
X004240Y012855D02*
X004073Y012855D01*
X004035Y012757D02*
X004281Y012757D01*
X004363Y012658D02*
X003967Y012658D01*
X003835Y012560D02*
X004541Y012560D01*
X004733Y012560D02*
X006912Y012560D01*
X006908Y012461D02*
X002787Y012461D01*
X002787Y012363D02*
X003545Y012363D01*
X003365Y012264D02*
X002787Y012264D01*
X002787Y012166D02*
X003282Y012166D01*
X003241Y012067D02*
X002787Y012067D01*
X002787Y011969D02*
X003230Y011969D01*
X003234Y011870D02*
X002787Y011870D01*
X002787Y011772D02*
X003275Y011772D01*
X003348Y011673D02*
X002787Y011673D01*
X002787Y011575D02*
X003504Y011575D01*
X003556Y011367D02*
X003406Y011305D01*
X003292Y011191D01*
X003230Y011041D01*
X003230Y010879D01*
X003292Y010730D01*
X003406Y010615D01*
X003556Y010553D01*
X003718Y010553D01*
X003867Y010615D01*
X003982Y010730D01*
X004044Y010879D01*
X004044Y011041D01*
X003982Y011191D01*
X003867Y011305D01*
X003718Y011367D01*
X003556Y011367D01*
X003380Y011279D02*
X002787Y011279D01*
X002787Y011181D02*
X003288Y011181D01*
X003247Y011082D02*
X002787Y011082D01*
X002787Y010984D02*
X003230Y010984D01*
X003230Y010885D02*
X002787Y010885D01*
X002787Y010787D02*
X003268Y010787D01*
X003333Y010688D02*
X002787Y010688D01*
X002787Y010590D02*
X003468Y010590D01*
X003556Y010367D02*
X003406Y010305D01*
X003292Y010191D01*
X003230Y010041D01*
X003230Y009879D01*
X003292Y009730D01*
X003406Y009615D01*
X003556Y009553D01*
X003718Y009553D01*
X003867Y009615D01*
X003982Y009730D01*
X004044Y009879D01*
X004044Y010041D01*
X003982Y010191D01*
X003867Y010305D01*
X003718Y010367D01*
X003556Y010367D01*
X003395Y010294D02*
X002787Y010294D01*
X002787Y010196D02*
X003297Y010196D01*
X003253Y010097D02*
X002787Y010097D01*
X002787Y009999D02*
X003230Y009999D01*
X003230Y009900D02*
X002787Y009900D01*
X002787Y009802D02*
X003262Y009802D01*
X003318Y009703D02*
X002787Y009703D01*
X002787Y009605D02*
X003432Y009605D01*
X003461Y009408D02*
X002787Y009408D01*
X002787Y009506D02*
X007238Y009506D01*
X007226Y009518D02*
X007445Y009299D01*
X007732Y009180D01*
X008042Y009180D01*
X008329Y009299D01*
X008548Y009518D01*
X008667Y009805D01*
X008667Y010115D01*
X008548Y010402D01*
X008329Y010621D01*
X008042Y010740D01*
X007732Y010740D01*
X007445Y010621D01*
X007226Y010402D01*
X007107Y010115D01*
X007107Y009805D01*
X007226Y009518D01*
X007190Y009605D02*
X004842Y009605D01*
X004867Y009615D02*
X004982Y009730D01*
X005044Y009879D01*
X005044Y010041D01*
X004982Y010191D01*
X004867Y010305D01*
X004718Y010367D01*
X004556Y010367D01*
X004406Y010305D01*
X004292Y010191D01*
X004230Y010041D01*
X004230Y009879D01*
X004292Y009730D01*
X004406Y009615D01*
X004556Y009553D01*
X004718Y009553D01*
X004867Y009615D01*
X004955Y009703D02*
X007149Y009703D01*
X007108Y009802D02*
X005012Y009802D01*
X005044Y009900D02*
X007107Y009900D01*
X007107Y009999D02*
X005044Y009999D01*
X005020Y010097D02*
X007107Y010097D01*
X007140Y010196D02*
X004977Y010196D01*
X004878Y010294D02*
X007181Y010294D01*
X007222Y010393D02*
X002787Y010393D01*
X002787Y010491D02*
X007315Y010491D01*
X007413Y010590D02*
X004887Y010590D01*
X004992Y010688D02*
X007606Y010688D01*
X008167Y010688D02*
X012106Y010688D01*
X012232Y010740D02*
X011945Y010621D01*
X011726Y010402D01*
X011607Y010115D01*
X011607Y009805D01*
X011726Y009518D01*
X011945Y009299D01*
X012232Y009180D01*
X012542Y009180D01*
X012829Y009299D01*
X013048Y009518D01*
X013137Y009733D01*
X013226Y009518D01*
X013445Y009299D01*
X013732Y009180D01*
X014042Y009180D01*
X014329Y009299D01*
X014548Y009518D01*
X014667Y009805D01*
X014667Y010115D01*
X014548Y010402D01*
X014329Y010621D01*
X014042Y010740D01*
X013732Y010740D01*
X013445Y010621D01*
X013226Y010402D01*
X013137Y010188D01*
X013048Y010402D01*
X012829Y010621D01*
X012542Y010740D01*
X012232Y010740D01*
X011913Y010590D02*
X008360Y010590D01*
X008459Y010491D02*
X011815Y010491D01*
X011722Y010393D02*
X008552Y010393D01*
X008593Y010294D02*
X011681Y010294D01*
X011640Y010196D02*
X008633Y010196D01*
X008667Y010097D02*
X011607Y010097D01*
X011607Y009999D02*
X008667Y009999D01*
X008667Y009900D02*
X011607Y009900D01*
X011608Y009802D02*
X008665Y009802D01*
X008625Y009703D02*
X011649Y009703D01*
X011690Y009605D02*
X008584Y009605D01*
X008536Y009506D02*
X011738Y009506D01*
X011836Y009408D02*
X008437Y009408D01*
X008339Y009309D02*
X011935Y009309D01*
X012158Y009211D02*
X008115Y009211D01*
X007658Y009211D02*
X004962Y009211D01*
X004857Y009309D02*
X007435Y009309D01*
X007336Y009408D02*
X003813Y009408D01*
X003685Y009408D02*
X003588Y009408D01*
X003588Y009309D02*
X003685Y009309D01*
X003685Y009211D02*
X003588Y009211D01*
X003588Y009112D02*
X003685Y009112D01*
X003685Y009014D02*
X003588Y009014D01*
X003637Y008960D02*
X004137Y009460D01*
X004137Y010960D01*
X004637Y010960D01*
X006137Y010960D01*
X007009Y012264D02*
X004908Y012264D01*
X004992Y012166D02*
X007907Y012166D01*
X007907Y012264D02*
X007265Y012264D01*
X007363Y012363D02*
X007907Y012363D01*
X007907Y012461D02*
X007366Y012461D01*
X007463Y012560D02*
X007907Y012560D01*
X007907Y012658D02*
X007561Y012658D01*
X007660Y012757D02*
X007907Y012757D01*
X007907Y012855D02*
X007758Y012855D01*
X007857Y012954D02*
X008904Y012954D01*
X008617Y013052D02*
X007955Y013052D01*
X008054Y013151D02*
X008517Y013151D01*
X008455Y013249D02*
X008152Y013249D01*
X008137Y013460D02*
X008887Y013460D01*
X009186Y013840D02*
X009227Y013840D01*
X009264Y013939D02*
X008986Y013939D01*
X008788Y013939D02*
X005044Y013939D01*
X005044Y014037D02*
X009363Y014037D01*
X009882Y014431D02*
X002787Y014431D01*
X002787Y014333D02*
X003473Y014333D01*
X003406Y014305D02*
X003292Y014191D01*
X003230Y014041D01*
X003230Y013879D01*
X003292Y013730D01*
X003406Y013615D01*
X003556Y013553D01*
X003718Y013553D01*
X003867Y013615D01*
X003982Y013730D01*
X004044Y013879D01*
X004044Y014041D01*
X003982Y014191D01*
X003867Y014305D01*
X003718Y014367D01*
X003556Y014367D01*
X003406Y014305D01*
X003335Y014234D02*
X002787Y014234D01*
X002787Y014136D02*
X003269Y014136D01*
X003230Y014037D02*
X002787Y014037D01*
X002787Y013939D02*
X003230Y013939D01*
X003246Y013840D02*
X002787Y013840D01*
X002787Y013742D02*
X003287Y013742D01*
X003378Y013643D02*
X002787Y013643D01*
X002787Y013545D02*
X007995Y013545D01*
X007897Y013446D02*
X002787Y013446D01*
X002787Y013348D02*
X003413Y013348D01*
X003294Y013249D02*
X002787Y013249D01*
X002787Y013151D02*
X003232Y013151D01*
X003199Y013052D02*
X002787Y013052D01*
X002787Y012954D02*
X003588Y012954D01*
X003637Y012960D02*
X004137Y012960D01*
X004137Y015960D01*
X004082Y016009D02*
X004073Y016065D01*
X004051Y016132D01*
X004019Y016194D01*
X003978Y016251D01*
X003928Y016301D01*
X003871Y016342D01*
X003808Y016374D01*
X003741Y016396D01*
X003685Y016405D01*
X003685Y016009D01*
X004082Y016009D01*
X004059Y016106D02*
X004257Y016106D01*
X004230Y016007D02*
X003685Y016007D01*
X003685Y015909D02*
X003588Y015909D01*
X003588Y015810D02*
X003685Y015810D01*
X003685Y015712D02*
X003588Y015712D01*
X003588Y015613D02*
X003685Y015613D01*
X003919Y015613D02*
X004411Y015613D01*
X004310Y015712D02*
X004009Y015712D01*
X004058Y015810D02*
X004259Y015810D01*
X004230Y015909D02*
X004081Y015909D01*
X004012Y016204D02*
X004305Y016204D01*
X004404Y016303D02*
X003926Y016303D01*
X003709Y016401D02*
X007355Y016401D01*
X007319Y015416D02*
X002787Y015416D01*
X002787Y015318D02*
X003437Y015318D01*
X003406Y015305D02*
X003292Y015191D01*
X003230Y015041D01*
X003230Y014879D01*
X003292Y014730D01*
X003406Y014615D01*
X003556Y014553D01*
X003718Y014553D01*
X003867Y014615D01*
X003982Y014730D01*
X004044Y014879D01*
X004044Y015041D01*
X003982Y015191D01*
X003867Y015305D01*
X003718Y015367D01*
X003556Y015367D01*
X003406Y015305D01*
X003320Y015219D02*
X002787Y015219D01*
X002787Y015121D02*
X003263Y015121D01*
X003230Y015022D02*
X002787Y015022D01*
X002787Y014924D02*
X003230Y014924D01*
X003252Y014825D02*
X002787Y014825D01*
X002787Y014727D02*
X003295Y014727D01*
X003393Y014628D02*
X002787Y014628D01*
X002787Y014530D02*
X009980Y014530D01*
X009617Y013052D02*
X009455Y013052D01*
X009898Y012363D02*
X009908Y012363D01*
X009870Y012264D02*
X009948Y012264D01*
X010002Y012166D02*
X009816Y012166D01*
X009729Y012067D02*
X010101Y012067D01*
X010673Y012067D02*
X011044Y012067D01*
X010958Y012166D02*
X010771Y012166D01*
X010825Y012264D02*
X010904Y012264D01*
X010876Y012363D02*
X010866Y012363D01*
X010867Y012461D02*
X011338Y012461D01*
X011338Y012363D02*
X011435Y012363D01*
X011435Y012264D02*
X011338Y012264D01*
X011338Y012166D02*
X011435Y012166D01*
X011435Y012067D02*
X011338Y012067D01*
X011814Y012757D02*
X013907Y012757D01*
X013907Y012855D02*
X011727Y012855D01*
X011869Y012658D02*
X013907Y012658D01*
X013907Y012560D02*
X011898Y012560D01*
X012156Y013052D02*
X014617Y013052D01*
X014517Y013151D02*
X012256Y013151D01*
X012319Y013249D02*
X014455Y013249D01*
X014414Y013348D02*
X012360Y013348D01*
X012367Y013446D02*
X014407Y013446D01*
X014407Y013545D02*
X012367Y013545D01*
X012331Y013643D02*
X014443Y013643D01*
X014379Y013742D02*
X012284Y013742D01*
X012186Y013840D02*
X014281Y013840D01*
X014536Y014037D02*
X015084Y014037D01*
X014986Y013939D02*
X015182Y013939D01*
X015186Y013840D02*
X015281Y013840D01*
X015284Y013742D02*
X015379Y013742D01*
X015331Y013643D02*
X015443Y013643D01*
X015407Y013545D02*
X015367Y013545D01*
X015367Y013446D02*
X015407Y013446D01*
X015414Y013348D02*
X015360Y013348D01*
X015319Y013249D02*
X015455Y013249D01*
X015517Y013151D02*
X015256Y013151D01*
X015156Y013052D02*
X015617Y013052D01*
X015727Y012855D02*
X016103Y012855D01*
X016005Y012757D02*
X015814Y012757D01*
X015869Y012658D02*
X015949Y012658D01*
X015908Y012560D02*
X015898Y012560D01*
X015046Y012855D02*
X014867Y012855D01*
X014867Y012757D02*
X014959Y012757D01*
X014904Y012658D02*
X014867Y012658D01*
X014867Y012560D02*
X014876Y012560D01*
X014887Y013460D02*
X013137Y015210D01*
X013366Y015219D02*
X015803Y015219D01*
X015704Y015318D02*
X013353Y015318D01*
X013255Y015416D02*
X015606Y015416D01*
X014907Y016303D02*
X013487Y016303D01*
X013528Y016401D02*
X014907Y016401D01*
X014907Y016500D02*
X013543Y016500D01*
X013505Y016598D02*
X014907Y016598D01*
X014907Y016697D02*
X013469Y016697D01*
X013436Y016795D02*
X014907Y016795D01*
X014907Y017682D02*
X010364Y017682D01*
X010266Y017780D02*
X014907Y017780D01*
X014907Y019061D02*
X005073Y019061D01*
X005073Y019065D02*
X005051Y019132D01*
X005019Y019194D01*
X004978Y019251D01*
X004928Y019301D01*
X004871Y019342D01*
X004808Y019374D01*
X004741Y019396D01*
X004685Y019405D01*
X004685Y019009D01*
X004588Y019009D01*
X004588Y019405D01*
X004532Y019396D01*
X004465Y019374D01*
X004403Y019342D01*
X004346Y019301D01*
X004296Y019251D01*
X004255Y019194D01*
X004223Y019132D01*
X004201Y019065D01*
X004192Y019009D01*
X004588Y019009D01*
X004588Y018912D01*
X004192Y018912D01*
X004201Y018856D01*
X004223Y018789D01*
X004255Y018726D01*
X004296Y018669D01*
X004346Y018619D01*
X004403Y018578D01*
X004465Y018546D01*
X004532Y018524D01*
X004588Y018515D01*
X004588Y018912D01*
X004685Y018912D01*
X004685Y019009D01*
X005082Y019009D01*
X005073Y019065D01*
X005037Y019159D02*
X014907Y019159D01*
X014907Y019258D02*
X004971Y019258D01*
X004844Y019356D02*
X014907Y019356D01*
X014907Y019455D02*
X003297Y019455D01*
X003297Y019553D02*
X014907Y019553D01*
X014907Y019652D02*
X003297Y019652D01*
X003297Y019750D02*
X014907Y019750D01*
X014907Y019849D02*
X003297Y019849D01*
X003297Y019947D02*
X014907Y019947D01*
X014907Y020046D02*
X003297Y020046D01*
X003297Y020144D02*
X014907Y020144D01*
X014969Y020243D02*
X003297Y020243D01*
X002977Y020243D02*
X002787Y020243D01*
X002787Y020341D02*
X002977Y020341D01*
X002977Y020440D02*
X002787Y020440D01*
X002787Y020538D02*
X002977Y020538D01*
X002977Y020637D02*
X002787Y020637D01*
X002787Y020735D02*
X002977Y020735D01*
X002977Y020834D02*
X002787Y020834D01*
X002787Y020932D02*
X002977Y020932D01*
X002981Y021031D02*
X002787Y021031D01*
X002787Y021129D02*
X003080Y021129D01*
X003178Y021228D02*
X002787Y021228D01*
X002787Y021326D02*
X003277Y021326D01*
X002977Y020144D02*
X002787Y020144D01*
X002787Y020046D02*
X002977Y020046D01*
X002977Y019947D02*
X002787Y019947D01*
X002787Y019849D02*
X002977Y019849D01*
X002977Y019750D02*
X002787Y019750D01*
X002787Y019652D02*
X002977Y019652D01*
X002977Y019553D02*
X002787Y019553D01*
X002787Y019455D02*
X002977Y019455D01*
X002977Y019356D02*
X002787Y019356D01*
X002787Y019258D02*
X002977Y019258D01*
X002977Y019159D02*
X002787Y019159D01*
X002787Y019061D02*
X002977Y019061D01*
X002977Y018962D02*
X002787Y018962D01*
X002787Y018864D02*
X002977Y018864D01*
X002977Y018765D02*
X002787Y018765D01*
X002787Y018667D02*
X002977Y018667D01*
X002977Y018568D02*
X002787Y018568D01*
X002787Y018470D02*
X002977Y018470D01*
X002977Y018371D02*
X002787Y018371D01*
X002787Y018273D02*
X002977Y018273D01*
X002977Y018174D02*
X002787Y018174D01*
X002787Y018076D02*
X003045Y018076D01*
X003301Y018273D02*
X003374Y018273D01*
X003297Y018371D02*
X005408Y018371D01*
X005408Y018273D02*
X004900Y018273D01*
X004989Y018174D02*
X005474Y018174D01*
X005637Y018335D02*
X009887Y018335D01*
X009724Y018174D02*
X005800Y018174D01*
X005447Y018470D02*
X003297Y018470D01*
X003297Y018568D02*
X003520Y018568D01*
X003355Y018667D02*
X003297Y018667D01*
X003754Y018568D02*
X004422Y018568D01*
X004298Y018667D02*
X003919Y018667D01*
X003996Y018765D02*
X004235Y018765D01*
X004200Y018864D02*
X004037Y018864D01*
X004044Y018962D02*
X004588Y018962D01*
X004588Y018864D02*
X004685Y018864D01*
X004685Y018765D02*
X004588Y018765D01*
X004588Y018667D02*
X004685Y018667D01*
X004685Y018568D02*
X004588Y018568D01*
X004374Y018273D02*
X003900Y018273D01*
X003989Y018174D02*
X004285Y018174D01*
X004244Y018076D02*
X004029Y018076D01*
X004003Y017780D02*
X004271Y017780D01*
X004340Y017682D02*
X003934Y017682D01*
X003790Y017583D02*
X004436Y017583D01*
X004389Y017288D02*
X003885Y017288D01*
X003982Y017189D02*
X004291Y017189D01*
X004251Y017091D02*
X004023Y017091D01*
X004044Y016992D02*
X004230Y016992D01*
X004230Y016894D02*
X004044Y016894D01*
X004009Y016795D02*
X004265Y016795D01*
X004325Y016697D02*
X003949Y016697D01*
X003826Y016598D02*
X004448Y016598D01*
X003685Y016401D02*
X003588Y016401D01*
X003565Y016401D02*
X002787Y016401D01*
X002787Y016303D02*
X003348Y016303D01*
X003262Y016204D02*
X002787Y016204D01*
X002787Y016106D02*
X003214Y016106D01*
X003588Y016106D02*
X003685Y016106D01*
X003685Y016204D02*
X003588Y016204D01*
X003588Y016303D02*
X003685Y016303D01*
X003837Y015318D02*
X004437Y015318D01*
X004320Y015219D02*
X003953Y015219D01*
X004011Y015121D02*
X004263Y015121D01*
X004230Y015022D02*
X004044Y015022D01*
X004044Y014924D02*
X004230Y014924D01*
X004252Y014825D02*
X004021Y014825D01*
X003979Y014727D02*
X004295Y014727D01*
X004393Y014628D02*
X003880Y014628D01*
X003801Y014333D02*
X004473Y014333D01*
X004335Y014234D02*
X003938Y014234D01*
X004004Y014136D02*
X004269Y014136D01*
X004230Y014037D02*
X004044Y014037D01*
X004044Y013939D02*
X004230Y013939D01*
X004246Y013840D02*
X004027Y013840D01*
X003987Y013742D02*
X004287Y013742D01*
X004378Y013643D02*
X003895Y013643D01*
X003861Y013348D02*
X004509Y013348D01*
X004350Y013249D02*
X003979Y013249D01*
X004041Y013151D02*
X004275Y013151D01*
X004235Y013052D02*
X004075Y013052D01*
X004137Y012960D02*
X004137Y010960D01*
X004637Y010960D01*
X004685Y010984D02*
X013039Y010984D01*
X012980Y011378D02*
X009696Y011378D01*
X009440Y011181D02*
X005026Y011181D01*
X005019Y011194D02*
X004978Y011251D01*
X004928Y011301D01*
X004871Y011342D01*
X004808Y011374D01*
X004741Y011396D01*
X004685Y011405D01*
X004685Y011009D01*
X004588Y011009D01*
X004588Y011405D01*
X004532Y011396D01*
X004465Y011374D01*
X004403Y011342D01*
X004346Y011301D01*
X004296Y011251D01*
X004255Y011194D01*
X004223Y011132D01*
X004201Y011065D01*
X004192Y011009D01*
X004588Y011009D01*
X004588Y010912D01*
X004192Y010912D01*
X004201Y010856D01*
X004223Y010789D01*
X004255Y010726D01*
X004296Y010669D01*
X004346Y010619D01*
X004403Y010578D01*
X004465Y010546D01*
X004532Y010524D01*
X004588Y010515D01*
X004588Y010912D01*
X004685Y010912D01*
X004685Y011009D01*
X005082Y011009D01*
X005073Y011065D01*
X005051Y011132D01*
X005019Y011194D01*
X004950Y011279D02*
X009342Y011279D01*
X009243Y011378D02*
X004798Y011378D01*
X004685Y011378D02*
X004588Y011378D01*
X004588Y011279D02*
X004685Y011279D01*
X004685Y011181D02*
X004588Y011181D01*
X004588Y011082D02*
X004685Y011082D01*
X004588Y010984D02*
X004044Y010984D01*
X004044Y010885D02*
X004196Y010885D01*
X004224Y010787D02*
X004005Y010787D01*
X003940Y010688D02*
X004282Y010688D01*
X004387Y010590D02*
X003806Y010590D01*
X003878Y010294D02*
X004395Y010294D01*
X004297Y010196D02*
X003977Y010196D01*
X004020Y010097D02*
X004253Y010097D01*
X004230Y009999D02*
X004044Y009999D01*
X004044Y009900D02*
X004230Y009900D01*
X004262Y009802D02*
X004012Y009802D01*
X003955Y009703D02*
X004318Y009703D01*
X004432Y009605D02*
X003842Y009605D01*
X003967Y009309D02*
X004416Y009309D01*
X004312Y009211D02*
X004048Y009211D01*
X004092Y009112D02*
X004259Y009112D01*
X004230Y009014D02*
X004114Y009014D01*
X003588Y008915D02*
X002787Y008915D01*
X002787Y008817D02*
X003179Y008817D01*
X003221Y008718D02*
X002787Y008718D01*
X002787Y008620D02*
X003298Y008620D01*
X003159Y009014D02*
X002787Y009014D01*
X002787Y009112D02*
X003181Y009112D01*
X003226Y009211D02*
X002787Y009211D01*
X002787Y009309D02*
X003307Y009309D01*
X004027Y011082D02*
X004207Y011082D01*
X004248Y011181D02*
X003986Y011181D01*
X003893Y011279D02*
X004324Y011279D01*
X004476Y011378D02*
X002787Y011378D01*
X002787Y011476D02*
X009145Y011476D01*
X009046Y011575D02*
X004769Y011575D01*
X004925Y011673D02*
X008948Y011673D01*
X008849Y011772D02*
X004999Y011772D01*
X005040Y011870D02*
X008751Y011870D01*
X008652Y011969D02*
X005044Y011969D01*
X005033Y012067D02*
X007907Y012067D01*
X007404Y012954D02*
X005044Y012954D01*
X005039Y013052D02*
X007503Y013052D01*
X007601Y013151D02*
X004998Y013151D01*
X004923Y013249D02*
X007700Y013249D01*
X007798Y013348D02*
X004764Y013348D01*
X004895Y013643D02*
X008443Y013643D01*
X008490Y013742D02*
X004987Y013742D01*
X005027Y013840D02*
X008588Y013840D01*
X008137Y013460D02*
X007137Y012460D01*
X007011Y012658D02*
X004910Y012658D01*
X004993Y012757D02*
X007207Y012757D01*
X007306Y012855D02*
X005034Y012855D01*
X004365Y012264D02*
X003908Y012264D01*
X003992Y012166D02*
X004282Y012166D01*
X004241Y012067D02*
X004033Y012067D01*
X004044Y011969D02*
X004230Y011969D01*
X004234Y011870D02*
X004040Y011870D01*
X003999Y011772D02*
X004275Y011772D01*
X004348Y011673D02*
X003925Y011673D01*
X003769Y011575D02*
X004504Y011575D01*
X004588Y010885D02*
X004685Y010885D01*
X004685Y010787D02*
X004588Y010787D01*
X004588Y010688D02*
X004685Y010688D01*
X004685Y010590D02*
X004588Y010590D01*
X005067Y011082D02*
X009539Y011082D01*
X010824Y012658D02*
X010904Y012658D01*
X010876Y012560D02*
X010865Y012560D01*
X010959Y012757D02*
X010769Y012757D01*
X010671Y012855D02*
X011046Y012855D01*
X012667Y010688D02*
X013606Y010688D01*
X013413Y010590D02*
X012860Y010590D01*
X012959Y010491D02*
X013315Y010491D01*
X013222Y010393D02*
X013052Y010393D01*
X013093Y010294D02*
X013181Y010294D01*
X013140Y010196D02*
X013133Y010196D01*
X013125Y009703D02*
X013149Y009703D01*
X013190Y009605D02*
X013084Y009605D01*
X013036Y009506D02*
X013238Y009506D01*
X013336Y009408D02*
X012937Y009408D01*
X012839Y009309D02*
X013435Y009309D01*
X013658Y009211D02*
X012615Y009211D01*
X014115Y009211D02*
X018158Y009211D01*
X017935Y009309D02*
X014339Y009309D01*
X014437Y009408D02*
X017836Y009408D01*
X017738Y009506D02*
X014536Y009506D01*
X014584Y009605D02*
X017690Y009605D01*
X017649Y009703D02*
X014625Y009703D01*
X014665Y009802D02*
X017608Y009802D01*
X017607Y009900D02*
X014667Y009900D01*
X014667Y009999D02*
X017607Y009999D01*
X017607Y010097D02*
X014667Y010097D01*
X014633Y010196D02*
X017640Y010196D01*
X017681Y010294D02*
X014593Y010294D01*
X014552Y010393D02*
X017722Y010393D01*
X017815Y010491D02*
X014459Y010491D01*
X014360Y010590D02*
X017913Y010590D01*
X018106Y010688D02*
X014167Y010688D01*
X014635Y013939D02*
X014788Y013939D01*
X014985Y014136D02*
X014438Y014136D01*
X014339Y014234D02*
X014887Y014234D01*
X014788Y014333D02*
X014241Y014333D01*
X014142Y014431D02*
X014690Y014431D01*
X014591Y014530D02*
X014044Y014530D01*
X013945Y014628D02*
X014493Y014628D01*
X014394Y014727D02*
X013847Y014727D01*
X013748Y014825D02*
X014198Y014825D01*
X014158Y014924D02*
X013650Y014924D01*
X013551Y015022D02*
X014158Y015022D01*
X014223Y015121D02*
X013453Y015121D01*
X012512Y016710D02*
X011637Y016710D01*
X010887Y017460D01*
X010887Y017960D01*
X012387Y017835D02*
X012512Y017710D01*
X012512Y020710D02*
X012512Y021960D01*
X012387Y022085D01*
X011762Y022085D01*
X012512Y021960D02*
X012512Y024710D01*
X012387Y024835D01*
X011762Y024835D01*
X009012Y024835D01*
X008887Y024960D01*
X004685Y019356D02*
X004588Y019356D01*
X004588Y019258D02*
X004685Y019258D01*
X004685Y019159D02*
X004588Y019159D01*
X004588Y019061D02*
X004685Y019061D01*
X004430Y019356D02*
X003744Y019356D01*
X003915Y019258D02*
X004302Y019258D01*
X004237Y019159D02*
X003995Y019159D01*
X004036Y019061D02*
X004200Y019061D01*
X003530Y019356D02*
X003297Y019356D01*
X003297Y019258D02*
X003359Y019258D01*
X003387Y017960D02*
X003637Y017960D01*
X004837Y015318D02*
X007319Y015318D01*
X007356Y015219D02*
X004953Y015219D01*
X005011Y015121D02*
X007437Y015121D01*
X003685Y013348D02*
X003588Y013348D01*
X003588Y013249D02*
X003685Y013249D01*
X003685Y013151D02*
X003588Y013151D01*
X003588Y013052D02*
X003685Y013052D01*
X003307Y012658D02*
X002787Y012658D01*
X002787Y012560D02*
X003439Y012560D01*
X003239Y012757D02*
X002787Y012757D01*
X002787Y012855D02*
X003201Y012855D01*
D19*
X019637Y015085D02*
X019637Y019960D01*
D20*
X015137Y016210D02*
X017137Y014210D01*
X017887Y013460D01*
X017387Y012460D02*
X016637Y011710D01*
X015387Y011710D01*
X015387Y012460D01*
X015387Y011710D02*
X014137Y011710D01*
X013887Y011710D01*
X012387Y011710D01*
X012137Y011710D01*
X011387Y011710D01*
X011387Y012460D01*
X011387Y011710D02*
X010137Y011710D01*
X009387Y012460D01*
X015137Y016210D02*
X015137Y020085D01*
D21*
X012512Y020710D02*
X012512Y018460D01*
X012512Y017710D01*
X012512Y016710D01*
X012512Y011835D01*
X012387Y011710D01*
M02*
