G75*
G70*
%OFA0B0*%
%FSLAX24Y24*%
%IPPOS*%
%LPD*%
%AMOC8*
5,1,8,0,0,1.08239X$1,22.5*
%
%ADD10C,0.1182*%
%ADD11R,0.0634X0.0634*%
%ADD12C,0.0700*%
%ADD13C,0.0634*%
%ADD14C,0.0780*%
%ADD15R,0.0780X0.0780*%
%ADD16C,0.1300*%
%ADD17R,0.0840X0.0300*%
%ADD18R,0.0280X0.0910*%
%ADD19R,0.0473X0.0788*%
%ADD20R,0.0473X0.0434*%
%ADD21R,0.4292X0.4138*%
%ADD22R,0.0460X0.0890*%
%ADD23R,0.1575X0.0670*%
%ADD24R,0.1536X0.0591*%
%ADD25R,0.2205X0.1615*%
%ADD26R,0.0827X0.0827*%
%ADD27R,0.0434X0.0473*%
D10*
X017519Y016059D03*
D11*
X004637Y006960D03*
D12*
X003637Y006960D03*
X003637Y008960D03*
D13*
X003637Y009960D03*
X003637Y010960D03*
X003637Y011960D03*
X003637Y012960D03*
X003637Y013960D03*
X003637Y014960D03*
X003637Y015960D03*
X003637Y016960D03*
X003637Y017960D03*
X003637Y018960D03*
X004637Y018960D03*
X004637Y017960D03*
X004637Y016960D03*
X004637Y015960D03*
X004637Y014960D03*
X004637Y013960D03*
X004637Y012960D03*
X004637Y011960D03*
X004637Y010960D03*
X004637Y009960D03*
X004637Y008960D03*
X004637Y007960D03*
X003637Y007960D03*
D14*
X007387Y015460D03*
X007387Y016460D03*
X008887Y013460D03*
X009387Y012460D03*
X009887Y013460D03*
X010387Y012460D03*
X010887Y013460D03*
X011387Y012460D03*
X011887Y013460D03*
X014887Y013460D03*
X015387Y012460D03*
X015887Y013460D03*
X016387Y012460D03*
X016887Y013460D03*
X017387Y012460D03*
X017887Y013460D03*
D15*
X014387Y012460D03*
X008387Y012460D03*
D16*
X007887Y009960D03*
X012387Y009960D03*
X013887Y009960D03*
X018387Y009960D03*
D17*
X010067Y019460D03*
X010067Y019960D03*
X010067Y020460D03*
X010067Y020960D03*
X010067Y021460D03*
X010067Y021960D03*
X010067Y022460D03*
X010067Y022960D03*
X010067Y023460D03*
X006207Y023460D03*
X006207Y022960D03*
X006207Y022460D03*
X006207Y021960D03*
X006207Y021460D03*
X006207Y020960D03*
X006207Y020460D03*
X006207Y019960D03*
X006207Y019460D03*
D18*
X009137Y016990D03*
X009637Y016990D03*
X010137Y016990D03*
X010637Y016990D03*
X010637Y014930D03*
X010137Y014930D03*
X009637Y014930D03*
X009137Y014930D03*
D19*
X010934Y021982D03*
X011840Y021982D03*
X011840Y023439D03*
X010934Y023439D03*
D20*
X011052Y024460D03*
X011721Y024460D03*
X011721Y020960D03*
X011052Y020960D03*
X008471Y024210D03*
X007802Y024210D03*
X007721Y014460D03*
X007052Y014460D03*
D21*
X014387Y017460D03*
D22*
X014387Y020740D03*
X015057Y020740D03*
X015727Y020740D03*
X013717Y020740D03*
X013047Y020740D03*
D23*
X013214Y023460D03*
X016560Y023460D03*
D24*
X018706Y023710D03*
X021068Y023710D03*
D25*
X019637Y021008D03*
X019637Y017662D03*
D26*
X020099Y015960D03*
X021674Y015960D03*
D27*
X011387Y015626D03*
X011387Y016295D03*
X008387Y016295D03*
X008387Y015626D03*
M02*
