G75*
G70*
%OFA0B0*%
%FSLAX24Y24*%
%IPPOS*%
%LPD*%
%AMOC8*
5,1,8,0,0,1.08239X$1,22.5*
%
%ADD10R,0.0800X0.0260*%
%ADD11R,0.0240X0.0870*%
%ADD12R,0.0433X0.0748*%
%ADD13R,0.0433X0.0394*%
%ADD14R,0.4252X0.4098*%
%ADD15R,0.0420X0.0850*%
%ADD16R,0.1535X0.0630*%
%ADD17R,0.1496X0.0551*%
%ADD18R,0.2165X0.1575*%
%ADD19R,0.0787X0.0787*%
%ADD20R,0.0394X0.0433*%
%ADD21R,0.0453X0.0394*%
D10*
X006207Y020210D03*
X006207Y020710D03*
X006207Y021210D03*
X006207Y021710D03*
X006207Y022210D03*
X006207Y022710D03*
X006207Y023210D03*
X006207Y023710D03*
X006207Y024210D03*
X010067Y024210D03*
X010067Y023710D03*
X010067Y023210D03*
X010067Y022710D03*
X010067Y022210D03*
X010067Y021710D03*
X010067Y021210D03*
X010067Y020710D03*
X010067Y020210D03*
D11*
X009887Y016990D03*
X010387Y016990D03*
X010887Y016990D03*
X010887Y014930D03*
X010387Y014930D03*
X009887Y014930D03*
X009387Y014930D03*
X009387Y016990D03*
D12*
X010934Y022732D03*
X011840Y022732D03*
X011840Y024189D03*
X010934Y024189D03*
D13*
X011052Y025210D03*
X011721Y025210D03*
X011721Y021710D03*
X011052Y021710D03*
X010471Y017960D03*
X009802Y017960D03*
X008471Y024960D03*
X007802Y024960D03*
D14*
X014387Y017460D03*
D15*
X014387Y020740D03*
X015057Y020740D03*
X015727Y020740D03*
X013717Y020740D03*
X013047Y020740D03*
D16*
X013214Y023460D03*
X016560Y023460D03*
D17*
X018706Y023710D03*
X021068Y023710D03*
D18*
X019637Y021008D03*
X019637Y017662D03*
D19*
X020099Y015960D03*
X021674Y015960D03*
D20*
X011637Y015626D03*
X011637Y016295D03*
X008637Y017876D03*
X008637Y018545D03*
X007637Y018545D03*
X007637Y017876D03*
X006637Y017876D03*
X006637Y018545D03*
D21*
X006525Y014976D03*
X006525Y015960D03*
X006525Y016944D03*
X008749Y016944D03*
X008749Y015960D03*
X008749Y014976D03*
M02*
