G75*
G70*
%OFA0B0*%
%FSLAX24Y24*%
%IPPOS*%
%LPD*%
%AMOC8*
5,1,8,0,0,1.08239X$1,22.5*
%
%ADD10C,0.0000*%
D10*
X002637Y005960D02*
X002637Y025645D01*
X022322Y025645D01*
X022322Y005960D01*
X002637Y005960D01*
X007257Y008085D02*
X007259Y008135D01*
X007265Y008185D01*
X007275Y008234D01*
X007289Y008282D01*
X007306Y008329D01*
X007327Y008374D01*
X007352Y008418D01*
X007380Y008459D01*
X007412Y008498D01*
X007446Y008535D01*
X007483Y008569D01*
X007523Y008599D01*
X007565Y008626D01*
X007609Y008650D01*
X007655Y008671D01*
X007702Y008687D01*
X007750Y008700D01*
X007800Y008709D01*
X007849Y008714D01*
X007900Y008715D01*
X007950Y008712D01*
X007999Y008705D01*
X008048Y008694D01*
X008096Y008679D01*
X008142Y008661D01*
X008187Y008639D01*
X008230Y008613D01*
X008271Y008584D01*
X008310Y008552D01*
X008346Y008517D01*
X008378Y008479D01*
X008408Y008439D01*
X008435Y008396D01*
X008458Y008352D01*
X008477Y008306D01*
X008493Y008258D01*
X008505Y008209D01*
X008513Y008160D01*
X008517Y008110D01*
X008517Y008060D01*
X008513Y008010D01*
X008505Y007961D01*
X008493Y007912D01*
X008477Y007864D01*
X008458Y007818D01*
X008435Y007774D01*
X008408Y007731D01*
X008378Y007691D01*
X008346Y007653D01*
X008310Y007618D01*
X008271Y007586D01*
X008230Y007557D01*
X008187Y007531D01*
X008142Y007509D01*
X008096Y007491D01*
X008048Y007476D01*
X007999Y007465D01*
X007950Y007458D01*
X007900Y007455D01*
X007849Y007456D01*
X007800Y007461D01*
X007750Y007470D01*
X007702Y007483D01*
X007655Y007499D01*
X007609Y007520D01*
X007565Y007544D01*
X007523Y007571D01*
X007483Y007601D01*
X007446Y007635D01*
X007412Y007672D01*
X007380Y007711D01*
X007352Y007752D01*
X007327Y007796D01*
X007306Y007841D01*
X007289Y007888D01*
X007275Y007936D01*
X007265Y007985D01*
X007259Y008035D01*
X007257Y008085D01*
X007470Y015370D02*
X007472Y015395D01*
X007478Y015420D01*
X007487Y015444D01*
X007500Y015466D01*
X007517Y015486D01*
X007536Y015503D01*
X007557Y015517D01*
X007581Y015527D01*
X007605Y015534D01*
X007631Y015537D01*
X007656Y015536D01*
X007681Y015531D01*
X007705Y015522D01*
X007728Y015510D01*
X007748Y015495D01*
X007766Y015476D01*
X007781Y015455D01*
X007792Y015432D01*
X007800Y015408D01*
X007804Y015383D01*
X007804Y015357D01*
X007800Y015332D01*
X007792Y015308D01*
X007781Y015285D01*
X007766Y015264D01*
X007748Y015245D01*
X007728Y015230D01*
X007705Y015218D01*
X007681Y015209D01*
X007656Y015204D01*
X007631Y015203D01*
X007605Y015206D01*
X007581Y015213D01*
X007557Y015223D01*
X007536Y015237D01*
X007517Y015254D01*
X007500Y015274D01*
X007487Y015296D01*
X007478Y015320D01*
X007472Y015345D01*
X007470Y015370D01*
X007470Y016551D02*
X007472Y016576D01*
X007478Y016601D01*
X007487Y016625D01*
X007500Y016647D01*
X007517Y016667D01*
X007536Y016684D01*
X007557Y016698D01*
X007581Y016708D01*
X007605Y016715D01*
X007631Y016718D01*
X007656Y016717D01*
X007681Y016712D01*
X007705Y016703D01*
X007728Y016691D01*
X007748Y016676D01*
X007766Y016657D01*
X007781Y016636D01*
X007792Y016613D01*
X007800Y016589D01*
X007804Y016564D01*
X007804Y016538D01*
X007800Y016513D01*
X007792Y016489D01*
X007781Y016466D01*
X007766Y016445D01*
X007748Y016426D01*
X007728Y016411D01*
X007705Y016399D01*
X007681Y016390D01*
X007656Y016385D01*
X007631Y016384D01*
X007605Y016387D01*
X007581Y016394D01*
X007557Y016404D01*
X007536Y016418D01*
X007517Y016435D01*
X007500Y016455D01*
X007487Y016477D01*
X007478Y016501D01*
X007472Y016526D01*
X007470Y016551D01*
X011757Y008085D02*
X011759Y008135D01*
X011765Y008185D01*
X011775Y008234D01*
X011789Y008282D01*
X011806Y008329D01*
X011827Y008374D01*
X011852Y008418D01*
X011880Y008459D01*
X011912Y008498D01*
X011946Y008535D01*
X011983Y008569D01*
X012023Y008599D01*
X012065Y008626D01*
X012109Y008650D01*
X012155Y008671D01*
X012202Y008687D01*
X012250Y008700D01*
X012300Y008709D01*
X012349Y008714D01*
X012400Y008715D01*
X012450Y008712D01*
X012499Y008705D01*
X012548Y008694D01*
X012596Y008679D01*
X012642Y008661D01*
X012687Y008639D01*
X012730Y008613D01*
X012771Y008584D01*
X012810Y008552D01*
X012846Y008517D01*
X012878Y008479D01*
X012908Y008439D01*
X012935Y008396D01*
X012958Y008352D01*
X012977Y008306D01*
X012993Y008258D01*
X013005Y008209D01*
X013013Y008160D01*
X013017Y008110D01*
X013017Y008060D01*
X013013Y008010D01*
X013005Y007961D01*
X012993Y007912D01*
X012977Y007864D01*
X012958Y007818D01*
X012935Y007774D01*
X012908Y007731D01*
X012878Y007691D01*
X012846Y007653D01*
X012810Y007618D01*
X012771Y007586D01*
X012730Y007557D01*
X012687Y007531D01*
X012642Y007509D01*
X012596Y007491D01*
X012548Y007476D01*
X012499Y007465D01*
X012450Y007458D01*
X012400Y007455D01*
X012349Y007456D01*
X012300Y007461D01*
X012250Y007470D01*
X012202Y007483D01*
X012155Y007499D01*
X012109Y007520D01*
X012065Y007544D01*
X012023Y007571D01*
X011983Y007601D01*
X011946Y007635D01*
X011912Y007672D01*
X011880Y007711D01*
X011852Y007752D01*
X011827Y007796D01*
X011806Y007841D01*
X011789Y007888D01*
X011775Y007936D01*
X011765Y007985D01*
X011759Y008035D01*
X011757Y008085D01*
X013257Y008085D02*
X013259Y008135D01*
X013265Y008185D01*
X013275Y008234D01*
X013289Y008282D01*
X013306Y008329D01*
X013327Y008374D01*
X013352Y008418D01*
X013380Y008459D01*
X013412Y008498D01*
X013446Y008535D01*
X013483Y008569D01*
X013523Y008599D01*
X013565Y008626D01*
X013609Y008650D01*
X013655Y008671D01*
X013702Y008687D01*
X013750Y008700D01*
X013800Y008709D01*
X013849Y008714D01*
X013900Y008715D01*
X013950Y008712D01*
X013999Y008705D01*
X014048Y008694D01*
X014096Y008679D01*
X014142Y008661D01*
X014187Y008639D01*
X014230Y008613D01*
X014271Y008584D01*
X014310Y008552D01*
X014346Y008517D01*
X014378Y008479D01*
X014408Y008439D01*
X014435Y008396D01*
X014458Y008352D01*
X014477Y008306D01*
X014493Y008258D01*
X014505Y008209D01*
X014513Y008160D01*
X014517Y008110D01*
X014517Y008060D01*
X014513Y008010D01*
X014505Y007961D01*
X014493Y007912D01*
X014477Y007864D01*
X014458Y007818D01*
X014435Y007774D01*
X014408Y007731D01*
X014378Y007691D01*
X014346Y007653D01*
X014310Y007618D01*
X014271Y007586D01*
X014230Y007557D01*
X014187Y007531D01*
X014142Y007509D01*
X014096Y007491D01*
X014048Y007476D01*
X013999Y007465D01*
X013950Y007458D01*
X013900Y007455D01*
X013849Y007456D01*
X013800Y007461D01*
X013750Y007470D01*
X013702Y007483D01*
X013655Y007499D01*
X013609Y007520D01*
X013565Y007544D01*
X013523Y007571D01*
X013483Y007601D01*
X013446Y007635D01*
X013412Y007672D01*
X013380Y007711D01*
X013352Y007752D01*
X013327Y007796D01*
X013306Y007841D01*
X013289Y007888D01*
X013275Y007936D01*
X013265Y007985D01*
X013259Y008035D01*
X013257Y008085D01*
X016948Y016059D02*
X016950Y016106D01*
X016956Y016153D01*
X016965Y016199D01*
X016979Y016244D01*
X016996Y016288D01*
X017017Y016331D01*
X017041Y016371D01*
X017068Y016410D01*
X017099Y016446D01*
X017132Y016479D01*
X017168Y016510D01*
X017207Y016537D01*
X017247Y016561D01*
X017290Y016582D01*
X017334Y016599D01*
X017379Y016613D01*
X017425Y016622D01*
X017472Y016628D01*
X017519Y016630D01*
X017566Y016628D01*
X017613Y016622D01*
X017659Y016613D01*
X017704Y016599D01*
X017748Y016582D01*
X017791Y016561D01*
X017831Y016537D01*
X017870Y016510D01*
X017906Y016479D01*
X017939Y016446D01*
X017970Y016410D01*
X017997Y016371D01*
X018021Y016331D01*
X018042Y016288D01*
X018059Y016244D01*
X018073Y016199D01*
X018082Y016153D01*
X018088Y016106D01*
X018090Y016059D01*
X018088Y016012D01*
X018082Y015965D01*
X018073Y015919D01*
X018059Y015874D01*
X018042Y015830D01*
X018021Y015787D01*
X017997Y015747D01*
X017970Y015708D01*
X017939Y015672D01*
X017906Y015639D01*
X017870Y015608D01*
X017831Y015581D01*
X017791Y015557D01*
X017748Y015536D01*
X017704Y015519D01*
X017659Y015505D01*
X017613Y015496D01*
X017566Y015490D01*
X017519Y015488D01*
X017472Y015490D01*
X017425Y015496D01*
X017379Y015505D01*
X017334Y015519D01*
X017290Y015536D01*
X017247Y015557D01*
X017207Y015581D01*
X017168Y015608D01*
X017132Y015639D01*
X017099Y015672D01*
X017068Y015708D01*
X017041Y015747D01*
X017017Y015787D01*
X016996Y015830D01*
X016979Y015874D01*
X016965Y015919D01*
X016956Y015965D01*
X016950Y016012D01*
X016948Y016059D01*
X017757Y008085D02*
X017759Y008135D01*
X017765Y008185D01*
X017775Y008234D01*
X017789Y008282D01*
X017806Y008329D01*
X017827Y008374D01*
X017852Y008418D01*
X017880Y008459D01*
X017912Y008498D01*
X017946Y008535D01*
X017983Y008569D01*
X018023Y008599D01*
X018065Y008626D01*
X018109Y008650D01*
X018155Y008671D01*
X018202Y008687D01*
X018250Y008700D01*
X018300Y008709D01*
X018349Y008714D01*
X018400Y008715D01*
X018450Y008712D01*
X018499Y008705D01*
X018548Y008694D01*
X018596Y008679D01*
X018642Y008661D01*
X018687Y008639D01*
X018730Y008613D01*
X018771Y008584D01*
X018810Y008552D01*
X018846Y008517D01*
X018878Y008479D01*
X018908Y008439D01*
X018935Y008396D01*
X018958Y008352D01*
X018977Y008306D01*
X018993Y008258D01*
X019005Y008209D01*
X019013Y008160D01*
X019017Y008110D01*
X019017Y008060D01*
X019013Y008010D01*
X019005Y007961D01*
X018993Y007912D01*
X018977Y007864D01*
X018958Y007818D01*
X018935Y007774D01*
X018908Y007731D01*
X018878Y007691D01*
X018846Y007653D01*
X018810Y007618D01*
X018771Y007586D01*
X018730Y007557D01*
X018687Y007531D01*
X018642Y007509D01*
X018596Y007491D01*
X018548Y007476D01*
X018499Y007465D01*
X018450Y007458D01*
X018400Y007455D01*
X018349Y007456D01*
X018300Y007461D01*
X018250Y007470D01*
X018202Y007483D01*
X018155Y007499D01*
X018109Y007520D01*
X018065Y007544D01*
X018023Y007571D01*
X017983Y007601D01*
X017946Y007635D01*
X017912Y007672D01*
X017880Y007711D01*
X017852Y007752D01*
X017827Y007796D01*
X017806Y007841D01*
X017789Y007888D01*
X017775Y007936D01*
X017765Y007985D01*
X017759Y008035D01*
X017757Y008085D01*
M02*
