G75*
G70*
%OFA0B0*%
%FSLAX24Y24*%
%IPPOS*%
%LPD*%
%AMOC8*
5,1,8,0,0,1.08239X$1,22.5*
%
%ADD10C,0.0060*%
%ADD11C,0.0050*%
%ADD12C,0.0080*%
%ADD13C,0.0020*%
%ADD14R,0.0050X0.0200*%
%ADD15C,0.0220*%
%ADD16R,0.0300X0.0180*%
%ADD17C,0.0000*%
%ADD18C,0.0030*%
D10*
X005137Y008460D02*
X005137Y012460D01*
X005341Y013090D02*
X005341Y013517D01*
X005341Y013303D02*
X005982Y013303D01*
X005875Y013734D02*
X005662Y013734D01*
X005555Y013841D01*
X005555Y014055D01*
X005662Y014161D01*
X005768Y014161D01*
X005768Y013734D01*
X005875Y013734D02*
X005982Y013841D01*
X005982Y014055D01*
X005982Y014379D02*
X005555Y014379D01*
X005768Y014379D02*
X005555Y014592D01*
X005555Y014699D01*
X005555Y014916D02*
X005555Y015023D01*
X005662Y015129D01*
X005555Y015236D01*
X005662Y015343D01*
X005982Y015343D01*
X005982Y015129D02*
X005662Y015129D01*
X005555Y014916D02*
X005982Y014916D01*
X005982Y015561D02*
X005982Y015774D01*
X005982Y015667D02*
X005555Y015667D01*
X005555Y015561D01*
X005341Y015667D02*
X005235Y015667D01*
X005555Y015990D02*
X005555Y016311D01*
X005662Y016417D01*
X005982Y016417D01*
X005875Y016635D02*
X005768Y016742D01*
X005768Y017062D01*
X005662Y017062D02*
X005982Y017062D01*
X005982Y016742D01*
X005875Y016635D01*
X005555Y016742D02*
X005555Y016955D01*
X005662Y017062D01*
X005555Y017279D02*
X005555Y017493D01*
X005448Y017386D02*
X005875Y017386D01*
X005982Y017493D01*
X005875Y017709D02*
X005982Y017816D01*
X005982Y018029D01*
X005875Y018136D01*
X005662Y018136D01*
X005555Y018029D01*
X005555Y017816D01*
X005662Y017709D01*
X005875Y017709D01*
X005768Y018354D02*
X005555Y018567D01*
X005555Y018674D01*
X005555Y018354D02*
X005982Y018354D01*
X006467Y019022D02*
X006467Y019192D01*
X006523Y019249D01*
X006637Y019249D01*
X006693Y019192D01*
X006693Y019022D01*
X006693Y019135D02*
X006807Y019249D01*
X006807Y019390D02*
X006807Y019617D01*
X006807Y019504D02*
X006467Y019504D01*
X006580Y019390D01*
X006467Y019022D02*
X006807Y019022D01*
X007467Y019035D02*
X007523Y018979D01*
X007750Y018979D01*
X007807Y019035D01*
X007807Y019149D01*
X007750Y019205D01*
X007750Y019347D02*
X007693Y019347D01*
X007637Y019404D01*
X007637Y019517D01*
X007693Y019574D01*
X007750Y019574D01*
X007807Y019517D01*
X007807Y019404D01*
X007750Y019347D01*
X007637Y019404D02*
X007580Y019347D01*
X007523Y019347D01*
X007467Y019404D01*
X007467Y019517D01*
X007523Y019574D01*
X007580Y019574D01*
X007637Y019517D01*
X007523Y019205D02*
X007467Y019149D01*
X007467Y019035D01*
X006817Y019910D02*
X009457Y019910D01*
X009480Y019912D01*
X009503Y019917D01*
X009525Y019926D01*
X009545Y019939D01*
X009563Y019954D01*
X009578Y019972D01*
X009591Y019992D01*
X009600Y020014D01*
X009605Y020037D01*
X009607Y020060D01*
X009607Y024360D01*
X009605Y024383D01*
X009600Y024406D01*
X009591Y024428D01*
X009578Y024448D01*
X009563Y024466D01*
X009545Y024481D01*
X009525Y024494D01*
X009503Y024503D01*
X009480Y024508D01*
X009457Y024510D01*
X006817Y024510D01*
X006794Y024508D01*
X006771Y024503D01*
X006749Y024494D01*
X006729Y024481D01*
X006711Y024466D01*
X006696Y024448D01*
X006683Y024428D01*
X006674Y024406D01*
X006669Y024383D01*
X006667Y024360D01*
X006667Y020060D01*
X006669Y020037D01*
X006674Y020014D01*
X006683Y019992D01*
X006696Y019972D01*
X006711Y019954D01*
X006729Y019939D01*
X006749Y019926D01*
X006771Y019917D01*
X006794Y019912D01*
X006817Y019910D01*
X007637Y019910D02*
X007639Y019954D01*
X007645Y019997D01*
X007654Y020039D01*
X007667Y020081D01*
X007684Y020121D01*
X007704Y020160D01*
X007727Y020197D01*
X007754Y020231D01*
X007783Y020264D01*
X007816Y020293D01*
X007850Y020320D01*
X007887Y020343D01*
X007926Y020363D01*
X007966Y020380D01*
X008008Y020393D01*
X008050Y020402D01*
X008093Y020408D01*
X008137Y020410D01*
X008181Y020408D01*
X008224Y020402D01*
X008266Y020393D01*
X008308Y020380D01*
X008348Y020363D01*
X008387Y020343D01*
X008424Y020320D01*
X008458Y020293D01*
X008491Y020264D01*
X008520Y020231D01*
X008547Y020197D01*
X008570Y020160D01*
X008590Y020121D01*
X008607Y020081D01*
X008620Y020039D01*
X008629Y019997D01*
X008635Y019954D01*
X008637Y019910D01*
X008580Y019574D02*
X008523Y019574D01*
X008467Y019517D01*
X008467Y019404D01*
X008523Y019347D01*
X008523Y019205D02*
X008637Y019205D01*
X008693Y019149D01*
X008693Y018979D01*
X008693Y019092D02*
X008807Y019205D01*
X008807Y019347D02*
X008580Y019574D01*
X008807Y019574D02*
X008807Y019347D01*
X008523Y019205D02*
X008467Y019149D01*
X008467Y018979D01*
X008807Y018979D01*
X010067Y018574D02*
X010067Y018347D01*
X010124Y018290D01*
X010237Y018290D01*
X010294Y018347D01*
X010435Y018347D02*
X010435Y018290D01*
X010435Y018347D02*
X010662Y018574D01*
X010662Y018631D01*
X010435Y018631D01*
X010294Y018574D02*
X010237Y018631D01*
X010124Y018631D01*
X010067Y018574D01*
X009207Y016670D02*
X009207Y015250D01*
X009676Y015465D02*
X009789Y015465D01*
X009732Y015465D02*
X009732Y015806D01*
X009676Y015806D02*
X009789Y015806D01*
X009921Y015749D02*
X009921Y015522D01*
X009978Y015465D01*
X010091Y015465D01*
X010148Y015522D01*
X010290Y015465D02*
X010516Y015692D01*
X010516Y015749D01*
X010460Y015806D01*
X010346Y015806D01*
X010290Y015749D01*
X010148Y015749D02*
X010091Y015806D01*
X009978Y015806D01*
X009921Y015749D01*
X010290Y015465D02*
X010516Y015465D01*
X011067Y015250D02*
X011067Y016670D01*
X011467Y015242D02*
X011523Y015129D01*
X011637Y015015D01*
X011637Y015185D01*
X011693Y015242D01*
X011750Y015242D01*
X011807Y015185D01*
X011807Y015072D01*
X011750Y015015D01*
X011637Y015015D01*
X011750Y014874D02*
X011807Y014817D01*
X011807Y014704D01*
X011750Y014647D01*
X011523Y014647D01*
X011467Y014704D01*
X011467Y014817D01*
X011523Y014874D01*
X012793Y014990D02*
X012964Y014990D01*
X013020Y015047D01*
X013020Y015274D01*
X012964Y015331D01*
X012793Y015331D01*
X012793Y014990D01*
X013162Y014990D02*
X013389Y014990D01*
X013275Y014990D02*
X013275Y015331D01*
X013162Y015217D01*
X013287Y015515D02*
X013487Y015515D01*
X013487Y016155D01*
X013287Y016155D01*
X013287Y015515D01*
X013487Y015255D02*
X015287Y015255D01*
X015287Y016415D01*
X013487Y016415D01*
X013487Y015255D01*
X013717Y015070D02*
X013717Y014350D01*
X015057Y014350D01*
X015057Y015070D01*
X013717Y015070D01*
X013717Y015060D02*
X013717Y014350D01*
X014017Y014350D01*
X014017Y015070D01*
X013717Y015060D01*
X014757Y015070D02*
X014757Y014350D01*
X015057Y014350D01*
X015057Y015070D01*
X014757Y015070D01*
X015007Y015255D02*
X015287Y015545D01*
X015287Y015515D02*
X015487Y015515D01*
X015487Y016155D01*
X015287Y016155D01*
X015287Y015515D01*
X015350Y014956D02*
X015293Y014899D01*
X015293Y014672D01*
X015350Y014615D01*
X015464Y014615D01*
X015520Y014672D01*
X015662Y014672D02*
X015719Y014615D01*
X015832Y014615D01*
X015889Y014672D01*
X015889Y014729D01*
X015832Y014785D01*
X015775Y014785D01*
X015832Y014785D02*
X015889Y014842D01*
X015889Y014899D01*
X015832Y014956D01*
X015719Y014956D01*
X015662Y014899D01*
X015520Y014899D02*
X015464Y014956D01*
X015350Y014956D01*
X015727Y015585D02*
X015727Y016085D01*
X016027Y015835D01*
X015727Y015885D01*
X015727Y015935D02*
X016027Y015835D01*
X015727Y015985D01*
X015727Y016035D02*
X016027Y015835D01*
X015727Y015785D01*
X015727Y015735D02*
X016027Y015835D01*
X015727Y015685D01*
X015727Y015635D02*
X016027Y015835D01*
X015727Y015585D01*
X015627Y015835D02*
X016127Y015835D01*
X016027Y015585D02*
X016027Y016085D01*
X015389Y017035D02*
X015162Y017035D01*
X015332Y017206D01*
X015332Y016865D01*
X015020Y016922D02*
X014964Y016865D01*
X014850Y016865D01*
X014793Y016922D01*
X014793Y017149D01*
X014850Y017206D01*
X014964Y017206D01*
X015020Y017149D01*
X014987Y017740D02*
X014797Y017740D01*
X014797Y018170D01*
X014977Y018170D01*
X014987Y017740D01*
X015117Y018170D02*
X015117Y019750D01*
X013157Y019750D01*
X013157Y018170D01*
X015117Y018170D01*
X015357Y018520D02*
X015917Y018520D01*
X015917Y019400D01*
X015357Y019400D01*
X015357Y018520D01*
X015927Y018520D01*
X015917Y018820D01*
X015357Y018820D01*
X015357Y018520D01*
X015357Y019100D02*
X015357Y019400D01*
X015917Y019400D01*
X015917Y019100D01*
X015357Y019100D01*
X015599Y019708D02*
X015825Y019708D01*
X015882Y019765D01*
X015882Y019879D01*
X015825Y019935D01*
X015769Y019935D01*
X015712Y019879D01*
X015712Y019708D01*
X015599Y019708D02*
X015542Y019765D01*
X015542Y019879D01*
X015599Y019935D01*
X015599Y020077D02*
X015542Y020133D01*
X015542Y020247D01*
X015599Y020304D01*
X015825Y020304D01*
X015882Y020247D01*
X015882Y020133D01*
X015825Y020077D01*
X016192Y019750D02*
X016192Y018170D01*
X016972Y017390D01*
X018552Y017390D01*
X019332Y018170D01*
X019332Y019750D01*
X018552Y020530D01*
X016972Y020530D01*
X016192Y019750D01*
X016422Y020870D02*
X019102Y020870D01*
X019102Y023550D01*
X016422Y023550D01*
X016422Y020870D01*
X017291Y022490D02*
X017404Y022490D01*
X017461Y022547D01*
X017603Y022490D02*
X017830Y022490D01*
X017716Y022490D02*
X017716Y022831D01*
X017603Y022717D01*
X017461Y022774D02*
X017404Y022831D01*
X017291Y022831D01*
X017234Y022774D01*
X017234Y022547D01*
X017291Y022490D01*
X017971Y022547D02*
X018198Y022774D01*
X018198Y022547D01*
X018141Y022490D01*
X018028Y022490D01*
X017971Y022547D01*
X017971Y022774D01*
X018028Y022831D01*
X018141Y022831D01*
X018198Y022774D01*
X018432Y023550D02*
X019102Y022880D01*
X019582Y022210D02*
X019882Y022210D01*
X019742Y022060D02*
X019742Y022360D01*
X019102Y021540D02*
X018432Y020870D01*
X017839Y019331D02*
X017839Y018990D01*
X017952Y018990D02*
X017725Y018990D01*
X017593Y018990D02*
X017480Y018990D01*
X017537Y018990D02*
X017537Y019331D01*
X017593Y019331D02*
X017480Y019331D01*
X017725Y019217D02*
X017839Y019331D01*
X015007Y016415D02*
X015287Y016125D01*
X014452Y016680D02*
X014452Y017240D01*
X013572Y017240D01*
X013572Y016680D01*
X014452Y016680D01*
X014452Y017240D01*
X014152Y017240D01*
X014152Y016680D01*
X014452Y016680D01*
X013872Y016680D02*
X013572Y016670D01*
X013572Y017240D01*
X013872Y017240D01*
X013872Y016680D01*
X013797Y017740D02*
X013987Y017740D01*
X013977Y018170D01*
X013797Y018170D01*
X013797Y017740D01*
X013487Y017740D02*
X013477Y018170D01*
X013297Y018170D01*
X013297Y017740D01*
X013487Y017740D01*
X012950Y018586D02*
X012894Y018586D01*
X012837Y018642D01*
X012780Y018586D01*
X012724Y018586D01*
X012667Y018642D01*
X012667Y018756D01*
X012724Y018812D01*
X012724Y018954D02*
X012667Y019011D01*
X012667Y019124D01*
X012724Y019181D01*
X012950Y019181D01*
X013007Y019124D01*
X013007Y019011D01*
X012950Y018954D01*
X012950Y018812D02*
X013007Y018756D01*
X013007Y018642D01*
X012950Y018586D01*
X012837Y018642D02*
X012837Y018699D01*
X013007Y019313D02*
X013007Y019426D01*
X013007Y019370D02*
X012667Y019370D01*
X012667Y019426D02*
X012667Y019313D01*
X013297Y019750D02*
X013287Y020180D01*
X013477Y020180D01*
X013477Y019750D01*
X013297Y019750D01*
X013797Y019750D02*
X013787Y020180D01*
X013977Y020180D01*
X013977Y019750D01*
X013797Y019750D01*
X014297Y019750D02*
X014287Y020180D01*
X014477Y020180D01*
X014477Y019750D01*
X014297Y019750D01*
X014797Y019750D02*
X014787Y020180D01*
X014977Y020180D01*
X014977Y019750D01*
X014797Y019750D01*
X014477Y018170D02*
X014297Y018170D01*
X014297Y017740D01*
X014487Y017740D01*
X014477Y018170D01*
X011669Y021040D02*
X011442Y021040D01*
X011669Y021267D01*
X011669Y021324D01*
X011612Y021381D01*
X011499Y021381D01*
X011442Y021324D01*
X011300Y021324D02*
X011244Y021381D01*
X011130Y021381D01*
X011073Y021324D01*
X011073Y021097D01*
X011130Y021040D01*
X011244Y021040D01*
X011300Y021097D01*
X011198Y023122D02*
X011312Y023235D01*
X011482Y023235D01*
X011312Y023235D02*
X011198Y023349D01*
X011142Y023349D01*
X011255Y023490D02*
X011142Y023604D01*
X011482Y023604D01*
X011482Y023717D02*
X011482Y023490D01*
X011198Y023122D02*
X011142Y023122D01*
X011130Y025540D02*
X011244Y025540D01*
X011300Y025597D01*
X011442Y025540D02*
X011669Y025540D01*
X011555Y025540D02*
X011555Y025881D01*
X011442Y025767D01*
X011300Y025824D02*
X011244Y025881D01*
X011130Y025881D01*
X011073Y025824D01*
X011073Y025597D01*
X011130Y025540D01*
X008419Y025460D02*
X008419Y025347D01*
X008362Y025290D01*
X008249Y025290D01*
X008192Y025347D01*
X008192Y025460D02*
X008305Y025517D01*
X008362Y025517D01*
X008419Y025460D01*
X008419Y025631D02*
X008192Y025631D01*
X008192Y025460D01*
X008050Y025347D02*
X007994Y025290D01*
X007880Y025290D01*
X007823Y025347D01*
X007823Y025574D01*
X007880Y025631D01*
X007994Y025631D01*
X008050Y025574D01*
X008041Y022156D02*
X007928Y022156D01*
X007871Y022099D01*
X007871Y021872D01*
X007928Y021815D01*
X008041Y021815D01*
X008098Y021872D01*
X008240Y021815D02*
X008466Y021815D01*
X008353Y021815D02*
X008353Y022156D01*
X008240Y022042D01*
X008098Y022099D02*
X008041Y022156D01*
X007739Y022156D02*
X007626Y022156D01*
X007682Y022156D02*
X007682Y021815D01*
X007626Y021815D02*
X007739Y021815D01*
X005982Y015990D02*
X005555Y015990D01*
X007298Y014974D02*
X007298Y014917D01*
X007355Y014860D01*
X007469Y014860D01*
X007525Y014804D01*
X007525Y014747D01*
X007469Y014690D01*
X007355Y014690D01*
X007298Y014747D01*
X007298Y014974D02*
X007355Y015031D01*
X007469Y015031D01*
X007525Y014974D01*
X007667Y014917D02*
X007780Y015031D01*
X007780Y014690D01*
X007667Y014690D02*
X007894Y014690D01*
X006397Y012645D02*
X006397Y011525D01*
X005877Y011525D01*
X005877Y012645D01*
X006397Y012645D01*
X006435Y011381D02*
X006265Y011210D01*
X006491Y011210D01*
X006435Y011040D02*
X006435Y011381D01*
X006123Y011324D02*
X006066Y011381D01*
X005953Y011381D01*
X005896Y011324D01*
X005896Y011097D01*
X005953Y011040D01*
X006066Y011040D01*
X006123Y011097D01*
X005764Y011040D02*
X005651Y011040D01*
X005707Y011040D02*
X005707Y011381D01*
X005651Y011381D02*
X005764Y011381D01*
D11*
X005119Y006409D02*
X003151Y006409D01*
X003151Y019480D01*
X005119Y019480D01*
X005119Y006409D01*
X005001Y006596D02*
X004273Y006596D01*
X004273Y007324D01*
X005001Y007324D02*
X005001Y006596D01*
X001931Y010048D02*
X001480Y010048D01*
X001480Y010273D01*
X001555Y010348D01*
X001706Y010348D01*
X001781Y010273D01*
X001781Y010048D01*
X001781Y010198D02*
X001931Y010348D01*
X001931Y010509D02*
X001480Y010509D01*
X001480Y010734D01*
X001555Y010809D01*
X001706Y010809D01*
X001781Y010734D01*
X001781Y010509D01*
X001931Y010969D02*
X001931Y011119D01*
X001931Y011044D02*
X001480Y011044D01*
X001480Y010969D02*
X001480Y011119D01*
X003359Y019450D02*
X003283Y019525D01*
X003283Y019675D01*
X003359Y019751D01*
X003434Y019751D01*
X003734Y019450D01*
X003734Y019751D01*
X003659Y019911D02*
X003734Y019986D01*
X003734Y020136D01*
X003659Y020211D01*
X003584Y020211D01*
X003509Y020136D01*
X003509Y019911D01*
X003659Y019911D01*
X003509Y019911D02*
X003359Y020061D01*
X003283Y020211D01*
X004465Y020211D02*
X004465Y019911D01*
X004690Y019911D01*
X004615Y020061D01*
X004615Y020136D01*
X004690Y020211D01*
X004840Y020211D01*
X004915Y020136D01*
X004915Y019986D01*
X004840Y019911D01*
X004915Y019751D02*
X004915Y019450D01*
X004615Y019751D01*
X004540Y019751D01*
X004465Y019675D01*
X004465Y019525D01*
X004540Y019450D01*
X004273Y007324D02*
X005001Y007324D01*
D12*
X007137Y006904D02*
X013137Y006904D01*
X013137Y012022D01*
X007137Y012022D01*
X007137Y006904D01*
X006948Y014543D02*
X006948Y017378D01*
X008326Y017378D01*
X008326Y014543D01*
X006948Y014543D01*
X010790Y016350D02*
X010792Y016365D01*
X010798Y016378D01*
X010807Y016390D01*
X010818Y016399D01*
X010832Y016405D01*
X010847Y016407D01*
X010862Y016405D01*
X010875Y016399D01*
X010887Y016390D01*
X010896Y016379D01*
X010902Y016365D01*
X010904Y016350D01*
X010902Y016335D01*
X010896Y016322D01*
X010887Y016310D01*
X010876Y016301D01*
X010862Y016295D01*
X010847Y016293D01*
X010832Y016295D01*
X010819Y016301D01*
X010807Y016310D01*
X010798Y016321D01*
X010792Y016335D01*
X010790Y016350D01*
X013137Y012022D02*
X013137Y006904D01*
X019137Y006904D01*
X019137Y012022D01*
X013137Y012022D01*
X011505Y022476D02*
X011269Y022476D01*
X010757Y023224D02*
X010757Y023696D01*
X011269Y024444D02*
X011505Y024444D01*
X012017Y023696D02*
X012017Y023224D01*
D13*
X009467Y024510D02*
X009467Y019910D01*
D14*
X009632Y020210D03*
X009632Y020710D03*
X009632Y021210D03*
X009632Y021710D03*
X009632Y022210D03*
X009632Y022710D03*
X009632Y023210D03*
X009632Y023710D03*
X009632Y024210D03*
X006642Y024210D03*
X006642Y023710D03*
X006642Y023210D03*
X006642Y022710D03*
X006642Y022210D03*
X006642Y021710D03*
X006642Y021210D03*
X006642Y020710D03*
X006642Y020210D03*
D15*
X007625Y018210D02*
X007649Y018210D01*
X010137Y017972D02*
X010137Y017948D01*
X011625Y015960D02*
X011649Y015960D01*
X011387Y021698D02*
X011387Y021722D01*
X011387Y025198D02*
X011387Y025222D01*
X008137Y024972D02*
X008137Y024948D01*
D16*
X008637Y018210D03*
X006637Y018210D03*
D17*
X015127Y018840D02*
X015106Y018841D01*
X015086Y018846D01*
X015066Y018854D01*
X015049Y018865D01*
X015033Y018879D01*
X015021Y018896D01*
X015011Y018914D01*
X015005Y018934D01*
X015002Y018955D01*
X015003Y018976D01*
X015008Y018996D01*
X015016Y019016D01*
X015027Y019033D01*
X015041Y019049D01*
X015058Y019061D01*
X015076Y019071D01*
X015096Y019077D01*
X015117Y019080D01*
D18*
X015140Y020002D02*
X015454Y020315D01*
X015454Y020158D02*
X015140Y020158D01*
X015140Y020315D02*
X015454Y020002D01*
X015297Y020002D02*
X015297Y020315D01*
M02*
