G75*
G70*
%OFA0B0*%
%FSLAX24Y24*%
%IPPOS*%
%LPD*%
%AMOC8*
5,1,8,0,0,1.08239X$1,22.5*
%
%ADD10C,0.0060*%
%ADD11C,0.0050*%
%ADD12C,0.0080*%
%ADD13C,0.0020*%
%ADD14R,0.0050X0.0200*%
%ADD15C,0.0220*%
%ADD16R,0.0380X0.0660*%
%ADD17C,0.0010*%
%ADD18R,0.0300X0.0180*%
D10*
X005137Y008460D02*
X005137Y012460D01*
X005341Y013090D02*
X005341Y013517D01*
X005341Y013303D02*
X005982Y013303D01*
X005875Y013734D02*
X005662Y013734D01*
X005555Y013841D01*
X005555Y014055D01*
X005662Y014161D01*
X005768Y014161D01*
X005768Y013734D01*
X005875Y013734D02*
X005982Y013841D01*
X005982Y014055D01*
X005982Y014379D02*
X005555Y014379D01*
X005768Y014379D02*
X005555Y014592D01*
X005555Y014699D01*
X005555Y014916D02*
X005555Y015023D01*
X005662Y015129D01*
X005555Y015236D01*
X005662Y015343D01*
X005982Y015343D01*
X005982Y015129D02*
X005662Y015129D01*
X005555Y014916D02*
X005982Y014916D01*
X005982Y015561D02*
X005982Y015774D01*
X005982Y015667D02*
X005555Y015667D01*
X005555Y015561D01*
X005341Y015667D02*
X005235Y015667D01*
X005555Y015990D02*
X005555Y016311D01*
X005662Y016417D01*
X005982Y016417D01*
X005875Y016635D02*
X005768Y016742D01*
X005768Y017062D01*
X005662Y017062D02*
X005982Y017062D01*
X005982Y016742D01*
X005875Y016635D01*
X005555Y016742D02*
X005555Y016955D01*
X005662Y017062D01*
X005555Y017279D02*
X005555Y017493D01*
X005448Y017386D02*
X005875Y017386D01*
X005982Y017493D01*
X005875Y017709D02*
X005982Y017816D01*
X005982Y018029D01*
X005875Y018136D01*
X005662Y018136D01*
X005555Y018029D01*
X005555Y017816D01*
X005662Y017709D01*
X005875Y017709D01*
X005768Y018354D02*
X005555Y018567D01*
X005555Y018674D01*
X005555Y018354D02*
X005982Y018354D01*
X006467Y019022D02*
X006467Y019192D01*
X006523Y019249D01*
X006637Y019249D01*
X006693Y019192D01*
X006693Y019022D01*
X006693Y019135D02*
X006807Y019249D01*
X006807Y019390D02*
X006807Y019617D01*
X006807Y019504D02*
X006467Y019504D01*
X006580Y019390D01*
X006467Y019022D02*
X006807Y019022D01*
X007467Y019035D02*
X007523Y018979D01*
X007750Y018979D01*
X007807Y019035D01*
X007807Y019149D01*
X007750Y019205D01*
X007750Y019347D02*
X007693Y019347D01*
X007637Y019404D01*
X007637Y019517D01*
X007693Y019574D01*
X007750Y019574D01*
X007807Y019517D01*
X007807Y019404D01*
X007750Y019347D01*
X007637Y019404D02*
X007580Y019347D01*
X007523Y019347D01*
X007467Y019404D01*
X007467Y019517D01*
X007523Y019574D01*
X007580Y019574D01*
X007637Y019517D01*
X007523Y019205D02*
X007467Y019149D01*
X007467Y019035D01*
X006817Y019910D02*
X009457Y019910D01*
X009480Y019912D01*
X009503Y019917D01*
X009525Y019926D01*
X009545Y019939D01*
X009563Y019954D01*
X009578Y019972D01*
X009591Y019992D01*
X009600Y020014D01*
X009605Y020037D01*
X009607Y020060D01*
X009607Y024360D01*
X009605Y024383D01*
X009600Y024406D01*
X009591Y024428D01*
X009578Y024448D01*
X009563Y024466D01*
X009545Y024481D01*
X009525Y024494D01*
X009503Y024503D01*
X009480Y024508D01*
X009457Y024510D01*
X006817Y024510D01*
X006794Y024508D01*
X006771Y024503D01*
X006749Y024494D01*
X006729Y024481D01*
X006711Y024466D01*
X006696Y024448D01*
X006683Y024428D01*
X006674Y024406D01*
X006669Y024383D01*
X006667Y024360D01*
X006667Y020060D01*
X006669Y020037D01*
X006674Y020014D01*
X006683Y019992D01*
X006696Y019972D01*
X006711Y019954D01*
X006729Y019939D01*
X006749Y019926D01*
X006771Y019917D01*
X006794Y019912D01*
X006817Y019910D01*
X007637Y019910D02*
X007639Y019954D01*
X007645Y019997D01*
X007654Y020039D01*
X007667Y020081D01*
X007684Y020121D01*
X007704Y020160D01*
X007727Y020197D01*
X007754Y020231D01*
X007783Y020264D01*
X007816Y020293D01*
X007850Y020320D01*
X007887Y020343D01*
X007926Y020363D01*
X007966Y020380D01*
X008008Y020393D01*
X008050Y020402D01*
X008093Y020408D01*
X008137Y020410D01*
X008181Y020408D01*
X008224Y020402D01*
X008266Y020393D01*
X008308Y020380D01*
X008348Y020363D01*
X008387Y020343D01*
X008424Y020320D01*
X008458Y020293D01*
X008491Y020264D01*
X008520Y020231D01*
X008547Y020197D01*
X008570Y020160D01*
X008590Y020121D01*
X008607Y020081D01*
X008620Y020039D01*
X008629Y019997D01*
X008635Y019954D01*
X008637Y019910D01*
X008580Y019574D02*
X008523Y019574D01*
X008467Y019517D01*
X008467Y019404D01*
X008523Y019347D01*
X008523Y019205D02*
X008637Y019205D01*
X008693Y019149D01*
X008693Y018979D01*
X008693Y019092D02*
X008807Y019205D01*
X008807Y019347D02*
X008580Y019574D01*
X008807Y019574D02*
X008807Y019347D01*
X008523Y019205D02*
X008467Y019149D01*
X008467Y018979D01*
X008807Y018979D01*
X010067Y018574D02*
X010067Y018347D01*
X010124Y018290D01*
X010237Y018290D01*
X010294Y018347D01*
X010435Y018347D02*
X010435Y018290D01*
X010435Y018347D02*
X010662Y018574D01*
X010662Y018631D01*
X010435Y018631D01*
X010294Y018574D02*
X010237Y018631D01*
X010124Y018631D01*
X010067Y018574D01*
X009207Y016670D02*
X009207Y015250D01*
X009676Y015465D02*
X009789Y015465D01*
X009732Y015465D02*
X009732Y015806D01*
X009676Y015806D02*
X009789Y015806D01*
X009921Y015749D02*
X009921Y015522D01*
X009978Y015465D01*
X010091Y015465D01*
X010148Y015522D01*
X010290Y015465D02*
X010516Y015692D01*
X010516Y015749D01*
X010460Y015806D01*
X010346Y015806D01*
X010290Y015749D01*
X010148Y015749D02*
X010091Y015806D01*
X009978Y015806D01*
X009921Y015749D01*
X010290Y015465D02*
X010516Y015465D01*
X011067Y015250D02*
X011067Y016670D01*
X011467Y015242D02*
X011523Y015129D01*
X011637Y015015D01*
X011637Y015185D01*
X011693Y015242D01*
X011750Y015242D01*
X011807Y015185D01*
X011807Y015072D01*
X011750Y015015D01*
X011637Y015015D01*
X011750Y014874D02*
X011807Y014817D01*
X011807Y014704D01*
X011750Y014647D01*
X011523Y014647D01*
X011467Y014704D01*
X011467Y014817D01*
X011523Y014874D01*
X007894Y014690D02*
X007667Y014690D01*
X007780Y014690D02*
X007780Y015031D01*
X007667Y014917D01*
X007525Y014974D02*
X007469Y015031D01*
X007355Y015031D01*
X007298Y014974D01*
X007298Y014917D01*
X007355Y014860D01*
X007469Y014860D01*
X007525Y014804D01*
X007525Y014747D01*
X007469Y014690D01*
X007355Y014690D01*
X007298Y014747D01*
X005982Y015990D02*
X005555Y015990D01*
X005877Y012645D02*
X005877Y011525D01*
X006397Y011525D01*
X006397Y012645D01*
X005877Y012645D01*
X005953Y011381D02*
X005896Y011324D01*
X005896Y011097D01*
X005953Y011040D01*
X006066Y011040D01*
X006123Y011097D01*
X006265Y011210D02*
X006491Y011210D01*
X006435Y011040D02*
X006435Y011381D01*
X006265Y011210D01*
X006123Y011324D02*
X006066Y011381D01*
X005953Y011381D01*
X005764Y011381D02*
X005651Y011381D01*
X005707Y011381D02*
X005707Y011040D01*
X005651Y011040D02*
X005764Y011040D01*
X011130Y021040D02*
X011073Y021097D01*
X011073Y021324D01*
X011130Y021381D01*
X011244Y021381D01*
X011300Y021324D01*
X011442Y021324D02*
X011499Y021381D01*
X011612Y021381D01*
X011669Y021324D01*
X011669Y021267D01*
X011442Y021040D01*
X011669Y021040D01*
X011300Y021097D02*
X011244Y021040D01*
X011130Y021040D01*
X011142Y023122D02*
X011198Y023122D01*
X011312Y023235D01*
X011482Y023235D01*
X011312Y023235D02*
X011198Y023349D01*
X011142Y023349D01*
X011255Y023490D02*
X011142Y023604D01*
X011482Y023604D01*
X011482Y023717D02*
X011482Y023490D01*
X011442Y025540D02*
X011669Y025540D01*
X011555Y025540D02*
X011555Y025881D01*
X011442Y025767D01*
X011300Y025824D02*
X011244Y025881D01*
X011130Y025881D01*
X011073Y025824D01*
X011073Y025597D01*
X011130Y025540D01*
X011244Y025540D01*
X011300Y025597D01*
X008419Y025631D02*
X008192Y025631D01*
X008192Y025460D01*
X008305Y025517D01*
X008362Y025517D01*
X008419Y025460D01*
X008419Y025347D01*
X008362Y025290D01*
X008249Y025290D01*
X008192Y025347D01*
X008050Y025347D02*
X007994Y025290D01*
X007880Y025290D01*
X007823Y025347D01*
X007823Y025574D01*
X007880Y025631D01*
X007994Y025631D01*
X008050Y025574D01*
X008041Y022156D02*
X007928Y022156D01*
X007871Y022099D01*
X007871Y021872D01*
X007928Y021815D01*
X008041Y021815D01*
X008098Y021872D01*
X008240Y021815D02*
X008466Y021815D01*
X008353Y021815D02*
X008353Y022156D01*
X008240Y022042D01*
X008098Y022099D02*
X008041Y022156D01*
X007739Y022156D02*
X007626Y022156D01*
X007682Y022156D02*
X007682Y021815D01*
X007626Y021815D02*
X007739Y021815D01*
X014548Y023547D02*
X014605Y023490D01*
X014719Y023490D01*
X014775Y023547D01*
X014917Y023547D02*
X014974Y023490D01*
X015087Y023490D01*
X015144Y023547D01*
X015144Y023604D01*
X015087Y023660D01*
X015030Y023660D01*
X015087Y023660D02*
X015144Y023717D01*
X015144Y023774D01*
X015087Y023831D01*
X014974Y023831D01*
X014917Y023774D01*
X014775Y023774D02*
X014719Y023831D01*
X014605Y023831D01*
X014548Y023774D01*
X014548Y023547D01*
X016101Y020656D02*
X016214Y020656D01*
X016157Y020656D02*
X016157Y020315D01*
X016101Y020315D02*
X016214Y020315D01*
X016346Y020372D02*
X016403Y020315D01*
X016516Y020315D01*
X016573Y020372D01*
X016715Y020372D02*
X016771Y020315D01*
X016885Y020315D01*
X016941Y020372D01*
X016941Y020429D01*
X016885Y020485D01*
X016828Y020485D01*
X016885Y020485D02*
X016941Y020542D01*
X016941Y020599D01*
X016885Y020656D01*
X016771Y020656D01*
X016715Y020599D01*
X016573Y020599D02*
X016516Y020656D01*
X016403Y020656D01*
X016346Y020599D01*
X016346Y020372D01*
X019298Y019306D02*
X019298Y018965D01*
X019525Y018965D01*
X019667Y018965D02*
X019894Y018965D01*
X019780Y018965D02*
X019780Y019306D01*
X019667Y019192D01*
X021157Y016242D02*
X021157Y016015D01*
X021157Y016129D02*
X020817Y016129D01*
X020930Y016015D01*
X020873Y015874D02*
X021100Y015874D01*
X021157Y015817D01*
X021157Y015647D01*
X020817Y015647D01*
X020817Y015817D01*
X020873Y015874D01*
X020087Y023465D02*
X020087Y023806D01*
X019917Y023635D01*
X020144Y023635D01*
X019775Y023522D02*
X019719Y023465D01*
X019605Y023465D01*
X019548Y023522D01*
X019548Y023749D01*
X019605Y023806D01*
X019719Y023806D01*
X019775Y023749D01*
D11*
X005119Y006409D02*
X003151Y006409D01*
X003151Y019480D01*
X005119Y019480D01*
X005119Y006409D01*
X005001Y006596D02*
X004273Y006596D01*
X004273Y007324D01*
X005001Y007324D02*
X005001Y006596D01*
X001931Y010048D02*
X001480Y010048D01*
X001480Y010273D01*
X001555Y010348D01*
X001706Y010348D01*
X001781Y010273D01*
X001781Y010048D01*
X001781Y010198D02*
X001931Y010348D01*
X001931Y010509D02*
X001480Y010509D01*
X001480Y010734D01*
X001555Y010809D01*
X001706Y010809D01*
X001781Y010734D01*
X001781Y010509D01*
X001931Y010969D02*
X001931Y011119D01*
X001931Y011044D02*
X001480Y011044D01*
X001480Y010969D02*
X001480Y011119D01*
X003359Y019450D02*
X003283Y019525D01*
X003283Y019675D01*
X003359Y019751D01*
X003434Y019751D01*
X003734Y019450D01*
X003734Y019751D01*
X003659Y019911D02*
X003734Y019986D01*
X003734Y020136D01*
X003659Y020211D01*
X003584Y020211D01*
X003509Y020136D01*
X003509Y019911D01*
X003659Y019911D01*
X003509Y019911D02*
X003359Y020061D01*
X003283Y020211D01*
X004465Y020211D02*
X004465Y019911D01*
X004690Y019911D01*
X004615Y020061D01*
X004615Y020136D01*
X004690Y020211D01*
X004840Y020211D01*
X004915Y020136D01*
X004915Y019986D01*
X004840Y019911D01*
X004915Y019751D02*
X004915Y019450D01*
X004615Y019751D01*
X004540Y019751D01*
X004465Y019675D01*
X004465Y019525D01*
X004540Y019450D01*
X004273Y007324D02*
X005001Y007324D01*
X017196Y016894D02*
X017196Y021776D01*
X022078Y021776D01*
X022078Y016894D01*
X017196Y016894D01*
D12*
X016392Y019594D02*
X012381Y019594D01*
X012879Y021452D02*
X012879Y023067D01*
X012879Y023854D02*
X012879Y025468D01*
X015989Y025468D01*
X016895Y024563D01*
X016895Y023854D01*
X016895Y023067D02*
X016895Y022358D01*
X015989Y021452D01*
X012879Y021452D01*
X012017Y023224D02*
X012017Y023696D01*
X011505Y024444D02*
X011269Y024444D01*
X010757Y023696D02*
X010757Y023224D01*
X011269Y022476D02*
X011505Y022476D01*
X008326Y017378D02*
X006948Y017378D01*
X006948Y014543D01*
X008326Y014543D01*
X008326Y017378D01*
X007137Y013897D02*
X007137Y008779D01*
X013137Y008779D01*
X013137Y013897D01*
X007137Y013897D01*
X010790Y016350D02*
X010792Y016365D01*
X010798Y016378D01*
X010807Y016390D01*
X010818Y016399D01*
X010832Y016405D01*
X010847Y016407D01*
X010862Y016405D01*
X010875Y016399D01*
X010887Y016390D01*
X010896Y016379D01*
X010902Y016365D01*
X010904Y016350D01*
X010902Y016335D01*
X010896Y016322D01*
X010887Y016310D01*
X010876Y016301D01*
X010862Y016295D01*
X010847Y016293D01*
X010832Y016295D01*
X010819Y016301D01*
X010807Y016310D01*
X010798Y016321D01*
X010792Y016335D01*
X010790Y016350D01*
X013137Y013897D02*
X013137Y008779D01*
X019137Y008779D01*
X019137Y013897D01*
X013137Y013897D01*
X019178Y022096D02*
X018273Y023002D01*
X018273Y023356D01*
X018273Y024065D02*
X018273Y024419D01*
X019178Y025324D01*
X021501Y025324D01*
X021501Y024065D01*
X021501Y023356D02*
X021501Y022096D01*
X019178Y022096D01*
X019981Y016531D02*
X021792Y016531D01*
X021792Y016472D01*
X021792Y015448D02*
X021792Y015389D01*
X019981Y015389D01*
X019981Y015448D01*
X020651Y015567D02*
X020651Y016354D01*
X019981Y016472D02*
X019981Y016531D01*
D13*
X009467Y019910D02*
X009467Y024510D01*
D14*
X009632Y024210D03*
X009632Y023710D03*
X009632Y023210D03*
X009632Y022710D03*
X009632Y022210D03*
X009632Y021710D03*
X009632Y021210D03*
X009632Y020710D03*
X009632Y020210D03*
X006642Y020210D03*
X006642Y020710D03*
X006642Y021210D03*
X006642Y021710D03*
X006642Y022210D03*
X006642Y022710D03*
X006642Y023210D03*
X006642Y023710D03*
X006642Y024210D03*
D15*
X008137Y024948D02*
X008137Y024972D01*
X011387Y025198D02*
X011387Y025222D01*
X011387Y021722D02*
X011387Y021698D01*
X010137Y017972D02*
X010137Y017948D01*
X011625Y015960D02*
X011649Y015960D01*
X007649Y018210D02*
X007625Y018210D01*
D16*
X013047Y019890D03*
X013717Y019890D03*
X014387Y019890D03*
X015057Y019890D03*
X015727Y019890D03*
D17*
X016830Y023865D02*
X016761Y023851D01*
X016762Y023852D02*
X016740Y023942D01*
X016715Y024032D01*
X016684Y024121D01*
X016650Y024207D01*
X016612Y024292D01*
X016569Y024375D01*
X016522Y024456D01*
X016472Y024535D01*
X016418Y024611D01*
X016360Y024684D01*
X016298Y024754D01*
X016234Y024822D01*
X016166Y024886D01*
X016095Y024946D01*
X016021Y025003D01*
X015944Y025057D01*
X015865Y025106D01*
X015784Y025152D01*
X015700Y025194D01*
X015615Y025231D01*
X015528Y025265D01*
X015439Y025294D01*
X015349Y025318D01*
X015258Y025339D01*
X015166Y025355D01*
X015073Y025366D01*
X014980Y025373D01*
X014887Y025375D01*
X014794Y025373D01*
X014701Y025366D01*
X014608Y025355D01*
X014516Y025339D01*
X014425Y025318D01*
X014335Y025294D01*
X014246Y025265D01*
X014159Y025231D01*
X014074Y025194D01*
X013990Y025152D01*
X013909Y025106D01*
X013830Y025057D01*
X013753Y025003D01*
X013679Y024946D01*
X013608Y024886D01*
X013540Y024822D01*
X013476Y024754D01*
X013414Y024684D01*
X013356Y024611D01*
X013302Y024535D01*
X013252Y024456D01*
X013205Y024375D01*
X013162Y024292D01*
X013124Y024207D01*
X013090Y024121D01*
X013059Y024032D01*
X013034Y023942D01*
X013012Y023852D01*
X012944Y023865D01*
X012944Y023866D01*
X012966Y023960D01*
X012993Y024053D01*
X013024Y024145D01*
X013059Y024235D01*
X013099Y024323D01*
X013143Y024409D01*
X013192Y024493D01*
X013244Y024574D01*
X013300Y024653D01*
X013360Y024729D01*
X013424Y024802D01*
X013491Y024871D01*
X013561Y024938D01*
X013635Y025000D01*
X013712Y025060D01*
X013791Y025115D01*
X013873Y025166D01*
X013957Y025214D01*
X014044Y025257D01*
X014132Y025296D01*
X014223Y025331D01*
X014315Y025361D01*
X014408Y025386D01*
X014502Y025407D01*
X014598Y025424D01*
X014694Y025436D01*
X014790Y025443D01*
X014887Y025445D01*
X014984Y025443D01*
X015080Y025436D01*
X015176Y025424D01*
X015272Y025407D01*
X015366Y025386D01*
X015459Y025361D01*
X015551Y025331D01*
X015642Y025296D01*
X015730Y025257D01*
X015817Y025214D01*
X015901Y025166D01*
X015983Y025115D01*
X016062Y025060D01*
X016139Y025000D01*
X016213Y024938D01*
X016283Y024871D01*
X016350Y024802D01*
X016414Y024729D01*
X016474Y024653D01*
X016530Y024574D01*
X016582Y024493D01*
X016631Y024409D01*
X016675Y024323D01*
X016715Y024235D01*
X016750Y024145D01*
X016781Y024053D01*
X016808Y023960D01*
X016830Y023866D01*
X016821Y023864D01*
X016799Y023958D01*
X016773Y024050D01*
X016742Y024141D01*
X016706Y024231D01*
X016667Y024319D01*
X016623Y024404D01*
X016575Y024488D01*
X016522Y024569D01*
X016467Y024647D01*
X016407Y024723D01*
X016343Y024795D01*
X016277Y024865D01*
X016207Y024931D01*
X016133Y024993D01*
X016057Y025052D01*
X015978Y025107D01*
X015897Y025159D01*
X015813Y025206D01*
X015726Y025249D01*
X015638Y025288D01*
X015548Y025322D01*
X015457Y025352D01*
X015364Y025378D01*
X015270Y025399D01*
X015175Y025415D01*
X015079Y025427D01*
X014983Y025434D01*
X014887Y025436D01*
X014791Y025434D01*
X014695Y025427D01*
X014599Y025415D01*
X014504Y025399D01*
X014410Y025378D01*
X014317Y025352D01*
X014226Y025322D01*
X014136Y025288D01*
X014048Y025249D01*
X013961Y025206D01*
X013877Y025159D01*
X013796Y025107D01*
X013717Y025052D01*
X013641Y024993D01*
X013567Y024931D01*
X013497Y024865D01*
X013431Y024795D01*
X013367Y024723D01*
X013307Y024647D01*
X013252Y024569D01*
X013199Y024488D01*
X013151Y024404D01*
X013107Y024319D01*
X013068Y024231D01*
X013032Y024141D01*
X013001Y024050D01*
X012975Y023958D01*
X012953Y023864D01*
X012962Y023862D01*
X012983Y023955D01*
X013010Y024048D01*
X013041Y024138D01*
X013076Y024228D01*
X013115Y024315D01*
X013159Y024400D01*
X013207Y024483D01*
X013259Y024564D01*
X013315Y024642D01*
X013374Y024717D01*
X013437Y024789D01*
X013504Y024858D01*
X013574Y024924D01*
X013646Y024986D01*
X013722Y025045D01*
X013801Y025100D01*
X013882Y025151D01*
X013966Y025198D01*
X014051Y025241D01*
X014139Y025279D01*
X014229Y025314D01*
X014320Y025343D01*
X014412Y025369D01*
X014506Y025390D01*
X014600Y025406D01*
X014696Y025418D01*
X014791Y025425D01*
X014887Y025427D01*
X014983Y025425D01*
X015078Y025418D01*
X015174Y025406D01*
X015268Y025390D01*
X015362Y025369D01*
X015454Y025343D01*
X015545Y025314D01*
X015635Y025279D01*
X015723Y025241D01*
X015808Y025198D01*
X015892Y025151D01*
X015973Y025100D01*
X016052Y025045D01*
X016128Y024986D01*
X016200Y024924D01*
X016270Y024858D01*
X016337Y024789D01*
X016400Y024717D01*
X016459Y024642D01*
X016515Y024564D01*
X016567Y024483D01*
X016615Y024400D01*
X016659Y024315D01*
X016698Y024228D01*
X016733Y024138D01*
X016764Y024048D01*
X016791Y023955D01*
X016812Y023862D01*
X016804Y023860D01*
X016782Y023953D01*
X016756Y024045D01*
X016725Y024135D01*
X016690Y024224D01*
X016650Y024311D01*
X016607Y024396D01*
X016559Y024479D01*
X016508Y024559D01*
X016452Y024637D01*
X016393Y024711D01*
X016330Y024783D01*
X016264Y024852D01*
X016194Y024917D01*
X016122Y024979D01*
X016046Y025038D01*
X015968Y025092D01*
X015887Y025143D01*
X015804Y025190D01*
X015719Y025233D01*
X015631Y025271D01*
X015542Y025305D01*
X015452Y025335D01*
X015360Y025360D01*
X015266Y025381D01*
X015172Y025397D01*
X015078Y025409D01*
X014982Y025416D01*
X014887Y025418D01*
X014792Y025416D01*
X014696Y025409D01*
X014602Y025397D01*
X014508Y025381D01*
X014414Y025360D01*
X014322Y025335D01*
X014232Y025305D01*
X014143Y025271D01*
X014055Y025233D01*
X013970Y025190D01*
X013887Y025143D01*
X013806Y025092D01*
X013728Y025038D01*
X013652Y024979D01*
X013580Y024917D01*
X013510Y024852D01*
X013444Y024783D01*
X013381Y024711D01*
X013322Y024637D01*
X013266Y024559D01*
X013215Y024479D01*
X013167Y024396D01*
X013124Y024311D01*
X013084Y024224D01*
X013049Y024135D01*
X013018Y024045D01*
X012992Y023953D01*
X012970Y023860D01*
X012979Y023858D01*
X013001Y023951D01*
X013027Y024042D01*
X013058Y024132D01*
X013093Y024221D01*
X013132Y024307D01*
X013175Y024392D01*
X013223Y024474D01*
X013274Y024554D01*
X013329Y024631D01*
X013388Y024706D01*
X013451Y024777D01*
X013516Y024846D01*
X013586Y024911D01*
X013658Y024972D01*
X013733Y025031D01*
X013811Y025085D01*
X013891Y025135D01*
X013974Y025182D01*
X014059Y025224D01*
X014146Y025263D01*
X014235Y025297D01*
X014325Y025326D01*
X014417Y025351D01*
X014509Y025372D01*
X014603Y025388D01*
X014697Y025400D01*
X014792Y025407D01*
X014887Y025409D01*
X014982Y025407D01*
X015077Y025400D01*
X015171Y025388D01*
X015265Y025372D01*
X015357Y025351D01*
X015449Y025326D01*
X015539Y025297D01*
X015628Y025263D01*
X015715Y025224D01*
X015800Y025182D01*
X015883Y025135D01*
X015963Y025085D01*
X016041Y025031D01*
X016116Y024972D01*
X016188Y024911D01*
X016258Y024846D01*
X016323Y024777D01*
X016386Y024706D01*
X016445Y024631D01*
X016500Y024554D01*
X016551Y024474D01*
X016599Y024392D01*
X016642Y024307D01*
X016681Y024221D01*
X016716Y024132D01*
X016747Y024042D01*
X016773Y023951D01*
X016795Y023858D01*
X016786Y023857D01*
X016764Y023949D01*
X016738Y024040D01*
X016708Y024129D01*
X016673Y024217D01*
X016634Y024303D01*
X016591Y024387D01*
X016544Y024469D01*
X016493Y024549D01*
X016438Y024626D01*
X016379Y024700D01*
X016317Y024771D01*
X016251Y024839D01*
X016182Y024904D01*
X016111Y024966D01*
X016036Y025023D01*
X015958Y025077D01*
X015878Y025128D01*
X015796Y025174D01*
X015711Y025216D01*
X015625Y025254D01*
X015536Y025288D01*
X015446Y025318D01*
X015355Y025343D01*
X015263Y025363D01*
X015170Y025379D01*
X015076Y025391D01*
X014982Y025398D01*
X014887Y025400D01*
X014792Y025398D01*
X014698Y025391D01*
X014604Y025379D01*
X014511Y025363D01*
X014419Y025343D01*
X014328Y025318D01*
X014238Y025288D01*
X014149Y025254D01*
X014063Y025216D01*
X013978Y025174D01*
X013896Y025128D01*
X013816Y025077D01*
X013738Y025023D01*
X013663Y024966D01*
X013592Y024904D01*
X013523Y024839D01*
X013457Y024771D01*
X013395Y024700D01*
X013336Y024626D01*
X013281Y024549D01*
X013230Y024469D01*
X013183Y024387D01*
X013140Y024303D01*
X013101Y024217D01*
X013066Y024129D01*
X013036Y024040D01*
X013010Y023949D01*
X012988Y023857D01*
X012997Y023855D01*
X013018Y023946D01*
X013044Y024037D01*
X013075Y024126D01*
X013109Y024214D01*
X013148Y024299D01*
X013191Y024383D01*
X013238Y024465D01*
X013289Y024544D01*
X013344Y024620D01*
X013402Y024694D01*
X013464Y024765D01*
X013529Y024833D01*
X013598Y024897D01*
X013669Y024959D01*
X013744Y025016D01*
X013821Y025070D01*
X013901Y025120D01*
X013983Y025166D01*
X014067Y025208D01*
X014153Y025246D01*
X014241Y025280D01*
X014330Y025309D01*
X014421Y025334D01*
X014513Y025354D01*
X014606Y025370D01*
X014699Y025382D01*
X014793Y025389D01*
X014887Y025391D01*
X014981Y025389D01*
X015075Y025382D01*
X015168Y025370D01*
X015261Y025354D01*
X015353Y025334D01*
X015444Y025309D01*
X015533Y025280D01*
X015621Y025246D01*
X015707Y025208D01*
X015791Y025166D01*
X015873Y025120D01*
X015953Y025070D01*
X016030Y025016D01*
X016105Y024959D01*
X016176Y024897D01*
X016245Y024833D01*
X016310Y024765D01*
X016372Y024694D01*
X016430Y024620D01*
X016485Y024544D01*
X016536Y024465D01*
X016583Y024383D01*
X016626Y024299D01*
X016665Y024214D01*
X016699Y024126D01*
X016730Y024037D01*
X016756Y023946D01*
X016777Y023855D01*
X016768Y023853D01*
X016747Y023944D01*
X016721Y024034D01*
X016691Y024123D01*
X016657Y024210D01*
X016618Y024295D01*
X016575Y024379D01*
X016528Y024460D01*
X016478Y024539D01*
X016423Y024615D01*
X016365Y024688D01*
X016304Y024759D01*
X016239Y024826D01*
X016170Y024891D01*
X016099Y024952D01*
X016025Y025009D01*
X015948Y025062D01*
X015869Y025112D01*
X015787Y025158D01*
X015703Y025200D01*
X015618Y025238D01*
X015530Y025271D01*
X015441Y025300D01*
X015351Y025325D01*
X015259Y025346D01*
X015167Y025361D01*
X015074Y025373D01*
X014981Y025380D01*
X014887Y025382D01*
X014793Y025380D01*
X014700Y025373D01*
X014607Y025361D01*
X014515Y025346D01*
X014423Y025325D01*
X014333Y025300D01*
X014244Y025271D01*
X014156Y025238D01*
X014071Y025200D01*
X013987Y025158D01*
X013905Y025112D01*
X013826Y025062D01*
X013749Y025009D01*
X013675Y024952D01*
X013604Y024891D01*
X013535Y024826D01*
X013470Y024759D01*
X013409Y024688D01*
X013351Y024615D01*
X013296Y024539D01*
X013246Y024460D01*
X013199Y024379D01*
X013156Y024295D01*
X013117Y024210D01*
X013083Y024123D01*
X013053Y024034D01*
X013027Y023944D01*
X013006Y023853D01*
X012944Y023055D02*
X013013Y023069D01*
X013012Y023068D02*
X013034Y022978D01*
X013059Y022888D01*
X013090Y022799D01*
X013124Y022713D01*
X013162Y022628D01*
X013205Y022545D01*
X013252Y022464D01*
X013302Y022385D01*
X013356Y022309D01*
X013414Y022236D01*
X013476Y022166D01*
X013540Y022098D01*
X013608Y022034D01*
X013679Y021974D01*
X013753Y021917D01*
X013830Y021863D01*
X013909Y021814D01*
X013990Y021768D01*
X014074Y021726D01*
X014159Y021689D01*
X014246Y021655D01*
X014335Y021626D01*
X014425Y021602D01*
X014516Y021581D01*
X014608Y021565D01*
X014701Y021554D01*
X014794Y021547D01*
X014887Y021545D01*
X014980Y021547D01*
X015073Y021554D01*
X015166Y021565D01*
X015258Y021581D01*
X015349Y021602D01*
X015439Y021626D01*
X015528Y021655D01*
X015615Y021689D01*
X015700Y021726D01*
X015784Y021768D01*
X015865Y021814D01*
X015944Y021863D01*
X016021Y021917D01*
X016095Y021974D01*
X016166Y022034D01*
X016234Y022098D01*
X016298Y022166D01*
X016360Y022236D01*
X016418Y022309D01*
X016472Y022385D01*
X016522Y022464D01*
X016569Y022545D01*
X016612Y022628D01*
X016650Y022713D01*
X016684Y022799D01*
X016715Y022888D01*
X016740Y022978D01*
X016762Y023068D01*
X016830Y023055D01*
X016830Y023054D01*
X016808Y022960D01*
X016781Y022867D01*
X016750Y022775D01*
X016715Y022685D01*
X016675Y022597D01*
X016631Y022511D01*
X016582Y022427D01*
X016530Y022346D01*
X016474Y022267D01*
X016414Y022191D01*
X016350Y022118D01*
X016283Y022049D01*
X016213Y021982D01*
X016139Y021920D01*
X016062Y021860D01*
X015983Y021805D01*
X015901Y021754D01*
X015817Y021706D01*
X015730Y021663D01*
X015642Y021624D01*
X015551Y021589D01*
X015459Y021559D01*
X015366Y021534D01*
X015272Y021513D01*
X015176Y021496D01*
X015080Y021484D01*
X014984Y021477D01*
X014887Y021475D01*
X014790Y021477D01*
X014694Y021484D01*
X014598Y021496D01*
X014502Y021513D01*
X014408Y021534D01*
X014315Y021559D01*
X014223Y021589D01*
X014132Y021624D01*
X014044Y021663D01*
X013957Y021706D01*
X013873Y021754D01*
X013791Y021805D01*
X013712Y021860D01*
X013635Y021920D01*
X013561Y021982D01*
X013491Y022049D01*
X013424Y022118D01*
X013360Y022191D01*
X013300Y022267D01*
X013244Y022346D01*
X013192Y022427D01*
X013143Y022511D01*
X013099Y022597D01*
X013059Y022685D01*
X013024Y022775D01*
X012993Y022867D01*
X012966Y022960D01*
X012944Y023054D01*
X012953Y023056D01*
X012975Y022962D01*
X013001Y022870D01*
X013032Y022779D01*
X013068Y022689D01*
X013107Y022601D01*
X013151Y022516D01*
X013199Y022432D01*
X013252Y022351D01*
X013307Y022273D01*
X013367Y022197D01*
X013431Y022125D01*
X013497Y022055D01*
X013567Y021989D01*
X013641Y021927D01*
X013717Y021868D01*
X013796Y021813D01*
X013877Y021761D01*
X013961Y021714D01*
X014048Y021671D01*
X014136Y021632D01*
X014226Y021598D01*
X014317Y021568D01*
X014410Y021542D01*
X014504Y021521D01*
X014599Y021505D01*
X014695Y021493D01*
X014791Y021486D01*
X014887Y021484D01*
X014983Y021486D01*
X015079Y021493D01*
X015175Y021505D01*
X015270Y021521D01*
X015364Y021542D01*
X015457Y021568D01*
X015548Y021598D01*
X015638Y021632D01*
X015726Y021671D01*
X015813Y021714D01*
X015897Y021761D01*
X015978Y021813D01*
X016057Y021868D01*
X016133Y021927D01*
X016207Y021989D01*
X016277Y022055D01*
X016343Y022125D01*
X016407Y022197D01*
X016467Y022273D01*
X016522Y022351D01*
X016575Y022432D01*
X016623Y022516D01*
X016667Y022601D01*
X016706Y022689D01*
X016742Y022779D01*
X016773Y022870D01*
X016799Y022962D01*
X016821Y023056D01*
X016812Y023058D01*
X016791Y022965D01*
X016764Y022872D01*
X016733Y022782D01*
X016698Y022692D01*
X016659Y022605D01*
X016615Y022520D01*
X016567Y022437D01*
X016515Y022356D01*
X016459Y022278D01*
X016400Y022203D01*
X016337Y022131D01*
X016270Y022062D01*
X016200Y021996D01*
X016128Y021934D01*
X016052Y021875D01*
X015973Y021820D01*
X015892Y021769D01*
X015808Y021722D01*
X015723Y021679D01*
X015635Y021641D01*
X015545Y021606D01*
X015454Y021577D01*
X015362Y021551D01*
X015268Y021530D01*
X015174Y021514D01*
X015078Y021502D01*
X014983Y021495D01*
X014887Y021493D01*
X014791Y021495D01*
X014696Y021502D01*
X014600Y021514D01*
X014506Y021530D01*
X014412Y021551D01*
X014320Y021577D01*
X014229Y021606D01*
X014139Y021641D01*
X014051Y021679D01*
X013966Y021722D01*
X013882Y021769D01*
X013801Y021820D01*
X013722Y021875D01*
X013646Y021934D01*
X013574Y021996D01*
X013504Y022062D01*
X013437Y022131D01*
X013374Y022203D01*
X013315Y022278D01*
X013259Y022356D01*
X013207Y022437D01*
X013159Y022520D01*
X013115Y022605D01*
X013076Y022692D01*
X013041Y022782D01*
X013010Y022872D01*
X012983Y022965D01*
X012962Y023058D01*
X012970Y023060D01*
X012992Y022967D01*
X013018Y022875D01*
X013049Y022785D01*
X013084Y022696D01*
X013124Y022609D01*
X013167Y022524D01*
X013215Y022441D01*
X013266Y022361D01*
X013322Y022283D01*
X013381Y022209D01*
X013444Y022137D01*
X013510Y022068D01*
X013580Y022003D01*
X013652Y021941D01*
X013728Y021882D01*
X013806Y021828D01*
X013887Y021777D01*
X013970Y021730D01*
X014055Y021687D01*
X014143Y021649D01*
X014232Y021615D01*
X014322Y021585D01*
X014414Y021560D01*
X014508Y021539D01*
X014602Y021523D01*
X014696Y021511D01*
X014792Y021504D01*
X014887Y021502D01*
X014982Y021504D01*
X015078Y021511D01*
X015172Y021523D01*
X015266Y021539D01*
X015360Y021560D01*
X015452Y021585D01*
X015542Y021615D01*
X015631Y021649D01*
X015719Y021687D01*
X015804Y021730D01*
X015887Y021777D01*
X015968Y021828D01*
X016046Y021882D01*
X016122Y021941D01*
X016194Y022003D01*
X016264Y022068D01*
X016330Y022137D01*
X016393Y022209D01*
X016452Y022283D01*
X016508Y022361D01*
X016559Y022441D01*
X016607Y022524D01*
X016650Y022609D01*
X016690Y022696D01*
X016725Y022785D01*
X016756Y022875D01*
X016782Y022967D01*
X016804Y023060D01*
X016795Y023062D01*
X016773Y022969D01*
X016747Y022878D01*
X016716Y022788D01*
X016681Y022699D01*
X016642Y022613D01*
X016599Y022528D01*
X016551Y022446D01*
X016500Y022366D01*
X016445Y022289D01*
X016386Y022214D01*
X016323Y022143D01*
X016258Y022074D01*
X016188Y022009D01*
X016116Y021948D01*
X016041Y021889D01*
X015963Y021835D01*
X015883Y021785D01*
X015800Y021738D01*
X015715Y021696D01*
X015628Y021657D01*
X015539Y021623D01*
X015449Y021594D01*
X015357Y021569D01*
X015265Y021548D01*
X015171Y021532D01*
X015077Y021520D01*
X014982Y021513D01*
X014887Y021511D01*
X014792Y021513D01*
X014697Y021520D01*
X014603Y021532D01*
X014509Y021548D01*
X014417Y021569D01*
X014325Y021594D01*
X014235Y021623D01*
X014146Y021657D01*
X014059Y021696D01*
X013974Y021738D01*
X013891Y021785D01*
X013811Y021835D01*
X013733Y021889D01*
X013658Y021948D01*
X013586Y022009D01*
X013516Y022074D01*
X013451Y022143D01*
X013388Y022214D01*
X013329Y022289D01*
X013274Y022366D01*
X013223Y022446D01*
X013175Y022528D01*
X013132Y022613D01*
X013093Y022699D01*
X013058Y022788D01*
X013027Y022878D01*
X013001Y022969D01*
X012979Y023062D01*
X012988Y023063D01*
X013010Y022971D01*
X013036Y022880D01*
X013066Y022791D01*
X013101Y022703D01*
X013140Y022617D01*
X013183Y022533D01*
X013230Y022451D01*
X013281Y022371D01*
X013336Y022294D01*
X013395Y022220D01*
X013457Y022149D01*
X013523Y022081D01*
X013592Y022016D01*
X013663Y021954D01*
X013738Y021897D01*
X013816Y021843D01*
X013896Y021792D01*
X013978Y021746D01*
X014063Y021704D01*
X014149Y021666D01*
X014238Y021632D01*
X014328Y021602D01*
X014419Y021577D01*
X014511Y021557D01*
X014604Y021541D01*
X014698Y021529D01*
X014792Y021522D01*
X014887Y021520D01*
X014982Y021522D01*
X015076Y021529D01*
X015170Y021541D01*
X015263Y021557D01*
X015355Y021577D01*
X015446Y021602D01*
X015536Y021632D01*
X015625Y021666D01*
X015711Y021704D01*
X015796Y021746D01*
X015878Y021792D01*
X015958Y021843D01*
X016036Y021897D01*
X016111Y021954D01*
X016182Y022016D01*
X016251Y022081D01*
X016317Y022149D01*
X016379Y022220D01*
X016438Y022294D01*
X016493Y022371D01*
X016544Y022451D01*
X016591Y022533D01*
X016634Y022617D01*
X016673Y022703D01*
X016708Y022791D01*
X016738Y022880D01*
X016764Y022971D01*
X016786Y023063D01*
X016777Y023065D01*
X016756Y022974D01*
X016730Y022883D01*
X016699Y022794D01*
X016665Y022706D01*
X016626Y022621D01*
X016583Y022537D01*
X016536Y022455D01*
X016485Y022376D01*
X016430Y022300D01*
X016372Y022226D01*
X016310Y022155D01*
X016245Y022087D01*
X016176Y022023D01*
X016105Y021961D01*
X016030Y021904D01*
X015953Y021850D01*
X015873Y021800D01*
X015791Y021754D01*
X015707Y021712D01*
X015621Y021674D01*
X015533Y021640D01*
X015444Y021611D01*
X015353Y021586D01*
X015261Y021566D01*
X015168Y021550D01*
X015075Y021538D01*
X014981Y021531D01*
X014887Y021529D01*
X014793Y021531D01*
X014699Y021538D01*
X014606Y021550D01*
X014513Y021566D01*
X014421Y021586D01*
X014330Y021611D01*
X014241Y021640D01*
X014153Y021674D01*
X014067Y021712D01*
X013983Y021754D01*
X013901Y021800D01*
X013821Y021850D01*
X013744Y021904D01*
X013669Y021961D01*
X013598Y022023D01*
X013529Y022087D01*
X013464Y022155D01*
X013402Y022226D01*
X013344Y022300D01*
X013289Y022376D01*
X013238Y022455D01*
X013191Y022537D01*
X013148Y022621D01*
X013109Y022706D01*
X013075Y022794D01*
X013044Y022883D01*
X013018Y022974D01*
X012997Y023065D01*
X013006Y023067D01*
X013027Y022976D01*
X013053Y022886D01*
X013083Y022797D01*
X013117Y022710D01*
X013156Y022625D01*
X013199Y022541D01*
X013246Y022460D01*
X013296Y022381D01*
X013351Y022305D01*
X013409Y022232D01*
X013470Y022161D01*
X013535Y022094D01*
X013604Y022029D01*
X013675Y021968D01*
X013749Y021911D01*
X013826Y021858D01*
X013905Y021808D01*
X013987Y021762D01*
X014071Y021720D01*
X014156Y021682D01*
X014244Y021649D01*
X014333Y021620D01*
X014423Y021595D01*
X014515Y021574D01*
X014607Y021559D01*
X014700Y021547D01*
X014793Y021540D01*
X014887Y021538D01*
X014981Y021540D01*
X015074Y021547D01*
X015167Y021559D01*
X015259Y021574D01*
X015351Y021595D01*
X015441Y021620D01*
X015530Y021649D01*
X015618Y021682D01*
X015703Y021720D01*
X015787Y021762D01*
X015869Y021808D01*
X015948Y021858D01*
X016025Y021911D01*
X016099Y021968D01*
X016170Y022029D01*
X016239Y022094D01*
X016304Y022161D01*
X016365Y022232D01*
X016423Y022305D01*
X016478Y022381D01*
X016528Y022460D01*
X016575Y022541D01*
X016618Y022625D01*
X016657Y022710D01*
X016691Y022797D01*
X016721Y022886D01*
X016747Y022976D01*
X016768Y023067D01*
X021436Y024077D02*
X021367Y024061D01*
X021368Y024061D02*
X021348Y024136D01*
X021325Y024209D01*
X021298Y024281D01*
X021267Y024351D01*
X021233Y024420D01*
X021196Y024487D01*
X021155Y024552D01*
X021111Y024615D01*
X021063Y024676D01*
X021013Y024734D01*
X020960Y024789D01*
X020904Y024842D01*
X020846Y024892D01*
X020785Y024939D01*
X020722Y024983D01*
X020657Y025023D01*
X020589Y025060D01*
X020520Y025094D01*
X020450Y025124D01*
X020378Y025151D01*
X020304Y025174D01*
X020230Y025193D01*
X020155Y025208D01*
X020079Y025220D01*
X020002Y025228D01*
X019925Y025232D01*
X019849Y025232D01*
X019772Y025228D01*
X019695Y025220D01*
X019619Y025208D01*
X019544Y025193D01*
X019470Y025174D01*
X019396Y025151D01*
X019324Y025124D01*
X019254Y025094D01*
X019185Y025060D01*
X019117Y025023D01*
X019052Y024983D01*
X018989Y024939D01*
X018928Y024892D01*
X018870Y024842D01*
X018814Y024789D01*
X018761Y024734D01*
X018711Y024676D01*
X018663Y024615D01*
X018619Y024552D01*
X018578Y024487D01*
X018541Y024420D01*
X018507Y024351D01*
X018476Y024281D01*
X018449Y024209D01*
X018426Y024136D01*
X018406Y024061D01*
X018338Y024077D01*
X018358Y024154D01*
X018382Y024229D01*
X018409Y024303D01*
X018441Y024375D01*
X018475Y024446D01*
X018514Y024515D01*
X018555Y024582D01*
X018600Y024647D01*
X018648Y024710D01*
X018699Y024770D01*
X018753Y024827D01*
X018810Y024882D01*
X018869Y024934D01*
X018931Y024983D01*
X018995Y025029D01*
X019062Y025071D01*
X019130Y025110D01*
X019200Y025146D01*
X019272Y025179D01*
X019346Y025207D01*
X019421Y025232D01*
X019497Y025253D01*
X019573Y025271D01*
X019651Y025284D01*
X019729Y025294D01*
X019808Y025300D01*
X019887Y025302D01*
X019966Y025300D01*
X020045Y025294D01*
X020123Y025284D01*
X020201Y025271D01*
X020277Y025253D01*
X020353Y025232D01*
X020428Y025207D01*
X020502Y025179D01*
X020574Y025146D01*
X020644Y025110D01*
X020712Y025071D01*
X020779Y025029D01*
X020843Y024983D01*
X020905Y024934D01*
X020964Y024882D01*
X021021Y024827D01*
X021075Y024770D01*
X021126Y024710D01*
X021174Y024647D01*
X021219Y024582D01*
X021260Y024515D01*
X021299Y024446D01*
X021333Y024375D01*
X021365Y024303D01*
X021392Y024229D01*
X021416Y024154D01*
X021436Y024077D01*
X021427Y024075D01*
X021407Y024151D01*
X021384Y024226D01*
X021356Y024299D01*
X021325Y024371D01*
X021291Y024442D01*
X021253Y024510D01*
X021211Y024577D01*
X021167Y024642D01*
X021119Y024704D01*
X021068Y024764D01*
X021015Y024821D01*
X020958Y024875D01*
X020899Y024927D01*
X020838Y024976D01*
X020774Y025021D01*
X020708Y025064D01*
X020640Y025103D01*
X020570Y025138D01*
X020498Y025170D01*
X020425Y025199D01*
X020351Y025224D01*
X020275Y025245D01*
X020199Y025262D01*
X020121Y025276D01*
X020044Y025285D01*
X019965Y025291D01*
X019887Y025293D01*
X019809Y025291D01*
X019730Y025285D01*
X019653Y025276D01*
X019575Y025262D01*
X019499Y025245D01*
X019423Y025224D01*
X019349Y025199D01*
X019276Y025170D01*
X019204Y025138D01*
X019134Y025103D01*
X019066Y025064D01*
X019000Y025021D01*
X018936Y024976D01*
X018875Y024927D01*
X018816Y024875D01*
X018759Y024821D01*
X018706Y024764D01*
X018655Y024704D01*
X018607Y024642D01*
X018563Y024577D01*
X018521Y024510D01*
X018483Y024442D01*
X018449Y024371D01*
X018418Y024299D01*
X018390Y024226D01*
X018367Y024151D01*
X018347Y024075D01*
X018355Y024073D01*
X018375Y024149D01*
X018399Y024223D01*
X018426Y024296D01*
X018457Y024368D01*
X018491Y024438D01*
X018529Y024506D01*
X018570Y024572D01*
X018614Y024636D01*
X018662Y024698D01*
X018712Y024758D01*
X018766Y024815D01*
X018822Y024869D01*
X018881Y024920D01*
X018942Y024969D01*
X019005Y025014D01*
X019071Y025056D01*
X019139Y025095D01*
X019208Y025130D01*
X019279Y025162D01*
X019352Y025190D01*
X019426Y025215D01*
X019501Y025236D01*
X019577Y025253D01*
X019654Y025267D01*
X019731Y025276D01*
X019809Y025282D01*
X019887Y025284D01*
X019965Y025282D01*
X020043Y025276D01*
X020120Y025267D01*
X020197Y025253D01*
X020273Y025236D01*
X020348Y025215D01*
X020422Y025190D01*
X020495Y025162D01*
X020566Y025130D01*
X020635Y025095D01*
X020703Y025056D01*
X020769Y025014D01*
X020832Y024969D01*
X020893Y024920D01*
X020952Y024869D01*
X021008Y024815D01*
X021062Y024758D01*
X021112Y024698D01*
X021160Y024636D01*
X021204Y024572D01*
X021245Y024506D01*
X021283Y024438D01*
X021317Y024368D01*
X021348Y024296D01*
X021375Y024223D01*
X021399Y024149D01*
X021419Y024073D01*
X021410Y024071D01*
X021390Y024146D01*
X021367Y024220D01*
X021339Y024293D01*
X021309Y024364D01*
X021275Y024434D01*
X021237Y024501D01*
X021196Y024567D01*
X021152Y024631D01*
X021105Y024693D01*
X021055Y024752D01*
X021002Y024808D01*
X020946Y024862D01*
X020888Y024913D01*
X020827Y024961D01*
X020764Y025006D01*
X020698Y025048D01*
X020631Y025087D01*
X020562Y025122D01*
X020491Y025154D01*
X020419Y025182D01*
X020345Y025206D01*
X020271Y025227D01*
X020195Y025244D01*
X020119Y025258D01*
X020042Y025267D01*
X019965Y025273D01*
X019887Y025275D01*
X019809Y025273D01*
X019732Y025267D01*
X019655Y025258D01*
X019579Y025244D01*
X019503Y025227D01*
X019429Y025206D01*
X019355Y025182D01*
X019283Y025154D01*
X019212Y025122D01*
X019143Y025087D01*
X019076Y025048D01*
X019010Y025006D01*
X018947Y024961D01*
X018886Y024913D01*
X018828Y024862D01*
X018772Y024808D01*
X018719Y024752D01*
X018669Y024693D01*
X018622Y024631D01*
X018578Y024567D01*
X018537Y024501D01*
X018499Y024434D01*
X018465Y024364D01*
X018435Y024293D01*
X018407Y024220D01*
X018384Y024146D01*
X018364Y024071D01*
X018373Y024069D01*
X018393Y024145D01*
X018417Y024220D01*
X018445Y024293D01*
X018476Y024365D01*
X018511Y024436D01*
X018549Y024504D01*
X018591Y024571D01*
X018636Y024635D01*
X018684Y024697D01*
X018736Y024757D01*
X018790Y024813D01*
X018847Y024867D01*
X018907Y024918D01*
X018969Y024966D01*
X019033Y025011D01*
X019100Y025052D01*
X019169Y025090D01*
X019240Y025125D01*
X019312Y025156D01*
X019385Y025183D01*
X019460Y025206D01*
X019537Y025226D01*
X019613Y025242D01*
X019691Y025254D01*
X019769Y025262D01*
X019848Y025266D01*
X019926Y025266D01*
X020005Y025262D01*
X020083Y025254D01*
X020161Y025242D01*
X020237Y025226D01*
X020314Y025206D01*
X020389Y025183D01*
X020462Y025156D01*
X020534Y025125D01*
X020605Y025090D01*
X020674Y025052D01*
X020741Y025011D01*
X020805Y024966D01*
X020867Y024918D01*
X020927Y024867D01*
X020984Y024813D01*
X021038Y024757D01*
X021090Y024697D01*
X021138Y024635D01*
X021183Y024571D01*
X021225Y024504D01*
X021263Y024436D01*
X021298Y024365D01*
X021329Y024293D01*
X021357Y024220D01*
X021381Y024145D01*
X021401Y024069D01*
X021392Y024067D01*
X021372Y024143D01*
X021349Y024217D01*
X021321Y024290D01*
X021290Y024362D01*
X021255Y024432D01*
X021217Y024500D01*
X021176Y024566D01*
X021131Y024630D01*
X021083Y024691D01*
X021032Y024751D01*
X020978Y024807D01*
X020921Y024861D01*
X020862Y024911D01*
X020800Y024959D01*
X020736Y025003D01*
X020669Y025045D01*
X020601Y025082D01*
X020531Y025117D01*
X020459Y025147D01*
X020386Y025174D01*
X020311Y025198D01*
X020235Y025217D01*
X020159Y025233D01*
X020082Y025245D01*
X020004Y025253D01*
X019926Y025257D01*
X019848Y025257D01*
X019770Y025253D01*
X019692Y025245D01*
X019615Y025233D01*
X019539Y025217D01*
X019463Y025198D01*
X019388Y025174D01*
X019315Y025147D01*
X019243Y025117D01*
X019173Y025082D01*
X019105Y025045D01*
X019038Y025003D01*
X018974Y024959D01*
X018912Y024911D01*
X018853Y024861D01*
X018796Y024807D01*
X018742Y024751D01*
X018691Y024691D01*
X018643Y024630D01*
X018598Y024566D01*
X018557Y024500D01*
X018519Y024432D01*
X018484Y024362D01*
X018453Y024290D01*
X018425Y024217D01*
X018402Y024143D01*
X018382Y024067D01*
X018391Y024065D01*
X018410Y024140D01*
X018434Y024214D01*
X018461Y024287D01*
X018492Y024358D01*
X018527Y024427D01*
X018565Y024495D01*
X018606Y024561D01*
X018650Y024625D01*
X018698Y024686D01*
X018749Y024745D01*
X018803Y024801D01*
X018859Y024854D01*
X018918Y024904D01*
X018980Y024952D01*
X019043Y024996D01*
X019109Y025037D01*
X019177Y025074D01*
X019247Y025109D01*
X019318Y025139D01*
X019391Y025166D01*
X019465Y025189D01*
X019541Y025208D01*
X019617Y025224D01*
X019693Y025236D01*
X019771Y025244D01*
X019848Y025248D01*
X019926Y025248D01*
X020003Y025244D01*
X020081Y025236D01*
X020157Y025224D01*
X020233Y025208D01*
X020309Y025189D01*
X020383Y025166D01*
X020456Y025139D01*
X020527Y025109D01*
X020597Y025074D01*
X020665Y025037D01*
X020731Y024996D01*
X020794Y024952D01*
X020856Y024904D01*
X020915Y024854D01*
X020971Y024801D01*
X021025Y024745D01*
X021076Y024686D01*
X021124Y024625D01*
X021168Y024561D01*
X021209Y024495D01*
X021247Y024427D01*
X021282Y024358D01*
X021313Y024287D01*
X021340Y024214D01*
X021364Y024140D01*
X021383Y024065D01*
X021375Y024063D01*
X021355Y024138D01*
X021332Y024211D01*
X021304Y024283D01*
X021274Y024354D01*
X021239Y024423D01*
X021202Y024491D01*
X021161Y024556D01*
X021116Y024619D01*
X021069Y024680D01*
X021018Y024738D01*
X020965Y024794D01*
X020909Y024847D01*
X020850Y024897D01*
X020789Y024945D01*
X020726Y024988D01*
X020660Y025029D01*
X020593Y025066D01*
X020523Y025100D01*
X020452Y025131D01*
X020380Y025157D01*
X020306Y025180D01*
X020231Y025200D01*
X020156Y025215D01*
X020079Y025227D01*
X020003Y025235D01*
X019926Y025239D01*
X019848Y025239D01*
X019771Y025235D01*
X019695Y025227D01*
X019618Y025215D01*
X019543Y025200D01*
X019468Y025180D01*
X019394Y025157D01*
X019322Y025131D01*
X019251Y025100D01*
X019181Y025066D01*
X019114Y025029D01*
X019048Y024988D01*
X018985Y024945D01*
X018924Y024897D01*
X018865Y024847D01*
X018809Y024794D01*
X018756Y024738D01*
X018705Y024680D01*
X018658Y024619D01*
X018613Y024556D01*
X018572Y024491D01*
X018535Y024423D01*
X018500Y024354D01*
X018470Y024283D01*
X018442Y024211D01*
X018419Y024138D01*
X018399Y024063D01*
X018338Y023343D02*
X018407Y023359D01*
X018406Y023359D02*
X018426Y023284D01*
X018449Y023211D01*
X018476Y023139D01*
X018507Y023069D01*
X018541Y023000D01*
X018578Y022933D01*
X018619Y022868D01*
X018663Y022805D01*
X018711Y022744D01*
X018761Y022686D01*
X018814Y022631D01*
X018870Y022578D01*
X018928Y022528D01*
X018989Y022481D01*
X019052Y022437D01*
X019117Y022397D01*
X019185Y022360D01*
X019254Y022326D01*
X019324Y022296D01*
X019396Y022269D01*
X019470Y022246D01*
X019544Y022227D01*
X019619Y022212D01*
X019695Y022200D01*
X019772Y022192D01*
X019849Y022188D01*
X019925Y022188D01*
X020002Y022192D01*
X020079Y022200D01*
X020155Y022212D01*
X020230Y022227D01*
X020304Y022246D01*
X020378Y022269D01*
X020450Y022296D01*
X020520Y022326D01*
X020589Y022360D01*
X020657Y022397D01*
X020722Y022437D01*
X020785Y022481D01*
X020846Y022528D01*
X020904Y022578D01*
X020960Y022631D01*
X021013Y022686D01*
X021063Y022744D01*
X021111Y022805D01*
X021155Y022868D01*
X021196Y022933D01*
X021233Y023000D01*
X021267Y023069D01*
X021298Y023139D01*
X021325Y023211D01*
X021348Y023284D01*
X021368Y023359D01*
X021436Y023343D01*
X021416Y023266D01*
X021392Y023191D01*
X021365Y023117D01*
X021333Y023045D01*
X021299Y022974D01*
X021260Y022905D01*
X021219Y022838D01*
X021174Y022773D01*
X021126Y022710D01*
X021075Y022650D01*
X021021Y022593D01*
X020964Y022538D01*
X020905Y022486D01*
X020843Y022437D01*
X020779Y022391D01*
X020712Y022349D01*
X020644Y022310D01*
X020574Y022274D01*
X020502Y022241D01*
X020428Y022213D01*
X020353Y022188D01*
X020277Y022167D01*
X020201Y022149D01*
X020123Y022136D01*
X020045Y022126D01*
X019966Y022120D01*
X019887Y022118D01*
X019808Y022120D01*
X019729Y022126D01*
X019651Y022136D01*
X019573Y022149D01*
X019497Y022167D01*
X019421Y022188D01*
X019346Y022213D01*
X019272Y022241D01*
X019200Y022274D01*
X019130Y022310D01*
X019062Y022349D01*
X018995Y022391D01*
X018931Y022437D01*
X018869Y022486D01*
X018810Y022538D01*
X018753Y022593D01*
X018699Y022650D01*
X018648Y022710D01*
X018600Y022773D01*
X018555Y022838D01*
X018514Y022905D01*
X018475Y022974D01*
X018441Y023045D01*
X018409Y023117D01*
X018382Y023191D01*
X018358Y023266D01*
X018338Y023343D01*
X018347Y023345D01*
X018367Y023269D01*
X018390Y023194D01*
X018418Y023121D01*
X018449Y023049D01*
X018483Y022978D01*
X018521Y022910D01*
X018563Y022843D01*
X018607Y022778D01*
X018655Y022716D01*
X018706Y022656D01*
X018759Y022599D01*
X018816Y022545D01*
X018875Y022493D01*
X018936Y022444D01*
X019000Y022399D01*
X019066Y022356D01*
X019134Y022317D01*
X019204Y022282D01*
X019276Y022250D01*
X019349Y022221D01*
X019423Y022196D01*
X019499Y022175D01*
X019575Y022158D01*
X019653Y022144D01*
X019730Y022135D01*
X019809Y022129D01*
X019887Y022127D01*
X019965Y022129D01*
X020044Y022135D01*
X020121Y022144D01*
X020199Y022158D01*
X020275Y022175D01*
X020351Y022196D01*
X020425Y022221D01*
X020498Y022250D01*
X020570Y022282D01*
X020640Y022317D01*
X020708Y022356D01*
X020774Y022399D01*
X020838Y022444D01*
X020899Y022493D01*
X020958Y022545D01*
X021015Y022599D01*
X021068Y022656D01*
X021119Y022716D01*
X021167Y022778D01*
X021211Y022843D01*
X021253Y022910D01*
X021291Y022978D01*
X021325Y023049D01*
X021356Y023121D01*
X021384Y023194D01*
X021407Y023269D01*
X021427Y023345D01*
X021419Y023347D01*
X021399Y023271D01*
X021375Y023197D01*
X021348Y023124D01*
X021317Y023052D01*
X021283Y022982D01*
X021245Y022914D01*
X021204Y022848D01*
X021160Y022784D01*
X021112Y022722D01*
X021062Y022662D01*
X021008Y022605D01*
X020952Y022551D01*
X020893Y022500D01*
X020832Y022451D01*
X020769Y022406D01*
X020703Y022364D01*
X020635Y022325D01*
X020566Y022290D01*
X020495Y022258D01*
X020422Y022230D01*
X020348Y022205D01*
X020273Y022184D01*
X020197Y022167D01*
X020120Y022153D01*
X020043Y022144D01*
X019965Y022138D01*
X019887Y022136D01*
X019809Y022138D01*
X019731Y022144D01*
X019654Y022153D01*
X019577Y022167D01*
X019501Y022184D01*
X019426Y022205D01*
X019352Y022230D01*
X019279Y022258D01*
X019208Y022290D01*
X019139Y022325D01*
X019071Y022364D01*
X019005Y022406D01*
X018942Y022451D01*
X018881Y022500D01*
X018822Y022551D01*
X018766Y022605D01*
X018712Y022662D01*
X018662Y022722D01*
X018614Y022784D01*
X018570Y022848D01*
X018529Y022914D01*
X018491Y022982D01*
X018457Y023052D01*
X018426Y023124D01*
X018399Y023197D01*
X018375Y023271D01*
X018355Y023347D01*
X018364Y023349D01*
X018384Y023274D01*
X018407Y023200D01*
X018435Y023127D01*
X018465Y023056D01*
X018499Y022986D01*
X018537Y022919D01*
X018578Y022853D01*
X018622Y022789D01*
X018669Y022727D01*
X018719Y022668D01*
X018772Y022612D01*
X018828Y022558D01*
X018886Y022507D01*
X018947Y022459D01*
X019010Y022414D01*
X019076Y022372D01*
X019143Y022333D01*
X019212Y022298D01*
X019283Y022266D01*
X019355Y022238D01*
X019429Y022214D01*
X019503Y022193D01*
X019579Y022176D01*
X019655Y022162D01*
X019732Y022153D01*
X019809Y022147D01*
X019887Y022145D01*
X019965Y022147D01*
X020042Y022153D01*
X020119Y022162D01*
X020195Y022176D01*
X020271Y022193D01*
X020345Y022214D01*
X020419Y022238D01*
X020491Y022266D01*
X020562Y022298D01*
X020631Y022333D01*
X020698Y022372D01*
X020764Y022414D01*
X020827Y022459D01*
X020888Y022507D01*
X020946Y022558D01*
X021002Y022612D01*
X021055Y022668D01*
X021105Y022727D01*
X021152Y022789D01*
X021196Y022853D01*
X021237Y022919D01*
X021275Y022986D01*
X021309Y023056D01*
X021339Y023127D01*
X021367Y023200D01*
X021390Y023274D01*
X021410Y023349D01*
X021401Y023351D01*
X021381Y023275D01*
X021357Y023200D01*
X021329Y023127D01*
X021298Y023055D01*
X021263Y022984D01*
X021225Y022916D01*
X021183Y022849D01*
X021138Y022785D01*
X021090Y022723D01*
X021038Y022663D01*
X020984Y022607D01*
X020927Y022553D01*
X020867Y022502D01*
X020805Y022454D01*
X020741Y022409D01*
X020674Y022368D01*
X020605Y022330D01*
X020534Y022295D01*
X020462Y022264D01*
X020389Y022237D01*
X020314Y022214D01*
X020237Y022194D01*
X020161Y022178D01*
X020083Y022166D01*
X020005Y022158D01*
X019926Y022154D01*
X019848Y022154D01*
X019769Y022158D01*
X019691Y022166D01*
X019613Y022178D01*
X019537Y022194D01*
X019460Y022214D01*
X019385Y022237D01*
X019312Y022264D01*
X019240Y022295D01*
X019169Y022330D01*
X019100Y022368D01*
X019033Y022409D01*
X018969Y022454D01*
X018907Y022502D01*
X018847Y022553D01*
X018790Y022607D01*
X018736Y022663D01*
X018684Y022723D01*
X018636Y022785D01*
X018591Y022849D01*
X018549Y022916D01*
X018511Y022984D01*
X018476Y023055D01*
X018445Y023127D01*
X018417Y023200D01*
X018393Y023275D01*
X018373Y023351D01*
X018382Y023353D01*
X018402Y023277D01*
X018425Y023203D01*
X018453Y023130D01*
X018484Y023058D01*
X018519Y022988D01*
X018557Y022920D01*
X018598Y022854D01*
X018643Y022790D01*
X018691Y022729D01*
X018742Y022669D01*
X018796Y022613D01*
X018853Y022559D01*
X018912Y022509D01*
X018974Y022461D01*
X019038Y022417D01*
X019105Y022375D01*
X019173Y022338D01*
X019243Y022303D01*
X019315Y022273D01*
X019388Y022246D01*
X019463Y022222D01*
X019539Y022203D01*
X019615Y022187D01*
X019692Y022175D01*
X019770Y022167D01*
X019848Y022163D01*
X019926Y022163D01*
X020004Y022167D01*
X020082Y022175D01*
X020159Y022187D01*
X020235Y022203D01*
X020311Y022222D01*
X020386Y022246D01*
X020459Y022273D01*
X020531Y022303D01*
X020601Y022338D01*
X020669Y022375D01*
X020736Y022417D01*
X020800Y022461D01*
X020862Y022509D01*
X020921Y022559D01*
X020978Y022613D01*
X021032Y022669D01*
X021083Y022729D01*
X021131Y022790D01*
X021176Y022854D01*
X021217Y022920D01*
X021255Y022988D01*
X021290Y023058D01*
X021321Y023130D01*
X021349Y023203D01*
X021372Y023277D01*
X021392Y023353D01*
X021383Y023355D01*
X021364Y023280D01*
X021340Y023206D01*
X021313Y023133D01*
X021282Y023062D01*
X021247Y022993D01*
X021209Y022925D01*
X021168Y022859D01*
X021124Y022795D01*
X021076Y022734D01*
X021025Y022675D01*
X020971Y022619D01*
X020915Y022566D01*
X020856Y022516D01*
X020794Y022468D01*
X020731Y022424D01*
X020665Y022383D01*
X020597Y022346D01*
X020527Y022311D01*
X020456Y022281D01*
X020383Y022254D01*
X020309Y022231D01*
X020233Y022212D01*
X020157Y022196D01*
X020081Y022184D01*
X020003Y022176D01*
X019926Y022172D01*
X019848Y022172D01*
X019771Y022176D01*
X019693Y022184D01*
X019617Y022196D01*
X019541Y022212D01*
X019465Y022231D01*
X019391Y022254D01*
X019318Y022281D01*
X019247Y022311D01*
X019177Y022346D01*
X019109Y022383D01*
X019043Y022424D01*
X018980Y022468D01*
X018918Y022516D01*
X018859Y022566D01*
X018803Y022619D01*
X018749Y022675D01*
X018698Y022734D01*
X018650Y022795D01*
X018606Y022859D01*
X018565Y022925D01*
X018527Y022993D01*
X018492Y023062D01*
X018461Y023133D01*
X018434Y023206D01*
X018410Y023280D01*
X018391Y023355D01*
X018399Y023357D01*
X018419Y023282D01*
X018442Y023209D01*
X018470Y023137D01*
X018500Y023066D01*
X018535Y022997D01*
X018572Y022929D01*
X018613Y022864D01*
X018658Y022801D01*
X018705Y022740D01*
X018756Y022682D01*
X018809Y022626D01*
X018865Y022573D01*
X018924Y022523D01*
X018985Y022475D01*
X019048Y022432D01*
X019114Y022391D01*
X019181Y022354D01*
X019251Y022320D01*
X019322Y022289D01*
X019394Y022263D01*
X019468Y022240D01*
X019543Y022220D01*
X019618Y022205D01*
X019695Y022193D01*
X019771Y022185D01*
X019848Y022181D01*
X019926Y022181D01*
X020003Y022185D01*
X020079Y022193D01*
X020156Y022205D01*
X020231Y022220D01*
X020306Y022240D01*
X020380Y022263D01*
X020452Y022289D01*
X020523Y022320D01*
X020593Y022354D01*
X020660Y022391D01*
X020726Y022432D01*
X020789Y022475D01*
X020850Y022523D01*
X020909Y022573D01*
X020965Y022626D01*
X021018Y022682D01*
X021069Y022740D01*
X021116Y022801D01*
X021161Y022864D01*
X021202Y022929D01*
X021239Y022997D01*
X021274Y023066D01*
X021304Y023137D01*
X021332Y023209D01*
X021355Y023282D01*
X021375Y023357D01*
D18*
X008637Y018210D03*
X006637Y018210D03*
M02*
