G75*
G70*
%OFA0B0*%
%FSLAX24Y24*%
%IPPOS*%
%LPD*%
%AMOC8*
5,1,8,0,0,1.08239X$1,22.5*
%
%ADD10C,0.1182*%
%ADD11R,0.0634X0.0634*%
%ADD12C,0.0700*%
%ADD13C,0.0634*%
%ADD14C,0.0780*%
%ADD15R,0.0780X0.0780*%
%ADD16C,0.1300*%
%ADD17R,0.0840X0.0300*%
%ADD18R,0.0280X0.0910*%
%ADD19R,0.0473X0.0788*%
%ADD20R,0.0473X0.0434*%
%ADD21R,0.4292X0.4138*%
%ADD22R,0.0460X0.0890*%
%ADD23R,0.1575X0.0670*%
%ADD24R,0.1536X0.0591*%
%ADD25R,0.2205X0.1615*%
%ADD26R,0.0827X0.0827*%
%ADD27R,0.0434X0.0473*%
%ADD28R,0.0493X0.0434*%
%ADD29C,0.0375*%
D10*
X017519Y016059D03*
D11*
X004637Y006960D03*
D12*
X003637Y006960D03*
X003637Y008960D03*
D13*
X003637Y009960D03*
X003637Y010960D03*
X003637Y011960D03*
X003637Y012960D03*
X003637Y013960D03*
X003637Y014960D03*
X003637Y015960D03*
X003637Y016960D03*
X003637Y017960D03*
X003637Y018960D03*
X004637Y018960D03*
X004637Y017960D03*
X004637Y016960D03*
X004637Y015960D03*
X004637Y014960D03*
X004637Y013960D03*
X004637Y012960D03*
X004637Y011960D03*
X004637Y010960D03*
X004637Y009960D03*
X004637Y008960D03*
X004637Y007960D03*
X003637Y007960D03*
D14*
X008887Y013460D03*
X009387Y012460D03*
X009887Y013460D03*
X010387Y012460D03*
X010887Y013460D03*
X011387Y012460D03*
X011887Y013460D03*
X014887Y013460D03*
X015387Y012460D03*
X015887Y013460D03*
X016387Y012460D03*
X016887Y013460D03*
X017387Y012460D03*
X017887Y013460D03*
D15*
X014387Y012460D03*
X008387Y012460D03*
D16*
X007887Y009960D03*
X012387Y009960D03*
X013887Y009960D03*
X018387Y009960D03*
D17*
X010067Y020210D03*
X010067Y020710D03*
X010067Y021210D03*
X010067Y021710D03*
X010067Y022210D03*
X010067Y022710D03*
X010067Y023210D03*
X010067Y023710D03*
X010067Y024210D03*
X006207Y024210D03*
X006207Y023710D03*
X006207Y023210D03*
X006207Y022710D03*
X006207Y022210D03*
X006207Y021710D03*
X006207Y021210D03*
X006207Y020710D03*
X006207Y020210D03*
D18*
X009387Y016990D03*
X009887Y016990D03*
X010387Y016990D03*
X010887Y016990D03*
X010887Y014930D03*
X010387Y014930D03*
X009887Y014930D03*
X009387Y014930D03*
D19*
X010934Y022732D03*
X011840Y022732D03*
X011840Y024189D03*
X010934Y024189D03*
D20*
X011052Y025210D03*
X011721Y025210D03*
X011721Y021710D03*
X011052Y021710D03*
X010471Y017960D03*
X009802Y017960D03*
X008471Y024960D03*
X007802Y024960D03*
D21*
X014387Y017460D03*
D22*
X014387Y020740D03*
X015057Y020740D03*
X015727Y020740D03*
X013717Y020740D03*
X013047Y020740D03*
D23*
X013214Y023460D03*
X016560Y023460D03*
D24*
X018706Y023710D03*
X021068Y023710D03*
D25*
X019637Y021008D03*
X019637Y017662D03*
D26*
X020099Y015960D03*
X021674Y015960D03*
D27*
X011637Y015626D03*
X011637Y016295D03*
X008637Y017876D03*
X008637Y018545D03*
X007637Y018545D03*
X007637Y017876D03*
X006637Y017876D03*
X006637Y018545D03*
D28*
X006525Y016944D03*
X006525Y015960D03*
X006525Y014976D03*
X008749Y014976D03*
X008749Y015960D03*
X008749Y016944D03*
D29*
X007637Y016551D03*
X007637Y015370D03*
M02*
