%
M48
M72
T01C0.0118
T02C0.0197
T03C0.0394
%
T01
X5637Y11460
X6137Y13960
X5387Y16960
X4637Y17460
X5637Y18335
X5637Y21210
X7637Y17210
X8637Y13960
X10137Y17585
X9887Y18335
X10887Y17960
X11637Y16710
X11262Y14960
X13637Y18835
X13887Y18585
X14137Y18835
X14387Y18585
X14637Y18835
X14387Y19085
X14637Y19335
X14137Y19335
X13887Y19085
X13637Y19335
X13387Y20460
X11762Y22085
X11762Y24835
X8887Y24960
X15387Y9710
X14887Y9460
X14387Y9210
T02
X18137Y20710
X20637Y20710
T03
X3637Y6960
X3637Y7960
X3637Y8960
X3637Y9960
X3637Y10960
X3637Y11960
X3637Y12960
X3637Y13960
X3637Y14960
X3637Y15960
X3637Y16960
X3637Y17960
X3637Y18960
X4637Y18960
X4637Y17960
X4637Y16960
X4637Y15960
X4637Y14960
X4637Y13960
X4637Y12960
X4637Y11960
X4637Y10960
X4637Y9960
X4637Y8960
X4637Y7960
X4637Y6960
X8387Y10585
X8887Y11585
X9387Y10585
X9887Y11585
X10387Y10585
X10887Y11585
X11387Y10585
X11887Y11585
X14387Y10585
X14887Y11585
X15387Y10585
X15887Y11585
X16387Y10585
X16887Y11585
X17887Y11585
X17387Y10585
M30
