G75*
G70*
%OFA0B0*%
%FSLAX24Y24*%
%IPPOS*%
%LPD*%
%AMOC8*
5,1,8,0,0,1.08239X$1,22.5*
%
%ADD10R,0.0800X0.0260*%
%ADD11R,0.0240X0.0870*%
%ADD12R,0.0433X0.0748*%
%ADD13R,0.0433X0.0394*%
%ADD14R,0.4252X0.4098*%
%ADD15R,0.0420X0.0850*%
%ADD16R,0.1535X0.0630*%
%ADD17R,0.1496X0.0551*%
%ADD18R,0.2165X0.1575*%
%ADD19R,0.0787X0.0787*%
%ADD20R,0.0394X0.0433*%
D10*
X006207Y019460D03*
X006207Y019960D03*
X006207Y020460D03*
X006207Y020960D03*
X006207Y021460D03*
X006207Y021960D03*
X006207Y022460D03*
X006207Y022960D03*
X006207Y023460D03*
X010067Y023460D03*
X010067Y022960D03*
X010067Y022460D03*
X010067Y021960D03*
X010067Y021460D03*
X010067Y020960D03*
X010067Y020460D03*
X010067Y019960D03*
X010067Y019460D03*
D11*
X010137Y016990D03*
X010637Y016990D03*
X009637Y016990D03*
X009137Y016990D03*
X009137Y014930D03*
X009637Y014930D03*
X010137Y014930D03*
X010637Y014930D03*
D12*
X010934Y021982D03*
X011840Y021982D03*
X011840Y023439D03*
X010934Y023439D03*
D13*
X007052Y014460D03*
X007721Y014460D03*
X011052Y020960D03*
X011721Y020960D03*
X011721Y024460D03*
X011052Y024460D03*
X008471Y024210D03*
X007802Y024210D03*
D14*
X014387Y017460D03*
D15*
X014387Y020740D03*
X015057Y020740D03*
X015727Y020740D03*
X013717Y020740D03*
X013047Y020740D03*
D16*
X013214Y023460D03*
X016560Y023460D03*
D17*
X018706Y023710D03*
X021068Y023710D03*
D18*
X019637Y021008D03*
X019637Y017662D03*
D19*
X020099Y015960D03*
X021674Y015960D03*
D20*
X011387Y015626D03*
X011387Y016295D03*
X008387Y016295D03*
X008387Y015626D03*
M02*
