%
M48
M72
T01C0.0118
T02C0.0197
T03C0.0394
%
T01
X6142Y4250
X5892Y4750
X5642Y5250
X8892Y11250
X14767Y9000
X15017Y8750
X15267Y8500
X15517Y8250
X15017Y8250
X14767Y8500
X15267Y9000
X15517Y8750
X15267Y8000
X14767Y8000
X16767Y9250
X18642Y13000
X21142Y14500
X22392Y14250
X19392Y16500
X16892Y17250
X15142Y18000
X18392Y18750
X19392Y19500
X23392Y18000
X24392Y18000
X25892Y18500
X25892Y16000
X8642Y17000
X20642Y2750
X20642Y2000
T02
X16892Y4750
T03
X17142Y1500
X18142Y1500
X19142Y1500
X20142Y1500
X22142Y1500
X23142Y1500
X24142Y1500
X25142Y1500
X26142Y1500
X27142Y1500
X16142Y1500
X15142Y1500
X14142Y1500
X13142Y1500
X7892Y1750
X6892Y2250
X7892Y2750
X6892Y3250
X7892Y3750
X6892Y4250
X7892Y4750
X6892Y5250
X7892Y7750
X6892Y8250
X7892Y8750
X6892Y9250
X7892Y9750
X6892Y10250
X7892Y10750
X6892Y11250
X9542Y20500
X10542Y20500
X11542Y20500
X12542Y20500
X13542Y20500
X14542Y20500
X15542Y20500
X16542Y20500
X17542Y20500
X18542Y20500
X20142Y20500
X21142Y20500
X22142Y20500
X23142Y20500
X24142Y20500
X25142Y20500
X26142Y20500
X27142Y20500
X27192Y12500
X28192Y12500
X28192Y11500
X28192Y10500
X27192Y10500
X27192Y11500
M30
