G75*
G70*
%OFA0B0*%
%FSLAX24Y24*%
%IPPOS*%
%LPD*%
%AMOC8*
5,1,8,0,0,1.08239X$1,22.5*
%
%ADD10C,0.1300*%
%ADD11OC8,0.0700*%
%ADD12OC8,0.0740*%
%ADD13R,0.0740X0.0740*%
%ADD14C,0.0780*%
%ADD15R,0.0780X0.0780*%
%ADD16C,0.0375*%
D10*
X004392Y001250D03*
X004392Y005750D03*
X004392Y007250D03*
X004392Y011750D03*
X008142Y020500D03*
X028142Y014500D03*
X028142Y003500D03*
D11*
X027142Y001500D03*
X026142Y001500D03*
X025142Y001500D03*
X024142Y001500D03*
X023142Y001500D03*
X022142Y001500D03*
X020142Y001500D03*
X019142Y001500D03*
X018142Y001500D03*
X017142Y001500D03*
X016142Y001500D03*
X015142Y001500D03*
X014142Y001500D03*
X013142Y001500D03*
X013542Y020500D03*
X014542Y020500D03*
X015542Y020500D03*
X016542Y020500D03*
X017542Y020500D03*
X018542Y020500D03*
X020142Y020500D03*
X021142Y020500D03*
X022142Y020500D03*
X023142Y020500D03*
X024142Y020500D03*
X025142Y020500D03*
X026142Y020500D03*
X027142Y020500D03*
X012542Y020500D03*
X011542Y020500D03*
X010542Y020500D03*
X009542Y020500D03*
D12*
X027192Y011500D03*
X028192Y011500D03*
X028192Y010500D03*
X027192Y010500D03*
X028192Y012500D03*
D13*
X027192Y012500D03*
D14*
X007892Y010750D03*
X006892Y010250D03*
X007892Y009750D03*
X006892Y009250D03*
X007892Y008750D03*
X006892Y008250D03*
X007892Y007750D03*
X007892Y004750D03*
X006892Y004250D03*
X007892Y003750D03*
X006892Y003250D03*
X007892Y002750D03*
X006892Y002250D03*
X007892Y001750D03*
D15*
X006892Y005250D03*
X006892Y011250D03*
D16*
X008642Y014909D03*
X008642Y016091D03*
M02*
