G75*
G70*
%OFA0B0*%
%FSLAX24Y24*%
%IPPOS*%
%LPD*%
%AMOC8*
5,1,8,0,0,1.08239X$1,22.5*
%
%ADD10OC8,0.0660*%
%ADD11OC8,0.0700*%
%ADD12R,0.0700X0.0700*%
%ADD13C,0.0740*%
%ADD14R,0.0740X0.0740*%
%ADD15C,0.0238*%
%ADD16C,0.0100*%
%ADD17C,0.0317*%
%ADD18C,0.0400*%
%ADD19C,0.0200*%
%ADD20C,0.0240*%
D10*
X013142Y001500D03*
X014142Y001500D03*
X015142Y001500D03*
X016142Y001500D03*
X017142Y001500D03*
X018142Y001500D03*
X019142Y001500D03*
X020142Y001500D03*
X022142Y001500D03*
X023142Y001500D03*
X024142Y001500D03*
X025142Y001500D03*
X026142Y001500D03*
X027142Y001500D03*
X027142Y020500D03*
X026142Y020500D03*
X025142Y020500D03*
X024142Y020500D03*
X023142Y020500D03*
X022142Y020500D03*
X021142Y020500D03*
X020142Y020500D03*
X018542Y020500D03*
X017542Y020500D03*
X016542Y020500D03*
X015542Y020500D03*
X014542Y020500D03*
X013542Y020500D03*
X012542Y020500D03*
X011542Y020500D03*
X010542Y020500D03*
X009542Y020500D03*
D11*
X027192Y011500D03*
X028192Y011500D03*
X028192Y010500D03*
X027192Y010500D03*
X028192Y012500D03*
D12*
X027192Y012500D03*
D13*
X007892Y010750D03*
X006892Y010250D03*
X007892Y009750D03*
X006892Y009250D03*
X007892Y008750D03*
X006892Y008250D03*
X007892Y007750D03*
X007892Y004750D03*
X006892Y004250D03*
X007892Y003750D03*
X006892Y003250D03*
X007892Y002750D03*
X006892Y002250D03*
X007892Y001750D03*
D14*
X006892Y005250D03*
X006892Y011250D03*
D15*
X008892Y011250D03*
X014767Y009000D03*
X015017Y008750D03*
X015267Y008500D03*
X015517Y008250D03*
X015017Y008250D03*
X014767Y008500D03*
X015267Y009000D03*
X015517Y008750D03*
X015267Y008000D03*
X014767Y008000D03*
X016767Y009250D03*
X018642Y013000D03*
X021142Y014500D03*
X022392Y014250D03*
X019392Y016500D03*
X016892Y017250D03*
X015142Y018000D03*
X018392Y018750D03*
X019392Y019500D03*
X023392Y018000D03*
X024392Y018000D03*
X025892Y018500D03*
X025892Y016000D03*
X008642Y017000D03*
X005642Y005250D03*
X005892Y004750D03*
X006142Y004250D03*
X020642Y002750D03*
X020642Y002000D03*
D16*
X020642Y002750D01*
X016892Y004750D02*
X016767Y004875D01*
X016767Y009250D01*
X018642Y013000D02*
X018642Y014250D01*
X012542Y014250D01*
X012542Y016500D02*
X019392Y016500D01*
X016892Y017250D02*
X012542Y017250D01*
X012542Y017000D02*
X008642Y017000D01*
X012542Y018000D02*
X015142Y018000D01*
X012542Y019500D02*
X019392Y019500D01*
X018392Y018750D02*
X025642Y018750D01*
X025892Y018500D01*
X025892Y016000D01*
X024392Y018000D02*
X023392Y018000D01*
X021142Y014500D02*
X020892Y014250D01*
X018642Y014250D01*
X020892Y014250D02*
X022392Y014250D01*
X008892Y011250D02*
X006892Y011250D01*
X006892Y005250D02*
X005642Y005250D01*
X005892Y004750D02*
X007892Y004750D01*
X006892Y004250D02*
X006142Y004250D01*
D17*
X016892Y004750D03*
D18*
X017142Y004500D01*
X017142Y001500D01*
X010392Y007750D02*
X012542Y009900D01*
X012542Y014250D01*
X012542Y016500D01*
X012542Y017000D01*
X012542Y017250D01*
X012542Y018000D01*
X012542Y019500D01*
X012542Y020500D01*
D19*
X002842Y012800D02*
X002842Y000700D01*
X003768Y000700D01*
X003688Y000780D01*
X003562Y001085D01*
X003562Y001415D01*
X003688Y001720D01*
X003922Y001954D01*
X004227Y002080D01*
X004557Y002080D01*
X004862Y001954D01*
X005096Y001720D01*
X005222Y001415D01*
X005222Y001085D01*
X005096Y000780D01*
X005016Y000700D01*
X027942Y000700D01*
X027942Y001583D01*
X028059Y001700D01*
X028942Y002583D01*
X028942Y003263D01*
X028846Y003030D01*
X028612Y002796D01*
X028307Y002670D01*
X027977Y002670D01*
X027672Y002796D01*
X027438Y003030D01*
X027312Y003335D01*
X027312Y003665D01*
X027438Y003970D01*
X027672Y004204D01*
X027977Y004330D01*
X028307Y004330D01*
X028612Y004204D01*
X028846Y003970D01*
X028942Y003737D01*
X028942Y014263D01*
X028846Y014030D01*
X028612Y013796D01*
X028307Y013670D01*
X027977Y013670D01*
X027672Y013796D01*
X027438Y014030D01*
X027312Y014335D01*
X027312Y014665D01*
X027438Y014970D01*
X027672Y015204D01*
X027977Y015330D01*
X028307Y015330D01*
X028612Y015204D01*
X028846Y014970D01*
X028942Y014737D01*
X028942Y015417D01*
X027942Y016417D01*
X027942Y020917D01*
X027559Y021300D01*
X008379Y021300D01*
X008612Y021204D01*
X008846Y020970D01*
X008972Y020665D01*
X008972Y020335D01*
X008846Y020030D01*
X008612Y019796D01*
X008307Y019670D01*
X007977Y019670D01*
X007672Y019796D01*
X007438Y020030D01*
X007312Y020335D01*
X007312Y020665D01*
X007438Y020970D01*
X007672Y021204D01*
X007905Y021300D01*
X002842Y021300D01*
X002842Y018200D01*
X006225Y018200D01*
X006342Y018083D01*
X006342Y012917D01*
X006225Y012800D01*
X002842Y012800D01*
X002842Y012609D02*
X026682Y012609D01*
X026682Y012807D02*
X006232Y012807D01*
X006342Y013006D02*
X026771Y013006D01*
X026776Y013010D02*
X026682Y012916D01*
X026682Y012084D01*
X026776Y011990D01*
X026961Y011990D01*
X026682Y011711D01*
X026682Y011289D01*
X026971Y011000D01*
X026682Y010711D01*
X026682Y010289D01*
X026981Y009990D01*
X027403Y009990D01*
X027692Y010279D01*
X027981Y009990D01*
X028403Y009990D01*
X028702Y010289D01*
X028702Y010711D01*
X028413Y011000D01*
X028702Y011289D01*
X028702Y011711D01*
X028413Y012000D01*
X028702Y012289D01*
X028702Y012711D01*
X028403Y013010D01*
X027981Y013010D01*
X027702Y012731D01*
X027702Y012916D01*
X027608Y013010D01*
X026776Y013010D01*
X026682Y012410D02*
X004906Y012410D01*
X004862Y012454D02*
X004557Y012580D01*
X004227Y012580D01*
X003922Y012454D01*
X003688Y012220D01*
X003562Y011915D01*
X003562Y011585D01*
X003688Y011280D01*
X003922Y011046D01*
X004227Y010920D01*
X004557Y010920D01*
X004862Y011046D01*
X005096Y011280D01*
X005222Y011585D01*
X005222Y011915D01*
X005096Y012220D01*
X004862Y012454D01*
X005099Y012212D02*
X026682Y012212D01*
X026753Y012013D02*
X005181Y012013D01*
X005222Y011815D02*
X026785Y011815D01*
X026682Y011616D02*
X007422Y011616D01*
X007422Y011686D02*
X007328Y011780D01*
X006456Y011780D01*
X006362Y011686D01*
X006362Y010814D01*
X006456Y010720D01*
X006642Y010720D01*
X006592Y010699D01*
X006443Y010550D01*
X006362Y010355D01*
X006362Y010145D01*
X006443Y009950D01*
X006592Y009801D01*
X006714Y009750D01*
X006592Y009699D01*
X006443Y009550D01*
X006362Y009355D01*
X006362Y009145D01*
X006443Y008950D01*
X006592Y008801D01*
X006661Y008772D01*
X006593Y008738D01*
X006521Y008685D01*
X006457Y008621D01*
X006404Y008549D01*
X006364Y008469D01*
X006336Y008383D01*
X006322Y008295D01*
X006322Y008250D01*
X006322Y008205D01*
X006336Y008117D01*
X006364Y008031D01*
X006404Y007951D01*
X006457Y007879D01*
X006521Y007815D01*
X006593Y007762D01*
X006673Y007722D01*
X006758Y007694D01*
X006847Y007680D01*
X006892Y007680D01*
X006937Y007680D01*
X007025Y007694D01*
X007111Y007722D01*
X007191Y007762D01*
X007263Y007815D01*
X007327Y007879D01*
X007341Y007898D01*
X007336Y007883D01*
X007322Y007795D01*
X007322Y007750D01*
X007322Y007705D01*
X007336Y007617D01*
X007364Y007531D01*
X007404Y007451D01*
X007457Y007379D01*
X007521Y007315D01*
X007593Y007262D01*
X007673Y007222D01*
X007758Y007194D01*
X007847Y007180D01*
X007892Y007180D01*
X007937Y007180D01*
X008025Y007194D01*
X008111Y007222D01*
X008191Y007262D01*
X008263Y007315D01*
X008327Y007379D01*
X008379Y007451D01*
X008420Y007531D01*
X008448Y007617D01*
X008462Y007705D01*
X008462Y007750D01*
X008462Y007795D01*
X008448Y007883D01*
X008420Y007969D01*
X008379Y008049D01*
X008327Y008121D01*
X008263Y008185D01*
X008191Y008238D01*
X008123Y008272D01*
X008192Y008301D01*
X008341Y008450D01*
X008422Y008645D01*
X008422Y008855D01*
X008341Y009050D01*
X008192Y009199D01*
X008070Y009250D01*
X008192Y009301D01*
X008341Y009450D01*
X008422Y009645D01*
X008422Y009855D01*
X008341Y010050D01*
X008192Y010199D01*
X008070Y010250D01*
X008192Y010301D01*
X008341Y010450D01*
X008422Y010645D01*
X008422Y010855D01*
X008346Y011040D01*
X008707Y011040D01*
X008734Y011013D01*
X008836Y010971D01*
X008947Y010971D01*
X009050Y011013D01*
X009129Y011092D01*
X009171Y011194D01*
X009171Y011306D01*
X009129Y011408D01*
X009050Y011487D01*
X008947Y011529D01*
X008836Y011529D01*
X008734Y011487D01*
X008707Y011460D01*
X007422Y011460D01*
X007422Y011686D01*
X008354Y011021D02*
X008727Y011021D01*
X009057Y011021D02*
X026950Y011021D01*
X026793Y010822D02*
X008422Y010822D01*
X008413Y010624D02*
X026682Y010624D01*
X026682Y010425D02*
X008317Y010425D01*
X008127Y010227D02*
X026744Y010227D01*
X026943Y010028D02*
X008350Y010028D01*
X008422Y009830D02*
X028942Y009830D01*
X028942Y010028D02*
X028441Y010028D01*
X028640Y010227D02*
X028942Y010227D01*
X028942Y010425D02*
X028702Y010425D01*
X028702Y010624D02*
X028942Y010624D01*
X028942Y010822D02*
X028591Y010822D01*
X028434Y011021D02*
X028942Y011021D01*
X028942Y011219D02*
X028632Y011219D01*
X028702Y011418D02*
X028942Y011418D01*
X028942Y011616D02*
X028702Y011616D01*
X028599Y011815D02*
X028942Y011815D01*
X028942Y012013D02*
X028426Y012013D01*
X028625Y012212D02*
X028942Y012212D01*
X028942Y012410D02*
X028702Y012410D01*
X028702Y012609D02*
X028942Y012609D01*
X028942Y012807D02*
X028606Y012807D01*
X028408Y013006D02*
X028942Y013006D01*
X028942Y013204D02*
X006342Y013204D01*
X006342Y013403D02*
X028942Y013403D01*
X028942Y013601D02*
X006342Y013601D01*
X006342Y013800D02*
X027669Y013800D01*
X027470Y013998D02*
X006342Y013998D01*
X006342Y014197D02*
X027369Y014197D01*
X027312Y014395D02*
X006342Y014395D01*
X006342Y014594D02*
X008445Y014594D01*
X008434Y014598D02*
X008569Y014542D01*
X008715Y014542D01*
X008850Y014598D01*
X008953Y014701D01*
X009009Y014836D01*
X009009Y014983D01*
X008953Y015118D01*
X008850Y015221D01*
X008715Y015277D01*
X008569Y015277D01*
X008434Y015221D01*
X008331Y015118D01*
X008275Y014983D01*
X008275Y014836D01*
X008331Y014701D01*
X008434Y014598D01*
X008293Y014792D02*
X006342Y014792D01*
X006342Y014991D02*
X008278Y014991D01*
X008402Y015189D02*
X006342Y015189D01*
X006342Y015388D02*
X028942Y015388D01*
X028942Y015189D02*
X028627Y015189D01*
X028825Y014991D02*
X028942Y014991D01*
X028942Y014792D02*
X028919Y014792D01*
X028915Y014197D02*
X028942Y014197D01*
X028942Y013998D02*
X028814Y013998D01*
X028942Y013800D02*
X028615Y013800D01*
X027976Y013006D02*
X027613Y013006D01*
X027702Y012807D02*
X027778Y012807D01*
X026682Y011418D02*
X009119Y011418D01*
X009171Y011219D02*
X026752Y011219D01*
X027640Y010227D02*
X027744Y010227D01*
X027943Y010028D02*
X027441Y010028D01*
X028942Y009631D02*
X008416Y009631D01*
X008324Y009433D02*
X016555Y009433D01*
X016530Y009408D02*
X016488Y009306D01*
X016488Y009194D01*
X016530Y009092D01*
X016557Y009065D01*
X016557Y004882D01*
X016532Y004822D01*
X016532Y004678D01*
X016587Y004546D01*
X016782Y004351D01*
X016782Y001833D01*
X016652Y001703D01*
X016652Y001297D01*
X016939Y001010D01*
X017345Y001010D01*
X017632Y001297D01*
X017632Y001703D01*
X017502Y001833D01*
X017502Y004572D01*
X017447Y004704D01*
X017096Y005055D01*
X016977Y005104D01*
X016977Y009065D01*
X017004Y009092D01*
X017046Y009194D01*
X017046Y009306D01*
X017004Y009408D01*
X016925Y009487D01*
X016822Y009529D01*
X016711Y009529D01*
X016609Y009487D01*
X016530Y009408D01*
X016488Y009234D02*
X008108Y009234D01*
X008347Y009036D02*
X016557Y009036D01*
X016557Y008837D02*
X008422Y008837D01*
X008419Y008639D02*
X016557Y008639D01*
X016557Y008440D02*
X008332Y008440D01*
X008183Y008242D02*
X016557Y008242D01*
X016557Y008043D02*
X008382Y008043D01*
X008454Y007845D02*
X016557Y007845D01*
X016557Y007646D02*
X008453Y007646D01*
X008462Y007750D02*
X007892Y007750D01*
X008462Y007750D01*
X008377Y007448D02*
X016557Y007448D01*
X016557Y007249D02*
X008164Y007249D01*
X007892Y007249D02*
X007892Y007249D01*
X007892Y007180D02*
X007892Y007750D01*
X007892Y007750D01*
X007892Y007180D01*
X007892Y007448D02*
X007892Y007448D01*
X007892Y007646D02*
X007892Y007646D01*
X007892Y007750D02*
X007892Y007750D01*
X007322Y007750D01*
X007892Y007750D01*
X007892Y007750D01*
X007407Y007448D02*
X005208Y007448D01*
X005222Y007415D02*
X005096Y007720D01*
X004862Y007954D01*
X004557Y008080D01*
X004227Y008080D01*
X003922Y007954D01*
X003688Y007720D01*
X003562Y007415D01*
X003562Y007085D01*
X003688Y006780D01*
X003922Y006546D01*
X004034Y006500D01*
X003922Y006454D01*
X003688Y006220D01*
X003562Y005915D01*
X003562Y005585D01*
X003688Y005280D01*
X003922Y005046D01*
X004227Y004920D01*
X004557Y004920D01*
X004862Y005046D01*
X005096Y005280D01*
X005222Y005585D01*
X005222Y005915D01*
X005096Y006220D01*
X004862Y006454D01*
X004750Y006500D01*
X004862Y006546D01*
X005096Y006780D01*
X005222Y007085D01*
X005222Y007415D01*
X005222Y007249D02*
X007620Y007249D01*
X007331Y007646D02*
X005126Y007646D01*
X004971Y007845D02*
X006491Y007845D01*
X006360Y008043D02*
X004646Y008043D01*
X004138Y008043D02*
X002842Y008043D01*
X002842Y007845D02*
X003813Y007845D01*
X003658Y007646D02*
X002842Y007646D01*
X002842Y007448D02*
X003575Y007448D01*
X003562Y007249D02*
X002842Y007249D01*
X002842Y007051D02*
X003576Y007051D01*
X003659Y006852D02*
X002842Y006852D01*
X002842Y006654D02*
X003815Y006654D01*
X003925Y006455D02*
X002842Y006455D01*
X002842Y006257D02*
X003725Y006257D01*
X003621Y006058D02*
X002842Y006058D01*
X002842Y005860D02*
X003562Y005860D01*
X003562Y005661D02*
X002842Y005661D01*
X002842Y005463D02*
X003613Y005463D01*
X003704Y005264D02*
X002842Y005264D01*
X002842Y005066D02*
X003903Y005066D01*
X004881Y005066D02*
X005432Y005066D01*
X005405Y005092D02*
X005484Y005013D01*
X005586Y004971D01*
X005697Y004971D01*
X005733Y004986D01*
X005655Y004908D01*
X005613Y004806D01*
X005613Y004694D01*
X005655Y004592D01*
X005734Y004513D01*
X005836Y004471D01*
X005947Y004471D01*
X005983Y004486D01*
X005905Y004408D01*
X005863Y004306D01*
X005863Y004194D01*
X005905Y004092D01*
X005984Y004013D01*
X006086Y003971D01*
X006197Y003971D01*
X006300Y004013D01*
X006327Y004040D01*
X006405Y004040D01*
X006443Y003950D01*
X006592Y003801D01*
X006714Y003750D01*
X006592Y003699D01*
X006443Y003550D01*
X006362Y003355D01*
X006362Y003145D01*
X006443Y002950D01*
X006592Y002801D01*
X006661Y002772D01*
X006593Y002738D01*
X006521Y002685D01*
X006457Y002621D01*
X006404Y002549D01*
X006364Y002469D01*
X006336Y002383D01*
X006322Y002295D01*
X006322Y002250D01*
X006322Y002205D01*
X006336Y002117D01*
X006364Y002031D01*
X006404Y001951D01*
X006457Y001879D01*
X006521Y001815D01*
X006593Y001762D01*
X006673Y001722D01*
X006758Y001694D01*
X006847Y001680D01*
X006892Y001680D01*
X006937Y001680D01*
X007025Y001694D01*
X007111Y001722D01*
X007191Y001762D01*
X007263Y001815D01*
X007327Y001879D01*
X007341Y001898D01*
X007336Y001883D01*
X007322Y001795D01*
X007322Y001750D01*
X007322Y001705D01*
X007336Y001617D01*
X007364Y001531D01*
X007404Y001451D01*
X007457Y001379D01*
X007521Y001315D01*
X007593Y001262D01*
X007673Y001222D01*
X007758Y001194D01*
X007847Y001180D01*
X007892Y001180D01*
X007937Y001180D01*
X008025Y001194D01*
X008111Y001222D01*
X008191Y001262D01*
X008263Y001315D01*
X008327Y001379D01*
X008379Y001451D01*
X008420Y001531D01*
X008448Y001617D01*
X008462Y001705D01*
X008462Y001750D01*
X008462Y001795D01*
X008448Y001883D01*
X008420Y001969D01*
X008379Y002049D01*
X008327Y002121D01*
X008263Y002185D01*
X008191Y002238D01*
X008123Y002272D01*
X008192Y002301D01*
X008341Y002450D01*
X008422Y002645D01*
X008422Y002855D01*
X008341Y003050D01*
X008192Y003199D01*
X008070Y003250D01*
X008192Y003301D01*
X008341Y003450D01*
X008422Y003645D01*
X008422Y003855D01*
X008341Y004050D01*
X008192Y004199D01*
X008070Y004250D01*
X008192Y004301D01*
X008341Y004450D01*
X008422Y004645D01*
X008422Y004855D01*
X008341Y005050D01*
X008192Y005199D01*
X007997Y005280D01*
X007787Y005280D01*
X007592Y005199D01*
X007443Y005050D01*
X007422Y005000D01*
X007422Y005686D01*
X007328Y005780D01*
X006456Y005780D01*
X006362Y005686D01*
X006362Y005460D01*
X005827Y005460D01*
X005800Y005487D01*
X005697Y005529D01*
X005586Y005529D01*
X005484Y005487D01*
X005405Y005408D01*
X005363Y005306D01*
X005363Y005194D01*
X005405Y005092D01*
X005363Y005264D02*
X005080Y005264D01*
X005171Y005463D02*
X005460Y005463D01*
X005222Y005661D02*
X006362Y005661D01*
X006362Y005463D02*
X005824Y005463D01*
X005222Y005860D02*
X016557Y005860D01*
X016557Y006058D02*
X005163Y006058D01*
X005059Y006257D02*
X016557Y006257D01*
X016557Y006455D02*
X004859Y006455D01*
X004969Y006654D02*
X016557Y006654D01*
X016557Y006852D02*
X005125Y006852D01*
X005208Y007051D02*
X016557Y007051D01*
X016977Y007051D02*
X028942Y007051D01*
X028942Y007249D02*
X016977Y007249D01*
X016977Y007448D02*
X028942Y007448D01*
X028942Y007646D02*
X016977Y007646D01*
X016977Y007845D02*
X028942Y007845D01*
X028942Y008043D02*
X016977Y008043D01*
X016977Y008242D02*
X028942Y008242D01*
X028942Y008440D02*
X016977Y008440D01*
X016977Y008639D02*
X028942Y008639D01*
X028942Y008837D02*
X016977Y008837D01*
X016977Y009036D02*
X028942Y009036D01*
X028942Y009234D02*
X017046Y009234D01*
X016979Y009433D02*
X028942Y009433D01*
X028942Y006852D02*
X016977Y006852D01*
X016977Y006654D02*
X028942Y006654D01*
X028942Y006455D02*
X016977Y006455D01*
X016977Y006257D02*
X028942Y006257D01*
X028942Y006058D02*
X016977Y006058D01*
X016977Y005860D02*
X028942Y005860D01*
X028942Y005661D02*
X016977Y005661D01*
X016977Y005463D02*
X028942Y005463D01*
X028942Y005264D02*
X016977Y005264D01*
X017071Y005066D02*
X028942Y005066D01*
X028942Y004867D02*
X017284Y004867D01*
X017462Y004669D02*
X028942Y004669D01*
X028942Y004470D02*
X017502Y004470D01*
X017502Y004272D02*
X027836Y004272D01*
X027541Y004073D02*
X017502Y004073D01*
X017502Y003875D02*
X027399Y003875D01*
X027317Y003676D02*
X017502Y003676D01*
X017502Y003478D02*
X027312Y003478D01*
X027335Y003279D02*
X017502Y003279D01*
X017502Y003081D02*
X027417Y003081D01*
X027586Y002882D02*
X020889Y002882D01*
X020879Y002908D02*
X020800Y002987D01*
X020697Y003029D01*
X020586Y003029D01*
X020484Y002987D01*
X020405Y002908D01*
X020363Y002806D01*
X020363Y002694D01*
X020405Y002592D01*
X020432Y002565D01*
X020432Y002185D01*
X020405Y002158D01*
X020363Y002056D01*
X020363Y001972D01*
X020345Y001990D01*
X019939Y001990D01*
X019652Y001703D01*
X019652Y001297D01*
X019939Y001010D01*
X020345Y001010D01*
X020632Y001297D01*
X020632Y001703D01*
X020614Y001721D01*
X020697Y001721D01*
X020800Y001763D01*
X020879Y001842D01*
X020921Y001944D01*
X020921Y002056D01*
X020879Y002158D01*
X020852Y002185D01*
X020852Y002565D01*
X020879Y002592D01*
X020921Y002694D01*
X020921Y002806D01*
X020879Y002908D01*
X020916Y002684D02*
X027944Y002684D01*
X028339Y002684D02*
X028942Y002684D01*
X028942Y002882D02*
X028698Y002882D01*
X028867Y003081D02*
X028942Y003081D01*
X028844Y002485D02*
X020852Y002485D01*
X020852Y002287D02*
X028646Y002287D01*
X028447Y002088D02*
X020908Y002088D01*
X020898Y001890D02*
X021839Y001890D01*
X021939Y001990D02*
X021652Y001703D01*
X021652Y001297D01*
X021939Y001010D01*
X022345Y001010D01*
X022632Y001297D01*
X022632Y001703D01*
X022345Y001990D01*
X021939Y001990D01*
X021652Y001691D02*
X020632Y001691D01*
X020632Y001493D02*
X021652Y001493D01*
X021655Y001294D02*
X020629Y001294D01*
X020430Y001096D02*
X021854Y001096D01*
X022430Y001096D02*
X022854Y001096D01*
X022939Y001010D02*
X022652Y001297D01*
X022652Y001703D01*
X022939Y001990D01*
X023345Y001990D01*
X023632Y001703D01*
X023632Y001297D01*
X023345Y001010D01*
X022939Y001010D01*
X022655Y001294D02*
X022629Y001294D01*
X022632Y001493D02*
X022652Y001493D01*
X022652Y001691D02*
X022632Y001691D01*
X022445Y001890D02*
X022839Y001890D01*
X023445Y001890D02*
X023839Y001890D01*
X023939Y001990D02*
X023652Y001703D01*
X023652Y001297D01*
X023939Y001010D01*
X024345Y001010D01*
X024632Y001297D01*
X024632Y001703D01*
X024345Y001990D01*
X023939Y001990D01*
X023652Y001691D02*
X023632Y001691D01*
X023632Y001493D02*
X023652Y001493D01*
X023655Y001294D02*
X023629Y001294D01*
X023430Y001096D02*
X023854Y001096D01*
X024430Y001096D02*
X024854Y001096D01*
X024939Y001010D02*
X024652Y001297D01*
X024652Y001703D01*
X024939Y001990D01*
X025345Y001990D01*
X025632Y001703D01*
X025632Y001297D01*
X025345Y001010D01*
X024939Y001010D01*
X024655Y001294D02*
X024629Y001294D01*
X024632Y001493D02*
X024652Y001493D01*
X024652Y001691D02*
X024632Y001691D01*
X024445Y001890D02*
X024839Y001890D01*
X025445Y001890D02*
X025839Y001890D01*
X025939Y001990D02*
X025652Y001703D01*
X025652Y001297D01*
X025939Y001010D01*
X026345Y001010D01*
X026632Y001297D01*
X026632Y001703D01*
X026345Y001990D01*
X025939Y001990D01*
X025652Y001691D02*
X025632Y001691D01*
X025632Y001493D02*
X025652Y001493D01*
X025655Y001294D02*
X025629Y001294D01*
X025430Y001096D02*
X025854Y001096D01*
X026430Y001096D02*
X026854Y001096D01*
X026939Y001010D02*
X027345Y001010D01*
X027632Y001297D01*
X027632Y001703D01*
X027345Y001990D01*
X026939Y001990D01*
X026652Y001703D01*
X026652Y001297D01*
X026939Y001010D01*
X026655Y001294D02*
X026629Y001294D01*
X026632Y001493D02*
X026652Y001493D01*
X026652Y001691D02*
X026632Y001691D01*
X026445Y001890D02*
X026839Y001890D01*
X027445Y001890D02*
X028249Y001890D01*
X028050Y001691D02*
X027632Y001691D01*
X027632Y001493D02*
X027942Y001493D01*
X027942Y001294D02*
X027629Y001294D01*
X027430Y001096D02*
X027942Y001096D01*
X027942Y000897D02*
X005144Y000897D01*
X005222Y001096D02*
X012854Y001096D01*
X012939Y001010D02*
X012652Y001297D01*
X012652Y001703D01*
X012939Y001990D01*
X013345Y001990D01*
X013632Y001703D01*
X013632Y001297D01*
X013345Y001010D01*
X012939Y001010D01*
X012655Y001294D02*
X008234Y001294D01*
X008400Y001493D02*
X012652Y001493D01*
X012652Y001691D02*
X008460Y001691D01*
X008462Y001750D02*
X007892Y001750D01*
X008462Y001750D01*
X008446Y001890D02*
X012839Y001890D01*
X013445Y001890D02*
X013839Y001890D01*
X013939Y001990D02*
X013652Y001703D01*
X013652Y001297D01*
X013939Y001010D01*
X014345Y001010D01*
X014632Y001297D01*
X014632Y001703D01*
X014345Y001990D01*
X013939Y001990D01*
X013652Y001691D02*
X013632Y001691D01*
X013632Y001493D02*
X013652Y001493D01*
X013655Y001294D02*
X013629Y001294D01*
X013430Y001096D02*
X013854Y001096D01*
X014430Y001096D02*
X014854Y001096D01*
X014939Y001010D02*
X015345Y001010D01*
X015632Y001297D01*
X015632Y001703D01*
X015345Y001990D01*
X014939Y001990D01*
X014652Y001703D01*
X014652Y001297D01*
X014939Y001010D01*
X014655Y001294D02*
X014629Y001294D01*
X014632Y001493D02*
X014652Y001493D01*
X014652Y001691D02*
X014632Y001691D01*
X014445Y001890D02*
X014839Y001890D01*
X015445Y001890D02*
X015839Y001890D01*
X015939Y001990D02*
X015652Y001703D01*
X015652Y001297D01*
X015939Y001010D01*
X016345Y001010D01*
X016632Y001297D01*
X016632Y001703D01*
X016345Y001990D01*
X015939Y001990D01*
X015652Y001691D02*
X015632Y001691D01*
X015632Y001493D02*
X015652Y001493D01*
X015655Y001294D02*
X015629Y001294D01*
X015430Y001096D02*
X015854Y001096D01*
X016430Y001096D02*
X016854Y001096D01*
X016655Y001294D02*
X016629Y001294D01*
X016632Y001493D02*
X016652Y001493D01*
X016652Y001691D02*
X016632Y001691D01*
X016782Y001890D02*
X016445Y001890D01*
X016782Y002088D02*
X008351Y002088D01*
X008158Y002287D02*
X016782Y002287D01*
X016782Y002485D02*
X008356Y002485D01*
X008422Y002684D02*
X016782Y002684D01*
X016782Y002882D02*
X008411Y002882D01*
X008311Y003081D02*
X016782Y003081D01*
X016782Y003279D02*
X008140Y003279D01*
X008353Y003478D02*
X016782Y003478D01*
X016782Y003676D02*
X008422Y003676D01*
X008414Y003875D02*
X016782Y003875D01*
X016782Y004073D02*
X008318Y004073D01*
X008122Y004272D02*
X016782Y004272D01*
X016663Y004470D02*
X008350Y004470D01*
X008422Y004669D02*
X016536Y004669D01*
X016551Y004867D02*
X008417Y004867D01*
X008326Y005066D02*
X016557Y005066D01*
X016557Y005264D02*
X008036Y005264D01*
X007748Y005264D02*
X007422Y005264D01*
X007422Y005066D02*
X007458Y005066D01*
X007422Y005463D02*
X016557Y005463D01*
X016557Y005661D02*
X007422Y005661D01*
X007405Y004540D02*
X007443Y004450D01*
X007592Y004301D01*
X007714Y004250D01*
X007592Y004199D01*
X007443Y004050D01*
X007362Y003855D01*
X007362Y003645D01*
X007443Y003450D01*
X007592Y003301D01*
X007714Y003250D01*
X007592Y003199D01*
X007443Y003050D01*
X007362Y002855D01*
X007362Y002645D01*
X007443Y002450D01*
X007592Y002301D01*
X007661Y002272D01*
X007593Y002238D01*
X007521Y002185D01*
X007457Y002121D01*
X007443Y002102D01*
X007448Y002117D01*
X007462Y002205D01*
X007462Y002250D01*
X007462Y002295D01*
X007448Y002383D01*
X007420Y002469D01*
X007379Y002549D01*
X007327Y002621D01*
X007263Y002685D01*
X007191Y002738D01*
X007123Y002772D01*
X007192Y002801D01*
X007341Y002950D01*
X007422Y003145D01*
X007422Y003355D01*
X007341Y003550D01*
X007192Y003699D01*
X007070Y003750D01*
X007192Y003801D01*
X007341Y003950D01*
X007422Y004145D01*
X007422Y004355D01*
X007346Y004540D01*
X007405Y004540D01*
X007434Y004470D02*
X007375Y004470D01*
X007422Y004272D02*
X007662Y004272D01*
X007465Y004073D02*
X007392Y004073D01*
X007370Y003875D02*
X007266Y003875D01*
X007215Y003676D02*
X007362Y003676D01*
X007371Y003478D02*
X007431Y003478D01*
X007422Y003279D02*
X007644Y003279D01*
X007473Y003081D02*
X007395Y003081D01*
X007373Y002882D02*
X007274Y002882D01*
X007265Y002684D02*
X007362Y002684D01*
X007412Y002485D02*
X007428Y002485D01*
X007462Y002287D02*
X007626Y002287D01*
X007462Y002250D02*
X006892Y002250D01*
X006892Y002250D01*
X007462Y002250D01*
X007338Y001890D02*
X007335Y001890D01*
X007322Y001750D02*
X007892Y001750D01*
X007892Y001750D01*
X007892Y001180D01*
X007892Y001750D01*
X007892Y001750D01*
X007322Y001750D01*
X007324Y001691D02*
X007006Y001691D01*
X006892Y001691D02*
X006892Y001691D01*
X006892Y001680D02*
X006892Y002250D01*
X006892Y001680D01*
X006778Y001691D02*
X005108Y001691D01*
X005190Y001493D02*
X007383Y001493D01*
X007550Y001294D02*
X005222Y001294D01*
X004926Y001890D02*
X006449Y001890D01*
X006345Y002088D02*
X002842Y002088D01*
X002842Y001890D02*
X003858Y001890D01*
X003676Y001691D02*
X002842Y001691D01*
X002842Y001493D02*
X003594Y001493D01*
X003562Y001294D02*
X002842Y001294D01*
X002842Y001096D02*
X003562Y001096D01*
X003640Y000897D02*
X002842Y000897D01*
X002842Y002287D02*
X006322Y002287D01*
X006322Y002250D02*
X006892Y002250D01*
X006892Y002250D01*
X006322Y002250D01*
X006372Y002485D02*
X002842Y002485D01*
X002842Y002684D02*
X006519Y002684D01*
X006510Y002882D02*
X002842Y002882D01*
X002842Y003081D02*
X006389Y003081D01*
X006362Y003279D02*
X002842Y003279D01*
X002842Y003478D02*
X006413Y003478D01*
X006568Y003676D02*
X002842Y003676D01*
X002842Y003875D02*
X006518Y003875D01*
X005924Y004073D02*
X002842Y004073D01*
X002842Y004272D02*
X005863Y004272D01*
X005967Y004470D02*
X002842Y004470D01*
X002842Y004669D02*
X005624Y004669D01*
X005638Y004867D02*
X002842Y004867D01*
X006892Y002250D02*
X006892Y002250D01*
X006892Y002088D02*
X006892Y002088D01*
X006892Y001890D02*
X006892Y001890D01*
X007892Y001750D02*
X007892Y001750D01*
X007892Y001691D02*
X007892Y001691D01*
X007892Y001493D02*
X007892Y001493D01*
X007892Y001294D02*
X007892Y001294D01*
X006892Y007680D02*
X006892Y008250D01*
X007462Y008250D01*
X007462Y008295D01*
X007448Y008383D01*
X007420Y008469D01*
X007379Y008549D01*
X007327Y008621D01*
X007263Y008685D01*
X007191Y008738D01*
X007123Y008772D01*
X007192Y008801D01*
X007341Y008950D01*
X007422Y009145D01*
X007422Y009355D01*
X007341Y009550D01*
X007192Y009699D01*
X007070Y009750D01*
X007192Y009801D01*
X007341Y009950D01*
X007422Y010145D01*
X007422Y010355D01*
X007341Y010550D01*
X007192Y010699D01*
X007142Y010720D01*
X007328Y010720D01*
X007362Y010754D01*
X007362Y010645D01*
X007443Y010450D01*
X007592Y010301D01*
X007714Y010250D01*
X007592Y010199D01*
X007443Y010050D01*
X007362Y009855D01*
X007362Y009645D01*
X007443Y009450D01*
X007592Y009301D01*
X007714Y009250D01*
X007592Y009199D01*
X007443Y009050D01*
X007362Y008855D01*
X007362Y008645D01*
X007443Y008450D01*
X007592Y008301D01*
X007661Y008272D01*
X007593Y008238D01*
X007521Y008185D01*
X007457Y008121D01*
X007443Y008102D01*
X007448Y008117D01*
X007462Y008205D01*
X007462Y008250D01*
X006892Y008250D01*
X006892Y008250D01*
X006892Y008250D01*
X006892Y007680D01*
X006892Y007845D02*
X006892Y007845D01*
X006892Y008043D02*
X006892Y008043D01*
X006892Y008242D02*
X006892Y008242D01*
X006892Y008250D02*
X006322Y008250D01*
X006892Y008250D01*
X006892Y008250D01*
X007310Y008639D02*
X007364Y008639D01*
X007362Y008837D02*
X007229Y008837D01*
X007377Y009036D02*
X007437Y009036D01*
X007422Y009234D02*
X007676Y009234D01*
X007460Y009433D02*
X007390Y009433D01*
X007368Y009631D02*
X007260Y009631D01*
X007221Y009830D02*
X007362Y009830D01*
X007374Y010028D02*
X007433Y010028D01*
X007422Y010227D02*
X007657Y010227D01*
X007467Y010425D02*
X007393Y010425D01*
X007371Y010624D02*
X007268Y010624D01*
X006516Y010624D02*
X002842Y010624D01*
X002842Y010822D02*
X006362Y010822D01*
X006362Y011021D02*
X004800Y011021D01*
X005035Y011219D02*
X006362Y011219D01*
X006362Y011418D02*
X005153Y011418D01*
X005222Y011616D02*
X006362Y011616D01*
X006391Y010425D02*
X002842Y010425D01*
X002842Y010227D02*
X006362Y010227D01*
X006410Y010028D02*
X002842Y010028D01*
X002842Y009830D02*
X006563Y009830D01*
X006523Y009631D02*
X002842Y009631D01*
X002842Y009433D02*
X006394Y009433D01*
X006362Y009234D02*
X002842Y009234D01*
X002842Y009036D02*
X006407Y009036D01*
X006555Y008837D02*
X002842Y008837D01*
X002842Y008639D02*
X006474Y008639D01*
X006354Y008440D02*
X002842Y008440D01*
X002842Y008242D02*
X006322Y008242D01*
X007293Y007845D02*
X007330Y007845D01*
X007462Y008242D02*
X007601Y008242D01*
X007452Y008440D02*
X007430Y008440D01*
X003984Y011021D02*
X002842Y011021D01*
X002842Y011219D02*
X003749Y011219D01*
X003631Y011418D02*
X002842Y011418D01*
X002842Y011616D02*
X003562Y011616D01*
X003562Y011815D02*
X002842Y011815D01*
X002842Y012013D02*
X003603Y012013D01*
X003685Y012212D02*
X002842Y012212D01*
X002842Y012410D02*
X003878Y012410D01*
X006342Y015586D02*
X028773Y015586D01*
X028575Y015785D02*
X026071Y015785D01*
X026050Y015763D02*
X026129Y015842D01*
X026171Y015944D01*
X026171Y016056D01*
X026129Y016158D01*
X026102Y016185D01*
X026102Y018315D01*
X026129Y018342D01*
X026171Y018444D01*
X026171Y018556D01*
X026129Y018658D01*
X026050Y018737D01*
X025947Y018779D01*
X025910Y018779D01*
X025729Y018960D01*
X018577Y018960D01*
X018550Y018987D01*
X018447Y019029D01*
X018336Y019029D01*
X018234Y018987D01*
X018155Y018908D01*
X018113Y018806D01*
X018113Y018694D01*
X018155Y018592D01*
X018234Y018513D01*
X018336Y018471D01*
X018447Y018471D01*
X018550Y018513D01*
X018577Y018540D01*
X025555Y018540D01*
X025613Y018482D01*
X025613Y018444D01*
X025655Y018342D01*
X025682Y018315D01*
X025682Y016185D01*
X025655Y016158D01*
X025613Y016056D01*
X025613Y015944D01*
X025655Y015842D01*
X025734Y015763D01*
X025836Y015721D01*
X025947Y015721D01*
X026050Y015763D01*
X026171Y015983D02*
X028376Y015983D01*
X028178Y016182D02*
X026105Y016182D01*
X026102Y016380D02*
X027979Y016380D01*
X027942Y016579D02*
X026102Y016579D01*
X026102Y016777D02*
X027942Y016777D01*
X027942Y016976D02*
X026102Y016976D01*
X026102Y017174D02*
X027942Y017174D01*
X027942Y017373D02*
X026102Y017373D01*
X026102Y017571D02*
X027942Y017571D01*
X027942Y017770D02*
X026102Y017770D01*
X026102Y017968D02*
X027942Y017968D01*
X027942Y018167D02*
X026102Y018167D01*
X026138Y018365D02*
X027942Y018365D01*
X027942Y018564D02*
X026168Y018564D01*
X025989Y018762D02*
X027942Y018762D01*
X027942Y018961D02*
X018576Y018961D01*
X018208Y018961D02*
X002842Y018961D01*
X002842Y019159D02*
X027942Y019159D01*
X027942Y019358D02*
X002842Y019358D01*
X002842Y019556D02*
X027942Y019556D01*
X027942Y019755D02*
X008511Y019755D01*
X008769Y019953D02*
X027942Y019953D01*
X027942Y020152D02*
X027486Y020152D01*
X027345Y020010D02*
X027632Y020297D01*
X027632Y020703D01*
X027345Y020990D01*
X026939Y020990D01*
X026652Y020703D01*
X026652Y020297D01*
X026939Y020010D01*
X027345Y020010D01*
X027632Y020350D02*
X027942Y020350D01*
X027942Y020549D02*
X027632Y020549D01*
X027588Y020747D02*
X027942Y020747D01*
X027914Y020946D02*
X027389Y020946D01*
X027715Y021144D02*
X008672Y021144D01*
X008856Y020946D02*
X009295Y020946D01*
X009339Y020990D02*
X009052Y020703D01*
X009052Y020297D01*
X009339Y020010D01*
X009745Y020010D01*
X010032Y020297D01*
X010032Y020703D01*
X009745Y020990D01*
X009339Y020990D01*
X009096Y020747D02*
X008938Y020747D01*
X008972Y020549D02*
X009052Y020549D01*
X009052Y020350D02*
X008972Y020350D01*
X008896Y020152D02*
X009197Y020152D01*
X009886Y020152D02*
X010197Y020152D01*
X010339Y020010D02*
X010052Y020297D01*
X010052Y020703D01*
X010339Y020990D01*
X010745Y020990D01*
X011032Y020703D01*
X011032Y020297D01*
X010745Y020010D01*
X010339Y020010D01*
X010052Y020350D02*
X010032Y020350D01*
X010032Y020549D02*
X010052Y020549D01*
X010096Y020747D02*
X009988Y020747D01*
X009789Y020946D02*
X010295Y020946D01*
X010789Y020946D02*
X011295Y020946D01*
X011339Y020990D02*
X011052Y020703D01*
X011052Y020297D01*
X011339Y020010D01*
X011745Y020010D01*
X012014Y020279D01*
X012322Y019970D01*
X012542Y019970D01*
X012762Y019970D01*
X013070Y020279D01*
X013339Y020010D01*
X013745Y020010D01*
X014032Y020297D01*
X014032Y020703D01*
X013745Y020990D01*
X013339Y020990D01*
X013070Y020721D01*
X012762Y021030D01*
X012542Y021030D01*
X012542Y020500D01*
X012542Y020500D01*
X012542Y019970D01*
X012542Y020500D01*
X012542Y020500D01*
X012542Y021030D01*
X012322Y021030D01*
X012014Y020721D01*
X011745Y020990D01*
X011339Y020990D01*
X011096Y020747D02*
X010988Y020747D01*
X011032Y020549D02*
X011052Y020549D01*
X011052Y020350D02*
X011032Y020350D01*
X010886Y020152D02*
X011197Y020152D01*
X011886Y020152D02*
X012141Y020152D01*
X012542Y020152D02*
X012542Y020152D01*
X012542Y020350D02*
X012542Y020350D01*
X012542Y020549D02*
X012542Y020549D01*
X012542Y020747D02*
X012542Y020747D01*
X012542Y020946D02*
X012542Y020946D01*
X012846Y020946D02*
X013295Y020946D01*
X013096Y020747D02*
X013044Y020747D01*
X013789Y020946D02*
X014295Y020946D01*
X014339Y020990D02*
X014052Y020703D01*
X014052Y020297D01*
X014339Y020010D01*
X014745Y020010D01*
X015032Y020297D01*
X015032Y020703D01*
X014745Y020990D01*
X014339Y020990D01*
X014096Y020747D02*
X013988Y020747D01*
X014032Y020549D02*
X014052Y020549D01*
X014052Y020350D02*
X014032Y020350D01*
X013886Y020152D02*
X014197Y020152D01*
X014886Y020152D02*
X015197Y020152D01*
X015339Y020010D02*
X015052Y020297D01*
X015052Y020703D01*
X015339Y020990D01*
X015745Y020990D01*
X016032Y020703D01*
X016032Y020297D01*
X015745Y020010D01*
X015339Y020010D01*
X015052Y020350D02*
X015032Y020350D01*
X015032Y020549D02*
X015052Y020549D01*
X015096Y020747D02*
X014988Y020747D01*
X014789Y020946D02*
X015295Y020946D01*
X015789Y020946D02*
X016295Y020946D01*
X016339Y020990D02*
X016052Y020703D01*
X016052Y020297D01*
X016339Y020010D01*
X016745Y020010D01*
X017032Y020297D01*
X017032Y020703D01*
X016745Y020990D01*
X016339Y020990D01*
X016096Y020747D02*
X015988Y020747D01*
X016032Y020549D02*
X016052Y020549D01*
X016052Y020350D02*
X016032Y020350D01*
X015886Y020152D02*
X016197Y020152D01*
X016886Y020152D02*
X017197Y020152D01*
X017339Y020010D02*
X017052Y020297D01*
X017052Y020703D01*
X017339Y020990D01*
X017745Y020990D01*
X018032Y020703D01*
X018032Y020297D01*
X017745Y020010D01*
X017339Y020010D01*
X017052Y020350D02*
X017032Y020350D01*
X017032Y020549D02*
X017052Y020549D01*
X017096Y020747D02*
X016988Y020747D01*
X016789Y020946D02*
X017295Y020946D01*
X017789Y020946D02*
X018295Y020946D01*
X018339Y020990D02*
X018052Y020703D01*
X018052Y020297D01*
X018339Y020010D01*
X018745Y020010D01*
X019032Y020297D01*
X019032Y020703D01*
X018745Y020990D01*
X018339Y020990D01*
X018096Y020747D02*
X017988Y020747D01*
X018032Y020549D02*
X018052Y020549D01*
X018052Y020350D02*
X018032Y020350D01*
X017886Y020152D02*
X018197Y020152D01*
X018886Y020152D02*
X019797Y020152D01*
X019939Y020010D02*
X020345Y020010D01*
X020632Y020297D01*
X020632Y020703D01*
X020345Y020990D01*
X019939Y020990D01*
X019652Y020703D01*
X019652Y020297D01*
X019939Y020010D01*
X019652Y020350D02*
X019032Y020350D01*
X019032Y020549D02*
X019652Y020549D01*
X019696Y020747D02*
X018988Y020747D01*
X018789Y020946D02*
X019895Y020946D01*
X020389Y020946D02*
X020895Y020946D01*
X020939Y020990D02*
X020652Y020703D01*
X020652Y020297D01*
X020939Y020010D01*
X021345Y020010D01*
X021632Y020297D01*
X021632Y020703D01*
X021345Y020990D01*
X020939Y020990D01*
X020696Y020747D02*
X020588Y020747D01*
X020632Y020549D02*
X020652Y020549D01*
X020652Y020350D02*
X020632Y020350D01*
X020486Y020152D02*
X020797Y020152D01*
X021486Y020152D02*
X021797Y020152D01*
X021939Y020010D02*
X022345Y020010D01*
X022632Y020297D01*
X022632Y020703D01*
X022345Y020990D01*
X021939Y020990D01*
X021652Y020703D01*
X021652Y020297D01*
X021939Y020010D01*
X021652Y020350D02*
X021632Y020350D01*
X021632Y020549D02*
X021652Y020549D01*
X021696Y020747D02*
X021588Y020747D01*
X021389Y020946D02*
X021895Y020946D01*
X022389Y020946D02*
X022895Y020946D01*
X022939Y020990D02*
X022652Y020703D01*
X022652Y020297D01*
X022939Y020010D01*
X023345Y020010D01*
X023632Y020297D01*
X023632Y020703D01*
X023345Y020990D01*
X022939Y020990D01*
X022696Y020747D02*
X022588Y020747D01*
X022632Y020549D02*
X022652Y020549D01*
X022652Y020350D02*
X022632Y020350D01*
X022486Y020152D02*
X022797Y020152D01*
X023486Y020152D02*
X023797Y020152D01*
X023939Y020010D02*
X024345Y020010D01*
X024632Y020297D01*
X024632Y020703D01*
X024345Y020990D01*
X023939Y020990D01*
X023652Y020703D01*
X023652Y020297D01*
X023939Y020010D01*
X023652Y020350D02*
X023632Y020350D01*
X023632Y020549D02*
X023652Y020549D01*
X023696Y020747D02*
X023588Y020747D01*
X023389Y020946D02*
X023895Y020946D01*
X024389Y020946D02*
X024895Y020946D01*
X024939Y020990D02*
X024652Y020703D01*
X024652Y020297D01*
X024939Y020010D01*
X025345Y020010D01*
X025632Y020297D01*
X025632Y020703D01*
X025345Y020990D01*
X024939Y020990D01*
X024696Y020747D02*
X024588Y020747D01*
X024632Y020549D02*
X024652Y020549D01*
X024652Y020350D02*
X024632Y020350D01*
X024486Y020152D02*
X024797Y020152D01*
X025486Y020152D02*
X025797Y020152D01*
X025939Y020010D02*
X025652Y020297D01*
X025652Y020703D01*
X025939Y020990D01*
X026345Y020990D01*
X026632Y020703D01*
X026632Y020297D01*
X026345Y020010D01*
X025939Y020010D01*
X025652Y020350D02*
X025632Y020350D01*
X025632Y020549D02*
X025652Y020549D01*
X025696Y020747D02*
X025588Y020747D01*
X025389Y020946D02*
X025895Y020946D01*
X026389Y020946D02*
X026895Y020946D01*
X026696Y020747D02*
X026588Y020747D01*
X026632Y020549D02*
X026652Y020549D01*
X026652Y020350D02*
X026632Y020350D01*
X026486Y020152D02*
X026797Y020152D01*
X025646Y018365D02*
X002842Y018365D01*
X002842Y018564D02*
X018184Y018564D01*
X018113Y018762D02*
X002842Y018762D01*
X002842Y019755D02*
X007773Y019755D01*
X007515Y019953D02*
X002842Y019953D01*
X002842Y020152D02*
X007388Y020152D01*
X007312Y020350D02*
X002842Y020350D01*
X002842Y020549D02*
X007312Y020549D01*
X007346Y020747D02*
X002842Y020747D01*
X002842Y020946D02*
X007428Y020946D01*
X007612Y021144D02*
X002842Y021144D01*
X006258Y018167D02*
X023164Y018167D01*
X023155Y018158D02*
X023113Y018056D01*
X023113Y017944D01*
X023155Y017842D01*
X023234Y017763D01*
X023336Y017721D01*
X023447Y017721D01*
X023550Y017763D01*
X023577Y017790D01*
X024207Y017790D01*
X024234Y017763D01*
X024336Y017721D01*
X024447Y017721D01*
X024550Y017763D01*
X024629Y017842D01*
X024671Y017944D01*
X024671Y018056D01*
X024629Y018158D01*
X024550Y018237D01*
X024447Y018279D01*
X024336Y018279D01*
X024234Y018237D01*
X024207Y018210D01*
X023577Y018210D01*
X023550Y018237D01*
X023447Y018279D01*
X023336Y018279D01*
X023234Y018237D01*
X023155Y018158D01*
X023113Y017968D02*
X006342Y017968D01*
X006342Y017770D02*
X023228Y017770D01*
X023556Y017770D02*
X024228Y017770D01*
X024556Y017770D02*
X025682Y017770D01*
X025682Y017968D02*
X024671Y017968D01*
X024620Y018167D02*
X025682Y018167D01*
X025682Y017571D02*
X006342Y017571D01*
X006342Y017373D02*
X025682Y017373D01*
X025682Y017174D02*
X006342Y017174D01*
X006342Y016976D02*
X025682Y016976D01*
X025682Y016777D02*
X006342Y016777D01*
X006342Y016579D02*
X025682Y016579D01*
X025682Y016380D02*
X008872Y016380D01*
X008850Y016402D02*
X008715Y016458D01*
X008569Y016458D01*
X008434Y016402D01*
X008331Y016299D01*
X008275Y016164D01*
X008275Y016017D01*
X008331Y015882D01*
X008434Y015779D01*
X008569Y015723D01*
X008715Y015723D01*
X008850Y015779D01*
X008953Y015882D01*
X009009Y016017D01*
X009009Y016164D01*
X008953Y016299D01*
X008850Y016402D01*
X009002Y016182D02*
X025679Y016182D01*
X025613Y015983D02*
X008995Y015983D01*
X008855Y015785D02*
X025713Y015785D01*
X027459Y014991D02*
X009006Y014991D01*
X008991Y014792D02*
X027365Y014792D01*
X027312Y014594D02*
X008839Y014594D01*
X008882Y015189D02*
X027657Y015189D01*
X028448Y004272D02*
X028942Y004272D01*
X028942Y004073D02*
X028743Y004073D01*
X028885Y003875D02*
X028942Y003875D01*
X020395Y002882D02*
X017502Y002882D01*
X017502Y002684D02*
X020367Y002684D01*
X020432Y002485D02*
X017502Y002485D01*
X017502Y002287D02*
X020432Y002287D01*
X020376Y002088D02*
X017502Y002088D01*
X017502Y001890D02*
X017839Y001890D01*
X017939Y001990D02*
X017652Y001703D01*
X017652Y001297D01*
X017939Y001010D01*
X018345Y001010D01*
X018632Y001297D01*
X018632Y001703D01*
X018345Y001990D01*
X017939Y001990D01*
X018445Y001890D02*
X018839Y001890D01*
X018939Y001990D02*
X018652Y001703D01*
X018652Y001297D01*
X018939Y001010D01*
X019345Y001010D01*
X019632Y001297D01*
X019632Y001703D01*
X019345Y001990D01*
X018939Y001990D01*
X018652Y001691D02*
X018632Y001691D01*
X018632Y001493D02*
X018652Y001493D01*
X018655Y001294D02*
X018629Y001294D01*
X018430Y001096D02*
X018854Y001096D01*
X019430Y001096D02*
X019854Y001096D01*
X019655Y001294D02*
X019629Y001294D01*
X019632Y001493D02*
X019652Y001493D01*
X019652Y001691D02*
X019632Y001691D01*
X019445Y001890D02*
X019839Y001890D01*
X017854Y001096D02*
X017430Y001096D01*
X017629Y001294D02*
X017655Y001294D01*
X017652Y001493D02*
X017632Y001493D01*
X017632Y001691D02*
X017652Y001691D01*
X008429Y015785D02*
X006342Y015785D01*
X006342Y015983D02*
X008289Y015983D01*
X008282Y016182D02*
X006342Y016182D01*
X006342Y016380D02*
X008412Y016380D01*
X012943Y020152D02*
X013197Y020152D01*
X012039Y020747D02*
X011988Y020747D01*
X011789Y020946D02*
X012238Y020946D01*
D20*
X010392Y007750D02*
X007892Y007750D01*
X010392Y007750D02*
X010392Y002750D01*
X010392Y002500D01*
X008642Y002500D01*
X007892Y001750D01*
X007392Y002250D01*
X006892Y002250D01*
M02*
