G75*
G70*
%OFA0B0*%
%FSLAX24Y24*%
%IPPOS*%
%LPD*%
%AMOC8*
5,1,8,0,0,1.08239X$1,22.5*
%
%ADD10C,0.1300*%
%ADD11OC8,0.0700*%
%ADD12OC8,0.0740*%
%ADD13R,0.0740X0.0740*%
%ADD14C,0.0780*%
%ADD15R,0.0780X0.0780*%
D10*
X004500Y001250D03*
X004500Y005750D03*
X004500Y007250D03*
X004500Y011750D03*
X006500Y020500D03*
X026500Y014500D03*
X026500Y003500D03*
D11*
X025500Y001500D03*
X024500Y001500D03*
X023500Y001500D03*
X022500Y001500D03*
X021500Y001500D03*
X020500Y001500D03*
X018500Y001500D03*
X017500Y001500D03*
X016500Y001500D03*
X015500Y001500D03*
X014500Y001500D03*
X013500Y001500D03*
X012500Y001500D03*
X011500Y001500D03*
X011900Y020500D03*
X010900Y020500D03*
X009900Y020500D03*
X008900Y020500D03*
X007900Y020500D03*
X012900Y020500D03*
X013900Y020500D03*
X014900Y020500D03*
X015900Y020500D03*
X016900Y020500D03*
X018500Y020500D03*
X019500Y020500D03*
X020500Y020500D03*
X021500Y020500D03*
X022500Y020500D03*
X023500Y020500D03*
X024500Y020500D03*
X025500Y020500D03*
D12*
X026550Y012500D03*
X026550Y011500D03*
X025550Y011500D03*
X025550Y010500D03*
X026550Y010500D03*
D13*
X025550Y012500D03*
D14*
X008000Y010750D03*
X007000Y010250D03*
X008000Y009750D03*
X007000Y009250D03*
X008000Y008750D03*
X007000Y008250D03*
X008000Y007750D03*
X008000Y004750D03*
X007000Y004250D03*
X008000Y003750D03*
X007000Y003250D03*
X008000Y002750D03*
X007000Y002250D03*
X008000Y001750D03*
X007500Y014250D03*
X006500Y014250D03*
D15*
X007000Y011250D03*
X007000Y005250D03*
M02*
