G75*
G70*
%OFA0B0*%
%FSLAX24Y24*%
%IPPOS*%
%LPD*%
%AMOC8*
5,1,8,0,0,1.08239X$1,22.5*
%
%ADD10C,0.0000*%
D10*
X000500Y000500D02*
X000500Y021500D01*
X025900Y021500D01*
X026500Y020900D01*
X026500Y016400D01*
X027500Y015400D01*
X027500Y002500D01*
X026500Y001500D01*
X026500Y000500D01*
X000500Y000500D01*
X003870Y001250D02*
X003872Y001300D01*
X003878Y001350D01*
X003888Y001399D01*
X003902Y001447D01*
X003919Y001494D01*
X003940Y001539D01*
X003965Y001583D01*
X003993Y001624D01*
X004025Y001663D01*
X004059Y001700D01*
X004096Y001734D01*
X004136Y001764D01*
X004178Y001791D01*
X004222Y001815D01*
X004268Y001836D01*
X004315Y001852D01*
X004363Y001865D01*
X004413Y001874D01*
X004462Y001879D01*
X004513Y001880D01*
X004563Y001877D01*
X004612Y001870D01*
X004661Y001859D01*
X004709Y001844D01*
X004755Y001826D01*
X004800Y001804D01*
X004843Y001778D01*
X004884Y001749D01*
X004923Y001717D01*
X004959Y001682D01*
X004991Y001644D01*
X005021Y001604D01*
X005048Y001561D01*
X005071Y001517D01*
X005090Y001471D01*
X005106Y001423D01*
X005118Y001374D01*
X005126Y001325D01*
X005130Y001275D01*
X005130Y001225D01*
X005126Y001175D01*
X005118Y001126D01*
X005106Y001077D01*
X005090Y001029D01*
X005071Y000983D01*
X005048Y000939D01*
X005021Y000896D01*
X004991Y000856D01*
X004959Y000818D01*
X004923Y000783D01*
X004884Y000751D01*
X004843Y000722D01*
X004800Y000696D01*
X004755Y000674D01*
X004709Y000656D01*
X004661Y000641D01*
X004612Y000630D01*
X004563Y000623D01*
X004513Y000620D01*
X004462Y000621D01*
X004413Y000626D01*
X004363Y000635D01*
X004315Y000648D01*
X004268Y000664D01*
X004222Y000685D01*
X004178Y000709D01*
X004136Y000736D01*
X004096Y000766D01*
X004059Y000800D01*
X004025Y000837D01*
X003993Y000876D01*
X003965Y000917D01*
X003940Y000961D01*
X003919Y001006D01*
X003902Y001053D01*
X003888Y001101D01*
X003878Y001150D01*
X003872Y001200D01*
X003870Y001250D01*
X003870Y005750D02*
X003872Y005800D01*
X003878Y005850D01*
X003888Y005899D01*
X003902Y005947D01*
X003919Y005994D01*
X003940Y006039D01*
X003965Y006083D01*
X003993Y006124D01*
X004025Y006163D01*
X004059Y006200D01*
X004096Y006234D01*
X004136Y006264D01*
X004178Y006291D01*
X004222Y006315D01*
X004268Y006336D01*
X004315Y006352D01*
X004363Y006365D01*
X004413Y006374D01*
X004462Y006379D01*
X004513Y006380D01*
X004563Y006377D01*
X004612Y006370D01*
X004661Y006359D01*
X004709Y006344D01*
X004755Y006326D01*
X004800Y006304D01*
X004843Y006278D01*
X004884Y006249D01*
X004923Y006217D01*
X004959Y006182D01*
X004991Y006144D01*
X005021Y006104D01*
X005048Y006061D01*
X005071Y006017D01*
X005090Y005971D01*
X005106Y005923D01*
X005118Y005874D01*
X005126Y005825D01*
X005130Y005775D01*
X005130Y005725D01*
X005126Y005675D01*
X005118Y005626D01*
X005106Y005577D01*
X005090Y005529D01*
X005071Y005483D01*
X005048Y005439D01*
X005021Y005396D01*
X004991Y005356D01*
X004959Y005318D01*
X004923Y005283D01*
X004884Y005251D01*
X004843Y005222D01*
X004800Y005196D01*
X004755Y005174D01*
X004709Y005156D01*
X004661Y005141D01*
X004612Y005130D01*
X004563Y005123D01*
X004513Y005120D01*
X004462Y005121D01*
X004413Y005126D01*
X004363Y005135D01*
X004315Y005148D01*
X004268Y005164D01*
X004222Y005185D01*
X004178Y005209D01*
X004136Y005236D01*
X004096Y005266D01*
X004059Y005300D01*
X004025Y005337D01*
X003993Y005376D01*
X003965Y005417D01*
X003940Y005461D01*
X003919Y005506D01*
X003902Y005553D01*
X003888Y005601D01*
X003878Y005650D01*
X003872Y005700D01*
X003870Y005750D01*
X003870Y007250D02*
X003872Y007300D01*
X003878Y007350D01*
X003888Y007399D01*
X003902Y007447D01*
X003919Y007494D01*
X003940Y007539D01*
X003965Y007583D01*
X003993Y007624D01*
X004025Y007663D01*
X004059Y007700D01*
X004096Y007734D01*
X004136Y007764D01*
X004178Y007791D01*
X004222Y007815D01*
X004268Y007836D01*
X004315Y007852D01*
X004363Y007865D01*
X004413Y007874D01*
X004462Y007879D01*
X004513Y007880D01*
X004563Y007877D01*
X004612Y007870D01*
X004661Y007859D01*
X004709Y007844D01*
X004755Y007826D01*
X004800Y007804D01*
X004843Y007778D01*
X004884Y007749D01*
X004923Y007717D01*
X004959Y007682D01*
X004991Y007644D01*
X005021Y007604D01*
X005048Y007561D01*
X005071Y007517D01*
X005090Y007471D01*
X005106Y007423D01*
X005118Y007374D01*
X005126Y007325D01*
X005130Y007275D01*
X005130Y007225D01*
X005126Y007175D01*
X005118Y007126D01*
X005106Y007077D01*
X005090Y007029D01*
X005071Y006983D01*
X005048Y006939D01*
X005021Y006896D01*
X004991Y006856D01*
X004959Y006818D01*
X004923Y006783D01*
X004884Y006751D01*
X004843Y006722D01*
X004800Y006696D01*
X004755Y006674D01*
X004709Y006656D01*
X004661Y006641D01*
X004612Y006630D01*
X004563Y006623D01*
X004513Y006620D01*
X004462Y006621D01*
X004413Y006626D01*
X004363Y006635D01*
X004315Y006648D01*
X004268Y006664D01*
X004222Y006685D01*
X004178Y006709D01*
X004136Y006736D01*
X004096Y006766D01*
X004059Y006800D01*
X004025Y006837D01*
X003993Y006876D01*
X003965Y006917D01*
X003940Y006961D01*
X003919Y007006D01*
X003902Y007053D01*
X003888Y007101D01*
X003878Y007150D01*
X003872Y007200D01*
X003870Y007250D01*
X003870Y011750D02*
X003872Y011800D01*
X003878Y011850D01*
X003888Y011899D01*
X003902Y011947D01*
X003919Y011994D01*
X003940Y012039D01*
X003965Y012083D01*
X003993Y012124D01*
X004025Y012163D01*
X004059Y012200D01*
X004096Y012234D01*
X004136Y012264D01*
X004178Y012291D01*
X004222Y012315D01*
X004268Y012336D01*
X004315Y012352D01*
X004363Y012365D01*
X004413Y012374D01*
X004462Y012379D01*
X004513Y012380D01*
X004563Y012377D01*
X004612Y012370D01*
X004661Y012359D01*
X004709Y012344D01*
X004755Y012326D01*
X004800Y012304D01*
X004843Y012278D01*
X004884Y012249D01*
X004923Y012217D01*
X004959Y012182D01*
X004991Y012144D01*
X005021Y012104D01*
X005048Y012061D01*
X005071Y012017D01*
X005090Y011971D01*
X005106Y011923D01*
X005118Y011874D01*
X005126Y011825D01*
X005130Y011775D01*
X005130Y011725D01*
X005126Y011675D01*
X005118Y011626D01*
X005106Y011577D01*
X005090Y011529D01*
X005071Y011483D01*
X005048Y011439D01*
X005021Y011396D01*
X004991Y011356D01*
X004959Y011318D01*
X004923Y011283D01*
X004884Y011251D01*
X004843Y011222D01*
X004800Y011196D01*
X004755Y011174D01*
X004709Y011156D01*
X004661Y011141D01*
X004612Y011130D01*
X004563Y011123D01*
X004513Y011120D01*
X004462Y011121D01*
X004413Y011126D01*
X004363Y011135D01*
X004315Y011148D01*
X004268Y011164D01*
X004222Y011185D01*
X004178Y011209D01*
X004136Y011236D01*
X004096Y011266D01*
X004059Y011300D01*
X004025Y011337D01*
X003993Y011376D01*
X003965Y011417D01*
X003940Y011461D01*
X003919Y011506D01*
X003902Y011553D01*
X003888Y011601D01*
X003878Y011650D01*
X003872Y011700D01*
X003870Y011750D01*
X006833Y014909D02*
X006835Y014934D01*
X006841Y014959D01*
X006850Y014983D01*
X006863Y015005D01*
X006880Y015025D01*
X006899Y015042D01*
X006920Y015056D01*
X006944Y015066D01*
X006968Y015073D01*
X006994Y015076D01*
X007019Y015075D01*
X007044Y015070D01*
X007068Y015061D01*
X007091Y015049D01*
X007111Y015034D01*
X007129Y015015D01*
X007144Y014994D01*
X007155Y014971D01*
X007163Y014947D01*
X007167Y014922D01*
X007167Y014896D01*
X007163Y014871D01*
X007155Y014847D01*
X007144Y014824D01*
X007129Y014803D01*
X007111Y014784D01*
X007091Y014769D01*
X007068Y014757D01*
X007044Y014748D01*
X007019Y014743D01*
X006994Y014742D01*
X006968Y014745D01*
X006944Y014752D01*
X006920Y014762D01*
X006899Y014776D01*
X006880Y014793D01*
X006863Y014813D01*
X006850Y014835D01*
X006841Y014859D01*
X006835Y014884D01*
X006833Y014909D01*
X006833Y016091D02*
X006835Y016116D01*
X006841Y016141D01*
X006850Y016165D01*
X006863Y016187D01*
X006880Y016207D01*
X006899Y016224D01*
X006920Y016238D01*
X006944Y016248D01*
X006968Y016255D01*
X006994Y016258D01*
X007019Y016257D01*
X007044Y016252D01*
X007068Y016243D01*
X007091Y016231D01*
X007111Y016216D01*
X007129Y016197D01*
X007144Y016176D01*
X007155Y016153D01*
X007163Y016129D01*
X007167Y016104D01*
X007167Y016078D01*
X007163Y016053D01*
X007155Y016029D01*
X007144Y016006D01*
X007129Y015985D01*
X007111Y015966D01*
X007091Y015951D01*
X007068Y015939D01*
X007044Y015930D01*
X007019Y015925D01*
X006994Y015924D01*
X006968Y015927D01*
X006944Y015934D01*
X006920Y015944D01*
X006899Y015958D01*
X006880Y015975D01*
X006863Y015995D01*
X006850Y016017D01*
X006841Y016041D01*
X006835Y016066D01*
X006833Y016091D01*
X005870Y020500D02*
X005872Y020550D01*
X005878Y020600D01*
X005888Y020649D01*
X005902Y020697D01*
X005919Y020744D01*
X005940Y020789D01*
X005965Y020833D01*
X005993Y020874D01*
X006025Y020913D01*
X006059Y020950D01*
X006096Y020984D01*
X006136Y021014D01*
X006178Y021041D01*
X006222Y021065D01*
X006268Y021086D01*
X006315Y021102D01*
X006363Y021115D01*
X006413Y021124D01*
X006462Y021129D01*
X006513Y021130D01*
X006563Y021127D01*
X006612Y021120D01*
X006661Y021109D01*
X006709Y021094D01*
X006755Y021076D01*
X006800Y021054D01*
X006843Y021028D01*
X006884Y020999D01*
X006923Y020967D01*
X006959Y020932D01*
X006991Y020894D01*
X007021Y020854D01*
X007048Y020811D01*
X007071Y020767D01*
X007090Y020721D01*
X007106Y020673D01*
X007118Y020624D01*
X007126Y020575D01*
X007130Y020525D01*
X007130Y020475D01*
X007126Y020425D01*
X007118Y020376D01*
X007106Y020327D01*
X007090Y020279D01*
X007071Y020233D01*
X007048Y020189D01*
X007021Y020146D01*
X006991Y020106D01*
X006959Y020068D01*
X006923Y020033D01*
X006884Y020001D01*
X006843Y019972D01*
X006800Y019946D01*
X006755Y019924D01*
X006709Y019906D01*
X006661Y019891D01*
X006612Y019880D01*
X006563Y019873D01*
X006513Y019870D01*
X006462Y019871D01*
X006413Y019876D01*
X006363Y019885D01*
X006315Y019898D01*
X006268Y019914D01*
X006222Y019935D01*
X006178Y019959D01*
X006136Y019986D01*
X006096Y020016D01*
X006059Y020050D01*
X006025Y020087D01*
X005993Y020126D01*
X005965Y020167D01*
X005940Y020211D01*
X005919Y020256D01*
X005902Y020303D01*
X005888Y020351D01*
X005878Y020400D01*
X005872Y020450D01*
X005870Y020500D01*
X025870Y014500D02*
X025872Y014550D01*
X025878Y014600D01*
X025888Y014649D01*
X025902Y014697D01*
X025919Y014744D01*
X025940Y014789D01*
X025965Y014833D01*
X025993Y014874D01*
X026025Y014913D01*
X026059Y014950D01*
X026096Y014984D01*
X026136Y015014D01*
X026178Y015041D01*
X026222Y015065D01*
X026268Y015086D01*
X026315Y015102D01*
X026363Y015115D01*
X026413Y015124D01*
X026462Y015129D01*
X026513Y015130D01*
X026563Y015127D01*
X026612Y015120D01*
X026661Y015109D01*
X026709Y015094D01*
X026755Y015076D01*
X026800Y015054D01*
X026843Y015028D01*
X026884Y014999D01*
X026923Y014967D01*
X026959Y014932D01*
X026991Y014894D01*
X027021Y014854D01*
X027048Y014811D01*
X027071Y014767D01*
X027090Y014721D01*
X027106Y014673D01*
X027118Y014624D01*
X027126Y014575D01*
X027130Y014525D01*
X027130Y014475D01*
X027126Y014425D01*
X027118Y014376D01*
X027106Y014327D01*
X027090Y014279D01*
X027071Y014233D01*
X027048Y014189D01*
X027021Y014146D01*
X026991Y014106D01*
X026959Y014068D01*
X026923Y014033D01*
X026884Y014001D01*
X026843Y013972D01*
X026800Y013946D01*
X026755Y013924D01*
X026709Y013906D01*
X026661Y013891D01*
X026612Y013880D01*
X026563Y013873D01*
X026513Y013870D01*
X026462Y013871D01*
X026413Y013876D01*
X026363Y013885D01*
X026315Y013898D01*
X026268Y013914D01*
X026222Y013935D01*
X026178Y013959D01*
X026136Y013986D01*
X026096Y014016D01*
X026059Y014050D01*
X026025Y014087D01*
X025993Y014126D01*
X025965Y014167D01*
X025940Y014211D01*
X025919Y014256D01*
X025902Y014303D01*
X025888Y014351D01*
X025878Y014400D01*
X025872Y014450D01*
X025870Y014500D01*
X025870Y003500D02*
X025872Y003550D01*
X025878Y003600D01*
X025888Y003649D01*
X025902Y003697D01*
X025919Y003744D01*
X025940Y003789D01*
X025965Y003833D01*
X025993Y003874D01*
X026025Y003913D01*
X026059Y003950D01*
X026096Y003984D01*
X026136Y004014D01*
X026178Y004041D01*
X026222Y004065D01*
X026268Y004086D01*
X026315Y004102D01*
X026363Y004115D01*
X026413Y004124D01*
X026462Y004129D01*
X026513Y004130D01*
X026563Y004127D01*
X026612Y004120D01*
X026661Y004109D01*
X026709Y004094D01*
X026755Y004076D01*
X026800Y004054D01*
X026843Y004028D01*
X026884Y003999D01*
X026923Y003967D01*
X026959Y003932D01*
X026991Y003894D01*
X027021Y003854D01*
X027048Y003811D01*
X027071Y003767D01*
X027090Y003721D01*
X027106Y003673D01*
X027118Y003624D01*
X027126Y003575D01*
X027130Y003525D01*
X027130Y003475D01*
X027126Y003425D01*
X027118Y003376D01*
X027106Y003327D01*
X027090Y003279D01*
X027071Y003233D01*
X027048Y003189D01*
X027021Y003146D01*
X026991Y003106D01*
X026959Y003068D01*
X026923Y003033D01*
X026884Y003001D01*
X026843Y002972D01*
X026800Y002946D01*
X026755Y002924D01*
X026709Y002906D01*
X026661Y002891D01*
X026612Y002880D01*
X026563Y002873D01*
X026513Y002870D01*
X026462Y002871D01*
X026413Y002876D01*
X026363Y002885D01*
X026315Y002898D01*
X026268Y002914D01*
X026222Y002935D01*
X026178Y002959D01*
X026136Y002986D01*
X026096Y003016D01*
X026059Y003050D01*
X026025Y003087D01*
X025993Y003126D01*
X025965Y003167D01*
X025940Y003211D01*
X025919Y003256D01*
X025902Y003303D01*
X025888Y003351D01*
X025878Y003400D01*
X025872Y003450D01*
X025870Y003500D01*
M02*
