G75*
G70*
%OFA0B0*%
%FSLAX24Y24*%
%IPPOS*%
%LPD*%
%AMOC8*
5,1,8,0,0,1.08239X$1,22.5*
%
%ADD10C,0.1300*%
%ADD11R,0.0840X0.0300*%
%ADD12R,0.0910X0.0280*%
%ADD13R,0.0473X0.0788*%
%ADD14R,0.0434X0.0473*%
%ADD15R,0.0473X0.0434*%
%ADD16OC8,0.0700*%
%ADD17OC8,0.0740*%
%ADD18R,0.0740X0.0740*%
%ADD19C,0.0780*%
%ADD20R,0.0780X0.0780*%
%ADD21R,0.0290X0.0540*%
%ADD22C,0.0000*%
%ADD23C,0.0001*%
%ADD24R,0.0493X0.0434*%
%ADD25C,0.0375*%
%ADD26R,0.0591X0.0434*%
%ADD27R,0.0670X0.0250*%
%ADD28R,0.0990X0.1260*%
%ADD29R,0.0480X0.0750*%
%ADD30R,0.0610X0.0480*%
%ADD31R,0.0480X0.0610*%
%ADD32R,0.0350X0.1320*%
%ADD33R,0.0680X0.0900*%
%ADD34R,0.0910X0.3190*%
D10*
X004392Y001250D03*
X004392Y005750D03*
X004392Y007250D03*
X004392Y011750D03*
X008142Y020500D03*
X028142Y014500D03*
X028142Y003500D03*
D11*
X025072Y015000D03*
X025072Y015500D03*
X025072Y016000D03*
X025072Y016500D03*
X025072Y017000D03*
X025072Y017500D03*
X025072Y018000D03*
X025072Y018500D03*
X025072Y019000D03*
X021212Y019000D03*
X021212Y018500D03*
X021212Y018000D03*
X021212Y017500D03*
X021212Y017000D03*
X021212Y016500D03*
X021212Y016000D03*
X021212Y015500D03*
X021212Y015000D03*
D12*
X019672Y017250D03*
X019672Y017750D03*
X019672Y018250D03*
X019672Y018750D03*
X017612Y018750D03*
X017612Y018250D03*
X017612Y017750D03*
X017612Y017250D03*
D13*
X019439Y014478D03*
X020345Y014478D03*
X020345Y013022D03*
X019439Y013022D03*
D14*
X018642Y013415D03*
X018642Y014085D03*
X021142Y014085D03*
X021142Y013415D03*
X009642Y017415D03*
X009642Y018085D03*
X008642Y018085D03*
X008642Y017415D03*
X007642Y017415D03*
X007642Y018085D03*
D15*
X018307Y019500D03*
X018977Y019500D03*
X018977Y016500D03*
X018307Y016500D03*
X022807Y014250D03*
X023477Y014250D03*
D16*
X023142Y020500D03*
X022142Y020500D03*
X021142Y020500D03*
X020142Y020500D03*
X018542Y020500D03*
X017542Y020500D03*
X016542Y020500D03*
X015542Y020500D03*
X014542Y020500D03*
X013542Y020500D03*
X012542Y020500D03*
X011542Y020500D03*
X010542Y020500D03*
X009542Y020500D03*
X024142Y020500D03*
X025142Y020500D03*
X026142Y020500D03*
X027142Y020500D03*
X027142Y001500D03*
X026142Y001500D03*
X025142Y001500D03*
X024142Y001500D03*
X023142Y001500D03*
X022142Y001500D03*
X020142Y001500D03*
X019142Y001500D03*
X018142Y001500D03*
X017142Y001500D03*
X016142Y001500D03*
X015142Y001500D03*
X014142Y001500D03*
X013142Y001500D03*
D17*
X027192Y010500D03*
X028192Y010500D03*
X028192Y011500D03*
X027192Y011500D03*
X028192Y012500D03*
D18*
X027192Y012500D03*
D19*
X007892Y010750D03*
X006892Y010250D03*
X007892Y009750D03*
X006892Y009250D03*
X007892Y008750D03*
X006892Y008250D03*
X007892Y007750D03*
X007892Y004750D03*
X006892Y004250D03*
X007892Y003750D03*
X006892Y003250D03*
X007892Y002750D03*
X006892Y002250D03*
X007892Y001750D03*
D20*
X006892Y005250D03*
X006892Y011250D03*
D21*
X027484Y008500D03*
X027804Y008500D03*
X027819Y006750D03*
X027465Y006750D03*
X027465Y005000D03*
X027819Y005000D03*
D22*
X021266Y008344D02*
X021266Y008596D01*
X021266Y008628D01*
X021238Y008636D01*
X021211Y008648D01*
X021179Y008656D01*
X021152Y008667D01*
X021124Y008679D01*
X021097Y008687D01*
X021069Y008699D01*
X021046Y008687D01*
X021018Y008675D01*
X020994Y008663D01*
X020994Y008305D01*
X021018Y008297D01*
X021046Y008285D01*
X021069Y008274D01*
X021097Y008285D01*
X021124Y008293D01*
X021152Y008305D01*
X021179Y008313D01*
X021211Y008325D01*
X021238Y008337D01*
X021266Y008344D01*
D23*
X021265Y008344D02*
X020994Y008344D01*
X020994Y008343D02*
X021262Y008343D01*
X021258Y008342D02*
X020994Y008342D01*
X020994Y008341D02*
X021255Y008341D01*
X021251Y008340D02*
X020994Y008340D01*
X020994Y008339D02*
X021248Y008339D01*
X021244Y008338D02*
X020994Y008338D01*
X020994Y008337D02*
X021241Y008337D01*
X021238Y008336D02*
X020994Y008336D01*
X020994Y008335D02*
X021235Y008335D01*
X021233Y008334D02*
X020994Y008334D01*
X020994Y008333D02*
X021231Y008333D01*
X021228Y008332D02*
X020994Y008332D01*
X020994Y008331D02*
X021226Y008331D01*
X021224Y008330D02*
X020994Y008330D01*
X020994Y008329D02*
X021221Y008329D01*
X021219Y008328D02*
X020994Y008328D01*
X020994Y008327D02*
X021217Y008327D01*
X021214Y008326D02*
X020994Y008326D01*
X020994Y008325D02*
X021212Y008325D01*
X021210Y008324D02*
X020994Y008324D01*
X020994Y008323D02*
X021207Y008323D01*
X021204Y008322D02*
X020994Y008322D01*
X020994Y008321D02*
X021202Y008321D01*
X021199Y008320D02*
X020994Y008320D01*
X020994Y008319D02*
X021196Y008319D01*
X021194Y008318D02*
X020994Y008318D01*
X020994Y008317D02*
X021191Y008317D01*
X021188Y008316D02*
X020994Y008316D01*
X020994Y008315D02*
X021186Y008315D01*
X021183Y008314D02*
X020994Y008314D01*
X020994Y008313D02*
X021180Y008313D01*
X021177Y008312D02*
X020994Y008312D01*
X020994Y008311D02*
X021173Y008311D01*
X021170Y008310D02*
X020994Y008310D01*
X020994Y008309D02*
X021166Y008309D01*
X021163Y008308D02*
X020994Y008308D01*
X020994Y008307D02*
X021159Y008307D01*
X021156Y008306D02*
X020994Y008306D01*
X020994Y008305D02*
X021152Y008305D01*
X021150Y008304D02*
X020997Y008304D01*
X021000Y008303D02*
X021148Y008303D01*
X021145Y008302D02*
X021003Y008302D01*
X021006Y008301D02*
X021143Y008301D01*
X021141Y008300D02*
X021009Y008300D01*
X021012Y008299D02*
X021138Y008299D01*
X021136Y008298D02*
X021015Y008298D01*
X021018Y008297D02*
X021134Y008297D01*
X021131Y008296D02*
X021020Y008296D01*
X021022Y008295D02*
X021129Y008295D01*
X021127Y008294D02*
X021025Y008294D01*
X021027Y008293D02*
X021124Y008293D01*
X021121Y008292D02*
X021029Y008292D01*
X021032Y008291D02*
X021117Y008291D01*
X021114Y008290D02*
X021034Y008290D01*
X021036Y008289D02*
X021110Y008289D01*
X021107Y008288D02*
X021039Y008288D01*
X021041Y008287D02*
X021103Y008287D01*
X021100Y008286D02*
X021043Y008286D01*
X021046Y008285D02*
X021096Y008285D01*
X021094Y008284D02*
X021048Y008284D01*
X021050Y008283D02*
X021092Y008283D01*
X021089Y008282D02*
X021052Y008282D01*
X021054Y008281D02*
X021087Y008281D01*
X021085Y008280D02*
X021056Y008280D01*
X021058Y008279D02*
X021082Y008279D01*
X021080Y008278D02*
X021060Y008278D01*
X021062Y008277D02*
X021078Y008277D01*
X021075Y008276D02*
X021064Y008276D01*
X021066Y008275D02*
X021073Y008275D01*
X021071Y008274D02*
X021068Y008274D01*
X020994Y008345D02*
X021266Y008345D01*
X021266Y008346D02*
X020994Y008346D01*
X020994Y008347D02*
X021266Y008347D01*
X021266Y008348D02*
X020994Y008348D01*
X020994Y008349D02*
X021266Y008349D01*
X021266Y008350D02*
X020994Y008350D01*
X020994Y008351D02*
X021266Y008351D01*
X021266Y008352D02*
X020994Y008352D01*
X020994Y008353D02*
X021266Y008353D01*
X021266Y008354D02*
X020994Y008354D01*
X020994Y008355D02*
X021266Y008355D01*
X021266Y008356D02*
X020994Y008356D01*
X020994Y008357D02*
X021266Y008357D01*
X021266Y008358D02*
X020994Y008358D01*
X020994Y008359D02*
X021266Y008359D01*
X021266Y008360D02*
X020994Y008360D01*
X020994Y008361D02*
X021266Y008361D01*
X021266Y008362D02*
X020994Y008362D01*
X020994Y008363D02*
X021266Y008363D01*
X021266Y008364D02*
X020994Y008364D01*
X020994Y008365D02*
X021266Y008365D01*
X021266Y008366D02*
X020994Y008366D01*
X020994Y008367D02*
X021266Y008367D01*
X021266Y008368D02*
X020994Y008368D01*
X020994Y008369D02*
X021266Y008369D01*
X021266Y008370D02*
X020994Y008370D01*
X020994Y008371D02*
X021266Y008371D01*
X021266Y008372D02*
X020994Y008372D01*
X020994Y008373D02*
X021266Y008373D01*
X021266Y008374D02*
X020994Y008374D01*
X020994Y008375D02*
X021266Y008375D01*
X021266Y008376D02*
X020994Y008376D01*
X020994Y008377D02*
X021266Y008377D01*
X021266Y008378D02*
X020994Y008378D01*
X020994Y008379D02*
X021266Y008379D01*
X021266Y008380D02*
X020994Y008380D01*
X020994Y008381D02*
X021266Y008381D01*
X021266Y008382D02*
X020994Y008382D01*
X020994Y008383D02*
X021266Y008383D01*
X021266Y008384D02*
X020994Y008384D01*
X020994Y008385D02*
X021266Y008385D01*
X021266Y008386D02*
X020994Y008386D01*
X020994Y008387D02*
X021266Y008387D01*
X021266Y008388D02*
X020994Y008388D01*
X020994Y008389D02*
X021266Y008389D01*
X021266Y008390D02*
X020994Y008390D01*
X020994Y008391D02*
X021266Y008391D01*
X021266Y008392D02*
X020994Y008392D01*
X020994Y008393D02*
X021266Y008393D01*
X021266Y008394D02*
X020994Y008394D01*
X020994Y008395D02*
X021266Y008395D01*
X021266Y008396D02*
X020994Y008396D01*
X020994Y008397D02*
X021266Y008397D01*
X021266Y008398D02*
X020994Y008398D01*
X020994Y008399D02*
X021266Y008399D01*
X021266Y008400D02*
X020994Y008400D01*
X020994Y008401D02*
X021266Y008401D01*
X021266Y008402D02*
X020994Y008402D01*
X020994Y008403D02*
X021266Y008403D01*
X021266Y008404D02*
X020994Y008404D01*
X020994Y008405D02*
X021266Y008405D01*
X021266Y008406D02*
X020994Y008406D01*
X020994Y008407D02*
X021266Y008407D01*
X021266Y008408D02*
X020994Y008408D01*
X020994Y008409D02*
X021266Y008409D01*
X021266Y008410D02*
X020994Y008410D01*
X020994Y008411D02*
X021266Y008411D01*
X021266Y008412D02*
X020994Y008412D01*
X020994Y008413D02*
X021266Y008413D01*
X021266Y008414D02*
X020994Y008414D01*
X020994Y008415D02*
X021266Y008415D01*
X021266Y008416D02*
X020994Y008416D01*
X020994Y008417D02*
X021266Y008417D01*
X021266Y008418D02*
X020994Y008418D01*
X020994Y008419D02*
X021266Y008419D01*
X021266Y008420D02*
X020994Y008420D01*
X020994Y008421D02*
X021266Y008421D01*
X021266Y008422D02*
X020994Y008422D01*
X020994Y008423D02*
X021266Y008423D01*
X021266Y008424D02*
X020994Y008424D01*
X020994Y008425D02*
X021266Y008425D01*
X021266Y008426D02*
X020994Y008426D01*
X020994Y008427D02*
X021266Y008427D01*
X021266Y008428D02*
X020994Y008428D01*
X020994Y008429D02*
X021266Y008429D01*
X021266Y008430D02*
X020994Y008430D01*
X020994Y008431D02*
X021266Y008431D01*
X021266Y008432D02*
X020994Y008432D01*
X020994Y008433D02*
X021266Y008433D01*
X021266Y008434D02*
X020994Y008434D01*
X020994Y008435D02*
X021266Y008435D01*
X021266Y008436D02*
X020994Y008436D01*
X020994Y008437D02*
X021266Y008437D01*
X021266Y008438D02*
X020994Y008438D01*
X020994Y008439D02*
X021266Y008439D01*
X021266Y008440D02*
X020994Y008440D01*
X020994Y008441D02*
X021266Y008441D01*
X021266Y008442D02*
X020994Y008442D01*
X020994Y008443D02*
X021266Y008443D01*
X021266Y008444D02*
X020994Y008444D01*
X020994Y008445D02*
X021266Y008445D01*
X021266Y008446D02*
X020994Y008446D01*
X020994Y008447D02*
X021266Y008447D01*
X021266Y008448D02*
X020994Y008448D01*
X020994Y008449D02*
X021266Y008449D01*
X021266Y008450D02*
X020994Y008450D01*
X020994Y008451D02*
X021266Y008451D01*
X021266Y008452D02*
X020994Y008452D01*
X020994Y008453D02*
X021266Y008453D01*
X021266Y008454D02*
X020994Y008454D01*
X020994Y008455D02*
X021266Y008455D01*
X021266Y008456D02*
X020994Y008456D01*
X020994Y008457D02*
X021266Y008457D01*
X021266Y008458D02*
X020994Y008458D01*
X020994Y008459D02*
X021266Y008459D01*
X021266Y008460D02*
X020994Y008460D01*
X020994Y008461D02*
X021266Y008461D01*
X021266Y008462D02*
X020994Y008462D01*
X020994Y008463D02*
X021266Y008463D01*
X021266Y008464D02*
X020994Y008464D01*
X020994Y008465D02*
X021266Y008465D01*
X021266Y008466D02*
X020994Y008466D01*
X020994Y008467D02*
X021266Y008467D01*
X021266Y008468D02*
X020994Y008468D01*
X020994Y008469D02*
X021266Y008469D01*
X021266Y008470D02*
X020994Y008470D01*
X020994Y008471D02*
X021266Y008471D01*
X021266Y008472D02*
X020994Y008472D01*
X020994Y008473D02*
X021266Y008473D01*
X021266Y008474D02*
X020994Y008474D01*
X020994Y008475D02*
X021266Y008475D01*
X021266Y008476D02*
X020994Y008476D01*
X020994Y008477D02*
X021266Y008477D01*
X021266Y008478D02*
X020994Y008478D01*
X020994Y008479D02*
X021266Y008479D01*
X021266Y008480D02*
X020994Y008480D01*
X020994Y008481D02*
X021266Y008481D01*
X021266Y008482D02*
X020994Y008482D01*
X020994Y008483D02*
X021266Y008483D01*
X021266Y008484D02*
X020994Y008484D01*
X020994Y008485D02*
X021266Y008485D01*
X021266Y008486D02*
X020994Y008486D01*
X020994Y008487D02*
X021266Y008487D01*
X021266Y008488D02*
X020994Y008488D01*
X020994Y008489D02*
X021266Y008489D01*
X021266Y008490D02*
X020994Y008490D01*
X020994Y008491D02*
X021266Y008491D01*
X021266Y008492D02*
X020994Y008492D01*
X020994Y008493D02*
X021266Y008493D01*
X021266Y008494D02*
X020994Y008494D01*
X020994Y008495D02*
X021266Y008495D01*
X021266Y008496D02*
X020994Y008496D01*
X020994Y008497D02*
X021266Y008497D01*
X021266Y008498D02*
X020994Y008498D01*
X020994Y008499D02*
X021266Y008499D01*
X021266Y008500D02*
X020994Y008500D01*
X020994Y008501D02*
X021266Y008501D01*
X021266Y008502D02*
X020994Y008502D01*
X020994Y008503D02*
X021266Y008503D01*
X021266Y008504D02*
X020994Y008504D01*
X020994Y008505D02*
X021266Y008505D01*
X021266Y008506D02*
X020994Y008506D01*
X020994Y008507D02*
X021266Y008507D01*
X021266Y008508D02*
X020994Y008508D01*
X020994Y008509D02*
X021266Y008509D01*
X021266Y008510D02*
X020994Y008510D01*
X020994Y008511D02*
X021266Y008511D01*
X021266Y008512D02*
X020994Y008512D01*
X020994Y008513D02*
X021266Y008513D01*
X021266Y008514D02*
X020994Y008514D01*
X020994Y008515D02*
X021266Y008515D01*
X021266Y008516D02*
X020994Y008516D01*
X020994Y008517D02*
X021266Y008517D01*
X021266Y008518D02*
X020994Y008518D01*
X020994Y008519D02*
X021266Y008519D01*
X021266Y008520D02*
X020994Y008520D01*
X020994Y008521D02*
X021266Y008521D01*
X021266Y008522D02*
X020994Y008522D01*
X020994Y008523D02*
X021266Y008523D01*
X021266Y008524D02*
X020994Y008524D01*
X020994Y008525D02*
X021266Y008525D01*
X021266Y008526D02*
X020994Y008526D01*
X020994Y008527D02*
X021266Y008527D01*
X021266Y008528D02*
X020994Y008528D01*
X020994Y008529D02*
X021266Y008529D01*
X021266Y008530D02*
X020994Y008530D01*
X020994Y008531D02*
X021266Y008531D01*
X021266Y008532D02*
X020994Y008532D01*
X020994Y008533D02*
X021266Y008533D01*
X021266Y008534D02*
X020994Y008534D01*
X020994Y008535D02*
X021266Y008535D01*
X021266Y008536D02*
X020994Y008536D01*
X020994Y008537D02*
X021266Y008537D01*
X021266Y008538D02*
X020994Y008538D01*
X020994Y008539D02*
X021266Y008539D01*
X021266Y008540D02*
X020994Y008540D01*
X020994Y008541D02*
X021266Y008541D01*
X021266Y008542D02*
X020994Y008542D01*
X020994Y008543D02*
X021266Y008543D01*
X021266Y008544D02*
X020994Y008544D01*
X020994Y008545D02*
X021266Y008545D01*
X021266Y008546D02*
X020994Y008546D01*
X020994Y008547D02*
X021266Y008547D01*
X021266Y008548D02*
X020994Y008548D01*
X020994Y008549D02*
X021266Y008549D01*
X021266Y008550D02*
X020994Y008550D01*
X020994Y008551D02*
X021266Y008551D01*
X021266Y008552D02*
X020994Y008552D01*
X020994Y008553D02*
X021266Y008553D01*
X021266Y008554D02*
X020994Y008554D01*
X020994Y008555D02*
X021266Y008555D01*
X021266Y008556D02*
X020994Y008556D01*
X020994Y008557D02*
X021266Y008557D01*
X021266Y008558D02*
X020994Y008558D01*
X020994Y008559D02*
X021266Y008559D01*
X021266Y008560D02*
X020994Y008560D01*
X020994Y008561D02*
X021266Y008561D01*
X021266Y008562D02*
X020994Y008562D01*
X020994Y008563D02*
X021266Y008563D01*
X021266Y008564D02*
X020994Y008564D01*
X020994Y008565D02*
X021266Y008565D01*
X021266Y008566D02*
X020994Y008566D01*
X020994Y008567D02*
X021266Y008567D01*
X021266Y008568D02*
X020994Y008568D01*
X020994Y008569D02*
X021266Y008569D01*
X021266Y008570D02*
X020994Y008570D01*
X020994Y008571D02*
X021266Y008571D01*
X021266Y008572D02*
X020994Y008572D01*
X020994Y008573D02*
X021266Y008573D01*
X021266Y008574D02*
X020994Y008574D01*
X020994Y008575D02*
X021266Y008575D01*
X021266Y008576D02*
X020994Y008576D01*
X020994Y008577D02*
X021266Y008577D01*
X021266Y008578D02*
X020994Y008578D01*
X020994Y008579D02*
X021266Y008579D01*
X021266Y008580D02*
X020994Y008580D01*
X020994Y008581D02*
X021266Y008581D01*
X021266Y008582D02*
X020994Y008582D01*
X020994Y008583D02*
X021266Y008583D01*
X021266Y008584D02*
X020994Y008584D01*
X020994Y008585D02*
X021266Y008585D01*
X021266Y008586D02*
X020994Y008586D01*
X020994Y008587D02*
X021266Y008587D01*
X021266Y008588D02*
X020994Y008588D01*
X020994Y008589D02*
X021266Y008589D01*
X021266Y008590D02*
X020994Y008590D01*
X020994Y008591D02*
X021266Y008591D01*
X021266Y008592D02*
X020994Y008592D01*
X020994Y008593D02*
X021266Y008593D01*
X021266Y008594D02*
X020994Y008594D01*
X020994Y008595D02*
X021266Y008595D01*
X021266Y008596D02*
X020994Y008596D01*
X020994Y008597D02*
X021266Y008597D01*
X021266Y008598D02*
X020994Y008598D01*
X020994Y008599D02*
X021266Y008599D01*
X021266Y008600D02*
X020994Y008600D01*
X020994Y008601D02*
X021266Y008601D01*
X021266Y008602D02*
X020994Y008602D01*
X020994Y008603D02*
X021266Y008603D01*
X021266Y008604D02*
X020994Y008604D01*
X020994Y008605D02*
X021266Y008605D01*
X021266Y008606D02*
X020994Y008606D01*
X020994Y008607D02*
X021266Y008607D01*
X021266Y008608D02*
X020994Y008608D01*
X020994Y008609D02*
X021266Y008609D01*
X021266Y008610D02*
X020994Y008610D01*
X020994Y008611D02*
X021266Y008611D01*
X021266Y008612D02*
X020994Y008612D01*
X020994Y008613D02*
X021266Y008613D01*
X021266Y008614D02*
X020994Y008614D01*
X020994Y008615D02*
X021266Y008615D01*
X021266Y008616D02*
X020994Y008616D01*
X020994Y008617D02*
X021266Y008617D01*
X021266Y008618D02*
X020994Y008618D01*
X020994Y008619D02*
X021266Y008619D01*
X021266Y008620D02*
X020994Y008620D01*
X020994Y008621D02*
X021266Y008621D01*
X021266Y008622D02*
X020994Y008622D01*
X020994Y008623D02*
X021266Y008623D01*
X021266Y008624D02*
X020994Y008624D01*
X020994Y008625D02*
X021266Y008625D01*
X021266Y008626D02*
X020994Y008626D01*
X020994Y008627D02*
X021266Y008627D01*
X021266Y008628D02*
X020994Y008628D01*
X020994Y008629D02*
X021262Y008629D01*
X021259Y008630D02*
X020994Y008630D01*
X020994Y008631D02*
X021255Y008631D01*
X021252Y008632D02*
X020994Y008632D01*
X020994Y008633D02*
X021248Y008633D01*
X021245Y008634D02*
X020994Y008634D01*
X020994Y008635D02*
X021241Y008635D01*
X021238Y008636D02*
X020994Y008636D01*
X020994Y008637D02*
X021236Y008637D01*
X021233Y008638D02*
X020994Y008638D01*
X020994Y008639D02*
X021231Y008639D01*
X021229Y008640D02*
X020994Y008640D01*
X020994Y008641D02*
X021226Y008641D01*
X021224Y008642D02*
X020994Y008642D01*
X020994Y008643D02*
X021222Y008643D01*
X021219Y008644D02*
X020994Y008644D01*
X020994Y008645D02*
X021217Y008645D01*
X021215Y008646D02*
X020994Y008646D01*
X020994Y008647D02*
X021212Y008647D01*
X021210Y008648D02*
X020994Y008648D01*
X020994Y008649D02*
X021206Y008649D01*
X021202Y008650D02*
X020994Y008650D01*
X020994Y008651D02*
X021198Y008651D01*
X021194Y008652D02*
X020994Y008652D01*
X020994Y008653D02*
X021190Y008653D01*
X021186Y008654D02*
X020994Y008654D01*
X020994Y008655D02*
X021182Y008655D01*
X021178Y008656D02*
X020994Y008656D01*
X020994Y008657D02*
X021176Y008657D01*
X021174Y008658D02*
X020994Y008658D01*
X020994Y008659D02*
X021171Y008659D01*
X021169Y008660D02*
X020994Y008660D01*
X020994Y008661D02*
X021167Y008661D01*
X021164Y008662D02*
X020994Y008662D01*
X020994Y008663D02*
X021162Y008663D01*
X021160Y008664D02*
X020995Y008664D01*
X020997Y008665D02*
X021157Y008665D01*
X021155Y008666D02*
X020999Y008666D01*
X021001Y008667D02*
X021153Y008667D01*
X021150Y008668D02*
X021003Y008668D01*
X021005Y008669D02*
X021148Y008669D01*
X021146Y008670D02*
X021007Y008670D01*
X021009Y008671D02*
X021143Y008671D01*
X021141Y008672D02*
X021011Y008672D01*
X021013Y008673D02*
X021139Y008673D01*
X021136Y008674D02*
X021015Y008674D01*
X021017Y008675D02*
X021134Y008675D01*
X021132Y008676D02*
X021020Y008676D01*
X021022Y008677D02*
X021129Y008677D01*
X021127Y008678D02*
X021024Y008678D01*
X021027Y008679D02*
X021125Y008679D01*
X021121Y008680D02*
X021029Y008680D01*
X021031Y008681D02*
X021118Y008681D01*
X021114Y008682D02*
X021034Y008682D01*
X021036Y008683D02*
X021111Y008683D01*
X021107Y008684D02*
X021038Y008684D01*
X021041Y008685D02*
X021104Y008685D01*
X021100Y008686D02*
X021043Y008686D01*
X021045Y008687D02*
X021097Y008687D01*
X021095Y008688D02*
X021047Y008688D01*
X021049Y008689D02*
X021092Y008689D01*
X021090Y008690D02*
X021051Y008690D01*
X021053Y008691D02*
X021088Y008691D01*
X021085Y008692D02*
X021055Y008692D01*
X021057Y008693D02*
X021083Y008693D01*
X021081Y008694D02*
X021059Y008694D01*
X021061Y008695D02*
X021078Y008695D01*
X021076Y008696D02*
X021063Y008696D01*
X021065Y008697D02*
X021074Y008697D01*
X021071Y008698D02*
X021067Y008698D01*
D24*
X009754Y014516D03*
X009754Y015500D03*
X009754Y016484D03*
X007530Y016484D03*
X007530Y015500D03*
X007530Y014516D03*
D25*
X008642Y014909D03*
X008642Y016091D03*
D26*
X015709Y018000D03*
X016575Y017626D03*
X016575Y018374D03*
D27*
X016182Y009250D03*
X016182Y008750D03*
X016182Y008250D03*
X016182Y007750D03*
X014102Y007750D03*
X014102Y008250D03*
X014102Y008750D03*
X014102Y009250D03*
D28*
X015142Y008500D03*
D29*
X012732Y006000D03*
X011552Y006000D03*
D30*
X013142Y008140D03*
X013142Y008860D03*
D31*
X014782Y007000D03*
X015502Y007000D03*
D32*
X018392Y005650D03*
X018392Y003850D03*
D33*
X011892Y007520D03*
X011892Y008980D03*
D34*
X014022Y004750D03*
X016262Y004750D03*
M02*
