G75*
G70*
%OFA0B0*%
%FSLAX24Y24*%
%IPPOS*%
%LPD*%
%AMOC8*
5,1,8,0,0,1.08239X$1,22.5*
%
%ADD10R,0.4252X0.4098*%
%ADD11R,0.0420X0.0850*%
%ADD12R,0.0630X0.1535*%
%ADD13R,0.0551X0.1496*%
%ADD14R,0.1575X0.2165*%
%ADD15R,0.0787X0.0787*%
%ADD16R,0.0800X0.0260*%
%ADD17R,0.0240X0.0870*%
%ADD18R,0.0748X0.0433*%
%ADD19R,0.0433X0.0394*%
%ADD20R,0.0394X0.0433*%
%ADD21R,0.0800X0.0800*%
%ADD22R,0.0453X0.0394*%
D10*
X016500Y005000D03*
D11*
X016500Y008280D03*
X015830Y008280D03*
X015160Y008280D03*
X017170Y008280D03*
X017840Y008280D03*
D12*
X015250Y009577D03*
X015250Y012923D03*
D13*
X020750Y011931D03*
X020750Y009569D03*
D14*
X019827Y005500D03*
X023173Y005500D03*
D15*
X018250Y010213D03*
X018250Y011787D03*
D16*
X019570Y015000D03*
X019570Y015500D03*
X019570Y016000D03*
X019570Y016500D03*
X019570Y017000D03*
X019570Y017500D03*
X019570Y018000D03*
X019570Y018500D03*
X019570Y019000D03*
X023430Y019000D03*
X023430Y018500D03*
X023430Y018000D03*
X023430Y017500D03*
X023430Y017000D03*
X023430Y016500D03*
X023430Y016000D03*
X023430Y015500D03*
X023430Y015000D03*
D17*
X012750Y007530D03*
X012250Y007530D03*
X011750Y007530D03*
X011250Y007530D03*
X011250Y005470D03*
X011750Y005470D03*
X012250Y005470D03*
X012750Y005470D03*
D18*
X017022Y015297D03*
X017022Y016203D03*
X018478Y016203D03*
X018478Y015297D03*
D19*
X018085Y014500D03*
X017415Y014500D03*
X017415Y017000D03*
X018085Y017000D03*
X021165Y014250D03*
X021835Y014250D03*
D20*
X010500Y006165D03*
X010500Y006835D03*
X013500Y006835D03*
X013500Y006165D03*
X008000Y017415D03*
X008000Y018085D03*
X007000Y018085D03*
X007000Y017415D03*
X006000Y017415D03*
X006000Y018085D03*
D21*
X026000Y008500D03*
D22*
X008112Y014516D03*
X008112Y015500D03*
X008112Y016484D03*
X005888Y016484D03*
X005888Y015500D03*
X005888Y014516D03*
M02*
