G75*
G70*
%OFA0B0*%
%FSLAX24Y24*%
%IPPOS*%
%LPD*%
%AMOC8*
5,1,8,0,0,1.08239X$1,22.5*
%
%ADD10R,0.4252X0.4098*%
%ADD11R,0.0420X0.0850*%
%ADD12R,0.0630X0.1535*%
%ADD13R,0.0551X0.1496*%
%ADD14R,0.1575X0.2165*%
%ADD15R,0.0787X0.0787*%
%ADD16R,0.0800X0.0260*%
%ADD17R,0.0240X0.0870*%
%ADD18R,0.0748X0.0433*%
%ADD19R,0.0433X0.0394*%
%ADD20R,0.0394X0.0433*%
%ADD21OC8,0.0660*%
%ADD22OC8,0.0700*%
%ADD23R,0.0700X0.0700*%
%ADD24C,0.0740*%
%ADD25R,0.0740X0.0740*%
%ADD26R,0.0250X0.0500*%
%ADD27C,0.0000*%
%ADD28C,0.0001*%
%ADD29R,0.0453X0.0394*%
%ADD30C,0.0100*%
%ADD31C,0.0200*%
%ADD32C,0.0238*%
%ADD33C,0.0160*%
%ADD34C,0.0240*%
D10*
X016500Y005000D03*
D11*
X016500Y008280D03*
X015830Y008280D03*
X015160Y008280D03*
X017170Y008280D03*
X017840Y008280D03*
D12*
X015250Y009577D03*
X015250Y012923D03*
D13*
X020750Y011931D03*
X020750Y009569D03*
D14*
X019827Y005500D03*
X023173Y005500D03*
D15*
X018250Y010213D03*
X018250Y011787D03*
D16*
X019570Y015000D03*
X019570Y015500D03*
X019570Y016000D03*
X019570Y016500D03*
X019570Y017000D03*
X019570Y017500D03*
X019570Y018000D03*
X019570Y018500D03*
X019570Y019000D03*
X023430Y019000D03*
X023430Y018500D03*
X023430Y018000D03*
X023430Y017500D03*
X023430Y017000D03*
X023430Y016500D03*
X023430Y016000D03*
X023430Y015500D03*
X023430Y015000D03*
D17*
X012750Y007530D03*
X012250Y007530D03*
X011750Y007530D03*
X011250Y007530D03*
X011250Y005470D03*
X011750Y005470D03*
X012250Y005470D03*
X012750Y005470D03*
D18*
X017022Y015297D03*
X017022Y016203D03*
X018478Y016203D03*
X018478Y015297D03*
D19*
X018085Y014500D03*
X017415Y014500D03*
X017415Y017000D03*
X018085Y017000D03*
X021165Y014250D03*
X021835Y014250D03*
D20*
X013500Y006835D03*
X013500Y006165D03*
X010500Y006165D03*
X010500Y006835D03*
X008000Y017415D03*
X008000Y018085D03*
X007000Y018085D03*
X007000Y017415D03*
X006000Y017415D03*
X006000Y018085D03*
D21*
X007900Y020500D03*
X008900Y020500D03*
X009900Y020500D03*
X010900Y020500D03*
X011900Y020500D03*
X012900Y020500D03*
X013900Y020500D03*
X014900Y020500D03*
X015900Y020500D03*
X016900Y020500D03*
X018500Y020500D03*
X019500Y020500D03*
X020500Y020500D03*
X021500Y020500D03*
X022500Y020500D03*
X023500Y020500D03*
X024500Y020500D03*
X025500Y020500D03*
X025500Y001500D03*
X024500Y001500D03*
X023500Y001500D03*
X022500Y001500D03*
X021500Y001500D03*
X020500Y001500D03*
X018500Y001500D03*
X017500Y001500D03*
X016500Y001500D03*
X015500Y001500D03*
X014500Y001500D03*
X013500Y001500D03*
X012500Y001500D03*
X011500Y001500D03*
D22*
X025550Y010500D03*
X026550Y010500D03*
X026550Y011500D03*
X025550Y011500D03*
X026550Y012500D03*
D23*
X025550Y012500D03*
D24*
X008000Y010750D03*
X007000Y010250D03*
X008000Y009750D03*
X007000Y009250D03*
X008000Y008750D03*
X007000Y008250D03*
X008000Y007750D03*
X008000Y004750D03*
X007000Y004250D03*
X008000Y003750D03*
X007000Y003250D03*
X008000Y002750D03*
X007000Y002250D03*
X008000Y001750D03*
D25*
X007000Y005250D03*
X007000Y011250D03*
D26*
X025842Y008500D03*
X026162Y008500D03*
X026177Y006750D03*
X025823Y006750D03*
X025823Y005000D03*
X026177Y005000D03*
D27*
X010945Y014602D02*
X010953Y014626D01*
X010965Y014654D01*
X010976Y014677D01*
X010965Y014705D01*
X010957Y014732D01*
X010945Y014760D01*
X010937Y014787D01*
X010925Y014819D01*
X010913Y014846D01*
X010906Y014874D01*
X010654Y014874D01*
X010622Y014874D01*
X010614Y014846D01*
X010602Y014819D01*
X010594Y014787D01*
X010583Y014760D01*
X010571Y014732D01*
X010563Y014705D01*
X010551Y014677D01*
X010563Y014654D01*
X010575Y014626D01*
X010587Y014602D01*
X010945Y014602D01*
D28*
X010945Y014603D02*
X010586Y014603D01*
X010586Y014604D02*
X010945Y014604D01*
X010946Y014605D02*
X010585Y014605D01*
X010585Y014606D02*
X010946Y014606D01*
X010946Y014607D02*
X010584Y014607D01*
X010584Y014608D02*
X010947Y014608D01*
X010947Y014609D02*
X010583Y014609D01*
X010583Y014610D02*
X010947Y014610D01*
X010948Y014611D02*
X010582Y014611D01*
X010582Y014612D02*
X010948Y014612D01*
X010948Y014613D02*
X010581Y014613D01*
X010581Y014614D02*
X010949Y014614D01*
X010949Y014615D02*
X010580Y014615D01*
X010580Y014616D02*
X010949Y014616D01*
X010950Y014617D02*
X010579Y014617D01*
X010579Y014618D02*
X010950Y014618D01*
X010950Y014619D02*
X010578Y014619D01*
X010578Y014620D02*
X010951Y014620D01*
X010951Y014621D02*
X010577Y014621D01*
X010577Y014622D02*
X010951Y014622D01*
X010952Y014623D02*
X010576Y014623D01*
X010576Y014624D02*
X010952Y014624D01*
X010952Y014625D02*
X010575Y014625D01*
X010575Y014626D02*
X010953Y014626D01*
X010953Y014627D02*
X010574Y014627D01*
X010574Y014628D02*
X010954Y014628D01*
X010954Y014629D02*
X010573Y014629D01*
X010573Y014630D02*
X010955Y014630D01*
X010955Y014631D02*
X010573Y014631D01*
X010572Y014632D02*
X010955Y014632D01*
X010956Y014633D02*
X010572Y014633D01*
X010571Y014634D02*
X010956Y014634D01*
X010957Y014635D02*
X010571Y014635D01*
X010570Y014636D02*
X010957Y014636D01*
X010958Y014637D02*
X010570Y014637D01*
X010570Y014638D02*
X010958Y014638D01*
X010958Y014639D02*
X010569Y014639D01*
X010569Y014640D02*
X010959Y014640D01*
X010959Y014641D02*
X010568Y014641D01*
X010568Y014642D02*
X010960Y014642D01*
X010960Y014643D02*
X010567Y014643D01*
X010567Y014644D02*
X010961Y014644D01*
X010961Y014645D02*
X010567Y014645D01*
X010566Y014646D02*
X010961Y014646D01*
X010962Y014647D02*
X010566Y014647D01*
X010565Y014648D02*
X010962Y014648D01*
X010963Y014649D02*
X010565Y014649D01*
X010564Y014650D02*
X010963Y014650D01*
X010964Y014651D02*
X010564Y014651D01*
X010564Y014652D02*
X010964Y014652D01*
X010964Y014653D02*
X010563Y014653D01*
X010563Y014654D02*
X010965Y014654D01*
X010965Y014655D02*
X010562Y014655D01*
X010562Y014656D02*
X010966Y014656D01*
X010966Y014657D02*
X010561Y014657D01*
X010561Y014658D02*
X010967Y014658D01*
X010967Y014659D02*
X010560Y014659D01*
X010560Y014660D02*
X010968Y014660D01*
X010968Y014661D02*
X010559Y014661D01*
X010559Y014662D02*
X010969Y014662D01*
X010969Y014663D02*
X010558Y014663D01*
X010558Y014664D02*
X010970Y014664D01*
X010970Y014665D02*
X010557Y014665D01*
X010557Y014666D02*
X010971Y014666D01*
X010971Y014667D02*
X010556Y014667D01*
X010556Y014668D02*
X010972Y014668D01*
X010972Y014669D02*
X010555Y014669D01*
X010555Y014670D02*
X010973Y014670D01*
X010973Y014671D02*
X010554Y014671D01*
X010554Y014672D02*
X010974Y014672D01*
X010974Y014673D02*
X010553Y014673D01*
X010553Y014674D02*
X010975Y014674D01*
X010975Y014675D02*
X010552Y014675D01*
X010552Y014676D02*
X010976Y014676D01*
X010976Y014677D02*
X010551Y014677D01*
X010552Y014678D02*
X010976Y014678D01*
X010976Y014679D02*
X010552Y014679D01*
X010552Y014680D02*
X010975Y014680D01*
X010975Y014681D02*
X010553Y014681D01*
X010553Y014682D02*
X010974Y014682D01*
X010974Y014683D02*
X010554Y014683D01*
X010554Y014684D02*
X010973Y014684D01*
X010973Y014685D02*
X010555Y014685D01*
X010555Y014686D02*
X010973Y014686D01*
X010972Y014687D02*
X010555Y014687D01*
X010556Y014688D02*
X010972Y014688D01*
X010971Y014689D02*
X010556Y014689D01*
X010557Y014690D02*
X010971Y014690D01*
X010970Y014691D02*
X010557Y014691D01*
X010558Y014692D02*
X010970Y014692D01*
X010970Y014693D02*
X010558Y014693D01*
X010558Y014694D02*
X010969Y014694D01*
X010969Y014695D02*
X010559Y014695D01*
X010559Y014696D02*
X010968Y014696D01*
X010968Y014697D02*
X010560Y014697D01*
X010560Y014698D02*
X010967Y014698D01*
X010967Y014699D02*
X010561Y014699D01*
X010561Y014700D02*
X010967Y014700D01*
X010966Y014701D02*
X010561Y014701D01*
X010562Y014702D02*
X010966Y014702D01*
X010965Y014703D02*
X010562Y014703D01*
X010563Y014704D02*
X010965Y014704D01*
X010964Y014705D02*
X010563Y014705D01*
X010563Y014706D02*
X010964Y014706D01*
X010964Y014707D02*
X010564Y014707D01*
X010564Y014708D02*
X010964Y014708D01*
X010963Y014709D02*
X010564Y014709D01*
X010565Y014710D02*
X010963Y014710D01*
X010963Y014711D02*
X010565Y014711D01*
X010565Y014712D02*
X010962Y014712D01*
X010962Y014713D02*
X010565Y014713D01*
X010566Y014714D02*
X010962Y014714D01*
X010962Y014715D02*
X010566Y014715D01*
X010566Y014716D02*
X010961Y014716D01*
X010961Y014717D02*
X010566Y014717D01*
X010567Y014718D02*
X010961Y014718D01*
X010960Y014719D02*
X010567Y014719D01*
X010567Y014720D02*
X010960Y014720D01*
X010960Y014721D02*
X010568Y014721D01*
X010568Y014722D02*
X010960Y014722D01*
X010959Y014723D02*
X010568Y014723D01*
X010568Y014724D02*
X010959Y014724D01*
X010959Y014725D02*
X010569Y014725D01*
X010569Y014726D02*
X010958Y014726D01*
X010958Y014727D02*
X010569Y014727D01*
X010570Y014728D02*
X010958Y014728D01*
X010958Y014729D02*
X010570Y014729D01*
X010570Y014730D02*
X010957Y014730D01*
X010957Y014731D02*
X010570Y014731D01*
X010571Y014732D02*
X010957Y014732D01*
X010956Y014733D02*
X010571Y014733D01*
X010572Y014734D02*
X010956Y014734D01*
X010956Y014735D02*
X010572Y014735D01*
X010572Y014736D02*
X010955Y014736D01*
X010955Y014737D02*
X010573Y014737D01*
X010573Y014738D02*
X010954Y014738D01*
X010954Y014739D02*
X010574Y014739D01*
X010574Y014740D02*
X010953Y014740D01*
X010953Y014741D02*
X010575Y014741D01*
X010575Y014742D02*
X010953Y014742D01*
X010952Y014743D02*
X010575Y014743D01*
X010576Y014744D02*
X010952Y014744D01*
X010951Y014745D02*
X010576Y014745D01*
X010577Y014746D02*
X010951Y014746D01*
X010950Y014747D02*
X010577Y014747D01*
X010578Y014748D02*
X010950Y014748D01*
X010950Y014749D02*
X010578Y014749D01*
X010578Y014750D02*
X010949Y014750D01*
X010949Y014751D02*
X010579Y014751D01*
X010579Y014752D02*
X010948Y014752D01*
X010948Y014753D02*
X010580Y014753D01*
X010580Y014754D02*
X010947Y014754D01*
X010947Y014755D02*
X010581Y014755D01*
X010581Y014756D02*
X010947Y014756D01*
X010946Y014757D02*
X010581Y014757D01*
X010582Y014758D02*
X010946Y014758D01*
X010945Y014759D02*
X010582Y014759D01*
X010583Y014760D02*
X010945Y014760D01*
X010945Y014761D02*
X010583Y014761D01*
X010584Y014762D02*
X010944Y014762D01*
X010944Y014763D02*
X010584Y014763D01*
X010584Y014764D02*
X010944Y014764D01*
X010943Y014765D02*
X010585Y014765D01*
X010585Y014766D02*
X010943Y014766D01*
X010943Y014767D02*
X010586Y014767D01*
X010586Y014768D02*
X010943Y014768D01*
X010942Y014769D02*
X010587Y014769D01*
X010587Y014770D02*
X010942Y014770D01*
X010942Y014771D02*
X010587Y014771D01*
X010588Y014772D02*
X010941Y014772D01*
X010941Y014773D02*
X010588Y014773D01*
X010589Y014774D02*
X010941Y014774D01*
X010941Y014775D02*
X010589Y014775D01*
X010590Y014776D02*
X010940Y014776D01*
X010940Y014777D02*
X010590Y014777D01*
X010590Y014778D02*
X010940Y014778D01*
X010939Y014779D02*
X010591Y014779D01*
X010591Y014780D02*
X010939Y014780D01*
X010939Y014781D02*
X010592Y014781D01*
X010592Y014782D02*
X010939Y014782D01*
X010938Y014783D02*
X010593Y014783D01*
X010593Y014784D02*
X010938Y014784D01*
X010938Y014785D02*
X010593Y014785D01*
X010594Y014786D02*
X010937Y014786D01*
X010937Y014787D02*
X010594Y014787D01*
X010595Y014788D02*
X010937Y014788D01*
X010936Y014789D02*
X010595Y014789D01*
X010595Y014790D02*
X010936Y014790D01*
X010936Y014791D02*
X010595Y014791D01*
X010596Y014792D02*
X010935Y014792D01*
X010935Y014793D02*
X010596Y014793D01*
X010596Y014794D02*
X010935Y014794D01*
X010934Y014795D02*
X010596Y014795D01*
X010597Y014796D02*
X010934Y014796D01*
X010933Y014797D02*
X010597Y014797D01*
X010597Y014798D02*
X010933Y014798D01*
X010933Y014799D02*
X010597Y014799D01*
X010598Y014800D02*
X010932Y014800D01*
X010932Y014801D02*
X010598Y014801D01*
X010598Y014802D02*
X010932Y014802D01*
X010931Y014803D02*
X010598Y014803D01*
X010599Y014804D02*
X010931Y014804D01*
X010930Y014805D02*
X010599Y014805D01*
X010599Y014806D02*
X010930Y014806D01*
X010930Y014807D02*
X010599Y014807D01*
X010600Y014808D02*
X010929Y014808D01*
X010929Y014809D02*
X010600Y014809D01*
X010600Y014810D02*
X010929Y014810D01*
X010928Y014811D02*
X010600Y014811D01*
X010601Y014812D02*
X010928Y014812D01*
X010927Y014813D02*
X010601Y014813D01*
X010601Y014814D02*
X010927Y014814D01*
X010927Y014815D02*
X010601Y014815D01*
X010602Y014816D02*
X010926Y014816D01*
X010926Y014817D02*
X010602Y014817D01*
X010602Y014818D02*
X010926Y014818D01*
X010925Y014819D02*
X010602Y014819D01*
X010603Y014820D02*
X010925Y014820D01*
X010924Y014821D02*
X010603Y014821D01*
X010604Y014822D02*
X010924Y014822D01*
X010923Y014823D02*
X010604Y014823D01*
X010605Y014824D02*
X010923Y014824D01*
X010923Y014825D02*
X010605Y014825D01*
X010605Y014826D02*
X010922Y014826D01*
X010922Y014827D02*
X010606Y014827D01*
X010606Y014828D02*
X010921Y014828D01*
X010921Y014829D02*
X010607Y014829D01*
X010607Y014830D02*
X010920Y014830D01*
X010920Y014831D02*
X010607Y014831D01*
X010608Y014832D02*
X010920Y014832D01*
X010919Y014833D02*
X010608Y014833D01*
X010609Y014834D02*
X010919Y014834D01*
X010918Y014835D02*
X010609Y014835D01*
X010610Y014836D02*
X010918Y014836D01*
X010917Y014837D02*
X010610Y014837D01*
X010610Y014838D02*
X010917Y014838D01*
X010917Y014839D02*
X010611Y014839D01*
X010611Y014840D02*
X010916Y014840D01*
X010916Y014841D02*
X010612Y014841D01*
X010612Y014842D02*
X010915Y014842D01*
X010915Y014843D02*
X010613Y014843D01*
X010613Y014844D02*
X010914Y014844D01*
X010914Y014845D02*
X010613Y014845D01*
X010614Y014846D02*
X010914Y014846D01*
X010913Y014847D02*
X010614Y014847D01*
X010615Y014848D02*
X010913Y014848D01*
X010913Y014849D02*
X010615Y014849D01*
X010615Y014850D02*
X010912Y014850D01*
X010912Y014851D02*
X010615Y014851D01*
X010616Y014852D02*
X010912Y014852D01*
X010912Y014853D02*
X010616Y014853D01*
X010616Y014854D02*
X010911Y014854D01*
X010911Y014855D02*
X010617Y014855D01*
X010617Y014856D02*
X010911Y014856D01*
X010910Y014857D02*
X010617Y014857D01*
X010617Y014858D02*
X010910Y014858D01*
X010910Y014859D02*
X010618Y014859D01*
X010618Y014860D02*
X010910Y014860D01*
X010909Y014861D02*
X010618Y014861D01*
X010619Y014862D02*
X010909Y014862D01*
X010909Y014863D02*
X010619Y014863D01*
X010619Y014864D02*
X010908Y014864D01*
X010908Y014865D02*
X010619Y014865D01*
X010620Y014866D02*
X010908Y014866D01*
X010908Y014867D02*
X010620Y014867D01*
X010620Y014868D02*
X010907Y014868D01*
X010907Y014869D02*
X010621Y014869D01*
X010621Y014870D02*
X010907Y014870D01*
X010906Y014871D02*
X010621Y014871D01*
X010621Y014872D02*
X010906Y014872D01*
X010906Y014873D02*
X010622Y014873D01*
X010622Y014874D02*
X010906Y014874D01*
D29*
X008112Y014516D03*
X008112Y015500D03*
X008112Y016484D03*
X005888Y016484D03*
X005888Y015500D03*
X005888Y014516D03*
D30*
X005500Y004750D02*
X007000Y003250D01*
X005500Y004750D02*
X005500Y008500D01*
X006250Y009250D01*
X007000Y009250D01*
X008000Y008750D02*
X009250Y007500D01*
X009250Y004000D01*
X009500Y005250D02*
X009500Y008250D01*
X008000Y009750D01*
X008000Y010750D02*
X008500Y011250D01*
X008500Y015250D01*
X008250Y015500D01*
X008112Y015500D01*
X008112Y016484D02*
X008112Y017303D01*
X008000Y017415D01*
X008000Y018085D02*
X007000Y018085D01*
X006000Y018085D01*
X006000Y017415D02*
X005888Y017303D01*
X005888Y016484D01*
X005888Y015500D02*
X005750Y015500D01*
X005500Y015250D01*
X005500Y012750D01*
X007000Y011250D01*
X008000Y010750D02*
X009750Y009000D01*
X009750Y006500D01*
X011250Y006500D01*
X011750Y006000D01*
X011750Y005470D01*
X011250Y005470D02*
X011250Y003500D01*
X011500Y003250D01*
X013250Y003250D01*
X013500Y003000D02*
X013500Y006165D01*
X012835Y006165D01*
X011750Y007250D01*
X011750Y007530D01*
X012250Y007530D02*
X012250Y007000D01*
X012415Y006835D01*
X013500Y006835D01*
X013500Y007250D01*
X013908Y007592D02*
X015521Y007592D01*
X015521Y007595D02*
X015521Y007405D01*
X015655Y007271D01*
X015845Y007271D01*
X015979Y007405D01*
X015979Y007595D01*
X015910Y007664D01*
X015910Y007745D01*
X016086Y007745D01*
X016150Y007809D01*
X016150Y008590D01*
X016590Y008590D01*
X016590Y006934D01*
X016684Y006840D01*
X018340Y006840D01*
X018340Y003000D01*
X014500Y003000D01*
X014500Y007000D01*
X013000Y008500D01*
X013000Y013750D01*
X024000Y013750D01*
X024000Y011160D01*
X014434Y011160D01*
X014340Y011066D01*
X014340Y009184D01*
X014434Y009090D01*
X014934Y008590D01*
X015510Y008590D01*
X015510Y007809D01*
X015574Y007745D01*
X015590Y007745D01*
X015590Y007664D01*
X015521Y007595D01*
X015521Y007494D02*
X014006Y007494D01*
X014105Y007395D02*
X015531Y007395D01*
X015630Y007297D02*
X014203Y007297D01*
X014302Y007198D02*
X016590Y007198D01*
X016590Y007100D02*
X014400Y007100D01*
X014499Y007001D02*
X016590Y007001D01*
X016621Y006903D02*
X014500Y006903D01*
X014500Y006804D02*
X018340Y006804D01*
X018340Y006706D02*
X014500Y006706D01*
X014500Y006607D02*
X018340Y006607D01*
X018340Y006509D02*
X014500Y006509D01*
X014500Y006410D02*
X018340Y006410D01*
X018340Y006312D02*
X014500Y006312D01*
X014500Y006213D02*
X018340Y006213D01*
X018340Y006115D02*
X014500Y006115D01*
X014500Y006016D02*
X018340Y006016D01*
X018340Y005918D02*
X014500Y005918D01*
X014500Y005819D02*
X018340Y005819D01*
X018340Y005721D02*
X014500Y005721D01*
X014500Y005622D02*
X018340Y005622D01*
X018340Y005524D02*
X014500Y005524D01*
X014500Y005425D02*
X018340Y005425D01*
X018340Y005327D02*
X014500Y005327D01*
X014500Y005228D02*
X018340Y005228D01*
X018340Y005130D02*
X014500Y005130D01*
X014500Y005031D02*
X018340Y005031D01*
X018340Y004933D02*
X014500Y004933D01*
X014500Y004834D02*
X018340Y004834D01*
X018340Y004736D02*
X014500Y004736D01*
X014500Y004637D02*
X018340Y004637D01*
X018340Y004539D02*
X014500Y004539D01*
X014500Y004440D02*
X018340Y004440D01*
X018340Y004342D02*
X014500Y004342D01*
X014500Y004243D02*
X018340Y004243D01*
X018340Y004145D02*
X014500Y004145D01*
X014500Y004046D02*
X018340Y004046D01*
X018340Y003948D02*
X014500Y003948D01*
X014500Y003849D02*
X018340Y003849D01*
X018340Y003751D02*
X014500Y003751D01*
X014500Y003652D02*
X018340Y003652D01*
X018340Y003554D02*
X014500Y003554D01*
X014500Y003455D02*
X018340Y003455D01*
X018340Y003357D02*
X014500Y003357D01*
X014500Y003258D02*
X018340Y003258D01*
X018340Y003160D02*
X014500Y003160D01*
X014500Y003061D02*
X018340Y003061D01*
X018736Y003061D02*
X021500Y003061D01*
X021500Y003000D02*
X018736Y003000D01*
X018736Y007095D01*
X018672Y007159D01*
X017660Y007159D01*
X017660Y011000D01*
X019500Y011000D01*
X019500Y009500D01*
X021500Y007500D01*
X021500Y003000D01*
X021500Y003160D02*
X018736Y003160D01*
X018736Y003258D02*
X021500Y003258D01*
X021500Y003357D02*
X018736Y003357D01*
X018736Y003455D02*
X021500Y003455D01*
X021500Y003554D02*
X018736Y003554D01*
X018736Y003652D02*
X021500Y003652D01*
X021500Y003751D02*
X018736Y003751D01*
X018736Y003849D02*
X021500Y003849D01*
X021500Y003948D02*
X018736Y003948D01*
X018736Y004046D02*
X021500Y004046D01*
X021500Y004145D02*
X018736Y004145D01*
X018736Y004243D02*
X021500Y004243D01*
X021500Y004342D02*
X018736Y004342D01*
X018736Y004440D02*
X021500Y004440D01*
X021500Y004539D02*
X018736Y004539D01*
X018736Y004637D02*
X021500Y004637D01*
X021500Y004736D02*
X018736Y004736D01*
X018736Y004834D02*
X021500Y004834D01*
X021500Y004933D02*
X018736Y004933D01*
X018736Y005031D02*
X021500Y005031D01*
X021500Y005130D02*
X018736Y005130D01*
X018736Y005228D02*
X021500Y005228D01*
X021500Y005327D02*
X018736Y005327D01*
X018736Y005425D02*
X021500Y005425D01*
X021500Y005524D02*
X018736Y005524D01*
X018736Y005622D02*
X021500Y005622D01*
X021500Y005721D02*
X018736Y005721D01*
X018736Y005819D02*
X021500Y005819D01*
X021500Y005918D02*
X018736Y005918D01*
X018736Y006016D02*
X021500Y006016D01*
X021500Y006115D02*
X018736Y006115D01*
X018736Y006213D02*
X021500Y006213D01*
X021500Y006312D02*
X018736Y006312D01*
X018736Y006410D02*
X021500Y006410D01*
X021500Y006509D02*
X018736Y006509D01*
X018736Y006607D02*
X021500Y006607D01*
X021500Y006706D02*
X018736Y006706D01*
X018736Y006804D02*
X021500Y006804D01*
X021500Y006903D02*
X018736Y006903D01*
X018736Y007001D02*
X021500Y007001D01*
X021500Y007100D02*
X018731Y007100D01*
X017660Y007198D02*
X021500Y007198D01*
X021500Y007297D02*
X017660Y007297D01*
X017660Y007395D02*
X021500Y007395D01*
X021500Y007494D02*
X017660Y007494D01*
X017660Y007592D02*
X021408Y007592D01*
X021309Y007691D02*
X017660Y007691D01*
X017660Y007789D02*
X021211Y007789D01*
X021112Y007888D02*
X017660Y007888D01*
X017660Y007986D02*
X021014Y007986D01*
X020915Y008085D02*
X017660Y008085D01*
X017660Y008183D02*
X020817Y008183D01*
X020718Y008282D02*
X017660Y008282D01*
X017660Y008380D02*
X020620Y008380D01*
X020521Y008479D02*
X017660Y008479D01*
X017660Y008577D02*
X020423Y008577D01*
X020324Y008676D02*
X017660Y008676D01*
X017660Y008774D02*
X020226Y008774D01*
X020127Y008873D02*
X017660Y008873D01*
X017660Y008971D02*
X020029Y008971D01*
X019930Y009070D02*
X017660Y009070D01*
X017660Y009168D02*
X019832Y009168D01*
X019733Y009267D02*
X017660Y009267D01*
X017660Y009365D02*
X019635Y009365D01*
X019536Y009464D02*
X017660Y009464D01*
X017660Y009562D02*
X019500Y009562D01*
X019500Y009661D02*
X017660Y009661D01*
X017660Y009759D02*
X019500Y009759D01*
X019500Y009858D02*
X017660Y009858D01*
X017660Y009956D02*
X019500Y009956D01*
X019500Y010055D02*
X017660Y010055D01*
X017660Y010153D02*
X019500Y010153D01*
X019500Y010252D02*
X017660Y010252D01*
X017660Y010350D02*
X019500Y010350D01*
X019500Y010449D02*
X017660Y010449D01*
X017660Y010547D02*
X019500Y010547D01*
X019500Y010646D02*
X017660Y010646D01*
X017660Y010744D02*
X019500Y010744D01*
X019500Y010843D02*
X017660Y010843D01*
X017660Y010941D02*
X019500Y010941D01*
X019660Y010941D02*
X024000Y010941D01*
X024000Y011000D02*
X024000Y003000D01*
X021660Y003000D01*
X021660Y007566D01*
X021566Y007660D01*
X019660Y009566D01*
X019660Y011000D01*
X024000Y011000D01*
X024000Y010843D02*
X019660Y010843D01*
X019660Y010744D02*
X024000Y010744D01*
X024000Y010646D02*
X019660Y010646D01*
X019660Y010547D02*
X024000Y010547D01*
X024000Y010449D02*
X019660Y010449D01*
X019660Y010350D02*
X024000Y010350D01*
X024000Y010252D02*
X019660Y010252D01*
X019660Y010153D02*
X024000Y010153D01*
X024000Y010055D02*
X019660Y010055D01*
X019660Y009956D02*
X024000Y009956D01*
X024000Y009858D02*
X019660Y009858D01*
X019660Y009759D02*
X024000Y009759D01*
X024000Y009661D02*
X019660Y009661D01*
X019664Y009562D02*
X024000Y009562D01*
X024000Y009464D02*
X019763Y009464D01*
X019861Y009365D02*
X024000Y009365D01*
X024000Y009267D02*
X019960Y009267D01*
X020058Y009168D02*
X024000Y009168D01*
X024000Y009070D02*
X020157Y009070D01*
X020255Y008971D02*
X024000Y008971D01*
X024000Y008873D02*
X020354Y008873D01*
X020452Y008774D02*
X024000Y008774D01*
X024000Y008676D02*
X020551Y008676D01*
X020649Y008577D02*
X024000Y008577D01*
X024000Y008479D02*
X020748Y008479D01*
X020846Y008380D02*
X024000Y008380D01*
X024000Y008282D02*
X020945Y008282D01*
X021043Y008183D02*
X024000Y008183D01*
X024000Y008085D02*
X021142Y008085D01*
X021240Y007986D02*
X024000Y007986D01*
X024000Y007888D02*
X021339Y007888D01*
X021437Y007789D02*
X024000Y007789D01*
X024000Y007691D02*
X021536Y007691D01*
X021634Y007592D02*
X024000Y007592D01*
X024000Y007494D02*
X021660Y007494D01*
X021660Y007395D02*
X024000Y007395D01*
X024000Y007297D02*
X021660Y007297D01*
X021660Y007198D02*
X024000Y007198D01*
X024000Y007100D02*
X021660Y007100D01*
X021660Y007001D02*
X024000Y007001D01*
X024000Y006903D02*
X021660Y006903D01*
X021660Y006804D02*
X024000Y006804D01*
X024000Y006706D02*
X021660Y006706D01*
X021660Y006607D02*
X024000Y006607D01*
X024000Y006509D02*
X021660Y006509D01*
X021660Y006410D02*
X024000Y006410D01*
X024000Y006312D02*
X021660Y006312D01*
X021660Y006213D02*
X024000Y006213D01*
X024000Y006115D02*
X021660Y006115D01*
X021660Y006016D02*
X024000Y006016D01*
X024000Y005918D02*
X021660Y005918D01*
X021660Y005819D02*
X024000Y005819D01*
X024000Y005721D02*
X021660Y005721D01*
X021660Y005622D02*
X024000Y005622D01*
X024000Y005524D02*
X021660Y005524D01*
X021660Y005425D02*
X024000Y005425D01*
X024000Y005327D02*
X021660Y005327D01*
X021660Y005228D02*
X024000Y005228D01*
X024000Y005130D02*
X021660Y005130D01*
X021660Y005031D02*
X024000Y005031D01*
X024000Y004933D02*
X021660Y004933D01*
X021660Y004834D02*
X024000Y004834D01*
X024000Y004736D02*
X021660Y004736D01*
X021660Y004637D02*
X024000Y004637D01*
X024000Y004539D02*
X021660Y004539D01*
X021660Y004440D02*
X024000Y004440D01*
X024000Y004342D02*
X021660Y004342D01*
X021660Y004243D02*
X024000Y004243D01*
X024000Y004145D02*
X021660Y004145D01*
X021660Y004046D02*
X024000Y004046D01*
X024000Y003948D02*
X021660Y003948D01*
X021660Y003849D02*
X024000Y003849D01*
X024000Y003751D02*
X021660Y003751D01*
X021660Y003652D02*
X024000Y003652D01*
X024000Y003554D02*
X021660Y003554D01*
X021660Y003455D02*
X024000Y003455D01*
X024000Y003357D02*
X021660Y003357D01*
X021660Y003258D02*
X024000Y003258D01*
X024000Y003160D02*
X021660Y003160D01*
X021660Y003061D02*
X024000Y003061D01*
X024500Y002750D02*
X024750Y003000D01*
X024750Y009250D01*
X024625Y009375D01*
X024500Y009500D01*
X024500Y013750D01*
X024000Y014250D01*
X021835Y014250D01*
X021165Y014250D02*
X021165Y014835D01*
X021000Y015000D01*
X019570Y015000D01*
X019570Y015500D02*
X019250Y015500D01*
X019000Y015750D01*
X017474Y015750D01*
X017022Y015297D01*
X017022Y014894D01*
X017415Y014500D01*
X018085Y014500D02*
X018500Y014500D01*
X018681Y016000D02*
X018478Y016203D01*
X018478Y016606D01*
X018085Y017000D01*
X017415Y017000D02*
X017000Y017000D01*
X018681Y016000D02*
X019570Y016000D01*
X020750Y014250D02*
X021165Y014250D01*
X022000Y015250D02*
X022250Y015000D01*
X023430Y015000D01*
X023430Y015500D02*
X022500Y015500D01*
X022250Y015750D01*
X022250Y020250D01*
X022500Y020500D01*
X022000Y020000D02*
X022000Y015250D01*
X022750Y016000D02*
X023430Y016000D01*
X024000Y016250D02*
X024000Y014250D01*
X024000Y013699D02*
X013000Y013699D01*
X013000Y013601D02*
X024000Y013601D01*
X024000Y013502D02*
X013000Y013502D01*
X013000Y013404D02*
X024000Y013404D01*
X024000Y013305D02*
X013000Y013305D01*
X013000Y013207D02*
X024000Y013207D01*
X024000Y013108D02*
X013000Y013108D01*
X013000Y013010D02*
X024000Y013010D01*
X024000Y012911D02*
X013000Y012911D01*
X013000Y012813D02*
X024000Y012813D01*
X024000Y012714D02*
X013000Y012714D01*
X013000Y012616D02*
X024000Y012616D01*
X024000Y012517D02*
X013000Y012517D01*
X013000Y012419D02*
X024000Y012419D01*
X024000Y012320D02*
X013000Y012320D01*
X013000Y012222D02*
X024000Y012222D01*
X024000Y012123D02*
X013000Y012123D01*
X013000Y012025D02*
X024000Y012025D01*
X024000Y011926D02*
X013000Y011926D01*
X013000Y011828D02*
X024000Y011828D01*
X024000Y011729D02*
X013000Y011729D01*
X013000Y011631D02*
X024000Y011631D01*
X024000Y011532D02*
X013000Y011532D01*
X013000Y011434D02*
X024000Y011434D01*
X024000Y011335D02*
X013000Y011335D01*
X013000Y011237D02*
X024000Y011237D01*
X024750Y011750D02*
X024750Y016000D01*
X024250Y016500D01*
X023430Y016500D01*
X023430Y017000D02*
X024500Y017000D01*
X025000Y016500D01*
X025000Y012000D01*
X026000Y012000D01*
X026500Y011500D01*
X026550Y011500D01*
X025550Y011500D02*
X025000Y011500D01*
X024750Y011750D01*
X025550Y012500D02*
X025550Y012700D01*
X025250Y013000D01*
X025250Y017000D01*
X024750Y017500D01*
X023430Y017500D01*
X023430Y018000D02*
X022750Y018000D01*
X023430Y018500D02*
X024000Y018500D01*
X024000Y019000D01*
X023430Y019000D01*
X024000Y018500D02*
X024000Y017750D01*
X022500Y016250D02*
X022750Y016000D01*
X022500Y016250D02*
X022500Y019500D01*
X023500Y020500D01*
X022000Y020000D02*
X021500Y020500D01*
X021500Y020000D02*
X015400Y020000D01*
X014900Y020500D01*
X011750Y019250D02*
X011500Y019000D01*
X011500Y009500D01*
X012750Y008250D01*
X012750Y007530D01*
X013514Y007986D02*
X015510Y007986D01*
X015510Y007888D02*
X013612Y007888D01*
X013711Y007789D02*
X015530Y007789D01*
X015590Y007691D02*
X013809Y007691D01*
X013415Y008085D02*
X015510Y008085D01*
X015510Y008183D02*
X013317Y008183D01*
X013218Y008282D02*
X015510Y008282D01*
X015510Y008380D02*
X013120Y008380D01*
X013021Y008479D02*
X015510Y008479D01*
X015510Y008577D02*
X013000Y008577D01*
X013000Y008676D02*
X014848Y008676D01*
X014750Y008774D02*
X013000Y008774D01*
X013000Y008873D02*
X014651Y008873D01*
X014553Y008971D02*
X013000Y008971D01*
X013000Y009070D02*
X014454Y009070D01*
X014356Y009168D02*
X013000Y009168D01*
X013000Y009267D02*
X014340Y009267D01*
X014340Y009365D02*
X013000Y009365D01*
X013000Y009464D02*
X014340Y009464D01*
X014340Y009562D02*
X013000Y009562D01*
X013000Y009661D02*
X014340Y009661D01*
X014340Y009759D02*
X013000Y009759D01*
X013000Y009858D02*
X014340Y009858D01*
X014340Y009956D02*
X013000Y009956D01*
X013000Y010055D02*
X014340Y010055D01*
X014340Y010153D02*
X013000Y010153D01*
X013000Y010252D02*
X014340Y010252D01*
X014340Y010350D02*
X013000Y010350D01*
X013000Y010449D02*
X014340Y010449D01*
X014340Y010547D02*
X013000Y010547D01*
X013000Y010646D02*
X014340Y010646D01*
X014340Y010744D02*
X013000Y010744D01*
X013000Y010843D02*
X014340Y010843D01*
X014340Y010941D02*
X013000Y010941D01*
X013000Y011040D02*
X014340Y011040D01*
X014412Y011138D02*
X013000Y011138D01*
X014500Y011000D02*
X017500Y011000D01*
X017500Y007159D01*
X016750Y007159D01*
X016750Y007745D01*
X016756Y007745D01*
X016820Y007809D01*
X016820Y008751D01*
X016756Y008815D01*
X016244Y008815D01*
X016180Y008751D01*
X016180Y008750D01*
X016150Y008750D01*
X016150Y008751D01*
X016086Y008815D01*
X015574Y008815D01*
X015510Y008751D01*
X015510Y008750D01*
X015480Y008750D01*
X015480Y008751D01*
X015416Y008815D01*
X014935Y008815D01*
X014500Y009250D01*
X014500Y011000D01*
X014500Y010941D02*
X017500Y010941D01*
X017500Y010843D02*
X014500Y010843D01*
X014500Y010744D02*
X017500Y010744D01*
X017500Y010646D02*
X014500Y010646D01*
X014500Y010547D02*
X017500Y010547D01*
X017500Y010449D02*
X014500Y010449D01*
X014500Y010350D02*
X017500Y010350D01*
X017500Y010252D02*
X014500Y010252D01*
X014500Y010153D02*
X017500Y010153D01*
X017500Y010055D02*
X014500Y010055D01*
X014500Y009956D02*
X017500Y009956D01*
X017500Y009858D02*
X014500Y009858D01*
X014500Y009759D02*
X017500Y009759D01*
X017500Y009661D02*
X014500Y009661D01*
X014500Y009562D02*
X017500Y009562D01*
X017500Y009464D02*
X014500Y009464D01*
X014500Y009365D02*
X017500Y009365D01*
X017500Y009267D02*
X014500Y009267D01*
X014582Y009168D02*
X017500Y009168D01*
X017500Y009070D02*
X014680Y009070D01*
X014779Y008971D02*
X017500Y008971D01*
X017500Y008873D02*
X014877Y008873D01*
X015457Y008774D02*
X015533Y008774D01*
X015830Y008280D02*
X015830Y008080D01*
X015750Y008000D01*
X015750Y007500D01*
X015979Y007494D02*
X016590Y007494D01*
X016590Y007592D02*
X015979Y007592D01*
X015910Y007691D02*
X016590Y007691D01*
X016590Y007789D02*
X016130Y007789D01*
X016150Y007888D02*
X016590Y007888D01*
X016590Y007986D02*
X016150Y007986D01*
X016150Y008085D02*
X016590Y008085D01*
X016590Y008183D02*
X016150Y008183D01*
X016150Y008282D02*
X016590Y008282D01*
X016590Y008380D02*
X016150Y008380D01*
X016150Y008479D02*
X016590Y008479D01*
X016590Y008577D02*
X016150Y008577D01*
X016127Y008774D02*
X016203Y008774D01*
X016797Y008774D02*
X017500Y008774D01*
X017500Y008676D02*
X016820Y008676D01*
X016820Y008577D02*
X017500Y008577D01*
X017500Y008479D02*
X016820Y008479D01*
X016820Y008380D02*
X017500Y008380D01*
X017500Y008282D02*
X016820Y008282D01*
X016820Y008183D02*
X017500Y008183D01*
X017500Y008085D02*
X016820Y008085D01*
X016820Y007986D02*
X017500Y007986D01*
X017500Y007888D02*
X016820Y007888D01*
X016800Y007789D02*
X017500Y007789D01*
X017500Y007691D02*
X016750Y007691D01*
X016750Y007592D02*
X017500Y007592D01*
X017500Y007494D02*
X016750Y007494D01*
X016750Y007395D02*
X017500Y007395D01*
X017500Y007297D02*
X016750Y007297D01*
X016750Y007198D02*
X017500Y007198D01*
X016590Y007297D02*
X015870Y007297D01*
X015969Y007395D02*
X016590Y007395D01*
X014000Y008500D02*
X013750Y008750D01*
X011250Y007530D02*
X011250Y019250D01*
X011500Y019500D01*
X020000Y019500D01*
X020250Y019250D01*
X020250Y018750D01*
X020000Y018500D01*
X019570Y018500D01*
X019500Y018500D01*
X019570Y018500D01*
X019570Y019000D02*
X019250Y019000D01*
X019000Y019250D01*
X011750Y019250D01*
X007000Y017415D02*
X007000Y017000D01*
X010500Y007250D02*
X010500Y006835D01*
X010500Y006165D02*
X011195Y005470D01*
X011250Y005470D01*
X012250Y005470D02*
X012250Y006250D01*
X011750Y006750D01*
X011500Y006750D01*
X012750Y005500D02*
X013250Y005500D01*
X012750Y005470D02*
X012750Y005500D01*
X014250Y002750D02*
X024500Y002750D01*
X024750Y002500D02*
X015000Y002500D01*
X014500Y002000D01*
X013000Y002000D01*
X012500Y001500D01*
X014500Y001500D02*
X015250Y002250D01*
X025000Y002250D01*
X025250Y002500D01*
X025250Y006000D01*
X025823Y006573D01*
X025823Y006750D01*
X026177Y006750D02*
X026177Y005000D01*
X026177Y008485D01*
X026162Y008500D01*
X026162Y009088D01*
X026000Y009250D01*
X024750Y009250D01*
X024625Y009375D01*
X025842Y008500D02*
X025842Y008342D01*
X025000Y007500D01*
X025000Y002750D01*
X024750Y002500D01*
X025250Y002000D02*
X016000Y002000D01*
X015500Y001500D01*
X023000Y007000D02*
X023000Y007500D01*
X025823Y005000D02*
X025823Y004823D01*
X025500Y004500D01*
X025500Y002250D01*
X025250Y002000D01*
X007000Y005250D02*
X005750Y006500D01*
X021750Y018000D02*
X021750Y019750D01*
X021500Y020000D01*
D31*
X015250Y012923D02*
X014923Y012923D01*
X014000Y012000D01*
X014000Y008500D01*
X014940Y008500D01*
X015160Y008280D01*
X015500Y009500D02*
X015500Y010000D01*
X016000Y010000D01*
X016386Y011787D02*
X015250Y012923D01*
X016386Y011787D02*
X018250Y011787D01*
X018394Y011931D01*
X020750Y011931D01*
X020750Y009569D02*
X020931Y009569D01*
X023000Y007500D01*
X023000Y007000D01*
X023000Y005673D01*
X023173Y005500D01*
X019827Y005500D02*
X019827Y007673D01*
X019220Y008280D01*
X014000Y007000D02*
X014000Y003000D01*
X013500Y002500D01*
X008750Y002500D01*
D32*
X009250Y004000D03*
X009500Y005250D03*
X009750Y006500D03*
X010500Y007250D03*
X011500Y006750D03*
X013250Y005500D03*
X014000Y007000D03*
X013500Y007250D03*
X013750Y008750D03*
X015750Y007500D03*
X016000Y010000D03*
X020750Y014250D03*
X018500Y014500D03*
X017000Y017000D03*
X021750Y018000D03*
X022750Y018000D03*
X024000Y017750D03*
X024000Y016250D03*
X023000Y007500D03*
X014250Y002750D03*
X013500Y003000D03*
X013250Y003250D03*
X005750Y006500D03*
X007000Y017000D03*
D33*
X015327Y010000D02*
X015250Y009577D01*
X015327Y010000D02*
X015500Y010000D01*
X016000Y010000D01*
X016500Y010000D01*
X017170Y009330D01*
X017170Y008280D01*
X016500Y008280D02*
X016500Y005000D01*
X015160Y006340D01*
X015160Y008280D01*
X017840Y008280D02*
X018250Y008280D01*
X018250Y010213D01*
X018250Y011787D02*
X018463Y012000D01*
X018500Y012000D01*
X018250Y008280D02*
X019220Y008280D01*
D34*
X008750Y007000D02*
X008750Y002500D01*
X008500Y002250D01*
X008000Y001750D01*
X008750Y007000D02*
X008000Y007750D01*
M02*
