G75*
G70*
%OFA0B0*%
%FSLAX24Y24*%
%IPPOS*%
%LPD*%
%AMOC8*
5,1,8,0,0,1.08239X$1,22.5*
%
%ADD10R,0.4252X0.4098*%
%ADD11R,0.0420X0.0850*%
%ADD12R,0.0630X0.1535*%
%ADD13R,0.0551X0.1496*%
%ADD14R,0.1575X0.2165*%
%ADD15R,0.0787X0.0787*%
%ADD16R,0.0800X0.0260*%
%ADD17R,0.0240X0.0870*%
%ADD18R,0.0748X0.0433*%
%ADD19R,0.0433X0.0394*%
%ADD20R,0.0394X0.0433*%
%ADD21OC8,0.0660*%
%ADD22OC8,0.0700*%
%ADD23R,0.0700X0.0700*%
%ADD24C,0.0740*%
%ADD25R,0.0740X0.0740*%
%ADD26R,0.0250X0.0500*%
%ADD27C,0.0000*%
%ADD28C,0.0001*%
%ADD29C,0.0100*%
%ADD30C,0.0200*%
%ADD31C,0.0238*%
%ADD32C,0.0160*%
D10*
X016500Y005000D03*
D11*
X016500Y008280D03*
X015830Y008280D03*
X015160Y008280D03*
X017170Y008280D03*
X017840Y008280D03*
D12*
X015250Y009577D03*
X015250Y012923D03*
D13*
X020750Y011931D03*
X020750Y009569D03*
D14*
X019827Y005500D03*
X023173Y005500D03*
D15*
X018250Y010213D03*
X018250Y011787D03*
D16*
X019570Y015000D03*
X019570Y015500D03*
X019570Y016000D03*
X019570Y016500D03*
X019570Y017000D03*
X019570Y017500D03*
X019570Y018000D03*
X019570Y018500D03*
X019570Y019000D03*
X023430Y019000D03*
X023430Y018500D03*
X023430Y018000D03*
X023430Y017500D03*
X023430Y017000D03*
X023430Y016500D03*
X023430Y016000D03*
X023430Y015500D03*
X023430Y015000D03*
D17*
X012250Y007530D03*
X011750Y007530D03*
X011250Y007530D03*
X010750Y007530D03*
X010750Y005470D03*
X011250Y005470D03*
X011750Y005470D03*
X012250Y005470D03*
D18*
X017022Y015297D03*
X017022Y016203D03*
X018478Y016203D03*
X018478Y015297D03*
D19*
X018085Y014500D03*
X017415Y014500D03*
X017415Y017000D03*
X018085Y017000D03*
X021165Y014250D03*
X021835Y014250D03*
X012585Y009000D03*
X011915Y009000D03*
X011085Y009000D03*
X010415Y009000D03*
X007335Y013250D03*
X006665Y013250D03*
X011165Y004500D03*
X011835Y004500D03*
D20*
X013000Y006165D03*
X013000Y006835D03*
D21*
X012500Y001500D03*
X013500Y001500D03*
X014500Y001500D03*
X015500Y001500D03*
X016500Y001500D03*
X017500Y001500D03*
X018500Y001500D03*
X020500Y001500D03*
X021500Y001500D03*
X022500Y001500D03*
X023500Y001500D03*
X024500Y001500D03*
X025500Y001500D03*
X011500Y001500D03*
X011900Y020500D03*
X010900Y020500D03*
X009900Y020500D03*
X008900Y020500D03*
X007900Y020500D03*
X012900Y020500D03*
X013900Y020500D03*
X014900Y020500D03*
X015900Y020500D03*
X016900Y020500D03*
X018500Y020500D03*
X019500Y020500D03*
X020500Y020500D03*
X021500Y020500D03*
X022500Y020500D03*
X023500Y020500D03*
X024500Y020500D03*
X025500Y020500D03*
D22*
X026550Y012500D03*
X026550Y011500D03*
X025550Y011500D03*
X025550Y010500D03*
X026550Y010500D03*
D23*
X025550Y012500D03*
D24*
X008000Y010750D03*
X007000Y010250D03*
X008000Y009750D03*
X007000Y009250D03*
X008000Y008750D03*
X007000Y008250D03*
X008000Y007750D03*
X008000Y004750D03*
X007000Y004250D03*
X008000Y003750D03*
X007000Y003250D03*
X008000Y002750D03*
X007000Y002250D03*
X008000Y001750D03*
X007500Y014250D03*
X006500Y014250D03*
D25*
X007000Y011250D03*
X007000Y005250D03*
D26*
X025823Y005000D03*
X026177Y005000D03*
X026177Y006750D03*
X025823Y006750D03*
X025842Y008500D03*
X026162Y008500D03*
D27*
X002945Y018602D02*
X002953Y018626D01*
X002965Y018654D01*
X002976Y018677D01*
X002965Y018705D01*
X002957Y018732D01*
X002945Y018760D01*
X002937Y018787D01*
X002925Y018819D01*
X002913Y018846D01*
X002906Y018874D01*
X002654Y018874D01*
X002622Y018874D01*
X002614Y018846D01*
X002602Y018819D01*
X002594Y018787D01*
X002583Y018760D01*
X002571Y018732D01*
X002563Y018705D01*
X002551Y018677D01*
X002563Y018654D01*
X002575Y018626D01*
X002587Y018602D01*
X002945Y018602D01*
D28*
X002945Y018603D02*
X002586Y018603D01*
X002586Y018604D02*
X002945Y018604D01*
X002946Y018605D02*
X002585Y018605D01*
X002585Y018606D02*
X002946Y018606D01*
X002946Y018607D02*
X002584Y018607D01*
X002584Y018608D02*
X002947Y018608D01*
X002947Y018609D02*
X002583Y018609D01*
X002583Y018610D02*
X002947Y018610D01*
X002948Y018611D02*
X002582Y018611D01*
X002582Y018612D02*
X002948Y018612D01*
X002948Y018613D02*
X002581Y018613D01*
X002581Y018614D02*
X002949Y018614D01*
X002949Y018615D02*
X002580Y018615D01*
X002580Y018616D02*
X002949Y018616D01*
X002950Y018617D02*
X002579Y018617D01*
X002579Y018618D02*
X002950Y018618D01*
X002950Y018619D02*
X002578Y018619D01*
X002578Y018620D02*
X002951Y018620D01*
X002951Y018621D02*
X002577Y018621D01*
X002577Y018622D02*
X002951Y018622D01*
X002952Y018623D02*
X002576Y018623D01*
X002576Y018624D02*
X002952Y018624D01*
X002952Y018625D02*
X002575Y018625D01*
X002575Y018626D02*
X002953Y018626D01*
X002953Y018627D02*
X002574Y018627D01*
X002574Y018628D02*
X002954Y018628D01*
X002954Y018629D02*
X002573Y018629D01*
X002573Y018630D02*
X002955Y018630D01*
X002955Y018631D02*
X002573Y018631D01*
X002572Y018632D02*
X002955Y018632D01*
X002956Y018633D02*
X002572Y018633D01*
X002571Y018634D02*
X002956Y018634D01*
X002957Y018635D02*
X002571Y018635D01*
X002570Y018636D02*
X002957Y018636D01*
X002958Y018637D02*
X002570Y018637D01*
X002570Y018638D02*
X002958Y018638D01*
X002958Y018639D02*
X002569Y018639D01*
X002569Y018640D02*
X002959Y018640D01*
X002959Y018641D02*
X002568Y018641D01*
X002568Y018642D02*
X002960Y018642D01*
X002960Y018643D02*
X002567Y018643D01*
X002567Y018644D02*
X002961Y018644D01*
X002961Y018645D02*
X002567Y018645D01*
X002566Y018646D02*
X002961Y018646D01*
X002962Y018647D02*
X002566Y018647D01*
X002565Y018648D02*
X002962Y018648D01*
X002963Y018649D02*
X002565Y018649D01*
X002564Y018650D02*
X002963Y018650D01*
X002964Y018651D02*
X002564Y018651D01*
X002564Y018652D02*
X002964Y018652D01*
X002964Y018653D02*
X002563Y018653D01*
X002563Y018654D02*
X002965Y018654D01*
X002965Y018655D02*
X002562Y018655D01*
X002562Y018656D02*
X002966Y018656D01*
X002966Y018657D02*
X002561Y018657D01*
X002561Y018658D02*
X002967Y018658D01*
X002967Y018659D02*
X002560Y018659D01*
X002560Y018660D02*
X002968Y018660D01*
X002968Y018661D02*
X002559Y018661D01*
X002559Y018662D02*
X002969Y018662D01*
X002969Y018663D02*
X002558Y018663D01*
X002558Y018664D02*
X002970Y018664D01*
X002970Y018665D02*
X002557Y018665D01*
X002557Y018666D02*
X002971Y018666D01*
X002971Y018667D02*
X002556Y018667D01*
X002556Y018668D02*
X002972Y018668D01*
X002972Y018669D02*
X002555Y018669D01*
X002555Y018670D02*
X002973Y018670D01*
X002973Y018671D02*
X002554Y018671D01*
X002554Y018672D02*
X002974Y018672D01*
X002974Y018673D02*
X002553Y018673D01*
X002553Y018674D02*
X002975Y018674D01*
X002975Y018675D02*
X002552Y018675D01*
X002552Y018676D02*
X002976Y018676D01*
X002976Y018677D02*
X002551Y018677D01*
X002552Y018678D02*
X002976Y018678D01*
X002976Y018679D02*
X002552Y018679D01*
X002552Y018680D02*
X002975Y018680D01*
X002975Y018681D02*
X002553Y018681D01*
X002553Y018682D02*
X002974Y018682D01*
X002974Y018683D02*
X002554Y018683D01*
X002554Y018684D02*
X002973Y018684D01*
X002973Y018685D02*
X002555Y018685D01*
X002555Y018686D02*
X002973Y018686D01*
X002972Y018687D02*
X002555Y018687D01*
X002556Y018688D02*
X002972Y018688D01*
X002971Y018689D02*
X002556Y018689D01*
X002557Y018690D02*
X002971Y018690D01*
X002970Y018691D02*
X002557Y018691D01*
X002558Y018692D02*
X002970Y018692D01*
X002970Y018693D02*
X002558Y018693D01*
X002558Y018694D02*
X002969Y018694D01*
X002969Y018695D02*
X002559Y018695D01*
X002559Y018696D02*
X002968Y018696D01*
X002968Y018697D02*
X002560Y018697D01*
X002560Y018698D02*
X002967Y018698D01*
X002967Y018699D02*
X002561Y018699D01*
X002561Y018700D02*
X002967Y018700D01*
X002966Y018701D02*
X002561Y018701D01*
X002562Y018702D02*
X002966Y018702D01*
X002965Y018703D02*
X002562Y018703D01*
X002563Y018704D02*
X002965Y018704D01*
X002964Y018705D02*
X002563Y018705D01*
X002563Y018706D02*
X002964Y018706D01*
X002964Y018707D02*
X002564Y018707D01*
X002564Y018708D02*
X002964Y018708D01*
X002963Y018709D02*
X002564Y018709D01*
X002565Y018710D02*
X002963Y018710D01*
X002963Y018711D02*
X002565Y018711D01*
X002565Y018712D02*
X002962Y018712D01*
X002962Y018713D02*
X002565Y018713D01*
X002566Y018714D02*
X002962Y018714D01*
X002962Y018715D02*
X002566Y018715D01*
X002566Y018716D02*
X002961Y018716D01*
X002961Y018717D02*
X002567Y018717D01*
X002567Y018718D02*
X002961Y018718D01*
X002960Y018719D02*
X002567Y018719D01*
X002567Y018720D02*
X002960Y018720D01*
X002960Y018721D02*
X002568Y018721D01*
X002568Y018722D02*
X002960Y018722D01*
X002959Y018723D02*
X002568Y018723D01*
X002569Y018724D02*
X002959Y018724D01*
X002959Y018725D02*
X002569Y018725D01*
X002569Y018726D02*
X002958Y018726D01*
X002958Y018727D02*
X002569Y018727D01*
X002570Y018728D02*
X002958Y018728D01*
X002958Y018729D02*
X002570Y018729D01*
X002570Y018730D02*
X002957Y018730D01*
X002957Y018731D02*
X002571Y018731D01*
X002571Y018732D02*
X002957Y018732D01*
X002956Y018733D02*
X002571Y018733D01*
X002572Y018734D02*
X002956Y018734D01*
X002956Y018735D02*
X002572Y018735D01*
X002572Y018736D02*
X002955Y018736D01*
X002955Y018737D02*
X002573Y018737D01*
X002573Y018738D02*
X002954Y018738D01*
X002954Y018739D02*
X002574Y018739D01*
X002574Y018740D02*
X002953Y018740D01*
X002953Y018741D02*
X002575Y018741D01*
X002575Y018742D02*
X002953Y018742D01*
X002952Y018743D02*
X002575Y018743D01*
X002576Y018744D02*
X002952Y018744D01*
X002951Y018745D02*
X002576Y018745D01*
X002577Y018746D02*
X002951Y018746D01*
X002950Y018747D02*
X002577Y018747D01*
X002578Y018748D02*
X002950Y018748D01*
X002950Y018749D02*
X002578Y018749D01*
X002578Y018750D02*
X002949Y018750D01*
X002949Y018751D02*
X002579Y018751D01*
X002579Y018752D02*
X002948Y018752D01*
X002948Y018753D02*
X002580Y018753D01*
X002580Y018754D02*
X002947Y018754D01*
X002947Y018755D02*
X002581Y018755D01*
X002581Y018756D02*
X002947Y018756D01*
X002946Y018757D02*
X002581Y018757D01*
X002582Y018758D02*
X002946Y018758D01*
X002945Y018759D02*
X002582Y018759D01*
X002583Y018760D02*
X002945Y018760D01*
X002945Y018761D02*
X002583Y018761D01*
X002584Y018762D02*
X002944Y018762D01*
X002944Y018763D02*
X002584Y018763D01*
X002584Y018764D02*
X002944Y018764D01*
X002943Y018765D02*
X002585Y018765D01*
X002585Y018766D02*
X002943Y018766D01*
X002943Y018767D02*
X002586Y018767D01*
X002586Y018768D02*
X002943Y018768D01*
X002942Y018769D02*
X002587Y018769D01*
X002587Y018770D02*
X002942Y018770D01*
X002942Y018771D02*
X002587Y018771D01*
X002588Y018772D02*
X002941Y018772D01*
X002941Y018773D02*
X002588Y018773D01*
X002589Y018774D02*
X002941Y018774D01*
X002941Y018775D02*
X002589Y018775D01*
X002590Y018776D02*
X002940Y018776D01*
X002940Y018777D02*
X002590Y018777D01*
X002590Y018778D02*
X002940Y018778D01*
X002939Y018779D02*
X002591Y018779D01*
X002591Y018780D02*
X002939Y018780D01*
X002939Y018781D02*
X002592Y018781D01*
X002592Y018782D02*
X002939Y018782D01*
X002938Y018783D02*
X002593Y018783D01*
X002593Y018784D02*
X002938Y018784D01*
X002938Y018785D02*
X002593Y018785D01*
X002594Y018786D02*
X002937Y018786D01*
X002937Y018787D02*
X002594Y018787D01*
X002595Y018788D02*
X002937Y018788D01*
X002936Y018789D02*
X002595Y018789D01*
X002595Y018790D02*
X002936Y018790D01*
X002936Y018791D02*
X002595Y018791D01*
X002596Y018792D02*
X002935Y018792D01*
X002935Y018793D02*
X002596Y018793D01*
X002596Y018794D02*
X002935Y018794D01*
X002934Y018795D02*
X002596Y018795D01*
X002597Y018796D02*
X002934Y018796D01*
X002933Y018797D02*
X002597Y018797D01*
X002597Y018798D02*
X002933Y018798D01*
X002933Y018799D02*
X002597Y018799D01*
X002598Y018800D02*
X002932Y018800D01*
X002932Y018801D02*
X002598Y018801D01*
X002598Y018802D02*
X002932Y018802D01*
X002931Y018803D02*
X002598Y018803D01*
X002599Y018804D02*
X002931Y018804D01*
X002930Y018805D02*
X002599Y018805D01*
X002599Y018806D02*
X002930Y018806D01*
X002930Y018807D02*
X002599Y018807D01*
X002600Y018808D02*
X002929Y018808D01*
X002929Y018809D02*
X002600Y018809D01*
X002600Y018810D02*
X002929Y018810D01*
X002928Y018811D02*
X002600Y018811D01*
X002601Y018812D02*
X002928Y018812D01*
X002927Y018813D02*
X002601Y018813D01*
X002601Y018814D02*
X002927Y018814D01*
X002927Y018815D02*
X002601Y018815D01*
X002602Y018816D02*
X002926Y018816D01*
X002926Y018817D02*
X002602Y018817D01*
X002602Y018818D02*
X002926Y018818D01*
X002925Y018819D02*
X002602Y018819D01*
X002603Y018820D02*
X002925Y018820D01*
X002924Y018821D02*
X002603Y018821D01*
X002604Y018822D02*
X002924Y018822D01*
X002923Y018823D02*
X002604Y018823D01*
X002605Y018824D02*
X002923Y018824D01*
X002923Y018825D02*
X002605Y018825D01*
X002605Y018826D02*
X002922Y018826D01*
X002922Y018827D02*
X002606Y018827D01*
X002606Y018828D02*
X002921Y018828D01*
X002921Y018829D02*
X002607Y018829D01*
X002607Y018830D02*
X002920Y018830D01*
X002920Y018831D02*
X002608Y018831D01*
X002608Y018832D02*
X002920Y018832D01*
X002919Y018833D02*
X002608Y018833D01*
X002609Y018834D02*
X002919Y018834D01*
X002918Y018835D02*
X002609Y018835D01*
X002610Y018836D02*
X002918Y018836D01*
X002917Y018837D02*
X002610Y018837D01*
X002611Y018838D02*
X002917Y018838D01*
X002917Y018839D02*
X002611Y018839D01*
X002611Y018840D02*
X002916Y018840D01*
X002916Y018841D02*
X002612Y018841D01*
X002612Y018842D02*
X002915Y018842D01*
X002915Y018843D02*
X002613Y018843D01*
X002613Y018844D02*
X002914Y018844D01*
X002914Y018845D02*
X002614Y018845D01*
X002614Y018846D02*
X002914Y018846D01*
X002913Y018847D02*
X002614Y018847D01*
X002615Y018848D02*
X002913Y018848D01*
X002913Y018849D02*
X002615Y018849D01*
X002615Y018850D02*
X002912Y018850D01*
X002912Y018851D02*
X002615Y018851D01*
X002616Y018852D02*
X002912Y018852D01*
X002912Y018853D02*
X002616Y018853D01*
X002616Y018854D02*
X002911Y018854D01*
X002911Y018855D02*
X002617Y018855D01*
X002617Y018856D02*
X002911Y018856D01*
X002910Y018857D02*
X002617Y018857D01*
X002617Y018858D02*
X002910Y018858D01*
X002910Y018859D02*
X002618Y018859D01*
X002618Y018860D02*
X002910Y018860D01*
X002909Y018861D02*
X002618Y018861D01*
X002619Y018862D02*
X002909Y018862D01*
X002909Y018863D02*
X002619Y018863D01*
X002619Y018864D02*
X002908Y018864D01*
X002908Y018865D02*
X002619Y018865D01*
X002620Y018866D02*
X002908Y018866D01*
X002908Y018867D02*
X002620Y018867D01*
X002620Y018868D02*
X002907Y018868D01*
X002907Y018869D02*
X002621Y018869D01*
X002621Y018870D02*
X002907Y018870D01*
X002906Y018871D02*
X002621Y018871D01*
X002621Y018872D02*
X002906Y018872D01*
X002906Y018873D02*
X002622Y018873D01*
X002622Y018874D02*
X002906Y018874D01*
D29*
X005500Y004750D02*
X007000Y003250D01*
X005500Y004750D02*
X005500Y008500D01*
X006250Y009250D01*
X007000Y009250D01*
X008000Y008750D02*
X009250Y007500D01*
X009250Y004000D01*
X010750Y004500D02*
X011165Y004500D01*
X011835Y004500D02*
X012250Y004915D01*
X012250Y005470D01*
X011750Y005470D02*
X011750Y006250D01*
X011250Y006000D02*
X011000Y006250D01*
X009750Y006250D01*
X009750Y009000D01*
X008000Y010750D01*
X008000Y013750D01*
X007500Y014250D01*
X006500Y014250D02*
X006500Y013415D01*
X006665Y013250D01*
X007335Y013250D02*
X007335Y011585D01*
X007000Y011250D01*
X008000Y009750D02*
X009500Y008250D01*
X009500Y005250D01*
X011250Y005470D02*
X011250Y006000D01*
X011915Y006835D02*
X011750Y007000D01*
X011750Y007530D01*
X012250Y007530D02*
X012250Y008000D01*
X012000Y008250D01*
X011000Y008250D01*
X010750Y008500D01*
X010750Y009500D01*
X010750Y018250D01*
X011000Y018500D01*
X011500Y019000D01*
X019570Y019000D01*
X019570Y018500D02*
X012000Y018500D01*
X011500Y018000D01*
X011500Y009000D01*
X011915Y009000D01*
X011500Y009000D02*
X011085Y009000D01*
X010415Y009000D02*
X010415Y007865D01*
X010750Y007530D01*
X011250Y007530D02*
X011250Y007250D01*
X012335Y006165D01*
X013000Y006165D01*
X013000Y003000D01*
X013000Y002000D02*
X012500Y001500D01*
X013000Y002000D02*
X014500Y002000D01*
X015000Y002500D01*
X024750Y002500D01*
X025000Y002750D01*
X025000Y007500D01*
X025842Y008342D01*
X025842Y008500D01*
X026162Y008500D02*
X026162Y009088D01*
X026000Y009250D01*
X024750Y009250D01*
X024500Y009500D01*
X024500Y013750D01*
X024000Y014250D01*
X024000Y016250D01*
X024250Y016500D02*
X023430Y016500D01*
X023430Y017000D02*
X024500Y017000D01*
X025000Y016500D01*
X025000Y012000D01*
X026000Y012000D01*
X026500Y011500D01*
X026550Y011500D01*
X025550Y011500D02*
X025000Y011500D01*
X024750Y011750D01*
X024750Y016000D01*
X024250Y016500D01*
X023430Y016000D02*
X022750Y016000D01*
X022500Y016250D01*
X022500Y019500D01*
X023500Y020500D01*
X022500Y020500D02*
X022250Y020250D01*
X022250Y015750D01*
X022500Y015500D01*
X023430Y015500D01*
X023430Y015000D02*
X022250Y015000D01*
X022000Y015250D01*
X022000Y020000D01*
X021500Y020500D01*
X021500Y020000D02*
X015400Y020000D01*
X014900Y020500D01*
X017000Y017000D02*
X017415Y017000D01*
X018085Y017000D02*
X018478Y016606D01*
X018478Y016203D01*
X018681Y016000D01*
X019570Y016000D01*
X019570Y015500D02*
X019250Y015500D01*
X019000Y015750D01*
X017474Y015750D01*
X017022Y015297D01*
X017022Y014894D01*
X017415Y014500D01*
X018085Y014500D02*
X018500Y014500D01*
X019570Y015000D02*
X021000Y015000D01*
X021165Y014835D01*
X021165Y014250D01*
X020750Y014250D01*
X021835Y014250D02*
X024000Y014250D01*
X024000Y013750D02*
X013000Y013750D01*
X013000Y008500D01*
X014500Y007000D01*
X014500Y003000D01*
X018340Y003000D01*
X018340Y006840D01*
X016684Y006840D01*
X016590Y006934D01*
X016590Y008590D01*
X016150Y008590D01*
X016150Y007809D01*
X016086Y007745D01*
X015910Y007745D01*
X015910Y007664D01*
X015979Y007595D01*
X015979Y007405D01*
X015845Y007271D01*
X015655Y007271D01*
X015521Y007405D01*
X015521Y007595D01*
X015590Y007664D01*
X015590Y007745D01*
X015574Y007745D01*
X015510Y007809D01*
X015510Y008590D01*
X014934Y008590D01*
X014434Y009090D01*
X014340Y009184D01*
X014340Y011066D01*
X014434Y011160D01*
X024000Y011160D01*
X024000Y013750D01*
X024000Y013699D02*
X013000Y013699D01*
X013000Y013601D02*
X024000Y013601D01*
X024000Y013502D02*
X013000Y013502D01*
X013000Y013404D02*
X024000Y013404D01*
X024000Y013305D02*
X013000Y013305D01*
X013000Y013207D02*
X024000Y013207D01*
X024000Y013108D02*
X013000Y013108D01*
X013000Y013010D02*
X024000Y013010D01*
X024000Y012911D02*
X013000Y012911D01*
X013000Y012813D02*
X024000Y012813D01*
X024000Y012714D02*
X013000Y012714D01*
X013000Y012616D02*
X024000Y012616D01*
X024000Y012517D02*
X013000Y012517D01*
X013000Y012419D02*
X024000Y012419D01*
X024000Y012320D02*
X013000Y012320D01*
X013000Y012222D02*
X024000Y012222D01*
X024000Y012123D02*
X013000Y012123D01*
X013000Y012025D02*
X024000Y012025D01*
X024000Y011926D02*
X013000Y011926D01*
X013000Y011828D02*
X024000Y011828D01*
X024000Y011729D02*
X013000Y011729D01*
X013000Y011631D02*
X024000Y011631D01*
X024000Y011532D02*
X013000Y011532D01*
X013000Y011434D02*
X024000Y011434D01*
X024000Y011335D02*
X013000Y011335D01*
X013000Y011237D02*
X024000Y011237D01*
X024000Y011000D02*
X024000Y003000D01*
X021660Y003000D01*
X021660Y007566D01*
X021566Y007660D01*
X019660Y009566D01*
X019660Y011000D01*
X024000Y011000D01*
X024000Y010941D02*
X019660Y010941D01*
X019660Y010843D02*
X024000Y010843D01*
X024000Y010744D02*
X019660Y010744D01*
X019660Y010646D02*
X024000Y010646D01*
X024000Y010547D02*
X019660Y010547D01*
X019660Y010449D02*
X024000Y010449D01*
X024000Y010350D02*
X019660Y010350D01*
X019660Y010252D02*
X024000Y010252D01*
X024000Y010153D02*
X019660Y010153D01*
X019660Y010055D02*
X024000Y010055D01*
X024000Y009956D02*
X019660Y009956D01*
X019660Y009858D02*
X024000Y009858D01*
X024000Y009759D02*
X019660Y009759D01*
X019660Y009661D02*
X024000Y009661D01*
X024000Y009562D02*
X019664Y009562D01*
X019763Y009464D02*
X024000Y009464D01*
X024000Y009365D02*
X019861Y009365D01*
X019960Y009267D02*
X024000Y009267D01*
X024000Y009168D02*
X020058Y009168D01*
X020157Y009070D02*
X024000Y009070D01*
X024000Y008971D02*
X020255Y008971D01*
X020354Y008873D02*
X024000Y008873D01*
X024000Y008774D02*
X020452Y008774D01*
X020551Y008676D02*
X024000Y008676D01*
X024000Y008577D02*
X020649Y008577D01*
X020748Y008479D02*
X024000Y008479D01*
X024000Y008380D02*
X020846Y008380D01*
X020945Y008282D02*
X024000Y008282D01*
X024000Y008183D02*
X021043Y008183D01*
X021142Y008085D02*
X024000Y008085D01*
X024000Y007986D02*
X021240Y007986D01*
X021339Y007888D02*
X024000Y007888D01*
X024000Y007789D02*
X021437Y007789D01*
X021536Y007691D02*
X024000Y007691D01*
X024000Y007592D02*
X021634Y007592D01*
X021660Y007494D02*
X024000Y007494D01*
X024000Y007395D02*
X021660Y007395D01*
X021660Y007297D02*
X024000Y007297D01*
X024000Y007198D02*
X021660Y007198D01*
X021660Y007100D02*
X024000Y007100D01*
X024000Y007001D02*
X021660Y007001D01*
X021660Y006903D02*
X024000Y006903D01*
X024000Y006804D02*
X021660Y006804D01*
X021660Y006706D02*
X024000Y006706D01*
X024000Y006607D02*
X021660Y006607D01*
X021660Y006509D02*
X024000Y006509D01*
X024000Y006410D02*
X021660Y006410D01*
X021660Y006312D02*
X024000Y006312D01*
X024000Y006213D02*
X021660Y006213D01*
X021660Y006115D02*
X024000Y006115D01*
X024000Y006016D02*
X021660Y006016D01*
X021660Y005918D02*
X024000Y005918D01*
X024000Y005819D02*
X021660Y005819D01*
X021660Y005721D02*
X024000Y005721D01*
X024000Y005622D02*
X021660Y005622D01*
X021660Y005524D02*
X024000Y005524D01*
X024000Y005425D02*
X021660Y005425D01*
X021660Y005327D02*
X024000Y005327D01*
X024000Y005228D02*
X021660Y005228D01*
X021660Y005130D02*
X024000Y005130D01*
X024000Y005031D02*
X021660Y005031D01*
X021660Y004933D02*
X024000Y004933D01*
X024000Y004834D02*
X021660Y004834D01*
X021660Y004736D02*
X024000Y004736D01*
X024000Y004637D02*
X021660Y004637D01*
X021660Y004539D02*
X024000Y004539D01*
X024000Y004440D02*
X021660Y004440D01*
X021660Y004342D02*
X024000Y004342D01*
X024000Y004243D02*
X021660Y004243D01*
X021660Y004145D02*
X024000Y004145D01*
X024000Y004046D02*
X021660Y004046D01*
X021660Y003948D02*
X024000Y003948D01*
X024000Y003849D02*
X021660Y003849D01*
X021660Y003751D02*
X024000Y003751D01*
X024000Y003652D02*
X021660Y003652D01*
X021660Y003554D02*
X024000Y003554D01*
X024000Y003455D02*
X021660Y003455D01*
X021660Y003357D02*
X024000Y003357D01*
X024000Y003258D02*
X021660Y003258D01*
X021660Y003160D02*
X024000Y003160D01*
X024000Y003061D02*
X021660Y003061D01*
X021500Y003061D02*
X018736Y003061D01*
X018736Y003000D02*
X018736Y007095D01*
X018672Y007159D01*
X017660Y007159D01*
X017660Y011000D01*
X019500Y011000D01*
X019500Y009500D01*
X021500Y007500D01*
X021500Y003000D01*
X018736Y003000D01*
X018736Y003160D02*
X021500Y003160D01*
X021500Y003258D02*
X018736Y003258D01*
X018736Y003357D02*
X021500Y003357D01*
X021500Y003455D02*
X018736Y003455D01*
X018736Y003554D02*
X021500Y003554D01*
X021500Y003652D02*
X018736Y003652D01*
X018736Y003751D02*
X021500Y003751D01*
X021500Y003849D02*
X018736Y003849D01*
X018736Y003948D02*
X021500Y003948D01*
X021500Y004046D02*
X018736Y004046D01*
X018736Y004145D02*
X021500Y004145D01*
X021500Y004243D02*
X018736Y004243D01*
X018736Y004342D02*
X021500Y004342D01*
X021500Y004440D02*
X018736Y004440D01*
X018736Y004539D02*
X021500Y004539D01*
X021500Y004637D02*
X018736Y004637D01*
X018736Y004736D02*
X021500Y004736D01*
X021500Y004834D02*
X018736Y004834D01*
X018736Y004933D02*
X021500Y004933D01*
X021500Y005031D02*
X018736Y005031D01*
X018736Y005130D02*
X021500Y005130D01*
X021500Y005228D02*
X018736Y005228D01*
X018736Y005327D02*
X021500Y005327D01*
X021500Y005425D02*
X018736Y005425D01*
X018736Y005524D02*
X021500Y005524D01*
X021500Y005622D02*
X018736Y005622D01*
X018736Y005721D02*
X021500Y005721D01*
X021500Y005819D02*
X018736Y005819D01*
X018736Y005918D02*
X021500Y005918D01*
X021500Y006016D02*
X018736Y006016D01*
X018736Y006115D02*
X021500Y006115D01*
X021500Y006213D02*
X018736Y006213D01*
X018736Y006312D02*
X021500Y006312D01*
X021500Y006410D02*
X018736Y006410D01*
X018736Y006509D02*
X021500Y006509D01*
X021500Y006607D02*
X018736Y006607D01*
X018736Y006706D02*
X021500Y006706D01*
X021500Y006804D02*
X018736Y006804D01*
X018736Y006903D02*
X021500Y006903D01*
X021500Y007001D02*
X018736Y007001D01*
X018731Y007100D02*
X021500Y007100D01*
X021500Y007198D02*
X017660Y007198D01*
X017660Y007297D02*
X021500Y007297D01*
X021500Y007395D02*
X017660Y007395D01*
X017660Y007494D02*
X021500Y007494D01*
X021408Y007592D02*
X017660Y007592D01*
X017660Y007691D02*
X021309Y007691D01*
X021211Y007789D02*
X017660Y007789D01*
X017660Y007888D02*
X021112Y007888D01*
X021014Y007986D02*
X017660Y007986D01*
X017660Y008085D02*
X020915Y008085D01*
X020817Y008183D02*
X017660Y008183D01*
X017660Y008282D02*
X020718Y008282D01*
X020620Y008380D02*
X017660Y008380D01*
X017660Y008479D02*
X020521Y008479D01*
X020423Y008577D02*
X017660Y008577D01*
X017660Y008676D02*
X020324Y008676D01*
X020226Y008774D02*
X017660Y008774D01*
X017660Y008873D02*
X020127Y008873D01*
X020029Y008971D02*
X017660Y008971D01*
X017660Y009070D02*
X019930Y009070D01*
X019832Y009168D02*
X017660Y009168D01*
X017660Y009267D02*
X019733Y009267D01*
X019635Y009365D02*
X017660Y009365D01*
X017660Y009464D02*
X019536Y009464D01*
X019500Y009562D02*
X017660Y009562D01*
X017660Y009661D02*
X019500Y009661D01*
X019500Y009759D02*
X017660Y009759D01*
X017660Y009858D02*
X019500Y009858D01*
X019500Y009956D02*
X017660Y009956D01*
X017660Y010055D02*
X019500Y010055D01*
X019500Y010153D02*
X017660Y010153D01*
X017660Y010252D02*
X019500Y010252D01*
X019500Y010350D02*
X017660Y010350D01*
X017660Y010449D02*
X019500Y010449D01*
X019500Y010547D02*
X017660Y010547D01*
X017660Y010646D02*
X019500Y010646D01*
X019500Y010744D02*
X017660Y010744D01*
X017660Y010843D02*
X019500Y010843D01*
X019500Y010941D02*
X017660Y010941D01*
X017500Y010941D02*
X014500Y010941D01*
X014500Y011000D02*
X017500Y011000D01*
X017500Y007159D01*
X016750Y007159D01*
X016750Y007745D01*
X016756Y007745D01*
X016820Y007809D01*
X016820Y008751D01*
X016756Y008815D01*
X016244Y008815D01*
X016180Y008751D01*
X016180Y008750D01*
X016150Y008750D01*
X016150Y008751D01*
X016086Y008815D01*
X015574Y008815D01*
X015510Y008751D01*
X015510Y008750D01*
X015480Y008750D01*
X015480Y008751D01*
X015416Y008815D01*
X014935Y008815D01*
X014500Y009250D01*
X014500Y011000D01*
X014500Y010843D02*
X017500Y010843D01*
X017500Y010744D02*
X014500Y010744D01*
X014500Y010646D02*
X017500Y010646D01*
X017500Y010547D02*
X014500Y010547D01*
X014500Y010449D02*
X017500Y010449D01*
X017500Y010350D02*
X014500Y010350D01*
X014500Y010252D02*
X017500Y010252D01*
X017500Y010153D02*
X014500Y010153D01*
X014500Y010055D02*
X017500Y010055D01*
X017500Y009956D02*
X014500Y009956D01*
X014500Y009858D02*
X017500Y009858D01*
X017500Y009759D02*
X014500Y009759D01*
X014500Y009661D02*
X017500Y009661D01*
X017500Y009562D02*
X014500Y009562D01*
X014500Y009464D02*
X017500Y009464D01*
X017500Y009365D02*
X014500Y009365D01*
X014500Y009267D02*
X017500Y009267D01*
X017500Y009168D02*
X014582Y009168D01*
X014680Y009070D02*
X017500Y009070D01*
X017500Y008971D02*
X014779Y008971D01*
X014877Y008873D02*
X017500Y008873D01*
X017500Y008774D02*
X016797Y008774D01*
X016820Y008676D02*
X017500Y008676D01*
X017500Y008577D02*
X016820Y008577D01*
X016820Y008479D02*
X017500Y008479D01*
X017500Y008380D02*
X016820Y008380D01*
X016820Y008282D02*
X017500Y008282D01*
X017500Y008183D02*
X016820Y008183D01*
X016820Y008085D02*
X017500Y008085D01*
X017500Y007986D02*
X016820Y007986D01*
X016820Y007888D02*
X017500Y007888D01*
X017500Y007789D02*
X016800Y007789D01*
X016750Y007691D02*
X017500Y007691D01*
X017500Y007592D02*
X016750Y007592D01*
X016750Y007494D02*
X017500Y007494D01*
X017500Y007395D02*
X016750Y007395D01*
X016750Y007297D02*
X017500Y007297D01*
X017500Y007198D02*
X016750Y007198D01*
X016590Y007198D02*
X014302Y007198D01*
X014400Y007100D02*
X016590Y007100D01*
X016590Y007001D02*
X014499Y007001D01*
X014500Y006903D02*
X016621Y006903D01*
X016590Y007297D02*
X015870Y007297D01*
X015969Y007395D02*
X016590Y007395D01*
X016590Y007494D02*
X015979Y007494D01*
X015979Y007592D02*
X016590Y007592D01*
X016590Y007691D02*
X015910Y007691D01*
X016130Y007789D02*
X016590Y007789D01*
X016590Y007888D02*
X016150Y007888D01*
X016150Y007986D02*
X016590Y007986D01*
X016590Y008085D02*
X016150Y008085D01*
X016150Y008183D02*
X016590Y008183D01*
X016590Y008282D02*
X016150Y008282D01*
X016150Y008380D02*
X016590Y008380D01*
X016590Y008479D02*
X016150Y008479D01*
X016150Y008577D02*
X016590Y008577D01*
X016203Y008774D02*
X016127Y008774D01*
X015830Y008280D02*
X015830Y008080D01*
X015750Y008000D01*
X015750Y007500D01*
X015521Y007494D02*
X014006Y007494D01*
X013908Y007592D02*
X015521Y007592D01*
X015590Y007691D02*
X013809Y007691D01*
X013711Y007789D02*
X015530Y007789D01*
X015510Y007888D02*
X013612Y007888D01*
X013514Y007986D02*
X015510Y007986D01*
X015510Y008085D02*
X013415Y008085D01*
X013317Y008183D02*
X015510Y008183D01*
X015510Y008282D02*
X013218Y008282D01*
X013120Y008380D02*
X015510Y008380D01*
X015510Y008479D02*
X013021Y008479D01*
X013000Y008577D02*
X015510Y008577D01*
X015533Y008774D02*
X015457Y008774D01*
X014848Y008676D02*
X013000Y008676D01*
X013000Y008774D02*
X014750Y008774D01*
X014651Y008873D02*
X013000Y008873D01*
X013000Y008971D02*
X014553Y008971D01*
X014454Y009070D02*
X013000Y009070D01*
X013000Y009168D02*
X014356Y009168D01*
X014340Y009267D02*
X013000Y009267D01*
X013000Y009365D02*
X014340Y009365D01*
X014340Y009464D02*
X013000Y009464D01*
X013000Y009562D02*
X014340Y009562D01*
X014340Y009661D02*
X013000Y009661D01*
X013000Y009759D02*
X014340Y009759D01*
X014340Y009858D02*
X013000Y009858D01*
X013000Y009956D02*
X014340Y009956D01*
X014340Y010055D02*
X013000Y010055D01*
X013000Y010153D02*
X014340Y010153D01*
X014340Y010252D02*
X013000Y010252D01*
X013000Y010350D02*
X014340Y010350D01*
X014340Y010449D02*
X013000Y010449D01*
X013000Y010547D02*
X014340Y010547D01*
X014340Y010646D02*
X013000Y010646D01*
X013000Y010744D02*
X014340Y010744D01*
X014340Y010843D02*
X013000Y010843D01*
X013000Y010941D02*
X014340Y010941D01*
X014340Y011040D02*
X013000Y011040D01*
X013000Y011138D02*
X014412Y011138D01*
X012585Y009000D02*
X012500Y009000D01*
X012500Y008500D01*
X013750Y008750D02*
X014000Y008500D01*
X014105Y007395D02*
X015531Y007395D01*
X015630Y007297D02*
X014203Y007297D01*
X014500Y006804D02*
X018340Y006804D01*
X018340Y006706D02*
X014500Y006706D01*
X014500Y006607D02*
X018340Y006607D01*
X018340Y006509D02*
X014500Y006509D01*
X014500Y006410D02*
X018340Y006410D01*
X018340Y006312D02*
X014500Y006312D01*
X014500Y006213D02*
X018340Y006213D01*
X018340Y006115D02*
X014500Y006115D01*
X014500Y006016D02*
X018340Y006016D01*
X018340Y005918D02*
X014500Y005918D01*
X014500Y005819D02*
X018340Y005819D01*
X018340Y005721D02*
X014500Y005721D01*
X014500Y005622D02*
X018340Y005622D01*
X018340Y005524D02*
X014500Y005524D01*
X014500Y005425D02*
X018340Y005425D01*
X018340Y005327D02*
X014500Y005327D01*
X014500Y005228D02*
X018340Y005228D01*
X018340Y005130D02*
X014500Y005130D01*
X014500Y005031D02*
X018340Y005031D01*
X018340Y004933D02*
X014500Y004933D01*
X014500Y004834D02*
X018340Y004834D01*
X018340Y004736D02*
X014500Y004736D01*
X014500Y004637D02*
X018340Y004637D01*
X018340Y004539D02*
X014500Y004539D01*
X014500Y004440D02*
X018340Y004440D01*
X018340Y004342D02*
X014500Y004342D01*
X014500Y004243D02*
X018340Y004243D01*
X018340Y004145D02*
X014500Y004145D01*
X014500Y004046D02*
X018340Y004046D01*
X018340Y003948D02*
X014500Y003948D01*
X014500Y003849D02*
X018340Y003849D01*
X018340Y003751D02*
X014500Y003751D01*
X014500Y003652D02*
X018340Y003652D01*
X018340Y003554D02*
X014500Y003554D01*
X014500Y003455D02*
X018340Y003455D01*
X018340Y003357D02*
X014500Y003357D01*
X014500Y003258D02*
X018340Y003258D01*
X018340Y003160D02*
X014500Y003160D01*
X014500Y003061D02*
X018340Y003061D01*
X016000Y002000D02*
X015500Y001500D01*
X016000Y002000D02*
X025250Y002000D01*
X025500Y002250D01*
X025500Y004500D01*
X025823Y004823D01*
X025823Y005000D01*
X026177Y005000D02*
X026177Y008485D01*
X026162Y008500D01*
X026177Y006750D02*
X026177Y005000D01*
X025250Y006000D02*
X025250Y002500D01*
X025000Y002250D01*
X015250Y002250D01*
X014500Y001500D01*
X013000Y006835D02*
X011915Y006835D01*
X013000Y006835D02*
X013000Y007250D01*
X007000Y005250D02*
X005750Y006500D01*
X021750Y018000D02*
X021750Y019750D01*
X021500Y020000D01*
X023430Y019000D02*
X024000Y019000D01*
X024000Y018500D01*
X023430Y018500D01*
X024000Y018500D02*
X024000Y017750D01*
X023430Y017500D02*
X024750Y017500D01*
X025250Y017000D01*
X025250Y013000D01*
X025550Y012700D01*
X025550Y012500D01*
X023000Y007500D02*
X023000Y007000D01*
X025250Y006000D02*
X025823Y006573D01*
X025823Y006750D01*
X023430Y018000D02*
X022750Y018000D01*
D30*
X016386Y011787D02*
X015250Y012923D01*
X014923Y012923D01*
X014000Y012000D01*
X014000Y008500D01*
X014940Y008500D01*
X015160Y008280D01*
X015500Y009500D02*
X015500Y010000D01*
X016000Y010000D01*
X016386Y011787D02*
X018250Y011787D01*
X018394Y011931D01*
X020750Y011931D01*
X020750Y009569D02*
X020931Y009569D01*
X023000Y007500D01*
X023000Y007000D01*
X023000Y005673D01*
X023173Y005500D01*
X019827Y005500D02*
X019827Y007673D01*
X019220Y008280D01*
X014000Y007000D02*
X014000Y003000D01*
X013500Y002500D01*
X008750Y002500D01*
D31*
X009250Y004000D03*
X010750Y004500D03*
X009500Y005250D03*
X009750Y006250D03*
X011750Y006250D03*
X013000Y007250D03*
X014000Y007000D03*
X015750Y007500D03*
X013750Y008750D03*
X012500Y008500D03*
X016000Y010000D03*
X020750Y014250D03*
X018500Y014500D03*
X017000Y017000D03*
X021750Y018000D03*
X022750Y018000D03*
X024000Y017750D03*
X024000Y016250D03*
X023000Y007500D03*
X013000Y003000D03*
X005750Y006500D03*
D32*
X008000Y007750D02*
X008750Y007000D01*
X008750Y002500D01*
X008500Y002250D01*
X008000Y001750D01*
X015160Y006340D02*
X016500Y005000D01*
X016500Y008280D01*
X017170Y008280D02*
X017170Y009330D01*
X016500Y010000D01*
X016000Y010000D01*
X015500Y010000D01*
X015327Y010000D01*
X015250Y009577D01*
X015160Y008280D02*
X015160Y006340D01*
X017840Y008280D02*
X018250Y008280D01*
X018250Y010213D01*
X018250Y011787D02*
X018463Y012000D01*
X018500Y012000D01*
X018250Y008280D02*
X019220Y008280D01*
M02*
