%
M48
M72
T01C0.0118
T02C0.0394
T03C0.0400
%
T01
X5750Y6500
X9250Y4000
X10750Y4500
X9500Y5250
X9750Y6250
X11750Y6250
X13000Y7250
X14000Y7000
X15750Y7500
X13750Y8750
X12500Y8500
X16000Y10000
X20750Y14250
X18500Y14500
X17000Y17000
X21750Y18000
X22750Y18000
X24000Y17750
X24000Y16250
X23000Y7500
X13000Y3000
T02
X7000Y2250
X8000Y1750
X8000Y2750
X7000Y3250
X8000Y3750
X7000Y4250
X8000Y4750
X7000Y5250
X8000Y7750
X7000Y8250
X8000Y8750
X7000Y9250
X8000Y9750
X7000Y10250
X8000Y10750
X7000Y11250
X7900Y20500
X8900Y20500
X9900Y20500
X10900Y20500
X11900Y20500
X12900Y20500
X13900Y20500
X14900Y20500
X15900Y20500
X16900Y20500
X18500Y20500
X19500Y20500
X20500Y20500
X21500Y20500
X22500Y20500
X23500Y20500
X24500Y20500
X25500Y20500
X25550Y12500
X26550Y12500
X26550Y11500
X25550Y11500
X25550Y10500
X26550Y10500
X25500Y1500
X24500Y1500
X23500Y1500
X22500Y1500
X21500Y1500
X20500Y1500
X18500Y1500
X17500Y1500
X16500Y1500
X15500Y1500
X14500Y1500
X13500Y1500
X12500Y1500
X11500Y1500
T03
X7500Y14250
X6500Y14250
M30
