G75*
G70*
%OFA0B0*%
%FSLAX24Y24*%
%IPPOS*%
%LPD*%
%AMOC8*
5,1,8,0,0,1.08239X$1,22.5*
%
%ADD10C,0.0820*%
%ADD11R,0.0820X0.0820*%
%ADD12C,0.1340*%
%ADD13R,0.0474X0.0513*%
%ADD14C,0.1780*%
%ADD15C,0.0000*%
%ADD16C,0.0001*%
D10*
X006892Y001890D03*
X007892Y001390D03*
X007892Y002390D03*
X006892Y002890D03*
X007892Y003390D03*
X006892Y003890D03*
X007892Y004390D03*
D11*
X006892Y004890D03*
D12*
X004392Y000890D03*
X004392Y005390D03*
D13*
X009142Y004975D03*
X009142Y004305D03*
D14*
X010998Y003140D03*
X013360Y003140D03*
X012179Y004990D03*
D15*
X005266Y003268D02*
X005266Y003236D01*
X005266Y002984D01*
X005238Y002977D01*
X005211Y002965D01*
X005179Y002953D01*
X005152Y002945D01*
X005124Y002933D01*
X005097Y002925D01*
X005069Y002914D01*
X005046Y002925D01*
X005018Y002937D01*
X004994Y002945D01*
X004994Y003303D01*
X005018Y003315D01*
X005046Y003327D01*
X005069Y003339D01*
X005097Y003327D01*
X005124Y003319D01*
X005152Y003307D01*
X005179Y003296D01*
X005211Y003288D01*
X005238Y003276D01*
X005266Y003268D01*
D16*
X004994Y003268D01*
X004994Y003269D02*
X005263Y003269D01*
X005266Y003267D02*
X004994Y003267D01*
X004994Y003266D02*
X005266Y003266D01*
X005266Y003265D02*
X004994Y003265D01*
X004994Y003264D02*
X005266Y003264D01*
X005266Y003263D02*
X004994Y003263D01*
X004994Y003262D02*
X005266Y003262D01*
X005266Y003261D02*
X004994Y003261D01*
X004994Y003260D02*
X005266Y003260D01*
X005266Y003259D02*
X004994Y003259D01*
X004994Y003258D02*
X005266Y003258D01*
X005266Y003257D02*
X004994Y003257D01*
X004994Y003256D02*
X005266Y003256D01*
X005266Y003255D02*
X004994Y003255D01*
X004994Y003254D02*
X005266Y003254D01*
X005266Y003253D02*
X004994Y003253D01*
X004994Y003252D02*
X005266Y003252D01*
X005266Y003251D02*
X004994Y003251D01*
X004994Y003250D02*
X005266Y003250D01*
X005266Y003249D02*
X004994Y003249D01*
X004994Y003248D02*
X005266Y003248D01*
X005266Y003247D02*
X004994Y003247D01*
X004994Y003246D02*
X005266Y003246D01*
X005266Y003245D02*
X004994Y003245D01*
X004994Y003244D02*
X005266Y003244D01*
X005266Y003243D02*
X004994Y003243D01*
X004994Y003242D02*
X005266Y003242D01*
X005266Y003241D02*
X004994Y003241D01*
X004994Y003240D02*
X005266Y003240D01*
X005266Y003239D02*
X004994Y003239D01*
X004994Y003238D02*
X005266Y003238D01*
X005266Y003237D02*
X004994Y003237D01*
X004994Y003236D02*
X005266Y003236D01*
X005266Y003235D02*
X004994Y003235D01*
X004994Y003234D02*
X005266Y003234D01*
X005266Y003233D02*
X004994Y003233D01*
X004994Y003232D02*
X005266Y003232D01*
X005266Y003231D02*
X004994Y003231D01*
X004994Y003230D02*
X005266Y003230D01*
X005266Y003229D02*
X004994Y003229D01*
X004994Y003228D02*
X005266Y003228D01*
X005266Y003227D02*
X004994Y003227D01*
X004994Y003226D02*
X005266Y003226D01*
X005266Y003225D02*
X004994Y003225D01*
X004994Y003224D02*
X005266Y003224D01*
X005266Y003223D02*
X004994Y003223D01*
X004994Y003222D02*
X005266Y003222D01*
X005266Y003221D02*
X004994Y003221D01*
X004994Y003220D02*
X005266Y003220D01*
X005266Y003219D02*
X004994Y003219D01*
X004994Y003218D02*
X005266Y003218D01*
X005266Y003217D02*
X004994Y003217D01*
X004994Y003216D02*
X005266Y003216D01*
X005266Y003215D02*
X004994Y003215D01*
X004994Y003214D02*
X005266Y003214D01*
X005266Y003213D02*
X004994Y003213D01*
X004994Y003212D02*
X005266Y003212D01*
X005266Y003211D02*
X004994Y003211D01*
X004994Y003210D02*
X005266Y003210D01*
X005266Y003209D02*
X004994Y003209D01*
X004994Y003208D02*
X005266Y003208D01*
X005266Y003207D02*
X004994Y003207D01*
X004994Y003206D02*
X005266Y003206D01*
X005266Y003205D02*
X004994Y003205D01*
X004994Y003204D02*
X005266Y003204D01*
X005266Y003203D02*
X004994Y003203D01*
X004994Y003202D02*
X005266Y003202D01*
X005266Y003201D02*
X004994Y003201D01*
X004994Y003200D02*
X005266Y003200D01*
X005266Y003199D02*
X004994Y003199D01*
X004994Y003198D02*
X005266Y003198D01*
X005266Y003197D02*
X004994Y003197D01*
X004994Y003196D02*
X005266Y003196D01*
X005266Y003195D02*
X004994Y003195D01*
X004994Y003194D02*
X005266Y003194D01*
X005266Y003193D02*
X004994Y003193D01*
X004994Y003192D02*
X005266Y003192D01*
X005266Y003191D02*
X004994Y003191D01*
X004994Y003190D02*
X005266Y003190D01*
X005266Y003189D02*
X004994Y003189D01*
X004994Y003188D02*
X005266Y003188D01*
X005266Y003187D02*
X004994Y003187D01*
X004994Y003186D02*
X005266Y003186D01*
X005266Y003185D02*
X004994Y003185D01*
X004994Y003184D02*
X005266Y003184D01*
X005266Y003183D02*
X004994Y003183D01*
X004994Y003182D02*
X005266Y003182D01*
X005266Y003181D02*
X004994Y003181D01*
X004994Y003180D02*
X005266Y003180D01*
X005266Y003179D02*
X004994Y003179D01*
X004994Y003178D02*
X005266Y003178D01*
X005266Y003177D02*
X004994Y003177D01*
X004994Y003176D02*
X005266Y003176D01*
X005266Y003175D02*
X004994Y003175D01*
X004994Y003174D02*
X005266Y003174D01*
X005266Y003173D02*
X004994Y003173D01*
X004994Y003172D02*
X005266Y003172D01*
X005266Y003171D02*
X004994Y003171D01*
X004994Y003170D02*
X005266Y003170D01*
X005266Y003169D02*
X004994Y003169D01*
X004994Y003168D02*
X005266Y003168D01*
X005266Y003167D02*
X004994Y003167D01*
X004994Y003166D02*
X005266Y003166D01*
X005266Y003165D02*
X004994Y003165D01*
X004994Y003164D02*
X005266Y003164D01*
X005266Y003163D02*
X004994Y003163D01*
X004994Y003162D02*
X005266Y003162D01*
X005266Y003161D02*
X004994Y003161D01*
X004994Y003160D02*
X005266Y003160D01*
X005266Y003159D02*
X004994Y003159D01*
X004994Y003158D02*
X005266Y003158D01*
X005266Y003157D02*
X004994Y003157D01*
X004994Y003156D02*
X005266Y003156D01*
X005266Y003155D02*
X004994Y003155D01*
X004994Y003154D02*
X005266Y003154D01*
X005266Y003153D02*
X004994Y003153D01*
X004994Y003152D02*
X005266Y003152D01*
X005266Y003151D02*
X004994Y003151D01*
X004994Y003150D02*
X005266Y003150D01*
X005266Y003149D02*
X004994Y003149D01*
X004994Y003148D02*
X005266Y003148D01*
X005266Y003147D02*
X004994Y003147D01*
X004994Y003146D02*
X005266Y003146D01*
X005266Y003145D02*
X004994Y003145D01*
X004994Y003144D02*
X005266Y003144D01*
X005266Y003143D02*
X004994Y003143D01*
X004994Y003142D02*
X005266Y003142D01*
X005266Y003141D02*
X004994Y003141D01*
X004994Y003140D02*
X005266Y003140D01*
X005266Y003139D02*
X004994Y003139D01*
X004994Y003138D02*
X005266Y003138D01*
X005266Y003137D02*
X004994Y003137D01*
X004994Y003136D02*
X005266Y003136D01*
X005266Y003135D02*
X004994Y003135D01*
X004994Y003134D02*
X005266Y003134D01*
X005266Y003133D02*
X004994Y003133D01*
X004994Y003132D02*
X005266Y003132D01*
X005266Y003131D02*
X004994Y003131D01*
X004994Y003130D02*
X005266Y003130D01*
X005266Y003129D02*
X004994Y003129D01*
X004994Y003128D02*
X005266Y003128D01*
X005266Y003127D02*
X004994Y003127D01*
X004994Y003126D02*
X005266Y003126D01*
X005266Y003125D02*
X004994Y003125D01*
X004994Y003124D02*
X005266Y003124D01*
X005266Y003123D02*
X004994Y003123D01*
X004994Y003122D02*
X005266Y003122D01*
X005266Y003121D02*
X004994Y003121D01*
X004994Y003120D02*
X005266Y003120D01*
X005266Y003119D02*
X004994Y003119D01*
X004994Y003118D02*
X005266Y003118D01*
X005266Y003117D02*
X004994Y003117D01*
X004994Y003116D02*
X005266Y003116D01*
X005266Y003115D02*
X004994Y003115D01*
X004994Y003114D02*
X005266Y003114D01*
X005266Y003113D02*
X004994Y003113D01*
X004994Y003112D02*
X005266Y003112D01*
X005266Y003111D02*
X004994Y003111D01*
X004994Y003110D02*
X005266Y003110D01*
X005266Y003109D02*
X004994Y003109D01*
X004994Y003108D02*
X005266Y003108D01*
X005266Y003107D02*
X004994Y003107D01*
X004994Y003106D02*
X005266Y003106D01*
X005266Y003105D02*
X004994Y003105D01*
X004994Y003104D02*
X005266Y003104D01*
X005266Y003103D02*
X004994Y003103D01*
X004994Y003102D02*
X005266Y003102D01*
X005266Y003101D02*
X004994Y003101D01*
X004994Y003100D02*
X005266Y003100D01*
X005266Y003099D02*
X004994Y003099D01*
X004994Y003098D02*
X005266Y003098D01*
X005266Y003097D02*
X004994Y003097D01*
X004994Y003096D02*
X005266Y003096D01*
X005266Y003095D02*
X004994Y003095D01*
X004994Y003094D02*
X005266Y003094D01*
X005266Y003093D02*
X004994Y003093D01*
X004994Y003092D02*
X005266Y003092D01*
X005266Y003091D02*
X004994Y003091D01*
X004994Y003090D02*
X005266Y003090D01*
X005266Y003089D02*
X004994Y003089D01*
X004994Y003088D02*
X005266Y003088D01*
X005266Y003087D02*
X004994Y003087D01*
X004994Y003086D02*
X005266Y003086D01*
X005266Y003085D02*
X004994Y003085D01*
X004994Y003084D02*
X005266Y003084D01*
X005266Y003083D02*
X004994Y003083D01*
X004994Y003082D02*
X005266Y003082D01*
X005266Y003081D02*
X004994Y003081D01*
X004994Y003080D02*
X005266Y003080D01*
X005266Y003079D02*
X004994Y003079D01*
X004994Y003078D02*
X005266Y003078D01*
X005266Y003077D02*
X004994Y003077D01*
X004994Y003076D02*
X005266Y003076D01*
X005266Y003075D02*
X004994Y003075D01*
X004994Y003074D02*
X005266Y003074D01*
X005266Y003073D02*
X004994Y003073D01*
X004994Y003072D02*
X005266Y003072D01*
X005266Y003071D02*
X004994Y003071D01*
X004994Y003070D02*
X005266Y003070D01*
X005266Y003069D02*
X004994Y003069D01*
X004994Y003068D02*
X005266Y003068D01*
X005266Y003067D02*
X004994Y003067D01*
X004994Y003066D02*
X005266Y003066D01*
X005266Y003065D02*
X004994Y003065D01*
X004994Y003064D02*
X005266Y003064D01*
X005266Y003063D02*
X004994Y003063D01*
X004994Y003062D02*
X005266Y003062D01*
X005266Y003061D02*
X004994Y003061D01*
X004994Y003060D02*
X005266Y003060D01*
X005266Y003059D02*
X004994Y003059D01*
X004994Y003058D02*
X005266Y003058D01*
X005266Y003057D02*
X004994Y003057D01*
X004994Y003056D02*
X005266Y003056D01*
X005266Y003055D02*
X004994Y003055D01*
X004994Y003054D02*
X005266Y003054D01*
X005266Y003053D02*
X004994Y003053D01*
X004994Y003052D02*
X005266Y003052D01*
X005266Y003051D02*
X004994Y003051D01*
X004994Y003050D02*
X005266Y003050D01*
X005266Y003049D02*
X004994Y003049D01*
X004994Y003048D02*
X005266Y003048D01*
X005266Y003047D02*
X004994Y003047D01*
X004994Y003046D02*
X005266Y003046D01*
X005266Y003045D02*
X004994Y003045D01*
X004994Y003044D02*
X005266Y003044D01*
X005266Y003043D02*
X004994Y003043D01*
X004994Y003042D02*
X005266Y003042D01*
X005266Y003041D02*
X004994Y003041D01*
X004994Y003040D02*
X005266Y003040D01*
X005266Y003039D02*
X004994Y003039D01*
X004994Y003038D02*
X005266Y003038D01*
X005266Y003037D02*
X004994Y003037D01*
X004994Y003036D02*
X005266Y003036D01*
X005266Y003035D02*
X004994Y003035D01*
X004994Y003034D02*
X005266Y003034D01*
X005266Y003033D02*
X004994Y003033D01*
X004994Y003032D02*
X005266Y003032D01*
X005266Y003031D02*
X004994Y003031D01*
X004994Y003030D02*
X005266Y003030D01*
X005266Y003029D02*
X004994Y003029D01*
X004994Y003028D02*
X005266Y003028D01*
X005266Y003027D02*
X004994Y003027D01*
X004994Y003026D02*
X005266Y003026D01*
X005266Y003025D02*
X004994Y003025D01*
X004994Y003024D02*
X005266Y003024D01*
X005266Y003023D02*
X004994Y003023D01*
X004994Y003022D02*
X005266Y003022D01*
X005266Y003021D02*
X004994Y003021D01*
X004994Y003020D02*
X005266Y003020D01*
X005266Y003019D02*
X004994Y003019D01*
X004994Y003018D02*
X005266Y003018D01*
X005266Y003017D02*
X004994Y003017D01*
X004994Y003016D02*
X005266Y003016D01*
X005266Y003015D02*
X004994Y003015D01*
X004994Y003014D02*
X005266Y003014D01*
X005266Y003013D02*
X004994Y003013D01*
X004994Y003012D02*
X005266Y003012D01*
X005266Y003011D02*
X004994Y003011D01*
X004994Y003010D02*
X005266Y003010D01*
X005266Y003009D02*
X004994Y003009D01*
X004994Y003008D02*
X005266Y003008D01*
X005266Y003007D02*
X004994Y003007D01*
X004994Y003006D02*
X005266Y003006D01*
X005266Y003005D02*
X004994Y003005D01*
X004994Y003004D02*
X005266Y003004D01*
X005266Y003003D02*
X004994Y003003D01*
X004994Y003002D02*
X005266Y003002D01*
X005266Y003001D02*
X004994Y003001D01*
X004994Y003000D02*
X005266Y003000D01*
X005266Y002999D02*
X004994Y002999D01*
X004994Y002998D02*
X005266Y002998D01*
X005266Y002997D02*
X004994Y002997D01*
X004994Y002996D02*
X005266Y002996D01*
X005266Y002995D02*
X004994Y002995D01*
X004994Y002994D02*
X005266Y002994D01*
X005266Y002993D02*
X004994Y002993D01*
X004994Y002992D02*
X005266Y002992D01*
X005266Y002991D02*
X004994Y002991D01*
X004994Y002990D02*
X005266Y002990D01*
X005266Y002989D02*
X004994Y002989D01*
X004994Y002988D02*
X005266Y002988D01*
X005266Y002987D02*
X004994Y002987D01*
X004994Y002986D02*
X005266Y002986D01*
X005266Y002985D02*
X004994Y002985D01*
X004994Y002984D02*
X005265Y002984D01*
X005261Y002983D02*
X004994Y002983D01*
X004994Y002982D02*
X005258Y002982D01*
X005254Y002981D02*
X004994Y002981D01*
X004994Y002980D02*
X005251Y002980D01*
X005247Y002979D02*
X004994Y002979D01*
X004994Y002978D02*
X005244Y002978D01*
X005240Y002977D02*
X004994Y002977D01*
X004994Y002976D02*
X005237Y002976D01*
X005235Y002975D02*
X004994Y002975D01*
X004994Y002974D02*
X005233Y002974D01*
X005230Y002973D02*
X004994Y002973D01*
X004994Y002972D02*
X005228Y002972D01*
X005226Y002971D02*
X004994Y002971D01*
X004994Y002970D02*
X005223Y002970D01*
X005221Y002969D02*
X004994Y002969D01*
X004994Y002968D02*
X005219Y002968D01*
X005216Y002967D02*
X004994Y002967D01*
X004994Y002966D02*
X005214Y002966D01*
X005212Y002965D02*
X004994Y002965D01*
X004994Y002964D02*
X005209Y002964D01*
X005207Y002963D02*
X004994Y002963D01*
X004994Y002962D02*
X005204Y002962D01*
X005201Y002961D02*
X004994Y002961D01*
X004994Y002960D02*
X005199Y002960D01*
X005196Y002959D02*
X004994Y002959D01*
X004994Y002958D02*
X005193Y002958D01*
X005191Y002957D02*
X004994Y002957D01*
X004994Y002956D02*
X005188Y002956D01*
X005185Y002955D02*
X004994Y002955D01*
X004994Y002954D02*
X005183Y002954D01*
X005180Y002953D02*
X004994Y002953D01*
X004994Y002952D02*
X005177Y002952D01*
X005173Y002951D02*
X004994Y002951D01*
X004994Y002950D02*
X005170Y002950D01*
X005166Y002949D02*
X004994Y002949D01*
X004994Y002948D02*
X005163Y002948D01*
X005159Y002947D02*
X004994Y002947D01*
X004994Y002946D02*
X005156Y002946D01*
X005152Y002945D02*
X004994Y002945D01*
X004997Y002944D02*
X005150Y002944D01*
X005147Y002943D02*
X005000Y002943D01*
X005003Y002942D02*
X005145Y002942D01*
X005143Y002941D02*
X005006Y002941D01*
X005009Y002940D02*
X005140Y002940D01*
X005138Y002939D02*
X005012Y002939D01*
X005015Y002938D02*
X005136Y002938D01*
X005133Y002937D02*
X005018Y002937D01*
X005020Y002936D02*
X005131Y002936D01*
X005129Y002935D02*
X005023Y002935D01*
X005025Y002934D02*
X005126Y002934D01*
X005124Y002933D02*
X005027Y002933D01*
X005030Y002932D02*
X005121Y002932D01*
X005117Y002931D02*
X005032Y002931D01*
X005034Y002930D02*
X005114Y002930D01*
X005110Y002929D02*
X005037Y002929D01*
X005039Y002928D02*
X005107Y002928D01*
X005103Y002927D02*
X005041Y002927D01*
X005044Y002926D02*
X005100Y002926D01*
X005096Y002925D02*
X005046Y002925D01*
X005048Y002924D02*
X005094Y002924D01*
X005092Y002923D02*
X005050Y002923D01*
X005052Y002922D02*
X005089Y002922D01*
X005087Y002921D02*
X005054Y002921D01*
X005056Y002920D02*
X005085Y002920D01*
X005082Y002919D02*
X005058Y002919D01*
X005060Y002918D02*
X005080Y002918D01*
X005078Y002917D02*
X005062Y002917D01*
X005064Y002916D02*
X005075Y002916D01*
X005073Y002915D02*
X005066Y002915D01*
X005068Y002914D02*
X005071Y002914D01*
X004994Y003270D02*
X005259Y003270D01*
X005256Y003271D02*
X004994Y003271D01*
X004994Y003272D02*
X005252Y003272D01*
X005249Y003273D02*
X004994Y003273D01*
X004994Y003274D02*
X005245Y003274D01*
X005242Y003275D02*
X004994Y003275D01*
X004994Y003276D02*
X005238Y003276D01*
X005236Y003277D02*
X004994Y003277D01*
X004994Y003278D02*
X005234Y003278D01*
X005231Y003279D02*
X004994Y003279D01*
X004994Y003280D02*
X005229Y003280D01*
X005227Y003281D02*
X004994Y003281D01*
X004994Y003282D02*
X005224Y003282D01*
X005222Y003283D02*
X004994Y003283D01*
X004994Y003284D02*
X005220Y003284D01*
X005217Y003285D02*
X004994Y003285D01*
X004994Y003286D02*
X005215Y003286D01*
X005213Y003287D02*
X004994Y003287D01*
X004994Y003288D02*
X005210Y003288D01*
X005206Y003289D02*
X004994Y003289D01*
X004994Y003290D02*
X005202Y003290D01*
X005198Y003291D02*
X004994Y003291D01*
X004994Y003292D02*
X005194Y003292D01*
X005190Y003293D02*
X004994Y003293D01*
X004994Y003294D02*
X005186Y003294D01*
X005182Y003295D02*
X004994Y003295D01*
X004994Y003296D02*
X005178Y003296D01*
X005176Y003297D02*
X004994Y003297D01*
X004994Y003298D02*
X005174Y003298D01*
X005171Y003299D02*
X004994Y003299D01*
X004994Y003300D02*
X005169Y003300D01*
X005167Y003301D02*
X004994Y003301D01*
X004994Y003302D02*
X005165Y003302D01*
X005162Y003303D02*
X004994Y003303D01*
X004995Y003304D02*
X005160Y003304D01*
X005158Y003305D02*
X004997Y003305D01*
X004999Y003306D02*
X005155Y003306D01*
X005153Y003307D02*
X005001Y003307D01*
X005003Y003308D02*
X005151Y003308D01*
X005148Y003309D02*
X005005Y003309D01*
X005007Y003310D02*
X005146Y003310D01*
X005144Y003311D02*
X005009Y003311D01*
X005011Y003312D02*
X005141Y003312D01*
X005139Y003313D02*
X005013Y003313D01*
X005015Y003314D02*
X005137Y003314D01*
X005134Y003315D02*
X005017Y003315D01*
X005020Y003316D02*
X005132Y003316D01*
X005130Y003317D02*
X005022Y003317D01*
X005024Y003318D02*
X005127Y003318D01*
X005125Y003319D02*
X005027Y003319D01*
X005029Y003320D02*
X005122Y003320D01*
X005118Y003321D02*
X005031Y003321D01*
X005034Y003322D02*
X005115Y003322D01*
X005111Y003323D02*
X005036Y003323D01*
X005038Y003324D02*
X005108Y003324D01*
X005104Y003325D02*
X005041Y003325D01*
X005043Y003326D02*
X005101Y003326D01*
X005097Y003327D02*
X005045Y003327D01*
X005047Y003328D02*
X005095Y003328D01*
X005092Y003329D02*
X005049Y003329D01*
X005051Y003330D02*
X005090Y003330D01*
X005088Y003331D02*
X005053Y003331D01*
X005055Y003332D02*
X005085Y003332D01*
X005083Y003333D02*
X005057Y003333D01*
X005059Y003334D02*
X005081Y003334D01*
X005078Y003335D02*
X005061Y003335D01*
X005063Y003336D02*
X005076Y003336D01*
X005074Y003337D02*
X005065Y003337D01*
X005067Y003338D02*
X005071Y003338D01*
M02*
