G75*
G70*
%OFA0B0*%
%FSLAX24Y24*%
%IPPOS*%
%LPD*%
%AMOC8*
5,1,8,0,0,1.08239X$1,22.5*
%
%ADD10C,0.0080*%
%ADD11R,0.0180X0.0300*%
%ADD12C,0.0060*%
%ADD13C,0.0220*%
D10*
X003211Y000140D02*
X008329Y000140D01*
X008329Y006140D01*
X003211Y006140D01*
X003211Y000140D01*
X010998Y001368D02*
X010998Y002195D01*
X010998Y001368D02*
X015211Y001368D01*
X015211Y004912D01*
X013124Y004912D01*
X011274Y004912D02*
X010998Y004912D01*
X010998Y004085D01*
D11*
X009142Y003640D03*
X009142Y005640D03*
D12*
X009822Y005583D02*
X009992Y005583D01*
X010049Y005640D01*
X010049Y005754D01*
X009992Y005810D01*
X009822Y005810D01*
X009822Y005470D01*
X009935Y005583D02*
X010049Y005470D01*
X010190Y005470D02*
X010417Y005470D01*
X010304Y005470D02*
X010304Y005810D01*
X010190Y005697D01*
X009017Y004810D02*
X009017Y004470D01*
X008904Y004470D02*
X009131Y004470D01*
X008904Y004697D02*
X009017Y004810D01*
X008762Y004754D02*
X008705Y004810D01*
X008592Y004810D01*
X008535Y004754D01*
X008535Y004527D01*
X008592Y004470D01*
X008705Y004470D01*
X008762Y004527D01*
X008822Y003310D02*
X008992Y003310D01*
X009049Y003254D01*
X009049Y003140D01*
X008992Y003083D01*
X008822Y003083D01*
X008935Y003083D02*
X009049Y002970D01*
X009190Y002970D02*
X009417Y003197D01*
X009417Y003254D01*
X009360Y003310D01*
X009247Y003310D01*
X009190Y003254D01*
X008822Y003310D02*
X008822Y002970D01*
X009190Y002970D02*
X009417Y002970D01*
X014022Y002152D02*
X014135Y002038D01*
X014022Y002152D02*
X014362Y002152D01*
X014362Y002265D02*
X014362Y002038D01*
X014022Y001897D02*
X014022Y001783D01*
X014022Y001840D02*
X014305Y001840D01*
X014362Y001783D01*
X014362Y001727D01*
X014305Y001670D01*
D13*
X009892Y004628D02*
X009892Y004652D01*
M02*
