G75*
G70*
%OFA0B0*%
%FSLAX24Y24*%
%IPPOS*%
%LPD*%
%AMOC8*
5,1,8,0,0,1.08239X$1,22.5*
%
%ADD10C,0.0820*%
%ADD11R,0.0820X0.0820*%
%ADD12C,0.1340*%
%ADD13C,0.1780*%
%ADD14C,0.0000*%
%ADD15C,0.0001*%
D10*
X006892Y001890D03*
X007892Y001390D03*
X007892Y002390D03*
X006892Y002890D03*
X007892Y003390D03*
X006892Y003890D03*
X007892Y004390D03*
D11*
X006892Y004890D03*
D12*
X004392Y000890D03*
X004392Y005390D03*
D13*
X010998Y003140D03*
X013360Y003140D03*
X012179Y004990D03*
D14*
X002266Y003296D02*
X002266Y003044D01*
X002266Y003012D01*
X002238Y003004D01*
X002211Y002992D01*
X002179Y002984D01*
X002152Y002973D01*
X002124Y002961D01*
X002097Y002953D01*
X002069Y002941D01*
X002046Y002953D01*
X002018Y002965D01*
X001994Y002977D01*
X001994Y003335D01*
X002018Y003343D01*
X002046Y003355D01*
X002069Y003366D01*
X002097Y003355D01*
X002124Y003347D01*
X002152Y003335D01*
X002179Y003327D01*
X002211Y003315D01*
X002238Y003303D01*
X002266Y003296D01*
D15*
X002266Y003295D02*
X001994Y003295D01*
X001994Y003296D02*
X002265Y003296D01*
X002266Y003294D02*
X001994Y003294D01*
X001994Y003293D02*
X002266Y003293D01*
X002266Y003292D02*
X001994Y003292D01*
X001994Y003291D02*
X002266Y003291D01*
X002266Y003290D02*
X001994Y003290D01*
X001994Y003289D02*
X002266Y003289D01*
X002266Y003288D02*
X001994Y003288D01*
X001994Y003287D02*
X002266Y003287D01*
X002266Y003286D02*
X001994Y003286D01*
X001994Y003285D02*
X002266Y003285D01*
X002266Y003284D02*
X001994Y003284D01*
X001994Y003283D02*
X002266Y003283D01*
X002266Y003282D02*
X001994Y003282D01*
X001994Y003281D02*
X002266Y003281D01*
X002266Y003280D02*
X001994Y003280D01*
X001994Y003279D02*
X002266Y003279D01*
X002266Y003278D02*
X001994Y003278D01*
X001994Y003277D02*
X002266Y003277D01*
X002266Y003276D02*
X001994Y003276D01*
X001994Y003275D02*
X002266Y003275D01*
X002266Y003274D02*
X001994Y003274D01*
X001994Y003273D02*
X002266Y003273D01*
X002266Y003272D02*
X001994Y003272D01*
X001994Y003271D02*
X002266Y003271D01*
X002266Y003270D02*
X001994Y003270D01*
X001994Y003269D02*
X002266Y003269D01*
X002266Y003268D02*
X001994Y003268D01*
X001994Y003267D02*
X002266Y003267D01*
X002266Y003266D02*
X001994Y003266D01*
X001994Y003265D02*
X002266Y003265D01*
X002266Y003264D02*
X001994Y003264D01*
X001994Y003263D02*
X002266Y003263D01*
X002266Y003262D02*
X001994Y003262D01*
X001994Y003261D02*
X002266Y003261D01*
X002266Y003260D02*
X001994Y003260D01*
X001994Y003259D02*
X002266Y003259D01*
X002266Y003258D02*
X001994Y003258D01*
X001994Y003257D02*
X002266Y003257D01*
X002266Y003256D02*
X001994Y003256D01*
X001994Y003255D02*
X002266Y003255D01*
X002266Y003254D02*
X001994Y003254D01*
X001994Y003253D02*
X002266Y003253D01*
X002266Y003252D02*
X001994Y003252D01*
X001994Y003251D02*
X002266Y003251D01*
X002266Y003250D02*
X001994Y003250D01*
X001994Y003249D02*
X002266Y003249D01*
X002266Y003248D02*
X001994Y003248D01*
X001994Y003247D02*
X002266Y003247D01*
X002266Y003246D02*
X001994Y003246D01*
X001994Y003245D02*
X002266Y003245D01*
X002266Y003244D02*
X001994Y003244D01*
X001994Y003243D02*
X002266Y003243D01*
X002266Y003242D02*
X001994Y003242D01*
X001994Y003241D02*
X002266Y003241D01*
X002266Y003240D02*
X001994Y003240D01*
X001994Y003239D02*
X002266Y003239D01*
X002266Y003238D02*
X001994Y003238D01*
X001994Y003237D02*
X002266Y003237D01*
X002266Y003236D02*
X001994Y003236D01*
X001994Y003235D02*
X002266Y003235D01*
X002266Y003234D02*
X001994Y003234D01*
X001994Y003233D02*
X002266Y003233D01*
X002266Y003232D02*
X001994Y003232D01*
X001994Y003231D02*
X002266Y003231D01*
X002266Y003230D02*
X001994Y003230D01*
X001994Y003229D02*
X002266Y003229D01*
X002266Y003228D02*
X001994Y003228D01*
X001994Y003227D02*
X002266Y003227D01*
X002266Y003226D02*
X001994Y003226D01*
X001994Y003225D02*
X002266Y003225D01*
X002266Y003224D02*
X001994Y003224D01*
X001994Y003223D02*
X002266Y003223D01*
X002266Y003222D02*
X001994Y003222D01*
X001994Y003221D02*
X002266Y003221D01*
X002266Y003220D02*
X001994Y003220D01*
X001994Y003219D02*
X002266Y003219D01*
X002266Y003218D02*
X001994Y003218D01*
X001994Y003217D02*
X002266Y003217D01*
X002266Y003216D02*
X001994Y003216D01*
X001994Y003215D02*
X002266Y003215D01*
X002266Y003214D02*
X001994Y003214D01*
X001994Y003213D02*
X002266Y003213D01*
X002266Y003212D02*
X001994Y003212D01*
X001994Y003211D02*
X002266Y003211D01*
X002266Y003210D02*
X001994Y003210D01*
X001994Y003209D02*
X002266Y003209D01*
X002266Y003208D02*
X001994Y003208D01*
X001994Y003207D02*
X002266Y003207D01*
X002266Y003206D02*
X001994Y003206D01*
X001994Y003205D02*
X002266Y003205D01*
X002266Y003204D02*
X001994Y003204D01*
X001994Y003203D02*
X002266Y003203D01*
X002266Y003202D02*
X001994Y003202D01*
X001994Y003201D02*
X002266Y003201D01*
X002266Y003200D02*
X001994Y003200D01*
X001994Y003199D02*
X002266Y003199D01*
X002266Y003198D02*
X001994Y003198D01*
X001994Y003197D02*
X002266Y003197D01*
X002266Y003196D02*
X001994Y003196D01*
X001994Y003195D02*
X002266Y003195D01*
X002266Y003194D02*
X001994Y003194D01*
X001994Y003193D02*
X002266Y003193D01*
X002266Y003192D02*
X001994Y003192D01*
X001994Y003191D02*
X002266Y003191D01*
X002266Y003190D02*
X001994Y003190D01*
X001994Y003189D02*
X002266Y003189D01*
X002266Y003188D02*
X001994Y003188D01*
X001994Y003187D02*
X002266Y003187D01*
X002266Y003186D02*
X001994Y003186D01*
X001994Y003185D02*
X002266Y003185D01*
X002266Y003184D02*
X001994Y003184D01*
X001994Y003183D02*
X002266Y003183D01*
X002266Y003182D02*
X001994Y003182D01*
X001994Y003181D02*
X002266Y003181D01*
X002266Y003180D02*
X001994Y003180D01*
X001994Y003179D02*
X002266Y003179D01*
X002266Y003178D02*
X001994Y003178D01*
X001994Y003177D02*
X002266Y003177D01*
X002266Y003176D02*
X001994Y003176D01*
X001994Y003175D02*
X002266Y003175D01*
X002266Y003174D02*
X001994Y003174D01*
X001994Y003173D02*
X002266Y003173D01*
X002266Y003172D02*
X001994Y003172D01*
X001994Y003171D02*
X002266Y003171D01*
X002266Y003170D02*
X001994Y003170D01*
X001994Y003169D02*
X002266Y003169D01*
X002266Y003168D02*
X001994Y003168D01*
X001994Y003167D02*
X002266Y003167D01*
X002266Y003166D02*
X001994Y003166D01*
X001994Y003165D02*
X002266Y003165D01*
X002266Y003164D02*
X001994Y003164D01*
X001994Y003163D02*
X002266Y003163D01*
X002266Y003162D02*
X001994Y003162D01*
X001994Y003161D02*
X002266Y003161D01*
X002266Y003160D02*
X001994Y003160D01*
X001994Y003159D02*
X002266Y003159D01*
X002266Y003158D02*
X001994Y003158D01*
X001994Y003157D02*
X002266Y003157D01*
X002266Y003156D02*
X001994Y003156D01*
X001994Y003155D02*
X002266Y003155D01*
X002266Y003154D02*
X001994Y003154D01*
X001994Y003153D02*
X002266Y003153D01*
X002266Y003152D02*
X001994Y003152D01*
X001994Y003151D02*
X002266Y003151D01*
X002266Y003150D02*
X001994Y003150D01*
X001994Y003149D02*
X002266Y003149D01*
X002266Y003148D02*
X001994Y003148D01*
X001994Y003147D02*
X002266Y003147D01*
X002266Y003146D02*
X001994Y003146D01*
X001994Y003145D02*
X002266Y003145D01*
X002266Y003144D02*
X001994Y003144D01*
X001994Y003143D02*
X002266Y003143D01*
X002266Y003142D02*
X001994Y003142D01*
X001994Y003141D02*
X002266Y003141D01*
X002266Y003140D02*
X001994Y003140D01*
X001994Y003139D02*
X002266Y003139D01*
X002266Y003138D02*
X001994Y003138D01*
X001994Y003137D02*
X002266Y003137D01*
X002266Y003136D02*
X001994Y003136D01*
X001994Y003135D02*
X002266Y003135D01*
X002266Y003134D02*
X001994Y003134D01*
X001994Y003133D02*
X002266Y003133D01*
X002266Y003132D02*
X001994Y003132D01*
X001994Y003131D02*
X002266Y003131D01*
X002266Y003130D02*
X001994Y003130D01*
X001994Y003129D02*
X002266Y003129D01*
X002266Y003128D02*
X001994Y003128D01*
X001994Y003127D02*
X002266Y003127D01*
X002266Y003126D02*
X001994Y003126D01*
X001994Y003125D02*
X002266Y003125D01*
X002266Y003124D02*
X001994Y003124D01*
X001994Y003123D02*
X002266Y003123D01*
X002266Y003122D02*
X001994Y003122D01*
X001994Y003121D02*
X002266Y003121D01*
X002266Y003120D02*
X001994Y003120D01*
X001994Y003119D02*
X002266Y003119D01*
X002266Y003118D02*
X001994Y003118D01*
X001994Y003117D02*
X002266Y003117D01*
X002266Y003116D02*
X001994Y003116D01*
X001994Y003115D02*
X002266Y003115D01*
X002266Y003114D02*
X001994Y003114D01*
X001994Y003113D02*
X002266Y003113D01*
X002266Y003112D02*
X001994Y003112D01*
X001994Y003111D02*
X002266Y003111D01*
X002266Y003110D02*
X001994Y003110D01*
X001994Y003109D02*
X002266Y003109D01*
X002266Y003108D02*
X001994Y003108D01*
X001994Y003107D02*
X002266Y003107D01*
X002266Y003106D02*
X001994Y003106D01*
X001994Y003105D02*
X002266Y003105D01*
X002266Y003104D02*
X001994Y003104D01*
X001994Y003103D02*
X002266Y003103D01*
X002266Y003102D02*
X001994Y003102D01*
X001994Y003101D02*
X002266Y003101D01*
X002266Y003100D02*
X001994Y003100D01*
X001994Y003099D02*
X002266Y003099D01*
X002266Y003098D02*
X001994Y003098D01*
X001994Y003097D02*
X002266Y003097D01*
X002266Y003096D02*
X001994Y003096D01*
X001994Y003095D02*
X002266Y003095D01*
X002266Y003094D02*
X001994Y003094D01*
X001994Y003093D02*
X002266Y003093D01*
X002266Y003092D02*
X001994Y003092D01*
X001994Y003091D02*
X002266Y003091D01*
X002266Y003090D02*
X001994Y003090D01*
X001994Y003089D02*
X002266Y003089D01*
X002266Y003088D02*
X001994Y003088D01*
X001994Y003087D02*
X002266Y003087D01*
X002266Y003086D02*
X001994Y003086D01*
X001994Y003085D02*
X002266Y003085D01*
X002266Y003084D02*
X001994Y003084D01*
X001994Y003083D02*
X002266Y003083D01*
X002266Y003082D02*
X001994Y003082D01*
X001994Y003081D02*
X002266Y003081D01*
X002266Y003080D02*
X001994Y003080D01*
X001994Y003079D02*
X002266Y003079D01*
X002266Y003078D02*
X001994Y003078D01*
X001994Y003077D02*
X002266Y003077D01*
X002266Y003076D02*
X001994Y003076D01*
X001994Y003075D02*
X002266Y003075D01*
X002266Y003074D02*
X001994Y003074D01*
X001994Y003073D02*
X002266Y003073D01*
X002266Y003072D02*
X001994Y003072D01*
X001994Y003071D02*
X002266Y003071D01*
X002266Y003070D02*
X001994Y003070D01*
X001994Y003069D02*
X002266Y003069D01*
X002266Y003068D02*
X001994Y003068D01*
X001994Y003067D02*
X002266Y003067D01*
X002266Y003066D02*
X001994Y003066D01*
X001994Y003065D02*
X002266Y003065D01*
X002266Y003064D02*
X001994Y003064D01*
X001994Y003063D02*
X002266Y003063D01*
X002266Y003062D02*
X001994Y003062D01*
X001994Y003061D02*
X002266Y003061D01*
X002266Y003060D02*
X001994Y003060D01*
X001994Y003059D02*
X002266Y003059D01*
X002266Y003058D02*
X001994Y003058D01*
X001994Y003057D02*
X002266Y003057D01*
X002266Y003056D02*
X001994Y003056D01*
X001994Y003055D02*
X002266Y003055D01*
X002266Y003054D02*
X001994Y003054D01*
X001994Y003053D02*
X002266Y003053D01*
X002266Y003052D02*
X001994Y003052D01*
X001994Y003051D02*
X002266Y003051D01*
X002266Y003050D02*
X001994Y003050D01*
X001994Y003049D02*
X002266Y003049D01*
X002266Y003048D02*
X001994Y003048D01*
X001994Y003047D02*
X002266Y003047D01*
X002266Y003046D02*
X001994Y003046D01*
X001994Y003045D02*
X002266Y003045D01*
X002266Y003044D02*
X001994Y003044D01*
X001994Y003043D02*
X002266Y003043D01*
X002266Y003042D02*
X001994Y003042D01*
X001994Y003041D02*
X002266Y003041D01*
X002266Y003040D02*
X001994Y003040D01*
X001994Y003039D02*
X002266Y003039D01*
X002266Y003038D02*
X001994Y003038D01*
X001994Y003037D02*
X002266Y003037D01*
X002266Y003036D02*
X001994Y003036D01*
X001994Y003035D02*
X002266Y003035D01*
X002266Y003034D02*
X001994Y003034D01*
X001994Y003033D02*
X002266Y003033D01*
X002266Y003032D02*
X001994Y003032D01*
X001994Y003031D02*
X002266Y003031D01*
X002266Y003030D02*
X001994Y003030D01*
X001994Y003029D02*
X002266Y003029D01*
X002266Y003028D02*
X001994Y003028D01*
X001994Y003027D02*
X002266Y003027D01*
X002266Y003026D02*
X001994Y003026D01*
X001994Y003025D02*
X002266Y003025D01*
X002266Y003024D02*
X001994Y003024D01*
X001994Y003023D02*
X002266Y003023D01*
X002266Y003022D02*
X001994Y003022D01*
X001994Y003021D02*
X002266Y003021D01*
X002266Y003020D02*
X001994Y003020D01*
X001994Y003019D02*
X002266Y003019D01*
X002266Y003018D02*
X001994Y003018D01*
X001994Y003017D02*
X002266Y003017D01*
X002266Y003016D02*
X001994Y003016D01*
X001994Y003015D02*
X002266Y003015D01*
X002266Y003014D02*
X001994Y003014D01*
X001994Y003013D02*
X002266Y003013D01*
X002266Y003012D02*
X001994Y003012D01*
X001994Y003011D02*
X002263Y003011D01*
X002259Y003010D02*
X001994Y003010D01*
X001994Y003009D02*
X002256Y003009D01*
X002252Y003008D02*
X001994Y003008D01*
X001994Y003007D02*
X002249Y003007D01*
X002245Y003006D02*
X001994Y003006D01*
X001994Y003005D02*
X002242Y003005D01*
X002238Y003004D02*
X001994Y003004D01*
X001994Y003003D02*
X002236Y003003D01*
X002234Y003002D02*
X001994Y003002D01*
X001994Y003001D02*
X002231Y003001D01*
X002229Y003000D02*
X001994Y003000D01*
X001994Y002999D02*
X002227Y002999D01*
X002224Y002998D02*
X001994Y002998D01*
X001994Y002997D02*
X002222Y002997D01*
X002220Y002996D02*
X001994Y002996D01*
X001994Y002995D02*
X002217Y002995D01*
X002215Y002994D02*
X001994Y002994D01*
X001994Y002993D02*
X002213Y002993D01*
X002210Y002992D02*
X001994Y002992D01*
X001994Y002991D02*
X002206Y002991D01*
X002202Y002990D02*
X001994Y002990D01*
X001994Y002989D02*
X002198Y002989D01*
X002194Y002988D02*
X001994Y002988D01*
X001994Y002987D02*
X002190Y002987D01*
X002186Y002986D02*
X001994Y002986D01*
X001994Y002985D02*
X002182Y002985D01*
X002179Y002984D02*
X001994Y002984D01*
X001994Y002983D02*
X002176Y002983D01*
X002174Y002982D02*
X001994Y002982D01*
X001994Y002981D02*
X002172Y002981D01*
X002169Y002980D02*
X001994Y002980D01*
X001994Y002979D02*
X002167Y002979D01*
X002165Y002978D02*
X001994Y002978D01*
X001994Y002977D02*
X002162Y002977D01*
X002160Y002976D02*
X001995Y002976D01*
X001997Y002975D02*
X002158Y002975D01*
X002155Y002974D02*
X001999Y002974D01*
X002001Y002973D02*
X002153Y002973D01*
X002151Y002972D02*
X002003Y002972D01*
X002005Y002971D02*
X002148Y002971D01*
X002146Y002970D02*
X002007Y002970D01*
X002009Y002969D02*
X002144Y002969D01*
X002141Y002968D02*
X002011Y002968D01*
X002013Y002967D02*
X002139Y002967D01*
X002137Y002966D02*
X002015Y002966D01*
X002017Y002965D02*
X002134Y002965D01*
X002132Y002964D02*
X002019Y002964D01*
X002022Y002963D02*
X002130Y002963D01*
X002127Y002962D02*
X002024Y002962D01*
X002026Y002961D02*
X002125Y002961D01*
X002122Y002960D02*
X002029Y002960D01*
X002031Y002959D02*
X002118Y002959D01*
X002115Y002958D02*
X002033Y002958D01*
X002036Y002957D02*
X002112Y002957D01*
X002108Y002956D02*
X002038Y002956D01*
X002040Y002955D02*
X002105Y002955D01*
X002101Y002954D02*
X002043Y002954D01*
X002045Y002953D02*
X002098Y002953D01*
X002095Y002952D02*
X002047Y002952D01*
X002049Y002951D02*
X002093Y002951D01*
X002090Y002950D02*
X002051Y002950D01*
X002053Y002949D02*
X002088Y002949D01*
X002086Y002948D02*
X002055Y002948D01*
X002057Y002947D02*
X002083Y002947D01*
X002081Y002946D02*
X002059Y002946D01*
X002061Y002945D02*
X002079Y002945D01*
X002076Y002944D02*
X002063Y002944D01*
X002065Y002943D02*
X002074Y002943D01*
X002072Y002942D02*
X002067Y002942D01*
X002069Y002941D02*
X002069Y002941D01*
X001994Y003297D02*
X002261Y003297D01*
X002258Y003298D02*
X001994Y003298D01*
X001994Y003299D02*
X002254Y003299D01*
X002251Y003300D02*
X001994Y003300D01*
X001994Y003301D02*
X002247Y003301D01*
X002244Y003302D02*
X001994Y003302D01*
X001994Y003303D02*
X002240Y003303D01*
X002237Y003304D02*
X001994Y003304D01*
X001994Y003305D02*
X002235Y003305D01*
X002233Y003306D02*
X001994Y003306D01*
X001994Y003307D02*
X002230Y003307D01*
X002228Y003308D02*
X001994Y003308D01*
X001994Y003309D02*
X002226Y003309D01*
X002223Y003310D02*
X001994Y003310D01*
X001994Y003311D02*
X002221Y003311D01*
X002219Y003312D02*
X001994Y003312D01*
X001994Y003313D02*
X002216Y003313D01*
X002214Y003314D02*
X001994Y003314D01*
X001994Y003315D02*
X002212Y003315D01*
X002209Y003316D02*
X001994Y003316D01*
X001994Y003317D02*
X002206Y003317D01*
X002204Y003318D02*
X001994Y003318D01*
X001994Y003319D02*
X002201Y003319D01*
X002198Y003320D02*
X001994Y003320D01*
X001994Y003321D02*
X002196Y003321D01*
X002193Y003322D02*
X001994Y003322D01*
X001994Y003323D02*
X002190Y003323D01*
X002188Y003324D02*
X001994Y003324D01*
X001994Y003325D02*
X002185Y003325D01*
X002182Y003326D02*
X001994Y003326D01*
X001994Y003327D02*
X002180Y003327D01*
X002176Y003328D02*
X001994Y003328D01*
X001994Y003329D02*
X002173Y003329D01*
X002169Y003330D02*
X001994Y003330D01*
X001994Y003331D02*
X002166Y003331D01*
X002162Y003332D02*
X001994Y003332D01*
X001994Y003333D02*
X002159Y003333D01*
X002155Y003334D02*
X001994Y003334D01*
X001994Y003335D02*
X002152Y003335D01*
X002150Y003336D02*
X001997Y003336D01*
X002000Y003337D02*
X002147Y003337D01*
X002145Y003338D02*
X002003Y003338D01*
X002006Y003339D02*
X002143Y003339D01*
X002140Y003340D02*
X002009Y003340D01*
X002012Y003341D02*
X002138Y003341D01*
X002136Y003342D02*
X002015Y003342D01*
X002018Y003343D02*
X002133Y003343D01*
X002131Y003344D02*
X002020Y003344D01*
X002023Y003345D02*
X002129Y003345D01*
X002126Y003346D02*
X002025Y003346D01*
X002027Y003347D02*
X002124Y003347D01*
X002120Y003348D02*
X002030Y003348D01*
X002032Y003349D02*
X002117Y003349D01*
X002113Y003350D02*
X002034Y003350D01*
X002037Y003351D02*
X002110Y003351D01*
X002106Y003352D02*
X002039Y003352D01*
X002041Y003353D02*
X002103Y003353D01*
X002099Y003354D02*
X002044Y003354D01*
X002046Y003355D02*
X002096Y003355D01*
X002094Y003356D02*
X002048Y003356D01*
X002050Y003357D02*
X002091Y003357D01*
X002089Y003358D02*
X002052Y003358D01*
X002054Y003359D02*
X002087Y003359D01*
X002084Y003360D02*
X002056Y003360D01*
X002058Y003361D02*
X002082Y003361D01*
X002080Y003362D02*
X002060Y003362D01*
X002062Y003363D02*
X002077Y003363D01*
X002075Y003364D02*
X002064Y003364D01*
X002066Y003365D02*
X002073Y003365D01*
X002070Y003366D02*
X002068Y003366D01*
M02*
