G75*
G70*
%OFA0B0*%
%FSLAX24Y24*%
%IPPOS*%
%LPD*%
%AMOC8*
5,1,8,0,0,1.08239X$1,22.5*
%
%ADD10C,0.0080*%
%ADD11C,0.0010*%
%ADD12R,0.0180X0.0300*%
%ADD13C,0.0220*%
D10*
X003211Y000140D02*
X008329Y000140D01*
X008329Y006140D01*
X003211Y006140D01*
X003211Y000140D01*
X010998Y001368D02*
X010998Y002195D01*
X010998Y001368D02*
X015211Y001368D01*
X015211Y004912D01*
X013124Y004912D01*
X011274Y004912D02*
X010998Y004912D01*
X010998Y004085D01*
D11*
X009044Y004070D02*
X009019Y004095D01*
X008969Y004095D01*
X008944Y004070D01*
X008897Y004070D02*
X008897Y004020D01*
X008872Y003995D01*
X008797Y003995D01*
X008797Y003945D02*
X008797Y004095D01*
X008872Y004095D01*
X008897Y004070D01*
X008847Y003995D02*
X008897Y003945D01*
X008944Y003945D02*
X009044Y004045D01*
X009044Y004070D01*
X009044Y003945D02*
X008944Y003945D01*
X009572Y004945D02*
X009622Y004945D01*
X009647Y004970D01*
X009694Y004945D02*
X009794Y004945D01*
X009744Y004945D02*
X009744Y005095D01*
X009694Y005045D01*
X009647Y005070D02*
X009622Y005095D01*
X009572Y005095D01*
X009547Y005070D01*
X009547Y004970D01*
X009572Y004945D01*
X009044Y005945D02*
X008944Y005945D01*
X008897Y005945D02*
X008847Y005995D01*
X008872Y005995D02*
X008797Y005995D01*
X008797Y005945D02*
X008797Y006095D01*
X008872Y006095D01*
X008897Y006070D01*
X008897Y006020D01*
X008872Y005995D01*
X008944Y006045D02*
X008994Y006095D01*
X008994Y005945D01*
X014387Y001892D02*
X014387Y001792D01*
X014387Y001842D02*
X014237Y001842D01*
X014287Y001792D01*
X014237Y001745D02*
X014237Y001695D01*
X014237Y001720D02*
X014362Y001720D01*
X014387Y001695D01*
X014387Y001670D01*
X014362Y001645D01*
D12*
X009142Y003640D03*
X009142Y005640D03*
D13*
X009892Y004652D02*
X009892Y004628D01*
M02*
