G75*
G70*
%OFA0B0*%
%FSLAX24Y24*%
%IPPOS*%
%LPD*%
%AMOC8*
5,1,8,0,0,1.08239X$1,22.5*
%
%ADD10C,0.0820*%
%ADD11R,0.0820X0.0820*%
%ADD12C,0.1340*%
%ADD13C,0.1780*%
%ADD14C,0.0000*%
%ADD15C,0.0001*%
D10*
X006892Y001890D03*
X007892Y001390D03*
X007892Y002390D03*
X006892Y002890D03*
X007892Y003390D03*
X006892Y003890D03*
X007892Y004390D03*
D11*
X006892Y004890D03*
D12*
X004392Y000890D03*
X004392Y005390D03*
D13*
X010998Y003140D03*
X013360Y003140D03*
X012179Y004990D03*
D14*
X004016Y003296D02*
X004016Y003044D01*
X004016Y003012D01*
X003988Y003004D01*
X003961Y002992D01*
X003929Y002984D01*
X003902Y002973D01*
X003874Y002961D01*
X003847Y002953D01*
X003819Y002941D01*
X003796Y002953D01*
X003768Y002965D01*
X003744Y002977D01*
X003744Y003335D01*
X003768Y003343D01*
X003796Y003355D01*
X003819Y003366D01*
X003847Y003355D01*
X003874Y003347D01*
X003902Y003335D01*
X003929Y003327D01*
X003961Y003315D01*
X003988Y003303D01*
X004016Y003296D01*
D15*
X004016Y003295D02*
X003744Y003295D01*
X003744Y003296D02*
X004015Y003296D01*
X004016Y003294D02*
X003744Y003294D01*
X003744Y003293D02*
X004016Y003293D01*
X004016Y003292D02*
X003744Y003292D01*
X003744Y003291D02*
X004016Y003291D01*
X004016Y003290D02*
X003744Y003290D01*
X003744Y003289D02*
X004016Y003289D01*
X004016Y003288D02*
X003744Y003288D01*
X003744Y003287D02*
X004016Y003287D01*
X004016Y003286D02*
X003744Y003286D01*
X003744Y003285D02*
X004016Y003285D01*
X004016Y003284D02*
X003744Y003284D01*
X003744Y003283D02*
X004016Y003283D01*
X004016Y003282D02*
X003744Y003282D01*
X003744Y003281D02*
X004016Y003281D01*
X004016Y003280D02*
X003744Y003280D01*
X003744Y003279D02*
X004016Y003279D01*
X004016Y003278D02*
X003744Y003278D01*
X003744Y003277D02*
X004016Y003277D01*
X004016Y003276D02*
X003744Y003276D01*
X003744Y003275D02*
X004016Y003275D01*
X004016Y003274D02*
X003744Y003274D01*
X003744Y003273D02*
X004016Y003273D01*
X004016Y003272D02*
X003744Y003272D01*
X003744Y003271D02*
X004016Y003271D01*
X004016Y003270D02*
X003744Y003270D01*
X003744Y003269D02*
X004016Y003269D01*
X004016Y003268D02*
X003744Y003268D01*
X003744Y003267D02*
X004016Y003267D01*
X004016Y003266D02*
X003744Y003266D01*
X003744Y003265D02*
X004016Y003265D01*
X004016Y003264D02*
X003744Y003264D01*
X003744Y003263D02*
X004016Y003263D01*
X004016Y003262D02*
X003744Y003262D01*
X003744Y003261D02*
X004016Y003261D01*
X004016Y003260D02*
X003744Y003260D01*
X003744Y003259D02*
X004016Y003259D01*
X004016Y003258D02*
X003744Y003258D01*
X003744Y003257D02*
X004016Y003257D01*
X004016Y003256D02*
X003744Y003256D01*
X003744Y003255D02*
X004016Y003255D01*
X004016Y003254D02*
X003744Y003254D01*
X003744Y003253D02*
X004016Y003253D01*
X004016Y003252D02*
X003744Y003252D01*
X003744Y003251D02*
X004016Y003251D01*
X004016Y003250D02*
X003744Y003250D01*
X003744Y003249D02*
X004016Y003249D01*
X004016Y003248D02*
X003744Y003248D01*
X003744Y003247D02*
X004016Y003247D01*
X004016Y003246D02*
X003744Y003246D01*
X003744Y003245D02*
X004016Y003245D01*
X004016Y003244D02*
X003744Y003244D01*
X003744Y003243D02*
X004016Y003243D01*
X004016Y003242D02*
X003744Y003242D01*
X003744Y003241D02*
X004016Y003241D01*
X004016Y003240D02*
X003744Y003240D01*
X003744Y003239D02*
X004016Y003239D01*
X004016Y003238D02*
X003744Y003238D01*
X003744Y003237D02*
X004016Y003237D01*
X004016Y003236D02*
X003744Y003236D01*
X003744Y003235D02*
X004016Y003235D01*
X004016Y003234D02*
X003744Y003234D01*
X003744Y003233D02*
X004016Y003233D01*
X004016Y003232D02*
X003744Y003232D01*
X003744Y003231D02*
X004016Y003231D01*
X004016Y003230D02*
X003744Y003230D01*
X003744Y003229D02*
X004016Y003229D01*
X004016Y003228D02*
X003744Y003228D01*
X003744Y003227D02*
X004016Y003227D01*
X004016Y003226D02*
X003744Y003226D01*
X003744Y003225D02*
X004016Y003225D01*
X004016Y003224D02*
X003744Y003224D01*
X003744Y003223D02*
X004016Y003223D01*
X004016Y003222D02*
X003744Y003222D01*
X003744Y003221D02*
X004016Y003221D01*
X004016Y003220D02*
X003744Y003220D01*
X003744Y003219D02*
X004016Y003219D01*
X004016Y003218D02*
X003744Y003218D01*
X003744Y003217D02*
X004016Y003217D01*
X004016Y003216D02*
X003744Y003216D01*
X003744Y003215D02*
X004016Y003215D01*
X004016Y003214D02*
X003744Y003214D01*
X003744Y003213D02*
X004016Y003213D01*
X004016Y003212D02*
X003744Y003212D01*
X003744Y003211D02*
X004016Y003211D01*
X004016Y003210D02*
X003744Y003210D01*
X003744Y003209D02*
X004016Y003209D01*
X004016Y003208D02*
X003744Y003208D01*
X003744Y003207D02*
X004016Y003207D01*
X004016Y003206D02*
X003744Y003206D01*
X003744Y003205D02*
X004016Y003205D01*
X004016Y003204D02*
X003744Y003204D01*
X003744Y003203D02*
X004016Y003203D01*
X004016Y003202D02*
X003744Y003202D01*
X003744Y003201D02*
X004016Y003201D01*
X004016Y003200D02*
X003744Y003200D01*
X003744Y003199D02*
X004016Y003199D01*
X004016Y003198D02*
X003744Y003198D01*
X003744Y003197D02*
X004016Y003197D01*
X004016Y003196D02*
X003744Y003196D01*
X003744Y003195D02*
X004016Y003195D01*
X004016Y003194D02*
X003744Y003194D01*
X003744Y003193D02*
X004016Y003193D01*
X004016Y003192D02*
X003744Y003192D01*
X003744Y003191D02*
X004016Y003191D01*
X004016Y003190D02*
X003744Y003190D01*
X003744Y003189D02*
X004016Y003189D01*
X004016Y003188D02*
X003744Y003188D01*
X003744Y003187D02*
X004016Y003187D01*
X004016Y003186D02*
X003744Y003186D01*
X003744Y003185D02*
X004016Y003185D01*
X004016Y003184D02*
X003744Y003184D01*
X003744Y003183D02*
X004016Y003183D01*
X004016Y003182D02*
X003744Y003182D01*
X003744Y003181D02*
X004016Y003181D01*
X004016Y003180D02*
X003744Y003180D01*
X003744Y003179D02*
X004016Y003179D01*
X004016Y003178D02*
X003744Y003178D01*
X003744Y003177D02*
X004016Y003177D01*
X004016Y003176D02*
X003744Y003176D01*
X003744Y003175D02*
X004016Y003175D01*
X004016Y003174D02*
X003744Y003174D01*
X003744Y003173D02*
X004016Y003173D01*
X004016Y003172D02*
X003744Y003172D01*
X003744Y003171D02*
X004016Y003171D01*
X004016Y003170D02*
X003744Y003170D01*
X003744Y003169D02*
X004016Y003169D01*
X004016Y003168D02*
X003744Y003168D01*
X003744Y003167D02*
X004016Y003167D01*
X004016Y003166D02*
X003744Y003166D01*
X003744Y003165D02*
X004016Y003165D01*
X004016Y003164D02*
X003744Y003164D01*
X003744Y003163D02*
X004016Y003163D01*
X004016Y003162D02*
X003744Y003162D01*
X003744Y003161D02*
X004016Y003161D01*
X004016Y003160D02*
X003744Y003160D01*
X003744Y003159D02*
X004016Y003159D01*
X004016Y003158D02*
X003744Y003158D01*
X003744Y003157D02*
X004016Y003157D01*
X004016Y003156D02*
X003744Y003156D01*
X003744Y003155D02*
X004016Y003155D01*
X004016Y003154D02*
X003744Y003154D01*
X003744Y003153D02*
X004016Y003153D01*
X004016Y003152D02*
X003744Y003152D01*
X003744Y003151D02*
X004016Y003151D01*
X004016Y003150D02*
X003744Y003150D01*
X003744Y003149D02*
X004016Y003149D01*
X004016Y003148D02*
X003744Y003148D01*
X003744Y003147D02*
X004016Y003147D01*
X004016Y003146D02*
X003744Y003146D01*
X003744Y003145D02*
X004016Y003145D01*
X004016Y003144D02*
X003744Y003144D01*
X003744Y003143D02*
X004016Y003143D01*
X004016Y003142D02*
X003744Y003142D01*
X003744Y003141D02*
X004016Y003141D01*
X004016Y003140D02*
X003744Y003140D01*
X003744Y003139D02*
X004016Y003139D01*
X004016Y003138D02*
X003744Y003138D01*
X003744Y003137D02*
X004016Y003137D01*
X004016Y003136D02*
X003744Y003136D01*
X003744Y003135D02*
X004016Y003135D01*
X004016Y003134D02*
X003744Y003134D01*
X003744Y003133D02*
X004016Y003133D01*
X004016Y003132D02*
X003744Y003132D01*
X003744Y003131D02*
X004016Y003131D01*
X004016Y003130D02*
X003744Y003130D01*
X003744Y003129D02*
X004016Y003129D01*
X004016Y003128D02*
X003744Y003128D01*
X003744Y003127D02*
X004016Y003127D01*
X004016Y003126D02*
X003744Y003126D01*
X003744Y003125D02*
X004016Y003125D01*
X004016Y003124D02*
X003744Y003124D01*
X003744Y003123D02*
X004016Y003123D01*
X004016Y003122D02*
X003744Y003122D01*
X003744Y003121D02*
X004016Y003121D01*
X004016Y003120D02*
X003744Y003120D01*
X003744Y003119D02*
X004016Y003119D01*
X004016Y003118D02*
X003744Y003118D01*
X003744Y003117D02*
X004016Y003117D01*
X004016Y003116D02*
X003744Y003116D01*
X003744Y003115D02*
X004016Y003115D01*
X004016Y003114D02*
X003744Y003114D01*
X003744Y003113D02*
X004016Y003113D01*
X004016Y003112D02*
X003744Y003112D01*
X003744Y003111D02*
X004016Y003111D01*
X004016Y003110D02*
X003744Y003110D01*
X003744Y003109D02*
X004016Y003109D01*
X004016Y003108D02*
X003744Y003108D01*
X003744Y003107D02*
X004016Y003107D01*
X004016Y003106D02*
X003744Y003106D01*
X003744Y003105D02*
X004016Y003105D01*
X004016Y003104D02*
X003744Y003104D01*
X003744Y003103D02*
X004016Y003103D01*
X004016Y003102D02*
X003744Y003102D01*
X003744Y003101D02*
X004016Y003101D01*
X004016Y003100D02*
X003744Y003100D01*
X003744Y003099D02*
X004016Y003099D01*
X004016Y003098D02*
X003744Y003098D01*
X003744Y003097D02*
X004016Y003097D01*
X004016Y003096D02*
X003744Y003096D01*
X003744Y003095D02*
X004016Y003095D01*
X004016Y003094D02*
X003744Y003094D01*
X003744Y003093D02*
X004016Y003093D01*
X004016Y003092D02*
X003744Y003092D01*
X003744Y003091D02*
X004016Y003091D01*
X004016Y003090D02*
X003744Y003090D01*
X003744Y003089D02*
X004016Y003089D01*
X004016Y003088D02*
X003744Y003088D01*
X003744Y003087D02*
X004016Y003087D01*
X004016Y003086D02*
X003744Y003086D01*
X003744Y003085D02*
X004016Y003085D01*
X004016Y003084D02*
X003744Y003084D01*
X003744Y003083D02*
X004016Y003083D01*
X004016Y003082D02*
X003744Y003082D01*
X003744Y003081D02*
X004016Y003081D01*
X004016Y003080D02*
X003744Y003080D01*
X003744Y003079D02*
X004016Y003079D01*
X004016Y003078D02*
X003744Y003078D01*
X003744Y003077D02*
X004016Y003077D01*
X004016Y003076D02*
X003744Y003076D01*
X003744Y003075D02*
X004016Y003075D01*
X004016Y003074D02*
X003744Y003074D01*
X003744Y003073D02*
X004016Y003073D01*
X004016Y003072D02*
X003744Y003072D01*
X003744Y003071D02*
X004016Y003071D01*
X004016Y003070D02*
X003744Y003070D01*
X003744Y003069D02*
X004016Y003069D01*
X004016Y003068D02*
X003744Y003068D01*
X003744Y003067D02*
X004016Y003067D01*
X004016Y003066D02*
X003744Y003066D01*
X003744Y003065D02*
X004016Y003065D01*
X004016Y003064D02*
X003744Y003064D01*
X003744Y003063D02*
X004016Y003063D01*
X004016Y003062D02*
X003744Y003062D01*
X003744Y003061D02*
X004016Y003061D01*
X004016Y003060D02*
X003744Y003060D01*
X003744Y003059D02*
X004016Y003059D01*
X004016Y003058D02*
X003744Y003058D01*
X003744Y003057D02*
X004016Y003057D01*
X004016Y003056D02*
X003744Y003056D01*
X003744Y003055D02*
X004016Y003055D01*
X004016Y003054D02*
X003744Y003054D01*
X003744Y003053D02*
X004016Y003053D01*
X004016Y003052D02*
X003744Y003052D01*
X003744Y003051D02*
X004016Y003051D01*
X004016Y003050D02*
X003744Y003050D01*
X003744Y003049D02*
X004016Y003049D01*
X004016Y003048D02*
X003744Y003048D01*
X003744Y003047D02*
X004016Y003047D01*
X004016Y003046D02*
X003744Y003046D01*
X003744Y003045D02*
X004016Y003045D01*
X004016Y003044D02*
X003744Y003044D01*
X003744Y003043D02*
X004016Y003043D01*
X004016Y003042D02*
X003744Y003042D01*
X003744Y003041D02*
X004016Y003041D01*
X004016Y003040D02*
X003744Y003040D01*
X003744Y003039D02*
X004016Y003039D01*
X004016Y003038D02*
X003744Y003038D01*
X003744Y003037D02*
X004016Y003037D01*
X004016Y003036D02*
X003744Y003036D01*
X003744Y003035D02*
X004016Y003035D01*
X004016Y003034D02*
X003744Y003034D01*
X003744Y003033D02*
X004016Y003033D01*
X004016Y003032D02*
X003744Y003032D01*
X003744Y003031D02*
X004016Y003031D01*
X004016Y003030D02*
X003744Y003030D01*
X003744Y003029D02*
X004016Y003029D01*
X004016Y003028D02*
X003744Y003028D01*
X003744Y003027D02*
X004016Y003027D01*
X004016Y003026D02*
X003744Y003026D01*
X003744Y003025D02*
X004016Y003025D01*
X004016Y003024D02*
X003744Y003024D01*
X003744Y003023D02*
X004016Y003023D01*
X004016Y003022D02*
X003744Y003022D01*
X003744Y003021D02*
X004016Y003021D01*
X004016Y003020D02*
X003744Y003020D01*
X003744Y003019D02*
X004016Y003019D01*
X004016Y003018D02*
X003744Y003018D01*
X003744Y003017D02*
X004016Y003017D01*
X004016Y003016D02*
X003744Y003016D01*
X003744Y003015D02*
X004016Y003015D01*
X004016Y003014D02*
X003744Y003014D01*
X003744Y003013D02*
X004016Y003013D01*
X004016Y003012D02*
X003744Y003012D01*
X003744Y003011D02*
X004013Y003011D01*
X004009Y003010D02*
X003744Y003010D01*
X003744Y003009D02*
X004006Y003009D01*
X004002Y003008D02*
X003744Y003008D01*
X003744Y003007D02*
X003999Y003007D01*
X003995Y003006D02*
X003744Y003006D01*
X003744Y003005D02*
X003992Y003005D01*
X003988Y003004D02*
X003744Y003004D01*
X003744Y003003D02*
X003986Y003003D01*
X003984Y003002D02*
X003744Y003002D01*
X003744Y003001D02*
X003981Y003001D01*
X003979Y003000D02*
X003744Y003000D01*
X003744Y002999D02*
X003977Y002999D01*
X003974Y002998D02*
X003744Y002998D01*
X003744Y002997D02*
X003972Y002997D01*
X003970Y002996D02*
X003744Y002996D01*
X003744Y002995D02*
X003967Y002995D01*
X003965Y002994D02*
X003744Y002994D01*
X003744Y002993D02*
X003963Y002993D01*
X003960Y002992D02*
X003744Y002992D01*
X003744Y002991D02*
X003956Y002991D01*
X003952Y002990D02*
X003744Y002990D01*
X003744Y002989D02*
X003948Y002989D01*
X003944Y002988D02*
X003744Y002988D01*
X003744Y002987D02*
X003940Y002987D01*
X003936Y002986D02*
X003744Y002986D01*
X003744Y002985D02*
X003932Y002985D01*
X003929Y002984D02*
X003744Y002984D01*
X003744Y002983D02*
X003926Y002983D01*
X003924Y002982D02*
X003744Y002982D01*
X003744Y002981D02*
X003922Y002981D01*
X003919Y002980D02*
X003744Y002980D01*
X003744Y002979D02*
X003917Y002979D01*
X003915Y002978D02*
X003744Y002978D01*
X003744Y002977D02*
X003912Y002977D01*
X003910Y002976D02*
X003745Y002976D01*
X003747Y002975D02*
X003908Y002975D01*
X003905Y002974D02*
X003749Y002974D01*
X003751Y002973D02*
X003903Y002973D01*
X003901Y002972D02*
X003753Y002972D01*
X003755Y002971D02*
X003898Y002971D01*
X003896Y002970D02*
X003757Y002970D01*
X003759Y002969D02*
X003894Y002969D01*
X003891Y002968D02*
X003761Y002968D01*
X003763Y002967D02*
X003889Y002967D01*
X003887Y002966D02*
X003765Y002966D01*
X003767Y002965D02*
X003884Y002965D01*
X003882Y002964D02*
X003769Y002964D01*
X003772Y002963D02*
X003880Y002963D01*
X003877Y002962D02*
X003774Y002962D01*
X003776Y002961D02*
X003875Y002961D01*
X003872Y002960D02*
X003779Y002960D01*
X003781Y002959D02*
X003868Y002959D01*
X003865Y002958D02*
X003783Y002958D01*
X003786Y002957D02*
X003862Y002957D01*
X003858Y002956D02*
X003788Y002956D01*
X003790Y002955D02*
X003855Y002955D01*
X003851Y002954D02*
X003793Y002954D01*
X003795Y002953D02*
X003848Y002953D01*
X003845Y002952D02*
X003797Y002952D01*
X003799Y002951D02*
X003843Y002951D01*
X003840Y002950D02*
X003801Y002950D01*
X003803Y002949D02*
X003838Y002949D01*
X003836Y002948D02*
X003805Y002948D01*
X003807Y002947D02*
X003833Y002947D01*
X003831Y002946D02*
X003809Y002946D01*
X003811Y002945D02*
X003829Y002945D01*
X003826Y002944D02*
X003813Y002944D01*
X003815Y002943D02*
X003824Y002943D01*
X003822Y002942D02*
X003817Y002942D01*
X003819Y002941D02*
X003819Y002941D01*
X003744Y003297D02*
X004011Y003297D01*
X004008Y003298D02*
X003744Y003298D01*
X003744Y003299D02*
X004004Y003299D01*
X004001Y003300D02*
X003744Y003300D01*
X003744Y003301D02*
X003997Y003301D01*
X003994Y003302D02*
X003744Y003302D01*
X003744Y003303D02*
X003990Y003303D01*
X003987Y003304D02*
X003744Y003304D01*
X003744Y003305D02*
X003985Y003305D01*
X003983Y003306D02*
X003744Y003306D01*
X003744Y003307D02*
X003980Y003307D01*
X003978Y003308D02*
X003744Y003308D01*
X003744Y003309D02*
X003976Y003309D01*
X003973Y003310D02*
X003744Y003310D01*
X003744Y003311D02*
X003971Y003311D01*
X003969Y003312D02*
X003744Y003312D01*
X003744Y003313D02*
X003966Y003313D01*
X003964Y003314D02*
X003744Y003314D01*
X003744Y003315D02*
X003962Y003315D01*
X003959Y003316D02*
X003744Y003316D01*
X003744Y003317D02*
X003956Y003317D01*
X003954Y003318D02*
X003744Y003318D01*
X003744Y003319D02*
X003951Y003319D01*
X003948Y003320D02*
X003744Y003320D01*
X003744Y003321D02*
X003946Y003321D01*
X003943Y003322D02*
X003744Y003322D01*
X003744Y003323D02*
X003940Y003323D01*
X003938Y003324D02*
X003744Y003324D01*
X003744Y003325D02*
X003935Y003325D01*
X003932Y003326D02*
X003744Y003326D01*
X003744Y003327D02*
X003930Y003327D01*
X003926Y003328D02*
X003744Y003328D01*
X003744Y003329D02*
X003923Y003329D01*
X003919Y003330D02*
X003744Y003330D01*
X003744Y003331D02*
X003916Y003331D01*
X003912Y003332D02*
X003744Y003332D01*
X003744Y003333D02*
X003909Y003333D01*
X003905Y003334D02*
X003744Y003334D01*
X003744Y003335D02*
X003902Y003335D01*
X003900Y003336D02*
X003747Y003336D01*
X003750Y003337D02*
X003897Y003337D01*
X003895Y003338D02*
X003753Y003338D01*
X003756Y003339D02*
X003893Y003339D01*
X003890Y003340D02*
X003759Y003340D01*
X003762Y003341D02*
X003888Y003341D01*
X003886Y003342D02*
X003765Y003342D01*
X003768Y003343D02*
X003883Y003343D01*
X003881Y003344D02*
X003770Y003344D01*
X003773Y003345D02*
X003879Y003345D01*
X003876Y003346D02*
X003775Y003346D01*
X003777Y003347D02*
X003874Y003347D01*
X003870Y003348D02*
X003780Y003348D01*
X003782Y003349D02*
X003867Y003349D01*
X003863Y003350D02*
X003784Y003350D01*
X003787Y003351D02*
X003860Y003351D01*
X003856Y003352D02*
X003789Y003352D01*
X003791Y003353D02*
X003853Y003353D01*
X003849Y003354D02*
X003794Y003354D01*
X003796Y003355D02*
X003846Y003355D01*
X003844Y003356D02*
X003798Y003356D01*
X003800Y003357D02*
X003841Y003357D01*
X003839Y003358D02*
X003802Y003358D01*
X003804Y003359D02*
X003837Y003359D01*
X003834Y003360D02*
X003806Y003360D01*
X003808Y003361D02*
X003832Y003361D01*
X003830Y003362D02*
X003810Y003362D01*
X003812Y003363D02*
X003827Y003363D01*
X003825Y003364D02*
X003814Y003364D01*
X003816Y003365D02*
X003823Y003365D01*
X003820Y003366D02*
X003818Y003366D01*
M02*
