G75*
G70*
%OFA0B0*%
%FSLAX24Y24*%
%IPPOS*%
%LPD*%
%AMOC8*
5,1,8,0,0,1.08239X$1,22.5*
%
%ADD10C,0.0060*%
D10*
X009047Y002703D02*
X009240Y002800D01*
X009240Y002606D02*
X009047Y002703D01*
X009047Y002928D02*
X009047Y003122D01*
X009047Y003025D02*
X009337Y003025D01*
X009240Y002928D01*
X009572Y002950D02*
X009572Y003047D01*
X009669Y003095D02*
X009669Y002901D01*
X009717Y002901D02*
X009765Y002950D01*
X009765Y003047D01*
X009717Y003095D01*
X009669Y003095D01*
X009669Y003224D02*
X009765Y003320D01*
X009765Y003369D01*
X009765Y003224D02*
X009572Y003224D01*
X009337Y003460D02*
X009289Y003412D01*
X009095Y003412D01*
X009289Y003605D01*
X009095Y003605D01*
X009047Y003557D01*
X009047Y003460D01*
X009095Y003412D01*
X009095Y003299D02*
X009047Y003299D01*
X009047Y003251D01*
X009095Y003251D01*
X009095Y003299D01*
X009337Y003460D02*
X009337Y003557D01*
X009289Y003605D01*
X009572Y003815D02*
X009572Y003911D01*
X009572Y003863D02*
X009862Y003863D01*
X009862Y003815D02*
X009862Y003911D01*
X009765Y004029D02*
X009572Y004029D01*
X009765Y004029D02*
X009765Y004175D01*
X009717Y004223D01*
X009572Y004223D01*
X009475Y004352D02*
X009475Y004400D01*
X009524Y004448D01*
X009765Y004448D01*
X009862Y004448D02*
X009911Y004448D01*
X009765Y004615D02*
X009717Y004567D01*
X009620Y004567D01*
X009572Y004615D01*
X009572Y004712D01*
X009669Y004760D02*
X009669Y004567D01*
X009765Y004615D02*
X009765Y004712D01*
X009717Y004760D01*
X009669Y004760D01*
X009717Y004889D02*
X009620Y004889D01*
X009572Y004937D01*
X009572Y005082D01*
X009765Y005082D02*
X009765Y004937D01*
X009717Y004889D01*
X009765Y005211D02*
X009765Y005308D01*
X009814Y005259D02*
X009620Y005259D01*
X009572Y005308D01*
X009620Y005426D02*
X009572Y005474D01*
X009572Y005571D01*
X009620Y005619D01*
X009717Y005619D01*
X009765Y005571D01*
X009765Y005474D01*
X009717Y005426D01*
X009620Y005426D01*
X009572Y005748D02*
X009765Y005748D01*
X009669Y005748D02*
X009765Y005845D01*
X009765Y005893D01*
X009572Y002950D02*
X009620Y002901D01*
X009717Y002901D01*
X009765Y002773D02*
X009620Y002773D01*
X009572Y002724D01*
X009620Y002676D01*
X009572Y002628D01*
X009620Y002579D01*
X009765Y002579D01*
X009717Y002450D02*
X009620Y002450D01*
X009572Y002402D01*
X009572Y002305D01*
X009620Y002257D01*
X009717Y002257D01*
X009765Y002305D01*
X009765Y002402D01*
X009717Y002450D01*
X009717Y002128D02*
X009669Y002080D01*
X009669Y001935D01*
X009572Y001935D02*
X009862Y001935D01*
X009862Y002080D01*
X009814Y002128D01*
X009717Y002128D01*
X009572Y001484D02*
X009862Y001484D01*
X009862Y001290D02*
X009572Y001484D01*
X009572Y001290D02*
X009862Y001290D01*
X009765Y001161D02*
X009572Y001161D01*
X009717Y001161D02*
X009717Y000968D01*
X009765Y000968D02*
X009862Y001065D01*
X009765Y001161D01*
X009765Y000968D02*
X009572Y000968D01*
X009620Y000839D02*
X009572Y000791D01*
X009572Y000694D01*
X009620Y000646D01*
X009814Y000646D01*
X009862Y000694D01*
X009862Y000791D01*
X009814Y000839D01*
X009765Y000517D02*
X009572Y000517D01*
X009572Y000372D01*
X009620Y000323D01*
X009765Y000323D01*
M02*
