%
M48
M72
T01C0.0118
T02C0.0320
T03C0.0394
%
T01
X16500Y3880
X17000Y5880
X16500Y7380
X23000Y6380
X23000Y5380
X25000Y5130
X28250Y5880
X30750Y6880
X31000Y7880
X31250Y8380
X31500Y8880
X27000Y13380
X27000Y14130
X26750Y14380
X27250Y14380
X27500Y14130
X27500Y14630
X27250Y14880
X27500Y15130
X27250Y15380
X27500Y15630
X27250Y15880
X27500Y16130
X27250Y16380
X27500Y16630
X27250Y16880
X27500Y17130
X27250Y17380
X27500Y17630
X27250Y17880
X27500Y18130
X27250Y18380
X27500Y18630
X27250Y18880
X27000Y19130
X26750Y18880
X26500Y19130
X26250Y18880
X26000Y19130
X25750Y18880
X25500Y19130
X25250Y18880
X25000Y19130
X24750Y18880
X24500Y19130
X24250Y18880
X24000Y19130
X23750Y18880
X23500Y19130
X23250Y18880
X23000Y19130
X22750Y18880
X22500Y18630
X22750Y18380
X22500Y18130
X22750Y17880
X22500Y17630
X22750Y17380
X22500Y17130
X22750Y16880
X22500Y16630
X22750Y16380
X22500Y16130
X22750Y15880
X20000Y16880
X22500Y19130
X27500Y19130
X25750Y14130
X23250Y8380
T02
X14750Y7130
X13750Y7130
X13750Y4130
X14750Y4130
T03
X8000Y880
X9000Y880
X10000Y880
X11000Y880
X12000Y880
X13000Y880
X14000Y880
X15000Y880
X16000Y880
X17000Y880
X18000Y880
X19000Y880
X20000Y880
X21000Y880
X22000Y880
X23000Y880
X24000Y880
X25000Y880
X26000Y880
X27000Y880
X28000Y880
X29000Y880
X30000Y880
X30000Y1880
X29000Y1880
X28000Y1880
X27000Y1880
X26000Y1880
X25000Y1880
X24000Y1880
X23000Y1880
X22000Y1880
X21000Y1880
X20000Y1880
X19000Y1880
X18000Y1880
X17000Y1880
X16000Y1880
X15000Y1880
X14000Y1880
X13000Y1880
X12000Y1880
X11000Y1880
X10000Y1880
X9000Y1880
X8000Y1880
X28690Y6880
X29690Y6380
X29690Y7380
X28690Y7880
X29690Y8380
X28690Y8880
X29690Y9380
X28690Y9880
X29690Y12380
X28690Y12880
X29690Y13380
X28690Y13880
X29690Y14380
X28690Y14880
X29690Y15380
X28690Y15880
X29000Y19880
X28000Y19880
X27000Y19880
X26000Y19880
X25000Y19880
X24000Y19880
X23000Y19880
X22000Y19880
X21000Y19880
X20000Y19880
X19000Y19880
X18000Y19880
X17000Y19880
X16000Y19880
X15000Y19880
X14000Y19880
X13000Y19880
X12000Y19880
X11000Y19880
X10000Y19880
X9000Y19880
X8000Y19880
X8000Y20880
X9000Y20880
X10000Y20880
X11000Y20880
X12000Y20880
X13000Y20880
X14000Y20880
X15000Y20880
X16000Y20880
X17000Y20880
X18000Y20880
X19000Y20880
X20000Y20880
X21000Y20880
X22000Y20880
X23000Y20880
X24000Y20880
X25000Y20880
X26000Y20880
X27000Y20880
X28000Y20880
X29000Y20880
X30000Y20880
X30000Y19880
M30
