G75*
G70*
%OFA0B0*%
%FSLAX24Y24*%
%IPPOS*%
%LPD*%
%AMOC8*
5,1,8,0,0,1.08239X$1,22.5*
%
%ADD10R,0.0240X0.0870*%
%ADD11R,0.0870X0.0240*%
%ADD12R,0.0433X0.0394*%
%ADD13R,0.0394X0.0453*%
%ADD14R,0.0551X0.0394*%
%ADD15R,0.4252X0.4098*%
%ADD16R,0.0420X0.0850*%
%ADD17R,0.2165X0.1575*%
%ADD18R,0.0787X0.0787*%
%ADD19R,0.0630X0.0709*%
%ADD20R,0.0256X0.0866*%
%ADD21R,0.0394X0.0433*%
D10*
X016750Y004600D03*
X017250Y004600D03*
X017750Y004600D03*
X018250Y004600D03*
X018250Y006660D03*
X017750Y006660D03*
X017250Y006660D03*
X016750Y006660D03*
D11*
X023720Y006630D03*
X023720Y006130D03*
X023720Y005630D03*
X023720Y005130D03*
X025780Y005130D03*
X025780Y005630D03*
X025780Y006130D03*
X025780Y006630D03*
D12*
X022835Y007380D03*
X022165Y007380D03*
X022165Y008380D03*
X022835Y008380D03*
X022835Y009380D03*
X022165Y009380D03*
D13*
X023766Y009492D03*
X024750Y009492D03*
X025734Y009492D03*
X025734Y007268D03*
X024750Y007268D03*
X023766Y007268D03*
D14*
X026817Y006254D03*
X027683Y005880D03*
X026817Y005506D03*
D15*
X025000Y016630D03*
D16*
X025000Y013350D03*
X024330Y013350D03*
X023660Y013350D03*
X025670Y013350D03*
X026340Y013350D03*
D17*
X020000Y014707D03*
X020000Y018053D03*
D18*
X016500Y015917D03*
X016500Y014343D03*
D19*
X024449Y012130D03*
X025551Y012130D03*
D20*
X016079Y017171D03*
X016079Y018628D03*
D21*
X016500Y002795D03*
X017500Y002795D03*
X017500Y003465D03*
X016500Y003465D03*
M02*
