G75*
G70*
%OFA0B0*%
%FSLAX24Y24*%
%IPPOS*%
%LPD*%
%AMOC8*
5,1,8,0,0,1.08239X$1,22.5*
%
%ADD10R,0.0634X0.0634*%
%ADD11C,0.0634*%
%ADD12R,0.0280X0.0910*%
%ADD13R,0.0290X0.0540*%
%ADD14C,0.0560*%
%ADD15R,0.0910X0.0280*%
%ADD16C,0.0780*%
%ADD17R,0.0780X0.0780*%
%ADD18C,0.1300*%
%ADD19R,0.0473X0.0434*%
%ADD20R,0.0434X0.0493*%
%ADD21C,0.0375*%
%ADD22R,0.0591X0.0434*%
%ADD23R,0.0434X0.0473*%
%ADD24C,0.0000*%
%ADD25C,0.0001*%
%ADD26R,0.0670X0.0250*%
%ADD27R,0.0990X0.1260*%
%ADD28R,0.0750X0.0480*%
%ADD29R,0.0610X0.0480*%
%ADD30R,0.0480X0.0610*%
%ADD31R,0.0350X0.1320*%
%ADD32R,0.0680X0.0900*%
%ADD33R,0.0910X0.3190*%
D10*
X008000Y000880D03*
X008000Y019880D03*
D11*
X009000Y019880D03*
X010000Y019880D03*
X011000Y019880D03*
X012000Y019880D03*
X013000Y019880D03*
X014000Y019880D03*
X015000Y019880D03*
X016000Y019880D03*
X017000Y019880D03*
X018000Y019880D03*
X019000Y019880D03*
X020000Y019880D03*
X021000Y019880D03*
X022000Y019880D03*
X023000Y019880D03*
X024000Y019880D03*
X025000Y019880D03*
X026000Y019880D03*
X027000Y019880D03*
X028000Y019880D03*
X029000Y019880D03*
X030000Y019880D03*
X030000Y020880D03*
X029000Y020880D03*
X028000Y020880D03*
X027000Y020880D03*
X026000Y020880D03*
X025000Y020880D03*
X024000Y020880D03*
X023000Y020880D03*
X022000Y020880D03*
X021000Y020880D03*
X020000Y020880D03*
X019000Y020880D03*
X018000Y020880D03*
X017000Y020880D03*
X016000Y020880D03*
X015000Y020880D03*
X014000Y020880D03*
X013000Y020880D03*
X012000Y020880D03*
X011000Y020880D03*
X010000Y020880D03*
X009000Y020880D03*
X008000Y020880D03*
X008000Y001880D03*
X009000Y001880D03*
X010000Y001880D03*
X011000Y001880D03*
X012000Y001880D03*
X013000Y001880D03*
X014000Y001880D03*
X015000Y001880D03*
X016000Y001880D03*
X017000Y001880D03*
X018000Y001880D03*
X019000Y001880D03*
X020000Y001880D03*
X021000Y001880D03*
X022000Y001880D03*
X023000Y001880D03*
X024000Y001880D03*
X025000Y001880D03*
X026000Y001880D03*
X027000Y001880D03*
X028000Y001880D03*
X029000Y001880D03*
X030000Y001880D03*
X030000Y000880D03*
X029000Y000880D03*
X028000Y000880D03*
X027000Y000880D03*
X026000Y000880D03*
X025000Y000880D03*
X024000Y000880D03*
X023000Y000880D03*
X022000Y000880D03*
X021000Y000880D03*
X020000Y000880D03*
X019000Y000880D03*
X018000Y000880D03*
X017000Y000880D03*
X016000Y000880D03*
X015000Y000880D03*
X014000Y000880D03*
X013000Y000880D03*
X012000Y000880D03*
X011000Y000880D03*
X010000Y000880D03*
X009000Y000880D03*
D12*
X016750Y004600D03*
X017250Y004600D03*
X017750Y004600D03*
X018250Y004600D03*
X018250Y006660D03*
X017750Y006660D03*
X017250Y006660D03*
X016750Y006660D03*
D13*
X018823Y005630D03*
X019177Y005630D03*
D14*
X014750Y004390D02*
X014750Y003870D01*
X013750Y003870D02*
X013750Y004390D01*
X013750Y006870D02*
X013750Y007390D01*
X014750Y007390D02*
X014750Y006870D01*
D15*
X023720Y006630D03*
X023720Y006130D03*
X023720Y005630D03*
X023720Y005130D03*
X025780Y005130D03*
X025780Y005630D03*
X025780Y006130D03*
X025780Y006630D03*
D16*
X028690Y006880D03*
X029690Y007380D03*
X028690Y007880D03*
X029690Y008380D03*
X028690Y008880D03*
X029690Y009380D03*
X028690Y009880D03*
X028690Y012880D03*
X029690Y013380D03*
X028690Y013880D03*
X029690Y014380D03*
X028690Y014880D03*
X029690Y015380D03*
X028690Y015880D03*
D17*
X029690Y012380D03*
X029690Y006380D03*
D18*
X032190Y005880D03*
X032190Y010380D03*
X032190Y011880D03*
X032190Y016380D03*
D19*
X022835Y009380D03*
X022165Y009380D03*
X022165Y008380D03*
X022835Y008380D03*
X022835Y007380D03*
X022165Y007380D03*
D20*
X023766Y007268D03*
X024750Y007268D03*
X025734Y007268D03*
X025734Y009492D03*
X024750Y009492D03*
X023766Y009492D03*
D21*
X024159Y008380D03*
X025341Y008380D03*
D22*
X026817Y006254D03*
X027683Y005880D03*
X026817Y005506D03*
D23*
X017500Y003465D03*
X016500Y003465D03*
X016500Y002795D03*
X017500Y002795D03*
D24*
X012545Y015526D02*
X012002Y015526D01*
X011982Y015565D01*
X011967Y015600D01*
X011951Y015640D01*
X011967Y015679D01*
X011982Y015723D01*
X011998Y015766D01*
X012014Y015809D01*
X012030Y015852D01*
X012045Y015896D01*
X012061Y015935D01*
X012108Y015935D01*
X012486Y015935D01*
X012502Y015896D01*
X012518Y015852D01*
X012533Y015809D01*
X012549Y015766D01*
X012565Y015723D01*
X012581Y015679D01*
X012596Y015640D01*
X012577Y015600D01*
X012561Y015565D01*
X012545Y015526D01*
D25*
X012002Y015526D01*
X012001Y015527D02*
X012546Y015527D01*
X012546Y015528D02*
X012001Y015528D01*
X012000Y015529D02*
X012547Y015529D01*
X012547Y015530D02*
X012000Y015530D01*
X011999Y015531D02*
X012547Y015531D01*
X012548Y015532D02*
X011999Y015532D01*
X011998Y015533D02*
X012548Y015533D01*
X012549Y015534D02*
X011998Y015534D01*
X011997Y015535D02*
X012549Y015535D01*
X012549Y015536D02*
X011997Y015536D01*
X011996Y015537D02*
X012550Y015537D01*
X012550Y015538D02*
X011996Y015538D01*
X011995Y015539D02*
X012551Y015539D01*
X012551Y015540D02*
X011995Y015540D01*
X011994Y015541D02*
X012551Y015541D01*
X012552Y015542D02*
X011994Y015542D01*
X011993Y015543D02*
X012552Y015543D01*
X012553Y015544D02*
X011993Y015544D01*
X011992Y015545D02*
X012553Y015545D01*
X012553Y015546D02*
X011992Y015546D01*
X011991Y015547D02*
X012554Y015547D01*
X012554Y015548D02*
X011991Y015548D01*
X011990Y015549D02*
X012555Y015549D01*
X012555Y015550D02*
X011990Y015550D01*
X011989Y015551D02*
X012555Y015551D01*
X012556Y015552D02*
X011989Y015552D01*
X011988Y015553D02*
X012556Y015553D01*
X012557Y015554D02*
X011988Y015554D01*
X011987Y015555D02*
X012557Y015555D01*
X012557Y015556D02*
X011987Y015556D01*
X011986Y015557D02*
X012558Y015557D01*
X012558Y015558D02*
X011986Y015558D01*
X011985Y015559D02*
X012559Y015559D01*
X012559Y015560D02*
X011985Y015560D01*
X011984Y015561D02*
X012559Y015561D01*
X012560Y015562D02*
X011984Y015562D01*
X011983Y015563D02*
X012560Y015563D01*
X012561Y015564D02*
X011983Y015564D01*
X011982Y015565D02*
X012561Y015565D01*
X012561Y015566D02*
X011982Y015566D01*
X011982Y015567D02*
X012562Y015567D01*
X012562Y015568D02*
X011981Y015568D01*
X011981Y015569D02*
X012563Y015569D01*
X012563Y015570D02*
X011980Y015570D01*
X011980Y015571D02*
X012564Y015571D01*
X012564Y015572D02*
X011979Y015572D01*
X011979Y015573D02*
X012564Y015573D01*
X012565Y015574D02*
X011978Y015574D01*
X011978Y015575D02*
X012565Y015575D01*
X012566Y015576D02*
X011978Y015576D01*
X011977Y015577D02*
X012566Y015577D01*
X012567Y015578D02*
X011977Y015578D01*
X011976Y015579D02*
X012567Y015579D01*
X012568Y015580D02*
X011976Y015580D01*
X011975Y015581D02*
X012568Y015581D01*
X012568Y015582D02*
X011975Y015582D01*
X011974Y015583D02*
X012569Y015583D01*
X012569Y015584D02*
X011974Y015584D01*
X011974Y015585D02*
X012570Y015585D01*
X012570Y015586D02*
X011973Y015586D01*
X011973Y015587D02*
X012571Y015587D01*
X012571Y015588D02*
X011972Y015588D01*
X011972Y015589D02*
X012572Y015589D01*
X012572Y015590D02*
X011971Y015590D01*
X011971Y015591D02*
X012572Y015591D01*
X012573Y015592D02*
X011970Y015592D01*
X011970Y015593D02*
X012573Y015593D01*
X012574Y015594D02*
X011970Y015594D01*
X011969Y015595D02*
X012574Y015595D01*
X012575Y015596D02*
X011969Y015596D01*
X011968Y015597D02*
X012575Y015597D01*
X012576Y015598D02*
X011968Y015598D01*
X011967Y015599D02*
X012576Y015599D01*
X012576Y015600D02*
X011967Y015600D01*
X011966Y015601D02*
X012577Y015601D01*
X012577Y015602D02*
X011966Y015602D01*
X011966Y015603D02*
X012578Y015603D01*
X012578Y015604D02*
X011965Y015604D01*
X011965Y015605D02*
X012579Y015605D01*
X012579Y015606D02*
X011964Y015606D01*
X011964Y015607D02*
X012580Y015607D01*
X012580Y015608D02*
X011964Y015608D01*
X011963Y015609D02*
X012581Y015609D01*
X012581Y015610D02*
X011963Y015610D01*
X011962Y015611D02*
X012582Y015611D01*
X012582Y015612D02*
X011962Y015612D01*
X011962Y015613D02*
X012583Y015613D01*
X012583Y015614D02*
X011961Y015614D01*
X011961Y015615D02*
X012584Y015615D01*
X012584Y015616D02*
X011960Y015616D01*
X011960Y015617D02*
X012585Y015617D01*
X012585Y015618D02*
X011960Y015618D01*
X011959Y015619D02*
X012586Y015619D01*
X012586Y015620D02*
X011959Y015620D01*
X011958Y015621D02*
X012587Y015621D01*
X012587Y015622D02*
X011958Y015622D01*
X011958Y015623D02*
X012588Y015623D01*
X012588Y015624D02*
X011957Y015624D01*
X011957Y015625D02*
X012589Y015625D01*
X012589Y015626D02*
X011956Y015626D01*
X011956Y015627D02*
X012590Y015627D01*
X012590Y015628D02*
X011956Y015628D01*
X011955Y015629D02*
X012591Y015629D01*
X012591Y015630D02*
X011955Y015630D01*
X011954Y015631D02*
X012592Y015631D01*
X012592Y015632D02*
X011954Y015632D01*
X011954Y015633D02*
X012593Y015633D01*
X012593Y015634D02*
X011953Y015634D01*
X011953Y015635D02*
X012594Y015635D01*
X012594Y015636D02*
X011952Y015636D01*
X011952Y015637D02*
X012595Y015637D01*
X012595Y015638D02*
X011952Y015638D01*
X011951Y015639D02*
X012596Y015639D01*
X012596Y015640D02*
X011951Y015640D01*
X011951Y015641D02*
X012596Y015641D01*
X012596Y015642D02*
X011952Y015642D01*
X011952Y015643D02*
X012595Y015643D01*
X012595Y015644D02*
X011952Y015644D01*
X011953Y015645D02*
X012595Y015645D01*
X012594Y015646D02*
X011953Y015646D01*
X011954Y015647D02*
X012594Y015647D01*
X012593Y015648D02*
X011954Y015648D01*
X011954Y015649D02*
X012593Y015649D01*
X012593Y015650D02*
X011955Y015650D01*
X011955Y015651D02*
X012592Y015651D01*
X012592Y015652D02*
X011956Y015652D01*
X011956Y015653D02*
X012591Y015653D01*
X012591Y015654D02*
X011956Y015654D01*
X011957Y015655D02*
X012591Y015655D01*
X012590Y015656D02*
X011957Y015656D01*
X011958Y015657D02*
X012590Y015657D01*
X012589Y015658D02*
X011958Y015658D01*
X011958Y015659D02*
X012589Y015659D01*
X012589Y015660D02*
X011959Y015660D01*
X011959Y015661D02*
X012588Y015661D01*
X012588Y015662D02*
X011960Y015662D01*
X011960Y015663D02*
X012587Y015663D01*
X012587Y015664D02*
X011960Y015664D01*
X011961Y015665D02*
X012587Y015665D01*
X012586Y015666D02*
X011961Y015666D01*
X011962Y015667D02*
X012586Y015667D01*
X012585Y015668D02*
X011962Y015668D01*
X011962Y015669D02*
X012585Y015669D01*
X012585Y015670D02*
X011963Y015670D01*
X011963Y015671D02*
X012584Y015671D01*
X012584Y015672D02*
X011964Y015672D01*
X011964Y015673D02*
X012583Y015673D01*
X012583Y015674D02*
X011964Y015674D01*
X011965Y015675D02*
X012583Y015675D01*
X012582Y015676D02*
X011965Y015676D01*
X011966Y015677D02*
X012582Y015677D01*
X012581Y015678D02*
X011966Y015678D01*
X011966Y015679D02*
X012581Y015679D01*
X012581Y015680D02*
X011967Y015680D01*
X011967Y015681D02*
X012580Y015681D01*
X012580Y015682D02*
X011967Y015682D01*
X011968Y015683D02*
X012579Y015683D01*
X012579Y015684D02*
X011968Y015684D01*
X011969Y015685D02*
X012579Y015685D01*
X012578Y015686D02*
X011969Y015686D01*
X011969Y015687D02*
X012578Y015687D01*
X012578Y015688D02*
X011970Y015688D01*
X011970Y015689D02*
X012577Y015689D01*
X012577Y015690D02*
X011970Y015690D01*
X011971Y015691D02*
X012577Y015691D01*
X012576Y015692D02*
X011971Y015692D01*
X011971Y015693D02*
X012576Y015693D01*
X012575Y015694D02*
X011972Y015694D01*
X011972Y015695D02*
X012575Y015695D01*
X012575Y015696D02*
X011973Y015696D01*
X011973Y015697D02*
X012574Y015697D01*
X012574Y015698D02*
X011973Y015698D01*
X011974Y015699D02*
X012574Y015699D01*
X012573Y015700D02*
X011974Y015700D01*
X011974Y015701D02*
X012573Y015701D01*
X012573Y015702D02*
X011975Y015702D01*
X011975Y015703D02*
X012572Y015703D01*
X012572Y015704D02*
X011975Y015704D01*
X011976Y015705D02*
X012571Y015705D01*
X012571Y015706D02*
X011976Y015706D01*
X011977Y015707D02*
X012571Y015707D01*
X012570Y015708D02*
X011977Y015708D01*
X011977Y015709D02*
X012570Y015709D01*
X012570Y015710D02*
X011978Y015710D01*
X011978Y015711D02*
X012569Y015711D01*
X012569Y015712D02*
X011978Y015712D01*
X011979Y015713D02*
X012569Y015713D01*
X012568Y015714D02*
X011979Y015714D01*
X011979Y015715D02*
X012568Y015715D01*
X012567Y015716D02*
X011980Y015716D01*
X011980Y015717D02*
X012567Y015717D01*
X012567Y015718D02*
X011981Y015718D01*
X011981Y015719D02*
X012566Y015719D01*
X012566Y015720D02*
X011981Y015720D01*
X011982Y015721D02*
X012566Y015721D01*
X012565Y015722D02*
X011982Y015722D01*
X011982Y015723D02*
X012565Y015723D01*
X012565Y015724D02*
X011983Y015724D01*
X011983Y015725D02*
X012564Y015725D01*
X012564Y015726D02*
X011983Y015726D01*
X011984Y015727D02*
X012563Y015727D01*
X012563Y015728D02*
X011984Y015728D01*
X011985Y015729D02*
X012563Y015729D01*
X012562Y015730D02*
X011985Y015730D01*
X011985Y015731D02*
X012562Y015731D01*
X012562Y015732D02*
X011986Y015732D01*
X011986Y015733D02*
X012561Y015733D01*
X012561Y015734D02*
X011986Y015734D01*
X011987Y015735D02*
X012561Y015735D01*
X012560Y015736D02*
X011987Y015736D01*
X011987Y015737D02*
X012560Y015737D01*
X012559Y015738D02*
X011988Y015738D01*
X011988Y015739D02*
X012559Y015739D01*
X012559Y015740D02*
X011989Y015740D01*
X011989Y015741D02*
X012558Y015741D01*
X012558Y015742D02*
X011989Y015742D01*
X011990Y015743D02*
X012558Y015743D01*
X012557Y015744D02*
X011990Y015744D01*
X011990Y015745D02*
X012557Y015745D01*
X012557Y015746D02*
X011991Y015746D01*
X011991Y015747D02*
X012556Y015747D01*
X012556Y015748D02*
X011991Y015748D01*
X011992Y015749D02*
X012555Y015749D01*
X012555Y015750D02*
X011992Y015750D01*
X011992Y015751D02*
X012555Y015751D01*
X012554Y015752D02*
X011993Y015752D01*
X011993Y015753D02*
X012554Y015753D01*
X012554Y015754D02*
X011994Y015754D01*
X011994Y015755D02*
X012553Y015755D01*
X012553Y015756D02*
X011994Y015756D01*
X011995Y015757D02*
X012553Y015757D01*
X012552Y015758D02*
X011995Y015758D01*
X011995Y015759D02*
X012552Y015759D01*
X012551Y015760D02*
X011996Y015760D01*
X011996Y015761D02*
X012551Y015761D01*
X012551Y015762D02*
X011996Y015762D01*
X011997Y015763D02*
X012550Y015763D01*
X012550Y015764D02*
X011997Y015764D01*
X011998Y015765D02*
X012550Y015765D01*
X012549Y015766D02*
X011998Y015766D01*
X011998Y015767D02*
X012549Y015767D01*
X012549Y015768D02*
X011999Y015768D01*
X011999Y015769D02*
X012548Y015769D01*
X012548Y015770D02*
X011999Y015770D01*
X012000Y015771D02*
X012547Y015771D01*
X012547Y015772D02*
X012000Y015772D01*
X012000Y015773D02*
X012547Y015773D01*
X012546Y015774D02*
X012001Y015774D01*
X012001Y015775D02*
X012546Y015775D01*
X012546Y015776D02*
X012002Y015776D01*
X012002Y015777D02*
X012545Y015777D01*
X012545Y015778D02*
X012002Y015778D01*
X012003Y015779D02*
X012545Y015779D01*
X012544Y015780D02*
X012003Y015780D01*
X012003Y015781D02*
X012544Y015781D01*
X012543Y015782D02*
X012004Y015782D01*
X012004Y015783D02*
X012543Y015783D01*
X012543Y015784D02*
X012004Y015784D01*
X012005Y015785D02*
X012542Y015785D01*
X012542Y015786D02*
X012005Y015786D01*
X012006Y015787D02*
X012542Y015787D01*
X012541Y015788D02*
X012006Y015788D01*
X012006Y015789D02*
X012541Y015789D01*
X012541Y015790D02*
X012007Y015790D01*
X012007Y015791D02*
X012540Y015791D01*
X012540Y015792D02*
X012007Y015792D01*
X012008Y015793D02*
X012539Y015793D01*
X012539Y015794D02*
X012008Y015794D01*
X012008Y015795D02*
X012539Y015795D01*
X012538Y015796D02*
X012009Y015796D01*
X012009Y015797D02*
X012538Y015797D01*
X012538Y015798D02*
X012010Y015798D01*
X012010Y015799D02*
X012537Y015799D01*
X012537Y015800D02*
X012010Y015800D01*
X012011Y015801D02*
X012537Y015801D01*
X012536Y015802D02*
X012011Y015802D01*
X012011Y015803D02*
X012536Y015803D01*
X012535Y015804D02*
X012012Y015804D01*
X012012Y015805D02*
X012535Y015805D01*
X012535Y015806D02*
X012012Y015806D01*
X012013Y015807D02*
X012534Y015807D01*
X012534Y015808D02*
X012013Y015808D01*
X012014Y015809D02*
X012534Y015809D01*
X012533Y015810D02*
X012014Y015810D01*
X012014Y015811D02*
X012533Y015811D01*
X012533Y015812D02*
X012015Y015812D01*
X012015Y015813D02*
X012532Y015813D01*
X012532Y015814D02*
X012015Y015814D01*
X012016Y015815D02*
X012531Y015815D01*
X012531Y015816D02*
X012016Y015816D01*
X012016Y015817D02*
X012531Y015817D01*
X012530Y015818D02*
X012017Y015818D01*
X012017Y015819D02*
X012530Y015819D01*
X012530Y015820D02*
X012018Y015820D01*
X012018Y015821D02*
X012529Y015821D01*
X012529Y015822D02*
X012018Y015822D01*
X012019Y015823D02*
X012529Y015823D01*
X012528Y015824D02*
X012019Y015824D01*
X012019Y015825D02*
X012528Y015825D01*
X012528Y015826D02*
X012020Y015826D01*
X012020Y015827D02*
X012527Y015827D01*
X012527Y015828D02*
X012020Y015828D01*
X012021Y015829D02*
X012526Y015829D01*
X012526Y015830D02*
X012021Y015830D01*
X012022Y015831D02*
X012526Y015831D01*
X012525Y015832D02*
X012022Y015832D01*
X012022Y015833D02*
X012525Y015833D01*
X012525Y015834D02*
X012023Y015834D01*
X012023Y015835D02*
X012524Y015835D01*
X012524Y015836D02*
X012023Y015836D01*
X012024Y015837D02*
X012524Y015837D01*
X012523Y015838D02*
X012024Y015838D01*
X012024Y015839D02*
X012523Y015839D01*
X012522Y015840D02*
X012025Y015840D01*
X012025Y015841D02*
X012522Y015841D01*
X012522Y015842D02*
X012026Y015842D01*
X012026Y015843D02*
X012521Y015843D01*
X012521Y015844D02*
X012026Y015844D01*
X012027Y015845D02*
X012521Y015845D01*
X012520Y015846D02*
X012027Y015846D01*
X012027Y015847D02*
X012520Y015847D01*
X012520Y015848D02*
X012028Y015848D01*
X012028Y015849D02*
X012519Y015849D01*
X012519Y015850D02*
X012028Y015850D01*
X012029Y015851D02*
X012518Y015851D01*
X012518Y015852D02*
X012029Y015852D01*
X012030Y015853D02*
X012518Y015853D01*
X012517Y015854D02*
X012030Y015854D01*
X012030Y015855D02*
X012517Y015855D01*
X012517Y015856D02*
X012031Y015856D01*
X012031Y015857D02*
X012516Y015857D01*
X012516Y015858D02*
X012031Y015858D01*
X012032Y015859D02*
X012516Y015859D01*
X012515Y015860D02*
X012032Y015860D01*
X012032Y015861D02*
X012515Y015861D01*
X012514Y015862D02*
X012033Y015862D01*
X012033Y015863D02*
X012514Y015863D01*
X012034Y015863D01*
X012034Y015864D02*
X012513Y015864D01*
X012513Y015865D02*
X012034Y015865D01*
X012035Y015866D02*
X012513Y015866D01*
X012512Y015867D02*
X012035Y015867D01*
X012035Y015868D02*
X012512Y015868D01*
X012512Y015869D02*
X012036Y015869D01*
X012036Y015870D02*
X012511Y015870D01*
X012511Y015871D02*
X012036Y015871D01*
X012037Y015872D02*
X012510Y015872D01*
X012510Y015873D02*
X012037Y015873D01*
X012038Y015874D02*
X012510Y015874D01*
X012509Y015875D02*
X012038Y015875D01*
X012038Y015876D02*
X012509Y015876D01*
X012509Y015877D02*
X012039Y015877D01*
X012039Y015878D02*
X012508Y015878D01*
X012508Y015879D02*
X012039Y015879D01*
X012040Y015880D02*
X012508Y015880D01*
X012507Y015881D02*
X012040Y015881D01*
X012040Y015882D02*
X012507Y015882D01*
X012506Y015883D02*
X012041Y015883D01*
X012041Y015884D02*
X012506Y015884D01*
X012506Y015885D02*
X012042Y015885D01*
X012042Y015886D02*
X012505Y015886D01*
X012505Y015887D02*
X012042Y015887D01*
X012043Y015888D02*
X012505Y015888D01*
X012504Y015889D02*
X012043Y015889D01*
X012043Y015890D02*
X012504Y015890D01*
X012504Y015891D02*
X012044Y015891D01*
X012044Y015892D02*
X012503Y015892D01*
X012503Y015893D02*
X012044Y015893D01*
X012045Y015894D02*
X012502Y015894D01*
X012502Y015895D02*
X012045Y015895D01*
X012046Y015896D02*
X012502Y015896D01*
X012501Y015897D02*
X012046Y015897D01*
X012046Y015898D02*
X012501Y015898D01*
X012500Y015899D02*
X012047Y015899D01*
X012047Y015900D02*
X012500Y015900D01*
X012500Y015901D02*
X012048Y015901D01*
X012048Y015902D02*
X012499Y015902D01*
X012499Y015903D02*
X012048Y015903D01*
X012049Y015904D02*
X012498Y015904D01*
X012498Y015905D02*
X012049Y015905D01*
X012050Y015906D02*
X012498Y015906D01*
X012497Y015907D02*
X012050Y015907D01*
X012050Y015908D02*
X012497Y015908D01*
X012496Y015909D02*
X012051Y015909D01*
X012051Y015910D02*
X012496Y015910D01*
X012496Y015911D02*
X012052Y015911D01*
X012052Y015912D02*
X012495Y015912D01*
X012495Y015913D02*
X012052Y015913D01*
X012053Y015914D02*
X012494Y015914D01*
X012494Y015915D02*
X012053Y015915D01*
X012054Y015916D02*
X012494Y015916D01*
X012493Y015917D02*
X012054Y015917D01*
X012054Y015918D02*
X012493Y015918D01*
X012492Y015919D02*
X012055Y015919D01*
X012055Y015920D02*
X012492Y015920D01*
X012492Y015921D02*
X012056Y015921D01*
X012056Y015922D02*
X012491Y015922D01*
X012491Y015923D02*
X012056Y015923D01*
X012057Y015924D02*
X012490Y015924D01*
X012490Y015925D02*
X012057Y015925D01*
X012058Y015926D02*
X012490Y015926D01*
X012489Y015927D02*
X012058Y015927D01*
X012058Y015928D02*
X012489Y015928D01*
X012488Y015929D02*
X012059Y015929D01*
X012059Y015930D02*
X012488Y015930D01*
X012488Y015931D02*
X012060Y015931D01*
X012060Y015932D02*
X012487Y015932D01*
X012487Y015933D02*
X012060Y015933D01*
X012061Y015934D02*
X012486Y015934D01*
D26*
X021210Y014380D03*
X021210Y013880D03*
X021210Y013380D03*
X021210Y012880D03*
X023290Y012880D03*
X023290Y013380D03*
X023290Y013880D03*
X023290Y014380D03*
D27*
X022250Y013630D03*
D28*
X026625Y013290D03*
X026625Y014470D03*
D29*
X024250Y013865D03*
X024250Y013145D03*
D30*
X022610Y015130D03*
X021890Y015130D03*
D31*
X018500Y016355D03*
X018500Y018155D03*
D32*
X025375Y014610D03*
X025375Y013150D03*
D33*
X022870Y017255D03*
X020630Y017255D03*
M02*
