G75*
G70*
%OFA0B0*%
%FSLAX24Y24*%
%IPPOS*%
%LPD*%
%AMOC8*
5,1,8,0,0,1.08239X$1,22.5*
%
%ADD10R,0.0594X0.0594*%
%ADD11C,0.0594*%
%ADD12C,0.0520*%
%ADD13C,0.0740*%
%ADD14R,0.0740X0.0740*%
%ADD15C,0.0240*%
%ADD16C,0.0238*%
%ADD17C,0.0100*%
%ADD18C,0.0317*%
%ADD19C,0.0060*%
%ADD20C,0.0160*%
D10*
X008000Y000880D03*
X008000Y019880D03*
D11*
X009000Y019880D03*
X010000Y019880D03*
X011000Y019880D03*
X012000Y019880D03*
X013000Y019880D03*
X014000Y019880D03*
X015000Y019880D03*
X016000Y019880D03*
X017000Y019880D03*
X018000Y019880D03*
X019000Y019880D03*
X020000Y019880D03*
X021000Y019880D03*
X022000Y019880D03*
X023000Y019880D03*
X024000Y019880D03*
X025000Y019880D03*
X026000Y019880D03*
X027000Y019880D03*
X028000Y019880D03*
X029000Y019880D03*
X030000Y019880D03*
X030000Y020880D03*
X029000Y020880D03*
X028000Y020880D03*
X027000Y020880D03*
X026000Y020880D03*
X025000Y020880D03*
X024000Y020880D03*
X023000Y020880D03*
X022000Y020880D03*
X021000Y020880D03*
X020000Y020880D03*
X019000Y020880D03*
X018000Y020880D03*
X017000Y020880D03*
X016000Y020880D03*
X015000Y020880D03*
X014000Y020880D03*
X013000Y020880D03*
X012000Y020880D03*
X011000Y020880D03*
X010000Y020880D03*
X009000Y020880D03*
X008000Y020880D03*
X008000Y001880D03*
X009000Y001880D03*
X010000Y001880D03*
X011000Y001880D03*
X012000Y001880D03*
X013000Y001880D03*
X014000Y001880D03*
X015000Y001880D03*
X016000Y001880D03*
X017000Y001880D03*
X018000Y001880D03*
X019000Y001880D03*
X020000Y001880D03*
X021000Y001880D03*
X022000Y001880D03*
X023000Y001880D03*
X024000Y001880D03*
X025000Y001880D03*
X026000Y001880D03*
X027000Y001880D03*
X028000Y001880D03*
X029000Y001880D03*
X030000Y001880D03*
X030000Y000880D03*
X029000Y000880D03*
X028000Y000880D03*
X027000Y000880D03*
X026000Y000880D03*
X025000Y000880D03*
X024000Y000880D03*
X023000Y000880D03*
X022000Y000880D03*
X021000Y000880D03*
X020000Y000880D03*
X019000Y000880D03*
X018000Y000880D03*
X017000Y000880D03*
X016000Y000880D03*
X015000Y000880D03*
X014000Y000880D03*
X013000Y000880D03*
X012000Y000880D03*
X011000Y000880D03*
X010000Y000880D03*
X009000Y000880D03*
D12*
X013750Y003870D02*
X013750Y004390D01*
X014750Y004390D02*
X014750Y003870D01*
X014750Y006870D02*
X014750Y007390D01*
X013750Y007390D02*
X013750Y006870D01*
D13*
X028690Y006880D03*
X029690Y007380D03*
X028690Y007880D03*
X029690Y008380D03*
X028690Y008880D03*
X029690Y009380D03*
X028690Y009880D03*
X028690Y012880D03*
X029690Y013380D03*
X028690Y013880D03*
X029690Y014380D03*
X028690Y014880D03*
X029690Y015380D03*
X028690Y015880D03*
D14*
X029690Y012380D03*
X029690Y006380D03*
D15*
X028250Y005880D02*
X028250Y002630D01*
X029000Y001880D01*
X029000Y000880D01*
X030000Y000880D01*
X030000Y001880D02*
X029000Y001880D01*
X030000Y001880D02*
X033500Y005380D01*
X033500Y007380D01*
X033500Y011130D01*
X030500Y011130D01*
X029750Y011130D01*
X029690Y011070D01*
X029690Y009380D01*
X028690Y009880D02*
X028690Y011070D01*
X028750Y011130D01*
X029750Y011130D01*
X028750Y011130D02*
X027250Y011130D01*
X026625Y011130D01*
X026625Y012880D01*
X026625Y011130D02*
X009250Y011130D01*
X009250Y015630D01*
X008000Y016880D01*
X008000Y019630D01*
X008000Y020880D01*
X008000Y019880D02*
X008000Y019630D01*
X009250Y015630D02*
X009250Y011130D01*
X009250Y006130D01*
X008000Y004880D01*
X008000Y001880D01*
X008000Y000880D01*
X029190Y015880D02*
X029690Y015380D01*
X033250Y015380D01*
X033500Y015130D01*
X033500Y013380D01*
X033500Y011130D01*
X029190Y015880D02*
X028690Y015880D01*
D16*
X022625Y013880D03*
X022375Y013630D03*
X022125Y013380D03*
X021875Y013130D03*
X021875Y013630D03*
X022125Y013880D03*
X021875Y014130D03*
X022375Y014130D03*
X022625Y013380D03*
X022375Y013130D03*
X020750Y012880D03*
X019750Y017255D03*
X031250Y008880D03*
X031000Y007380D03*
X030750Y006880D03*
X028250Y005880D03*
X025000Y005130D03*
X023000Y005380D03*
X023000Y006380D03*
X023250Y008380D03*
X017000Y005880D03*
X016500Y007380D03*
X016500Y003880D03*
D17*
X017000Y005880D02*
X024750Y005880D01*
X028250Y005880D01*
X028690Y006880D02*
X030750Y006880D01*
X031000Y007380D02*
X029690Y007380D01*
X028690Y008880D02*
X031250Y008880D01*
X024750Y005880D02*
X024375Y006255D01*
X024250Y006380D01*
X023000Y006380D01*
X023250Y007380D02*
X024375Y006255D01*
X023250Y007380D02*
X023250Y008380D01*
X020750Y012880D02*
X019750Y013880D01*
X019750Y017255D01*
D18*
X026625Y012880D03*
D19*
X006405Y004975D02*
X006405Y000285D01*
X029500Y000285D01*
X029880Y000300D01*
X030631Y000419D01*
X031354Y000654D01*
X032032Y000999D01*
X032647Y001446D01*
X033184Y001983D01*
X033631Y002598D01*
X033976Y003276D01*
X034211Y003999D01*
X034330Y004750D01*
X034345Y005130D01*
X034345Y016630D01*
X034330Y017010D01*
X034211Y017761D01*
X033976Y018484D01*
X033631Y019162D01*
X033184Y019777D01*
X032647Y020314D01*
X032032Y020761D01*
X031354Y021106D01*
X030631Y021341D01*
X029880Y021460D01*
X029500Y021475D01*
X006405Y021475D01*
X006405Y016785D01*
X006521Y016785D01*
X007049Y016664D01*
X007538Y016429D01*
X007538Y016429D01*
X007961Y016091D01*
X007961Y016091D01*
X008299Y015668D01*
X008299Y015668D01*
X008534Y015179D01*
X008534Y015179D01*
X008655Y014651D01*
X008655Y007316D01*
X008655Y007109D01*
X008534Y006581D01*
X008534Y006581D01*
X008299Y006092D01*
X008299Y006092D01*
X007961Y005669D01*
X007961Y005669D01*
X007961Y005669D01*
X007538Y005331D01*
X007538Y005331D01*
X007049Y005096D01*
X007049Y005096D01*
X006521Y004975D01*
X006405Y004975D01*
X006405Y004927D02*
X016330Y004927D01*
X016330Y004869D02*
X006405Y004869D01*
X006405Y004810D02*
X016330Y004810D01*
X016330Y004752D02*
X006405Y004752D01*
X006405Y004693D02*
X013567Y004693D01*
X013552Y004687D02*
X013453Y004588D01*
X013400Y004460D01*
X013400Y003800D01*
X013453Y003672D01*
X013552Y003573D01*
X013680Y003520D01*
X013820Y003520D01*
X013948Y003573D01*
X014047Y003672D01*
X014100Y003800D01*
X014100Y004460D01*
X014047Y004588D01*
X013948Y004687D01*
X013820Y004740D01*
X013680Y004740D01*
X013552Y004687D01*
X013500Y004635D02*
X006405Y004635D01*
X006405Y004576D02*
X013448Y004576D01*
X013424Y004518D02*
X006405Y004518D01*
X006405Y004459D02*
X013400Y004459D01*
X013400Y004401D02*
X006405Y004401D01*
X006405Y004342D02*
X013400Y004342D01*
X013400Y004284D02*
X006405Y004284D01*
X006405Y004225D02*
X013400Y004225D01*
X013400Y004167D02*
X006405Y004167D01*
X006405Y004108D02*
X013400Y004108D01*
X013400Y004050D02*
X006405Y004050D01*
X006405Y003991D02*
X013400Y003991D01*
X013400Y003933D02*
X006405Y003933D01*
X006405Y003874D02*
X013400Y003874D01*
X013400Y003816D02*
X006405Y003816D01*
X006405Y003757D02*
X013418Y003757D01*
X013442Y003699D02*
X006405Y003699D01*
X006405Y003640D02*
X013485Y003640D01*
X013544Y003582D02*
X006405Y003582D01*
X006405Y003523D02*
X013673Y003523D01*
X013827Y003523D02*
X014673Y003523D01*
X014680Y003520D02*
X014820Y003520D01*
X014948Y003573D01*
X015047Y003672D01*
X015100Y003800D01*
X015100Y004460D01*
X015047Y004588D01*
X014948Y004687D01*
X014820Y004740D01*
X014680Y004740D01*
X014552Y004687D01*
X014453Y004588D01*
X014400Y004460D01*
X014400Y003800D01*
X014453Y003672D01*
X014552Y003573D01*
X014680Y003520D01*
X014827Y003523D02*
X034056Y003523D01*
X034037Y003465D02*
X006405Y003465D01*
X006405Y003406D02*
X034018Y003406D01*
X033999Y003348D02*
X006405Y003348D01*
X006405Y003289D02*
X033980Y003289D01*
X033953Y003231D02*
X006405Y003231D01*
X006405Y003172D02*
X033923Y003172D01*
X033893Y003114D02*
X006405Y003114D01*
X006405Y003055D02*
X033864Y003055D01*
X033834Y002997D02*
X006405Y002997D01*
X006405Y002938D02*
X033804Y002938D01*
X033774Y002880D02*
X006405Y002880D01*
X006405Y002821D02*
X033744Y002821D01*
X033715Y002763D02*
X006405Y002763D01*
X006405Y002704D02*
X033685Y002704D01*
X033655Y002646D02*
X006405Y002646D01*
X006405Y002587D02*
X033623Y002587D01*
X033580Y002529D02*
X006405Y002529D01*
X006405Y002470D02*
X033538Y002470D01*
X033495Y002412D02*
X006405Y002412D01*
X006405Y002353D02*
X033453Y002353D01*
X033410Y002295D02*
X030106Y002295D01*
X030100Y002296D02*
X030034Y002307D01*
X030030Y002307D01*
X030030Y001910D01*
X030427Y001910D01*
X030427Y001914D01*
X030416Y001980D01*
X030396Y002044D01*
X030365Y002104D01*
X030326Y002158D01*
X030278Y002206D01*
X030224Y002245D01*
X030164Y002276D01*
X030100Y002296D01*
X030030Y002295D02*
X029970Y002295D01*
X029970Y002307D02*
X029966Y002307D01*
X029900Y002296D01*
X029836Y002276D01*
X029776Y002245D01*
X029722Y002206D01*
X029674Y002158D01*
X029635Y002104D01*
X029604Y002044D01*
X029584Y001980D01*
X029573Y001914D01*
X029573Y001910D01*
X029970Y001910D01*
X029970Y002307D01*
X029970Y002236D02*
X030030Y002236D01*
X030030Y002178D02*
X029970Y002178D01*
X029970Y002119D02*
X030030Y002119D01*
X030030Y002061D02*
X029970Y002061D01*
X029970Y002002D02*
X030030Y002002D01*
X030030Y001944D02*
X029970Y001944D01*
X029970Y001910D02*
X030030Y001910D01*
X030030Y001850D01*
X030427Y001850D01*
X030427Y001846D01*
X030416Y001780D01*
X030396Y001716D01*
X030365Y001656D01*
X030326Y001602D01*
X030278Y001554D01*
X030224Y001515D01*
X030164Y001484D01*
X030100Y001464D01*
X030034Y001453D01*
X030030Y001453D01*
X030030Y001850D01*
X029970Y001850D01*
X029970Y001453D01*
X029966Y001453D01*
X029900Y001464D01*
X029836Y001484D01*
X029776Y001515D01*
X029722Y001554D01*
X029674Y001602D01*
X029635Y001656D01*
X029604Y001716D01*
X029584Y001780D01*
X029573Y001846D01*
X029573Y001850D01*
X029970Y001850D01*
X029970Y001910D01*
X029970Y001885D02*
X029030Y001885D01*
X029030Y001910D02*
X029427Y001910D01*
X029427Y001914D01*
X029416Y001980D01*
X029396Y002044D01*
X029365Y002104D01*
X029326Y002158D01*
X029278Y002206D01*
X029224Y002245D01*
X029164Y002276D01*
X029100Y002296D01*
X029034Y002307D01*
X029030Y002307D01*
X029030Y001910D01*
X029030Y001850D01*
X029427Y001850D01*
X029427Y001846D01*
X029416Y001780D01*
X029396Y001716D01*
X029365Y001656D01*
X029326Y001602D01*
X029278Y001554D01*
X029224Y001515D01*
X029164Y001484D01*
X029100Y001464D01*
X029034Y001453D01*
X029030Y001453D01*
X029030Y001850D01*
X028970Y001850D01*
X028970Y001453D01*
X028966Y001453D01*
X028900Y001464D01*
X028836Y001484D01*
X028776Y001515D01*
X028722Y001554D01*
X028674Y001602D01*
X028635Y001656D01*
X028604Y001716D01*
X028584Y001780D01*
X028573Y001846D01*
X028573Y001850D01*
X028970Y001850D01*
X028970Y001910D01*
X028970Y002307D01*
X028966Y002307D01*
X028900Y002296D01*
X028836Y002276D01*
X028776Y002245D01*
X028722Y002206D01*
X028674Y002158D01*
X028635Y002104D01*
X028604Y002044D01*
X028584Y001980D01*
X028573Y001914D01*
X028573Y001910D01*
X028970Y001910D01*
X029030Y001910D01*
X029030Y001944D02*
X028970Y001944D01*
X028970Y002002D02*
X029030Y002002D01*
X029030Y002061D02*
X028970Y002061D01*
X028970Y002119D02*
X029030Y002119D01*
X029030Y002178D02*
X028970Y002178D01*
X028970Y002236D02*
X029030Y002236D01*
X029030Y002295D02*
X028970Y002295D01*
X028894Y002295D02*
X008106Y002295D01*
X008100Y002296D02*
X008034Y002307D01*
X008030Y002307D01*
X008030Y001910D01*
X008427Y001910D01*
X008427Y001914D01*
X008416Y001980D01*
X008396Y002044D01*
X008365Y002104D01*
X008326Y002158D01*
X008278Y002206D01*
X008224Y002245D01*
X008164Y002276D01*
X008100Y002296D01*
X008030Y002295D02*
X007970Y002295D01*
X007970Y002307D02*
X007966Y002307D01*
X007900Y002296D01*
X007836Y002276D01*
X007776Y002245D01*
X007722Y002206D01*
X007674Y002158D01*
X007635Y002104D01*
X007604Y002044D01*
X007584Y001980D01*
X007573Y001914D01*
X007573Y001910D01*
X007970Y001910D01*
X007970Y002307D01*
X007970Y002236D02*
X008030Y002236D01*
X008030Y002178D02*
X007970Y002178D01*
X007970Y002119D02*
X008030Y002119D01*
X008030Y002061D02*
X007970Y002061D01*
X007970Y002002D02*
X008030Y002002D01*
X008030Y001944D02*
X007970Y001944D01*
X007970Y001910D02*
X008030Y001910D01*
X008030Y001850D01*
X008427Y001850D01*
X008427Y001846D01*
X008416Y001780D01*
X008396Y001716D01*
X008365Y001656D01*
X008326Y001602D01*
X008278Y001554D01*
X008224Y001515D01*
X008164Y001484D01*
X008100Y001464D01*
X008034Y001453D01*
X008030Y001453D01*
X008030Y001850D01*
X007970Y001850D01*
X007970Y001453D01*
X007966Y001453D01*
X007900Y001464D01*
X007836Y001484D01*
X007776Y001515D01*
X007722Y001554D01*
X007674Y001602D01*
X007635Y001656D01*
X007604Y001716D01*
X007584Y001780D01*
X007573Y001846D01*
X007573Y001850D01*
X007970Y001850D01*
X007970Y001910D01*
X007970Y001885D02*
X006405Y001885D01*
X006405Y001827D02*
X007576Y001827D01*
X007588Y001768D02*
X006405Y001768D01*
X006405Y001710D02*
X007608Y001710D01*
X007639Y001651D02*
X006405Y001651D01*
X006405Y001593D02*
X007684Y001593D01*
X007750Y001534D02*
X006405Y001534D01*
X006405Y001476D02*
X007864Y001476D01*
X007970Y001476D02*
X008030Y001476D01*
X008030Y001534D02*
X007970Y001534D01*
X007970Y001593D02*
X008030Y001593D01*
X008030Y001651D02*
X007970Y001651D01*
X007970Y001710D02*
X008030Y001710D01*
X008030Y001768D02*
X007970Y001768D01*
X007970Y001827D02*
X008030Y001827D01*
X008030Y001885D02*
X008613Y001885D01*
X008613Y001827D02*
X008424Y001827D01*
X008412Y001768D02*
X008628Y001768D01*
X008613Y001803D02*
X008672Y001661D01*
X008781Y001552D01*
X008923Y001493D01*
X009077Y001493D01*
X009219Y001552D01*
X009328Y001661D01*
X009387Y001803D01*
X009387Y001957D01*
X009328Y002099D01*
X009219Y002208D01*
X009077Y002267D01*
X008923Y002267D01*
X008781Y002208D01*
X008672Y002099D01*
X008613Y001957D01*
X008613Y001803D01*
X008652Y001710D02*
X008392Y001710D01*
X008361Y001651D02*
X008682Y001651D01*
X008740Y001593D02*
X008316Y001593D01*
X008250Y001534D02*
X008824Y001534D01*
X008923Y001267D02*
X008781Y001208D01*
X008672Y001099D01*
X008613Y000957D01*
X008613Y000803D01*
X008672Y000661D01*
X008781Y000552D01*
X008923Y000493D01*
X009077Y000493D01*
X009219Y000552D01*
X009328Y000661D01*
X009387Y000803D01*
X009387Y000957D01*
X009328Y001099D01*
X009219Y001208D01*
X009077Y001267D01*
X008923Y001267D01*
X008862Y001242D02*
X008410Y001242D01*
X008418Y001227D02*
X008401Y001257D01*
X008377Y001281D01*
X008347Y001298D01*
X008314Y001307D01*
X008030Y001307D01*
X008030Y000910D01*
X008427Y000910D01*
X008427Y001194D01*
X008418Y001227D01*
X008427Y001183D02*
X008756Y001183D01*
X008697Y001125D02*
X008427Y001125D01*
X008427Y001066D02*
X008658Y001066D01*
X008634Y001008D02*
X008427Y001008D01*
X008427Y000949D02*
X008613Y000949D01*
X008613Y000891D02*
X008030Y000891D01*
X008030Y000910D02*
X008030Y000850D01*
X008427Y000850D01*
X008427Y000566D01*
X008418Y000533D01*
X008401Y000503D01*
X008377Y000479D01*
X008347Y000462D01*
X008314Y000453D01*
X008030Y000453D01*
X008030Y000850D01*
X007970Y000850D01*
X007970Y000453D01*
X007686Y000453D01*
X007653Y000462D01*
X007623Y000479D01*
X007599Y000503D01*
X007582Y000533D01*
X007573Y000566D01*
X007573Y000850D01*
X007970Y000850D01*
X007970Y000910D01*
X007970Y001307D01*
X007686Y001307D01*
X007653Y001298D01*
X007623Y001281D01*
X007599Y001257D01*
X007582Y001227D01*
X007573Y001194D01*
X007573Y000910D01*
X007970Y000910D01*
X008030Y000910D01*
X008030Y000949D02*
X007970Y000949D01*
X007970Y000891D02*
X006405Y000891D01*
X006405Y000949D02*
X007573Y000949D01*
X007573Y001008D02*
X006405Y001008D01*
X006405Y001066D02*
X007573Y001066D01*
X007573Y001125D02*
X006405Y001125D01*
X006405Y001183D02*
X007573Y001183D01*
X007590Y001242D02*
X006405Y001242D01*
X006405Y001300D02*
X007660Y001300D01*
X007970Y001300D02*
X008030Y001300D01*
X008030Y001242D02*
X007970Y001242D01*
X007970Y001183D02*
X008030Y001183D01*
X008030Y001125D02*
X007970Y001125D01*
X007970Y001066D02*
X008030Y001066D01*
X008030Y001008D02*
X007970Y001008D01*
X007970Y000832D02*
X008030Y000832D01*
X008030Y000774D02*
X007970Y000774D01*
X007970Y000715D02*
X008030Y000715D01*
X008030Y000657D02*
X007970Y000657D01*
X007970Y000598D02*
X008030Y000598D01*
X008030Y000540D02*
X007970Y000540D01*
X007970Y000481D02*
X008030Y000481D01*
X008379Y000481D02*
X028847Y000481D01*
X028836Y000484D02*
X028900Y000464D01*
X028966Y000453D01*
X028970Y000453D01*
X028970Y000850D01*
X029030Y000850D01*
X029030Y000910D01*
X029427Y000910D01*
X029427Y000914D01*
X029416Y000980D01*
X029396Y001044D01*
X029365Y001104D01*
X029326Y001158D01*
X029278Y001206D01*
X029224Y001245D01*
X029164Y001276D01*
X029100Y001296D01*
X029034Y001307D01*
X029030Y001307D01*
X029030Y000910D01*
X028970Y000910D01*
X028970Y001307D01*
X028966Y001307D01*
X028900Y001296D01*
X028836Y001276D01*
X028776Y001245D01*
X028722Y001206D01*
X028674Y001158D01*
X028635Y001104D01*
X028604Y001044D01*
X028584Y000980D01*
X028573Y000914D01*
X028573Y000910D01*
X028970Y000910D01*
X028970Y000850D01*
X028573Y000850D01*
X028573Y000846D01*
X028584Y000780D01*
X028604Y000716D01*
X028635Y000656D01*
X028674Y000602D01*
X028722Y000554D01*
X028776Y000515D01*
X028836Y000484D01*
X028742Y000540D02*
X028189Y000540D01*
X028219Y000552D02*
X028328Y000661D01*
X028387Y000803D01*
X028387Y000957D01*
X028328Y001099D01*
X028219Y001208D01*
X028077Y001267D01*
X027923Y001267D01*
X027781Y001208D01*
X027672Y001099D01*
X027613Y000957D01*
X027613Y000803D01*
X027672Y000661D01*
X027781Y000552D01*
X027923Y000493D01*
X028077Y000493D01*
X028219Y000552D01*
X028265Y000598D02*
X028678Y000598D01*
X028635Y000657D02*
X028324Y000657D01*
X028350Y000715D02*
X028605Y000715D01*
X028586Y000774D02*
X028375Y000774D01*
X028387Y000832D02*
X028575Y000832D01*
X028579Y000949D02*
X028387Y000949D01*
X028387Y000891D02*
X028970Y000891D01*
X028970Y000949D02*
X029030Y000949D01*
X029030Y000891D02*
X029970Y000891D01*
X029970Y000910D02*
X029970Y000850D01*
X030030Y000850D01*
X030030Y000910D01*
X030427Y000910D01*
X030427Y000914D01*
X030416Y000980D01*
X030396Y001044D01*
X030365Y001104D01*
X030326Y001158D01*
X030278Y001206D01*
X030224Y001245D01*
X030164Y001276D01*
X030100Y001296D01*
X030034Y001307D01*
X030030Y001307D01*
X030030Y000910D01*
X029970Y000910D01*
X029970Y001307D01*
X029966Y001307D01*
X029900Y001296D01*
X029836Y001276D01*
X029776Y001245D01*
X029722Y001206D01*
X029674Y001158D01*
X029635Y001104D01*
X029604Y001044D01*
X029584Y000980D01*
X029573Y000914D01*
X029573Y000910D01*
X029970Y000910D01*
X029970Y000949D02*
X030030Y000949D01*
X030030Y000891D02*
X031819Y000891D01*
X031933Y000949D02*
X030421Y000949D01*
X030407Y001008D02*
X032043Y001008D01*
X032124Y001066D02*
X030384Y001066D01*
X030350Y001125D02*
X032204Y001125D01*
X032285Y001183D02*
X030301Y001183D01*
X030229Y001242D02*
X032365Y001242D01*
X032446Y001300D02*
X030077Y001300D01*
X030030Y001300D02*
X029970Y001300D01*
X029923Y001300D02*
X029077Y001300D01*
X029030Y001300D02*
X028970Y001300D01*
X028923Y001300D02*
X008340Y001300D01*
X008136Y001476D02*
X028864Y001476D01*
X028970Y001476D02*
X029030Y001476D01*
X029030Y001534D02*
X028970Y001534D01*
X028970Y001593D02*
X029030Y001593D01*
X029030Y001651D02*
X028970Y001651D01*
X028970Y001710D02*
X029030Y001710D01*
X029030Y001768D02*
X028970Y001768D01*
X028970Y001827D02*
X029030Y001827D01*
X028970Y001885D02*
X028387Y001885D01*
X028387Y001827D02*
X028576Y001827D01*
X028588Y001768D02*
X028372Y001768D01*
X028387Y001803D02*
X028328Y001661D01*
X028219Y001552D01*
X028077Y001493D01*
X027923Y001493D01*
X027781Y001552D01*
X027672Y001661D01*
X027613Y001803D01*
X027613Y001957D01*
X027672Y002099D01*
X027781Y002208D01*
X027923Y002267D01*
X028077Y002267D01*
X028219Y002208D01*
X028328Y002099D01*
X028387Y001957D01*
X028387Y001803D01*
X028348Y001710D02*
X028608Y001710D01*
X028639Y001651D02*
X028318Y001651D01*
X028260Y001593D02*
X028684Y001593D01*
X028750Y001534D02*
X028176Y001534D01*
X028138Y001242D02*
X028771Y001242D01*
X028699Y001183D02*
X028244Y001183D01*
X028303Y001125D02*
X028650Y001125D01*
X028616Y001066D02*
X028342Y001066D01*
X028366Y001008D02*
X028593Y001008D01*
X028970Y001008D02*
X029030Y001008D01*
X029030Y001066D02*
X028970Y001066D01*
X028970Y001125D02*
X029030Y001125D01*
X029030Y001183D02*
X028970Y001183D01*
X028970Y001242D02*
X029030Y001242D01*
X029229Y001242D02*
X029771Y001242D01*
X029699Y001183D02*
X029301Y001183D01*
X029350Y001125D02*
X029650Y001125D01*
X029616Y001066D02*
X029384Y001066D01*
X029407Y001008D02*
X029593Y001008D01*
X029579Y000949D02*
X029421Y000949D01*
X029427Y000850D02*
X029030Y000850D01*
X029030Y000453D01*
X029034Y000453D01*
X029100Y000464D01*
X029164Y000484D01*
X029224Y000515D01*
X029278Y000554D01*
X029326Y000602D01*
X029365Y000656D01*
X029396Y000716D01*
X029416Y000780D01*
X029427Y000846D01*
X029427Y000850D01*
X029425Y000832D02*
X029575Y000832D01*
X029573Y000846D02*
X029584Y000780D01*
X029604Y000716D01*
X029635Y000656D01*
X029674Y000602D01*
X029722Y000554D01*
X029776Y000515D01*
X029836Y000484D01*
X029900Y000464D01*
X029966Y000453D01*
X029970Y000453D01*
X029970Y000850D01*
X029573Y000850D01*
X029573Y000846D01*
X029586Y000774D02*
X029414Y000774D01*
X029395Y000715D02*
X029605Y000715D01*
X029635Y000657D02*
X029365Y000657D01*
X029322Y000598D02*
X029678Y000598D01*
X029742Y000540D02*
X029258Y000540D01*
X029153Y000481D02*
X029847Y000481D01*
X029970Y000481D02*
X030030Y000481D01*
X030030Y000453D02*
X030034Y000453D01*
X030100Y000464D01*
X030164Y000484D01*
X030224Y000515D01*
X030278Y000554D01*
X030326Y000602D01*
X030365Y000656D01*
X030396Y000716D01*
X030416Y000780D01*
X030427Y000846D01*
X030427Y000850D01*
X030030Y000850D01*
X030030Y000453D01*
X030030Y000540D02*
X029970Y000540D01*
X029970Y000598D02*
X030030Y000598D01*
X030030Y000657D02*
X029970Y000657D01*
X029970Y000715D02*
X030030Y000715D01*
X030030Y000774D02*
X029970Y000774D01*
X029970Y000832D02*
X030030Y000832D01*
X030030Y001008D02*
X029970Y001008D01*
X029970Y001066D02*
X030030Y001066D01*
X030030Y001125D02*
X029970Y001125D01*
X029970Y001183D02*
X030030Y001183D01*
X030030Y001242D02*
X029970Y001242D01*
X029970Y001476D02*
X030030Y001476D01*
X030030Y001534D02*
X029970Y001534D01*
X029970Y001593D02*
X030030Y001593D01*
X030030Y001651D02*
X029970Y001651D01*
X029970Y001710D02*
X030030Y001710D01*
X030030Y001768D02*
X029970Y001768D01*
X029970Y001827D02*
X030030Y001827D01*
X030030Y001885D02*
X033086Y001885D01*
X033144Y001944D02*
X030422Y001944D01*
X030409Y002002D02*
X033198Y002002D01*
X033240Y002061D02*
X030387Y002061D01*
X030354Y002119D02*
X033283Y002119D01*
X033325Y002178D02*
X030306Y002178D01*
X030236Y002236D02*
X033368Y002236D01*
X033027Y001827D02*
X030424Y001827D01*
X030412Y001768D02*
X032969Y001768D01*
X032910Y001710D02*
X030392Y001710D01*
X030361Y001651D02*
X032852Y001651D01*
X032793Y001593D02*
X030316Y001593D01*
X030250Y001534D02*
X032735Y001534D01*
X032676Y001476D02*
X030136Y001476D01*
X029864Y001476D02*
X029136Y001476D01*
X029250Y001534D02*
X029750Y001534D01*
X029684Y001593D02*
X029316Y001593D01*
X029361Y001651D02*
X029639Y001651D01*
X029608Y001710D02*
X029392Y001710D01*
X029412Y001768D02*
X029588Y001768D01*
X029576Y001827D02*
X029424Y001827D01*
X029422Y001944D02*
X029578Y001944D01*
X029591Y002002D02*
X029409Y002002D01*
X029387Y002061D02*
X029613Y002061D01*
X029646Y002119D02*
X029354Y002119D01*
X029306Y002178D02*
X029694Y002178D01*
X029764Y002236D02*
X029236Y002236D01*
X029106Y002295D02*
X029894Y002295D01*
X028764Y002236D02*
X028151Y002236D01*
X028250Y002178D02*
X028694Y002178D01*
X028646Y002119D02*
X028308Y002119D01*
X028344Y002061D02*
X028613Y002061D01*
X028591Y002002D02*
X028368Y002002D01*
X028387Y001944D02*
X028578Y001944D01*
X027849Y002236D02*
X027151Y002236D01*
X027219Y002208D02*
X027077Y002267D01*
X026923Y002267D01*
X026781Y002208D01*
X026672Y002099D01*
X026613Y001957D01*
X026613Y001803D01*
X026672Y001661D01*
X026781Y001552D01*
X026923Y001493D01*
X027077Y001493D01*
X027219Y001552D01*
X027328Y001661D01*
X027387Y001803D01*
X027387Y001957D01*
X027328Y002099D01*
X027219Y002208D01*
X027250Y002178D02*
X027750Y002178D01*
X027692Y002119D02*
X027308Y002119D01*
X027344Y002061D02*
X027656Y002061D01*
X027632Y002002D02*
X027368Y002002D01*
X027387Y001944D02*
X027613Y001944D01*
X027613Y001885D02*
X027387Y001885D01*
X027387Y001827D02*
X027613Y001827D01*
X027628Y001768D02*
X027372Y001768D01*
X027348Y001710D02*
X027652Y001710D01*
X027682Y001651D02*
X027318Y001651D01*
X027260Y001593D02*
X027740Y001593D01*
X027824Y001534D02*
X027176Y001534D01*
X027077Y001267D02*
X026923Y001267D01*
X026781Y001208D01*
X026672Y001099D01*
X026613Y000957D01*
X026613Y000803D01*
X026672Y000661D01*
X026781Y000552D01*
X026923Y000493D01*
X027077Y000493D01*
X027219Y000552D01*
X027328Y000661D01*
X027387Y000803D01*
X027387Y000957D01*
X027328Y001099D01*
X027219Y001208D01*
X027077Y001267D01*
X027138Y001242D02*
X027862Y001242D01*
X027756Y001183D02*
X027244Y001183D01*
X027303Y001125D02*
X027697Y001125D01*
X027658Y001066D02*
X027342Y001066D01*
X027366Y001008D02*
X027634Y001008D01*
X027613Y000949D02*
X027387Y000949D01*
X027387Y000891D02*
X027613Y000891D01*
X027613Y000832D02*
X027387Y000832D01*
X027375Y000774D02*
X027625Y000774D01*
X027650Y000715D02*
X027350Y000715D01*
X027324Y000657D02*
X027676Y000657D01*
X027735Y000598D02*
X027265Y000598D01*
X027189Y000540D02*
X027811Y000540D01*
X026811Y000540D02*
X026189Y000540D01*
X026219Y000552D02*
X026328Y000661D01*
X026387Y000803D01*
X026387Y000957D01*
X026328Y001099D01*
X026219Y001208D01*
X026077Y001267D01*
X025923Y001267D01*
X025781Y001208D01*
X025672Y001099D01*
X025613Y000957D01*
X025613Y000803D01*
X025672Y000661D01*
X025781Y000552D01*
X025923Y000493D01*
X026077Y000493D01*
X026219Y000552D01*
X026265Y000598D02*
X026735Y000598D01*
X026676Y000657D02*
X026324Y000657D01*
X026350Y000715D02*
X026650Y000715D01*
X026625Y000774D02*
X026375Y000774D01*
X026387Y000832D02*
X026613Y000832D01*
X026613Y000891D02*
X026387Y000891D01*
X026387Y000949D02*
X026613Y000949D01*
X026634Y001008D02*
X026366Y001008D01*
X026342Y001066D02*
X026658Y001066D01*
X026697Y001125D02*
X026303Y001125D01*
X026244Y001183D02*
X026756Y001183D01*
X026862Y001242D02*
X026138Y001242D01*
X026077Y001493D02*
X025923Y001493D01*
X025781Y001552D01*
X025672Y001661D01*
X025613Y001803D01*
X025613Y001957D01*
X025672Y002099D01*
X025781Y002208D01*
X025923Y002267D01*
X026077Y002267D01*
X026219Y002208D01*
X026328Y002099D01*
X026387Y001957D01*
X026387Y001803D01*
X026328Y001661D01*
X026219Y001552D01*
X026077Y001493D01*
X026176Y001534D02*
X026824Y001534D01*
X026740Y001593D02*
X026260Y001593D01*
X026318Y001651D02*
X026682Y001651D01*
X026652Y001710D02*
X026348Y001710D01*
X026372Y001768D02*
X026628Y001768D01*
X026613Y001827D02*
X026387Y001827D01*
X026387Y001885D02*
X026613Y001885D01*
X026613Y001944D02*
X026387Y001944D01*
X026368Y002002D02*
X026632Y002002D01*
X026656Y002061D02*
X026344Y002061D01*
X026308Y002119D02*
X026692Y002119D01*
X026750Y002178D02*
X026250Y002178D01*
X026151Y002236D02*
X026849Y002236D01*
X025849Y002236D02*
X025151Y002236D01*
X025219Y002208D02*
X025077Y002267D01*
X024923Y002267D01*
X024781Y002208D01*
X024672Y002099D01*
X024613Y001957D01*
X024613Y001803D01*
X024672Y001661D01*
X024781Y001552D01*
X024923Y001493D01*
X025077Y001493D01*
X025219Y001552D01*
X025328Y001661D01*
X025387Y001803D01*
X025387Y001957D01*
X025328Y002099D01*
X025219Y002208D01*
X025250Y002178D02*
X025750Y002178D01*
X025692Y002119D02*
X025308Y002119D01*
X025344Y002061D02*
X025656Y002061D01*
X025632Y002002D02*
X025368Y002002D01*
X025387Y001944D02*
X025613Y001944D01*
X025613Y001885D02*
X025387Y001885D01*
X025387Y001827D02*
X025613Y001827D01*
X025628Y001768D02*
X025372Y001768D01*
X025348Y001710D02*
X025652Y001710D01*
X025682Y001651D02*
X025318Y001651D01*
X025260Y001593D02*
X025740Y001593D01*
X025824Y001534D02*
X025176Y001534D01*
X025077Y001267D02*
X024923Y001267D01*
X024781Y001208D01*
X024672Y001099D01*
X024613Y000957D01*
X024613Y000803D01*
X024672Y000661D01*
X024781Y000552D01*
X024923Y000493D01*
X025077Y000493D01*
X025219Y000552D01*
X025328Y000661D01*
X025387Y000803D01*
X025387Y000957D01*
X025328Y001099D01*
X025219Y001208D01*
X025077Y001267D01*
X025138Y001242D02*
X025862Y001242D01*
X025756Y001183D02*
X025244Y001183D01*
X025303Y001125D02*
X025697Y001125D01*
X025658Y001066D02*
X025342Y001066D01*
X025366Y001008D02*
X025634Y001008D01*
X025613Y000949D02*
X025387Y000949D01*
X025387Y000891D02*
X025613Y000891D01*
X025613Y000832D02*
X025387Y000832D01*
X025375Y000774D02*
X025625Y000774D01*
X025650Y000715D02*
X025350Y000715D01*
X025324Y000657D02*
X025676Y000657D01*
X025735Y000598D02*
X025265Y000598D01*
X025189Y000540D02*
X025811Y000540D01*
X024811Y000540D02*
X024189Y000540D01*
X024219Y000552D02*
X024328Y000661D01*
X024387Y000803D01*
X024387Y000957D01*
X024328Y001099D01*
X024219Y001208D01*
X024077Y001267D01*
X023923Y001267D01*
X023781Y001208D01*
X023672Y001099D01*
X023613Y000957D01*
X023613Y000803D01*
X023672Y000661D01*
X023781Y000552D01*
X023923Y000493D01*
X024077Y000493D01*
X024219Y000552D01*
X024265Y000598D02*
X024735Y000598D01*
X024676Y000657D02*
X024324Y000657D01*
X024350Y000715D02*
X024650Y000715D01*
X024625Y000774D02*
X024375Y000774D01*
X024387Y000832D02*
X024613Y000832D01*
X024613Y000891D02*
X024387Y000891D01*
X024387Y000949D02*
X024613Y000949D01*
X024634Y001008D02*
X024366Y001008D01*
X024342Y001066D02*
X024658Y001066D01*
X024697Y001125D02*
X024303Y001125D01*
X024244Y001183D02*
X024756Y001183D01*
X024862Y001242D02*
X024138Y001242D01*
X024077Y001493D02*
X024219Y001552D01*
X024328Y001661D01*
X024387Y001803D01*
X024387Y001957D01*
X024328Y002099D01*
X024219Y002208D01*
X024077Y002267D01*
X023923Y002267D01*
X023781Y002208D01*
X023672Y002099D01*
X023613Y001957D01*
X023613Y001803D01*
X023672Y001661D01*
X023781Y001552D01*
X023923Y001493D01*
X024077Y001493D01*
X024176Y001534D02*
X024824Y001534D01*
X024740Y001593D02*
X024260Y001593D01*
X024318Y001651D02*
X024682Y001651D01*
X024652Y001710D02*
X024348Y001710D01*
X024372Y001768D02*
X024628Y001768D01*
X024613Y001827D02*
X024387Y001827D01*
X024387Y001885D02*
X024613Y001885D01*
X024613Y001944D02*
X024387Y001944D01*
X024368Y002002D02*
X024632Y002002D01*
X024656Y002061D02*
X024344Y002061D01*
X024308Y002119D02*
X024692Y002119D01*
X024750Y002178D02*
X024250Y002178D01*
X024151Y002236D02*
X024849Y002236D01*
X023849Y002236D02*
X023151Y002236D01*
X023219Y002208D02*
X023077Y002267D01*
X022923Y002267D01*
X022781Y002208D01*
X022672Y002099D01*
X022613Y001957D01*
X022613Y001803D01*
X022672Y001661D01*
X022781Y001552D01*
X022923Y001493D01*
X023077Y001493D01*
X023219Y001552D01*
X023328Y001661D01*
X023387Y001803D01*
X023387Y001957D01*
X023328Y002099D01*
X023219Y002208D01*
X023250Y002178D02*
X023750Y002178D01*
X023692Y002119D02*
X023308Y002119D01*
X023344Y002061D02*
X023656Y002061D01*
X023632Y002002D02*
X023368Y002002D01*
X023387Y001944D02*
X023613Y001944D01*
X023613Y001885D02*
X023387Y001885D01*
X023387Y001827D02*
X023613Y001827D01*
X023628Y001768D02*
X023372Y001768D01*
X023348Y001710D02*
X023652Y001710D01*
X023682Y001651D02*
X023318Y001651D01*
X023260Y001593D02*
X023740Y001593D01*
X023824Y001534D02*
X023176Y001534D01*
X023077Y001267D02*
X022923Y001267D01*
X022781Y001208D01*
X022672Y001099D01*
X022613Y000957D01*
X022613Y000803D01*
X022672Y000661D01*
X022781Y000552D01*
X022923Y000493D01*
X023077Y000493D01*
X023219Y000552D01*
X023328Y000661D01*
X023387Y000803D01*
X023387Y000957D01*
X023328Y001099D01*
X023219Y001208D01*
X023077Y001267D01*
X023138Y001242D02*
X023862Y001242D01*
X023756Y001183D02*
X023244Y001183D01*
X023303Y001125D02*
X023697Y001125D01*
X023658Y001066D02*
X023342Y001066D01*
X023366Y001008D02*
X023634Y001008D01*
X023613Y000949D02*
X023387Y000949D01*
X023387Y000891D02*
X023613Y000891D01*
X023613Y000832D02*
X023387Y000832D01*
X023375Y000774D02*
X023625Y000774D01*
X023650Y000715D02*
X023350Y000715D01*
X023324Y000657D02*
X023676Y000657D01*
X023735Y000598D02*
X023265Y000598D01*
X023189Y000540D02*
X023811Y000540D01*
X022811Y000540D02*
X022189Y000540D01*
X022219Y000552D02*
X022328Y000661D01*
X022387Y000803D01*
X022387Y000957D01*
X022328Y001099D01*
X022219Y001208D01*
X022077Y001267D01*
X021923Y001267D01*
X021781Y001208D01*
X021672Y001099D01*
X021613Y000957D01*
X021613Y000803D01*
X021672Y000661D01*
X021781Y000552D01*
X021923Y000493D01*
X022077Y000493D01*
X022219Y000552D01*
X022265Y000598D02*
X022735Y000598D01*
X022676Y000657D02*
X022324Y000657D01*
X022350Y000715D02*
X022650Y000715D01*
X022625Y000774D02*
X022375Y000774D01*
X022387Y000832D02*
X022613Y000832D01*
X022613Y000891D02*
X022387Y000891D01*
X022387Y000949D02*
X022613Y000949D01*
X022634Y001008D02*
X022366Y001008D01*
X022342Y001066D02*
X022658Y001066D01*
X022697Y001125D02*
X022303Y001125D01*
X022244Y001183D02*
X022756Y001183D01*
X022862Y001242D02*
X022138Y001242D01*
X022077Y001493D02*
X021923Y001493D01*
X021781Y001552D01*
X021672Y001661D01*
X021613Y001803D01*
X021613Y001957D01*
X021672Y002099D01*
X021781Y002208D01*
X021923Y002267D01*
X022077Y002267D01*
X022219Y002208D01*
X022328Y002099D01*
X022387Y001957D01*
X022387Y001803D01*
X022328Y001661D01*
X022219Y001552D01*
X022077Y001493D01*
X022176Y001534D02*
X022824Y001534D01*
X022740Y001593D02*
X022260Y001593D01*
X022318Y001651D02*
X022682Y001651D01*
X022652Y001710D02*
X022348Y001710D01*
X022372Y001768D02*
X022628Y001768D01*
X022613Y001827D02*
X022387Y001827D01*
X022387Y001885D02*
X022613Y001885D01*
X022613Y001944D02*
X022387Y001944D01*
X022368Y002002D02*
X022632Y002002D01*
X022656Y002061D02*
X022344Y002061D01*
X022308Y002119D02*
X022692Y002119D01*
X022750Y002178D02*
X022250Y002178D01*
X022151Y002236D02*
X022849Y002236D01*
X021849Y002236D02*
X021151Y002236D01*
X021219Y002208D02*
X021077Y002267D01*
X020923Y002267D01*
X020781Y002208D01*
X020672Y002099D01*
X020613Y001957D01*
X020613Y001803D01*
X020672Y001661D01*
X020781Y001552D01*
X020923Y001493D01*
X021077Y001493D01*
X021219Y001552D01*
X021328Y001661D01*
X021387Y001803D01*
X021387Y001957D01*
X021328Y002099D01*
X021219Y002208D01*
X021250Y002178D02*
X021750Y002178D01*
X021692Y002119D02*
X021308Y002119D01*
X021344Y002061D02*
X021656Y002061D01*
X021632Y002002D02*
X021368Y002002D01*
X021387Y001944D02*
X021613Y001944D01*
X021613Y001885D02*
X021387Y001885D01*
X021387Y001827D02*
X021613Y001827D01*
X021628Y001768D02*
X021372Y001768D01*
X021348Y001710D02*
X021652Y001710D01*
X021682Y001651D02*
X021318Y001651D01*
X021260Y001593D02*
X021740Y001593D01*
X021824Y001534D02*
X021176Y001534D01*
X021077Y001267D02*
X020923Y001267D01*
X020781Y001208D01*
X020672Y001099D01*
X020613Y000957D01*
X020613Y000803D01*
X020672Y000661D01*
X020781Y000552D01*
X020923Y000493D01*
X021077Y000493D01*
X021219Y000552D01*
X021328Y000661D01*
X021387Y000803D01*
X021387Y000957D01*
X021328Y001099D01*
X021219Y001208D01*
X021077Y001267D01*
X021138Y001242D02*
X021862Y001242D01*
X021756Y001183D02*
X021244Y001183D01*
X021303Y001125D02*
X021697Y001125D01*
X021658Y001066D02*
X021342Y001066D01*
X021366Y001008D02*
X021634Y001008D01*
X021613Y000949D02*
X021387Y000949D01*
X021387Y000891D02*
X021613Y000891D01*
X021613Y000832D02*
X021387Y000832D01*
X021375Y000774D02*
X021625Y000774D01*
X021650Y000715D02*
X021350Y000715D01*
X021324Y000657D02*
X021676Y000657D01*
X021735Y000598D02*
X021265Y000598D01*
X021189Y000540D02*
X021811Y000540D01*
X020811Y000540D02*
X020189Y000540D01*
X020219Y000552D02*
X020328Y000661D01*
X020387Y000803D01*
X020387Y000957D01*
X020328Y001099D01*
X020219Y001208D01*
X020077Y001267D01*
X019923Y001267D01*
X019781Y001208D01*
X019672Y001099D01*
X019613Y000957D01*
X019613Y000803D01*
X019672Y000661D01*
X019781Y000552D01*
X019923Y000493D01*
X020077Y000493D01*
X020219Y000552D01*
X020265Y000598D02*
X020735Y000598D01*
X020676Y000657D02*
X020324Y000657D01*
X020350Y000715D02*
X020650Y000715D01*
X020625Y000774D02*
X020375Y000774D01*
X020387Y000832D02*
X020613Y000832D01*
X020613Y000891D02*
X020387Y000891D01*
X020387Y000949D02*
X020613Y000949D01*
X020634Y001008D02*
X020366Y001008D01*
X020342Y001066D02*
X020658Y001066D01*
X020697Y001125D02*
X020303Y001125D01*
X020244Y001183D02*
X020756Y001183D01*
X020862Y001242D02*
X020138Y001242D01*
X020077Y001493D02*
X020219Y001552D01*
X020328Y001661D01*
X020387Y001803D01*
X020387Y001957D01*
X020328Y002099D01*
X020219Y002208D01*
X020077Y002267D01*
X019923Y002267D01*
X019781Y002208D01*
X019672Y002099D01*
X019613Y001957D01*
X019613Y001803D01*
X019672Y001661D01*
X019781Y001552D01*
X019923Y001493D01*
X020077Y001493D01*
X020176Y001534D02*
X020824Y001534D01*
X020740Y001593D02*
X020260Y001593D01*
X020318Y001651D02*
X020682Y001651D01*
X020652Y001710D02*
X020348Y001710D01*
X020372Y001768D02*
X020628Y001768D01*
X020613Y001827D02*
X020387Y001827D01*
X020387Y001885D02*
X020613Y001885D01*
X020613Y001944D02*
X020387Y001944D01*
X020368Y002002D02*
X020632Y002002D01*
X020656Y002061D02*
X020344Y002061D01*
X020308Y002119D02*
X020692Y002119D01*
X020750Y002178D02*
X020250Y002178D01*
X020151Y002236D02*
X020849Y002236D01*
X019849Y002236D02*
X019151Y002236D01*
X019219Y002208D02*
X019077Y002267D01*
X018923Y002267D01*
X018781Y002208D01*
X018672Y002099D01*
X018613Y001957D01*
X018613Y001803D01*
X018672Y001661D01*
X018781Y001552D01*
X018923Y001493D01*
X019077Y001493D01*
X019219Y001552D01*
X019328Y001661D01*
X019387Y001803D01*
X019387Y001957D01*
X019328Y002099D01*
X019219Y002208D01*
X019250Y002178D02*
X019750Y002178D01*
X019692Y002119D02*
X019308Y002119D01*
X019344Y002061D02*
X019656Y002061D01*
X019632Y002002D02*
X019368Y002002D01*
X019387Y001944D02*
X019613Y001944D01*
X019613Y001885D02*
X019387Y001885D01*
X019387Y001827D02*
X019613Y001827D01*
X019628Y001768D02*
X019372Y001768D01*
X019348Y001710D02*
X019652Y001710D01*
X019682Y001651D02*
X019318Y001651D01*
X019260Y001593D02*
X019740Y001593D01*
X019824Y001534D02*
X019176Y001534D01*
X019077Y001267D02*
X018923Y001267D01*
X018781Y001208D01*
X018672Y001099D01*
X018613Y000957D01*
X018613Y000803D01*
X018672Y000661D01*
X018781Y000552D01*
X018923Y000493D01*
X019077Y000493D01*
X019219Y000552D01*
X019328Y000661D01*
X019387Y000803D01*
X019387Y000957D01*
X019328Y001099D01*
X019219Y001208D01*
X019077Y001267D01*
X019138Y001242D02*
X019862Y001242D01*
X019756Y001183D02*
X019244Y001183D01*
X019303Y001125D02*
X019697Y001125D01*
X019658Y001066D02*
X019342Y001066D01*
X019366Y001008D02*
X019634Y001008D01*
X019613Y000949D02*
X019387Y000949D01*
X019387Y000891D02*
X019613Y000891D01*
X019613Y000832D02*
X019387Y000832D01*
X019375Y000774D02*
X019625Y000774D01*
X019650Y000715D02*
X019350Y000715D01*
X019324Y000657D02*
X019676Y000657D01*
X019735Y000598D02*
X019265Y000598D01*
X019189Y000540D02*
X019811Y000540D01*
X018811Y000540D02*
X018189Y000540D01*
X018219Y000552D02*
X018328Y000661D01*
X018387Y000803D01*
X018387Y000957D01*
X018328Y001099D01*
X018219Y001208D01*
X018077Y001267D01*
X017923Y001267D01*
X017781Y001208D01*
X017672Y001099D01*
X017613Y000957D01*
X017613Y000803D01*
X017672Y000661D01*
X017781Y000552D01*
X017923Y000493D01*
X018077Y000493D01*
X018219Y000552D01*
X018265Y000598D02*
X018735Y000598D01*
X018676Y000657D02*
X018324Y000657D01*
X018350Y000715D02*
X018650Y000715D01*
X018625Y000774D02*
X018375Y000774D01*
X018387Y000832D02*
X018613Y000832D01*
X018613Y000891D02*
X018387Y000891D01*
X018387Y000949D02*
X018613Y000949D01*
X018634Y001008D02*
X018366Y001008D01*
X018342Y001066D02*
X018658Y001066D01*
X018697Y001125D02*
X018303Y001125D01*
X018244Y001183D02*
X018756Y001183D01*
X018862Y001242D02*
X018138Y001242D01*
X018077Y001493D02*
X017923Y001493D01*
X017781Y001552D01*
X017672Y001661D01*
X017613Y001803D01*
X017613Y001957D01*
X017672Y002099D01*
X017781Y002208D01*
X017923Y002267D01*
X018077Y002267D01*
X018219Y002208D01*
X018328Y002099D01*
X018387Y001957D01*
X018387Y001803D01*
X018328Y001661D01*
X018219Y001552D01*
X018077Y001493D01*
X018176Y001534D02*
X018824Y001534D01*
X018740Y001593D02*
X018260Y001593D01*
X018318Y001651D02*
X018682Y001651D01*
X018652Y001710D02*
X018348Y001710D01*
X018372Y001768D02*
X018628Y001768D01*
X018613Y001827D02*
X018387Y001827D01*
X018387Y001885D02*
X018613Y001885D01*
X018613Y001944D02*
X018387Y001944D01*
X018368Y002002D02*
X018632Y002002D01*
X018656Y002061D02*
X018344Y002061D01*
X018308Y002119D02*
X018692Y002119D01*
X018750Y002178D02*
X018250Y002178D01*
X018151Y002236D02*
X018849Y002236D01*
X017849Y002236D02*
X017151Y002236D01*
X017219Y002208D02*
X017077Y002267D01*
X016923Y002267D01*
X016781Y002208D01*
X016672Y002099D01*
X016613Y001957D01*
X016613Y001803D01*
X016672Y001661D01*
X016781Y001552D01*
X016923Y001493D01*
X017077Y001493D01*
X017219Y001552D01*
X017328Y001661D01*
X017387Y001803D01*
X017387Y001957D01*
X017328Y002099D01*
X017219Y002208D01*
X017250Y002178D02*
X017750Y002178D01*
X017692Y002119D02*
X017308Y002119D01*
X017344Y002061D02*
X017656Y002061D01*
X017632Y002002D02*
X017368Y002002D01*
X017387Y001944D02*
X017613Y001944D01*
X017613Y001885D02*
X017387Y001885D01*
X017387Y001827D02*
X017613Y001827D01*
X017628Y001768D02*
X017372Y001768D01*
X017348Y001710D02*
X017652Y001710D01*
X017682Y001651D02*
X017318Y001651D01*
X017260Y001593D02*
X017740Y001593D01*
X017824Y001534D02*
X017176Y001534D01*
X017077Y001267D02*
X016923Y001267D01*
X016781Y001208D01*
X016672Y001099D01*
X016613Y000957D01*
X016613Y000803D01*
X016672Y000661D01*
X016781Y000552D01*
X016923Y000493D01*
X017077Y000493D01*
X017219Y000552D01*
X017328Y000661D01*
X017387Y000803D01*
X017387Y000957D01*
X017328Y001099D01*
X017219Y001208D01*
X017077Y001267D01*
X017138Y001242D02*
X017862Y001242D01*
X017756Y001183D02*
X017244Y001183D01*
X017303Y001125D02*
X017697Y001125D01*
X017658Y001066D02*
X017342Y001066D01*
X017366Y001008D02*
X017634Y001008D01*
X017613Y000949D02*
X017387Y000949D01*
X017387Y000891D02*
X017613Y000891D01*
X017613Y000832D02*
X017387Y000832D01*
X017375Y000774D02*
X017625Y000774D01*
X017650Y000715D02*
X017350Y000715D01*
X017324Y000657D02*
X017676Y000657D01*
X017735Y000598D02*
X017265Y000598D01*
X017189Y000540D02*
X017811Y000540D01*
X016811Y000540D02*
X016189Y000540D01*
X016219Y000552D02*
X016328Y000661D01*
X016387Y000803D01*
X016387Y000957D01*
X016328Y001099D01*
X016219Y001208D01*
X016077Y001267D01*
X015923Y001267D01*
X015781Y001208D01*
X015672Y001099D01*
X015613Y000957D01*
X015613Y000803D01*
X015672Y000661D01*
X015781Y000552D01*
X015923Y000493D01*
X016077Y000493D01*
X016219Y000552D01*
X016265Y000598D02*
X016735Y000598D01*
X016676Y000657D02*
X016324Y000657D01*
X016350Y000715D02*
X016650Y000715D01*
X016625Y000774D02*
X016375Y000774D01*
X016387Y000832D02*
X016613Y000832D01*
X016613Y000891D02*
X016387Y000891D01*
X016387Y000949D02*
X016613Y000949D01*
X016634Y001008D02*
X016366Y001008D01*
X016342Y001066D02*
X016658Y001066D01*
X016697Y001125D02*
X016303Y001125D01*
X016244Y001183D02*
X016756Y001183D01*
X016862Y001242D02*
X016138Y001242D01*
X016077Y001493D02*
X016219Y001552D01*
X016328Y001661D01*
X016387Y001803D01*
X016387Y001957D01*
X016328Y002099D01*
X016219Y002208D01*
X016077Y002267D01*
X015923Y002267D01*
X015781Y002208D01*
X015672Y002099D01*
X015613Y001957D01*
X015613Y001803D01*
X015672Y001661D01*
X015781Y001552D01*
X015923Y001493D01*
X016077Y001493D01*
X016176Y001534D02*
X016824Y001534D01*
X016740Y001593D02*
X016260Y001593D01*
X016318Y001651D02*
X016682Y001651D01*
X016652Y001710D02*
X016348Y001710D01*
X016372Y001768D02*
X016628Y001768D01*
X016613Y001827D02*
X016387Y001827D01*
X016387Y001885D02*
X016613Y001885D01*
X016613Y001944D02*
X016387Y001944D01*
X016368Y002002D02*
X016632Y002002D01*
X016656Y002061D02*
X016344Y002061D01*
X016308Y002119D02*
X016692Y002119D01*
X016750Y002178D02*
X016250Y002178D01*
X016151Y002236D02*
X016849Y002236D01*
X015849Y002236D02*
X015151Y002236D01*
X015219Y002208D02*
X015077Y002267D01*
X014923Y002267D01*
X014781Y002208D01*
X014672Y002099D01*
X014613Y001957D01*
X014613Y001803D01*
X014672Y001661D01*
X014781Y001552D01*
X014923Y001493D01*
X015077Y001493D01*
X015219Y001552D01*
X015328Y001661D01*
X015387Y001803D01*
X015387Y001957D01*
X015328Y002099D01*
X015219Y002208D01*
X015250Y002178D02*
X015750Y002178D01*
X015692Y002119D02*
X015308Y002119D01*
X015344Y002061D02*
X015656Y002061D01*
X015632Y002002D02*
X015368Y002002D01*
X015387Y001944D02*
X015613Y001944D01*
X015613Y001885D02*
X015387Y001885D01*
X015387Y001827D02*
X015613Y001827D01*
X015628Y001768D02*
X015372Y001768D01*
X015348Y001710D02*
X015652Y001710D01*
X015682Y001651D02*
X015318Y001651D01*
X015260Y001593D02*
X015740Y001593D01*
X015824Y001534D02*
X015176Y001534D01*
X015077Y001267D02*
X014923Y001267D01*
X014781Y001208D01*
X014672Y001099D01*
X014613Y000957D01*
X014613Y000803D01*
X014672Y000661D01*
X014781Y000552D01*
X014923Y000493D01*
X015077Y000493D01*
X015219Y000552D01*
X015328Y000661D01*
X015387Y000803D01*
X015387Y000957D01*
X015328Y001099D01*
X015219Y001208D01*
X015077Y001267D01*
X015138Y001242D02*
X015862Y001242D01*
X015756Y001183D02*
X015244Y001183D01*
X015303Y001125D02*
X015697Y001125D01*
X015658Y001066D02*
X015342Y001066D01*
X015366Y001008D02*
X015634Y001008D01*
X015613Y000949D02*
X015387Y000949D01*
X015387Y000891D02*
X015613Y000891D01*
X015613Y000832D02*
X015387Y000832D01*
X015375Y000774D02*
X015625Y000774D01*
X015650Y000715D02*
X015350Y000715D01*
X015324Y000657D02*
X015676Y000657D01*
X015735Y000598D02*
X015265Y000598D01*
X015189Y000540D02*
X015811Y000540D01*
X014811Y000540D02*
X014189Y000540D01*
X014219Y000552D02*
X014328Y000661D01*
X014387Y000803D01*
X014387Y000957D01*
X014328Y001099D01*
X014219Y001208D01*
X014077Y001267D01*
X013923Y001267D01*
X013781Y001208D01*
X013672Y001099D01*
X013613Y000957D01*
X013613Y000803D01*
X013672Y000661D01*
X013781Y000552D01*
X013923Y000493D01*
X014077Y000493D01*
X014219Y000552D01*
X014265Y000598D02*
X014735Y000598D01*
X014676Y000657D02*
X014324Y000657D01*
X014350Y000715D02*
X014650Y000715D01*
X014625Y000774D02*
X014375Y000774D01*
X014387Y000832D02*
X014613Y000832D01*
X014613Y000891D02*
X014387Y000891D01*
X014387Y000949D02*
X014613Y000949D01*
X014634Y001008D02*
X014366Y001008D01*
X014342Y001066D02*
X014658Y001066D01*
X014697Y001125D02*
X014303Y001125D01*
X014244Y001183D02*
X014756Y001183D01*
X014862Y001242D02*
X014138Y001242D01*
X014077Y001493D02*
X014219Y001552D01*
X014328Y001661D01*
X014387Y001803D01*
X014387Y001957D01*
X014328Y002099D01*
X014219Y002208D01*
X014077Y002267D01*
X013923Y002267D01*
X013781Y002208D01*
X013672Y002099D01*
X013613Y001957D01*
X013613Y001803D01*
X013672Y001661D01*
X013781Y001552D01*
X013923Y001493D01*
X014077Y001493D01*
X014176Y001534D02*
X014824Y001534D01*
X014740Y001593D02*
X014260Y001593D01*
X014318Y001651D02*
X014682Y001651D01*
X014652Y001710D02*
X014348Y001710D01*
X014372Y001768D02*
X014628Y001768D01*
X014613Y001827D02*
X014387Y001827D01*
X014387Y001885D02*
X014613Y001885D01*
X014613Y001944D02*
X014387Y001944D01*
X014368Y002002D02*
X014632Y002002D01*
X014656Y002061D02*
X014344Y002061D01*
X014308Y002119D02*
X014692Y002119D01*
X014750Y002178D02*
X014250Y002178D01*
X014151Y002236D02*
X014849Y002236D01*
X013849Y002236D02*
X013151Y002236D01*
X013219Y002208D02*
X013077Y002267D01*
X012923Y002267D01*
X012781Y002208D01*
X012672Y002099D01*
X012613Y001957D01*
X012613Y001803D01*
X012672Y001661D01*
X012781Y001552D01*
X012923Y001493D01*
X013077Y001493D01*
X013219Y001552D01*
X013328Y001661D01*
X013387Y001803D01*
X013387Y001957D01*
X013328Y002099D01*
X013219Y002208D01*
X013250Y002178D02*
X013750Y002178D01*
X013692Y002119D02*
X013308Y002119D01*
X013344Y002061D02*
X013656Y002061D01*
X013632Y002002D02*
X013368Y002002D01*
X013387Y001944D02*
X013613Y001944D01*
X013613Y001885D02*
X013387Y001885D01*
X013387Y001827D02*
X013613Y001827D01*
X013628Y001768D02*
X013372Y001768D01*
X013348Y001710D02*
X013652Y001710D01*
X013682Y001651D02*
X013318Y001651D01*
X013260Y001593D02*
X013740Y001593D01*
X013824Y001534D02*
X013176Y001534D01*
X013077Y001267D02*
X012923Y001267D01*
X012781Y001208D01*
X012672Y001099D01*
X012613Y000957D01*
X012613Y000803D01*
X012672Y000661D01*
X012781Y000552D01*
X012923Y000493D01*
X013077Y000493D01*
X013219Y000552D01*
X013328Y000661D01*
X013387Y000803D01*
X013387Y000957D01*
X013328Y001099D01*
X013219Y001208D01*
X013077Y001267D01*
X013138Y001242D02*
X013862Y001242D01*
X013756Y001183D02*
X013244Y001183D01*
X013303Y001125D02*
X013697Y001125D01*
X013658Y001066D02*
X013342Y001066D01*
X013366Y001008D02*
X013634Y001008D01*
X013613Y000949D02*
X013387Y000949D01*
X013387Y000891D02*
X013613Y000891D01*
X013613Y000832D02*
X013387Y000832D01*
X013375Y000774D02*
X013625Y000774D01*
X013650Y000715D02*
X013350Y000715D01*
X013324Y000657D02*
X013676Y000657D01*
X013735Y000598D02*
X013265Y000598D01*
X013189Y000540D02*
X013811Y000540D01*
X012811Y000540D02*
X012189Y000540D01*
X012219Y000552D02*
X012328Y000661D01*
X012387Y000803D01*
X012387Y000957D01*
X012328Y001099D01*
X012219Y001208D01*
X012077Y001267D01*
X011923Y001267D01*
X011781Y001208D01*
X011672Y001099D01*
X011613Y000957D01*
X011613Y000803D01*
X011672Y000661D01*
X011781Y000552D01*
X011923Y000493D01*
X012077Y000493D01*
X012219Y000552D01*
X012265Y000598D02*
X012735Y000598D01*
X012676Y000657D02*
X012324Y000657D01*
X012350Y000715D02*
X012650Y000715D01*
X012625Y000774D02*
X012375Y000774D01*
X012387Y000832D02*
X012613Y000832D01*
X012613Y000891D02*
X012387Y000891D01*
X012387Y000949D02*
X012613Y000949D01*
X012634Y001008D02*
X012366Y001008D01*
X012342Y001066D02*
X012658Y001066D01*
X012697Y001125D02*
X012303Y001125D01*
X012244Y001183D02*
X012756Y001183D01*
X012862Y001242D02*
X012138Y001242D01*
X012077Y001493D02*
X011923Y001493D01*
X011781Y001552D01*
X011672Y001661D01*
X011613Y001803D01*
X011613Y001957D01*
X011672Y002099D01*
X011781Y002208D01*
X011923Y002267D01*
X012077Y002267D01*
X012219Y002208D01*
X012328Y002099D01*
X012387Y001957D01*
X012387Y001803D01*
X012328Y001661D01*
X012219Y001552D01*
X012077Y001493D01*
X012176Y001534D02*
X012824Y001534D01*
X012740Y001593D02*
X012260Y001593D01*
X012318Y001651D02*
X012682Y001651D01*
X012652Y001710D02*
X012348Y001710D01*
X012372Y001768D02*
X012628Y001768D01*
X012613Y001827D02*
X012387Y001827D01*
X012387Y001885D02*
X012613Y001885D01*
X012613Y001944D02*
X012387Y001944D01*
X012368Y002002D02*
X012632Y002002D01*
X012656Y002061D02*
X012344Y002061D01*
X012308Y002119D02*
X012692Y002119D01*
X012750Y002178D02*
X012250Y002178D01*
X012151Y002236D02*
X012849Y002236D01*
X011849Y002236D02*
X011151Y002236D01*
X011219Y002208D02*
X011077Y002267D01*
X010923Y002267D01*
X010781Y002208D01*
X010672Y002099D01*
X010613Y001957D01*
X010613Y001803D01*
X010672Y001661D01*
X010781Y001552D01*
X010923Y001493D01*
X011077Y001493D01*
X011219Y001552D01*
X011328Y001661D01*
X011387Y001803D01*
X011387Y001957D01*
X011328Y002099D01*
X011219Y002208D01*
X011250Y002178D02*
X011750Y002178D01*
X011692Y002119D02*
X011308Y002119D01*
X011344Y002061D02*
X011656Y002061D01*
X011632Y002002D02*
X011368Y002002D01*
X011387Y001944D02*
X011613Y001944D01*
X011613Y001885D02*
X011387Y001885D01*
X011387Y001827D02*
X011613Y001827D01*
X011628Y001768D02*
X011372Y001768D01*
X011348Y001710D02*
X011652Y001710D01*
X011682Y001651D02*
X011318Y001651D01*
X011260Y001593D02*
X011740Y001593D01*
X011824Y001534D02*
X011176Y001534D01*
X011077Y001267D02*
X010923Y001267D01*
X010781Y001208D01*
X010672Y001099D01*
X010613Y000957D01*
X010613Y000803D01*
X010672Y000661D01*
X010781Y000552D01*
X010923Y000493D01*
X011077Y000493D01*
X011219Y000552D01*
X011328Y000661D01*
X011387Y000803D01*
X011387Y000957D01*
X011328Y001099D01*
X011219Y001208D01*
X011077Y001267D01*
X011138Y001242D02*
X011862Y001242D01*
X011756Y001183D02*
X011244Y001183D01*
X011303Y001125D02*
X011697Y001125D01*
X011658Y001066D02*
X011342Y001066D01*
X011366Y001008D02*
X011634Y001008D01*
X011613Y000949D02*
X011387Y000949D01*
X011387Y000891D02*
X011613Y000891D01*
X011613Y000832D02*
X011387Y000832D01*
X011375Y000774D02*
X011625Y000774D01*
X011650Y000715D02*
X011350Y000715D01*
X011324Y000657D02*
X011676Y000657D01*
X011735Y000598D02*
X011265Y000598D01*
X011189Y000540D02*
X011811Y000540D01*
X010811Y000540D02*
X010189Y000540D01*
X010219Y000552D02*
X010328Y000661D01*
X010387Y000803D01*
X010387Y000957D01*
X010328Y001099D01*
X010219Y001208D01*
X010077Y001267D01*
X009923Y001267D01*
X009781Y001208D01*
X009672Y001099D01*
X009613Y000957D01*
X009613Y000803D01*
X009672Y000661D01*
X009781Y000552D01*
X009923Y000493D01*
X010077Y000493D01*
X010219Y000552D01*
X010265Y000598D02*
X010735Y000598D01*
X010676Y000657D02*
X010324Y000657D01*
X010350Y000715D02*
X010650Y000715D01*
X010625Y000774D02*
X010375Y000774D01*
X010387Y000832D02*
X010613Y000832D01*
X010613Y000891D02*
X010387Y000891D01*
X010387Y000949D02*
X010613Y000949D01*
X010634Y001008D02*
X010366Y001008D01*
X010342Y001066D02*
X010658Y001066D01*
X010697Y001125D02*
X010303Y001125D01*
X010244Y001183D02*
X010756Y001183D01*
X010862Y001242D02*
X010138Y001242D01*
X010077Y001493D02*
X010219Y001552D01*
X010328Y001661D01*
X010387Y001803D01*
X010387Y001957D01*
X010328Y002099D01*
X010219Y002208D01*
X010077Y002267D01*
X009923Y002267D01*
X009781Y002208D01*
X009672Y002099D01*
X009613Y001957D01*
X009613Y001803D01*
X009672Y001661D01*
X009781Y001552D01*
X009923Y001493D01*
X010077Y001493D01*
X010176Y001534D02*
X010824Y001534D01*
X010740Y001593D02*
X010260Y001593D01*
X010318Y001651D02*
X010682Y001651D01*
X010652Y001710D02*
X010348Y001710D01*
X010372Y001768D02*
X010628Y001768D01*
X010613Y001827D02*
X010387Y001827D01*
X010387Y001885D02*
X010613Y001885D01*
X010613Y001944D02*
X010387Y001944D01*
X010368Y002002D02*
X010632Y002002D01*
X010656Y002061D02*
X010344Y002061D01*
X010308Y002119D02*
X010692Y002119D01*
X010750Y002178D02*
X010250Y002178D01*
X010151Y002236D02*
X010849Y002236D01*
X009849Y002236D02*
X009151Y002236D01*
X009250Y002178D02*
X009750Y002178D01*
X009692Y002119D02*
X009308Y002119D01*
X009344Y002061D02*
X009656Y002061D01*
X009632Y002002D02*
X009368Y002002D01*
X009387Y001944D02*
X009613Y001944D01*
X009613Y001885D02*
X009387Y001885D01*
X009387Y001827D02*
X009613Y001827D01*
X009628Y001768D02*
X009372Y001768D01*
X009348Y001710D02*
X009652Y001710D01*
X009682Y001651D02*
X009318Y001651D01*
X009260Y001593D02*
X009740Y001593D01*
X009824Y001534D02*
X009176Y001534D01*
X009138Y001242D02*
X009862Y001242D01*
X009756Y001183D02*
X009244Y001183D01*
X009303Y001125D02*
X009697Y001125D01*
X009658Y001066D02*
X009342Y001066D01*
X009366Y001008D02*
X009634Y001008D01*
X009613Y000949D02*
X009387Y000949D01*
X009387Y000891D02*
X009613Y000891D01*
X009613Y000832D02*
X009387Y000832D01*
X009375Y000774D02*
X009625Y000774D01*
X009650Y000715D02*
X009350Y000715D01*
X009324Y000657D02*
X009676Y000657D01*
X009735Y000598D02*
X009265Y000598D01*
X009189Y000540D02*
X009811Y000540D01*
X008811Y000540D02*
X008420Y000540D01*
X008427Y000598D02*
X008735Y000598D01*
X008676Y000657D02*
X008427Y000657D01*
X008427Y000715D02*
X008650Y000715D01*
X008625Y000774D02*
X008427Y000774D01*
X008427Y000832D02*
X008613Y000832D01*
X007573Y000832D02*
X006405Y000832D01*
X006405Y000774D02*
X007573Y000774D01*
X007573Y000715D02*
X006405Y000715D01*
X006405Y000657D02*
X007573Y000657D01*
X007573Y000598D02*
X006405Y000598D01*
X006405Y000540D02*
X007580Y000540D01*
X007621Y000481D02*
X006405Y000481D01*
X006405Y000423D02*
X030642Y000423D01*
X030822Y000481D02*
X030153Y000481D01*
X030258Y000540D02*
X031002Y000540D01*
X031182Y000598D02*
X030322Y000598D01*
X030365Y000657D02*
X031359Y000657D01*
X031474Y000715D02*
X030395Y000715D01*
X030414Y000774D02*
X031589Y000774D01*
X031704Y000832D02*
X030425Y000832D01*
X030285Y000364D02*
X006405Y000364D01*
X006405Y000306D02*
X029915Y000306D01*
X029030Y000481D02*
X028970Y000481D01*
X028970Y000540D02*
X029030Y000540D01*
X029030Y000598D02*
X028970Y000598D01*
X028970Y000657D02*
X029030Y000657D01*
X029030Y000715D02*
X028970Y000715D01*
X028970Y000774D02*
X029030Y000774D01*
X029030Y000832D02*
X028970Y000832D01*
X032526Y001359D02*
X006405Y001359D01*
X006405Y001417D02*
X032607Y001417D01*
X034075Y003582D02*
X014956Y003582D01*
X015015Y003640D02*
X034095Y003640D01*
X034114Y003699D02*
X016614Y003699D01*
X016587Y003671D02*
X016709Y003793D01*
X016709Y003967D01*
X016670Y004006D01*
X016670Y007254D01*
X016709Y007293D01*
X016709Y007467D01*
X016587Y007589D01*
X016413Y007589D01*
X016291Y007467D01*
X016291Y007293D01*
X016330Y007254D01*
X016330Y004006D01*
X016291Y003967D01*
X016291Y003793D01*
X016413Y003671D01*
X016587Y003671D01*
X016673Y003757D02*
X034133Y003757D01*
X034152Y003816D02*
X016709Y003816D01*
X016709Y003874D02*
X034171Y003874D01*
X034190Y003933D02*
X016709Y003933D01*
X016685Y003991D02*
X034209Y003991D01*
X034219Y004050D02*
X016670Y004050D01*
X016670Y004108D02*
X034228Y004108D01*
X034238Y004167D02*
X016670Y004167D01*
X016670Y004225D02*
X034247Y004225D01*
X034256Y004284D02*
X016670Y004284D01*
X016670Y004342D02*
X034265Y004342D01*
X034275Y004401D02*
X016670Y004401D01*
X016670Y004459D02*
X034284Y004459D01*
X034293Y004518D02*
X016670Y004518D01*
X016670Y004576D02*
X034303Y004576D01*
X034312Y004635D02*
X016670Y004635D01*
X016670Y004693D02*
X034321Y004693D01*
X034330Y004752D02*
X016670Y004752D01*
X016670Y004810D02*
X034332Y004810D01*
X034335Y004869D02*
X016670Y004869D01*
X016670Y004927D02*
X024907Y004927D01*
X024913Y004921D02*
X025087Y004921D01*
X025209Y005043D01*
X025209Y005217D01*
X025087Y005339D01*
X024913Y005339D01*
X024874Y005300D01*
X023320Y005300D01*
X023209Y005411D01*
X023209Y005467D01*
X023087Y005589D01*
X022913Y005589D01*
X022791Y005467D01*
X022791Y005293D01*
X022913Y005171D01*
X022969Y005171D01*
X023180Y004960D01*
X024874Y004960D01*
X024913Y004921D01*
X025093Y004927D02*
X034337Y004927D01*
X034339Y004986D02*
X025151Y004986D01*
X025209Y005044D02*
X034342Y005044D01*
X034344Y005103D02*
X025209Y005103D01*
X025209Y005161D02*
X031940Y005161D01*
X032039Y005120D02*
X032341Y005120D01*
X032620Y005236D01*
X032834Y005450D01*
X032950Y005729D01*
X032950Y006031D01*
X032834Y006310D01*
X032620Y006524D01*
X032341Y006640D01*
X032039Y006640D01*
X031760Y006524D01*
X031546Y006310D01*
X031430Y006031D01*
X031430Y005729D01*
X031546Y005450D01*
X031760Y005236D01*
X032039Y005120D01*
X031799Y005220D02*
X025206Y005220D01*
X025148Y005278D02*
X031717Y005278D01*
X031659Y005337D02*
X025089Y005337D01*
X024911Y005337D02*
X023284Y005337D01*
X023225Y005395D02*
X031600Y005395D01*
X031544Y005454D02*
X023209Y005454D01*
X023164Y005512D02*
X031520Y005512D01*
X031496Y005571D02*
X023105Y005571D01*
X022895Y005571D02*
X016670Y005571D01*
X016670Y005629D02*
X031471Y005629D01*
X031447Y005688D02*
X016670Y005688D01*
X016670Y005746D02*
X031430Y005746D01*
X031430Y005805D02*
X016670Y005805D01*
X016670Y005863D02*
X031430Y005863D01*
X031430Y005922D02*
X030099Y005922D01*
X030097Y005920D02*
X030150Y005973D01*
X030150Y006740D01*
X030594Y006740D01*
X030663Y006671D01*
X030837Y006671D01*
X030959Y006793D01*
X030959Y006967D01*
X030837Y007089D01*
X030663Y007089D01*
X030594Y007020D01*
X029981Y007020D01*
X030080Y007119D01*
X030130Y007240D01*
X030844Y007240D01*
X030913Y007171D01*
X031087Y007171D01*
X031209Y007293D01*
X031209Y007467D01*
X031087Y007589D01*
X030913Y007589D01*
X030844Y007520D01*
X030130Y007520D01*
X030080Y007641D01*
X029951Y007770D01*
X029781Y007840D01*
X029598Y007840D01*
X029429Y007770D01*
X029300Y007641D01*
X029230Y007471D01*
X029230Y007288D01*
X029300Y007119D01*
X029399Y007020D01*
X029130Y007020D01*
X029080Y007141D01*
X028951Y007270D01*
X028781Y007340D01*
X028598Y007340D01*
X028429Y007270D01*
X028300Y007141D01*
X028230Y006971D01*
X028230Y006788D01*
X028300Y006619D01*
X028429Y006490D01*
X028598Y006420D01*
X028781Y006420D01*
X028951Y006490D01*
X029080Y006619D01*
X029130Y006740D01*
X029230Y006740D01*
X029230Y005973D01*
X029283Y005920D01*
X030097Y005920D01*
X030150Y005980D02*
X031430Y005980D01*
X031433Y006039D02*
X030150Y006039D01*
X030150Y006097D02*
X031457Y006097D01*
X031482Y006156D02*
X030150Y006156D01*
X030150Y006214D02*
X031506Y006214D01*
X031530Y006273D02*
X030150Y006273D01*
X030150Y006331D02*
X031566Y006331D01*
X031625Y006390D02*
X030150Y006390D01*
X030150Y006448D02*
X031683Y006448D01*
X031742Y006507D02*
X030150Y006507D01*
X030150Y006565D02*
X031858Y006565D01*
X031999Y006624D02*
X030150Y006624D01*
X030150Y006682D02*
X030652Y006682D01*
X030848Y006682D02*
X034345Y006682D01*
X034345Y006624D02*
X032381Y006624D01*
X032522Y006565D02*
X034345Y006565D01*
X034345Y006507D02*
X032638Y006507D01*
X032697Y006448D02*
X034345Y006448D01*
X034345Y006390D02*
X032755Y006390D01*
X032814Y006331D02*
X034345Y006331D01*
X034345Y006273D02*
X032850Y006273D01*
X032874Y006214D02*
X034345Y006214D01*
X034345Y006156D02*
X032898Y006156D01*
X032923Y006097D02*
X034345Y006097D01*
X034345Y006039D02*
X032947Y006039D01*
X032950Y005980D02*
X034345Y005980D01*
X034345Y005922D02*
X032950Y005922D01*
X032950Y005863D02*
X034345Y005863D01*
X034345Y005805D02*
X032950Y005805D01*
X032950Y005746D02*
X034345Y005746D01*
X034345Y005688D02*
X032933Y005688D01*
X032909Y005629D02*
X034345Y005629D01*
X034345Y005571D02*
X032884Y005571D01*
X032860Y005512D02*
X034345Y005512D01*
X034345Y005454D02*
X032836Y005454D01*
X032780Y005395D02*
X034345Y005395D01*
X034345Y005337D02*
X032721Y005337D01*
X032663Y005278D02*
X034345Y005278D01*
X034345Y005220D02*
X032581Y005220D01*
X032440Y005161D02*
X034345Y005161D01*
X034345Y006741D02*
X030906Y006741D01*
X030959Y006799D02*
X034345Y006799D01*
X034345Y006858D02*
X030959Y006858D01*
X030959Y006916D02*
X034345Y006916D01*
X034345Y006975D02*
X030951Y006975D01*
X030893Y007033D02*
X034345Y007033D01*
X034345Y007092D02*
X030052Y007092D01*
X030093Y007150D02*
X034345Y007150D01*
X034345Y007209D02*
X031124Y007209D01*
X031183Y007267D02*
X034345Y007267D01*
X034345Y007326D02*
X031209Y007326D01*
X031209Y007384D02*
X034345Y007384D01*
X034345Y007443D02*
X031209Y007443D01*
X031175Y007501D02*
X034345Y007501D01*
X034345Y007560D02*
X031116Y007560D01*
X030884Y007560D02*
X030114Y007560D01*
X030089Y007618D02*
X034345Y007618D01*
X034345Y007677D02*
X030044Y007677D01*
X029986Y007735D02*
X034345Y007735D01*
X034345Y007794D02*
X029894Y007794D01*
X029781Y007920D02*
X029951Y007990D01*
X030080Y008119D01*
X030150Y008288D01*
X030150Y008471D01*
X030080Y008641D01*
X029981Y008740D01*
X031094Y008740D01*
X031163Y008671D01*
X030050Y008671D01*
X030092Y008613D02*
X034345Y008613D01*
X034345Y008671D02*
X031337Y008671D01*
X031459Y008793D01*
X031459Y008967D01*
X031337Y009089D01*
X031163Y009089D01*
X031094Y009020D01*
X030037Y009020D01*
X030071Y009054D01*
X030118Y009118D01*
X030153Y009188D01*
X030178Y009263D01*
X030190Y009341D01*
X030190Y009350D01*
X029720Y009350D01*
X029720Y009410D01*
X029660Y009410D01*
X029660Y009880D01*
X029651Y009880D01*
X029573Y009868D01*
X029498Y009843D01*
X029428Y009808D01*
X029364Y009761D01*
X029309Y009706D01*
X029262Y009642D01*
X029227Y009572D01*
X029202Y009497D01*
X029190Y009419D01*
X029190Y009410D01*
X029660Y009410D01*
X029660Y009350D01*
X029190Y009350D01*
X029190Y009341D01*
X029202Y009263D01*
X029227Y009188D01*
X029262Y009118D01*
X029309Y009054D01*
X029343Y009020D01*
X029130Y009020D01*
X029080Y009141D01*
X028951Y009270D01*
X028781Y009340D01*
X028598Y009340D01*
X028429Y009270D01*
X028300Y009141D01*
X028230Y008971D01*
X028230Y008788D01*
X008655Y008788D01*
X008655Y008730D02*
X028254Y008730D01*
X028230Y008788D02*
X028300Y008619D01*
X028429Y008490D01*
X028598Y008420D01*
X028781Y008420D01*
X028951Y008490D01*
X029080Y008619D01*
X029130Y008740D01*
X029399Y008740D01*
X029300Y008641D01*
X029230Y008471D01*
X029230Y008288D01*
X029300Y008119D01*
X029429Y007990D01*
X029598Y007920D01*
X029781Y007920D01*
X029900Y007969D02*
X034345Y007969D01*
X034345Y007911D02*
X029150Y007911D01*
X029150Y007969D02*
X029480Y007969D01*
X029392Y008028D02*
X029127Y008028D01*
X029150Y007971D02*
X029080Y008141D01*
X028951Y008270D01*
X028781Y008340D01*
X028598Y008340D01*
X028429Y008270D01*
X028300Y008141D01*
X028230Y007971D01*
X028230Y007788D01*
X028300Y007619D01*
X028429Y007490D01*
X028598Y007420D01*
X028781Y007420D01*
X028951Y007490D01*
X029080Y007619D01*
X029150Y007788D01*
X029150Y007971D01*
X029150Y007852D02*
X034345Y007852D01*
X034345Y008028D02*
X029988Y008028D01*
X030047Y008086D02*
X034345Y008086D01*
X034345Y008145D02*
X030090Y008145D01*
X030115Y008203D02*
X034345Y008203D01*
X034345Y008262D02*
X030139Y008262D01*
X030150Y008320D02*
X034345Y008320D01*
X034345Y008379D02*
X030150Y008379D01*
X030150Y008437D02*
X034345Y008437D01*
X034345Y008496D02*
X030140Y008496D01*
X030116Y008554D02*
X034345Y008554D01*
X034345Y008730D02*
X031395Y008730D01*
X031454Y008788D02*
X034345Y008788D01*
X034345Y008847D02*
X031459Y008847D01*
X031459Y008905D02*
X034345Y008905D01*
X034345Y008964D02*
X031459Y008964D01*
X031404Y009022D02*
X034345Y009022D01*
X034345Y009081D02*
X031345Y009081D01*
X031155Y009081D02*
X030090Y009081D01*
X030128Y009139D02*
X034345Y009139D01*
X034345Y009198D02*
X030156Y009198D01*
X030175Y009256D02*
X034345Y009256D01*
X034345Y009315D02*
X030186Y009315D01*
X030190Y009410D02*
X030190Y009419D01*
X030178Y009497D01*
X030153Y009572D01*
X030118Y009642D01*
X030071Y009706D01*
X030016Y009761D01*
X029952Y009808D01*
X029882Y009843D01*
X029807Y009868D01*
X029729Y009880D01*
X029720Y009880D01*
X029720Y009410D01*
X030190Y009410D01*
X030188Y009432D02*
X034345Y009432D01*
X034345Y009490D02*
X030179Y009490D01*
X030161Y009549D02*
X034345Y009549D01*
X034345Y009607D02*
X030135Y009607D01*
X030101Y009666D02*
X031929Y009666D01*
X032039Y009620D02*
X032341Y009620D01*
X032620Y009736D01*
X032834Y009950D01*
X032950Y010229D01*
X032950Y010531D01*
X032834Y010810D01*
X032620Y011024D01*
X032365Y011130D01*
X032620Y011236D01*
X032834Y011450D01*
X032950Y011729D01*
X032950Y012031D01*
X032834Y012310D01*
X032620Y012524D01*
X032341Y012640D01*
X032039Y012640D01*
X031760Y012524D01*
X031546Y012310D01*
X031430Y012031D01*
X031430Y011729D01*
X031546Y011450D01*
X031760Y011236D01*
X032015Y011130D01*
X031760Y011024D01*
X031546Y010810D01*
X031430Y010531D01*
X031430Y010229D01*
X031546Y009950D01*
X031760Y009736D01*
X032039Y009620D01*
X031788Y009724D02*
X030053Y009724D01*
X029987Y009783D02*
X031713Y009783D01*
X031654Y009841D02*
X029886Y009841D01*
X029720Y009841D02*
X029660Y009841D01*
X029660Y009783D02*
X029720Y009783D01*
X029720Y009724D02*
X029660Y009724D01*
X029660Y009666D02*
X029720Y009666D01*
X029720Y009607D02*
X029660Y009607D01*
X029660Y009549D02*
X029720Y009549D01*
X029720Y009490D02*
X029660Y009490D01*
X029660Y009432D02*
X029720Y009432D01*
X029720Y009373D02*
X034345Y009373D01*
X034345Y009666D02*
X032451Y009666D01*
X032592Y009724D02*
X034345Y009724D01*
X034345Y009783D02*
X032667Y009783D01*
X032726Y009841D02*
X034345Y009841D01*
X034345Y009900D02*
X032784Y009900D01*
X032838Y009958D02*
X034345Y009958D01*
X034345Y010017D02*
X032862Y010017D01*
X032886Y010075D02*
X034345Y010075D01*
X034345Y010134D02*
X032910Y010134D01*
X032935Y010192D02*
X034345Y010192D01*
X034345Y010251D02*
X032950Y010251D01*
X032950Y010309D02*
X034345Y010309D01*
X034345Y010368D02*
X032950Y010368D01*
X032950Y010426D02*
X034345Y010426D01*
X034345Y010485D02*
X032950Y010485D01*
X032945Y010543D02*
X034345Y010543D01*
X034345Y010602D02*
X032921Y010602D01*
X032897Y010660D02*
X034345Y010660D01*
X034345Y010719D02*
X032872Y010719D01*
X032848Y010777D02*
X034345Y010777D01*
X034345Y010836D02*
X032809Y010836D01*
X032751Y010894D02*
X034345Y010894D01*
X034345Y010953D02*
X032692Y010953D01*
X032634Y011011D02*
X034345Y011011D01*
X034345Y011070D02*
X032511Y011070D01*
X032502Y011187D02*
X034345Y011187D01*
X034345Y011245D02*
X032630Y011245D01*
X032688Y011304D02*
X034345Y011304D01*
X034345Y011362D02*
X032747Y011362D01*
X032805Y011421D02*
X034345Y011421D01*
X034345Y011479D02*
X032846Y011479D01*
X032871Y011538D02*
X034345Y011538D01*
X034345Y011596D02*
X032895Y011596D01*
X032919Y011655D02*
X034345Y011655D01*
X034345Y011713D02*
X032943Y011713D01*
X032950Y011772D02*
X034345Y011772D01*
X034345Y011830D02*
X032950Y011830D01*
X032950Y011889D02*
X034345Y011889D01*
X034345Y011947D02*
X032950Y011947D01*
X032950Y012006D02*
X034345Y012006D01*
X034345Y012064D02*
X032936Y012064D01*
X032912Y012123D02*
X034345Y012123D01*
X034345Y012181D02*
X032888Y012181D01*
X032864Y012240D02*
X034345Y012240D01*
X034345Y012298D02*
X032839Y012298D01*
X032788Y012357D02*
X034345Y012357D01*
X034345Y012415D02*
X032730Y012415D01*
X032671Y012474D02*
X034345Y012474D01*
X034345Y012532D02*
X032602Y012532D01*
X032460Y012591D02*
X034345Y012591D01*
X034345Y012649D02*
X030150Y012649D01*
X030150Y012591D02*
X031920Y012591D01*
X031778Y012532D02*
X030150Y012532D01*
X030150Y012474D02*
X031709Y012474D01*
X031650Y012415D02*
X030150Y012415D01*
X030150Y012357D02*
X031592Y012357D01*
X031541Y012298D02*
X030150Y012298D01*
X030150Y012240D02*
X031516Y012240D01*
X031492Y012181D02*
X030150Y012181D01*
X030150Y012123D02*
X031468Y012123D01*
X031444Y012064D02*
X030150Y012064D01*
X030150Y012006D02*
X031430Y012006D01*
X031430Y011947D02*
X030124Y011947D01*
X030150Y011973D02*
X030097Y011920D01*
X029283Y011920D01*
X029230Y011973D01*
X029230Y012787D01*
X029283Y012840D01*
X030097Y012840D01*
X030150Y012787D01*
X030150Y011973D01*
X030150Y012708D02*
X034345Y012708D01*
X034345Y012766D02*
X030150Y012766D01*
X030113Y012825D02*
X034345Y012825D01*
X034345Y012883D02*
X029150Y012883D01*
X029150Y012825D02*
X029267Y012825D01*
X029230Y012766D02*
X029141Y012766D01*
X029150Y012788D02*
X029080Y012619D01*
X028951Y012490D01*
X028781Y012420D01*
X028598Y012420D01*
X028429Y012490D01*
X028300Y012619D01*
X028230Y012788D01*
X028230Y012971D01*
X028300Y013141D01*
X028429Y013270D01*
X028598Y013340D01*
X028781Y013340D01*
X028951Y013270D01*
X029080Y013141D01*
X029150Y012971D01*
X029150Y012788D01*
X029116Y012708D02*
X029230Y012708D01*
X029230Y012649D02*
X029092Y012649D01*
X029051Y012591D02*
X029230Y012591D01*
X029230Y012532D02*
X028993Y012532D01*
X028911Y012474D02*
X029230Y012474D01*
X029230Y012415D02*
X008655Y012415D01*
X008655Y012357D02*
X029230Y012357D01*
X029230Y012298D02*
X008655Y012298D01*
X008655Y012240D02*
X029230Y012240D01*
X029230Y012181D02*
X008655Y012181D01*
X008655Y012123D02*
X029230Y012123D01*
X029230Y012064D02*
X008655Y012064D01*
X008655Y012006D02*
X029230Y012006D01*
X029256Y011947D02*
X008655Y011947D01*
X008655Y011889D02*
X031430Y011889D01*
X031430Y011830D02*
X008655Y011830D01*
X008655Y011772D02*
X031430Y011772D01*
X031437Y011713D02*
X008655Y011713D01*
X008655Y011655D02*
X031461Y011655D01*
X031485Y011596D02*
X008655Y011596D01*
X008655Y011538D02*
X031509Y011538D01*
X031534Y011479D02*
X008655Y011479D01*
X008655Y011421D02*
X031575Y011421D01*
X031633Y011362D02*
X008655Y011362D01*
X008655Y011304D02*
X031692Y011304D01*
X031750Y011245D02*
X008655Y011245D01*
X008655Y011187D02*
X031878Y011187D01*
X031869Y011070D02*
X008655Y011070D01*
X008655Y011128D02*
X032010Y011128D01*
X031746Y011011D02*
X008655Y011011D01*
X008655Y010953D02*
X031688Y010953D01*
X031629Y010894D02*
X008655Y010894D01*
X008655Y010836D02*
X031571Y010836D01*
X031532Y010777D02*
X008655Y010777D01*
X008655Y010719D02*
X031508Y010719D01*
X031483Y010660D02*
X008655Y010660D01*
X008655Y010602D02*
X031459Y010602D01*
X031435Y010543D02*
X008655Y010543D01*
X008655Y010485D02*
X031430Y010485D01*
X031430Y010426D02*
X008655Y010426D01*
X008655Y010368D02*
X028572Y010368D01*
X028573Y010368D02*
X028498Y010343D01*
X028428Y010308D01*
X028364Y010261D01*
X028309Y010206D01*
X028262Y010142D01*
X028227Y010072D01*
X028202Y009997D01*
X028190Y009919D01*
X028190Y009910D01*
X028660Y009910D01*
X028660Y010380D01*
X028651Y010380D01*
X028573Y010368D01*
X028660Y010368D02*
X028720Y010368D01*
X028720Y010380D02*
X028720Y009910D01*
X028660Y009910D01*
X028660Y009850D01*
X028190Y009850D01*
X028190Y009841D01*
X008655Y009841D01*
X008655Y009783D02*
X028199Y009783D01*
X028202Y009763D02*
X028227Y009688D01*
X028262Y009618D01*
X028309Y009554D01*
X028364Y009499D01*
X028428Y009452D01*
X028498Y009417D01*
X028573Y009392D01*
X028651Y009380D01*
X028660Y009380D01*
X028660Y009850D01*
X028720Y009850D01*
X028720Y009910D01*
X029190Y009910D01*
X029190Y009919D01*
X029178Y009997D01*
X029153Y010072D01*
X029118Y010142D01*
X029071Y010206D01*
X029016Y010261D01*
X028952Y010308D01*
X028882Y010343D01*
X028807Y010368D01*
X028729Y010380D01*
X028720Y010380D01*
X028720Y010309D02*
X028660Y010309D01*
X028660Y010251D02*
X028720Y010251D01*
X028720Y010192D02*
X028660Y010192D01*
X028660Y010134D02*
X028720Y010134D01*
X028720Y010075D02*
X028660Y010075D01*
X028660Y010017D02*
X028720Y010017D01*
X028720Y009958D02*
X028660Y009958D01*
X028660Y009900D02*
X008655Y009900D01*
X008655Y009958D02*
X028196Y009958D01*
X028209Y010017D02*
X008655Y010017D01*
X008655Y010075D02*
X028228Y010075D01*
X028258Y010134D02*
X008655Y010134D01*
X008655Y010192D02*
X028299Y010192D01*
X028353Y010251D02*
X008655Y010251D01*
X008655Y010309D02*
X028431Y010309D01*
X028808Y010368D02*
X031430Y010368D01*
X031430Y010309D02*
X028949Y010309D01*
X029027Y010251D02*
X031430Y010251D01*
X031445Y010192D02*
X029081Y010192D01*
X029122Y010134D02*
X031470Y010134D01*
X031494Y010075D02*
X029152Y010075D01*
X029171Y010017D02*
X031518Y010017D01*
X031542Y009958D02*
X029184Y009958D01*
X029190Y009850D02*
X028720Y009850D01*
X028720Y009380D01*
X028729Y009380D01*
X028807Y009392D01*
X028882Y009417D01*
X028952Y009452D01*
X029016Y009499D01*
X029071Y009554D01*
X029118Y009618D01*
X029153Y009688D01*
X029178Y009763D01*
X029190Y009841D01*
X029494Y009841D01*
X029393Y009783D02*
X029181Y009783D01*
X029190Y009841D02*
X029190Y009850D01*
X029165Y009724D02*
X029327Y009724D01*
X029279Y009666D02*
X029142Y009666D01*
X029110Y009607D02*
X029245Y009607D01*
X029219Y009549D02*
X029066Y009549D01*
X029004Y009490D02*
X029201Y009490D01*
X029192Y009432D02*
X028911Y009432D01*
X028843Y009315D02*
X029194Y009315D01*
X029205Y009256D02*
X028964Y009256D01*
X029023Y009198D02*
X029224Y009198D01*
X029252Y009139D02*
X029081Y009139D01*
X029105Y009081D02*
X029290Y009081D01*
X029341Y009022D02*
X029129Y009022D01*
X029126Y008730D02*
X029389Y008730D01*
X029330Y008671D02*
X029101Y008671D01*
X029073Y008613D02*
X029288Y008613D01*
X029264Y008554D02*
X029015Y008554D01*
X028956Y008496D02*
X029240Y008496D01*
X029230Y008437D02*
X028823Y008437D01*
X028830Y008320D02*
X029230Y008320D01*
X029230Y008379D02*
X025638Y008379D01*
X025638Y008437D02*
X028557Y008437D01*
X028550Y008320D02*
X025638Y008320D01*
X025638Y008321D02*
X025593Y008212D01*
X025509Y008128D01*
X025400Y008083D01*
X025281Y008083D01*
X025172Y008128D01*
X025088Y008212D01*
X025043Y008321D01*
X025043Y008439D01*
X025088Y008548D01*
X025172Y008632D01*
X025281Y008677D01*
X025400Y008677D01*
X025509Y008632D01*
X025593Y008548D01*
X025638Y008439D01*
X025638Y008321D01*
X025613Y008262D02*
X028421Y008262D01*
X028362Y008203D02*
X025584Y008203D01*
X025526Y008145D02*
X028304Y008145D01*
X028277Y008086D02*
X025408Y008086D01*
X025273Y008086D02*
X024227Y008086D01*
X024219Y008083D02*
X024328Y008128D01*
X024412Y008212D01*
X024457Y008321D01*
X024457Y008439D01*
X024412Y008548D01*
X024328Y008632D01*
X024219Y008677D01*
X024100Y008677D01*
X023991Y008632D01*
X023907Y008548D01*
X023862Y008439D01*
X023862Y008321D01*
X023907Y008212D01*
X023991Y008128D01*
X024100Y008083D01*
X024219Y008083D01*
X024092Y008086D02*
X008655Y008086D01*
X008655Y008028D02*
X028253Y008028D01*
X028230Y007969D02*
X008655Y007969D01*
X008655Y007911D02*
X028230Y007911D01*
X028230Y007852D02*
X008655Y007852D01*
X008655Y007794D02*
X028230Y007794D01*
X028252Y007735D02*
X014832Y007735D01*
X014820Y007740D02*
X014680Y007740D01*
X014552Y007687D01*
X014453Y007588D01*
X014400Y007460D01*
X014400Y006800D01*
X014453Y006672D01*
X014552Y006573D01*
X014680Y006520D01*
X014820Y006520D01*
X014948Y006573D01*
X015047Y006672D01*
X015100Y006800D01*
X015100Y007460D01*
X015047Y007588D01*
X014948Y007687D01*
X014820Y007740D01*
X014668Y007735D02*
X013832Y007735D01*
X013820Y007740D02*
X013680Y007740D01*
X013552Y007687D01*
X013453Y007588D01*
X013400Y007460D01*
X013400Y006800D01*
X013453Y006672D01*
X013552Y006573D01*
X013680Y006520D01*
X013820Y006520D01*
X013948Y006573D01*
X014047Y006672D01*
X014100Y006800D01*
X014100Y007460D01*
X014047Y007588D01*
X013948Y007687D01*
X013820Y007740D01*
X013668Y007735D02*
X008655Y007735D01*
X008655Y007677D02*
X013542Y007677D01*
X013483Y007618D02*
X008655Y007618D01*
X008655Y007560D02*
X013441Y007560D01*
X013417Y007501D02*
X008655Y007501D01*
X008655Y007443D02*
X013400Y007443D01*
X013400Y007384D02*
X008655Y007384D01*
X008655Y007326D02*
X013400Y007326D01*
X013400Y007267D02*
X008655Y007267D01*
X008655Y007209D02*
X013400Y007209D01*
X013400Y007150D02*
X008655Y007150D01*
X008651Y007092D02*
X013400Y007092D01*
X013400Y007033D02*
X008638Y007033D01*
X008624Y006975D02*
X013400Y006975D01*
X013400Y006916D02*
X008611Y006916D01*
X008598Y006858D02*
X013400Y006858D01*
X013401Y006799D02*
X008584Y006799D01*
X008571Y006741D02*
X013425Y006741D01*
X013449Y006682D02*
X008558Y006682D01*
X008544Y006624D02*
X013501Y006624D01*
X013572Y006565D02*
X008527Y006565D01*
X008499Y006507D02*
X016330Y006507D01*
X016330Y006565D02*
X014928Y006565D01*
X014999Y006624D02*
X016330Y006624D01*
X016330Y006682D02*
X015051Y006682D01*
X015075Y006741D02*
X016330Y006741D01*
X016330Y006799D02*
X015099Y006799D01*
X015100Y006858D02*
X016330Y006858D01*
X016330Y006916D02*
X015100Y006916D01*
X015100Y006975D02*
X016330Y006975D01*
X016330Y007033D02*
X015100Y007033D01*
X015100Y007092D02*
X016330Y007092D01*
X016330Y007150D02*
X015100Y007150D01*
X015100Y007209D02*
X016330Y007209D01*
X016317Y007267D02*
X015100Y007267D01*
X015100Y007326D02*
X016291Y007326D01*
X016291Y007384D02*
X015100Y007384D01*
X015100Y007443D02*
X016291Y007443D01*
X016325Y007501D02*
X015083Y007501D01*
X015059Y007560D02*
X016384Y007560D01*
X016616Y007560D02*
X028360Y007560D01*
X028301Y007618D02*
X015017Y007618D01*
X014958Y007677D02*
X028276Y007677D01*
X028418Y007501D02*
X016675Y007501D01*
X016709Y007443D02*
X028544Y007443D01*
X028564Y007326D02*
X016709Y007326D01*
X016709Y007384D02*
X029230Y007384D01*
X029230Y007326D02*
X028816Y007326D01*
X028836Y007443D02*
X029230Y007443D01*
X029242Y007501D02*
X028962Y007501D01*
X029020Y007560D02*
X029266Y007560D01*
X029291Y007618D02*
X029079Y007618D01*
X029104Y007677D02*
X029336Y007677D01*
X029394Y007735D02*
X029128Y007735D01*
X029150Y007794D02*
X029486Y007794D01*
X029333Y008086D02*
X029103Y008086D01*
X029076Y008145D02*
X029290Y008145D01*
X029265Y008203D02*
X029018Y008203D01*
X028959Y008262D02*
X029241Y008262D01*
X028424Y008496D02*
X025615Y008496D01*
X025587Y008554D02*
X028365Y008554D01*
X028307Y008613D02*
X025528Y008613D01*
X025415Y008671D02*
X028279Y008671D01*
X028230Y008847D02*
X008655Y008847D01*
X008655Y008905D02*
X028230Y008905D01*
X028230Y008964D02*
X008655Y008964D01*
X008655Y009022D02*
X028251Y009022D01*
X028275Y009081D02*
X008655Y009081D01*
X008655Y009139D02*
X028299Y009139D01*
X028357Y009198D02*
X008655Y009198D01*
X008655Y009256D02*
X028416Y009256D01*
X028537Y009315D02*
X008655Y009315D01*
X008655Y009373D02*
X029660Y009373D01*
X030039Y009022D02*
X031096Y009022D01*
X031105Y008730D02*
X029991Y008730D01*
X028720Y009432D02*
X028660Y009432D01*
X028660Y009490D02*
X028720Y009490D01*
X028720Y009549D02*
X028660Y009549D01*
X028660Y009607D02*
X028720Y009607D01*
X028720Y009666D02*
X028660Y009666D01*
X028660Y009724D02*
X028720Y009724D01*
X028720Y009783D02*
X028660Y009783D01*
X028660Y009841D02*
X028720Y009841D01*
X028720Y009900D02*
X031596Y009900D01*
X031337Y008671D02*
X031163Y008671D01*
X030876Y007209D02*
X030117Y007209D01*
X029994Y007033D02*
X030607Y007033D01*
X029386Y007033D02*
X029125Y007033D01*
X029100Y007092D02*
X029328Y007092D01*
X029287Y007150D02*
X029071Y007150D01*
X029012Y007209D02*
X029263Y007209D01*
X029239Y007267D02*
X028954Y007267D01*
X028426Y007267D02*
X016683Y007267D01*
X016670Y007209D02*
X028368Y007209D01*
X028309Y007150D02*
X016670Y007150D01*
X016670Y007092D02*
X028280Y007092D01*
X028255Y007033D02*
X016670Y007033D01*
X016670Y006975D02*
X028231Y006975D01*
X028230Y006916D02*
X016670Y006916D01*
X016670Y006858D02*
X028230Y006858D01*
X028230Y006799D02*
X016670Y006799D01*
X016670Y006741D02*
X028250Y006741D01*
X028274Y006682D02*
X016670Y006682D01*
X016670Y006624D02*
X028298Y006624D01*
X028354Y006565D02*
X016670Y006565D01*
X016670Y006507D02*
X028413Y006507D01*
X028531Y006448D02*
X016670Y006448D01*
X016670Y006390D02*
X029230Y006390D01*
X029230Y006448D02*
X028849Y006448D01*
X028967Y006507D02*
X029230Y006507D01*
X029230Y006565D02*
X029026Y006565D01*
X029082Y006624D02*
X029230Y006624D01*
X029230Y006682D02*
X029106Y006682D01*
X029230Y006331D02*
X016670Y006331D01*
X016670Y006273D02*
X029230Y006273D01*
X029230Y006214D02*
X016670Y006214D01*
X016670Y006156D02*
X029230Y006156D01*
X029230Y006097D02*
X016670Y006097D01*
X016670Y006039D02*
X029230Y006039D01*
X029230Y005980D02*
X016670Y005980D01*
X016670Y005922D02*
X029281Y005922D01*
X025156Y008145D02*
X024344Y008145D01*
X024403Y008203D02*
X025097Y008203D01*
X025068Y008262D02*
X024432Y008262D01*
X024456Y008320D02*
X025044Y008320D01*
X025043Y008379D02*
X024457Y008379D01*
X024457Y008437D02*
X025043Y008437D01*
X025067Y008496D02*
X024433Y008496D01*
X024406Y008554D02*
X025094Y008554D01*
X025153Y008613D02*
X024347Y008613D01*
X024234Y008671D02*
X025266Y008671D01*
X024085Y008671D02*
X008655Y008671D01*
X008655Y008613D02*
X023972Y008613D01*
X023913Y008554D02*
X008655Y008554D01*
X008655Y008496D02*
X023885Y008496D01*
X023862Y008437D02*
X008655Y008437D01*
X008655Y008379D02*
X023862Y008379D01*
X023862Y008320D02*
X008655Y008320D01*
X008655Y008262D02*
X023887Y008262D01*
X023916Y008203D02*
X008655Y008203D01*
X008655Y008145D02*
X023974Y008145D01*
X022836Y005512D02*
X016670Y005512D01*
X016670Y005454D02*
X022791Y005454D01*
X022791Y005395D02*
X016670Y005395D01*
X016670Y005337D02*
X022791Y005337D01*
X022806Y005278D02*
X016670Y005278D01*
X016670Y005220D02*
X022865Y005220D01*
X022979Y005161D02*
X016670Y005161D01*
X016670Y005103D02*
X023037Y005103D01*
X023096Y005044D02*
X016670Y005044D01*
X016670Y004986D02*
X023154Y004986D01*
X016330Y004986D02*
X006567Y004986D01*
X006823Y005044D02*
X016330Y005044D01*
X016330Y005103D02*
X007064Y005103D01*
X007185Y005161D02*
X016330Y005161D01*
X016330Y005220D02*
X007307Y005220D01*
X007428Y005278D02*
X016330Y005278D01*
X016330Y005337D02*
X007545Y005337D01*
X007618Y005395D02*
X016330Y005395D01*
X016330Y005454D02*
X007692Y005454D01*
X007765Y005512D02*
X016330Y005512D01*
X016330Y005571D02*
X007838Y005571D01*
X007912Y005629D02*
X016330Y005629D01*
X016330Y005688D02*
X007976Y005688D01*
X008023Y005746D02*
X016330Y005746D01*
X016330Y005805D02*
X008070Y005805D01*
X008116Y005863D02*
X016330Y005863D01*
X016330Y005922D02*
X008163Y005922D01*
X008210Y005980D02*
X016330Y005980D01*
X016330Y006039D02*
X008256Y006039D01*
X008301Y006097D02*
X016330Y006097D01*
X016330Y006156D02*
X008330Y006156D01*
X008358Y006214D02*
X016330Y006214D01*
X016330Y006273D02*
X008386Y006273D01*
X008414Y006331D02*
X016330Y006331D01*
X016330Y006390D02*
X008442Y006390D01*
X008471Y006448D02*
X016330Y006448D01*
X014572Y006565D02*
X013928Y006565D01*
X013999Y006624D02*
X014501Y006624D01*
X014449Y006682D02*
X014051Y006682D01*
X014075Y006741D02*
X014425Y006741D01*
X014401Y006799D02*
X014099Y006799D01*
X014100Y006858D02*
X014400Y006858D01*
X014400Y006916D02*
X014100Y006916D01*
X014100Y006975D02*
X014400Y006975D01*
X014400Y007033D02*
X014100Y007033D01*
X014100Y007092D02*
X014400Y007092D01*
X014400Y007150D02*
X014100Y007150D01*
X014100Y007209D02*
X014400Y007209D01*
X014400Y007267D02*
X014100Y007267D01*
X014100Y007326D02*
X014400Y007326D01*
X014400Y007384D02*
X014100Y007384D01*
X014100Y007443D02*
X014400Y007443D01*
X014417Y007501D02*
X014083Y007501D01*
X014059Y007560D02*
X014441Y007560D01*
X014483Y007618D02*
X014017Y007618D01*
X013958Y007677D02*
X014542Y007677D01*
X014567Y004693D02*
X013933Y004693D01*
X014000Y004635D02*
X014500Y004635D01*
X014448Y004576D02*
X014052Y004576D01*
X014076Y004518D02*
X014424Y004518D01*
X014400Y004459D02*
X014100Y004459D01*
X014100Y004401D02*
X014400Y004401D01*
X014400Y004342D02*
X014100Y004342D01*
X014100Y004284D02*
X014400Y004284D01*
X014400Y004225D02*
X014100Y004225D01*
X014100Y004167D02*
X014400Y004167D01*
X014400Y004108D02*
X014100Y004108D01*
X014100Y004050D02*
X014400Y004050D01*
X014400Y003991D02*
X014100Y003991D01*
X014100Y003933D02*
X014400Y003933D01*
X014400Y003874D02*
X014100Y003874D01*
X014100Y003816D02*
X014400Y003816D01*
X014418Y003757D02*
X014082Y003757D01*
X014058Y003699D02*
X014442Y003699D01*
X014485Y003640D02*
X014015Y003640D01*
X013956Y003582D02*
X014544Y003582D01*
X015058Y003699D02*
X016386Y003699D01*
X016327Y003757D02*
X015082Y003757D01*
X015100Y003816D02*
X016291Y003816D01*
X016291Y003874D02*
X015100Y003874D01*
X015100Y003933D02*
X016291Y003933D01*
X016315Y003991D02*
X015100Y003991D01*
X015100Y004050D02*
X016330Y004050D01*
X016330Y004108D02*
X015100Y004108D01*
X015100Y004167D02*
X016330Y004167D01*
X016330Y004225D02*
X015100Y004225D01*
X015100Y004284D02*
X016330Y004284D01*
X016330Y004342D02*
X015100Y004342D01*
X015100Y004401D02*
X016330Y004401D01*
X016330Y004459D02*
X015100Y004459D01*
X015076Y004518D02*
X016330Y004518D01*
X016330Y004576D02*
X015052Y004576D01*
X015000Y004635D02*
X016330Y004635D01*
X016330Y004693D02*
X014933Y004693D01*
X008849Y002236D02*
X008236Y002236D01*
X008306Y002178D02*
X008750Y002178D01*
X008692Y002119D02*
X008354Y002119D01*
X008387Y002061D02*
X008656Y002061D01*
X008632Y002002D02*
X008409Y002002D01*
X008422Y001944D02*
X008613Y001944D01*
X007894Y002295D02*
X006405Y002295D01*
X006405Y002236D02*
X007764Y002236D01*
X007694Y002178D02*
X006405Y002178D01*
X006405Y002119D02*
X007646Y002119D01*
X007613Y002061D02*
X006405Y002061D01*
X006405Y002002D02*
X007591Y002002D01*
X007578Y001944D02*
X006405Y001944D01*
X008655Y009432D02*
X028469Y009432D01*
X028376Y009490D02*
X008655Y009490D01*
X008655Y009549D02*
X028314Y009549D01*
X028270Y009607D02*
X008655Y009607D01*
X008655Y009666D02*
X028238Y009666D01*
X028215Y009724D02*
X008655Y009724D01*
X008655Y012474D02*
X028469Y012474D01*
X028387Y012532D02*
X008655Y012532D01*
X008655Y012591D02*
X028329Y012591D01*
X028288Y012649D02*
X008655Y012649D01*
X008655Y012708D02*
X020627Y012708D01*
X020663Y012671D02*
X020837Y012671D01*
X020959Y012793D01*
X020959Y012967D01*
X020837Y013089D01*
X020739Y013089D01*
X019890Y013938D01*
X019890Y017099D01*
X019959Y017168D01*
X019959Y017342D01*
X019837Y017464D01*
X019663Y017464D01*
X019541Y017342D01*
X019541Y017168D01*
X019610Y017099D01*
X019610Y013822D01*
X019692Y013740D01*
X020541Y012891D01*
X020541Y012793D01*
X020663Y012671D01*
X020568Y012766D02*
X008655Y012766D01*
X008655Y012825D02*
X020541Y012825D01*
X020541Y012883D02*
X008655Y012883D01*
X008655Y012942D02*
X020490Y012942D01*
X020432Y013000D02*
X008655Y013000D01*
X008655Y013059D02*
X020373Y013059D01*
X020315Y013117D02*
X008655Y013117D01*
X008655Y013176D02*
X020256Y013176D01*
X020198Y013234D02*
X008655Y013234D01*
X008655Y013293D02*
X020139Y013293D01*
X020081Y013351D02*
X008655Y013351D01*
X008655Y013410D02*
X020022Y013410D01*
X019964Y013468D02*
X008655Y013468D01*
X008655Y013527D02*
X019905Y013527D01*
X019847Y013585D02*
X008655Y013585D01*
X008655Y013644D02*
X019788Y013644D01*
X019730Y013702D02*
X008655Y013702D01*
X008655Y013761D02*
X019671Y013761D01*
X019613Y013819D02*
X008655Y013819D01*
X008655Y013878D02*
X019610Y013878D01*
X019610Y013936D02*
X008655Y013936D01*
X008655Y013995D02*
X019610Y013995D01*
X019610Y014053D02*
X008655Y014053D01*
X008655Y014112D02*
X019610Y014112D01*
X019610Y014170D02*
X008655Y014170D01*
X008655Y014229D02*
X019610Y014229D01*
X019610Y014287D02*
X008655Y014287D01*
X008655Y014346D02*
X019610Y014346D01*
X019610Y014404D02*
X008655Y014404D01*
X008655Y014463D02*
X019610Y014463D01*
X019610Y014521D02*
X008655Y014521D01*
X008655Y014580D02*
X019610Y014580D01*
X019610Y014638D02*
X008655Y014638D01*
X008645Y014697D02*
X019610Y014697D01*
X019610Y014755D02*
X008631Y014755D01*
X008618Y014814D02*
X019610Y014814D01*
X019610Y014872D02*
X008605Y014872D01*
X008591Y014931D02*
X019610Y014931D01*
X019610Y014989D02*
X008578Y014989D01*
X008564Y015048D02*
X019610Y015048D01*
X019610Y015106D02*
X008551Y015106D01*
X008538Y015165D02*
X019610Y015165D01*
X019610Y015223D02*
X008513Y015223D01*
X008485Y015282D02*
X019610Y015282D01*
X019610Y015340D02*
X008457Y015340D01*
X008429Y015399D02*
X019610Y015399D01*
X019610Y015457D02*
X008401Y015457D01*
X008372Y015516D02*
X019610Y015516D01*
X019610Y015574D02*
X008344Y015574D01*
X008316Y015633D02*
X019610Y015633D01*
X019610Y015691D02*
X008281Y015691D01*
X008234Y015750D02*
X019610Y015750D01*
X019610Y015808D02*
X008187Y015808D01*
X008141Y015867D02*
X019610Y015867D01*
X019610Y015925D02*
X008094Y015925D01*
X008047Y015984D02*
X019610Y015984D01*
X019610Y016042D02*
X008001Y016042D01*
X007950Y016101D02*
X019610Y016101D01*
X019610Y016159D02*
X007876Y016159D01*
X007803Y016218D02*
X019610Y016218D01*
X019610Y016276D02*
X007730Y016276D01*
X007656Y016335D02*
X019610Y016335D01*
X019610Y016393D02*
X007583Y016393D01*
X007491Y016452D02*
X019610Y016452D01*
X019610Y016510D02*
X007370Y016510D01*
X007248Y016569D02*
X019610Y016569D01*
X019610Y016627D02*
X007127Y016627D01*
X006957Y016686D02*
X019610Y016686D01*
X019610Y016744D02*
X006700Y016744D01*
X006405Y016803D02*
X019610Y016803D01*
X019610Y016861D02*
X006405Y016861D01*
X006405Y016920D02*
X019610Y016920D01*
X019610Y016978D02*
X006405Y016978D01*
X006405Y017037D02*
X019610Y017037D01*
X019610Y017095D02*
X006405Y017095D01*
X006405Y017154D02*
X019556Y017154D01*
X019541Y017212D02*
X006405Y017212D01*
X006405Y017271D02*
X019541Y017271D01*
X019541Y017329D02*
X006405Y017329D01*
X006405Y017388D02*
X019587Y017388D01*
X019645Y017446D02*
X006405Y017446D01*
X006405Y017505D02*
X034252Y017505D01*
X034242Y017563D02*
X006405Y017563D01*
X006405Y017622D02*
X034233Y017622D01*
X034224Y017680D02*
X006405Y017680D01*
X006405Y017739D02*
X034215Y017739D01*
X034199Y017797D02*
X006405Y017797D01*
X006405Y017856D02*
X034180Y017856D01*
X034161Y017914D02*
X006405Y017914D01*
X006405Y017973D02*
X034142Y017973D01*
X034123Y018031D02*
X006405Y018031D01*
X006405Y018090D02*
X034104Y018090D01*
X034085Y018148D02*
X006405Y018148D01*
X006405Y018207D02*
X034066Y018207D01*
X034047Y018265D02*
X006405Y018265D01*
X006405Y018324D02*
X034028Y018324D01*
X034009Y018382D02*
X006405Y018382D01*
X006405Y018441D02*
X033990Y018441D01*
X033969Y018499D02*
X006405Y018499D01*
X006405Y018558D02*
X033939Y018558D01*
X033909Y018616D02*
X006405Y018616D01*
X006405Y018675D02*
X033879Y018675D01*
X033849Y018733D02*
X006405Y018733D01*
X006405Y018792D02*
X033820Y018792D01*
X033790Y018850D02*
X006405Y018850D01*
X006405Y018909D02*
X033760Y018909D01*
X033730Y018967D02*
X006405Y018967D01*
X006405Y019026D02*
X033700Y019026D01*
X033670Y019084D02*
X006405Y019084D01*
X006405Y019143D02*
X033641Y019143D01*
X033602Y019201D02*
X006405Y019201D01*
X006405Y019260D02*
X033560Y019260D01*
X033517Y019318D02*
X006405Y019318D01*
X006405Y019377D02*
X033475Y019377D01*
X033432Y019435D02*
X006405Y019435D01*
X006405Y019494D02*
X007609Y019494D01*
X007599Y019503D02*
X007623Y019479D01*
X007653Y019462D01*
X007686Y019453D01*
X007970Y019453D01*
X007970Y019850D01*
X008030Y019850D01*
X008030Y019910D01*
X008427Y019910D01*
X008427Y020194D01*
X008418Y020227D01*
X008401Y020257D01*
X008377Y020281D01*
X008347Y020298D01*
X008314Y020307D01*
X008030Y020307D01*
X008030Y019910D01*
X007970Y019910D01*
X007970Y020307D01*
X007686Y020307D01*
X007653Y020298D01*
X007623Y020281D01*
X007599Y020257D01*
X007582Y020227D01*
X007573Y020194D01*
X007573Y019910D01*
X007970Y019910D01*
X007970Y019850D01*
X007573Y019850D01*
X007573Y019566D01*
X007582Y019533D01*
X007599Y019503D01*
X007577Y019552D02*
X006405Y019552D01*
X006405Y019611D02*
X007573Y019611D01*
X007573Y019669D02*
X006405Y019669D01*
X006405Y019728D02*
X007573Y019728D01*
X007573Y019786D02*
X006405Y019786D01*
X006405Y019845D02*
X007573Y019845D01*
X007573Y019962D02*
X006405Y019962D01*
X006405Y020020D02*
X007573Y020020D01*
X007573Y020079D02*
X006405Y020079D01*
X006405Y020137D02*
X007573Y020137D01*
X007574Y020196D02*
X006405Y020196D01*
X006405Y020254D02*
X007598Y020254D01*
X007776Y020515D02*
X007836Y020484D01*
X007900Y020464D01*
X007966Y020453D01*
X007970Y020453D01*
X007970Y020850D01*
X008030Y020850D01*
X008030Y020910D01*
X008427Y020910D01*
X008427Y020914D01*
X008416Y020980D01*
X008396Y021044D01*
X008365Y021104D01*
X008326Y021158D01*
X008278Y021206D01*
X008224Y021245D01*
X008164Y021276D01*
X008100Y021296D01*
X008034Y021307D01*
X008030Y021307D01*
X008030Y020910D01*
X007970Y020910D01*
X007970Y021307D01*
X007966Y021307D01*
X007900Y021296D01*
X007836Y021276D01*
X007776Y021245D01*
X007722Y021206D01*
X007674Y021158D01*
X007635Y021104D01*
X007604Y021044D01*
X007584Y020980D01*
X007573Y020914D01*
X007573Y020910D01*
X007970Y020910D01*
X007970Y020850D01*
X007573Y020850D01*
X007573Y020846D01*
X007584Y020780D01*
X007604Y020716D01*
X007635Y020656D01*
X007674Y020602D01*
X007722Y020554D01*
X007776Y020515D01*
X007733Y020547D02*
X006405Y020547D01*
X006405Y020605D02*
X007672Y020605D01*
X007631Y020664D02*
X006405Y020664D01*
X006405Y020722D02*
X007602Y020722D01*
X007584Y020781D02*
X006405Y020781D01*
X006405Y020839D02*
X007574Y020839D01*
X007580Y020956D02*
X006405Y020956D01*
X006405Y020898D02*
X007970Y020898D01*
X007970Y020956D02*
X008030Y020956D01*
X008030Y020898D02*
X008613Y020898D01*
X008613Y020956D02*
X008420Y020956D01*
X008405Y021015D02*
X008637Y021015D01*
X008613Y020957D02*
X008613Y020803D01*
X008672Y020661D01*
X008781Y020552D01*
X008923Y020493D01*
X009077Y020493D01*
X009219Y020552D01*
X009328Y020661D01*
X009387Y020803D01*
X009387Y020957D01*
X009328Y021099D01*
X009219Y021208D01*
X009077Y021267D01*
X008923Y021267D01*
X008781Y021208D01*
X008672Y021099D01*
X008613Y020957D01*
X008613Y020839D02*
X008426Y020839D01*
X008427Y020846D02*
X008427Y020850D01*
X008030Y020850D01*
X008030Y020453D01*
X008034Y020453D01*
X008100Y020464D01*
X008164Y020484D01*
X008224Y020515D01*
X008278Y020554D01*
X008326Y020602D01*
X008365Y020656D01*
X008396Y020716D01*
X008416Y020780D01*
X008427Y020846D01*
X008416Y020781D02*
X008622Y020781D01*
X008647Y020722D02*
X008398Y020722D01*
X008369Y020664D02*
X008671Y020664D01*
X008728Y020605D02*
X008328Y020605D01*
X008267Y020547D02*
X008794Y020547D01*
X008923Y020267D02*
X008781Y020208D01*
X008672Y020099D01*
X008613Y019957D01*
X008613Y019803D01*
X008672Y019661D01*
X008781Y019552D01*
X008923Y019493D01*
X009077Y019493D01*
X009219Y019552D01*
X009328Y019661D01*
X009387Y019803D01*
X009387Y019957D01*
X009328Y020099D01*
X009219Y020208D01*
X009077Y020267D01*
X008923Y020267D01*
X008892Y020254D02*
X008402Y020254D01*
X008426Y020196D02*
X008768Y020196D01*
X008710Y020137D02*
X008427Y020137D01*
X008427Y020079D02*
X008664Y020079D01*
X008639Y020020D02*
X008427Y020020D01*
X008427Y019962D02*
X008615Y019962D01*
X008613Y019903D02*
X008030Y019903D01*
X008030Y019850D02*
X008427Y019850D01*
X008427Y019566D01*
X008418Y019533D01*
X008401Y019503D01*
X008377Y019479D01*
X008347Y019462D01*
X008314Y019453D01*
X008030Y019453D01*
X008030Y019850D01*
X008030Y019845D02*
X007970Y019845D01*
X007970Y019903D02*
X006405Y019903D01*
X006405Y020313D02*
X032648Y020313D01*
X032707Y020254D02*
X030108Y020254D01*
X030077Y020267D02*
X029923Y020267D01*
X029781Y020208D01*
X029672Y020099D01*
X029613Y019957D01*
X029613Y019803D01*
X029672Y019661D01*
X029781Y019552D01*
X029923Y019493D01*
X030077Y019493D01*
X030219Y019552D01*
X030328Y019661D01*
X030387Y019803D01*
X030387Y019957D01*
X030328Y020099D01*
X030219Y020208D01*
X030077Y020267D01*
X030232Y020196D02*
X032765Y020196D01*
X032824Y020137D02*
X030290Y020137D01*
X030336Y020079D02*
X032882Y020079D01*
X032941Y020020D02*
X030361Y020020D01*
X030385Y019962D02*
X032999Y019962D01*
X033058Y019903D02*
X030387Y019903D01*
X030387Y019845D02*
X033116Y019845D01*
X033175Y019786D02*
X030380Y019786D01*
X030356Y019728D02*
X033220Y019728D01*
X033262Y019669D02*
X030331Y019669D01*
X030278Y019611D02*
X033305Y019611D01*
X033347Y019552D02*
X030219Y019552D01*
X030078Y019494D02*
X033390Y019494D01*
X032568Y020371D02*
X006405Y020371D01*
X006405Y020430D02*
X032488Y020430D01*
X032407Y020488D02*
X008171Y020488D01*
X008030Y020488D02*
X007970Y020488D01*
X007970Y020547D02*
X008030Y020547D01*
X008030Y020605D02*
X007970Y020605D01*
X007970Y020664D02*
X008030Y020664D01*
X008030Y020722D02*
X007970Y020722D01*
X007970Y020781D02*
X008030Y020781D01*
X008030Y020839D02*
X007970Y020839D01*
X007970Y021015D02*
X008030Y021015D01*
X008030Y021073D02*
X007970Y021073D01*
X007970Y021132D02*
X008030Y021132D01*
X008030Y021190D02*
X007970Y021190D01*
X007970Y021249D02*
X008030Y021249D01*
X008217Y021249D02*
X008879Y021249D01*
X008763Y021190D02*
X008294Y021190D01*
X008345Y021132D02*
X008704Y021132D01*
X008661Y021073D02*
X008381Y021073D01*
X007783Y021249D02*
X006405Y021249D01*
X006405Y021307D02*
X030736Y021307D01*
X030916Y021249D02*
X030121Y021249D01*
X030077Y021267D02*
X029923Y021267D01*
X029781Y021208D01*
X029672Y021099D01*
X029613Y020957D01*
X029613Y020803D01*
X029672Y020661D01*
X029781Y020552D01*
X029923Y020493D01*
X030077Y020493D01*
X030219Y020552D01*
X030328Y020661D01*
X030387Y020803D01*
X030387Y020957D01*
X030328Y021099D01*
X030219Y021208D01*
X030077Y021267D01*
X030107Y021424D02*
X006405Y021424D01*
X006405Y021366D02*
X030477Y021366D01*
X030295Y021132D02*
X031276Y021132D01*
X031419Y021073D02*
X030339Y021073D01*
X030363Y021015D02*
X031534Y021015D01*
X031649Y020956D02*
X030387Y020956D01*
X030387Y020898D02*
X031764Y020898D01*
X031878Y020839D02*
X030387Y020839D01*
X030378Y020781D02*
X031993Y020781D01*
X032085Y020722D02*
X030353Y020722D01*
X030329Y020664D02*
X032166Y020664D01*
X032246Y020605D02*
X030272Y020605D01*
X030206Y020547D02*
X032327Y020547D01*
X031096Y021190D02*
X030237Y021190D01*
X029879Y021249D02*
X029121Y021249D01*
X029077Y021267D02*
X028923Y021267D01*
X028781Y021208D01*
X028672Y021099D01*
X028613Y020957D01*
X028613Y020803D01*
X028672Y020661D01*
X028781Y020552D01*
X028923Y020493D01*
X029077Y020493D01*
X029219Y020552D01*
X029328Y020661D01*
X029387Y020803D01*
X029387Y020957D01*
X029328Y021099D01*
X029219Y021208D01*
X029077Y021267D01*
X029237Y021190D02*
X029763Y021190D01*
X029704Y021132D02*
X029295Y021132D01*
X029339Y021073D02*
X029661Y021073D01*
X029637Y021015D02*
X029363Y021015D01*
X029387Y020956D02*
X029613Y020956D01*
X029613Y020898D02*
X029387Y020898D01*
X029387Y020839D02*
X029613Y020839D01*
X029622Y020781D02*
X029378Y020781D01*
X029353Y020722D02*
X029647Y020722D01*
X029671Y020664D02*
X029329Y020664D01*
X029272Y020605D02*
X029728Y020605D01*
X029794Y020547D02*
X029206Y020547D01*
X029077Y020267D02*
X028923Y020267D01*
X028781Y020208D01*
X028672Y020099D01*
X028613Y019957D01*
X028613Y019803D01*
X028672Y019661D01*
X028781Y019552D01*
X028923Y019493D01*
X029077Y019493D01*
X029219Y019552D01*
X029328Y019661D01*
X029387Y019803D01*
X029387Y019957D01*
X029328Y020099D01*
X029219Y020208D01*
X029077Y020267D01*
X029108Y020254D02*
X029892Y020254D01*
X029768Y020196D02*
X029232Y020196D01*
X029290Y020137D02*
X029710Y020137D01*
X029664Y020079D02*
X029336Y020079D01*
X029361Y020020D02*
X029639Y020020D01*
X029615Y019962D02*
X029385Y019962D01*
X029387Y019903D02*
X029613Y019903D01*
X029613Y019845D02*
X029387Y019845D01*
X029380Y019786D02*
X029620Y019786D01*
X029644Y019728D02*
X029356Y019728D01*
X029331Y019669D02*
X029669Y019669D01*
X029722Y019611D02*
X029278Y019611D01*
X029219Y019552D02*
X029781Y019552D01*
X029922Y019494D02*
X029078Y019494D01*
X028922Y019494D02*
X028078Y019494D01*
X028077Y019493D02*
X028219Y019552D01*
X028328Y019661D01*
X028387Y019803D01*
X028387Y019957D01*
X028328Y020099D01*
X028219Y020208D01*
X028077Y020267D01*
X027923Y020267D01*
X027781Y020208D01*
X027672Y020099D01*
X027613Y019957D01*
X027613Y019803D01*
X027672Y019661D01*
X027781Y019552D01*
X027923Y019493D01*
X028077Y019493D01*
X028219Y019552D02*
X028781Y019552D01*
X028722Y019611D02*
X028278Y019611D01*
X028331Y019669D02*
X028669Y019669D01*
X028644Y019728D02*
X028356Y019728D01*
X028380Y019786D02*
X028620Y019786D01*
X028613Y019845D02*
X028387Y019845D01*
X028387Y019903D02*
X028613Y019903D01*
X028615Y019962D02*
X028385Y019962D01*
X028361Y020020D02*
X028639Y020020D01*
X028664Y020079D02*
X028336Y020079D01*
X028290Y020137D02*
X028710Y020137D01*
X028768Y020196D02*
X028232Y020196D01*
X028108Y020254D02*
X028892Y020254D01*
X028794Y020547D02*
X028206Y020547D01*
X028219Y020552D02*
X028328Y020661D01*
X028387Y020803D01*
X028387Y020957D01*
X028328Y021099D01*
X028219Y021208D01*
X028077Y021267D01*
X027923Y021267D01*
X027781Y021208D01*
X027672Y021099D01*
X027613Y020957D01*
X027613Y020803D01*
X027672Y020661D01*
X027781Y020552D01*
X027923Y020493D01*
X028077Y020493D01*
X028219Y020552D01*
X028272Y020605D02*
X028728Y020605D01*
X028671Y020664D02*
X028329Y020664D01*
X028353Y020722D02*
X028647Y020722D01*
X028622Y020781D02*
X028378Y020781D01*
X028387Y020839D02*
X028613Y020839D01*
X028613Y020898D02*
X028387Y020898D01*
X028387Y020956D02*
X028613Y020956D01*
X028637Y021015D02*
X028363Y021015D01*
X028339Y021073D02*
X028661Y021073D01*
X028704Y021132D02*
X028295Y021132D01*
X028237Y021190D02*
X028763Y021190D01*
X028879Y021249D02*
X028121Y021249D01*
X027879Y021249D02*
X027121Y021249D01*
X027077Y021267D02*
X026923Y021267D01*
X026781Y021208D01*
X026672Y021099D01*
X026613Y020957D01*
X026613Y020803D01*
X026672Y020661D01*
X026781Y020552D01*
X026923Y020493D01*
X027077Y020493D01*
X027219Y020552D01*
X027328Y020661D01*
X027387Y020803D01*
X027387Y020957D01*
X027328Y021099D01*
X027219Y021208D01*
X027077Y021267D01*
X027237Y021190D02*
X027763Y021190D01*
X027704Y021132D02*
X027295Y021132D01*
X027339Y021073D02*
X027661Y021073D01*
X027637Y021015D02*
X027363Y021015D01*
X027387Y020956D02*
X027613Y020956D01*
X027613Y020898D02*
X027387Y020898D01*
X027387Y020839D02*
X027613Y020839D01*
X027622Y020781D02*
X027378Y020781D01*
X027353Y020722D02*
X027647Y020722D01*
X027671Y020664D02*
X027329Y020664D01*
X027272Y020605D02*
X027728Y020605D01*
X027794Y020547D02*
X027206Y020547D01*
X027077Y020267D02*
X026923Y020267D01*
X026781Y020208D01*
X026672Y020099D01*
X026613Y019957D01*
X026613Y019803D01*
X026672Y019661D01*
X026781Y019552D01*
X026923Y019493D01*
X027077Y019493D01*
X027219Y019552D01*
X027328Y019661D01*
X027387Y019803D01*
X027387Y019957D01*
X027328Y020099D01*
X027219Y020208D01*
X027077Y020267D01*
X027108Y020254D02*
X027892Y020254D01*
X027768Y020196D02*
X027232Y020196D01*
X027290Y020137D02*
X027710Y020137D01*
X027664Y020079D02*
X027336Y020079D01*
X027361Y020020D02*
X027639Y020020D01*
X027615Y019962D02*
X027385Y019962D01*
X027387Y019903D02*
X027613Y019903D01*
X027613Y019845D02*
X027387Y019845D01*
X027380Y019786D02*
X027620Y019786D01*
X027644Y019728D02*
X027356Y019728D01*
X027331Y019669D02*
X027669Y019669D01*
X027722Y019611D02*
X027278Y019611D01*
X027219Y019552D02*
X027781Y019552D01*
X027922Y019494D02*
X027078Y019494D01*
X026922Y019494D02*
X026078Y019494D01*
X026077Y019493D02*
X026219Y019552D01*
X026328Y019661D01*
X026387Y019803D01*
X026387Y019957D01*
X026328Y020099D01*
X026219Y020208D01*
X026077Y020267D01*
X025923Y020267D01*
X025781Y020208D01*
X025672Y020099D01*
X025613Y019957D01*
X025613Y019803D01*
X025672Y019661D01*
X025781Y019552D01*
X025923Y019493D01*
X026077Y019493D01*
X026219Y019552D02*
X026781Y019552D01*
X026722Y019611D02*
X026278Y019611D01*
X026331Y019669D02*
X026669Y019669D01*
X026644Y019728D02*
X026356Y019728D01*
X026380Y019786D02*
X026620Y019786D01*
X026613Y019845D02*
X026387Y019845D01*
X026387Y019903D02*
X026613Y019903D01*
X026615Y019962D02*
X026385Y019962D01*
X026361Y020020D02*
X026639Y020020D01*
X026664Y020079D02*
X026336Y020079D01*
X026290Y020137D02*
X026710Y020137D01*
X026768Y020196D02*
X026232Y020196D01*
X026108Y020254D02*
X026892Y020254D01*
X026794Y020547D02*
X026206Y020547D01*
X026219Y020552D02*
X026328Y020661D01*
X026387Y020803D01*
X026387Y020957D01*
X026328Y021099D01*
X026219Y021208D01*
X026077Y021267D01*
X025923Y021267D01*
X025781Y021208D01*
X025672Y021099D01*
X025613Y020957D01*
X025613Y020803D01*
X025672Y020661D01*
X025781Y020552D01*
X025923Y020493D01*
X026077Y020493D01*
X026219Y020552D01*
X026272Y020605D02*
X026728Y020605D01*
X026671Y020664D02*
X026329Y020664D01*
X026353Y020722D02*
X026647Y020722D01*
X026622Y020781D02*
X026378Y020781D01*
X026387Y020839D02*
X026613Y020839D01*
X026613Y020898D02*
X026387Y020898D01*
X026387Y020956D02*
X026613Y020956D01*
X026637Y021015D02*
X026363Y021015D01*
X026339Y021073D02*
X026661Y021073D01*
X026704Y021132D02*
X026295Y021132D01*
X026237Y021190D02*
X026763Y021190D01*
X026879Y021249D02*
X026121Y021249D01*
X025879Y021249D02*
X025121Y021249D01*
X025077Y021267D02*
X024923Y021267D01*
X024781Y021208D01*
X024672Y021099D01*
X024613Y020957D01*
X024613Y020803D01*
X024672Y020661D01*
X024781Y020552D01*
X024923Y020493D01*
X025077Y020493D01*
X025219Y020552D01*
X025328Y020661D01*
X025387Y020803D01*
X025387Y020957D01*
X025328Y021099D01*
X025219Y021208D01*
X025077Y021267D01*
X025237Y021190D02*
X025763Y021190D01*
X025704Y021132D02*
X025295Y021132D01*
X025339Y021073D02*
X025661Y021073D01*
X025637Y021015D02*
X025363Y021015D01*
X025387Y020956D02*
X025613Y020956D01*
X025613Y020898D02*
X025387Y020898D01*
X025387Y020839D02*
X025613Y020839D01*
X025622Y020781D02*
X025378Y020781D01*
X025353Y020722D02*
X025647Y020722D01*
X025671Y020664D02*
X025329Y020664D01*
X025272Y020605D02*
X025728Y020605D01*
X025794Y020547D02*
X025206Y020547D01*
X025077Y020267D02*
X024923Y020267D01*
X024781Y020208D01*
X024672Y020099D01*
X024613Y019957D01*
X024613Y019803D01*
X024672Y019661D01*
X024781Y019552D01*
X024923Y019493D01*
X025077Y019493D01*
X025219Y019552D01*
X025328Y019661D01*
X025387Y019803D01*
X025387Y019957D01*
X025328Y020099D01*
X025219Y020208D01*
X025077Y020267D01*
X025108Y020254D02*
X025892Y020254D01*
X025768Y020196D02*
X025232Y020196D01*
X025290Y020137D02*
X025710Y020137D01*
X025664Y020079D02*
X025336Y020079D01*
X025361Y020020D02*
X025639Y020020D01*
X025615Y019962D02*
X025385Y019962D01*
X025387Y019903D02*
X025613Y019903D01*
X025613Y019845D02*
X025387Y019845D01*
X025380Y019786D02*
X025620Y019786D01*
X025644Y019728D02*
X025356Y019728D01*
X025331Y019669D02*
X025669Y019669D01*
X025722Y019611D02*
X025278Y019611D01*
X025219Y019552D02*
X025781Y019552D01*
X025922Y019494D02*
X025078Y019494D01*
X024922Y019494D02*
X024078Y019494D01*
X024077Y019493D02*
X024219Y019552D01*
X024328Y019661D01*
X024387Y019803D01*
X024387Y019957D01*
X024328Y020099D01*
X024219Y020208D01*
X024077Y020267D01*
X023923Y020267D01*
X023781Y020208D01*
X023672Y020099D01*
X023613Y019957D01*
X023613Y019803D01*
X023672Y019661D01*
X023781Y019552D01*
X023923Y019493D01*
X024077Y019493D01*
X024219Y019552D02*
X024781Y019552D01*
X024722Y019611D02*
X024278Y019611D01*
X024331Y019669D02*
X024669Y019669D01*
X024644Y019728D02*
X024356Y019728D01*
X024380Y019786D02*
X024620Y019786D01*
X024613Y019845D02*
X024387Y019845D01*
X024387Y019903D02*
X024613Y019903D01*
X024615Y019962D02*
X024385Y019962D01*
X024361Y020020D02*
X024639Y020020D01*
X024664Y020079D02*
X024336Y020079D01*
X024290Y020137D02*
X024710Y020137D01*
X024768Y020196D02*
X024232Y020196D01*
X024108Y020254D02*
X024892Y020254D01*
X024794Y020547D02*
X024206Y020547D01*
X024219Y020552D02*
X024328Y020661D01*
X024387Y020803D01*
X024387Y020957D01*
X024328Y021099D01*
X024219Y021208D01*
X024077Y021267D01*
X023923Y021267D01*
X023781Y021208D01*
X023672Y021099D01*
X023613Y020957D01*
X023613Y020803D01*
X023672Y020661D01*
X023781Y020552D01*
X023923Y020493D01*
X024077Y020493D01*
X024219Y020552D01*
X024272Y020605D02*
X024728Y020605D01*
X024671Y020664D02*
X024329Y020664D01*
X024353Y020722D02*
X024647Y020722D01*
X024622Y020781D02*
X024378Y020781D01*
X024387Y020839D02*
X024613Y020839D01*
X024613Y020898D02*
X024387Y020898D01*
X024387Y020956D02*
X024613Y020956D01*
X024637Y021015D02*
X024363Y021015D01*
X024339Y021073D02*
X024661Y021073D01*
X024704Y021132D02*
X024295Y021132D01*
X024237Y021190D02*
X024763Y021190D01*
X024879Y021249D02*
X024121Y021249D01*
X023879Y021249D02*
X023121Y021249D01*
X023077Y021267D02*
X022923Y021267D01*
X022781Y021208D01*
X022672Y021099D01*
X022613Y020957D01*
X022613Y020803D01*
X022672Y020661D01*
X022781Y020552D01*
X022923Y020493D01*
X023077Y020493D01*
X023219Y020552D01*
X023328Y020661D01*
X023387Y020803D01*
X023387Y020957D01*
X023328Y021099D01*
X023219Y021208D01*
X023077Y021267D01*
X023237Y021190D02*
X023763Y021190D01*
X023704Y021132D02*
X023295Y021132D01*
X023339Y021073D02*
X023661Y021073D01*
X023637Y021015D02*
X023363Y021015D01*
X023387Y020956D02*
X023613Y020956D01*
X023613Y020898D02*
X023387Y020898D01*
X023387Y020839D02*
X023613Y020839D01*
X023622Y020781D02*
X023378Y020781D01*
X023353Y020722D02*
X023647Y020722D01*
X023671Y020664D02*
X023329Y020664D01*
X023272Y020605D02*
X023728Y020605D01*
X023794Y020547D02*
X023206Y020547D01*
X023077Y020267D02*
X022923Y020267D01*
X022781Y020208D01*
X022672Y020099D01*
X022613Y019957D01*
X022613Y019803D01*
X022672Y019661D01*
X022781Y019552D01*
X022923Y019493D01*
X023077Y019493D01*
X023219Y019552D01*
X023328Y019661D01*
X023387Y019803D01*
X023387Y019957D01*
X023328Y020099D01*
X023219Y020208D01*
X023077Y020267D01*
X023108Y020254D02*
X023892Y020254D01*
X023768Y020196D02*
X023232Y020196D01*
X023290Y020137D02*
X023710Y020137D01*
X023664Y020079D02*
X023336Y020079D01*
X023361Y020020D02*
X023639Y020020D01*
X023615Y019962D02*
X023385Y019962D01*
X023387Y019903D02*
X023613Y019903D01*
X023613Y019845D02*
X023387Y019845D01*
X023380Y019786D02*
X023620Y019786D01*
X023644Y019728D02*
X023356Y019728D01*
X023331Y019669D02*
X023669Y019669D01*
X023722Y019611D02*
X023278Y019611D01*
X023219Y019552D02*
X023781Y019552D01*
X023922Y019494D02*
X023078Y019494D01*
X022922Y019494D02*
X022078Y019494D01*
X022077Y019493D02*
X022219Y019552D01*
X022328Y019661D01*
X022387Y019803D01*
X022387Y019957D01*
X022328Y020099D01*
X022219Y020208D01*
X022077Y020267D01*
X021923Y020267D01*
X021781Y020208D01*
X021672Y020099D01*
X021613Y019957D01*
X021613Y019803D01*
X021672Y019661D01*
X021781Y019552D01*
X021923Y019493D01*
X022077Y019493D01*
X022219Y019552D02*
X022781Y019552D01*
X022722Y019611D02*
X022278Y019611D01*
X022331Y019669D02*
X022669Y019669D01*
X022644Y019728D02*
X022356Y019728D01*
X022380Y019786D02*
X022620Y019786D01*
X022613Y019845D02*
X022387Y019845D01*
X022387Y019903D02*
X022613Y019903D01*
X022615Y019962D02*
X022385Y019962D01*
X022361Y020020D02*
X022639Y020020D01*
X022664Y020079D02*
X022336Y020079D01*
X022290Y020137D02*
X022710Y020137D01*
X022768Y020196D02*
X022232Y020196D01*
X022108Y020254D02*
X022892Y020254D01*
X022794Y020547D02*
X022206Y020547D01*
X022219Y020552D02*
X022328Y020661D01*
X022387Y020803D01*
X022387Y020957D01*
X022328Y021099D01*
X022219Y021208D01*
X022077Y021267D01*
X021923Y021267D01*
X021781Y021208D01*
X021672Y021099D01*
X021613Y020957D01*
X021613Y020803D01*
X021672Y020661D01*
X021781Y020552D01*
X021923Y020493D01*
X022077Y020493D01*
X022219Y020552D01*
X022272Y020605D02*
X022728Y020605D01*
X022671Y020664D02*
X022329Y020664D01*
X022353Y020722D02*
X022647Y020722D01*
X022622Y020781D02*
X022378Y020781D01*
X022387Y020839D02*
X022613Y020839D01*
X022613Y020898D02*
X022387Y020898D01*
X022387Y020956D02*
X022613Y020956D01*
X022637Y021015D02*
X022363Y021015D01*
X022339Y021073D02*
X022661Y021073D01*
X022704Y021132D02*
X022295Y021132D01*
X022237Y021190D02*
X022763Y021190D01*
X022879Y021249D02*
X022121Y021249D01*
X021879Y021249D02*
X021121Y021249D01*
X021077Y021267D02*
X020923Y021267D01*
X020781Y021208D01*
X020672Y021099D01*
X020613Y020957D01*
X020613Y020803D01*
X020672Y020661D01*
X020781Y020552D01*
X020923Y020493D01*
X021077Y020493D01*
X021219Y020552D01*
X021328Y020661D01*
X021387Y020803D01*
X021387Y020957D01*
X021328Y021099D01*
X021219Y021208D01*
X021077Y021267D01*
X021237Y021190D02*
X021763Y021190D01*
X021704Y021132D02*
X021295Y021132D01*
X021339Y021073D02*
X021661Y021073D01*
X021637Y021015D02*
X021363Y021015D01*
X021387Y020956D02*
X021613Y020956D01*
X021613Y020898D02*
X021387Y020898D01*
X021387Y020839D02*
X021613Y020839D01*
X021622Y020781D02*
X021378Y020781D01*
X021353Y020722D02*
X021647Y020722D01*
X021671Y020664D02*
X021329Y020664D01*
X021272Y020605D02*
X021728Y020605D01*
X021794Y020547D02*
X021206Y020547D01*
X021077Y020267D02*
X020923Y020267D01*
X020781Y020208D01*
X020672Y020099D01*
X020613Y019957D01*
X020613Y019803D01*
X020672Y019661D01*
X020781Y019552D01*
X020923Y019493D01*
X021077Y019493D01*
X021219Y019552D01*
X021328Y019661D01*
X021387Y019803D01*
X021387Y019957D01*
X021328Y020099D01*
X021219Y020208D01*
X021077Y020267D01*
X021108Y020254D02*
X021892Y020254D01*
X021768Y020196D02*
X021232Y020196D01*
X021290Y020137D02*
X021710Y020137D01*
X021664Y020079D02*
X021336Y020079D01*
X021361Y020020D02*
X021639Y020020D01*
X021615Y019962D02*
X021385Y019962D01*
X021387Y019903D02*
X021613Y019903D01*
X021613Y019845D02*
X021387Y019845D01*
X021380Y019786D02*
X021620Y019786D01*
X021644Y019728D02*
X021356Y019728D01*
X021331Y019669D02*
X021669Y019669D01*
X021722Y019611D02*
X021278Y019611D01*
X021219Y019552D02*
X021781Y019552D01*
X021922Y019494D02*
X021078Y019494D01*
X020922Y019494D02*
X020078Y019494D01*
X020077Y019493D02*
X020219Y019552D01*
X020328Y019661D01*
X020387Y019803D01*
X020387Y019957D01*
X020328Y020099D01*
X020219Y020208D01*
X020077Y020267D01*
X019923Y020267D01*
X019781Y020208D01*
X019672Y020099D01*
X019613Y019957D01*
X019613Y019803D01*
X019672Y019661D01*
X019781Y019552D01*
X019923Y019493D01*
X020077Y019493D01*
X020219Y019552D02*
X020781Y019552D01*
X020722Y019611D02*
X020278Y019611D01*
X020331Y019669D02*
X020669Y019669D01*
X020644Y019728D02*
X020356Y019728D01*
X020380Y019786D02*
X020620Y019786D01*
X020613Y019845D02*
X020387Y019845D01*
X020387Y019903D02*
X020613Y019903D01*
X020615Y019962D02*
X020385Y019962D01*
X020361Y020020D02*
X020639Y020020D01*
X020664Y020079D02*
X020336Y020079D01*
X020290Y020137D02*
X020710Y020137D01*
X020768Y020196D02*
X020232Y020196D01*
X020108Y020254D02*
X020892Y020254D01*
X020794Y020547D02*
X020206Y020547D01*
X020219Y020552D02*
X020328Y020661D01*
X020387Y020803D01*
X020387Y020957D01*
X020328Y021099D01*
X020219Y021208D01*
X020077Y021267D01*
X019923Y021267D01*
X019781Y021208D01*
X019672Y021099D01*
X019613Y020957D01*
X019613Y020803D01*
X019672Y020661D01*
X019781Y020552D01*
X019923Y020493D01*
X020077Y020493D01*
X020219Y020552D01*
X020272Y020605D02*
X020728Y020605D01*
X020671Y020664D02*
X020329Y020664D01*
X020353Y020722D02*
X020647Y020722D01*
X020622Y020781D02*
X020378Y020781D01*
X020387Y020839D02*
X020613Y020839D01*
X020613Y020898D02*
X020387Y020898D01*
X020387Y020956D02*
X020613Y020956D01*
X020637Y021015D02*
X020363Y021015D01*
X020339Y021073D02*
X020661Y021073D01*
X020704Y021132D02*
X020295Y021132D01*
X020237Y021190D02*
X020763Y021190D01*
X020879Y021249D02*
X020121Y021249D01*
X019879Y021249D02*
X019121Y021249D01*
X019077Y021267D02*
X018923Y021267D01*
X018781Y021208D01*
X018672Y021099D01*
X018613Y020957D01*
X018613Y020803D01*
X018672Y020661D01*
X018781Y020552D01*
X018923Y020493D01*
X019077Y020493D01*
X019219Y020552D01*
X019328Y020661D01*
X019387Y020803D01*
X019387Y020957D01*
X019328Y021099D01*
X019219Y021208D01*
X019077Y021267D01*
X019237Y021190D02*
X019763Y021190D01*
X019704Y021132D02*
X019295Y021132D01*
X019339Y021073D02*
X019661Y021073D01*
X019637Y021015D02*
X019363Y021015D01*
X019387Y020956D02*
X019613Y020956D01*
X019613Y020898D02*
X019387Y020898D01*
X019387Y020839D02*
X019613Y020839D01*
X019622Y020781D02*
X019378Y020781D01*
X019353Y020722D02*
X019647Y020722D01*
X019671Y020664D02*
X019329Y020664D01*
X019272Y020605D02*
X019728Y020605D01*
X019794Y020547D02*
X019206Y020547D01*
X019077Y020267D02*
X018923Y020267D01*
X018781Y020208D01*
X018672Y020099D01*
X018613Y019957D01*
X018613Y019803D01*
X018672Y019661D01*
X018781Y019552D01*
X018923Y019493D01*
X019077Y019493D01*
X019219Y019552D01*
X019328Y019661D01*
X019387Y019803D01*
X019387Y019957D01*
X019328Y020099D01*
X019219Y020208D01*
X019077Y020267D01*
X019108Y020254D02*
X019892Y020254D01*
X019768Y020196D02*
X019232Y020196D01*
X019290Y020137D02*
X019710Y020137D01*
X019664Y020079D02*
X019336Y020079D01*
X019361Y020020D02*
X019639Y020020D01*
X019615Y019962D02*
X019385Y019962D01*
X019387Y019903D02*
X019613Y019903D01*
X019613Y019845D02*
X019387Y019845D01*
X019380Y019786D02*
X019620Y019786D01*
X019644Y019728D02*
X019356Y019728D01*
X019331Y019669D02*
X019669Y019669D01*
X019722Y019611D02*
X019278Y019611D01*
X019219Y019552D02*
X019781Y019552D01*
X019922Y019494D02*
X019078Y019494D01*
X018922Y019494D02*
X018078Y019494D01*
X018077Y019493D02*
X018219Y019552D01*
X018328Y019661D01*
X018387Y019803D01*
X018387Y019957D01*
X018328Y020099D01*
X018219Y020208D01*
X018077Y020267D01*
X017923Y020267D01*
X017781Y020208D01*
X017672Y020099D01*
X017613Y019957D01*
X017613Y019803D01*
X017672Y019661D01*
X017781Y019552D01*
X017923Y019493D01*
X018077Y019493D01*
X018219Y019552D02*
X018781Y019552D01*
X018722Y019611D02*
X018278Y019611D01*
X018331Y019669D02*
X018669Y019669D01*
X018644Y019728D02*
X018356Y019728D01*
X018380Y019786D02*
X018620Y019786D01*
X018613Y019845D02*
X018387Y019845D01*
X018387Y019903D02*
X018613Y019903D01*
X018615Y019962D02*
X018385Y019962D01*
X018361Y020020D02*
X018639Y020020D01*
X018664Y020079D02*
X018336Y020079D01*
X018290Y020137D02*
X018710Y020137D01*
X018768Y020196D02*
X018232Y020196D01*
X018108Y020254D02*
X018892Y020254D01*
X018794Y020547D02*
X018206Y020547D01*
X018219Y020552D02*
X018328Y020661D01*
X018387Y020803D01*
X018387Y020957D01*
X018328Y021099D01*
X018219Y021208D01*
X018077Y021267D01*
X017923Y021267D01*
X017781Y021208D01*
X017672Y021099D01*
X017613Y020957D01*
X017613Y020803D01*
X017672Y020661D01*
X017781Y020552D01*
X017923Y020493D01*
X018077Y020493D01*
X018219Y020552D01*
X018272Y020605D02*
X018728Y020605D01*
X018671Y020664D02*
X018329Y020664D01*
X018353Y020722D02*
X018647Y020722D01*
X018622Y020781D02*
X018378Y020781D01*
X018387Y020839D02*
X018613Y020839D01*
X018613Y020898D02*
X018387Y020898D01*
X018387Y020956D02*
X018613Y020956D01*
X018637Y021015D02*
X018363Y021015D01*
X018339Y021073D02*
X018661Y021073D01*
X018704Y021132D02*
X018295Y021132D01*
X018237Y021190D02*
X018763Y021190D01*
X018879Y021249D02*
X018121Y021249D01*
X017879Y021249D02*
X017121Y021249D01*
X017077Y021267D02*
X016923Y021267D01*
X016781Y021208D01*
X016672Y021099D01*
X016613Y020957D01*
X016613Y020803D01*
X016672Y020661D01*
X016781Y020552D01*
X016923Y020493D01*
X017077Y020493D01*
X017219Y020552D01*
X017328Y020661D01*
X017387Y020803D01*
X017387Y020957D01*
X017328Y021099D01*
X017219Y021208D01*
X017077Y021267D01*
X017237Y021190D02*
X017763Y021190D01*
X017704Y021132D02*
X017295Y021132D01*
X017339Y021073D02*
X017661Y021073D01*
X017637Y021015D02*
X017363Y021015D01*
X017387Y020956D02*
X017613Y020956D01*
X017613Y020898D02*
X017387Y020898D01*
X017387Y020839D02*
X017613Y020839D01*
X017622Y020781D02*
X017378Y020781D01*
X017353Y020722D02*
X017647Y020722D01*
X017671Y020664D02*
X017329Y020664D01*
X017272Y020605D02*
X017728Y020605D01*
X017794Y020547D02*
X017206Y020547D01*
X017077Y020267D02*
X016923Y020267D01*
X016781Y020208D01*
X016672Y020099D01*
X016613Y019957D01*
X016613Y019803D01*
X016672Y019661D01*
X016781Y019552D01*
X016923Y019493D01*
X017077Y019493D01*
X017219Y019552D01*
X017328Y019661D01*
X017387Y019803D01*
X017387Y019957D01*
X017328Y020099D01*
X017219Y020208D01*
X017077Y020267D01*
X017108Y020254D02*
X017892Y020254D01*
X017768Y020196D02*
X017232Y020196D01*
X017290Y020137D02*
X017710Y020137D01*
X017664Y020079D02*
X017336Y020079D01*
X017361Y020020D02*
X017639Y020020D01*
X017615Y019962D02*
X017385Y019962D01*
X017387Y019903D02*
X017613Y019903D01*
X017613Y019845D02*
X017387Y019845D01*
X017380Y019786D02*
X017620Y019786D01*
X017644Y019728D02*
X017356Y019728D01*
X017331Y019669D02*
X017669Y019669D01*
X017722Y019611D02*
X017278Y019611D01*
X017219Y019552D02*
X017781Y019552D01*
X017922Y019494D02*
X017078Y019494D01*
X016922Y019494D02*
X016078Y019494D01*
X016077Y019493D02*
X016219Y019552D01*
X016328Y019661D01*
X016387Y019803D01*
X016387Y019957D01*
X016328Y020099D01*
X016219Y020208D01*
X016077Y020267D01*
X015923Y020267D01*
X015781Y020208D01*
X015672Y020099D01*
X015613Y019957D01*
X015613Y019803D01*
X015672Y019661D01*
X015781Y019552D01*
X015923Y019493D01*
X016077Y019493D01*
X016219Y019552D02*
X016781Y019552D01*
X016722Y019611D02*
X016278Y019611D01*
X016331Y019669D02*
X016669Y019669D01*
X016644Y019728D02*
X016356Y019728D01*
X016380Y019786D02*
X016620Y019786D01*
X016613Y019845D02*
X016387Y019845D01*
X016387Y019903D02*
X016613Y019903D01*
X016615Y019962D02*
X016385Y019962D01*
X016361Y020020D02*
X016639Y020020D01*
X016664Y020079D02*
X016336Y020079D01*
X016290Y020137D02*
X016710Y020137D01*
X016768Y020196D02*
X016232Y020196D01*
X016108Y020254D02*
X016892Y020254D01*
X016794Y020547D02*
X016206Y020547D01*
X016219Y020552D02*
X016328Y020661D01*
X016387Y020803D01*
X016387Y020957D01*
X016328Y021099D01*
X016219Y021208D01*
X016077Y021267D01*
X015923Y021267D01*
X015781Y021208D01*
X015672Y021099D01*
X015613Y020957D01*
X015613Y020803D01*
X015672Y020661D01*
X015781Y020552D01*
X015923Y020493D01*
X016077Y020493D01*
X016219Y020552D01*
X016272Y020605D02*
X016728Y020605D01*
X016671Y020664D02*
X016329Y020664D01*
X016353Y020722D02*
X016647Y020722D01*
X016622Y020781D02*
X016378Y020781D01*
X016387Y020839D02*
X016613Y020839D01*
X016613Y020898D02*
X016387Y020898D01*
X016387Y020956D02*
X016613Y020956D01*
X016637Y021015D02*
X016363Y021015D01*
X016339Y021073D02*
X016661Y021073D01*
X016704Y021132D02*
X016295Y021132D01*
X016237Y021190D02*
X016763Y021190D01*
X016879Y021249D02*
X016121Y021249D01*
X015879Y021249D02*
X015121Y021249D01*
X015077Y021267D02*
X014923Y021267D01*
X014781Y021208D01*
X014672Y021099D01*
X014613Y020957D01*
X014613Y020803D01*
X014672Y020661D01*
X014781Y020552D01*
X014923Y020493D01*
X015077Y020493D01*
X015219Y020552D01*
X015328Y020661D01*
X015387Y020803D01*
X015387Y020957D01*
X015328Y021099D01*
X015219Y021208D01*
X015077Y021267D01*
X015237Y021190D02*
X015763Y021190D01*
X015704Y021132D02*
X015295Y021132D01*
X015339Y021073D02*
X015661Y021073D01*
X015637Y021015D02*
X015363Y021015D01*
X015387Y020956D02*
X015613Y020956D01*
X015613Y020898D02*
X015387Y020898D01*
X015387Y020839D02*
X015613Y020839D01*
X015622Y020781D02*
X015378Y020781D01*
X015353Y020722D02*
X015647Y020722D01*
X015671Y020664D02*
X015329Y020664D01*
X015272Y020605D02*
X015728Y020605D01*
X015794Y020547D02*
X015206Y020547D01*
X015077Y020267D02*
X014923Y020267D01*
X014781Y020208D01*
X014672Y020099D01*
X014613Y019957D01*
X014613Y019803D01*
X014672Y019661D01*
X014781Y019552D01*
X014923Y019493D01*
X015077Y019493D01*
X015219Y019552D01*
X015328Y019661D01*
X015387Y019803D01*
X015387Y019957D01*
X015328Y020099D01*
X015219Y020208D01*
X015077Y020267D01*
X015108Y020254D02*
X015892Y020254D01*
X015768Y020196D02*
X015232Y020196D01*
X015290Y020137D02*
X015710Y020137D01*
X015664Y020079D02*
X015336Y020079D01*
X015361Y020020D02*
X015639Y020020D01*
X015615Y019962D02*
X015385Y019962D01*
X015387Y019903D02*
X015613Y019903D01*
X015613Y019845D02*
X015387Y019845D01*
X015380Y019786D02*
X015620Y019786D01*
X015644Y019728D02*
X015356Y019728D01*
X015331Y019669D02*
X015669Y019669D01*
X015722Y019611D02*
X015278Y019611D01*
X015219Y019552D02*
X015781Y019552D01*
X015922Y019494D02*
X015078Y019494D01*
X014922Y019494D02*
X014078Y019494D01*
X014077Y019493D02*
X014219Y019552D01*
X014328Y019661D01*
X014387Y019803D01*
X014387Y019957D01*
X014328Y020099D01*
X014219Y020208D01*
X014077Y020267D01*
X013923Y020267D01*
X013781Y020208D01*
X013672Y020099D01*
X013613Y019957D01*
X013613Y019803D01*
X013672Y019661D01*
X013781Y019552D01*
X013923Y019493D01*
X014077Y019493D01*
X014219Y019552D02*
X014781Y019552D01*
X014722Y019611D02*
X014278Y019611D01*
X014331Y019669D02*
X014669Y019669D01*
X014644Y019728D02*
X014356Y019728D01*
X014380Y019786D02*
X014620Y019786D01*
X014613Y019845D02*
X014387Y019845D01*
X014387Y019903D02*
X014613Y019903D01*
X014615Y019962D02*
X014385Y019962D01*
X014361Y020020D02*
X014639Y020020D01*
X014664Y020079D02*
X014336Y020079D01*
X014290Y020137D02*
X014710Y020137D01*
X014768Y020196D02*
X014232Y020196D01*
X014108Y020254D02*
X014892Y020254D01*
X014794Y020547D02*
X014206Y020547D01*
X014219Y020552D02*
X014328Y020661D01*
X014387Y020803D01*
X014387Y020957D01*
X014328Y021099D01*
X014219Y021208D01*
X014077Y021267D01*
X013923Y021267D01*
X013781Y021208D01*
X013672Y021099D01*
X013613Y020957D01*
X013613Y020803D01*
X013672Y020661D01*
X013781Y020552D01*
X013923Y020493D01*
X014077Y020493D01*
X014219Y020552D01*
X014272Y020605D02*
X014728Y020605D01*
X014671Y020664D02*
X014329Y020664D01*
X014353Y020722D02*
X014647Y020722D01*
X014622Y020781D02*
X014378Y020781D01*
X014387Y020839D02*
X014613Y020839D01*
X014613Y020898D02*
X014387Y020898D01*
X014387Y020956D02*
X014613Y020956D01*
X014637Y021015D02*
X014363Y021015D01*
X014339Y021073D02*
X014661Y021073D01*
X014704Y021132D02*
X014295Y021132D01*
X014237Y021190D02*
X014763Y021190D01*
X014879Y021249D02*
X014121Y021249D01*
X013879Y021249D02*
X013121Y021249D01*
X013077Y021267D02*
X012923Y021267D01*
X012781Y021208D01*
X012672Y021099D01*
X012613Y020957D01*
X012613Y020803D01*
X012672Y020661D01*
X012781Y020552D01*
X012923Y020493D01*
X013077Y020493D01*
X013219Y020552D01*
X013328Y020661D01*
X013387Y020803D01*
X013387Y020957D01*
X013328Y021099D01*
X013219Y021208D01*
X013077Y021267D01*
X013237Y021190D02*
X013763Y021190D01*
X013704Y021132D02*
X013295Y021132D01*
X013339Y021073D02*
X013661Y021073D01*
X013637Y021015D02*
X013363Y021015D01*
X013387Y020956D02*
X013613Y020956D01*
X013613Y020898D02*
X013387Y020898D01*
X013387Y020839D02*
X013613Y020839D01*
X013622Y020781D02*
X013378Y020781D01*
X013353Y020722D02*
X013647Y020722D01*
X013671Y020664D02*
X013329Y020664D01*
X013272Y020605D02*
X013728Y020605D01*
X013794Y020547D02*
X013206Y020547D01*
X013077Y020267D02*
X012923Y020267D01*
X012781Y020208D01*
X012672Y020099D01*
X012613Y019957D01*
X012613Y019803D01*
X012672Y019661D01*
X012781Y019552D01*
X012923Y019493D01*
X013077Y019493D01*
X013219Y019552D01*
X013328Y019661D01*
X013387Y019803D01*
X013387Y019957D01*
X013328Y020099D01*
X013219Y020208D01*
X013077Y020267D01*
X013108Y020254D02*
X013892Y020254D01*
X013768Y020196D02*
X013232Y020196D01*
X013290Y020137D02*
X013710Y020137D01*
X013664Y020079D02*
X013336Y020079D01*
X013361Y020020D02*
X013639Y020020D01*
X013615Y019962D02*
X013385Y019962D01*
X013387Y019903D02*
X013613Y019903D01*
X013613Y019845D02*
X013387Y019845D01*
X013380Y019786D02*
X013620Y019786D01*
X013644Y019728D02*
X013356Y019728D01*
X013331Y019669D02*
X013669Y019669D01*
X013722Y019611D02*
X013278Y019611D01*
X013219Y019552D02*
X013781Y019552D01*
X013922Y019494D02*
X013078Y019494D01*
X012922Y019494D02*
X012078Y019494D01*
X012077Y019493D02*
X012219Y019552D01*
X012328Y019661D01*
X012387Y019803D01*
X012387Y019957D01*
X012328Y020099D01*
X012219Y020208D01*
X012077Y020267D01*
X011923Y020267D01*
X011781Y020208D01*
X011672Y020099D01*
X011613Y019957D01*
X011613Y019803D01*
X011672Y019661D01*
X011781Y019552D01*
X011923Y019493D01*
X012077Y019493D01*
X012219Y019552D02*
X012781Y019552D01*
X012722Y019611D02*
X012278Y019611D01*
X012331Y019669D02*
X012669Y019669D01*
X012644Y019728D02*
X012356Y019728D01*
X012380Y019786D02*
X012620Y019786D01*
X012613Y019845D02*
X012387Y019845D01*
X012387Y019903D02*
X012613Y019903D01*
X012615Y019962D02*
X012385Y019962D01*
X012361Y020020D02*
X012639Y020020D01*
X012664Y020079D02*
X012336Y020079D01*
X012290Y020137D02*
X012710Y020137D01*
X012768Y020196D02*
X012232Y020196D01*
X012108Y020254D02*
X012892Y020254D01*
X012794Y020547D02*
X012206Y020547D01*
X012219Y020552D02*
X012328Y020661D01*
X012387Y020803D01*
X012387Y020957D01*
X012328Y021099D01*
X012219Y021208D01*
X012077Y021267D01*
X011923Y021267D01*
X011781Y021208D01*
X011672Y021099D01*
X011613Y020957D01*
X011613Y020803D01*
X011672Y020661D01*
X011781Y020552D01*
X011923Y020493D01*
X012077Y020493D01*
X012219Y020552D01*
X012272Y020605D02*
X012728Y020605D01*
X012671Y020664D02*
X012329Y020664D01*
X012353Y020722D02*
X012647Y020722D01*
X012622Y020781D02*
X012378Y020781D01*
X012387Y020839D02*
X012613Y020839D01*
X012613Y020898D02*
X012387Y020898D01*
X012387Y020956D02*
X012613Y020956D01*
X012637Y021015D02*
X012363Y021015D01*
X012339Y021073D02*
X012661Y021073D01*
X012704Y021132D02*
X012295Y021132D01*
X012237Y021190D02*
X012763Y021190D01*
X012879Y021249D02*
X012121Y021249D01*
X011879Y021249D02*
X011121Y021249D01*
X011077Y021267D02*
X010923Y021267D01*
X010781Y021208D01*
X010672Y021099D01*
X010613Y020957D01*
X010613Y020803D01*
X010672Y020661D01*
X010781Y020552D01*
X010923Y020493D01*
X011077Y020493D01*
X011219Y020552D01*
X011328Y020661D01*
X011387Y020803D01*
X011387Y020957D01*
X011328Y021099D01*
X011219Y021208D01*
X011077Y021267D01*
X011237Y021190D02*
X011763Y021190D01*
X011704Y021132D02*
X011295Y021132D01*
X011339Y021073D02*
X011661Y021073D01*
X011637Y021015D02*
X011363Y021015D01*
X011387Y020956D02*
X011613Y020956D01*
X011613Y020898D02*
X011387Y020898D01*
X011387Y020839D02*
X011613Y020839D01*
X011622Y020781D02*
X011378Y020781D01*
X011353Y020722D02*
X011647Y020722D01*
X011671Y020664D02*
X011329Y020664D01*
X011272Y020605D02*
X011728Y020605D01*
X011794Y020547D02*
X011206Y020547D01*
X011077Y020267D02*
X010923Y020267D01*
X010781Y020208D01*
X010672Y020099D01*
X010613Y019957D01*
X010613Y019803D01*
X010672Y019661D01*
X010781Y019552D01*
X010923Y019493D01*
X011077Y019493D01*
X011219Y019552D01*
X011328Y019661D01*
X011387Y019803D01*
X011387Y019957D01*
X011328Y020099D01*
X011219Y020208D01*
X011077Y020267D01*
X011108Y020254D02*
X011892Y020254D01*
X011768Y020196D02*
X011232Y020196D01*
X011290Y020137D02*
X011710Y020137D01*
X011664Y020079D02*
X011336Y020079D01*
X011361Y020020D02*
X011639Y020020D01*
X011615Y019962D02*
X011385Y019962D01*
X011387Y019903D02*
X011613Y019903D01*
X011613Y019845D02*
X011387Y019845D01*
X011380Y019786D02*
X011620Y019786D01*
X011644Y019728D02*
X011356Y019728D01*
X011331Y019669D02*
X011669Y019669D01*
X011722Y019611D02*
X011278Y019611D01*
X011219Y019552D02*
X011781Y019552D01*
X011922Y019494D02*
X011078Y019494D01*
X010922Y019494D02*
X010078Y019494D01*
X010077Y019493D02*
X010219Y019552D01*
X010328Y019661D01*
X010387Y019803D01*
X010387Y019957D01*
X010328Y020099D01*
X010219Y020208D01*
X010077Y020267D01*
X009923Y020267D01*
X009781Y020208D01*
X009672Y020099D01*
X009613Y019957D01*
X009613Y019803D01*
X009672Y019661D01*
X009781Y019552D01*
X009923Y019493D01*
X010077Y019493D01*
X010219Y019552D02*
X010781Y019552D01*
X010722Y019611D02*
X010278Y019611D01*
X010331Y019669D02*
X010669Y019669D01*
X010644Y019728D02*
X010356Y019728D01*
X010380Y019786D02*
X010620Y019786D01*
X010613Y019845D02*
X010387Y019845D01*
X010387Y019903D02*
X010613Y019903D01*
X010615Y019962D02*
X010385Y019962D01*
X010361Y020020D02*
X010639Y020020D01*
X010664Y020079D02*
X010336Y020079D01*
X010290Y020137D02*
X010710Y020137D01*
X010768Y020196D02*
X010232Y020196D01*
X010108Y020254D02*
X010892Y020254D01*
X010794Y020547D02*
X010206Y020547D01*
X010219Y020552D02*
X010328Y020661D01*
X010387Y020803D01*
X010387Y020957D01*
X010328Y021099D01*
X010219Y021208D01*
X010077Y021267D01*
X009923Y021267D01*
X009781Y021208D01*
X009672Y021099D01*
X009613Y020957D01*
X009613Y020803D01*
X009672Y020661D01*
X009781Y020552D01*
X009923Y020493D01*
X010077Y020493D01*
X010219Y020552D01*
X010272Y020605D02*
X010728Y020605D01*
X010671Y020664D02*
X010329Y020664D01*
X010353Y020722D02*
X010647Y020722D01*
X010622Y020781D02*
X010378Y020781D01*
X010387Y020839D02*
X010613Y020839D01*
X010613Y020898D02*
X010387Y020898D01*
X010387Y020956D02*
X010613Y020956D01*
X010637Y021015D02*
X010363Y021015D01*
X010339Y021073D02*
X010661Y021073D01*
X010704Y021132D02*
X010295Y021132D01*
X010237Y021190D02*
X010763Y021190D01*
X010879Y021249D02*
X010121Y021249D01*
X009879Y021249D02*
X009121Y021249D01*
X009237Y021190D02*
X009763Y021190D01*
X009704Y021132D02*
X009295Y021132D01*
X009339Y021073D02*
X009661Y021073D01*
X009637Y021015D02*
X009363Y021015D01*
X009387Y020956D02*
X009613Y020956D01*
X009613Y020898D02*
X009387Y020898D01*
X009387Y020839D02*
X009613Y020839D01*
X009622Y020781D02*
X009378Y020781D01*
X009353Y020722D02*
X009647Y020722D01*
X009671Y020664D02*
X009329Y020664D01*
X009272Y020605D02*
X009728Y020605D01*
X009794Y020547D02*
X009206Y020547D01*
X009108Y020254D02*
X009892Y020254D01*
X009768Y020196D02*
X009232Y020196D01*
X009290Y020137D02*
X009710Y020137D01*
X009664Y020079D02*
X009336Y020079D01*
X009361Y020020D02*
X009639Y020020D01*
X009615Y019962D02*
X009385Y019962D01*
X009387Y019903D02*
X009613Y019903D01*
X009613Y019845D02*
X009387Y019845D01*
X009380Y019786D02*
X009620Y019786D01*
X009644Y019728D02*
X009356Y019728D01*
X009331Y019669D02*
X009669Y019669D01*
X009722Y019611D02*
X009278Y019611D01*
X009219Y019552D02*
X009781Y019552D01*
X009922Y019494D02*
X009078Y019494D01*
X008922Y019494D02*
X008391Y019494D01*
X008423Y019552D02*
X008781Y019552D01*
X008722Y019611D02*
X008427Y019611D01*
X008427Y019669D02*
X008669Y019669D01*
X008644Y019728D02*
X008427Y019728D01*
X008427Y019786D02*
X008620Y019786D01*
X008613Y019845D02*
X008427Y019845D01*
X008030Y019786D02*
X007970Y019786D01*
X007970Y019728D02*
X008030Y019728D01*
X008030Y019669D02*
X007970Y019669D01*
X007970Y019611D02*
X008030Y019611D01*
X008030Y019552D02*
X007970Y019552D01*
X007970Y019494D02*
X008030Y019494D01*
X008030Y019962D02*
X007970Y019962D01*
X007970Y020020D02*
X008030Y020020D01*
X008030Y020079D02*
X007970Y020079D01*
X007970Y020137D02*
X008030Y020137D01*
X008030Y020196D02*
X007970Y020196D01*
X007970Y020254D02*
X008030Y020254D01*
X007829Y020488D02*
X006405Y020488D01*
X006405Y021015D02*
X007595Y021015D01*
X007619Y021073D02*
X006405Y021073D01*
X006405Y021132D02*
X007655Y021132D01*
X007706Y021190D02*
X006405Y021190D01*
X019855Y017446D02*
X034261Y017446D01*
X034270Y017388D02*
X019913Y017388D01*
X019959Y017329D02*
X034280Y017329D01*
X034289Y017271D02*
X019959Y017271D01*
X019959Y017212D02*
X034298Y017212D01*
X034307Y017154D02*
X019944Y017154D01*
X019890Y017095D02*
X031931Y017095D01*
X032039Y017140D02*
X031760Y017024D01*
X031546Y016810D01*
X031430Y016531D01*
X031430Y016229D01*
X031546Y015950D01*
X031760Y015736D01*
X032039Y015620D01*
X032341Y015620D01*
X032620Y015736D01*
X032834Y015950D01*
X032950Y016229D01*
X032950Y016531D01*
X032834Y016810D01*
X032620Y017024D01*
X032341Y017140D01*
X032039Y017140D01*
X031789Y017037D02*
X019890Y017037D01*
X019890Y016978D02*
X031713Y016978D01*
X031655Y016920D02*
X019890Y016920D01*
X019890Y016861D02*
X031596Y016861D01*
X031543Y016803D02*
X019890Y016803D01*
X019890Y016744D02*
X031518Y016744D01*
X031494Y016686D02*
X019890Y016686D01*
X019890Y016627D02*
X031470Y016627D01*
X031446Y016569D02*
X019890Y016569D01*
X019890Y016510D02*
X031430Y016510D01*
X031430Y016452D02*
X019890Y016452D01*
X019890Y016393D02*
X031430Y016393D01*
X031430Y016335D02*
X028899Y016335D01*
X028882Y016343D02*
X028807Y016368D01*
X028729Y016380D01*
X028720Y016380D01*
X028720Y015910D01*
X028660Y015910D01*
X028660Y016380D01*
X028651Y016380D01*
X028573Y016368D01*
X028498Y016343D01*
X028428Y016308D01*
X028364Y016261D01*
X028309Y016206D01*
X028262Y016142D01*
X028227Y016072D01*
X028202Y015997D01*
X028190Y015919D01*
X028190Y015910D01*
X028660Y015910D01*
X028660Y015850D01*
X028190Y015850D01*
X028190Y015841D01*
X028202Y015763D01*
X028227Y015688D01*
X028262Y015618D01*
X028309Y015554D01*
X028364Y015499D01*
X028428Y015452D01*
X028498Y015417D01*
X028573Y015392D01*
X028651Y015380D01*
X028660Y015380D01*
X028660Y015850D01*
X028720Y015850D01*
X028720Y015910D01*
X029190Y015910D01*
X029190Y015919D01*
X029178Y015997D01*
X029153Y016072D01*
X029118Y016142D01*
X029071Y016206D01*
X029016Y016261D01*
X028952Y016308D01*
X028882Y016343D01*
X028996Y016276D02*
X031430Y016276D01*
X031435Y016218D02*
X029060Y016218D01*
X029105Y016159D02*
X031459Y016159D01*
X031483Y016101D02*
X029139Y016101D01*
X029163Y016042D02*
X031507Y016042D01*
X031532Y015984D02*
X029180Y015984D01*
X029189Y015925D02*
X031570Y015925D01*
X031629Y015867D02*
X029811Y015867D01*
X029807Y015868D02*
X029729Y015880D01*
X029720Y015880D01*
X029720Y015410D01*
X029660Y015410D01*
X029660Y015880D01*
X029651Y015880D01*
X029573Y015868D01*
X029498Y015843D01*
X029428Y015808D01*
X029364Y015761D01*
X029309Y015706D01*
X029262Y015642D01*
X029227Y015572D01*
X029202Y015497D01*
X029190Y015419D01*
X029190Y015410D01*
X029660Y015410D01*
X029660Y015350D01*
X029190Y015350D01*
X029190Y015341D01*
X029202Y015263D01*
X029227Y015188D01*
X029262Y015118D01*
X029309Y015054D01*
X029364Y014999D01*
X029428Y014952D01*
X029498Y014917D01*
X029573Y014892D01*
X029651Y014880D01*
X029660Y014880D01*
X029660Y015350D01*
X029720Y015350D01*
X029720Y015410D01*
X030190Y015410D01*
X030190Y015419D01*
X030178Y015497D01*
X030153Y015572D01*
X030118Y015642D01*
X030071Y015706D01*
X030016Y015761D01*
X029952Y015808D01*
X029882Y015843D01*
X029807Y015868D01*
X029720Y015867D02*
X029660Y015867D01*
X029660Y015808D02*
X029720Y015808D01*
X029720Y015750D02*
X029660Y015750D01*
X029660Y015691D02*
X029720Y015691D01*
X029720Y015633D02*
X029660Y015633D01*
X029660Y015574D02*
X029720Y015574D01*
X029720Y015516D02*
X029660Y015516D01*
X029660Y015457D02*
X029720Y015457D01*
X029720Y015399D02*
X034345Y015399D01*
X034345Y015457D02*
X030184Y015457D01*
X030172Y015516D02*
X034345Y015516D01*
X034345Y015574D02*
X030152Y015574D01*
X030122Y015633D02*
X032009Y015633D01*
X031867Y015691D02*
X030082Y015691D01*
X030028Y015750D02*
X031746Y015750D01*
X031687Y015808D02*
X029951Y015808D01*
X029569Y015867D02*
X028720Y015867D01*
X028720Y015850D02*
X029190Y015850D01*
X029190Y015841D01*
X029178Y015763D01*
X029153Y015688D01*
X029118Y015618D01*
X029071Y015554D01*
X029016Y015499D01*
X028952Y015452D01*
X028882Y015417D01*
X028807Y015392D01*
X028729Y015380D01*
X028720Y015380D01*
X028720Y015850D01*
X028720Y015808D02*
X028660Y015808D01*
X028660Y015750D02*
X028720Y015750D01*
X028720Y015691D02*
X028660Y015691D01*
X028660Y015633D02*
X028720Y015633D01*
X028720Y015574D02*
X028660Y015574D01*
X028660Y015516D02*
X028720Y015516D01*
X028720Y015457D02*
X028660Y015457D01*
X028660Y015399D02*
X028720Y015399D01*
X028781Y015340D02*
X028598Y015340D01*
X028429Y015270D01*
X028300Y015141D01*
X028230Y014971D01*
X028230Y014788D01*
X028300Y014619D01*
X028429Y014490D01*
X028598Y014420D01*
X028781Y014420D01*
X028951Y014490D01*
X029080Y014619D01*
X029150Y014788D01*
X029150Y014971D01*
X029080Y015141D01*
X028951Y015270D01*
X028781Y015340D01*
X028826Y015399D02*
X029660Y015399D01*
X029660Y015340D02*
X029720Y015340D01*
X029720Y015350D02*
X029720Y014880D01*
X029729Y014880D01*
X029807Y014892D01*
X029882Y014917D01*
X029952Y014952D01*
X030016Y014999D01*
X030071Y015054D01*
X030118Y015118D01*
X030153Y015188D01*
X030178Y015263D01*
X030190Y015341D01*
X030190Y015350D01*
X029720Y015350D01*
X029720Y015282D02*
X029660Y015282D01*
X029660Y015223D02*
X029720Y015223D01*
X029720Y015165D02*
X029660Y015165D01*
X029660Y015106D02*
X029720Y015106D01*
X029720Y015048D02*
X029660Y015048D01*
X029660Y014989D02*
X029720Y014989D01*
X029720Y014931D02*
X029660Y014931D01*
X029598Y014840D02*
X029781Y014840D01*
X029951Y014770D01*
X030080Y014641D01*
X030150Y014471D01*
X030150Y014288D01*
X030080Y014119D01*
X029951Y013990D01*
X029781Y013920D01*
X029598Y013920D01*
X029429Y013990D01*
X029300Y014119D01*
X029230Y014288D01*
X029230Y014471D01*
X029300Y014641D01*
X029429Y014770D01*
X029598Y014840D01*
X029535Y014814D02*
X029150Y014814D01*
X029150Y014872D02*
X034345Y014872D01*
X034345Y014814D02*
X029845Y014814D01*
X029909Y014931D02*
X034345Y014931D01*
X034345Y014989D02*
X030003Y014989D01*
X030065Y015048D02*
X034345Y015048D01*
X034345Y015106D02*
X030109Y015106D01*
X030141Y015165D02*
X034345Y015165D01*
X034345Y015223D02*
X030165Y015223D01*
X030181Y015282D02*
X034345Y015282D01*
X034345Y015340D02*
X030190Y015340D01*
X029471Y014931D02*
X029150Y014931D01*
X029143Y014989D02*
X029377Y014989D01*
X029315Y015048D02*
X029118Y015048D01*
X029094Y015106D02*
X029271Y015106D01*
X029239Y015165D02*
X029056Y015165D01*
X028997Y015223D02*
X029215Y015223D01*
X029199Y015282D02*
X028923Y015282D01*
X028959Y015457D02*
X029196Y015457D01*
X029208Y015516D02*
X029033Y015516D01*
X029086Y015574D02*
X029228Y015574D01*
X029258Y015633D02*
X029125Y015633D01*
X029154Y015691D02*
X029298Y015691D01*
X029352Y015750D02*
X029173Y015750D01*
X029185Y015808D02*
X029429Y015808D01*
X029190Y015340D02*
X019890Y015340D01*
X019890Y015282D02*
X028457Y015282D01*
X028383Y015223D02*
X019890Y015223D01*
X019890Y015165D02*
X028324Y015165D01*
X028286Y015106D02*
X019890Y015106D01*
X019890Y015048D02*
X028262Y015048D01*
X028237Y014989D02*
X019890Y014989D01*
X019890Y014931D02*
X028230Y014931D01*
X028230Y014872D02*
X019890Y014872D01*
X019890Y014814D02*
X028230Y014814D01*
X028244Y014755D02*
X019890Y014755D01*
X019890Y014697D02*
X028268Y014697D01*
X028292Y014638D02*
X019890Y014638D01*
X019890Y014580D02*
X028340Y014580D01*
X028398Y014521D02*
X019890Y014521D01*
X019890Y014463D02*
X028496Y014463D01*
X028598Y014340D02*
X028429Y014270D01*
X028300Y014141D01*
X028230Y013971D01*
X028230Y013788D01*
X028300Y013619D01*
X028429Y013490D01*
X028598Y013420D01*
X028781Y013420D01*
X028951Y013490D01*
X029080Y013619D01*
X029150Y013788D01*
X029150Y013971D01*
X029080Y014141D01*
X028951Y014270D01*
X028781Y014340D01*
X028598Y014340D01*
X028471Y014287D02*
X019890Y014287D01*
X019890Y014229D02*
X028388Y014229D01*
X028330Y014170D02*
X019890Y014170D01*
X019890Y014112D02*
X028288Y014112D01*
X028264Y014053D02*
X019890Y014053D01*
X019890Y013995D02*
X028240Y013995D01*
X028230Y013936D02*
X019892Y013936D01*
X019950Y013878D02*
X028230Y013878D01*
X028230Y013819D02*
X020009Y013819D01*
X020067Y013761D02*
X028242Y013761D01*
X028266Y013702D02*
X020126Y013702D01*
X020184Y013644D02*
X028290Y013644D01*
X028334Y013585D02*
X020243Y013585D01*
X020301Y013527D02*
X028393Y013527D01*
X028482Y013468D02*
X020360Y013468D01*
X020418Y013410D02*
X029230Y013410D01*
X029230Y013468D02*
X028898Y013468D01*
X028987Y013527D02*
X029253Y013527D01*
X029230Y013471D02*
X029230Y013288D01*
X029300Y013119D01*
X029429Y012990D01*
X029598Y012920D01*
X029781Y012920D01*
X029951Y012990D01*
X030080Y013119D01*
X030150Y013288D01*
X030150Y013471D01*
X030080Y013641D01*
X029951Y013770D01*
X029781Y013840D01*
X029598Y013840D01*
X029429Y013770D01*
X029300Y013641D01*
X029230Y013471D01*
X029230Y013351D02*
X020477Y013351D01*
X020535Y013293D02*
X028484Y013293D01*
X028394Y013234D02*
X020594Y013234D01*
X020652Y013176D02*
X028335Y013176D01*
X028290Y013117D02*
X020711Y013117D01*
X020867Y013059D02*
X028266Y013059D01*
X028242Y013000D02*
X020926Y013000D01*
X020959Y012942D02*
X028230Y012942D01*
X028230Y012883D02*
X020959Y012883D01*
X020959Y012825D02*
X028230Y012825D01*
X028239Y012766D02*
X020932Y012766D01*
X020873Y012708D02*
X028264Y012708D01*
X028986Y013234D02*
X029253Y013234D01*
X029230Y013293D02*
X028896Y013293D01*
X029045Y013176D02*
X029277Y013176D01*
X029302Y013117D02*
X029090Y013117D01*
X029114Y013059D02*
X029361Y013059D01*
X029419Y013000D02*
X029138Y013000D01*
X029150Y012942D02*
X029546Y012942D01*
X029834Y012942D02*
X034345Y012942D01*
X034345Y013000D02*
X029961Y013000D01*
X030019Y013059D02*
X034345Y013059D01*
X034345Y013117D02*
X030078Y013117D01*
X030103Y013176D02*
X034345Y013176D01*
X034345Y013234D02*
X030127Y013234D01*
X030150Y013293D02*
X034345Y013293D01*
X034345Y013351D02*
X030150Y013351D01*
X030150Y013410D02*
X034345Y013410D01*
X034345Y013468D02*
X030150Y013468D01*
X030127Y013527D02*
X034345Y013527D01*
X034345Y013585D02*
X030103Y013585D01*
X030077Y013644D02*
X034345Y013644D01*
X034345Y013702D02*
X030018Y013702D01*
X029960Y013761D02*
X034345Y013761D01*
X034345Y013819D02*
X029832Y013819D01*
X029820Y013936D02*
X034345Y013936D01*
X034345Y013878D02*
X029150Y013878D01*
X029150Y013936D02*
X029560Y013936D01*
X029548Y013819D02*
X029150Y013819D01*
X029138Y013761D02*
X029420Y013761D01*
X029362Y013702D02*
X029114Y013702D01*
X029090Y013644D02*
X029303Y013644D01*
X029277Y013585D02*
X029046Y013585D01*
X029140Y013995D02*
X029425Y013995D01*
X029366Y014053D02*
X029116Y014053D01*
X029092Y014112D02*
X029308Y014112D01*
X029279Y014170D02*
X029050Y014170D01*
X028992Y014229D02*
X029255Y014229D01*
X029231Y014287D02*
X028909Y014287D01*
X028884Y014463D02*
X029230Y014463D01*
X029230Y014404D02*
X019890Y014404D01*
X019890Y014346D02*
X029230Y014346D01*
X029251Y014521D02*
X028982Y014521D01*
X029040Y014580D02*
X029275Y014580D01*
X029299Y014638D02*
X029088Y014638D01*
X029112Y014697D02*
X029356Y014697D01*
X029415Y014755D02*
X029136Y014755D01*
X029965Y014755D02*
X034345Y014755D01*
X034345Y014697D02*
X030024Y014697D01*
X030081Y014638D02*
X034345Y014638D01*
X034345Y014580D02*
X030105Y014580D01*
X030129Y014521D02*
X034345Y014521D01*
X034345Y014463D02*
X030150Y014463D01*
X030150Y014404D02*
X034345Y014404D01*
X034345Y014346D02*
X030150Y014346D01*
X030149Y014287D02*
X034345Y014287D01*
X034345Y014229D02*
X030125Y014229D01*
X030101Y014170D02*
X034345Y014170D01*
X034345Y014112D02*
X030072Y014112D01*
X030014Y014053D02*
X034345Y014053D01*
X034345Y013995D02*
X029955Y013995D01*
X028554Y015399D02*
X019890Y015399D01*
X019890Y015457D02*
X028421Y015457D01*
X028347Y015516D02*
X019890Y015516D01*
X019890Y015574D02*
X028294Y015574D01*
X028255Y015633D02*
X019890Y015633D01*
X019890Y015691D02*
X028226Y015691D01*
X028207Y015750D02*
X019890Y015750D01*
X019890Y015808D02*
X028195Y015808D01*
X028191Y015925D02*
X019890Y015925D01*
X019890Y015867D02*
X028660Y015867D01*
X028660Y015925D02*
X028720Y015925D01*
X028720Y015984D02*
X028660Y015984D01*
X028660Y016042D02*
X028720Y016042D01*
X028720Y016101D02*
X028660Y016101D01*
X028660Y016159D02*
X028720Y016159D01*
X028720Y016218D02*
X028660Y016218D01*
X028660Y016276D02*
X028720Y016276D01*
X028720Y016335D02*
X028660Y016335D01*
X028481Y016335D02*
X019890Y016335D01*
X019890Y016276D02*
X028384Y016276D01*
X028320Y016218D02*
X019890Y016218D01*
X019890Y016159D02*
X028275Y016159D01*
X028241Y016101D02*
X019890Y016101D01*
X019890Y016042D02*
X028217Y016042D01*
X028200Y015984D02*
X019890Y015984D01*
X028190Y009841D02*
X028202Y009763D01*
X032370Y011128D02*
X034345Y011128D01*
X034345Y015633D02*
X032371Y015633D01*
X032513Y015691D02*
X034345Y015691D01*
X034345Y015750D02*
X032634Y015750D01*
X032693Y015808D02*
X034345Y015808D01*
X034345Y015867D02*
X032751Y015867D01*
X032810Y015925D02*
X034345Y015925D01*
X034345Y015984D02*
X032848Y015984D01*
X032873Y016042D02*
X034345Y016042D01*
X034345Y016101D02*
X032897Y016101D01*
X032921Y016159D02*
X034345Y016159D01*
X034345Y016218D02*
X032945Y016218D01*
X032950Y016276D02*
X034345Y016276D01*
X034345Y016335D02*
X032950Y016335D01*
X032950Y016393D02*
X034345Y016393D01*
X034345Y016452D02*
X032950Y016452D01*
X032950Y016510D02*
X034345Y016510D01*
X034345Y016569D02*
X032934Y016569D01*
X032910Y016627D02*
X034345Y016627D01*
X034343Y016686D02*
X032886Y016686D01*
X032862Y016744D02*
X034341Y016744D01*
X034338Y016803D02*
X032837Y016803D01*
X032784Y016861D02*
X034336Y016861D01*
X034334Y016920D02*
X032725Y016920D01*
X032667Y016978D02*
X034331Y016978D01*
X034326Y017037D02*
X032591Y017037D01*
X032449Y017095D02*
X034317Y017095D01*
D20*
X016500Y007380D02*
X016500Y003880D01*
X023000Y005380D02*
X023250Y005130D01*
X025000Y005130D01*
M02*
