G75*
G70*
%OFA0B0*%
%FSLAX24Y24*%
%IPPOS*%
%LPD*%
%AMOC8*
5,1,8,0,0,1.08239X$1,22.5*
%
%ADD10C,0.0050*%
%ADD11C,0.0000*%
D10*
X006250Y000130D02*
X006250Y005130D01*
X006357Y005133D01*
X006464Y005140D01*
X006570Y005153D01*
X006676Y005171D01*
X006780Y005193D01*
X006884Y005221D01*
X006986Y005254D01*
X007086Y005291D01*
X007185Y005333D01*
X007281Y005380D01*
X007375Y005431D01*
X007466Y005487D01*
X007555Y005547D01*
X007641Y005611D01*
X007723Y005680D01*
X007803Y005752D01*
X007878Y005827D01*
X007950Y005907D01*
X008019Y005989D01*
X008083Y006075D01*
X008143Y006164D01*
X008199Y006255D01*
X008250Y006349D01*
X008297Y006445D01*
X008339Y006544D01*
X008376Y006644D01*
X008409Y006746D01*
X008437Y006850D01*
X008459Y006954D01*
X008477Y007060D01*
X008490Y007166D01*
X008497Y007273D01*
X008500Y007380D01*
X008500Y014380D01*
X008497Y014487D01*
X008490Y014594D01*
X008477Y014700D01*
X008459Y014806D01*
X008437Y014910D01*
X008409Y015014D01*
X008376Y015116D01*
X008339Y015216D01*
X008297Y015315D01*
X008250Y015411D01*
X008199Y015505D01*
X008143Y015596D01*
X008083Y015685D01*
X008019Y015771D01*
X007950Y015853D01*
X007878Y015933D01*
X007803Y016008D01*
X007723Y016080D01*
X007641Y016149D01*
X007555Y016213D01*
X007466Y016273D01*
X007375Y016329D01*
X007281Y016380D01*
X007185Y016427D01*
X007086Y016469D01*
X006986Y016506D01*
X006884Y016539D01*
X006780Y016567D01*
X006676Y016589D01*
X006570Y016607D01*
X006464Y016620D01*
X006357Y016627D01*
X006250Y016630D01*
X006250Y021630D01*
X029500Y021630D01*
X029738Y021624D01*
X029975Y021607D01*
X030212Y021579D01*
X030446Y021540D01*
X030679Y021489D01*
X030909Y021427D01*
X031135Y021355D01*
X031358Y021272D01*
X031577Y021178D01*
X031791Y021074D01*
X032000Y020960D01*
X032203Y020836D01*
X032400Y020703D01*
X032591Y020560D01*
X032774Y020409D01*
X032950Y020249D01*
X033119Y020080D01*
X033279Y019904D01*
X033430Y019721D01*
X033573Y019530D01*
X033706Y019333D01*
X033830Y019130D01*
X033944Y018921D01*
X034048Y018707D01*
X034142Y018488D01*
X034225Y018265D01*
X034297Y018039D01*
X034359Y017809D01*
X034410Y017576D01*
X034449Y017342D01*
X034477Y017105D01*
X034494Y016868D01*
X034500Y016630D01*
X034500Y005130D01*
X034494Y004892D01*
X034477Y004655D01*
X034449Y004418D01*
X034410Y004184D01*
X034359Y003951D01*
X034297Y003721D01*
X034225Y003495D01*
X034142Y003272D01*
X034048Y003053D01*
X033944Y002839D01*
X033830Y002630D01*
X033706Y002427D01*
X033573Y002230D01*
X033430Y002039D01*
X033279Y001856D01*
X033119Y001680D01*
X032950Y001511D01*
X032774Y001351D01*
X032591Y001200D01*
X032400Y001057D01*
X032203Y000924D01*
X032000Y000800D01*
X031791Y000686D01*
X031577Y000582D01*
X031358Y000488D01*
X031135Y000405D01*
X030909Y000333D01*
X030679Y000271D01*
X030446Y000220D01*
X030212Y000181D01*
X029975Y000153D01*
X029738Y000136D01*
X029500Y000130D01*
X006250Y000130D01*
D11*
X023992Y008380D02*
X023994Y008405D01*
X024000Y008430D01*
X024009Y008454D01*
X024022Y008476D01*
X024039Y008496D01*
X024058Y008513D01*
X024079Y008527D01*
X024103Y008537D01*
X024127Y008544D01*
X024153Y008547D01*
X024178Y008546D01*
X024203Y008541D01*
X024227Y008532D01*
X024250Y008520D01*
X024270Y008505D01*
X024288Y008486D01*
X024303Y008465D01*
X024314Y008442D01*
X024322Y008418D01*
X024326Y008393D01*
X024326Y008367D01*
X024322Y008342D01*
X024314Y008318D01*
X024303Y008295D01*
X024288Y008274D01*
X024270Y008255D01*
X024250Y008240D01*
X024227Y008228D01*
X024203Y008219D01*
X024178Y008214D01*
X024153Y008213D01*
X024127Y008216D01*
X024103Y008223D01*
X024079Y008233D01*
X024058Y008247D01*
X024039Y008264D01*
X024022Y008284D01*
X024009Y008306D01*
X024000Y008330D01*
X023994Y008355D01*
X023992Y008380D01*
X025174Y008380D02*
X025176Y008405D01*
X025182Y008430D01*
X025191Y008454D01*
X025204Y008476D01*
X025221Y008496D01*
X025240Y008513D01*
X025261Y008527D01*
X025285Y008537D01*
X025309Y008544D01*
X025335Y008547D01*
X025360Y008546D01*
X025385Y008541D01*
X025409Y008532D01*
X025432Y008520D01*
X025452Y008505D01*
X025470Y008486D01*
X025485Y008465D01*
X025496Y008442D01*
X025504Y008418D01*
X025508Y008393D01*
X025508Y008367D01*
X025504Y008342D01*
X025496Y008318D01*
X025485Y008295D01*
X025470Y008274D01*
X025452Y008255D01*
X025432Y008240D01*
X025409Y008228D01*
X025385Y008219D01*
X025360Y008214D01*
X025335Y008213D01*
X025309Y008216D01*
X025285Y008223D01*
X025261Y008233D01*
X025240Y008247D01*
X025221Y008264D01*
X025204Y008284D01*
X025191Y008306D01*
X025182Y008330D01*
X025176Y008355D01*
X025174Y008380D01*
X031560Y010380D02*
X031562Y010430D01*
X031568Y010480D01*
X031578Y010529D01*
X031592Y010577D01*
X031609Y010624D01*
X031630Y010669D01*
X031655Y010713D01*
X031683Y010754D01*
X031715Y010793D01*
X031749Y010830D01*
X031786Y010864D01*
X031826Y010894D01*
X031868Y010921D01*
X031912Y010945D01*
X031958Y010966D01*
X032005Y010982D01*
X032053Y010995D01*
X032103Y011004D01*
X032152Y011009D01*
X032203Y011010D01*
X032253Y011007D01*
X032302Y011000D01*
X032351Y010989D01*
X032399Y010974D01*
X032445Y010956D01*
X032490Y010934D01*
X032533Y010908D01*
X032574Y010879D01*
X032613Y010847D01*
X032649Y010812D01*
X032681Y010774D01*
X032711Y010734D01*
X032738Y010691D01*
X032761Y010647D01*
X032780Y010601D01*
X032796Y010553D01*
X032808Y010504D01*
X032816Y010455D01*
X032820Y010405D01*
X032820Y010355D01*
X032816Y010305D01*
X032808Y010256D01*
X032796Y010207D01*
X032780Y010159D01*
X032761Y010113D01*
X032738Y010069D01*
X032711Y010026D01*
X032681Y009986D01*
X032649Y009948D01*
X032613Y009913D01*
X032574Y009881D01*
X032533Y009852D01*
X032490Y009826D01*
X032445Y009804D01*
X032399Y009786D01*
X032351Y009771D01*
X032302Y009760D01*
X032253Y009753D01*
X032203Y009750D01*
X032152Y009751D01*
X032103Y009756D01*
X032053Y009765D01*
X032005Y009778D01*
X031958Y009794D01*
X031912Y009815D01*
X031868Y009839D01*
X031826Y009866D01*
X031786Y009896D01*
X031749Y009930D01*
X031715Y009967D01*
X031683Y010006D01*
X031655Y010047D01*
X031630Y010091D01*
X031609Y010136D01*
X031592Y010183D01*
X031578Y010231D01*
X031568Y010280D01*
X031562Y010330D01*
X031560Y010380D01*
X031560Y011880D02*
X031562Y011930D01*
X031568Y011980D01*
X031578Y012029D01*
X031592Y012077D01*
X031609Y012124D01*
X031630Y012169D01*
X031655Y012213D01*
X031683Y012254D01*
X031715Y012293D01*
X031749Y012330D01*
X031786Y012364D01*
X031826Y012394D01*
X031868Y012421D01*
X031912Y012445D01*
X031958Y012466D01*
X032005Y012482D01*
X032053Y012495D01*
X032103Y012504D01*
X032152Y012509D01*
X032203Y012510D01*
X032253Y012507D01*
X032302Y012500D01*
X032351Y012489D01*
X032399Y012474D01*
X032445Y012456D01*
X032490Y012434D01*
X032533Y012408D01*
X032574Y012379D01*
X032613Y012347D01*
X032649Y012312D01*
X032681Y012274D01*
X032711Y012234D01*
X032738Y012191D01*
X032761Y012147D01*
X032780Y012101D01*
X032796Y012053D01*
X032808Y012004D01*
X032816Y011955D01*
X032820Y011905D01*
X032820Y011855D01*
X032816Y011805D01*
X032808Y011756D01*
X032796Y011707D01*
X032780Y011659D01*
X032761Y011613D01*
X032738Y011569D01*
X032711Y011526D01*
X032681Y011486D01*
X032649Y011448D01*
X032613Y011413D01*
X032574Y011381D01*
X032533Y011352D01*
X032490Y011326D01*
X032445Y011304D01*
X032399Y011286D01*
X032351Y011271D01*
X032302Y011260D01*
X032253Y011253D01*
X032203Y011250D01*
X032152Y011251D01*
X032103Y011256D01*
X032053Y011265D01*
X032005Y011278D01*
X031958Y011294D01*
X031912Y011315D01*
X031868Y011339D01*
X031826Y011366D01*
X031786Y011396D01*
X031749Y011430D01*
X031715Y011467D01*
X031683Y011506D01*
X031655Y011547D01*
X031630Y011591D01*
X031609Y011636D01*
X031592Y011683D01*
X031578Y011731D01*
X031568Y011780D01*
X031562Y011830D01*
X031560Y011880D01*
X031560Y016380D02*
X031562Y016430D01*
X031568Y016480D01*
X031578Y016529D01*
X031592Y016577D01*
X031609Y016624D01*
X031630Y016669D01*
X031655Y016713D01*
X031683Y016754D01*
X031715Y016793D01*
X031749Y016830D01*
X031786Y016864D01*
X031826Y016894D01*
X031868Y016921D01*
X031912Y016945D01*
X031958Y016966D01*
X032005Y016982D01*
X032053Y016995D01*
X032103Y017004D01*
X032152Y017009D01*
X032203Y017010D01*
X032253Y017007D01*
X032302Y017000D01*
X032351Y016989D01*
X032399Y016974D01*
X032445Y016956D01*
X032490Y016934D01*
X032533Y016908D01*
X032574Y016879D01*
X032613Y016847D01*
X032649Y016812D01*
X032681Y016774D01*
X032711Y016734D01*
X032738Y016691D01*
X032761Y016647D01*
X032780Y016601D01*
X032796Y016553D01*
X032808Y016504D01*
X032816Y016455D01*
X032820Y016405D01*
X032820Y016355D01*
X032816Y016305D01*
X032808Y016256D01*
X032796Y016207D01*
X032780Y016159D01*
X032761Y016113D01*
X032738Y016069D01*
X032711Y016026D01*
X032681Y015986D01*
X032649Y015948D01*
X032613Y015913D01*
X032574Y015881D01*
X032533Y015852D01*
X032490Y015826D01*
X032445Y015804D01*
X032399Y015786D01*
X032351Y015771D01*
X032302Y015760D01*
X032253Y015753D01*
X032203Y015750D01*
X032152Y015751D01*
X032103Y015756D01*
X032053Y015765D01*
X032005Y015778D01*
X031958Y015794D01*
X031912Y015815D01*
X031868Y015839D01*
X031826Y015866D01*
X031786Y015896D01*
X031749Y015930D01*
X031715Y015967D01*
X031683Y016006D01*
X031655Y016047D01*
X031630Y016091D01*
X031609Y016136D01*
X031592Y016183D01*
X031578Y016231D01*
X031568Y016280D01*
X031562Y016330D01*
X031560Y016380D01*
X031560Y005880D02*
X031562Y005930D01*
X031568Y005980D01*
X031578Y006029D01*
X031592Y006077D01*
X031609Y006124D01*
X031630Y006169D01*
X031655Y006213D01*
X031683Y006254D01*
X031715Y006293D01*
X031749Y006330D01*
X031786Y006364D01*
X031826Y006394D01*
X031868Y006421D01*
X031912Y006445D01*
X031958Y006466D01*
X032005Y006482D01*
X032053Y006495D01*
X032103Y006504D01*
X032152Y006509D01*
X032203Y006510D01*
X032253Y006507D01*
X032302Y006500D01*
X032351Y006489D01*
X032399Y006474D01*
X032445Y006456D01*
X032490Y006434D01*
X032533Y006408D01*
X032574Y006379D01*
X032613Y006347D01*
X032649Y006312D01*
X032681Y006274D01*
X032711Y006234D01*
X032738Y006191D01*
X032761Y006147D01*
X032780Y006101D01*
X032796Y006053D01*
X032808Y006004D01*
X032816Y005955D01*
X032820Y005905D01*
X032820Y005855D01*
X032816Y005805D01*
X032808Y005756D01*
X032796Y005707D01*
X032780Y005659D01*
X032761Y005613D01*
X032738Y005569D01*
X032711Y005526D01*
X032681Y005486D01*
X032649Y005448D01*
X032613Y005413D01*
X032574Y005381D01*
X032533Y005352D01*
X032490Y005326D01*
X032445Y005304D01*
X032399Y005286D01*
X032351Y005271D01*
X032302Y005260D01*
X032253Y005253D01*
X032203Y005250D01*
X032152Y005251D01*
X032103Y005256D01*
X032053Y005265D01*
X032005Y005278D01*
X031958Y005294D01*
X031912Y005315D01*
X031868Y005339D01*
X031826Y005366D01*
X031786Y005396D01*
X031749Y005430D01*
X031715Y005467D01*
X031683Y005506D01*
X031655Y005547D01*
X031630Y005591D01*
X031609Y005636D01*
X031592Y005683D01*
X031578Y005731D01*
X031568Y005780D01*
X031562Y005830D01*
X031560Y005880D01*
M02*
