%
M48
M72
T01C0.0118
T02C0.0197
T03C0.0315
T04C0.0354
T05C0.1180
%
T01
X6400Y3359
X13150Y15109
X12150Y17359
X15150Y19609
X16650Y20109
X16900Y19859
X18400Y20359
X15900Y17359
X26650Y15109
X30650Y19609
X30900Y19859
X30150Y20109
X29150Y20109
X28900Y20359
X28650Y19859
X31900Y20359
X34150Y20359
X35650Y19609
X35900Y19859
X36150Y20109
T02
X34650Y20859
X31400Y20859
X29650Y20859
X31150Y17859
X26150Y20859
X29900Y24609
X34900Y24609
X33150Y10109
X27650Y10109
X19650Y10109
X14150Y10109
X17650Y17859
X17900Y20859
X11650Y20859
X10150Y22109
X3950Y24209
X3400Y25609
T03
X3390Y3275
X3390Y4275
X4390Y4275
X4390Y3275
T04
X13957Y7153
X14957Y7153
X15957Y7153
X16957Y7153
X16457Y8153
X17457Y8153
X15457Y8153
X14457Y8153
X19457Y7153
X20457Y7153
X21457Y7153
X22457Y7153
X21957Y8153
X22957Y8153
X20957Y8153
X19957Y8153
X27343Y7153
X28343Y7153
X29343Y7153
X30343Y7153
X30843Y8153
X29843Y8153
X28843Y8153
X27843Y8153
X32843Y7153
X33843Y7153
X34843Y7153
X35843Y7153
X36343Y8153
X35343Y8153
X34343Y8153
X33343Y8153
X33843Y25562
X34843Y25562
X35843Y25562
X36343Y26562
X35343Y26562
X34343Y26562
X33343Y26562
X32843Y25562
X30843Y26562
X29843Y26562
X28843Y26562
X27843Y26562
X28343Y25562
X29343Y25562
X30343Y25562
X27343Y25562
T05
X4678Y27999
X2827Y29180
X4678Y30361
M30
