G75*
G70*
%OFA0B0*%
%FSLAX24Y24*%
%IPPOS*%
%LPD*%
%AMOC8*
5,1,8,0,0,1.08239X$1,22.5*
%
%ADD10C,0.0554*%
%ADD11C,0.0515*%
%ADD12C,0.1700*%
%ADD13C,0.0317*%
%ADD14C,0.0160*%
%ADD15C,0.0240*%
%ADD16C,0.0400*%
%ADD17C,0.0238*%
%ADD18C,0.0100*%
D10*
X013957Y007153D03*
X014957Y007153D03*
X015957Y007153D03*
X016957Y007153D03*
X016457Y008153D03*
X017457Y008153D03*
X015457Y008153D03*
X014457Y008153D03*
X019457Y007153D03*
X020457Y007153D03*
X021457Y007153D03*
X022457Y007153D03*
X021957Y008153D03*
X022957Y008153D03*
X020957Y008153D03*
X019957Y008153D03*
X027343Y007153D03*
X028343Y007153D03*
X029343Y007153D03*
X030343Y007153D03*
X030843Y008153D03*
X029843Y008153D03*
X028843Y008153D03*
X027843Y008153D03*
X032843Y007153D03*
X033843Y007153D03*
X034843Y007153D03*
X035843Y007153D03*
X036343Y008153D03*
X035343Y008153D03*
X034343Y008153D03*
X033343Y008153D03*
X033843Y025562D03*
X034843Y025562D03*
X035843Y025562D03*
X036343Y026562D03*
X035343Y026562D03*
X034343Y026562D03*
X033343Y026562D03*
X032843Y025562D03*
X030843Y026562D03*
X029843Y026562D03*
X028843Y026562D03*
X027843Y026562D03*
X028343Y025562D03*
X029343Y025562D03*
X030343Y025562D03*
X027343Y025562D03*
D11*
X004390Y004275D03*
X003390Y004275D03*
X003390Y003275D03*
X004390Y003275D03*
D12*
X004678Y027999D03*
X002827Y029180D03*
X004678Y030361D03*
D13*
X003400Y025609D03*
X003950Y024209D03*
X010150Y022109D03*
X011650Y020859D03*
X017900Y020859D03*
X017650Y017859D03*
X026150Y020859D03*
X029650Y020859D03*
X031400Y020859D03*
X031150Y017859D03*
X034650Y020859D03*
X034900Y024609D03*
X029900Y024609D03*
X027650Y010109D03*
X033150Y010109D03*
X019650Y010109D03*
X014150Y010109D03*
D14*
X017650Y020859D02*
X017900Y020859D01*
X010150Y022109D02*
X008050Y024209D01*
X003950Y024209D01*
X025650Y020859D02*
X026150Y020859D01*
X029400Y020859D02*
X029650Y020859D01*
X031150Y020859D02*
X031400Y020859D01*
D15*
X034650Y020859D01*
X031400Y020859D02*
X031150Y020859D01*
X029650Y020859D01*
X029400Y020859D01*
X026150Y020859D01*
X025650Y020859D01*
X017900Y020859D01*
X017650Y020859D01*
X011650Y020859D01*
X004678Y030361D02*
X004008Y030361D01*
X004678Y030361D02*
X029650Y030361D01*
X029843Y030168D01*
X029843Y026562D01*
X029650Y030361D02*
X035148Y030361D01*
X035400Y030109D01*
X035400Y026619D01*
X035343Y026562D01*
X033150Y010109D02*
X028150Y010109D01*
X027650Y010109D01*
X019650Y010109D01*
X014150Y010109D01*
X001400Y010109D01*
D16*
X001400Y002609D01*
X002150Y001859D01*
X006400Y001859D01*
X014900Y001859D01*
X014957Y001916D01*
X014957Y007153D01*
X016957Y007153D02*
X016957Y001916D01*
X016900Y001859D01*
X020400Y001859D01*
X020457Y001916D01*
X020457Y007153D01*
X022457Y007153D02*
X022457Y005666D01*
X022150Y005359D01*
X022150Y001859D01*
X028400Y001859D01*
X028343Y001916D01*
X028343Y007153D01*
X030343Y007153D02*
X030343Y001916D01*
X030400Y001859D01*
X033900Y001859D01*
X033843Y001916D01*
X033843Y007153D01*
X035650Y006960D02*
X035843Y007153D01*
X035650Y006960D02*
X035650Y002359D01*
X035150Y001859D01*
X033900Y001859D01*
X030400Y001859D02*
X028400Y001859D01*
X022150Y001859D02*
X020400Y001859D01*
X016900Y001859D02*
X014900Y001859D01*
X001400Y010109D02*
X001400Y015109D01*
X001400Y027859D01*
X002025Y028484D01*
X003400Y027109D01*
X003400Y025609D01*
X002025Y028484D02*
X002721Y029180D01*
X002827Y029180D01*
X004008Y030361D01*
D17*
X016650Y020109D03*
X016900Y019859D03*
X018400Y020359D03*
X015150Y019609D03*
X015900Y017359D03*
X013150Y015109D03*
X012150Y017359D03*
X026650Y015109D03*
X030650Y019609D03*
X030900Y019859D03*
X030150Y020109D03*
X029150Y020109D03*
X028900Y020359D03*
X028650Y019859D03*
X031900Y020359D03*
X034150Y020359D03*
X035650Y019609D03*
X035900Y019859D03*
X036150Y020109D03*
X006400Y003359D03*
D18*
X000300Y001259D02*
X000300Y032455D01*
X039370Y032455D01*
X039370Y001259D01*
X000300Y001259D01*
X000300Y001306D02*
X039370Y001306D01*
X039370Y001405D02*
X000300Y001405D01*
X000300Y001503D02*
X039370Y001503D01*
X039370Y001602D02*
X000300Y001602D01*
X000300Y001700D02*
X039370Y001700D01*
X039370Y001799D02*
X000300Y001799D01*
X000300Y001897D02*
X039370Y001897D01*
X039370Y001996D02*
X000300Y001996D01*
X000300Y002094D02*
X039370Y002094D01*
X039370Y002193D02*
X000300Y002193D01*
X000300Y002291D02*
X039370Y002291D01*
X039370Y002390D02*
X000300Y002390D01*
X000300Y002488D02*
X039370Y002488D01*
X039370Y002587D02*
X000300Y002587D01*
X000300Y002685D02*
X039370Y002685D01*
X039370Y002784D02*
X000300Y002784D01*
X000300Y002882D02*
X039370Y002882D01*
X039370Y002981D02*
X004616Y002981D01*
X004598Y002963D02*
X004702Y003066D01*
X004758Y003202D01*
X004758Y003348D01*
X004702Y003483D01*
X004598Y003586D01*
X004463Y003642D01*
X004317Y003642D01*
X004182Y003586D01*
X004079Y003483D01*
X004023Y003348D01*
X004023Y003202D01*
X004079Y003066D01*
X004182Y002963D01*
X004317Y002907D01*
X004463Y002907D01*
X004598Y002963D01*
X004707Y003079D02*
X039370Y003079D01*
X039370Y003178D02*
X004748Y003178D01*
X004758Y003276D02*
X039370Y003276D01*
X039370Y003375D02*
X004746Y003375D01*
X004706Y003473D02*
X039370Y003473D01*
X039370Y003572D02*
X004613Y003572D01*
X004463Y003907D02*
X004317Y003907D01*
X004182Y003963D01*
X004079Y004066D01*
X004023Y004202D01*
X004023Y004348D01*
X004079Y004483D01*
X004182Y004586D01*
X004317Y004642D01*
X004463Y004642D01*
X004598Y004586D01*
X004702Y004483D01*
X004758Y004348D01*
X004758Y004202D01*
X004702Y004066D01*
X004598Y003963D01*
X004463Y003907D01*
X004601Y003966D02*
X013077Y003966D01*
X013015Y003991D02*
X013302Y003873D01*
X013612Y003873D01*
X013899Y003991D01*
X014118Y004211D01*
X014237Y004497D01*
X014237Y004808D01*
X014118Y005094D01*
X013899Y005314D01*
X013612Y005432D01*
X013302Y005432D01*
X013015Y005314D01*
X012796Y005094D01*
X012677Y004808D01*
X012677Y004497D01*
X012796Y004211D01*
X013015Y003991D01*
X012942Y004064D02*
X004700Y004064D01*
X004742Y004163D02*
X012844Y004163D01*
X012775Y004261D02*
X004758Y004261D01*
X004753Y004360D02*
X012734Y004360D01*
X012693Y004458D02*
X004712Y004458D01*
X004628Y004557D02*
X012677Y004557D01*
X012677Y004655D02*
X000300Y004655D01*
X000300Y004557D02*
X003153Y004557D01*
X003182Y004586D02*
X003079Y004483D01*
X003023Y004348D01*
X003023Y004202D01*
X003079Y004066D01*
X003182Y003963D01*
X003317Y003907D01*
X003463Y003907D01*
X003598Y003963D01*
X003702Y004066D01*
X003758Y004202D01*
X003758Y004348D01*
X003702Y004483D01*
X003598Y004586D01*
X003463Y004642D01*
X003317Y004642D01*
X003182Y004586D01*
X003068Y004458D02*
X000300Y004458D01*
X000300Y004360D02*
X003028Y004360D01*
X003023Y004261D02*
X000300Y004261D01*
X000300Y004163D02*
X003039Y004163D01*
X003081Y004064D02*
X000300Y004064D01*
X000300Y003966D02*
X003179Y003966D01*
X003317Y003642D02*
X003182Y003586D01*
X003079Y003483D01*
X003023Y003348D01*
X003023Y003202D01*
X003079Y003066D01*
X003182Y002963D01*
X003317Y002907D01*
X003463Y002907D01*
X003598Y002963D01*
X003702Y003066D01*
X003758Y003202D01*
X003758Y003348D01*
X003702Y003483D01*
X003598Y003586D01*
X003463Y003642D01*
X003317Y003642D01*
X003168Y003572D02*
X000300Y003572D01*
X000300Y003670D02*
X039370Y003670D01*
X039370Y003769D02*
X000300Y003769D01*
X000300Y003867D02*
X039370Y003867D01*
X039370Y003966D02*
X037223Y003966D01*
X037285Y003991D02*
X037504Y004211D01*
X037623Y004497D01*
X037623Y004808D01*
X037504Y005094D01*
X037285Y005314D01*
X036998Y005432D01*
X036688Y005432D01*
X036401Y005314D01*
X036182Y005094D01*
X036063Y004808D01*
X036063Y004497D01*
X036182Y004211D01*
X036401Y003991D01*
X036688Y003873D01*
X036998Y003873D01*
X037285Y003991D01*
X037358Y004064D02*
X039370Y004064D01*
X039370Y004163D02*
X037456Y004163D01*
X037525Y004261D02*
X039370Y004261D01*
X039370Y004360D02*
X037566Y004360D01*
X037607Y004458D02*
X039370Y004458D01*
X039370Y004557D02*
X037623Y004557D01*
X037623Y004655D02*
X039370Y004655D01*
X039370Y004754D02*
X037623Y004754D01*
X037604Y004852D02*
X039370Y004852D01*
X039370Y004951D02*
X037564Y004951D01*
X037523Y005049D02*
X039370Y005049D01*
X039370Y005148D02*
X037451Y005148D01*
X037352Y005246D02*
X039370Y005246D01*
X039370Y005345D02*
X037210Y005345D01*
X037512Y005590D02*
X037643Y005459D01*
X037813Y005388D01*
X037998Y005388D01*
X038169Y005459D01*
X038300Y005590D01*
X038371Y005761D01*
X038371Y005946D01*
X038300Y006117D01*
X038169Y006248D01*
X037998Y006318D01*
X037813Y006318D01*
X037643Y006248D01*
X037512Y006117D01*
X037441Y005946D01*
X037441Y005761D01*
X037512Y005590D01*
X037491Y005640D02*
X026195Y005640D01*
X026174Y005590D02*
X026245Y005761D01*
X026245Y005946D01*
X026174Y006117D01*
X026043Y006248D01*
X025872Y006318D01*
X025687Y006318D01*
X025517Y006248D01*
X025386Y006117D01*
X025315Y005946D01*
X025315Y005761D01*
X025386Y005590D01*
X025517Y005459D01*
X025687Y005388D01*
X025872Y005388D01*
X026043Y005459D01*
X026174Y005590D01*
X026126Y005542D02*
X037560Y005542D01*
X037681Y005443D02*
X026005Y005443D01*
X026235Y005148D02*
X024065Y005148D01*
X024118Y005094D02*
X023899Y005314D01*
X023612Y005432D01*
X023302Y005432D01*
X023015Y005314D01*
X022796Y005094D01*
X022677Y004808D01*
X022677Y004497D01*
X022796Y004211D01*
X023015Y003991D01*
X023302Y003873D01*
X023612Y003873D01*
X023899Y003991D01*
X024118Y004211D01*
X024237Y004497D01*
X024237Y004808D01*
X024118Y005094D01*
X024137Y005049D02*
X026163Y005049D01*
X026182Y005094D02*
X026063Y004808D01*
X026063Y004497D01*
X026182Y004211D01*
X026401Y003991D01*
X026688Y003873D01*
X026998Y003873D01*
X027285Y003991D01*
X027504Y004211D01*
X027623Y004497D01*
X027623Y004808D01*
X027504Y005094D01*
X027285Y005314D01*
X026998Y005432D01*
X026688Y005432D01*
X026401Y005314D01*
X026182Y005094D01*
X026122Y004951D02*
X024178Y004951D01*
X024219Y004852D02*
X026081Y004852D01*
X026063Y004754D02*
X024237Y004754D01*
X024237Y004655D02*
X026063Y004655D01*
X026063Y004557D02*
X024237Y004557D01*
X024221Y004458D02*
X026079Y004458D01*
X026120Y004360D02*
X024180Y004360D01*
X024139Y004261D02*
X026161Y004261D01*
X026230Y004163D02*
X024070Y004163D01*
X023972Y004064D02*
X026328Y004064D01*
X026463Y003966D02*
X023837Y003966D01*
X023077Y003966D02*
X013837Y003966D01*
X013972Y004064D02*
X022942Y004064D01*
X022844Y004163D02*
X014070Y004163D01*
X014139Y004261D02*
X022775Y004261D01*
X022734Y004360D02*
X014180Y004360D01*
X014221Y004458D02*
X022693Y004458D01*
X022677Y004557D02*
X014237Y004557D01*
X014237Y004655D02*
X022677Y004655D01*
X022677Y004754D02*
X014237Y004754D01*
X014219Y004852D02*
X022696Y004852D01*
X022736Y004951D02*
X014178Y004951D01*
X014137Y005049D02*
X022777Y005049D01*
X022849Y005148D02*
X014065Y005148D01*
X013966Y005246D02*
X022948Y005246D01*
X023090Y005345D02*
X013824Y005345D01*
X013090Y005345D02*
X000300Y005345D01*
X000300Y005443D02*
X012169Y005443D01*
X012131Y005459D02*
X012302Y005388D01*
X012487Y005388D01*
X012657Y005459D01*
X012788Y005590D01*
X012859Y005761D01*
X012859Y005946D01*
X012788Y006117D01*
X012657Y006248D01*
X012487Y006318D01*
X012302Y006318D01*
X012131Y006248D01*
X012000Y006117D01*
X011929Y005946D01*
X011929Y005761D01*
X012000Y005590D01*
X012131Y005459D01*
X012048Y005542D02*
X000300Y005542D01*
X000300Y005640D02*
X011979Y005640D01*
X011938Y005739D02*
X000300Y005739D01*
X000300Y005837D02*
X011929Y005837D01*
X011929Y005936D02*
X000300Y005936D01*
X000300Y006034D02*
X011966Y006034D01*
X012016Y006133D02*
X000300Y006133D01*
X000300Y006231D02*
X012114Y006231D01*
X012674Y006231D02*
X024240Y006231D01*
X024257Y006248D02*
X024126Y006117D01*
X024055Y005946D01*
X024055Y005761D01*
X024126Y005590D01*
X024257Y005459D01*
X024428Y005388D01*
X024613Y005388D01*
X024783Y005459D01*
X024914Y005590D01*
X024985Y005761D01*
X024985Y005946D01*
X024914Y006117D01*
X024783Y006248D01*
X024613Y006318D01*
X024428Y006318D01*
X024257Y006248D01*
X024142Y006133D02*
X012772Y006133D01*
X012822Y006034D02*
X024092Y006034D01*
X024055Y005936D02*
X012859Y005936D01*
X012859Y005837D02*
X024055Y005837D01*
X024064Y005739D02*
X012850Y005739D01*
X012809Y005640D02*
X024105Y005640D01*
X024174Y005542D02*
X012740Y005542D01*
X012619Y005443D02*
X024295Y005443D01*
X023966Y005246D02*
X026334Y005246D01*
X026476Y005345D02*
X023824Y005345D01*
X024745Y005443D02*
X025555Y005443D01*
X025434Y005542D02*
X024866Y005542D01*
X024935Y005640D02*
X025365Y005640D01*
X025324Y005739D02*
X024976Y005739D01*
X024985Y005837D02*
X025315Y005837D01*
X025315Y005936D02*
X024985Y005936D01*
X024948Y006034D02*
X025352Y006034D01*
X025402Y006133D02*
X024898Y006133D01*
X024800Y006231D02*
X025500Y006231D01*
X026060Y006231D02*
X037626Y006231D01*
X037528Y006133D02*
X026158Y006133D01*
X026208Y006034D02*
X037478Y006034D01*
X037441Y005936D02*
X026245Y005936D01*
X026245Y005837D02*
X037441Y005837D01*
X037450Y005739D02*
X026236Y005739D01*
X027210Y005345D02*
X036476Y005345D01*
X036334Y005246D02*
X027352Y005246D01*
X027451Y005148D02*
X036235Y005148D01*
X036163Y005049D02*
X027523Y005049D01*
X027564Y004951D02*
X036122Y004951D01*
X036081Y004852D02*
X027604Y004852D01*
X027623Y004754D02*
X036063Y004754D01*
X036063Y004655D02*
X027623Y004655D01*
X027623Y004557D02*
X036063Y004557D01*
X036079Y004458D02*
X027607Y004458D01*
X027566Y004360D02*
X036120Y004360D01*
X036161Y004261D02*
X027525Y004261D01*
X027456Y004163D02*
X036230Y004163D01*
X036328Y004064D02*
X027358Y004064D01*
X027223Y003966D02*
X036463Y003966D01*
X038131Y005443D02*
X039370Y005443D01*
X039370Y005542D02*
X038252Y005542D01*
X038321Y005640D02*
X039370Y005640D01*
X039370Y005739D02*
X038362Y005739D01*
X038371Y005837D02*
X039370Y005837D01*
X039370Y005936D02*
X038371Y005936D01*
X038334Y006034D02*
X039370Y006034D01*
X039370Y006133D02*
X038284Y006133D01*
X038186Y006231D02*
X039370Y006231D01*
X039370Y006330D02*
X000300Y006330D01*
X000300Y006428D02*
X039370Y006428D01*
X039370Y006527D02*
X000300Y006527D01*
X000300Y006625D02*
X039370Y006625D01*
X039370Y006724D02*
X000300Y006724D01*
X000300Y006822D02*
X013743Y006822D01*
X013738Y006824D02*
X013880Y006765D01*
X014034Y006765D01*
X014176Y006824D01*
X014285Y006933D01*
X014344Y007076D01*
X014344Y007230D01*
X014285Y007372D01*
X014176Y007481D01*
X014034Y007540D01*
X013880Y007540D01*
X013738Y007481D01*
X013629Y007372D01*
X013570Y007230D01*
X013570Y007076D01*
X013629Y006933D01*
X013738Y006824D01*
X013641Y006921D02*
X000300Y006921D01*
X000300Y007019D02*
X013593Y007019D01*
X013570Y007118D02*
X000300Y007118D01*
X000300Y007216D02*
X013570Y007216D01*
X013605Y007315D02*
X000300Y007315D01*
X000300Y007413D02*
X013670Y007413D01*
X013813Y007512D02*
X000300Y007512D01*
X000300Y007610D02*
X039370Y007610D01*
X039370Y007512D02*
X036075Y007512D01*
X036067Y007518D02*
X036007Y007548D01*
X035943Y007569D01*
X035881Y007579D01*
X035881Y007191D01*
X035804Y007191D01*
X035804Y007114D01*
X035417Y007114D01*
X035426Y007053D01*
X035447Y006989D01*
X035478Y006929D01*
X035517Y006874D01*
X035565Y006827D01*
X035619Y006787D01*
X035679Y006757D01*
X035743Y006736D01*
X035804Y006726D01*
X035804Y007114D01*
X035881Y007114D01*
X035881Y006726D01*
X035943Y006736D01*
X036007Y006757D01*
X036067Y006787D01*
X036121Y006827D01*
X036169Y006874D01*
X036208Y006929D01*
X036239Y006989D01*
X036260Y007053D01*
X036269Y007114D01*
X035882Y007114D01*
X035882Y007191D01*
X036269Y007191D01*
X036260Y007253D01*
X036239Y007317D01*
X036208Y007376D01*
X036169Y007431D01*
X036121Y007478D01*
X036067Y007518D01*
X036182Y007413D02*
X039370Y007413D01*
X039370Y007315D02*
X036239Y007315D01*
X036265Y007216D02*
X039370Y007216D01*
X039370Y007118D02*
X035882Y007118D01*
X035804Y007118D02*
X035230Y007118D01*
X035230Y007076D02*
X035230Y007230D01*
X035171Y007372D01*
X035062Y007481D01*
X034920Y007540D01*
X034766Y007540D01*
X034624Y007481D01*
X034515Y007372D01*
X034456Y007230D01*
X034456Y007076D01*
X034515Y006933D01*
X034624Y006824D01*
X034766Y006765D01*
X034920Y006765D01*
X035062Y006824D01*
X035171Y006933D01*
X035230Y007076D01*
X035207Y007019D02*
X035437Y007019D01*
X035483Y006921D02*
X035159Y006921D01*
X035057Y006822D02*
X035571Y006822D01*
X035804Y006822D02*
X035881Y006822D01*
X035881Y006921D02*
X035804Y006921D01*
X035804Y007019D02*
X035881Y007019D01*
X035804Y007191D02*
X035417Y007191D01*
X035426Y007253D01*
X035447Y007317D01*
X035478Y007376D01*
X035517Y007431D01*
X035565Y007478D01*
X035619Y007518D01*
X035679Y007548D01*
X035743Y007569D01*
X035804Y007579D01*
X035804Y007191D01*
X035804Y007216D02*
X035881Y007216D01*
X035881Y007315D02*
X035804Y007315D01*
X035804Y007413D02*
X035881Y007413D01*
X035881Y007512D02*
X035804Y007512D01*
X035611Y007512D02*
X034987Y007512D01*
X035130Y007413D02*
X035504Y007413D01*
X035446Y007315D02*
X035195Y007315D01*
X035230Y007216D02*
X035421Y007216D01*
X035420Y007765D02*
X035562Y007824D01*
X035671Y007933D01*
X035730Y008076D01*
X035730Y008230D01*
X035671Y008372D01*
X035562Y008481D01*
X035420Y008540D01*
X035266Y008540D01*
X035124Y008481D01*
X035015Y008372D01*
X034956Y008230D01*
X034956Y008076D01*
X035015Y007933D01*
X035124Y007824D01*
X035266Y007765D01*
X035420Y007765D01*
X035521Y007807D02*
X036165Y007807D01*
X036124Y007824D02*
X036266Y007765D01*
X036420Y007765D01*
X036562Y007824D01*
X036671Y007933D01*
X036730Y008076D01*
X036730Y008230D01*
X036671Y008372D01*
X036562Y008481D01*
X036420Y008540D01*
X036266Y008540D01*
X036124Y008481D01*
X036015Y008372D01*
X035956Y008230D01*
X035956Y008076D01*
X036015Y007933D01*
X036124Y007824D01*
X036042Y007906D02*
X035644Y007906D01*
X035701Y008004D02*
X035985Y008004D01*
X035956Y008103D02*
X035730Y008103D01*
X035730Y008201D02*
X035956Y008201D01*
X035985Y008300D02*
X035701Y008300D01*
X035645Y008398D02*
X036041Y008398D01*
X036162Y008497D02*
X035524Y008497D01*
X035162Y008497D02*
X034524Y008497D01*
X034562Y008481D02*
X034420Y008540D01*
X034266Y008540D01*
X034124Y008481D01*
X034015Y008372D01*
X033956Y008230D01*
X033956Y008076D01*
X034015Y007933D01*
X034124Y007824D01*
X034266Y007765D01*
X034420Y007765D01*
X034562Y007824D01*
X034671Y007933D01*
X034730Y008076D01*
X034730Y008230D01*
X034671Y008372D01*
X034562Y008481D01*
X034645Y008398D02*
X035041Y008398D01*
X034985Y008300D02*
X034701Y008300D01*
X034730Y008201D02*
X034956Y008201D01*
X034956Y008103D02*
X034730Y008103D01*
X034701Y008004D02*
X034985Y008004D01*
X035042Y007906D02*
X034644Y007906D01*
X034521Y007807D02*
X035165Y007807D01*
X034698Y007512D02*
X034075Y007512D01*
X034067Y007518D02*
X034007Y007548D01*
X033943Y007569D01*
X033881Y007579D01*
X033881Y007191D01*
X033804Y007191D01*
X033804Y007114D01*
X033417Y007114D01*
X033426Y007053D01*
X033447Y006989D01*
X033478Y006929D01*
X033517Y006874D01*
X033565Y006827D01*
X033619Y006787D01*
X033679Y006757D01*
X033743Y006736D01*
X033804Y006726D01*
X033804Y007114D01*
X033881Y007114D01*
X033881Y006726D01*
X033943Y006736D01*
X034007Y006757D01*
X034067Y006787D01*
X034121Y006827D01*
X034169Y006874D01*
X034208Y006929D01*
X034239Y006989D01*
X034260Y007053D01*
X034269Y007114D01*
X033882Y007114D01*
X033882Y007191D01*
X034269Y007191D01*
X034260Y007253D01*
X034239Y007317D01*
X034208Y007376D01*
X034169Y007431D01*
X034121Y007478D01*
X034067Y007518D01*
X034182Y007413D02*
X034556Y007413D01*
X034491Y007315D02*
X034239Y007315D01*
X034265Y007216D02*
X034456Y007216D01*
X034456Y007118D02*
X033882Y007118D01*
X033804Y007118D02*
X033230Y007118D01*
X033230Y007076D02*
X033230Y007230D01*
X033171Y007372D01*
X033062Y007481D01*
X032920Y007540D01*
X032766Y007540D01*
X032624Y007481D01*
X032515Y007372D01*
X032456Y007230D01*
X032456Y007076D01*
X032515Y006933D01*
X032624Y006824D01*
X032766Y006765D01*
X032920Y006765D01*
X033062Y006824D01*
X033171Y006933D01*
X033230Y007076D01*
X033207Y007019D02*
X033437Y007019D01*
X033483Y006921D02*
X033159Y006921D01*
X033057Y006822D02*
X033571Y006822D01*
X033804Y006822D02*
X033881Y006822D01*
X033881Y006921D02*
X033804Y006921D01*
X033804Y007019D02*
X033881Y007019D01*
X033804Y007191D02*
X033417Y007191D01*
X033426Y007253D01*
X033447Y007317D01*
X033478Y007376D01*
X033517Y007431D01*
X033565Y007478D01*
X033619Y007518D01*
X033679Y007548D01*
X033743Y007569D01*
X033804Y007579D01*
X033804Y007191D01*
X033804Y007216D02*
X033881Y007216D01*
X033881Y007315D02*
X033804Y007315D01*
X033804Y007413D02*
X033881Y007413D01*
X033881Y007512D02*
X033804Y007512D01*
X033611Y007512D02*
X032987Y007512D01*
X033130Y007413D02*
X033504Y007413D01*
X033446Y007315D02*
X033195Y007315D01*
X033230Y007216D02*
X033421Y007216D01*
X033420Y007765D02*
X033562Y007824D01*
X033671Y007933D01*
X033730Y008076D01*
X033730Y008230D01*
X033671Y008372D01*
X033562Y008481D01*
X033420Y008540D01*
X033266Y008540D01*
X033124Y008481D01*
X033015Y008372D01*
X032956Y008230D01*
X032956Y008076D01*
X033015Y007933D01*
X033124Y007824D01*
X033266Y007765D01*
X033420Y007765D01*
X033521Y007807D02*
X034165Y007807D01*
X034042Y007906D02*
X033644Y007906D01*
X033701Y008004D02*
X033985Y008004D01*
X033956Y008103D02*
X033730Y008103D01*
X033730Y008201D02*
X033956Y008201D01*
X033985Y008300D02*
X033701Y008300D01*
X033645Y008398D02*
X034041Y008398D01*
X034162Y008497D02*
X033524Y008497D01*
X033162Y008497D02*
X031024Y008497D01*
X031062Y008481D02*
X030920Y008540D01*
X030766Y008540D01*
X030624Y008481D01*
X030515Y008372D01*
X030456Y008230D01*
X030456Y008076D01*
X030515Y007933D01*
X030624Y007824D01*
X030766Y007765D01*
X030920Y007765D01*
X031062Y007824D01*
X031171Y007933D01*
X031230Y008076D01*
X031230Y008230D01*
X031171Y008372D01*
X031062Y008481D01*
X031145Y008398D02*
X033041Y008398D01*
X032985Y008300D02*
X031201Y008300D01*
X031230Y008201D02*
X032956Y008201D01*
X032956Y008103D02*
X031230Y008103D01*
X031201Y008004D02*
X032985Y008004D01*
X033042Y007906D02*
X031144Y007906D01*
X031021Y007807D02*
X033165Y007807D01*
X032698Y007512D02*
X030575Y007512D01*
X030567Y007518D02*
X030507Y007548D01*
X030443Y007569D01*
X030381Y007579D01*
X030381Y007191D01*
X030304Y007191D01*
X030304Y007114D01*
X029917Y007114D01*
X029926Y007053D01*
X029947Y006989D01*
X029978Y006929D01*
X030017Y006874D01*
X030065Y006827D01*
X030119Y006787D01*
X030179Y006757D01*
X030243Y006736D01*
X030304Y006726D01*
X030304Y007114D01*
X030381Y007114D01*
X030381Y006726D01*
X030443Y006736D01*
X030507Y006757D01*
X030567Y006787D01*
X030621Y006827D01*
X030669Y006874D01*
X030708Y006929D01*
X030739Y006989D01*
X030760Y007053D01*
X030769Y007114D01*
X030382Y007114D01*
X030382Y007191D01*
X030769Y007191D01*
X030760Y007253D01*
X030739Y007317D01*
X030708Y007376D01*
X030669Y007431D01*
X030621Y007478D01*
X030567Y007518D01*
X030682Y007413D02*
X032556Y007413D01*
X032491Y007315D02*
X030739Y007315D01*
X030765Y007216D02*
X032456Y007216D01*
X032456Y007118D02*
X030382Y007118D01*
X030304Y007118D02*
X029730Y007118D01*
X029730Y007076D02*
X029730Y007230D01*
X029671Y007372D01*
X029562Y007481D01*
X029420Y007540D01*
X029266Y007540D01*
X029124Y007481D01*
X029015Y007372D01*
X028956Y007230D01*
X028956Y007076D01*
X029015Y006933D01*
X029124Y006824D01*
X029266Y006765D01*
X029420Y006765D01*
X029562Y006824D01*
X029671Y006933D01*
X029730Y007076D01*
X029707Y007019D02*
X029937Y007019D01*
X029983Y006921D02*
X029659Y006921D01*
X029557Y006822D02*
X030071Y006822D01*
X030304Y006822D02*
X030381Y006822D01*
X030381Y006921D02*
X030304Y006921D01*
X030304Y007019D02*
X030381Y007019D01*
X030304Y007191D02*
X029917Y007191D01*
X029926Y007253D01*
X029947Y007317D01*
X029978Y007376D01*
X030017Y007431D01*
X030065Y007478D01*
X030119Y007518D01*
X030179Y007548D01*
X030243Y007569D01*
X030304Y007579D01*
X030304Y007191D01*
X030304Y007216D02*
X030381Y007216D01*
X030381Y007315D02*
X030304Y007315D01*
X030304Y007413D02*
X030381Y007413D01*
X030381Y007512D02*
X030304Y007512D01*
X030111Y007512D02*
X029487Y007512D01*
X029630Y007413D02*
X030004Y007413D01*
X029946Y007315D02*
X029695Y007315D01*
X029730Y007216D02*
X029921Y007216D01*
X029920Y007765D02*
X029766Y007765D01*
X029624Y007824D01*
X029515Y007933D01*
X029456Y008076D01*
X029456Y008230D01*
X029515Y008372D01*
X029624Y008481D01*
X029766Y008540D01*
X029920Y008540D01*
X030062Y008481D01*
X030171Y008372D01*
X030230Y008230D01*
X030230Y008076D01*
X030171Y007933D01*
X030062Y007824D01*
X029920Y007765D01*
X030021Y007807D02*
X030665Y007807D01*
X030542Y007906D02*
X030144Y007906D01*
X030201Y008004D02*
X030485Y008004D01*
X030456Y008103D02*
X030230Y008103D01*
X030230Y008201D02*
X030456Y008201D01*
X030485Y008300D02*
X030201Y008300D01*
X030145Y008398D02*
X030541Y008398D01*
X030662Y008497D02*
X030024Y008497D01*
X029662Y008497D02*
X029024Y008497D01*
X029062Y008481D02*
X028920Y008540D01*
X028766Y008540D01*
X028624Y008481D01*
X028515Y008372D01*
X028456Y008230D01*
X028456Y008076D01*
X028515Y007933D01*
X028624Y007824D01*
X028766Y007765D01*
X028920Y007765D01*
X029062Y007824D01*
X029171Y007933D01*
X029230Y008076D01*
X029230Y008230D01*
X029171Y008372D01*
X029062Y008481D01*
X029145Y008398D02*
X029541Y008398D01*
X029485Y008300D02*
X029201Y008300D01*
X029230Y008201D02*
X029456Y008201D01*
X029456Y008103D02*
X029230Y008103D01*
X029201Y008004D02*
X029485Y008004D01*
X029542Y007906D02*
X029144Y007906D01*
X029021Y007807D02*
X029665Y007807D01*
X029198Y007512D02*
X028575Y007512D01*
X028567Y007518D02*
X028507Y007548D01*
X028443Y007569D01*
X028381Y007579D01*
X028381Y007191D01*
X028304Y007191D01*
X028304Y007114D01*
X027917Y007114D01*
X027926Y007053D01*
X027947Y006989D01*
X027978Y006929D01*
X028017Y006874D01*
X028065Y006827D01*
X028119Y006787D01*
X028179Y006757D01*
X028243Y006736D01*
X028304Y006726D01*
X028304Y007114D01*
X028381Y007114D01*
X028381Y006726D01*
X028443Y006736D01*
X028507Y006757D01*
X028567Y006787D01*
X028621Y006827D01*
X028669Y006874D01*
X028708Y006929D01*
X028739Y006989D01*
X028760Y007053D01*
X028769Y007114D01*
X028382Y007114D01*
X028382Y007191D01*
X028769Y007191D01*
X028760Y007253D01*
X028739Y007317D01*
X028708Y007376D01*
X028669Y007431D01*
X028621Y007478D01*
X028567Y007518D01*
X028682Y007413D02*
X029056Y007413D01*
X028991Y007315D02*
X028739Y007315D01*
X028765Y007216D02*
X028956Y007216D01*
X028956Y007118D02*
X028382Y007118D01*
X028304Y007118D02*
X027730Y007118D01*
X027730Y007076D02*
X027730Y007230D01*
X027671Y007372D01*
X027562Y007481D01*
X027420Y007540D01*
X027266Y007540D01*
X027124Y007481D01*
X027015Y007372D01*
X026956Y007230D01*
X026956Y007076D01*
X027015Y006933D01*
X027124Y006824D01*
X027266Y006765D01*
X027420Y006765D01*
X027562Y006824D01*
X027671Y006933D01*
X027730Y007076D01*
X027707Y007019D02*
X027937Y007019D01*
X027983Y006921D02*
X027659Y006921D01*
X027557Y006822D02*
X028071Y006822D01*
X028304Y006822D02*
X028381Y006822D01*
X028381Y006921D02*
X028304Y006921D01*
X028304Y007019D02*
X028381Y007019D01*
X028304Y007191D02*
X027917Y007191D01*
X027926Y007253D01*
X027947Y007317D01*
X027978Y007376D01*
X028017Y007431D01*
X028065Y007478D01*
X028119Y007518D01*
X028179Y007548D01*
X028243Y007569D01*
X028304Y007579D01*
X028304Y007191D01*
X028304Y007216D02*
X028381Y007216D01*
X028381Y007315D02*
X028304Y007315D01*
X028304Y007413D02*
X028381Y007413D01*
X028381Y007512D02*
X028304Y007512D01*
X028111Y007512D02*
X027487Y007512D01*
X027630Y007413D02*
X028004Y007413D01*
X027946Y007315D02*
X027695Y007315D01*
X027730Y007216D02*
X027921Y007216D01*
X027920Y007765D02*
X027766Y007765D01*
X027624Y007824D01*
X027515Y007933D01*
X027456Y008076D01*
X027456Y008230D01*
X027515Y008372D01*
X027624Y008481D01*
X027766Y008540D01*
X027920Y008540D01*
X028062Y008481D01*
X028171Y008372D01*
X028230Y008230D01*
X028230Y008076D01*
X028171Y007933D01*
X028062Y007824D01*
X027920Y007765D01*
X028021Y007807D02*
X028665Y007807D01*
X028542Y007906D02*
X028144Y007906D01*
X028201Y008004D02*
X028485Y008004D01*
X028456Y008103D02*
X028230Y008103D01*
X028230Y008201D02*
X028456Y008201D01*
X028485Y008300D02*
X028201Y008300D01*
X028145Y008398D02*
X028541Y008398D01*
X028662Y008497D02*
X028024Y008497D01*
X027662Y008497D02*
X023138Y008497D01*
X023176Y008481D02*
X023034Y008540D01*
X022880Y008540D01*
X022738Y008481D01*
X022629Y008372D01*
X022570Y008230D01*
X022570Y008076D01*
X022629Y007933D01*
X022738Y007824D01*
X022880Y007765D01*
X023034Y007765D01*
X023176Y007824D01*
X023285Y007933D01*
X023344Y008076D01*
X023344Y008230D01*
X023285Y008372D01*
X023176Y008481D01*
X023259Y008398D02*
X027541Y008398D01*
X027485Y008300D02*
X023315Y008300D01*
X023344Y008201D02*
X027456Y008201D01*
X027456Y008103D02*
X023344Y008103D01*
X023315Y008004D02*
X027485Y008004D01*
X027542Y007906D02*
X023258Y007906D01*
X023135Y007807D02*
X027665Y007807D01*
X027198Y007512D02*
X022689Y007512D01*
X022681Y007518D02*
X022735Y007478D01*
X022783Y007431D01*
X022822Y007376D01*
X022853Y007317D01*
X022874Y007253D01*
X022883Y007191D01*
X022496Y007191D01*
X022496Y007114D01*
X022883Y007114D01*
X022874Y007053D01*
X022853Y006989D01*
X022822Y006929D01*
X022783Y006874D01*
X022735Y006827D01*
X022681Y006787D01*
X022621Y006757D01*
X022557Y006736D01*
X022496Y006726D01*
X022496Y007114D01*
X022419Y007114D01*
X022419Y006726D01*
X022357Y006736D01*
X022293Y006757D01*
X022233Y006787D01*
X022179Y006827D01*
X022131Y006874D01*
X022092Y006929D01*
X022061Y006989D01*
X022040Y007053D01*
X022031Y007114D01*
X022418Y007114D01*
X022418Y007191D01*
X022031Y007191D01*
X022040Y007253D01*
X022061Y007317D01*
X022092Y007376D01*
X022131Y007431D01*
X022179Y007478D01*
X022233Y007518D01*
X022293Y007548D01*
X022357Y007569D01*
X022419Y007579D01*
X022419Y007191D01*
X022496Y007191D01*
X022496Y007579D01*
X022557Y007569D01*
X022621Y007548D01*
X022681Y007518D01*
X022796Y007413D02*
X027056Y007413D01*
X026991Y007315D02*
X022854Y007315D01*
X022879Y007216D02*
X026956Y007216D01*
X026956Y007118D02*
X022496Y007118D01*
X022418Y007118D02*
X021844Y007118D01*
X021844Y007076D02*
X021844Y007230D01*
X021785Y007372D01*
X021676Y007481D01*
X021534Y007540D01*
X021380Y007540D01*
X021238Y007481D01*
X021129Y007372D01*
X021070Y007230D01*
X021070Y007076D01*
X021129Y006933D01*
X021238Y006824D01*
X021380Y006765D01*
X021534Y006765D01*
X021676Y006824D01*
X021785Y006933D01*
X021844Y007076D01*
X021821Y007019D02*
X022051Y007019D01*
X022097Y006921D02*
X021773Y006921D01*
X021671Y006822D02*
X022185Y006822D01*
X022419Y006822D02*
X022496Y006822D01*
X022496Y006921D02*
X022419Y006921D01*
X022419Y007019D02*
X022496Y007019D01*
X022496Y007216D02*
X022419Y007216D01*
X022419Y007315D02*
X022496Y007315D01*
X022496Y007413D02*
X022419Y007413D01*
X022419Y007512D02*
X022496Y007512D01*
X022225Y007512D02*
X021602Y007512D01*
X021744Y007413D02*
X022118Y007413D01*
X022061Y007315D02*
X021809Y007315D01*
X021844Y007216D02*
X022035Y007216D01*
X022034Y007765D02*
X021880Y007765D01*
X021738Y007824D01*
X021629Y007933D01*
X021570Y008076D01*
X021570Y008230D01*
X021629Y008372D01*
X021738Y008481D01*
X021880Y008540D01*
X022034Y008540D01*
X022176Y008481D01*
X022285Y008372D01*
X022344Y008230D01*
X022344Y008076D01*
X022285Y007933D01*
X022176Y007824D01*
X022034Y007765D01*
X022135Y007807D02*
X022779Y007807D01*
X022656Y007906D02*
X022258Y007906D01*
X022315Y008004D02*
X022599Y008004D01*
X022570Y008103D02*
X022344Y008103D01*
X022344Y008201D02*
X022570Y008201D01*
X022599Y008300D02*
X022315Y008300D01*
X022259Y008398D02*
X022655Y008398D01*
X022776Y008497D02*
X022138Y008497D01*
X021776Y008497D02*
X021138Y008497D01*
X021176Y008481D02*
X021034Y008540D01*
X020880Y008540D01*
X020738Y008481D01*
X020629Y008372D01*
X020570Y008230D01*
X020570Y008076D01*
X020629Y007933D01*
X020738Y007824D01*
X020880Y007765D01*
X021034Y007765D01*
X021176Y007824D01*
X021285Y007933D01*
X021344Y008076D01*
X021344Y008230D01*
X021285Y008372D01*
X021176Y008481D01*
X021259Y008398D02*
X021655Y008398D01*
X021599Y008300D02*
X021315Y008300D01*
X021344Y008201D02*
X021570Y008201D01*
X021570Y008103D02*
X021344Y008103D01*
X021315Y008004D02*
X021599Y008004D01*
X021656Y007906D02*
X021258Y007906D01*
X021135Y007807D02*
X021779Y007807D01*
X021313Y007512D02*
X020689Y007512D01*
X020681Y007518D02*
X020621Y007548D01*
X020557Y007569D01*
X020496Y007579D01*
X020496Y007191D01*
X020883Y007191D01*
X020874Y007253D01*
X020853Y007317D01*
X020822Y007376D01*
X020783Y007431D01*
X020735Y007478D01*
X020681Y007518D01*
X020796Y007413D02*
X021170Y007413D01*
X021105Y007315D02*
X020854Y007315D01*
X020879Y007216D02*
X021070Y007216D01*
X021070Y007118D02*
X020496Y007118D01*
X020496Y007114D02*
X020496Y007191D01*
X020419Y007191D01*
X020419Y007579D01*
X020357Y007569D01*
X020293Y007548D01*
X020233Y007518D01*
X020179Y007478D01*
X020131Y007431D01*
X020092Y007376D01*
X020061Y007317D01*
X020040Y007253D01*
X020031Y007191D01*
X020418Y007191D01*
X020418Y007114D01*
X020031Y007114D01*
X020040Y007053D01*
X020061Y006989D01*
X020092Y006929D01*
X020131Y006874D01*
X020179Y006827D01*
X020233Y006787D01*
X020293Y006757D01*
X020357Y006736D01*
X020419Y006726D01*
X020419Y007114D01*
X020496Y007114D01*
X020883Y007114D01*
X020874Y007053D01*
X020853Y006989D01*
X020822Y006929D01*
X020783Y006874D01*
X020735Y006827D01*
X020681Y006787D01*
X020621Y006757D01*
X020557Y006736D01*
X020496Y006726D01*
X020496Y007114D01*
X020418Y007118D02*
X019844Y007118D01*
X019844Y007076D02*
X019844Y007230D01*
X019785Y007372D01*
X019676Y007481D01*
X019534Y007540D01*
X019380Y007540D01*
X019238Y007481D01*
X019129Y007372D01*
X019070Y007230D01*
X019070Y007076D01*
X019129Y006933D01*
X019238Y006824D01*
X019380Y006765D01*
X019534Y006765D01*
X019676Y006824D01*
X019785Y006933D01*
X019844Y007076D01*
X019821Y007019D02*
X020051Y007019D01*
X020097Y006921D02*
X019773Y006921D01*
X019671Y006822D02*
X020185Y006822D01*
X020419Y006822D02*
X020496Y006822D01*
X020496Y006921D02*
X020419Y006921D01*
X020419Y007019D02*
X020496Y007019D01*
X020496Y007216D02*
X020419Y007216D01*
X020419Y007315D02*
X020496Y007315D01*
X020496Y007413D02*
X020419Y007413D01*
X020419Y007512D02*
X020496Y007512D01*
X020225Y007512D02*
X019602Y007512D01*
X019744Y007413D02*
X020118Y007413D01*
X020061Y007315D02*
X019809Y007315D01*
X019844Y007216D02*
X020035Y007216D01*
X020034Y007765D02*
X019880Y007765D01*
X019738Y007824D01*
X019629Y007933D01*
X019570Y008076D01*
X019570Y008230D01*
X019629Y008372D01*
X019738Y008481D01*
X019880Y008540D01*
X020034Y008540D01*
X020176Y008481D01*
X020285Y008372D01*
X020344Y008230D01*
X020344Y008076D01*
X020285Y007933D01*
X020176Y007824D01*
X020034Y007765D01*
X020135Y007807D02*
X020779Y007807D01*
X020656Y007906D02*
X020258Y007906D01*
X020315Y008004D02*
X020599Y008004D01*
X020570Y008103D02*
X020344Y008103D01*
X020344Y008201D02*
X020570Y008201D01*
X020599Y008300D02*
X020315Y008300D01*
X020259Y008398D02*
X020655Y008398D01*
X020776Y008497D02*
X020138Y008497D01*
X019776Y008497D02*
X017638Y008497D01*
X017676Y008481D02*
X017534Y008540D01*
X017380Y008540D01*
X017238Y008481D01*
X017129Y008372D01*
X017070Y008230D01*
X017070Y008076D01*
X017129Y007933D01*
X017238Y007824D01*
X017380Y007765D01*
X017534Y007765D01*
X017676Y007824D01*
X017785Y007933D01*
X017844Y008076D01*
X017844Y008230D01*
X017785Y008372D01*
X017676Y008481D01*
X017759Y008398D02*
X019655Y008398D01*
X019599Y008300D02*
X017815Y008300D01*
X017844Y008201D02*
X019570Y008201D01*
X019570Y008103D02*
X017844Y008103D01*
X017815Y008004D02*
X019599Y008004D01*
X019656Y007906D02*
X017758Y007906D01*
X017635Y007807D02*
X019779Y007807D01*
X019313Y007512D02*
X017189Y007512D01*
X017181Y007518D02*
X017121Y007548D01*
X017057Y007569D01*
X016996Y007579D01*
X016996Y007191D01*
X017383Y007191D01*
X017374Y007253D01*
X017353Y007317D01*
X017322Y007376D01*
X017283Y007431D01*
X017235Y007478D01*
X017181Y007518D01*
X017296Y007413D02*
X019170Y007413D01*
X019105Y007315D02*
X017354Y007315D01*
X017379Y007216D02*
X019070Y007216D01*
X019070Y007118D02*
X016996Y007118D01*
X016996Y007114D02*
X016996Y007191D01*
X016919Y007191D01*
X016919Y007579D01*
X016857Y007569D01*
X016793Y007548D01*
X016733Y007518D01*
X016679Y007478D01*
X016631Y007431D01*
X016592Y007376D01*
X016561Y007317D01*
X016540Y007253D01*
X016531Y007191D01*
X016918Y007191D01*
X016918Y007114D01*
X016531Y007114D01*
X016540Y007053D01*
X016561Y006989D01*
X016592Y006929D01*
X016631Y006874D01*
X016679Y006827D01*
X016733Y006787D01*
X016793Y006757D01*
X016857Y006736D01*
X016919Y006726D01*
X016919Y007114D01*
X016996Y007114D01*
X017383Y007114D01*
X017374Y007053D01*
X017353Y006989D01*
X017322Y006929D01*
X017283Y006874D01*
X017235Y006827D01*
X017181Y006787D01*
X017121Y006757D01*
X017057Y006736D01*
X016996Y006726D01*
X016996Y007114D01*
X016918Y007118D02*
X016344Y007118D01*
X016344Y007076D02*
X016344Y007230D01*
X016285Y007372D01*
X016176Y007481D01*
X016034Y007540D01*
X015880Y007540D01*
X015738Y007481D01*
X015629Y007372D01*
X015570Y007230D01*
X015570Y007076D01*
X015629Y006933D01*
X015738Y006824D01*
X015880Y006765D01*
X016034Y006765D01*
X016176Y006824D01*
X016285Y006933D01*
X016344Y007076D01*
X016321Y007019D02*
X016551Y007019D01*
X016597Y006921D02*
X016273Y006921D01*
X016171Y006822D02*
X016685Y006822D01*
X016919Y006822D02*
X016996Y006822D01*
X016996Y006921D02*
X016919Y006921D01*
X016919Y007019D02*
X016996Y007019D01*
X016996Y007216D02*
X016919Y007216D01*
X016919Y007315D02*
X016996Y007315D01*
X016996Y007413D02*
X016919Y007413D01*
X016919Y007512D02*
X016996Y007512D01*
X016725Y007512D02*
X016102Y007512D01*
X016244Y007413D02*
X016618Y007413D01*
X016561Y007315D02*
X016309Y007315D01*
X016344Y007216D02*
X016535Y007216D01*
X016534Y007765D02*
X016676Y007824D01*
X016785Y007933D01*
X016844Y008076D01*
X016844Y008230D01*
X016785Y008372D01*
X016676Y008481D01*
X016534Y008540D01*
X016380Y008540D01*
X016238Y008481D01*
X016129Y008372D01*
X016070Y008230D01*
X016070Y008076D01*
X016129Y007933D01*
X016238Y007824D01*
X016380Y007765D01*
X016534Y007765D01*
X016635Y007807D02*
X017279Y007807D01*
X017156Y007906D02*
X016758Y007906D01*
X016815Y008004D02*
X017099Y008004D01*
X017070Y008103D02*
X016844Y008103D01*
X016844Y008201D02*
X017070Y008201D01*
X017099Y008300D02*
X016815Y008300D01*
X016759Y008398D02*
X017155Y008398D01*
X017276Y008497D02*
X016638Y008497D01*
X016276Y008497D02*
X015638Y008497D01*
X015676Y008481D02*
X015534Y008540D01*
X015380Y008540D01*
X015238Y008481D01*
X015129Y008372D01*
X015070Y008230D01*
X015070Y008076D01*
X015129Y007933D01*
X015238Y007824D01*
X015380Y007765D01*
X015534Y007765D01*
X015676Y007824D01*
X015785Y007933D01*
X015844Y008076D01*
X015844Y008230D01*
X015785Y008372D01*
X015676Y008481D01*
X015759Y008398D02*
X016155Y008398D01*
X016099Y008300D02*
X015815Y008300D01*
X015844Y008201D02*
X016070Y008201D01*
X016070Y008103D02*
X015844Y008103D01*
X015815Y008004D02*
X016099Y008004D01*
X016156Y007906D02*
X015758Y007906D01*
X015635Y007807D02*
X016279Y007807D01*
X015813Y007512D02*
X015189Y007512D01*
X015181Y007518D02*
X015121Y007548D01*
X015057Y007569D01*
X014996Y007579D01*
X014996Y007191D01*
X015383Y007191D01*
X015374Y007253D01*
X015353Y007317D01*
X015322Y007376D01*
X015283Y007431D01*
X015235Y007478D01*
X015181Y007518D01*
X015296Y007413D02*
X015670Y007413D01*
X015605Y007315D02*
X015354Y007315D01*
X015379Y007216D02*
X015570Y007216D01*
X015570Y007118D02*
X014996Y007118D01*
X014996Y007114D02*
X014996Y007191D01*
X014919Y007191D01*
X014919Y007579D01*
X014857Y007569D01*
X014793Y007548D01*
X014733Y007518D01*
X014679Y007478D01*
X014631Y007431D01*
X014592Y007376D01*
X014561Y007317D01*
X014540Y007253D01*
X014531Y007191D01*
X014918Y007191D01*
X014918Y007114D01*
X014531Y007114D01*
X014540Y007053D01*
X014561Y006989D01*
X014592Y006929D01*
X014631Y006874D01*
X014679Y006827D01*
X014733Y006787D01*
X014793Y006757D01*
X014857Y006736D01*
X014919Y006726D01*
X014919Y007114D01*
X014996Y007114D01*
X015383Y007114D01*
X015374Y007053D01*
X015353Y006989D01*
X015322Y006929D01*
X015283Y006874D01*
X015235Y006827D01*
X015181Y006787D01*
X015121Y006757D01*
X015057Y006736D01*
X014996Y006726D01*
X014996Y007114D01*
X014918Y007118D02*
X014344Y007118D01*
X014344Y007216D02*
X014535Y007216D01*
X014561Y007315D02*
X014309Y007315D01*
X014244Y007413D02*
X014618Y007413D01*
X014725Y007512D02*
X014102Y007512D01*
X014238Y007824D02*
X014380Y007765D01*
X014534Y007765D01*
X014676Y007824D01*
X014785Y007933D01*
X014844Y008076D01*
X014844Y008230D01*
X014785Y008372D01*
X014676Y008481D01*
X014534Y008540D01*
X014380Y008540D01*
X014238Y008481D01*
X014129Y008372D01*
X014070Y008230D01*
X014070Y008076D01*
X014129Y007933D01*
X014238Y007824D01*
X014279Y007807D02*
X000300Y007807D01*
X000300Y007709D02*
X039370Y007709D01*
X039370Y007807D02*
X036521Y007807D01*
X036644Y007906D02*
X039370Y007906D01*
X039370Y008004D02*
X036701Y008004D01*
X036730Y008103D02*
X039370Y008103D01*
X039370Y008201D02*
X036730Y008201D01*
X036701Y008300D02*
X039370Y008300D01*
X039370Y008398D02*
X036645Y008398D01*
X036524Y008497D02*
X039370Y008497D01*
X039370Y008595D02*
X000300Y008595D01*
X000300Y008497D02*
X014276Y008497D01*
X014155Y008398D02*
X000300Y008398D01*
X000300Y008300D02*
X014099Y008300D01*
X014070Y008201D02*
X000300Y008201D01*
X000300Y008103D02*
X014070Y008103D01*
X014099Y008004D02*
X000300Y008004D01*
X000300Y007906D02*
X014156Y007906D01*
X014635Y007807D02*
X015279Y007807D01*
X015156Y007906D02*
X014758Y007906D01*
X014815Y008004D02*
X015099Y008004D01*
X015070Y008103D02*
X014844Y008103D01*
X014844Y008201D02*
X015070Y008201D01*
X015099Y008300D02*
X014815Y008300D01*
X014759Y008398D02*
X015155Y008398D01*
X015276Y008497D02*
X014638Y008497D01*
X014919Y007512D02*
X014996Y007512D01*
X014996Y007413D02*
X014919Y007413D01*
X014919Y007315D02*
X014996Y007315D01*
X014996Y007216D02*
X014919Y007216D01*
X014919Y007019D02*
X014996Y007019D01*
X014996Y006921D02*
X014919Y006921D01*
X014919Y006822D02*
X014996Y006822D01*
X015229Y006822D02*
X015743Y006822D01*
X015641Y006921D02*
X015317Y006921D01*
X015363Y007019D02*
X015593Y007019D01*
X014685Y006822D02*
X014171Y006822D01*
X014273Y006921D02*
X014597Y006921D01*
X014551Y007019D02*
X014321Y007019D01*
X012948Y005246D02*
X000300Y005246D01*
X000300Y005148D02*
X012849Y005148D01*
X012777Y005049D02*
X000300Y005049D01*
X000300Y004951D02*
X012736Y004951D01*
X012696Y004852D02*
X000300Y004852D01*
X000300Y004754D02*
X012677Y004754D01*
X017229Y006822D02*
X019243Y006822D01*
X019141Y006921D02*
X017317Y006921D01*
X017363Y007019D02*
X019093Y007019D01*
X020729Y006822D02*
X021243Y006822D01*
X021141Y006921D02*
X020817Y006921D01*
X020863Y007019D02*
X021093Y007019D01*
X022729Y006822D02*
X027129Y006822D01*
X027027Y006921D02*
X022817Y006921D01*
X022863Y007019D02*
X026979Y007019D01*
X028615Y006822D02*
X029129Y006822D01*
X029027Y006921D02*
X028703Y006921D01*
X028749Y007019D02*
X028979Y007019D01*
X030615Y006822D02*
X032629Y006822D01*
X032527Y006921D02*
X030703Y006921D01*
X030749Y007019D02*
X032479Y007019D01*
X034115Y006822D02*
X034629Y006822D01*
X034527Y006921D02*
X034203Y006921D01*
X034249Y007019D02*
X034479Y007019D01*
X036115Y006822D02*
X039370Y006822D01*
X039370Y006921D02*
X036203Y006921D01*
X036249Y007019D02*
X039370Y007019D01*
X039370Y008694D02*
X000300Y008694D01*
X000300Y008792D02*
X039370Y008792D01*
X039370Y008891D02*
X000300Y008891D01*
X000300Y008989D02*
X039370Y008989D01*
X039370Y009088D02*
X000300Y009088D01*
X000300Y009186D02*
X039370Y009186D01*
X039370Y009285D02*
X000300Y009285D01*
X000300Y009383D02*
X039370Y009383D01*
X039370Y009482D02*
X000300Y009482D01*
X000300Y009580D02*
X039370Y009580D01*
X039370Y009679D02*
X000300Y009679D01*
X000300Y009777D02*
X039370Y009777D01*
X039370Y009876D02*
X000300Y009876D01*
X000300Y009974D02*
X039370Y009974D01*
X039370Y010073D02*
X000300Y010073D01*
X000300Y010171D02*
X039370Y010171D01*
X039370Y010270D02*
X000300Y010270D01*
X000300Y010368D02*
X039370Y010368D01*
X039370Y010467D02*
X000300Y010467D01*
X000300Y010565D02*
X039370Y010565D01*
X039370Y010664D02*
X000300Y010664D01*
X000300Y010762D02*
X039370Y010762D01*
X039370Y010861D02*
X000300Y010861D01*
X000300Y010959D02*
X039370Y010959D01*
X039370Y011058D02*
X000300Y011058D01*
X000300Y011156D02*
X039370Y011156D01*
X039370Y011255D02*
X000300Y011255D01*
X000300Y011353D02*
X039370Y011353D01*
X039370Y011452D02*
X000300Y011452D01*
X000300Y011550D02*
X039370Y011550D01*
X039370Y011649D02*
X000300Y011649D01*
X000300Y011747D02*
X039370Y011747D01*
X039370Y011846D02*
X000300Y011846D01*
X000300Y011944D02*
X039370Y011944D01*
X039370Y012043D02*
X000300Y012043D01*
X000300Y012141D02*
X039370Y012141D01*
X039370Y012240D02*
X000300Y012240D01*
X000300Y012338D02*
X039370Y012338D01*
X039370Y012437D02*
X000300Y012437D01*
X000300Y012535D02*
X039370Y012535D01*
X039370Y012634D02*
X000300Y012634D01*
X000300Y012732D02*
X039370Y012732D01*
X039370Y012831D02*
X000300Y012831D01*
X000300Y012929D02*
X039370Y012929D01*
X039370Y013028D02*
X000300Y013028D01*
X000300Y013126D02*
X039370Y013126D01*
X039370Y013225D02*
X000300Y013225D01*
X000300Y013323D02*
X039370Y013323D01*
X039370Y013422D02*
X000300Y013422D01*
X000300Y013520D02*
X039370Y013520D01*
X039370Y013619D02*
X000300Y013619D01*
X000300Y013717D02*
X039370Y013717D01*
X039370Y013816D02*
X000300Y013816D01*
X000300Y013914D02*
X039370Y013914D01*
X039370Y014013D02*
X000300Y014013D01*
X000300Y014111D02*
X039370Y014111D01*
X039370Y014210D02*
X000300Y014210D01*
X000300Y014308D02*
X039370Y014308D01*
X039370Y014407D02*
X000300Y014407D01*
X000300Y014505D02*
X039370Y014505D01*
X039370Y014604D02*
X000300Y014604D01*
X000300Y014702D02*
X039370Y014702D01*
X039370Y014801D02*
X000300Y014801D01*
X000300Y014899D02*
X039370Y014899D01*
X039370Y014998D02*
X000300Y014998D01*
X000300Y015096D02*
X039370Y015096D01*
X039370Y015195D02*
X000300Y015195D01*
X000300Y015293D02*
X039370Y015293D01*
X039370Y015392D02*
X000300Y015392D01*
X000300Y015490D02*
X039370Y015490D01*
X039370Y015589D02*
X000300Y015589D01*
X000300Y015687D02*
X039370Y015687D01*
X039370Y015786D02*
X000300Y015786D01*
X000300Y015884D02*
X039370Y015884D01*
X039370Y015983D02*
X000300Y015983D01*
X000300Y016081D02*
X039370Y016081D01*
X039370Y016180D02*
X000300Y016180D01*
X000300Y016278D02*
X039370Y016278D01*
X039370Y016377D02*
X000300Y016377D01*
X000300Y016475D02*
X039370Y016475D01*
X039370Y016574D02*
X000300Y016574D01*
X000300Y016672D02*
X039370Y016672D01*
X039370Y016771D02*
X000300Y016771D01*
X000300Y016869D02*
X039370Y016869D01*
X039370Y016968D02*
X000300Y016968D01*
X000300Y017066D02*
X039370Y017066D01*
X039370Y017165D02*
X016029Y017165D01*
X015995Y017130D02*
X016129Y017264D01*
X016129Y017454D01*
X015995Y017588D01*
X015805Y017588D01*
X015736Y017519D01*
X012314Y017519D01*
X012245Y017588D01*
X012055Y017588D01*
X011921Y017454D01*
X011921Y017264D01*
X012055Y017130D01*
X012245Y017130D01*
X012314Y017199D01*
X015736Y017199D01*
X015805Y017130D01*
X015995Y017130D01*
X016128Y017263D02*
X039370Y017263D01*
X039370Y017362D02*
X016129Y017362D01*
X016123Y017460D02*
X039370Y017460D01*
X039370Y017559D02*
X016024Y017559D01*
X015900Y017359D02*
X012150Y017359D01*
X011921Y017362D02*
X000300Y017362D01*
X000300Y017460D02*
X011927Y017460D01*
X012026Y017559D02*
X000300Y017559D01*
X000300Y017657D02*
X039370Y017657D01*
X039370Y017756D02*
X000300Y017756D01*
X000300Y017854D02*
X039370Y017854D01*
X039370Y017953D02*
X000300Y017953D01*
X000300Y018051D02*
X039370Y018051D01*
X039370Y018150D02*
X000300Y018150D01*
X000300Y018248D02*
X039370Y018248D01*
X039370Y018347D02*
X000300Y018347D01*
X000300Y018445D02*
X039370Y018445D01*
X039370Y018544D02*
X000300Y018544D01*
X000300Y018642D02*
X039370Y018642D01*
X039370Y018741D02*
X000300Y018741D01*
X000300Y018839D02*
X039370Y018839D01*
X039370Y018938D02*
X000300Y018938D01*
X000300Y019036D02*
X039370Y019036D01*
X039370Y019135D02*
X000300Y019135D01*
X000300Y019233D02*
X039370Y019233D01*
X039370Y019332D02*
X000300Y019332D01*
X000300Y019430D02*
X015005Y019430D01*
X015055Y019380D02*
X015245Y019380D01*
X015314Y019449D01*
X030486Y019449D01*
X030555Y019380D01*
X030745Y019380D01*
X030814Y019449D01*
X035486Y019449D01*
X035555Y019380D01*
X035745Y019380D01*
X035879Y019514D01*
X035879Y019630D01*
X035995Y019630D01*
X036129Y019764D01*
X036129Y019880D01*
X036245Y019880D01*
X036379Y020014D01*
X036379Y020204D01*
X036245Y020338D01*
X036055Y020338D01*
X035986Y020269D01*
X034379Y020269D01*
X034379Y020454D01*
X034245Y020588D01*
X034055Y020588D01*
X033986Y020519D01*
X032064Y020519D01*
X031995Y020588D01*
X031805Y020588D01*
X031736Y020519D01*
X029064Y020519D01*
X028995Y020588D01*
X028805Y020588D01*
X028736Y020519D01*
X018564Y020519D01*
X018495Y020588D01*
X018305Y020588D01*
X018171Y020454D01*
X018171Y020269D01*
X016814Y020269D01*
X016745Y020338D01*
X016555Y020338D01*
X016421Y020204D01*
X016421Y020014D01*
X016555Y019880D01*
X016671Y019880D01*
X016671Y019769D01*
X015314Y019769D01*
X015245Y019838D01*
X015055Y019838D01*
X014921Y019704D01*
X014921Y019514D01*
X015055Y019380D01*
X014921Y019529D02*
X000300Y019529D01*
X000300Y019627D02*
X014921Y019627D01*
X014943Y019726D02*
X000300Y019726D01*
X000300Y019824D02*
X015041Y019824D01*
X015259Y019824D02*
X016671Y019824D01*
X016513Y019923D02*
X000300Y019923D01*
X000300Y020021D02*
X016421Y020021D01*
X016421Y020120D02*
X000300Y020120D01*
X000300Y020218D02*
X016435Y020218D01*
X016534Y020317D02*
X000300Y020317D01*
X000300Y020415D02*
X018171Y020415D01*
X018171Y020317D02*
X016766Y020317D01*
X016650Y020109D02*
X029150Y020109D01*
X029400Y020109D01*
X029150Y020109D01*
X029400Y020109D02*
X029900Y020109D01*
X030150Y020109D01*
X029900Y020109D01*
X030150Y020109D02*
X036150Y020109D01*
X036379Y020120D02*
X039370Y020120D01*
X039370Y020218D02*
X036365Y020218D01*
X036266Y020317D02*
X039370Y020317D01*
X039370Y020415D02*
X034379Y020415D01*
X034379Y020317D02*
X036034Y020317D01*
X036379Y020021D02*
X039370Y020021D01*
X039370Y019923D02*
X036287Y019923D01*
X036129Y019824D02*
X039370Y019824D01*
X039370Y019726D02*
X036090Y019726D01*
X035900Y019859D02*
X031150Y019859D01*
X030900Y019859D01*
X031150Y019859D01*
X030900Y019859D02*
X028650Y019859D01*
X016900Y019859D01*
X017754Y020629D02*
X017847Y020591D01*
X017953Y020591D01*
X018046Y020629D01*
X026004Y020629D01*
X026097Y020591D01*
X026203Y020591D01*
X026296Y020629D01*
X029504Y020629D01*
X029597Y020591D01*
X029703Y020591D01*
X029796Y020629D01*
X031254Y020629D01*
X031347Y020591D01*
X031453Y020591D01*
X031546Y020629D01*
X034504Y020629D01*
X034597Y020591D01*
X034703Y020591D01*
X034802Y020632D01*
X034878Y020707D01*
X034918Y020806D01*
X034918Y020913D01*
X034878Y021011D01*
X034802Y021087D01*
X034703Y021128D01*
X034597Y021128D01*
X034504Y021089D01*
X031546Y021089D01*
X031453Y021128D01*
X031347Y021128D01*
X031254Y021089D01*
X029796Y021089D01*
X029703Y021128D01*
X029597Y021128D01*
X029504Y021089D01*
X026296Y021089D01*
X026203Y021128D01*
X026097Y021128D01*
X026004Y021089D01*
X018046Y021089D01*
X017953Y021128D01*
X017847Y021128D01*
X017754Y021089D01*
X011796Y021089D01*
X011703Y021128D01*
X011597Y021128D01*
X011498Y021087D01*
X011422Y021011D01*
X011382Y020913D01*
X011382Y020806D01*
X011422Y020707D01*
X011498Y020632D01*
X011597Y020591D01*
X011703Y020591D01*
X011796Y020629D01*
X017754Y020629D01*
X017795Y020612D02*
X011755Y020612D01*
X011545Y020612D02*
X000300Y020612D01*
X000300Y020514D02*
X018231Y020514D01*
X018400Y020359D02*
X028900Y020359D01*
X031650Y020359D01*
X031900Y020359D01*
X034150Y020359D01*
X034319Y020514D02*
X039370Y020514D01*
X039370Y020612D02*
X034755Y020612D01*
X034879Y020711D02*
X039370Y020711D01*
X039370Y020809D02*
X034918Y020809D01*
X034918Y020908D02*
X039370Y020908D01*
X039370Y021006D02*
X034880Y021006D01*
X034759Y021105D02*
X039370Y021105D01*
X039370Y021203D02*
X000300Y021203D01*
X000300Y021105D02*
X011541Y021105D01*
X011420Y021006D02*
X000300Y021006D01*
X000300Y020908D02*
X011382Y020908D01*
X011382Y020809D02*
X000300Y020809D01*
X000300Y020711D02*
X011421Y020711D01*
X011759Y021105D02*
X017791Y021105D01*
X018009Y021105D02*
X026041Y021105D01*
X026259Y021105D02*
X029541Y021105D01*
X029759Y021105D02*
X031291Y021105D01*
X031509Y021105D02*
X034541Y021105D01*
X034545Y020612D02*
X031505Y020612D01*
X031295Y020612D02*
X029755Y020612D01*
X029545Y020612D02*
X026255Y020612D01*
X026045Y020612D02*
X018005Y020612D01*
X015295Y019430D02*
X030505Y019430D01*
X030400Y019609D02*
X030650Y019609D01*
X035650Y019609D01*
X035879Y019627D02*
X039370Y019627D01*
X039370Y019529D02*
X035879Y019529D01*
X035795Y019430D02*
X039370Y019430D01*
X039370Y021302D02*
X000300Y021302D01*
X000300Y021400D02*
X039370Y021400D01*
X039370Y021499D02*
X000300Y021499D01*
X000300Y021597D02*
X039370Y021597D01*
X039370Y021696D02*
X000300Y021696D01*
X000300Y021794D02*
X039370Y021794D01*
X039370Y021893D02*
X010313Y021893D01*
X010302Y021882D02*
X010378Y021957D01*
X010418Y022056D01*
X010418Y022163D01*
X010378Y022261D01*
X010302Y022337D01*
X010203Y022378D01*
X010150Y022378D01*
X008129Y024399D01*
X004140Y024399D01*
X004102Y024437D01*
X004003Y024478D01*
X003897Y024478D01*
X003798Y024437D01*
X003722Y024361D01*
X003682Y024263D01*
X003682Y024156D01*
X003722Y024057D01*
X003798Y023982D01*
X003897Y023941D01*
X004003Y023941D01*
X004102Y023982D01*
X004140Y024019D01*
X007971Y024019D01*
X009882Y022109D01*
X009882Y022056D01*
X009922Y021957D01*
X009998Y021882D01*
X010097Y021841D01*
X010203Y021841D01*
X010302Y021882D01*
X010392Y021991D02*
X039370Y021991D01*
X039370Y022090D02*
X010418Y022090D01*
X010408Y022188D02*
X039370Y022188D01*
X039370Y022287D02*
X010352Y022287D01*
X010143Y022385D02*
X039370Y022385D01*
X039370Y022484D02*
X010044Y022484D01*
X009946Y022582D02*
X039370Y022582D01*
X039370Y022681D02*
X009847Y022681D01*
X009749Y022779D02*
X039370Y022779D01*
X039370Y022878D02*
X009650Y022878D01*
X009552Y022976D02*
X039370Y022976D01*
X039370Y023075D02*
X009453Y023075D01*
X009355Y023173D02*
X039370Y023173D01*
X039370Y023272D02*
X009256Y023272D01*
X009158Y023370D02*
X039370Y023370D01*
X039370Y023469D02*
X009059Y023469D01*
X008961Y023567D02*
X039370Y023567D01*
X039370Y023666D02*
X008862Y023666D01*
X008764Y023764D02*
X039370Y023764D01*
X039370Y023863D02*
X008665Y023863D01*
X008567Y023961D02*
X039370Y023961D01*
X039370Y024060D02*
X008468Y024060D01*
X008370Y024158D02*
X039370Y024158D01*
X039370Y024257D02*
X008271Y024257D01*
X008173Y024355D02*
X039370Y024355D01*
X039370Y024454D02*
X004061Y024454D01*
X003839Y024454D02*
X000300Y024454D01*
X000300Y024552D02*
X039370Y024552D01*
X039370Y024651D02*
X000300Y024651D01*
X000300Y024749D02*
X039370Y024749D01*
X039370Y024848D02*
X000300Y024848D01*
X000300Y024946D02*
X039370Y024946D01*
X039370Y025045D02*
X000300Y025045D01*
X000300Y025143D02*
X039370Y025143D01*
X039370Y025242D02*
X036070Y025242D01*
X036062Y025234D02*
X036171Y025343D01*
X036230Y025485D01*
X036230Y025639D01*
X036171Y025781D01*
X036062Y025890D01*
X035920Y025949D01*
X035766Y025949D01*
X035624Y025890D01*
X035515Y025781D01*
X035456Y025639D01*
X035456Y025485D01*
X035515Y025343D01*
X035624Y025234D01*
X035766Y025175D01*
X035920Y025175D01*
X036062Y025234D01*
X036169Y025340D02*
X039370Y025340D01*
X039370Y025439D02*
X036211Y025439D01*
X036230Y025537D02*
X039370Y025537D01*
X039370Y025636D02*
X036230Y025636D01*
X036191Y025734D02*
X039370Y025734D01*
X039370Y025833D02*
X036120Y025833D01*
X035963Y025931D02*
X039370Y025931D01*
X039370Y026030D02*
X000300Y026030D01*
X000300Y026128D02*
X039370Y026128D01*
X039370Y026227D02*
X036545Y026227D01*
X036562Y026234D02*
X036671Y026343D01*
X036730Y026485D01*
X036730Y026639D01*
X036671Y026781D01*
X036562Y026890D01*
X036420Y026949D01*
X036266Y026949D01*
X036124Y026890D01*
X036015Y026781D01*
X035956Y026639D01*
X035956Y026485D01*
X036015Y026343D01*
X036124Y026234D01*
X036266Y026175D01*
X036420Y026175D01*
X036562Y026234D01*
X036654Y026325D02*
X039370Y026325D01*
X039370Y026424D02*
X036705Y026424D01*
X036730Y026522D02*
X039370Y026522D01*
X039370Y026621D02*
X036730Y026621D01*
X036697Y026719D02*
X039370Y026719D01*
X039370Y026818D02*
X036635Y026818D01*
X036499Y026916D02*
X039370Y026916D01*
X039370Y027015D02*
X000300Y027015D01*
X000300Y027113D02*
X004307Y027113D01*
X004134Y027185D02*
X004487Y027039D01*
X004869Y027039D01*
X005221Y027185D01*
X005491Y027455D01*
X005638Y027808D01*
X005638Y028190D01*
X005491Y028543D01*
X005221Y028813D01*
X004869Y028959D01*
X004487Y028959D01*
X004134Y028813D01*
X003864Y028543D01*
X003718Y028190D01*
X003718Y027808D01*
X003864Y027455D01*
X004134Y027185D01*
X004107Y027212D02*
X000300Y027212D01*
X000300Y027310D02*
X004009Y027310D01*
X003910Y027409D02*
X000300Y027409D01*
X000300Y027507D02*
X003842Y027507D01*
X003801Y027606D02*
X000300Y027606D01*
X000300Y027704D02*
X003761Y027704D01*
X003720Y027803D02*
X000300Y027803D01*
X000300Y027901D02*
X003718Y027901D01*
X003718Y028000D02*
X000300Y028000D01*
X000300Y028098D02*
X003718Y028098D01*
X003720Y028197D02*
X003013Y028197D01*
X002995Y028193D02*
X003104Y028218D01*
X003210Y028255D01*
X003312Y028304D01*
X003407Y028363D01*
X003495Y028433D01*
X003574Y028513D01*
X003644Y028601D01*
X003704Y028696D01*
X003753Y028797D01*
X003790Y028903D01*
X003815Y029012D01*
X003827Y029124D01*
X003827Y029130D01*
X002877Y029130D01*
X002877Y028180D01*
X002883Y028180D01*
X002995Y028193D01*
X002877Y028197D02*
X002777Y028197D01*
X002777Y028180D02*
X002777Y029130D01*
X001827Y029130D01*
X001827Y029124D01*
X001840Y029012D01*
X001865Y028903D01*
X001902Y028797D01*
X001951Y028696D01*
X002010Y028601D01*
X002080Y028513D01*
X002160Y028433D01*
X002248Y028363D01*
X002343Y028304D01*
X002444Y028255D01*
X002550Y028218D01*
X002659Y028193D01*
X002771Y028180D01*
X002777Y028180D01*
X002777Y028295D02*
X002877Y028295D01*
X002877Y028394D02*
X002777Y028394D01*
X002777Y028492D02*
X002877Y028492D01*
X002877Y028591D02*
X002777Y028591D01*
X002777Y028689D02*
X002877Y028689D01*
X002877Y028788D02*
X002777Y028788D01*
X002777Y028886D02*
X002877Y028886D01*
X002877Y028985D02*
X002777Y028985D01*
X002777Y029083D02*
X002877Y029083D01*
X002877Y029130D02*
X002777Y029130D01*
X002777Y029230D01*
X001827Y029230D01*
X001827Y029236D01*
X001840Y029348D01*
X001865Y029457D01*
X001902Y029563D01*
X001951Y029665D01*
X002010Y029760D01*
X002080Y029848D01*
X002160Y029927D01*
X002248Y029997D01*
X002343Y030057D01*
X002444Y030105D01*
X002550Y030143D01*
X002659Y030168D01*
X002771Y030180D01*
X002777Y030180D01*
X002777Y029230D01*
X002877Y029230D01*
X002877Y030180D01*
X002883Y030180D01*
X002995Y030168D01*
X003104Y030143D01*
X003210Y030105D01*
X003312Y030057D01*
X003407Y029997D01*
X003495Y029927D01*
X003574Y029848D01*
X003644Y029760D01*
X003704Y029665D01*
X003753Y029563D01*
X003790Y029457D01*
X003815Y029348D01*
X003827Y029236D01*
X003827Y029230D01*
X002877Y029230D01*
X002877Y029130D01*
X002877Y029182D02*
X026063Y029182D01*
X026063Y029217D02*
X026063Y028907D01*
X026182Y028620D01*
X026401Y028401D01*
X026688Y028282D01*
X026998Y028282D01*
X027285Y028401D01*
X027504Y028620D01*
X027623Y028907D01*
X027623Y029217D01*
X027504Y029504D01*
X027285Y029723D01*
X026998Y029842D01*
X026688Y029842D01*
X026401Y029723D01*
X026182Y029504D01*
X026063Y029217D01*
X026089Y029280D02*
X003822Y029280D01*
X003808Y029379D02*
X004488Y029379D01*
X004510Y029374D02*
X004621Y029361D01*
X004628Y029361D01*
X004628Y030311D01*
X004728Y030311D01*
X004728Y030411D01*
X005678Y030411D01*
X005678Y030417D01*
X005665Y030529D01*
X005640Y030638D01*
X005603Y030745D01*
X005554Y030846D01*
X005494Y030941D01*
X005424Y031029D01*
X005345Y031108D01*
X005257Y031178D01*
X005162Y031238D01*
X005061Y031287D01*
X004955Y031324D01*
X004845Y031349D01*
X004734Y031361D01*
X004728Y031361D01*
X004728Y030411D01*
X004628Y030411D01*
X004628Y031361D01*
X004621Y031361D01*
X004510Y031349D01*
X004400Y031324D01*
X004294Y031287D01*
X004193Y031238D01*
X004098Y031178D01*
X004010Y031108D01*
X003931Y031029D01*
X003861Y030941D01*
X003801Y030846D01*
X003752Y030745D01*
X003715Y030638D01*
X003690Y030529D01*
X003678Y030417D01*
X003678Y030411D01*
X004628Y030411D01*
X004628Y030311D01*
X003678Y030311D01*
X003678Y030305D01*
X003690Y030193D01*
X003715Y030084D01*
X003752Y029978D01*
X003801Y029877D01*
X003861Y029782D01*
X003931Y029694D01*
X004010Y029614D01*
X004098Y029544D01*
X004193Y029485D01*
X004294Y029436D01*
X004400Y029399D01*
X004510Y029374D01*
X004628Y029379D02*
X004728Y029379D01*
X004728Y029361D02*
X004734Y029361D01*
X004845Y029374D01*
X004955Y029399D01*
X005061Y029436D01*
X005162Y029485D01*
X005257Y029544D01*
X005345Y029614D01*
X005424Y029694D01*
X005494Y029782D01*
X005554Y029877D01*
X005603Y029978D01*
X005640Y030084D01*
X005665Y030193D01*
X005678Y030305D01*
X005678Y030311D01*
X004728Y030311D01*
X004728Y029361D01*
X004728Y029477D02*
X004628Y029477D01*
X004628Y029576D02*
X004728Y029576D01*
X004728Y029674D02*
X004628Y029674D01*
X004628Y029773D02*
X004728Y029773D01*
X004728Y029871D02*
X004628Y029871D01*
X004628Y029970D02*
X004728Y029970D01*
X004728Y030068D02*
X004628Y030068D01*
X004628Y030167D02*
X004728Y030167D01*
X004728Y030265D02*
X004628Y030265D01*
X004628Y030364D02*
X000300Y030364D01*
X000300Y030462D02*
X003683Y030462D01*
X003697Y030561D02*
X000300Y030561D01*
X000300Y030659D02*
X003722Y030659D01*
X003759Y030758D02*
X000300Y030758D01*
X000300Y030856D02*
X003808Y030856D01*
X003872Y030955D02*
X000300Y030955D01*
X000300Y031053D02*
X003955Y031053D01*
X004065Y031152D02*
X000300Y031152D01*
X000300Y031250D02*
X004219Y031250D01*
X004511Y031349D02*
X000300Y031349D01*
X000300Y031447D02*
X039370Y031447D01*
X039370Y031349D02*
X004844Y031349D01*
X004728Y031349D02*
X004628Y031349D01*
X004628Y031250D02*
X004728Y031250D01*
X004728Y031152D02*
X004628Y031152D01*
X004628Y031053D02*
X004728Y031053D01*
X004728Y030955D02*
X004628Y030955D01*
X004628Y030856D02*
X004728Y030856D01*
X004728Y030758D02*
X004628Y030758D01*
X004628Y030659D02*
X004728Y030659D01*
X004728Y030561D02*
X004628Y030561D01*
X004628Y030462D02*
X004728Y030462D01*
X004728Y030364D02*
X039370Y030364D01*
X039370Y030462D02*
X005672Y030462D01*
X005658Y030561D02*
X039370Y030561D01*
X039370Y030659D02*
X005633Y030659D01*
X005596Y030758D02*
X039370Y030758D01*
X039370Y030856D02*
X005547Y030856D01*
X005483Y030955D02*
X039370Y030955D01*
X039370Y031053D02*
X005400Y031053D01*
X005290Y031152D02*
X039370Y031152D01*
X039370Y031250D02*
X005136Y031250D01*
X005673Y030265D02*
X039370Y030265D01*
X039370Y030167D02*
X005659Y030167D01*
X005635Y030068D02*
X039370Y030068D01*
X039370Y029970D02*
X005599Y029970D01*
X005551Y029871D02*
X039370Y029871D01*
X039370Y029773D02*
X037165Y029773D01*
X037285Y029723D02*
X036998Y029842D01*
X036688Y029842D01*
X036401Y029723D01*
X036182Y029504D01*
X036063Y029217D01*
X036063Y028907D01*
X036182Y028620D01*
X036401Y028401D01*
X036688Y028282D01*
X036998Y028282D01*
X037285Y028401D01*
X037504Y028620D01*
X037623Y028907D01*
X037623Y029217D01*
X037504Y029504D01*
X037285Y029723D01*
X037334Y029674D02*
X039370Y029674D01*
X039370Y029576D02*
X037432Y029576D01*
X037515Y029477D02*
X039370Y029477D01*
X039370Y029379D02*
X037556Y029379D01*
X037597Y029280D02*
X039370Y029280D01*
X039370Y029182D02*
X037623Y029182D01*
X037623Y029083D02*
X039370Y029083D01*
X039370Y028985D02*
X037623Y028985D01*
X037614Y028886D02*
X039370Y028886D01*
X039370Y028788D02*
X037574Y028788D01*
X037533Y028689D02*
X039370Y028689D01*
X039370Y028591D02*
X037475Y028591D01*
X037376Y028492D02*
X039370Y028492D01*
X039370Y028394D02*
X037268Y028394D01*
X037030Y028295D02*
X037739Y028295D01*
X037813Y028326D02*
X037643Y028255D01*
X037512Y028125D01*
X037441Y027954D01*
X037441Y027769D01*
X037512Y027598D01*
X037643Y027467D01*
X037813Y027396D01*
X037998Y027396D01*
X038169Y027467D01*
X038300Y027598D01*
X038371Y027769D01*
X038371Y027954D01*
X038300Y028125D01*
X038169Y028255D01*
X037998Y028326D01*
X037813Y028326D01*
X038073Y028295D02*
X039370Y028295D01*
X039370Y028197D02*
X038228Y028197D01*
X038311Y028098D02*
X039370Y028098D01*
X039370Y028000D02*
X038352Y028000D01*
X038371Y027901D02*
X039370Y027901D01*
X039370Y027803D02*
X038371Y027803D01*
X038344Y027704D02*
X039370Y027704D01*
X039370Y027606D02*
X038303Y027606D01*
X038210Y027507D02*
X039370Y027507D01*
X039370Y027409D02*
X038029Y027409D01*
X037783Y027409D02*
X025903Y027409D01*
X025872Y027396D02*
X026043Y027467D01*
X026174Y027598D01*
X026245Y027769D01*
X026245Y027954D01*
X026174Y028125D01*
X026043Y028255D01*
X025872Y028326D01*
X025687Y028326D01*
X025517Y028255D01*
X025386Y028125D01*
X025315Y027954D01*
X025315Y027769D01*
X025386Y027598D01*
X025517Y027467D01*
X025687Y027396D01*
X025872Y027396D01*
X025657Y027409D02*
X005445Y027409D01*
X005513Y027507D02*
X025476Y027507D01*
X025382Y027606D02*
X005554Y027606D01*
X005595Y027704D02*
X025342Y027704D01*
X025315Y027803D02*
X005635Y027803D01*
X005638Y027901D02*
X025315Y027901D01*
X025334Y028000D02*
X005638Y028000D01*
X005638Y028098D02*
X025375Y028098D01*
X025458Y028197D02*
X005635Y028197D01*
X005594Y028295D02*
X025613Y028295D01*
X025947Y028295D02*
X026656Y028295D01*
X026418Y028394D02*
X005553Y028394D01*
X005512Y028492D02*
X026310Y028492D01*
X026211Y028591D02*
X005443Y028591D01*
X005345Y028689D02*
X026153Y028689D01*
X026112Y028788D02*
X005246Y028788D01*
X005044Y028886D02*
X026072Y028886D01*
X026063Y028985D02*
X003808Y028985D01*
X003823Y029083D02*
X026063Y029083D01*
X026130Y029379D02*
X004867Y029379D01*
X005147Y029477D02*
X026171Y029477D01*
X026254Y029576D02*
X005297Y029576D01*
X005405Y029674D02*
X026352Y029674D01*
X026521Y029773D02*
X005487Y029773D01*
X004208Y029477D02*
X003783Y029477D01*
X003747Y029576D02*
X004059Y029576D01*
X003950Y029674D02*
X003698Y029674D01*
X003634Y029773D02*
X003868Y029773D01*
X003804Y029871D02*
X003550Y029871D01*
X003441Y029970D02*
X003756Y029970D01*
X003721Y030068D02*
X003288Y030068D01*
X002998Y030167D02*
X003696Y030167D01*
X003682Y030265D02*
X000300Y030265D01*
X000300Y030167D02*
X002656Y030167D01*
X002777Y030167D02*
X002877Y030167D01*
X002877Y030068D02*
X002777Y030068D01*
X002777Y029970D02*
X002877Y029970D01*
X002877Y029871D02*
X002777Y029871D01*
X002777Y029773D02*
X002877Y029773D01*
X002877Y029674D02*
X002777Y029674D01*
X002777Y029576D02*
X002877Y029576D01*
X002877Y029477D02*
X002777Y029477D01*
X002777Y029379D02*
X002877Y029379D01*
X002877Y029280D02*
X002777Y029280D01*
X002777Y029182D02*
X000300Y029182D01*
X000300Y029280D02*
X001832Y029280D01*
X001847Y029379D02*
X000300Y029379D01*
X000300Y029477D02*
X001872Y029477D01*
X001908Y029576D02*
X000300Y029576D01*
X000300Y029674D02*
X001957Y029674D01*
X002021Y029773D02*
X000300Y029773D01*
X000300Y029871D02*
X002104Y029871D01*
X002214Y029970D02*
X000300Y029970D01*
X000300Y030068D02*
X002367Y030068D01*
X001832Y029083D02*
X000300Y029083D01*
X000300Y028985D02*
X001846Y028985D01*
X001871Y028886D02*
X000300Y028886D01*
X000300Y028788D02*
X001906Y028788D01*
X001955Y028689D02*
X000300Y028689D01*
X000300Y028591D02*
X002018Y028591D01*
X002101Y028492D02*
X000300Y028492D01*
X000300Y028394D02*
X002209Y028394D01*
X002360Y028295D02*
X000300Y028295D01*
X000300Y028197D02*
X002641Y028197D01*
X003295Y028295D02*
X003761Y028295D01*
X003802Y028394D02*
X003445Y028394D01*
X003554Y028492D02*
X003843Y028492D01*
X003912Y028591D02*
X003636Y028591D01*
X003700Y028689D02*
X004010Y028689D01*
X004109Y028788D02*
X003748Y028788D01*
X003784Y028886D02*
X004311Y028886D01*
X005347Y027310D02*
X039370Y027310D01*
X039370Y027212D02*
X005248Y027212D01*
X005048Y027113D02*
X039370Y027113D01*
X037602Y027507D02*
X026084Y027507D01*
X026177Y027606D02*
X037508Y027606D01*
X037468Y027704D02*
X026218Y027704D01*
X026245Y027803D02*
X037441Y027803D01*
X037441Y027901D02*
X026245Y027901D01*
X026226Y028000D02*
X037460Y028000D01*
X037501Y028098D02*
X026185Y028098D01*
X026102Y028197D02*
X037584Y028197D01*
X036656Y028295D02*
X027030Y028295D01*
X027268Y028394D02*
X036418Y028394D01*
X036310Y028492D02*
X027376Y028492D01*
X027475Y028591D02*
X036211Y028591D01*
X036153Y028689D02*
X027533Y028689D01*
X027574Y028788D02*
X036112Y028788D01*
X036072Y028886D02*
X027614Y028886D01*
X027623Y028985D02*
X036063Y028985D01*
X036063Y029083D02*
X027623Y029083D01*
X027623Y029182D02*
X036063Y029182D01*
X036089Y029280D02*
X027597Y029280D01*
X027556Y029379D02*
X036130Y029379D01*
X036171Y029477D02*
X027515Y029477D01*
X027432Y029576D02*
X036254Y029576D01*
X036352Y029674D02*
X027334Y029674D01*
X027165Y029773D02*
X036521Y029773D01*
X039370Y031546D02*
X000300Y031546D01*
X000300Y031644D02*
X039370Y031644D01*
X039370Y031743D02*
X000300Y031743D01*
X000300Y031841D02*
X039370Y031841D01*
X039370Y031940D02*
X000300Y031940D01*
X000300Y032038D02*
X039370Y032038D01*
X039370Y032137D02*
X000300Y032137D01*
X000300Y032235D02*
X039370Y032235D01*
X039370Y032334D02*
X000300Y032334D01*
X000300Y032432D02*
X039370Y032432D01*
X036187Y026916D02*
X035582Y026916D01*
X035567Y026927D02*
X035507Y026958D01*
X035443Y026979D01*
X035381Y026988D01*
X035381Y026601D01*
X035304Y026601D01*
X035304Y026988D01*
X035243Y026979D01*
X035179Y026958D01*
X035119Y026927D01*
X035065Y026888D01*
X035017Y026840D01*
X034978Y026786D01*
X034947Y026726D01*
X034926Y026662D01*
X034917Y026601D01*
X035304Y026601D01*
X035304Y026523D01*
X035381Y026523D01*
X035381Y026136D01*
X035443Y026145D01*
X035507Y026166D01*
X035567Y026197D01*
X035621Y026236D01*
X035669Y026284D01*
X035708Y026338D01*
X035739Y026398D01*
X035760Y026462D01*
X035769Y026523D01*
X035382Y026523D01*
X035382Y026601D01*
X035769Y026601D01*
X035760Y026662D01*
X035739Y026726D01*
X035708Y026786D01*
X035669Y026840D01*
X035621Y026888D01*
X035567Y026927D01*
X035685Y026818D02*
X036051Y026818D01*
X035989Y026719D02*
X035741Y026719D01*
X035766Y026621D02*
X035956Y026621D01*
X035956Y026522D02*
X035769Y026522D01*
X035747Y026424D02*
X035981Y026424D01*
X036032Y026325D02*
X035699Y026325D01*
X035608Y026227D02*
X036140Y026227D01*
X035723Y025931D02*
X034963Y025931D01*
X034920Y025949D02*
X034766Y025949D01*
X034624Y025890D01*
X034515Y025781D01*
X034456Y025639D01*
X034456Y025485D01*
X034515Y025343D01*
X034624Y025234D01*
X034766Y025175D01*
X034920Y025175D01*
X035062Y025234D01*
X035171Y025343D01*
X035230Y025485D01*
X035230Y025639D01*
X035171Y025781D01*
X035062Y025890D01*
X034920Y025949D01*
X034723Y025931D02*
X033963Y025931D01*
X033920Y025949D02*
X033766Y025949D01*
X033624Y025890D01*
X033515Y025781D01*
X033456Y025639D01*
X033456Y025485D01*
X033515Y025343D01*
X033624Y025234D01*
X033766Y025175D01*
X033920Y025175D01*
X034062Y025234D01*
X034171Y025343D01*
X034230Y025485D01*
X034230Y025639D01*
X034171Y025781D01*
X034062Y025890D01*
X033920Y025949D01*
X033723Y025931D02*
X032963Y025931D01*
X032920Y025949D02*
X032766Y025949D01*
X032624Y025890D01*
X032515Y025781D01*
X032456Y025639D01*
X032456Y025485D01*
X032515Y025343D01*
X032624Y025234D01*
X032766Y025175D01*
X032920Y025175D01*
X033062Y025234D01*
X033171Y025343D01*
X033230Y025485D01*
X033230Y025639D01*
X033171Y025781D01*
X033062Y025890D01*
X032920Y025949D01*
X032723Y025931D02*
X030463Y025931D01*
X030420Y025949D02*
X030266Y025949D01*
X030124Y025890D01*
X030015Y025781D01*
X029956Y025639D01*
X029956Y025485D01*
X030015Y025343D01*
X030124Y025234D01*
X030266Y025175D01*
X030420Y025175D01*
X030562Y025234D01*
X030671Y025343D01*
X030730Y025485D01*
X030730Y025639D01*
X030671Y025781D01*
X030562Y025890D01*
X030420Y025949D01*
X030223Y025931D02*
X029463Y025931D01*
X029420Y025949D02*
X029562Y025890D01*
X029671Y025781D01*
X029730Y025639D01*
X029730Y025485D01*
X029671Y025343D01*
X029562Y025234D01*
X029420Y025175D01*
X029266Y025175D01*
X029124Y025234D01*
X029015Y025343D01*
X028956Y025485D01*
X028956Y025639D01*
X029015Y025781D01*
X029124Y025890D01*
X029266Y025949D01*
X029420Y025949D01*
X029223Y025931D02*
X028463Y025931D01*
X028420Y025949D02*
X028266Y025949D01*
X028124Y025890D01*
X028015Y025781D01*
X027956Y025639D01*
X027956Y025485D01*
X028015Y025343D01*
X028124Y025234D01*
X028266Y025175D01*
X028420Y025175D01*
X028562Y025234D01*
X028671Y025343D01*
X028730Y025485D01*
X028730Y025639D01*
X028671Y025781D01*
X028562Y025890D01*
X028420Y025949D01*
X028223Y025931D02*
X027463Y025931D01*
X027420Y025949D02*
X027562Y025890D01*
X027671Y025781D01*
X027730Y025639D01*
X027730Y025485D01*
X027671Y025343D01*
X027562Y025234D01*
X027420Y025175D01*
X027266Y025175D01*
X027124Y025234D01*
X027015Y025343D01*
X026956Y025485D01*
X026956Y025639D01*
X027015Y025781D01*
X027124Y025890D01*
X027266Y025949D01*
X027420Y025949D01*
X027223Y025931D02*
X000300Y025931D01*
X000300Y025833D02*
X027066Y025833D01*
X026995Y025734D02*
X000300Y025734D01*
X000300Y025636D02*
X026956Y025636D01*
X026956Y025537D02*
X000300Y025537D01*
X000300Y025439D02*
X026975Y025439D01*
X027017Y025340D02*
X000300Y025340D01*
X000300Y025242D02*
X027116Y025242D01*
X027570Y025242D02*
X028116Y025242D01*
X028017Y025340D02*
X027669Y025340D01*
X027711Y025439D02*
X027975Y025439D01*
X027956Y025537D02*
X027730Y025537D01*
X027730Y025636D02*
X027956Y025636D01*
X027995Y025734D02*
X027691Y025734D01*
X027620Y025833D02*
X028066Y025833D01*
X027920Y026175D02*
X027766Y026175D01*
X027624Y026234D01*
X027515Y026343D01*
X027456Y026485D01*
X027456Y026639D01*
X027515Y026781D01*
X027624Y026890D01*
X027766Y026949D01*
X027920Y026949D01*
X028062Y026890D01*
X028171Y026781D01*
X028230Y026639D01*
X028230Y026485D01*
X028171Y026343D01*
X028062Y026234D01*
X027920Y026175D01*
X028045Y026227D02*
X028640Y026227D01*
X028624Y026234D02*
X028766Y026175D01*
X028920Y026175D01*
X029062Y026234D01*
X029171Y026343D01*
X029230Y026485D01*
X029230Y026639D01*
X029171Y026781D01*
X029062Y026890D01*
X028920Y026949D01*
X028766Y026949D01*
X028624Y026890D01*
X028515Y026781D01*
X028456Y026639D01*
X028456Y026485D01*
X028515Y026343D01*
X028624Y026234D01*
X028532Y026325D02*
X028154Y026325D01*
X028205Y026424D02*
X028481Y026424D01*
X028456Y026522D02*
X028230Y026522D01*
X028230Y026621D02*
X028456Y026621D01*
X028489Y026719D02*
X028197Y026719D01*
X028135Y026818D02*
X028551Y026818D01*
X028687Y026916D02*
X027999Y026916D01*
X027687Y026916D02*
X000300Y026916D01*
X000300Y026818D02*
X027551Y026818D01*
X027489Y026719D02*
X000300Y026719D01*
X000300Y026621D02*
X027456Y026621D01*
X027456Y026522D02*
X000300Y026522D01*
X000300Y026424D02*
X027481Y026424D01*
X027532Y026325D02*
X000300Y026325D01*
X000300Y026227D02*
X027640Y026227D01*
X028620Y025833D02*
X029066Y025833D01*
X028995Y025734D02*
X028691Y025734D01*
X028730Y025636D02*
X028956Y025636D01*
X028956Y025537D02*
X028730Y025537D01*
X028711Y025439D02*
X028975Y025439D01*
X029017Y025340D02*
X028669Y025340D01*
X028570Y025242D02*
X029116Y025242D01*
X029570Y025242D02*
X030116Y025242D01*
X030017Y025340D02*
X029669Y025340D01*
X029711Y025439D02*
X029975Y025439D01*
X029956Y025537D02*
X029730Y025537D01*
X029730Y025636D02*
X029956Y025636D01*
X029995Y025734D02*
X029691Y025734D01*
X029620Y025833D02*
X030066Y025833D01*
X029943Y026145D02*
X030007Y026166D01*
X030067Y026197D01*
X030121Y026236D01*
X030169Y026284D01*
X030208Y026338D01*
X030239Y026398D01*
X030260Y026462D01*
X030269Y026523D01*
X029882Y026523D01*
X029882Y026601D01*
X030269Y026601D01*
X030260Y026662D01*
X030239Y026726D01*
X030208Y026786D01*
X030169Y026840D01*
X030121Y026888D01*
X030067Y026927D01*
X030007Y026958D01*
X029943Y026979D01*
X029881Y026988D01*
X029881Y026601D01*
X029804Y026601D01*
X029804Y026988D01*
X029743Y026979D01*
X029679Y026958D01*
X029619Y026927D01*
X029565Y026888D01*
X029517Y026840D01*
X029478Y026786D01*
X029447Y026726D01*
X029426Y026662D01*
X029417Y026601D01*
X029804Y026601D01*
X029804Y026523D01*
X029881Y026523D01*
X029881Y026136D01*
X029943Y026145D01*
X029881Y026227D02*
X029804Y026227D01*
X029804Y026136D02*
X029804Y026523D01*
X029417Y026523D01*
X029426Y026462D01*
X029447Y026398D01*
X029478Y026338D01*
X029517Y026284D01*
X029565Y026236D01*
X029619Y026197D01*
X029679Y026166D01*
X029743Y026145D01*
X029804Y026136D01*
X029804Y026325D02*
X029881Y026325D01*
X029881Y026424D02*
X029804Y026424D01*
X029804Y026522D02*
X029881Y026522D01*
X029900Y026505D02*
X029843Y026562D01*
X029804Y026621D02*
X029881Y026621D01*
X029881Y026719D02*
X029804Y026719D01*
X029804Y026818D02*
X029881Y026818D01*
X029881Y026916D02*
X029804Y026916D01*
X029604Y026916D02*
X028999Y026916D01*
X029135Y026818D02*
X029501Y026818D01*
X029445Y026719D02*
X029197Y026719D01*
X029230Y026621D02*
X029420Y026621D01*
X029417Y026522D02*
X029230Y026522D01*
X029205Y026424D02*
X029439Y026424D01*
X029487Y026325D02*
X029154Y026325D01*
X029045Y026227D02*
X029578Y026227D01*
X029900Y026505D02*
X029900Y024609D01*
X030570Y025242D02*
X032616Y025242D01*
X032517Y025340D02*
X030669Y025340D01*
X030711Y025439D02*
X032475Y025439D01*
X032456Y025537D02*
X030730Y025537D01*
X030730Y025636D02*
X032456Y025636D01*
X032495Y025734D02*
X030691Y025734D01*
X030620Y025833D02*
X032566Y025833D01*
X033032Y026325D02*
X031154Y026325D01*
X031171Y026343D02*
X031230Y026485D01*
X031230Y026639D01*
X031171Y026781D01*
X031062Y026890D01*
X030920Y026949D01*
X030766Y026949D01*
X030624Y026890D01*
X030515Y026781D01*
X030456Y026639D01*
X030456Y026485D01*
X030515Y026343D01*
X030624Y026234D01*
X030766Y026175D01*
X030920Y026175D01*
X031062Y026234D01*
X031171Y026343D01*
X031205Y026424D02*
X032981Y026424D01*
X032956Y026485D02*
X033015Y026343D01*
X033124Y026234D01*
X033266Y026175D01*
X033420Y026175D01*
X033562Y026234D01*
X033671Y026343D01*
X033730Y026485D01*
X033730Y026639D01*
X033671Y026781D01*
X033562Y026890D01*
X033420Y026949D01*
X033266Y026949D01*
X033124Y026890D01*
X033015Y026781D01*
X032956Y026639D01*
X032956Y026485D01*
X032956Y026522D02*
X031230Y026522D01*
X031230Y026621D02*
X032956Y026621D01*
X032989Y026719D02*
X031197Y026719D01*
X031135Y026818D02*
X033051Y026818D01*
X033187Y026916D02*
X030999Y026916D01*
X030687Y026916D02*
X030082Y026916D01*
X030185Y026818D02*
X030551Y026818D01*
X030489Y026719D02*
X030241Y026719D01*
X030266Y026621D02*
X030456Y026621D01*
X030456Y026522D02*
X030269Y026522D01*
X030247Y026424D02*
X030481Y026424D01*
X030532Y026325D02*
X030199Y026325D01*
X030108Y026227D02*
X030640Y026227D01*
X031045Y026227D02*
X033140Y026227D01*
X033120Y025833D02*
X033566Y025833D01*
X033495Y025734D02*
X033191Y025734D01*
X033230Y025636D02*
X033456Y025636D01*
X033456Y025537D02*
X033230Y025537D01*
X033211Y025439D02*
X033475Y025439D01*
X033517Y025340D02*
X033169Y025340D01*
X033070Y025242D02*
X033616Y025242D01*
X034070Y025242D02*
X034616Y025242D01*
X034517Y025340D02*
X034169Y025340D01*
X034211Y025439D02*
X034475Y025439D01*
X034456Y025537D02*
X034230Y025537D01*
X034230Y025636D02*
X034456Y025636D01*
X034495Y025734D02*
X034191Y025734D01*
X034120Y025833D02*
X034566Y025833D01*
X034420Y026175D02*
X034562Y026234D01*
X034671Y026343D01*
X034730Y026485D01*
X034730Y026639D01*
X034671Y026781D01*
X034562Y026890D01*
X034420Y026949D01*
X034266Y026949D01*
X034124Y026890D01*
X034015Y026781D01*
X033956Y026639D01*
X033956Y026485D01*
X034015Y026343D01*
X034124Y026234D01*
X034266Y026175D01*
X034420Y026175D01*
X034545Y026227D02*
X035078Y026227D01*
X035065Y026236D02*
X035119Y026197D01*
X035179Y026166D01*
X035243Y026145D01*
X035304Y026136D01*
X035304Y026523D01*
X034917Y026523D01*
X034926Y026462D01*
X034947Y026398D01*
X034978Y026338D01*
X035017Y026284D01*
X035065Y026236D01*
X034987Y026325D02*
X034654Y026325D01*
X034705Y026424D02*
X034939Y026424D01*
X034917Y026522D02*
X034730Y026522D01*
X034730Y026621D02*
X034920Y026621D01*
X034945Y026719D02*
X034697Y026719D01*
X034635Y026818D02*
X035001Y026818D01*
X035104Y026916D02*
X034499Y026916D01*
X034187Y026916D02*
X033499Y026916D01*
X033635Y026818D02*
X034051Y026818D01*
X033989Y026719D02*
X033697Y026719D01*
X033730Y026621D02*
X033956Y026621D01*
X033956Y026522D02*
X033730Y026522D01*
X033705Y026424D02*
X033981Y026424D01*
X034032Y026325D02*
X033654Y026325D01*
X033545Y026227D02*
X034140Y026227D01*
X035120Y025833D02*
X035566Y025833D01*
X035495Y025734D02*
X035191Y025734D01*
X035230Y025636D02*
X035456Y025636D01*
X035456Y025537D02*
X035230Y025537D01*
X035211Y025439D02*
X035475Y025439D01*
X035517Y025340D02*
X035169Y025340D01*
X035070Y025242D02*
X035616Y025242D01*
X035400Y025109D02*
X035400Y026505D01*
X035343Y026562D01*
X035304Y026522D02*
X035381Y026522D01*
X035381Y026424D02*
X035304Y026424D01*
X035304Y026325D02*
X035381Y026325D01*
X035381Y026227D02*
X035304Y026227D01*
X035304Y026621D02*
X035381Y026621D01*
X035381Y026719D02*
X035304Y026719D01*
X035304Y026818D02*
X035381Y026818D01*
X035381Y026916D02*
X035304Y026916D01*
X035400Y025109D02*
X034900Y024609D01*
X031900Y020359D02*
X031650Y020359D01*
X030650Y019609D02*
X030400Y019609D01*
X015150Y019609D01*
X015776Y017559D02*
X012274Y017559D01*
X012279Y017165D02*
X015771Y017165D01*
X017650Y017859D02*
X017650Y015109D01*
X013150Y015109D01*
X001400Y015109D01*
X000300Y017165D02*
X012021Y017165D01*
X011922Y017263D02*
X000300Y017263D01*
X000300Y021893D02*
X009987Y021893D01*
X009908Y021991D02*
X000300Y021991D01*
X000300Y022090D02*
X009882Y022090D01*
X009802Y022188D02*
X000300Y022188D01*
X000300Y022287D02*
X009704Y022287D01*
X009605Y022385D02*
X000300Y022385D01*
X000300Y022484D02*
X009507Y022484D01*
X009408Y022582D02*
X000300Y022582D01*
X000300Y022681D02*
X009310Y022681D01*
X009211Y022779D02*
X000300Y022779D01*
X000300Y022878D02*
X009113Y022878D01*
X009014Y022976D02*
X000300Y022976D01*
X000300Y023075D02*
X008916Y023075D01*
X008817Y023173D02*
X000300Y023173D01*
X000300Y023272D02*
X008719Y023272D01*
X008620Y023370D02*
X000300Y023370D01*
X000300Y023469D02*
X008522Y023469D01*
X008423Y023567D02*
X000300Y023567D01*
X000300Y023666D02*
X008325Y023666D01*
X008226Y023764D02*
X000300Y023764D01*
X000300Y023863D02*
X008128Y023863D01*
X008029Y023961D02*
X004053Y023961D01*
X003847Y023961D02*
X000300Y023961D01*
X000300Y024060D02*
X003721Y024060D01*
X003682Y024158D02*
X000300Y024158D01*
X000300Y024257D02*
X003682Y024257D01*
X003720Y024355D02*
X000300Y024355D01*
X017650Y015109D02*
X026650Y015109D01*
X030900Y015109D01*
X031150Y015359D01*
X031150Y017859D01*
X030795Y019430D02*
X035505Y019430D01*
X028150Y010109D02*
X027650Y010109D01*
X006400Y003359D02*
X006400Y001859D01*
X004164Y002981D02*
X003616Y002981D01*
X003707Y003079D02*
X004073Y003079D01*
X004033Y003178D02*
X003748Y003178D01*
X003758Y003276D02*
X004023Y003276D01*
X004034Y003375D02*
X003746Y003375D01*
X003706Y003473D02*
X004075Y003473D01*
X004168Y003572D02*
X003613Y003572D01*
X003601Y003966D02*
X004179Y003966D01*
X004081Y004064D02*
X003700Y004064D01*
X003742Y004163D02*
X004039Y004163D01*
X004023Y004261D02*
X003758Y004261D01*
X003753Y004360D02*
X004028Y004360D01*
X004068Y004458D02*
X003712Y004458D01*
X003628Y004557D02*
X004153Y004557D01*
X003075Y003473D02*
X000300Y003473D01*
X000300Y003375D02*
X003034Y003375D01*
X003023Y003276D02*
X000300Y003276D01*
X000300Y003178D02*
X003033Y003178D01*
X003073Y003079D02*
X000300Y003079D01*
X000300Y002981D02*
X003164Y002981D01*
M02*
