G75*
G70*
%OFA0B0*%
%FSLAX24Y24*%
%IPPOS*%
%LPD*%
%AMOC8*
5,1,8,0,0,1.08239X$1,22.5*
%
%ADD10C,0.1300*%
%ADD11C,0.0670*%
%ADD12C,0.0594*%
%ADD13C,0.0555*%
%ADD14C,0.1740*%
D10*
X013457Y004653D03*
X023457Y004653D03*
X026843Y004653D03*
X036843Y004653D03*
X036843Y029062D03*
X026843Y029062D03*
D11*
X025780Y027861D03*
X037906Y027861D03*
X037906Y005853D03*
X025780Y005853D03*
X024520Y005853D03*
X012394Y005853D03*
D12*
X013957Y007153D03*
X014957Y007153D03*
X015957Y007153D03*
X016957Y007153D03*
X016457Y008153D03*
X017457Y008153D03*
X015457Y008153D03*
X014457Y008153D03*
X019457Y007153D03*
X020457Y007153D03*
X021457Y007153D03*
X022457Y007153D03*
X021957Y008153D03*
X022957Y008153D03*
X020957Y008153D03*
X019957Y008153D03*
X027343Y007153D03*
X028343Y007153D03*
X029343Y007153D03*
X030343Y007153D03*
X030843Y008153D03*
X029843Y008153D03*
X028843Y008153D03*
X027843Y008153D03*
X032843Y007153D03*
X033843Y007153D03*
X034843Y007153D03*
X035843Y007153D03*
X036343Y008153D03*
X035343Y008153D03*
X034343Y008153D03*
X033343Y008153D03*
X033843Y025562D03*
X034843Y025562D03*
X035843Y025562D03*
X036343Y026562D03*
X035343Y026562D03*
X034343Y026562D03*
X033343Y026562D03*
X032843Y025562D03*
X030843Y026562D03*
X029843Y026562D03*
X028843Y026562D03*
X027843Y026562D03*
X028343Y025562D03*
X029343Y025562D03*
X030343Y025562D03*
X027343Y025562D03*
D13*
X003390Y003275D03*
X003390Y004275D03*
X004390Y004275D03*
X004390Y003275D03*
D14*
X004678Y027999D03*
X002827Y029180D03*
X004678Y030361D03*
M02*
