G04 DipTrace 2.3.1.0*
%INuCANHub_Top.gtl*%
%MOIN*%
%ADD13C,0.024*%
%ADD14C,0.0236*%
%ADD15C,0.01*%
%ADD16C,0.025*%
%ADD17R,0.0394X0.0433*%
%ADD18R,0.0709X0.063*%
%ADD19R,0.0512X0.0591*%
%ADD20R,0.1378X0.063*%
%ADD21R,0.0591X0.0512*%
%ADD22R,0.0433X0.0394*%
%ADD23C,0.0591*%
%ADD25R,0.0256X0.0413*%
%ADD26R,0.0827X0.0551*%
%ADD28R,0.0236X0.0866*%
%ADD29R,0.0866X0.0236*%
%ADD30R,0.0846X0.0374*%
%ADD31R,0.0846X0.128*%
%ADD32R,0.0413X0.0256*%
%ADD33R,0.0236X0.0787*%
%ADD34R,0.126X0.0827*%
%ADD36R,0.0118X0.063*%
%ADD37R,0.063X0.0118*%
%ADD38O,0.1772X0.0866*%
%ADD39O,0.0866X0.1772*%
%ADD40R,0.05X0.025*%
%ADD41R,0.315X0.0866*%
%ADD42R,0.0276X0.0394*%
%ADD43R,0.0748X0.0551*%
%FSLAX44Y44*%
G04*
G70*
G90*
G75*
G01*
%LNTop*%
%LPD*%
X11437Y29943D2*
D13*
Y28687D1*
X10437Y27687D1*
X15937Y30687D2*
D14*
Y30110D1*
D13*
X15748Y29921D1*
X11417Y29134D2*
Y29923D1*
X11437Y29943D1*
X10437Y27687D2*
X11437Y26687D1*
X16687D1*
X17626D1*
X17687Y26626D1*
X16687Y27187D2*
Y26687D1*
X18687Y16312D2*
X19812D1*
X19937Y16187D1*
Y15250D1*
D14*
Y14736D1*
X32687Y16312D2*
D13*
X33687D1*
X33937Y16062D1*
Y15250D1*
D14*
Y14736D1*
X32687Y16312D2*
D13*
X22312D1*
X21562D2*
X19863D1*
X19937Y16187D1*
X18687Y16312D2*
X18187D1*
X17937Y16562D1*
Y20937D1*
Y23062D1*
X18062Y23187D1*
Y25687D2*
Y26251D1*
X17687Y26626D1*
X37897Y24487D2*
D14*
X38450D1*
D13*
X38907D1*
X38937Y24517D1*
X17937Y20937D2*
X33562D1*
X33812Y21187D1*
Y22937D1*
X36687Y24562D2*
X36762Y24487D1*
X37344D1*
D14*
X37897D1*
X14437Y30687D2*
X14269Y30855D1*
D13*
X13687Y31437D1*
X27508Y25329D2*
D15*
X26954D1*
X26562Y24937D1*
Y23937D1*
X28187Y20187D2*
X21687D1*
X20937Y19437D1*
Y18437D1*
X27508Y25132D2*
X27132D1*
X26937Y24937D1*
Y23937D1*
X28562Y19937D2*
X22937D1*
X22437Y19437D1*
Y18437D1*
X25362Y26687D2*
Y27512D1*
X25187Y27687D1*
X23312D1*
X20812Y25187D1*
X17687D1*
X7937Y24437D2*
Y24106D1*
Y24437D2*
Y24969D1*
X7843Y25063D1*
X25165Y26687D2*
Y27334D1*
X25062Y27437D1*
X23437D1*
X20937Y24937D1*
X17437D1*
X10937Y24437D2*
Y24106D1*
Y24437D2*
Y24969D1*
X10843Y25063D1*
X13843D2*
X13937D1*
Y24106D1*
X24969Y26687D2*
Y27187D1*
X23562D1*
X21062Y24687D1*
X17687D1*
X13937Y24437D2*
Y24106D1*
X16843Y25063D2*
X16937D1*
Y24106D1*
X24201Y25722D2*
X22472D1*
X21187Y24437D1*
X17187D1*
X16937Y24187D1*
Y24106D1*
X39437Y30437D2*
Y30937D1*
X39187Y31187D1*
X36437D1*
X36187Y30937D1*
Y28937D1*
X36687Y28437D1*
Y27187D1*
X37937Y29437D2*
Y29187D1*
X40062Y27062D1*
Y24312D1*
X39737Y23987D1*
X37897D1*
X24201Y25526D2*
X22651D1*
X21312Y24187D1*
X17687D1*
X7187Y23437D2*
Y22937D1*
X24201Y25526D2*
X24848D1*
X24937Y25437D1*
X35687Y24937D2*
Y25937D1*
X36187Y26437D1*
Y27187D1*
X24201Y24541D2*
X23416D1*
X22812Y23937D1*
X17437D1*
X10187Y23437D2*
Y22937D1*
X24201Y24541D2*
X24541D1*
X24562Y24562D1*
X25062D1*
X35187Y24687D2*
Y27187D1*
X24201Y24344D2*
X23594D1*
X22937Y23687D1*
X17687D1*
X13187Y23437D2*
Y22937D1*
X24201Y24344D2*
X24530D1*
X24562Y24312D1*
X24812D1*
X34687Y24437D2*
Y27187D1*
X24201Y24148D2*
X23773D1*
X23062Y23437D1*
X17437D1*
X16187D2*
Y22937D1*
X24201Y24148D2*
X24601D1*
X24687Y24062D1*
X25062D1*
X34187Y24187D2*
Y27187D1*
X34197Y22778D2*
Y20947D1*
X33937Y20687D1*
X20187D1*
X19437Y19937D1*
Y18437D1*
X35197Y22778D2*
Y20697D1*
X33937Y19437D1*
X23812D1*
X23437Y19062D1*
Y18437D1*
X33437D2*
Y18687D1*
X34062Y19312D1*
X35812D1*
X36187Y19687D1*
Y22768D1*
X36197Y22778D1*
X37437Y18437D2*
Y21937D1*
X37187Y22187D1*
Y22768D1*
X37197Y22778D1*
X10937Y34437D2*
D13*
X12152D1*
X12419Y34705D1*
X15437Y32813D2*
D14*
Y32299D1*
D13*
Y31961D1*
X15226Y31750D1*
X15937Y32813D2*
D14*
Y32461D1*
D13*
X15226Y31750D1*
X7437Y33799D2*
X6768D1*
X5587Y32618D1*
X10937Y34437D2*
X8075D1*
X7437Y33799D1*
X12419Y34705D2*
X15544D1*
X15687Y34562D1*
Y33939D1*
X15685Y33937D1*
X15437Y32813D2*
Y33689D1*
X15685Y33937D1*
X15937Y32813D2*
D14*
Y33327D1*
D13*
Y33685D1*
X15685Y33937D1*
X6813Y22071D2*
Y21687D1*
X9813Y22071D2*
Y21687D1*
X12813Y22071D2*
Y21687D1*
X15813Y22071D2*
X15812Y22070D1*
Y21687D1*
X7937Y23437D2*
X7687Y23187D1*
Y21687D1*
X6813D1*
X10937Y23437D2*
X10687Y23187D1*
Y21687D1*
X9813D1*
X13937Y23437D2*
X13687Y23187D1*
Y21687D1*
X12813D1*
X16937Y23437D2*
X16687Y23187D1*
Y21687D1*
X15812D1*
X17061Y11843D2*
Y12517D1*
X17062Y12518D1*
X23061Y11843D2*
Y12517D1*
X23062Y12518D1*
X31062D2*
Y11844D1*
X31061Y11843D1*
X37061D2*
Y12517D1*
X37062Y12518D1*
X8437Y28187D2*
Y27687D1*
X17687Y28437D2*
X20562D1*
X21062Y27937D1*
X17687Y28437D2*
X17268D1*
X16687Y27856D1*
X16231D1*
X16187Y27812D1*
X17061Y11843D2*
X16718D1*
X16687Y11812D1*
X23061Y11843D2*
X22718D1*
X22687Y11812D1*
X31061Y11843D2*
X30718D1*
X30687Y11812D1*
X37061Y11843D2*
X36718D1*
X36687Y11812D1*
X21437Y18437D2*
D14*
X21675D1*
D13*
X21699D1*
D14*
X21937D1*
X18687Y16981D2*
D13*
X21700D1*
X21937D1*
Y15250D1*
D14*
Y14736D1*
X21699Y18437D2*
D13*
X21700Y16981D1*
X22437Y14736D2*
D14*
X22199D1*
D13*
X22175D1*
D14*
X21937D1*
X21437D2*
X21675D1*
D13*
X21699D1*
D14*
X21937D1*
X35437Y18437D2*
X35675D1*
D13*
X35699D1*
D14*
X35937D1*
X35699D2*
D13*
Y16937D1*
X32731D1*
X32687Y16981D1*
X35937Y14736D2*
D14*
Y15250D1*
D13*
Y16937D1*
X35699D1*
X35437Y14736D2*
D14*
X35675D1*
D13*
X35699D1*
D14*
X35937D1*
X36437D2*
X36199D1*
D13*
X36175D1*
D14*
X35937D1*
X18687Y16981D2*
D13*
X18312D1*
X32687D2*
X32312D1*
X38937Y25187D2*
Y26062D1*
X33487Y25477D2*
D14*
X33022D1*
D13*
X32812Y25687D1*
X24062Y22437D2*
X23687D1*
X27562Y21768D2*
X27893D1*
X27937Y21812D1*
X24201Y25329D2*
D15*
X23034D1*
X22728Y25022D1*
X25559Y23380D2*
X25562D1*
Y24937D1*
X22728Y25022D2*
D13*
Y24687D1*
X21937Y11937D2*
D15*
Y12812D1*
X22312Y13187D1*
X23062D1*
X24187Y11937D2*
Y12812D1*
X23812Y13187D1*
X23062D1*
X15937Y11937D2*
Y12687D1*
X16437Y13187D1*
X17062D1*
X18187Y11937D2*
Y12812D1*
X17812Y13187D1*
X17062D1*
X23437Y9937D2*
Y10935D1*
X23435Y10937D1*
X23856D1*
X24187Y11268D1*
X24393D1*
X24562Y11437D1*
Y15312D1*
X24437Y15437D1*
X23062D1*
X22937Y15312D1*
Y14736D1*
Y8937D2*
Y10687D1*
X22687Y10937D1*
X22268D1*
X21937Y11268D1*
X21731D1*
X21562Y11437D1*
Y13562D1*
X21687Y13687D1*
X23312D1*
X23437Y13812D1*
Y14736D1*
X17437Y9937D2*
Y10935D1*
X17435Y10937D1*
X17856D1*
X18187Y11268D1*
X20768D1*
X20937Y11437D1*
Y14736D1*
X16937Y8937D2*
Y10687D1*
X16687Y10937D1*
X16268D1*
X15937Y11268D1*
X15731D1*
X15562Y11437D1*
Y13562D1*
X15687Y13687D1*
X20312D1*
X20437Y13812D1*
Y14736D1*
X38187Y11937D2*
Y12812D1*
X37812Y13187D1*
X37062D1*
X35937Y11937D2*
Y12812D1*
X36312Y13187D1*
X37062D1*
X32187Y11812D2*
Y12812D1*
X31812Y13187D1*
X31062D1*
X29937Y11812D2*
Y12812D1*
X30312Y13187D1*
X31062D1*
X37437Y9937D2*
X37435Y9939D1*
Y10937D1*
X37856D1*
X38187Y11268D1*
X38393D1*
X38562Y11437D1*
Y15312D1*
X38437Y15437D1*
X37062D1*
X36937Y15312D1*
Y14736D1*
Y8937D2*
Y10687D1*
X36687Y10937D1*
X36268D1*
X35937Y11268D1*
X35731D1*
X35562Y11437D1*
Y13562D1*
X35687Y13687D1*
X37312D1*
X37437Y13812D1*
Y14736D1*
X31437Y9937D2*
Y10935D1*
X31435Y10937D1*
X31981D1*
X32187Y11143D1*
X34768D1*
X34937Y11312D1*
Y14736D1*
X30937Y8937D2*
Y10687D1*
X30687Y10937D1*
X30143D1*
X29937Y11143D1*
X29731D1*
X29562Y11312D1*
Y13562D1*
X29687Y13687D1*
X34312D1*
X34437Y13812D1*
Y14736D1*
X8937Y23437D2*
X8939D1*
X9439Y22937D1*
Y22685D1*
X9562Y22562D1*
X10062D1*
X10187Y22437D1*
Y22071D1*
X11937Y23437D2*
X11939D1*
X12439Y22937D1*
Y22685D1*
X12562Y22562D1*
X13062D1*
X13187Y22437D1*
Y22071D1*
X14937Y23437D2*
X14939D1*
X15439Y22937D1*
Y22685D1*
X15562Y22562D1*
X16062D1*
X16187Y22437D1*
Y22071D1*
X5937Y23437D2*
X5939D1*
X6439Y22937D1*
Y22685D1*
X6562Y22562D1*
X7062D1*
X7187Y22437D1*
Y22071D1*
X25953Y23380D2*
Y22796D1*
X26187Y22562D1*
X26687D1*
X27437D1*
X27562Y22437D1*
X25756Y23380D2*
Y22419D1*
X24955Y21617D1*
X24212D1*
X24062Y21767D1*
X37897Y25487D2*
X37112D1*
X36812Y25187D1*
X28312D2*
X28062Y24937D1*
X27510D1*
X27508Y24935D1*
Y25526D2*
X27973D1*
X28062Y25437D1*
X31937D2*
Y24562D1*
X32062Y24437D1*
X33447D1*
X33487Y24477D1*
X15687Y19652D2*
D13*
X14222Y18187D1*
X9687D1*
X8187Y16687D1*
Y7437D1*
X18937D1*
Y8937D1*
X18437Y9937D2*
X18937Y9437D1*
Y8937D1*
X12687Y19652D2*
X11722Y18687D1*
X9187D1*
X7687Y17187D1*
Y5437D1*
X24937D1*
Y8937D1*
X24437Y9937D2*
X24937Y9437D1*
Y8937D1*
X9687Y19652D2*
X9222Y19187D1*
X8687D1*
X7187Y17687D1*
Y4937D1*
X32937D1*
Y8937D1*
X32437Y9937D2*
X32937Y9437D1*
Y8937D1*
X6687Y19652D2*
Y4437D1*
X38937D1*
Y8937D1*
X38437Y9937D2*
X38937Y9437D1*
Y8937D1*
X5937Y24768D2*
X6858D1*
X6937Y24689D1*
X5937Y24768D2*
Y24106D1*
X6813Y22937D2*
Y23811D1*
X6687Y23937D1*
X6106D1*
X5937Y24106D1*
X6439Y22071D2*
Y21867D1*
Y21435D1*
X6687Y21187D1*
X5437Y21867D2*
X6439D1*
X9937Y24689D2*
X9016D1*
X8937Y24768D1*
Y24106D1*
X9813Y22937D2*
Y23811D1*
X9687Y23937D1*
X9106D1*
X8937Y24106D1*
X9687Y21187D2*
X9439Y21435D1*
Y21867D1*
Y22071D1*
X8437Y21867D2*
X9439D1*
X12937Y24689D2*
X12016D1*
X11937Y24768D1*
Y24106D1*
X12813Y22937D2*
Y23811D1*
X12687Y23937D1*
X12106D1*
X11937Y24106D1*
X12687Y21187D2*
X12439Y21435D1*
Y21867D1*
Y22071D1*
X11437Y21867D2*
X12439D1*
X15937Y24689D2*
X15016D1*
X14937Y24768D1*
Y24106D1*
X15813Y22937D2*
Y23811D1*
X15687Y23937D1*
X15106D1*
X14937Y24106D1*
X15687Y21187D2*
X15439Y21435D1*
Y21867D1*
Y22071D1*
X14437Y21867D2*
X15439D1*
X37897Y26487D2*
D15*
X36862D1*
X36062Y25687D1*
Y23687D1*
X35812Y23437D1*
X34562D1*
X34437Y23312D1*
Y20687D1*
X34187Y20437D1*
X20312D1*
X19937Y20062D1*
Y18437D1*
X33937D2*
Y18812D1*
X34187Y19062D1*
X36062D1*
X36437Y19437D1*
Y25687D1*
X36687Y25937D1*
X37846D1*
X37897Y25987D1*
X38937Y29437D2*
Y30687D1*
X38687Y30937D1*
X36687D1*
X36437Y30687D1*
Y29187D1*
X37187Y28437D1*
Y27187D1*
X32437Y30437D2*
Y26687D1*
X32687Y26437D1*
X33528D1*
X33487Y26477D1*
X39937Y29437D2*
Y30812D1*
X39312Y31437D1*
X36312D1*
X35937Y31062D1*
Y29687D1*
X35687Y29437D1*
X33937D1*
Y31062D1*
X33562Y31437D1*
X29187D1*
X29062Y31312D1*
X27508Y24344D2*
X28344D1*
X28812Y24812D1*
Y31062D1*
X29062Y31312D1*
X40437Y30437D2*
Y30687D1*
X39437Y31687D1*
X36187D1*
X35687Y31187D1*
Y30687D1*
X35437Y30437D1*
X34437D1*
Y31062D1*
X33812Y31687D1*
X29687D1*
X29437Y31937D1*
Y32312D1*
X29312Y32437D1*
X27812D1*
X27687Y32312D1*
Y31687D1*
X28062Y31312D1*
X27508Y24541D2*
X28166D1*
X28562Y24937D1*
Y30812D1*
X28062Y31312D1*
X11437Y32187D2*
D13*
X13685D1*
X13687Y32185D1*
X14437Y32813D2*
D14*
X14315D1*
D13*
X13687Y32185D1*
X12419Y33169D2*
X11437Y32187D1*
X34697Y22778D2*
D15*
Y20572D1*
X33812Y19687D1*
X23312D1*
X22937Y19312D1*
Y18437D1*
X36937D2*
Y21937D1*
X36687Y22187D1*
Y22768D1*
X36697Y22778D1*
X38437Y30437D2*
Y29187D1*
X40437Y27187D1*
Y23812D1*
X40062Y23437D1*
X37846D1*
X37897Y23487D1*
X32937Y29437D2*
Y30687D1*
X32687Y30937D1*
X30687D1*
X30437Y30687D1*
Y29187D1*
X30687Y28937D1*
X31437D1*
X31687Y28687D1*
Y24187D1*
X31937Y23937D1*
X33528D1*
X33487Y23977D1*
X31937Y29437D2*
Y26187D1*
X32187Y25937D1*
X33528D1*
X33487Y25977D1*
X33437Y30437D2*
Y30937D1*
X33187Y31187D1*
X30437D1*
X30187Y30937D1*
Y28937D1*
X30437Y28687D1*
X31187D1*
X31437Y28437D1*
Y23687D1*
X31687Y23437D1*
X33528D1*
X33487Y23477D1*
X10937Y33335D2*
D13*
X9335D1*
X7437Y31437D1*
X14937Y33937D2*
X11539D1*
X10937Y33335D1*
X14937Y32813D2*
D14*
Y33327D1*
D13*
Y33937D1*
X5937Y25437D2*
X6937D1*
X5437Y22187D2*
Y25187D1*
X5687Y25437D1*
X5937D1*
X8437Y22187D2*
Y25187D1*
X8687Y25437D1*
X8937D1*
X11437Y22187D2*
Y25187D1*
X11687Y25437D1*
X11937D1*
X14437Y22187D2*
Y25187D1*
X14687Y25437D1*
X14937D1*
X9937D2*
X8937D1*
X12937D2*
X11937D1*
X15937D2*
X14937D1*
X7437Y31437D2*
Y30106D1*
Y25937D1*
X5937D1*
Y25437D1*
X14937D2*
Y25937D1*
X11937D1*
X8937D1*
X7437D1*
X11937Y25437D2*
Y25937D1*
X8437Y30106D2*
X7437D1*
X8937Y25437D2*
Y25937D1*
X17687Y27531D2*
X19970D1*
X21062Y27267D2*
X20235D1*
X19970Y27531D1*
X24201Y24738D2*
D15*
X23680D1*
X23397Y25022D1*
X24201Y24738D2*
X24738D1*
X25187Y25187D1*
X25687D1*
X26150Y24724D1*
Y23380D1*
X23397Y25022D2*
D13*
Y24897D1*
X22812Y24312D1*
X22187D1*
X21062Y26687D2*
Y27267D1*
X29062Y31981D2*
X28521D1*
X28062D1*
X28521D2*
Y31728D1*
X28562Y31687D1*
X27312D2*
X25482D1*
X21062Y27267D1*
X8437Y29437D2*
D15*
Y28856D1*
X25559Y26687D2*
Y27690D1*
X25312Y27937D1*
X23187D1*
X20687Y25437D1*
X17437D1*
X16687Y26187D1*
X9187D1*
X8937Y26437D1*
Y28687D1*
X8768Y28856D1*
X8437D1*
D14*
X15748Y29921D3*
X11417Y29134D3*
X22312Y16312D3*
X21562D3*
X18062Y23187D3*
Y25687D3*
X33812Y22937D3*
X36687Y24562D3*
X26562Y23937D3*
X28187Y20187D3*
X26937Y23937D3*
X28562Y19937D3*
X17687Y25187D3*
X7937Y24437D3*
D3*
X17437Y24937D3*
X10937Y24437D3*
D3*
X17687Y24687D3*
X13937Y24437D3*
X17687Y24187D3*
X7187Y23437D3*
X24937Y25437D3*
X35687Y24937D3*
X17437Y23937D3*
X10187Y23437D3*
X25062Y24562D3*
X35187Y24687D3*
X17687Y23687D3*
X13187Y23437D3*
X24812Y24312D3*
X34687Y24437D3*
X17437Y23437D3*
X16187D3*
X25062Y24062D3*
X34187Y24187D3*
X6813Y21687D3*
X9813D3*
X6813D3*
X12813D3*
X9813D3*
X15812D3*
X12813D3*
X8437Y27687D3*
X16187Y27812D3*
X8437Y27687D3*
X16687Y11812D3*
X22687D3*
X16687D3*
X30687D3*
X22687D3*
X36687D3*
X30687D3*
X18312Y16981D3*
X32312D3*
X38937Y26062D3*
X16187Y27812D3*
X32812Y25687D3*
X23687Y22437D3*
X27937Y21812D3*
X23687Y22437D3*
X25562Y24937D3*
X22728Y24687D3*
X36812Y25187D3*
X28312D3*
X28062Y25437D3*
X31937D3*
X22187Y24312D3*
X21062Y26687D3*
X28562Y31687D3*
X27312D3*
X11960Y33188D2*
D16*
X14537D1*
X11960Y32940D2*
X14537D1*
X11866Y32691D2*
X14537D1*
X9962Y32442D2*
X14537D1*
X9962Y32194D2*
X14336D1*
X9962Y31945D2*
X14117D1*
X14486Y32398D2*
X14561D1*
X14562Y33410D1*
X14446Y33407D1*
Y33434D1*
X13937Y33437D1*
X11937D1*
Y32812D1*
X11876Y32707D1*
X11812Y32687D1*
X9937D1*
Y31937D1*
X14136D1*
X14361Y32163D1*
Y32398D1*
X14486D1*
X9599Y29941D2*
X12844D1*
X9599Y29693D2*
X12844D1*
X9599Y29444D2*
X12844D1*
X9599Y29195D2*
X12844D1*
X9599Y28947D2*
X12844D1*
X9599Y28698D2*
X12844D1*
X9599Y28449D2*
X12844D1*
X9599Y28200D2*
X11691D1*
X9599Y27952D2*
X11691D1*
X9599Y27703D2*
X11691D1*
X9599Y27454D2*
X11691D1*
X9599Y27206D2*
X11648D1*
X9599Y26957D2*
X11402D1*
X9599Y26708D2*
X11152D1*
X11843Y28237D2*
X12706D1*
X12866Y28397D1*
X12867Y30190D1*
X9574D1*
Y26503D1*
X10970D1*
X11717Y27248D1*
X11718Y28237D1*
X11843D1*
X9599Y34666D2*
X16387D1*
X9599Y34417D2*
X14422D1*
X15452D2*
X16387D1*
X9599Y34168D2*
X11242D1*
X15452D2*
X16387D1*
X9599Y33920D2*
X10996D1*
X15452D2*
X16387D1*
X15452Y33671D2*
X16387D1*
X15452Y33422D2*
X16387D1*
X15316Y33174D2*
X16387D1*
X15316Y32925D2*
X16387D1*
X15316Y32676D2*
X16387D1*
X15316Y32427D2*
X16387D1*
X14905Y32179D2*
X16387D1*
X14663Y31930D2*
X16387D1*
X14413Y31681D2*
X16387D1*
X9599Y31433D2*
X13133D1*
X14241D2*
X16387D1*
X9599Y31184D2*
X13133D1*
X9599Y30935D2*
X13660D1*
X9599Y30687D2*
X13910D1*
X13273Y30438D2*
X14059D1*
X13273Y30189D2*
X14059D1*
X13273Y29941D2*
X15367D1*
X13273Y29692D2*
X15453D1*
X16046D2*
X16387D1*
X13273Y29443D2*
X16387D1*
X13253Y29195D2*
X16387D1*
X13253Y28946D2*
X16387D1*
X13253Y28697D2*
X14023D1*
X13253Y28448D2*
X14023D1*
X13202Y28200D2*
X14023D1*
X12952Y27951D2*
X14023D1*
X12706Y27702D2*
X14023D1*
X12456Y27454D2*
X14023D1*
X12206Y27205D2*
X14023D1*
X14307Y31316D2*
X14790Y31312D1*
X15209Y31316D1*
X15290Y31312D1*
X15709Y31316D1*
X15790Y31312D1*
X16209Y31316D1*
X16290D1*
Y30058D1*
X16270Y29987D1*
X16232Y29912D1*
X16100Y29771D1*
X15999Y29670D1*
X15897Y29599D1*
X15777Y29567D1*
X15653Y29579D1*
X15541Y29633D1*
X15454Y29722D1*
X15404Y29836D1*
X15398Y29971D1*
X15415Y30058D1*
X15084Y30062D1*
X14665Y30058D1*
X14584Y30062D1*
X14165Y30058D1*
X14084D1*
Y30539D1*
X13678Y30944D1*
X13157Y30946D1*
Y31520D1*
X9627Y31519D1*
Y31663D1*
X9607Y31698D1*
X9577Y31812D1*
Y32812D1*
X9615Y32939D1*
X9574Y32914D1*
Y30550D1*
X9625D1*
X9627Y30611D1*
X13247D1*
Y29275D1*
X13227D1*
Y28346D1*
X13192Y28225D1*
X13070Y28092D1*
X12018Y27040D1*
X13312Y27042D1*
X14050D1*
X14048Y28740D1*
X14109Y28846D1*
X14173Y28865D1*
X16410D1*
Y34914D1*
X9574D1*
Y33692D1*
X10346Y33690D1*
X10348Y33885D1*
X10984D1*
X11288Y34188D1*
X11390Y34259D1*
X11539Y34292D1*
X14450D1*
X14446Y34467D1*
X15428D1*
Y33407D1*
X15291D1*
X15290Y32184D1*
X14888D1*
X14353Y31646D1*
X14242Y31585D1*
X14217Y31553D1*
Y31408D1*
X14311Y31315D1*
D17*
X23062Y13187D3*
Y12518D3*
X17062Y13187D3*
Y12518D3*
X37062Y13187D3*
Y12518D3*
X31062Y13187D3*
Y12518D3*
X18687Y16312D3*
Y16981D3*
X32687Y16312D3*
Y16981D3*
D18*
X10937Y33335D3*
Y34437D3*
D19*
X14937Y33937D3*
X15685D3*
D20*
X10437Y27687D3*
X12642D3*
D21*
X13687Y31437D3*
Y32185D3*
D17*
X16687Y27187D3*
Y27856D3*
X21062Y27267D3*
Y27937D3*
X27562Y22437D3*
Y21768D3*
X24062Y21767D3*
Y22437D3*
D22*
X23397Y25022D3*
X22728D3*
D17*
X38937Y24517D3*
Y25187D3*
D23*
X36937Y8937D3*
X37437Y9937D3*
X37937Y8937D3*
X38437Y9937D3*
X38937Y8937D3*
X39437Y9937D3*
X39937Y8937D3*
X40437Y9937D3*
X30937Y8937D3*
X31437Y9937D3*
X31937Y8937D3*
X32437Y9937D3*
X32937Y8937D3*
X33437Y9937D3*
X33937Y8937D3*
X34437Y9937D3*
X22937Y8937D3*
X23437Y9937D3*
X23937Y8937D3*
X24437Y9937D3*
X24937Y8937D3*
X25437Y9937D3*
X25937Y8937D3*
X26437Y9937D3*
X16937Y8937D3*
X17437Y9937D3*
X17937Y8937D3*
X18437Y9937D3*
X18937Y8937D3*
X19437Y9937D3*
X19937Y8937D3*
X20437Y9937D3*
X34437Y30437D3*
X33937Y29437D3*
X33437Y30437D3*
X32937Y29437D3*
X32437Y30437D3*
X31937Y29437D3*
X31437Y30437D3*
X30937Y29437D3*
X40437Y30437D3*
X39937Y29437D3*
X39437Y30437D3*
X38937Y29437D3*
X38437Y30437D3*
X37937Y29437D3*
X37437Y30437D3*
X36937Y29437D3*
D25*
X22687Y10937D3*
X23435D3*
X23061Y11843D3*
X16687Y10937D3*
X17435D3*
X17061Y11843D3*
X36687Y10937D3*
X37435D3*
X37061Y11843D3*
X30687Y10937D3*
X31435D3*
X31061Y11843D3*
D26*
X12419Y34705D3*
Y33169D3*
X6687Y21187D3*
Y19652D3*
X9687Y21187D3*
Y19652D3*
X12687Y21187D3*
Y19652D3*
X15687Y21187D3*
Y19652D3*
D28*
X37187Y27187D3*
X36687D3*
X36187D3*
X35687D3*
X35187D3*
X34687D3*
X34187D3*
D29*
X33487Y26477D3*
Y25977D3*
Y25477D3*
Y24977D3*
Y24477D3*
Y23977D3*
Y23477D3*
D28*
X34197Y22778D3*
X34697D3*
X35197D3*
X35697D3*
X36197D3*
X36697D3*
X37197D3*
D29*
X37897Y23487D3*
Y23987D3*
Y24487D3*
Y24987D3*
Y25487D3*
Y25987D3*
Y26487D3*
D30*
X17687Y28437D3*
Y27531D3*
Y26626D3*
D31*
X19970Y27531D3*
D32*
X6937Y25437D3*
Y24689D3*
X7843Y25063D3*
X9937Y25437D3*
Y24689D3*
X10843Y25063D3*
X12937Y25437D3*
Y24689D3*
X13843Y25063D3*
X15937Y25437D3*
Y24689D3*
X16843Y25063D3*
D33*
X14437Y30687D3*
X14937D3*
X15437D3*
X15937D3*
Y32813D3*
X15437D3*
X14937D3*
X14437D3*
D34*
X15226Y31750D3*
D33*
X23937Y18437D3*
X23437D3*
X22937D3*
X22437D3*
X21937D3*
X21437D3*
X20937D3*
X20437D3*
X19937D3*
X19437D3*
Y14736D3*
X19937D3*
X20437D3*
X20937D3*
X21437D3*
X21937D3*
X22437D3*
X22937D3*
X23437D3*
X23937D3*
D36*
X24772Y23380D3*
X24969D3*
X25165D3*
X25362D3*
X25559D3*
X25756D3*
X25953D3*
X26150D3*
X26346D3*
X26543D3*
X26740D3*
X26937D3*
D37*
X27508Y23951D3*
Y24148D3*
Y24344D3*
Y24541D3*
Y24738D3*
Y24935D3*
Y25132D3*
Y25329D3*
Y25526D3*
Y25722D3*
Y25919D3*
Y26116D3*
D36*
X26937Y26687D3*
X26740D3*
X26543D3*
X26346D3*
X26150D3*
X25953D3*
X25756D3*
X25559D3*
X25362D3*
X25165D3*
X24969D3*
X24772D3*
D37*
X24201Y26116D3*
Y25919D3*
Y25722D3*
Y25526D3*
Y25329D3*
Y25132D3*
Y24935D3*
Y24738D3*
Y24541D3*
Y24344D3*
Y24148D3*
Y23951D3*
D33*
X37937Y18437D3*
X37437D3*
X36937D3*
X36437D3*
X35937D3*
X35437D3*
X34937D3*
X34437D3*
X33937D3*
X33437D3*
Y14736D3*
X33937D3*
X34437D3*
X34937D3*
X35437D3*
X35937D3*
X36437D3*
X36937D3*
X37437D3*
X37937D3*
D38*
X7437Y31437D3*
Y33799D3*
D39*
X5587Y32618D3*
D40*
X5437Y22187D3*
Y21867D3*
X8437Y22187D3*
Y21867D3*
X11437Y22187D3*
Y21867D3*
X14437Y22187D3*
Y21867D3*
D41*
X11437Y32187D3*
Y29943D3*
D42*
X7187Y22937D3*
X6813D3*
X6439D3*
Y22071D3*
X6813D3*
X7187D3*
X10187Y22937D3*
X9813D3*
X9439D3*
Y22071D3*
X9813D3*
X10187D3*
X13187Y22937D3*
X12813D3*
X12439D3*
Y22071D3*
X12813D3*
X13187D3*
X16187Y22937D3*
X15813D3*
X15439D3*
Y22071D3*
X15813D3*
X16187D3*
D17*
X24187Y11937D3*
Y11268D3*
X21937Y11937D3*
Y11268D3*
X18187Y11937D3*
Y11268D3*
X15937Y11937D3*
Y11268D3*
X38187Y11937D3*
Y11268D3*
X35937Y11937D3*
Y11268D3*
X32187Y11812D3*
Y11143D3*
X29937Y11812D3*
Y11143D3*
X5937Y25437D3*
Y24768D3*
X8937Y25437D3*
Y24768D3*
X11937Y25437D3*
Y24768D3*
X14937Y25437D3*
Y24768D3*
X7937Y23437D3*
Y24106D3*
X10937Y23437D3*
Y24106D3*
X13937Y23437D3*
Y24106D3*
X16937Y23437D3*
Y24106D3*
X5937Y23437D3*
Y24106D3*
X8937Y23437D3*
Y24106D3*
X11937Y23437D3*
Y24106D3*
X14937Y23437D3*
Y24106D3*
X8437Y29437D3*
Y30106D3*
Y28187D3*
Y28856D3*
X29062Y31312D3*
Y31981D3*
X28062Y31312D3*
Y31981D3*
D43*
X24955Y21617D3*
X26687D3*
Y22562D3*
X24955D3*
M02*
