M48
INCH
T01C0.0118
T02C0.0299
T03C0.0394
T04C0.128
%
T01
X+015748Y+029921
X+016187Y+027812
X+018062Y+025687
X+017687Y+025187
X+017437Y+024937
X+017687Y+024687
X+017687Y+024187
X+017437Y+023937
X+017687Y+023687
X+017437Y+023437
X+018062Y+023187
X+016187Y+023437
X+015812Y+021687
X+012813Y+021687
X+013187Y+023437
X+013937Y+024437
X+010937Y+024437
X+010187Y+023437
X+009813Y+021687
X+006813Y+021687
X+007187Y+023437
X+007937Y+024437
X+008437Y+027687
X+011417Y+029134
X+021062Y+026687
X+022728Y+024687
X+022187Y+024312
X+023687Y+022437
X+025062Y+024062
X+024812Y+024312
X+025062Y+024562
X+025562Y+024937
X+024937Y+025437
X+026562Y+023937
X+026937Y+023937
X+028312Y+025187
X+028062Y+025437
X+027937Y+021812
X+028187Y+020187
X+028562Y+019937
X+032312Y+016981
X+030687Y+011812
X+036687Y+011812
X+033812Y+022937
X+034187Y+024187
X+034687Y+024437
X+035187Y+024687
X+035687Y+024937
X+036687Y+024562
X+036812Y+025187
X+038937Y+026062
X+032812Y+025687
X+031937Y+025437
X+028562Y+031687
X+027312Y+031687
X+022312Y+016312
X+021562Y+016312
X+018312Y+016981
X+016687Y+011812
X+022687Y+011812
T02
X+036937Y+008937
X+037937Y+008937
X+038937Y+008937
X+039937Y+008937
X+039437Y+009937
X+038437Y+009937
X+037437Y+009937
X+040437Y+009937
X+034437Y+009937
X+033437Y+009937
X+032437Y+009937
X+031437Y+009937
X+031937Y+008937
X+032937Y+008937
X+033937Y+008937
X+030937Y+008937
X+026437Y+009937
X+025437Y+009937
X+024437Y+009937
X+023437Y+009937
X+023937Y+008937
X+024937Y+008937
X+025937Y+008937
X+022937Y+008937
X+020437Y+009937
X+019437Y+009937
X+018437Y+009937
X+017437Y+009937
X+017937Y+008937
X+018937Y+008937
X+019937Y+008937
X+016937Y+008937
X+030937Y+029437
X+031937Y+029437
X+032937Y+029437
X+033937Y+029437
X+033437Y+030437
X+032437Y+030437
X+031437Y+030437
X+034437Y+030437
X+036937Y+029437
X+037937Y+029437
X+038937Y+029437
X+039937Y+029437
X+039437Y+030437
X+038437Y+030437
X+037437Y+030437
X+040437Y+030437
T03
X+007929Y+031437G85X+006945Y+031437
X+005587Y+032224G85X+005587Y+033012
X+007831Y+033799G85X+007043Y+033799
T04
X+036437Y+006437
X+034937Y+006437
X+030437Y+006437
X+026937Y+006437
X+022437Y+006437
X+020937Y+006437
X+016437Y+006437
X+040937Y+006437
X+040937Y+032937
X+036437Y+032937
X+034937Y+032937
X+030437Y+032937
T00
M30
