G04 DipTrace 2.3.1.0*
%INuCANHub_TopSilk.gto*%
%MOIN*%
%ADD10C,0.0098*%
%ADD14C,0.0236*%
%ADD24C,0.0154*%
%ADD27C,0.0197*%
%ADD35C,0.0157*%
%ADD98C,0.0077*%
%FSLAX44Y44*%
G04*
G70*
G90*
G75*
G01*
%LNTopSilk*%
%LPD*%
X22905Y13561D2*
D10*
X23219D1*
X16905D2*
X17219D1*
X36905D2*
X37219D1*
X30905D2*
X31219D1*
X18844Y15938D2*
X18530D1*
X32844D2*
X32530D1*
X11252Y33843D2*
X10622D1*
X11252Y33768D2*
X10622D1*
X11252D2*
Y34004D1*
X10622Y33768D2*
Y34004D1*
X14523Y33681D2*
Y34193D1*
X12838Y28986D2*
Y28120D1*
Y28986D2*
X10673D1*
X10240Y28553D2*
X10673Y28986D1*
X10240Y28553D2*
Y28120D1*
X12838Y27254D2*
Y26388D1*
X10673D1*
X10240Y26821D2*
X10673Y26388D1*
X10240Y27254D2*
Y26821D1*
D14*
X10004Y28199D3*
X13943Y31023D2*
D10*
X13431D1*
X16844Y26813D2*
X16530D1*
X21219Y26894D2*
X20905D1*
X27405Y22811D2*
X27719D1*
X24219Y21394D2*
X23905D1*
X23770Y25179D2*
Y24864D1*
X39094Y24144D2*
X38780D1*
X35687Y10437D2*
X41687D1*
Y3312D1*
X35687D1*
Y10437D1*
X29687D2*
X35687D1*
Y3312D1*
X29687D1*
Y10437D1*
X21687D2*
X27687D1*
Y3312D1*
X21687D1*
Y10437D1*
X15687D2*
X21687D1*
Y3312D1*
X15687D1*
Y10437D1*
X35687Y28937D2*
X29687D1*
Y36062D1*
X35687D1*
Y28937D1*
X41687D2*
X35687D1*
Y36062D1*
X41687D1*
Y28937D1*
D24*
X22379Y10790D3*
X22471Y11291D2*
D10*
X23652D1*
Y11488D1*
X22471D1*
Y11291D1*
D24*
X16379Y10790D3*
X16471Y11291D2*
D10*
X17652D1*
Y11488D1*
X16471D1*
Y11291D1*
D24*
X36379Y10790D3*
X36471Y11291D2*
D10*
X37652D1*
Y11488D1*
X36471D1*
Y11291D1*
D24*
X30379Y10790D3*
X30471Y11291D2*
D10*
X31652D1*
Y11488D1*
X30471D1*
Y11291D1*
X12990Y34803D2*
Y33071D1*
X11848Y34803D2*
Y33071D1*
D14*
X12419Y35197D3*
X7258Y21285D2*
D10*
Y19553D1*
X6116Y21285D2*
Y19553D1*
D14*
X6687Y21679D3*
X10258Y21285D2*
D10*
Y19553D1*
X9116Y21285D2*
Y19553D1*
D14*
X9687Y21679D3*
X13258Y21285D2*
D10*
Y19553D1*
X12116Y21285D2*
Y19553D1*
D14*
X12687Y21679D3*
X16258Y21285D2*
D10*
Y19553D1*
X15116Y21285D2*
Y19553D1*
D14*
X15687Y21679D3*
D27*
X38516Y24985D3*
X37503Y27345D2*
D10*
X38054Y26793D1*
X38133Y23171D2*
Y22541D1*
X37503D1*
X33881D2*
X33251D1*
Y23171D1*
X33881Y27423D2*
X33251D1*
Y26793D1*
D24*
X17385Y28820D3*
X18278Y28831D2*
D10*
Y26232D1*
X19380Y28831D2*
Y26232D1*
X18278D2*
X19380D1*
X18278Y28831D2*
X19380D1*
D24*
X6790Y25745D3*
X7291Y25653D2*
D10*
Y24472D1*
X7488D1*
Y25653D1*
X7291D1*
D24*
X9790Y25745D3*
X10291Y25653D2*
D10*
Y24472D1*
X10488D1*
Y25653D1*
X10291D1*
D24*
X12790Y25745D3*
X13291Y25653D2*
D10*
Y24472D1*
X13488D1*
Y25653D1*
X13291D1*
D24*
X15790Y25745D3*
X16291Y25653D2*
D10*
Y24472D1*
X16488D1*
Y25653D1*
X16291D1*
X14203Y31238D2*
X16171D1*
X14203Y32262D2*
X16171D1*
Y31238D2*
Y32262D1*
X14203Y31553D2*
Y31238D1*
Y31947D2*
Y32262D1*
Y31553D2*
G03X14203Y31947I0J197D01*
G01*
X24206Y17866D2*
X19168D1*
X24206Y15347D2*
X19168D1*
Y17866D2*
Y15347D1*
X24206Y17866D2*
Y16921D1*
Y16291D2*
Y15347D1*
Y16921D2*
G03X24206Y16291I1J-315D01*
G01*
X24673Y23852D2*
X27035D1*
Y26215D1*
X24673D1*
Y23852D1*
G36*
D2*
X24988D1*
X24673Y24167D1*
Y23852D1*
G37*
D35*
X24496Y23380D3*
X38206Y17866D2*
D10*
X33168D1*
X38206Y15347D2*
X33168D1*
Y17866D2*
Y15347D1*
X38206Y17866D2*
Y16921D1*
Y16291D2*
Y15347D1*
Y16921D2*
G03X38206Y16291I1J-315D01*
G01*
X5665Y33720D2*
Y36831D1*
X9209D1*
Y36791D1*
Y36831D2*
Y31161D1*
X8421D1*
X6374D2*
X5665D1*
Y31595D1*
X5812Y22402D2*
X5062D1*
Y21652D1*
X5812D1*
Y22402D1*
X8812D2*
X8062D1*
Y21652D1*
X8812D1*
Y22402D1*
X11812D2*
X11062D1*
Y21652D1*
X11812D1*
Y22402D1*
X14812D2*
X14062D1*
Y21652D1*
X14812D1*
Y22402D1*
X13012Y29490D2*
X9862D1*
Y32640D1*
X13012D1*
Y29490D1*
X7406Y22124D2*
X6220D1*
Y22885D1*
X7406D1*
Y22124D1*
D14*
X7167Y22583D3*
X10406Y22124D2*
D10*
X9220D1*
Y22885D1*
X10406D1*
Y22124D1*
D14*
X10167Y22583D3*
X13406Y22124D2*
D10*
X12220D1*
Y22885D1*
X13406D1*
Y22124D1*
D14*
X13167Y22583D3*
X16406Y22124D2*
D10*
X15220D1*
Y22885D1*
X16406D1*
Y22124D1*
D14*
X16167Y22583D3*
D35*
X24699Y21145D3*
X25407Y22739D2*
D10*
X26234D1*
X26962Y22208D2*
Y21972D1*
X26234Y21440D2*
X25407D1*
X24679Y21972D2*
Y22208D1*
X22252Y12973D2*
D98*
X22205Y12949D1*
X22157Y12901D1*
X22133Y12854D1*
Y12758D1*
X22157Y12710D1*
X22205Y12662D1*
X22252Y12638D1*
X22324Y12614D1*
X22444D1*
X22515Y12638D1*
X22563Y12662D1*
X22611Y12710D1*
X22635Y12758D1*
Y12854D1*
X22611Y12901D1*
X22563Y12949D1*
X22515Y12973D1*
X22229Y13127D2*
X22205Y13176D1*
X22133Y13247D1*
X22635D1*
X16252Y12866D2*
X16205Y12842D1*
X16157Y12794D1*
X16133Y12746D1*
Y12651D1*
X16157Y12602D1*
X16205Y12555D1*
X16252Y12531D1*
X16324Y12507D1*
X16444D1*
X16515Y12531D1*
X16563Y12555D1*
X16611Y12602D1*
X16635Y12651D1*
Y12746D1*
X16611Y12794D1*
X16563Y12842D1*
X16515Y12866D1*
X16253Y13044D2*
X16229D1*
X16181Y13068D1*
X16157Y13092D1*
X16133Y13140D1*
Y13235D1*
X16157Y13283D1*
X16181Y13307D1*
X16229Y13331D1*
X16277D1*
X16325Y13307D1*
X16396Y13259D1*
X16635Y13020D1*
Y13355D1*
X36252Y12866D2*
X36205Y12842D1*
X36157Y12794D1*
X36133Y12746D1*
Y12651D1*
X36157Y12602D1*
X36205Y12555D1*
X36252Y12531D1*
X36324Y12507D1*
X36444D1*
X36515Y12531D1*
X36563Y12555D1*
X36611Y12602D1*
X36635Y12651D1*
Y12746D1*
X36611Y12794D1*
X36563Y12842D1*
X36515Y12866D1*
X36133Y13068D2*
Y13331D1*
X36325Y13187D1*
Y13259D1*
X36348Y13307D1*
X36372Y13331D1*
X36444Y13355D1*
X36492D1*
X36563Y13331D1*
X36612Y13283D1*
X36635Y13211D1*
Y13139D1*
X36612Y13068D1*
X36587Y13044D1*
X36540Y13020D1*
X30252Y12854D2*
X30205Y12830D1*
X30157Y12782D1*
X30133Y12734D1*
Y12639D1*
X30157Y12591D1*
X30205Y12543D1*
X30252Y12519D1*
X30324Y12495D1*
X30444D1*
X30515Y12519D1*
X30563Y12543D1*
X30611Y12591D1*
X30635Y12639D1*
Y12734D1*
X30611Y12782D1*
X30563Y12830D1*
X30515Y12854D1*
X30635Y13247D2*
X30133D1*
X30468Y13008D1*
Y13367D1*
X17877Y16503D2*
X17830Y16479D1*
X17782Y16431D1*
X17758Y16383D1*
Y16288D1*
X17782Y16240D1*
X17830Y16192D1*
X17877Y16168D1*
X17949Y16144D1*
X18069D1*
X18140Y16168D1*
X18188Y16192D1*
X18236Y16240D1*
X18260Y16288D1*
Y16383D1*
X18236Y16431D1*
X18188Y16479D1*
X18140Y16503D1*
X17758Y16944D2*
Y16705D1*
X17973Y16682D1*
X17950Y16705D1*
X17925Y16777D1*
Y16848D1*
X17950Y16920D1*
X17997Y16968D1*
X18069Y16992D1*
X18117D1*
X18188Y16968D1*
X18237Y16920D1*
X18260Y16848D1*
Y16777D1*
X18237Y16705D1*
X18212Y16682D1*
X18165Y16657D1*
X31877Y16515D2*
X31830Y16491D1*
X31782Y16443D1*
X31758Y16396D1*
Y16300D1*
X31782Y16252D1*
X31830Y16204D1*
X31877Y16180D1*
X31949Y16156D1*
X32069D1*
X32140Y16180D1*
X32188Y16204D1*
X32236Y16252D1*
X32260Y16300D1*
Y16396D1*
X32236Y16443D1*
X32188Y16491D1*
X32140Y16515D1*
X31830Y16956D2*
X31782Y16932D1*
X31758Y16861D1*
Y16813D1*
X31782Y16741D1*
X31854Y16693D1*
X31973Y16669D1*
X32093D1*
X32188Y16693D1*
X32237Y16741D1*
X32260Y16813D1*
Y16837D1*
X32237Y16908D1*
X32188Y16956D1*
X32117Y16980D1*
X32093D1*
X32021Y16956D1*
X31973Y16908D1*
X31950Y16837D1*
Y16813D1*
X31973Y16741D1*
X32021Y16693D1*
X32093Y16669D1*
X9970Y33821D2*
X9922Y33797D1*
X9874Y33749D1*
X9850Y33701D1*
Y33606D1*
X9874Y33557D1*
X9922Y33510D1*
X9970Y33486D1*
X10042Y33462D1*
X10162D1*
X10233Y33486D1*
X10281Y33510D1*
X10329Y33557D1*
X10353Y33606D1*
Y33701D1*
X10329Y33749D1*
X10281Y33797D1*
X10233Y33821D1*
X10353Y34071D2*
X9851Y34310D1*
Y33975D1*
X15167Y34845D2*
X15143Y34893D1*
X15095Y34941D1*
X15048Y34965D1*
X14952D1*
X14904Y34941D1*
X14857Y34893D1*
X14832Y34845D1*
X14808Y34773D1*
Y34653D1*
X14832Y34582D1*
X14857Y34534D1*
X14904Y34486D1*
X14952Y34462D1*
X15048D1*
X15095Y34486D1*
X15143Y34534D1*
X15167Y34582D1*
X15441Y34964D2*
X15370Y34940D1*
X15345Y34893D1*
Y34845D1*
X15370Y34797D1*
X15417Y34773D1*
X15513Y34749D1*
X15585Y34725D1*
X15632Y34677D1*
X15656Y34630D1*
Y34558D1*
X15632Y34510D1*
X15608Y34486D1*
X15537Y34462D1*
X15441D1*
X15370Y34486D1*
X15345Y34510D1*
X15322Y34558D1*
Y34630D1*
X15345Y34677D1*
X15393Y34725D1*
X15465Y34749D1*
X15560Y34773D1*
X15608Y34797D1*
X15632Y34845D1*
Y34893D1*
X15608Y34940D1*
X15537Y34964D1*
X15441D1*
X11486Y29599D2*
X11462Y29647D1*
X11414Y29695D1*
X11367Y29718D1*
X11271D1*
X11223Y29695D1*
X11175Y29647D1*
X11151Y29599D1*
X11127Y29527D1*
Y29407D1*
X11151Y29336D1*
X11175Y29288D1*
X11223Y29240D1*
X11271Y29216D1*
X11367D1*
X11414Y29240D1*
X11462Y29288D1*
X11486Y29336D1*
X11951Y29551D2*
X11927Y29479D1*
X11880Y29431D1*
X11808Y29407D1*
X11784D1*
X11712Y29431D1*
X11665Y29479D1*
X11640Y29551D1*
Y29575D1*
X11665Y29647D1*
X11712Y29694D1*
X11784Y29718D1*
X11808D1*
X11880Y29694D1*
X11927Y29647D1*
X11951Y29551D1*
Y29431D1*
X11927Y29312D1*
X11880Y29240D1*
X11808Y29216D1*
X11760D1*
X11688Y29240D1*
X11665Y29288D1*
X12779Y31530D2*
X12731Y31506D1*
X12683Y31458D1*
X12660Y31410D1*
Y31315D1*
X12683Y31267D1*
X12731Y31219D1*
X12779Y31195D1*
X12851Y31171D1*
X12971D1*
X13042Y31195D1*
X13090Y31219D1*
X13138Y31267D1*
X13162Y31315D1*
Y31410D1*
X13138Y31458D1*
X13090Y31506D1*
X13042Y31530D1*
X12756Y31684D2*
X12731Y31732D1*
X12660Y31804D1*
X13162D1*
X12660Y32102D2*
X12684Y32030D1*
X12756Y31982D1*
X12875Y31958D1*
X12947D1*
X13066Y31982D1*
X13138Y32030D1*
X13162Y32102D1*
Y32150D1*
X13138Y32222D1*
X13066Y32269D1*
X12947Y32293D1*
X12875D1*
X12756Y32269D1*
X12684Y32222D1*
X12660Y32150D1*
Y32102D1*
X12756Y32269D2*
X13066Y31982D1*
X15877Y27348D2*
X15830Y27324D1*
X15782Y27276D1*
X15758Y27229D1*
Y27133D1*
X15782Y27085D1*
X15830Y27038D1*
X15877Y27013D1*
X15949Y26989D1*
X16069D1*
X16140Y27013D1*
X16188Y27038D1*
X16236Y27085D1*
X16260Y27133D1*
Y27229D1*
X16236Y27276D1*
X16188Y27324D1*
X16140Y27348D1*
X15854Y27503D2*
X15830Y27551D1*
X15758Y27623D1*
X16260D1*
X15854Y27777D2*
X15830Y27825D1*
X15758Y27897D1*
X16260D1*
X20252Y27321D2*
X20205Y27297D1*
X20157Y27249D1*
X20133Y27202D1*
Y27106D1*
X20157Y27058D1*
X20205Y27010D1*
X20252Y26986D1*
X20324Y26962D1*
X20444D1*
X20515Y26986D1*
X20563Y27010D1*
X20611Y27058D1*
X20635Y27106D1*
Y27202D1*
X20611Y27249D1*
X20563Y27297D1*
X20515Y27321D1*
X20229Y27475D2*
X20205Y27524D1*
X20133Y27595D1*
X20635D1*
X20253Y27774D2*
X20229D1*
X20181Y27798D1*
X20157Y27822D1*
X20133Y27870D1*
Y27965D1*
X20157Y28013D1*
X20181Y28037D1*
X20229Y28061D1*
X20277D1*
X20325Y28037D1*
X20396Y27989D1*
X20635Y27750D1*
Y28085D1*
X26752Y21978D2*
X26705Y21955D1*
X26657Y21907D1*
X26633Y21859D1*
Y21763D1*
X26657Y21715D1*
X26705Y21668D1*
X26752Y21643D1*
X26824Y21620D1*
X26944D1*
X27015Y21643D1*
X27063Y21668D1*
X27111Y21715D1*
X27135Y21763D1*
Y21859D1*
X27111Y21907D1*
X27063Y21955D1*
X27015Y21978D1*
X26729Y22133D2*
X26705Y22181D1*
X26633Y22253D1*
X27135D1*
X26633Y22455D2*
Y22718D1*
X26825Y22575D1*
Y22646D1*
X26848Y22694D1*
X26872Y22718D1*
X26944Y22742D1*
X26992D1*
X27063Y22718D1*
X27112Y22670D1*
X27135Y22598D1*
Y22526D1*
X27112Y22455D1*
X27087Y22431D1*
X27040Y22407D1*
X23252Y21809D2*
X23205Y21785D1*
X23157Y21737D1*
X23133Y21690D1*
Y21594D1*
X23157Y21546D1*
X23205Y21499D1*
X23252Y21474D1*
X23324Y21450D1*
X23444D1*
X23515Y21474D1*
X23563Y21499D1*
X23611Y21546D1*
X23635Y21594D1*
Y21690D1*
X23611Y21737D1*
X23563Y21785D1*
X23515Y21809D1*
X23229Y21964D2*
X23205Y22012D1*
X23133Y22083D1*
X23635D1*
Y22477D2*
X23133D1*
X23468Y22238D1*
Y22597D1*
X22938Y25832D2*
X22914Y25879D1*
X22866Y25927D1*
X22819Y25951D1*
X22723D1*
X22675Y25927D1*
X22628Y25879D1*
X22603Y25832D1*
X22579Y25760D1*
Y25640D1*
X22603Y25568D1*
X22628Y25520D1*
X22675Y25473D1*
X22723Y25449D1*
X22819D1*
X22866Y25473D1*
X22914Y25520D1*
X22938Y25568D1*
X23093Y25855D2*
X23141Y25879D1*
X23213Y25950D1*
Y25449D1*
X23654Y25950D2*
X23415D1*
X23391Y25735D1*
X23415Y25759D1*
X23487Y25783D1*
X23558D1*
X23630Y25759D1*
X23678Y25712D1*
X23702Y25640D1*
Y25592D1*
X23678Y25520D1*
X23630Y25472D1*
X23558Y25449D1*
X23487D1*
X23415Y25472D1*
X23391Y25497D1*
X23367Y25544D1*
X38127Y24583D2*
X38080Y24559D1*
X38032Y24511D1*
X38008Y24464D1*
Y24368D1*
X38032Y24320D1*
X38080Y24273D1*
X38127Y24248D1*
X38199Y24225D1*
X38319D1*
X38390Y24248D1*
X38438Y24273D1*
X38486Y24320D1*
X38510Y24368D1*
Y24464D1*
X38486Y24511D1*
X38438Y24559D1*
X38390Y24583D1*
X38104Y24738D2*
X38080Y24786D1*
X38008Y24858D1*
X38510D1*
X38080Y25299D2*
X38032Y25275D1*
X38008Y25203D1*
Y25156D1*
X38032Y25084D1*
X38104Y25036D1*
X38223Y25012D1*
X38343D1*
X38438Y25036D1*
X38487Y25084D1*
X38510Y25156D1*
Y25179D1*
X38487Y25251D1*
X38438Y25299D1*
X38367Y25323D1*
X38343D1*
X38271Y25299D1*
X38223Y25251D1*
X38200Y25179D1*
Y25156D1*
X38223Y25084D1*
X38271Y25036D1*
X38343Y25012D1*
X38485Y11050D2*
X38461Y11097D1*
X38413Y11145D1*
X38365Y11169D1*
X38270D1*
X38221Y11145D1*
X38174Y11097D1*
X38150Y11050D1*
X38126Y10978D1*
Y10858D1*
X38150Y10787D1*
X38174Y10739D1*
X38221Y10691D1*
X38270Y10667D1*
X38365D1*
X38413Y10691D1*
X38461Y10739D1*
X38485Y10787D1*
X38974Y11169D2*
Y10667D1*
X38639Y11169D1*
Y10667D1*
X39128Y11073D2*
X39176Y11097D1*
X39248Y11169D1*
Y10667D1*
X32377Y11050D2*
X32353Y11097D1*
X32305Y11145D1*
X32258Y11169D1*
X32162D1*
X32114Y11145D1*
X32066Y11097D1*
X32042Y11050D1*
X32018Y10978D1*
Y10858D1*
X32042Y10787D1*
X32066Y10739D1*
X32114Y10691D1*
X32162Y10667D1*
X32258D1*
X32305Y10691D1*
X32353Y10739D1*
X32377Y10787D1*
X32866Y11169D2*
Y10667D1*
X32531Y11169D1*
Y10667D1*
X33045Y11049D2*
Y11073D1*
X33069Y11121D1*
X33093Y11145D1*
X33141Y11169D1*
X33236D1*
X33284Y11145D1*
X33308Y11121D1*
X33332Y11073D1*
Y11026D1*
X33308Y10977D1*
X33260Y10906D1*
X33021Y10667D1*
X33356D1*
X24377Y11050D2*
X24353Y11097D1*
X24305Y11145D1*
X24258Y11169D1*
X24162D1*
X24114Y11145D1*
X24066Y11097D1*
X24042Y11050D1*
X24018Y10978D1*
Y10858D1*
X24042Y10787D1*
X24066Y10739D1*
X24114Y10691D1*
X24162Y10667D1*
X24258D1*
X24305Y10691D1*
X24353Y10739D1*
X24377Y10787D1*
X24866Y11169D2*
Y10667D1*
X24531Y11169D1*
Y10667D1*
X25069Y11169D2*
X25331D1*
X25188Y10977D1*
X25260D1*
X25308Y10954D1*
X25331Y10930D1*
X25356Y10858D1*
Y10811D1*
X25331Y10739D1*
X25284Y10691D1*
X25212Y10667D1*
X25140D1*
X25069Y10691D1*
X25045Y10715D1*
X25021Y10762D1*
X18365Y11050D2*
X18341Y11097D1*
X18293Y11145D1*
X18246Y11169D1*
X18150D1*
X18102Y11145D1*
X18055Y11097D1*
X18030Y11050D1*
X18006Y10978D1*
Y10858D1*
X18030Y10787D1*
X18055Y10739D1*
X18102Y10691D1*
X18150Y10667D1*
X18246D1*
X18293Y10691D1*
X18341Y10739D1*
X18365Y10787D1*
X18854Y11169D2*
Y10667D1*
X18520Y11169D1*
Y10667D1*
X19248D2*
Y11169D1*
X19009Y10834D1*
X19368D1*
X32377Y36675D2*
X32353Y36722D1*
X32305Y36770D1*
X32258Y36794D1*
X32162D1*
X32114Y36770D1*
X32066Y36722D1*
X32042Y36675D1*
X32018Y36603D1*
Y36483D1*
X32042Y36412D1*
X32066Y36364D1*
X32114Y36316D1*
X32162Y36292D1*
X32258D1*
X32305Y36316D1*
X32353Y36364D1*
X32377Y36412D1*
X32866Y36794D2*
Y36292D1*
X32531Y36794D1*
Y36292D1*
X33308Y36794D2*
X33069D1*
X33045Y36579D1*
X33069Y36602D1*
X33141Y36627D1*
X33212D1*
X33284Y36602D1*
X33332Y36555D1*
X33356Y36483D1*
Y36436D1*
X33332Y36364D1*
X33284Y36316D1*
X33212Y36292D1*
X33141D1*
X33069Y36316D1*
X33045Y36340D1*
X33021Y36387D1*
X38389Y36675D2*
X38365Y36722D1*
X38317Y36770D1*
X38270Y36794D1*
X38174D1*
X38126Y36770D1*
X38079Y36722D1*
X38054Y36675D1*
X38030Y36603D1*
Y36483D1*
X38054Y36412D1*
X38079Y36364D1*
X38126Y36316D1*
X38174Y36292D1*
X38270D1*
X38317Y36316D1*
X38365Y36364D1*
X38389Y36412D1*
X38879Y36794D2*
Y36292D1*
X38544Y36794D1*
Y36292D1*
X39320Y36722D2*
X39296Y36770D1*
X39224Y36794D1*
X39177D1*
X39105Y36770D1*
X39057Y36698D1*
X39033Y36579D1*
Y36459D1*
X39057Y36364D1*
X39105Y36316D1*
X39177Y36292D1*
X39200D1*
X39272Y36316D1*
X39320Y36364D1*
X39344Y36436D1*
Y36459D1*
X39320Y36531D1*
X39272Y36579D1*
X39200Y36602D1*
X39177D1*
X39105Y36579D1*
X39057Y36531D1*
X39033Y36459D1*
X22672Y12781D2*
Y12279D1*
X22839D1*
X22911Y12303D1*
X22959Y12351D1*
X22983Y12399D1*
X23007Y12470D1*
Y12590D1*
X22983Y12662D1*
X22959Y12710D1*
X22911Y12758D1*
X22839Y12781D1*
X22672D1*
X23161Y12685D2*
X23209Y12710D1*
X23281Y12781D1*
Y12279D1*
X16564Y12781D2*
Y12279D1*
X16732D1*
X16804Y12303D1*
X16852Y12351D1*
X16876Y12399D1*
X16899Y12470D1*
Y12590D1*
X16876Y12662D1*
X16852Y12710D1*
X16804Y12758D1*
X16732Y12781D1*
X16564D1*
X17078Y12662D2*
Y12685D1*
X17102Y12733D1*
X17126Y12757D1*
X17174Y12781D1*
X17269D1*
X17317Y12757D1*
X17341Y12733D1*
X17365Y12685D1*
Y12638D1*
X17341Y12590D1*
X17293Y12518D1*
X17054Y12279D1*
X17389D1*
X36564Y12781D2*
Y12279D1*
X36732D1*
X36804Y12303D1*
X36852Y12351D1*
X36876Y12399D1*
X36899Y12470D1*
Y12590D1*
X36876Y12662D1*
X36852Y12710D1*
X36804Y12758D1*
X36732Y12781D1*
X36564D1*
X37102D2*
X37364D1*
X37221Y12590D1*
X37293D1*
X37341Y12566D1*
X37364Y12542D1*
X37389Y12470D1*
Y12423D1*
X37364Y12351D1*
X37317Y12303D1*
X37245Y12279D1*
X37173D1*
X37102Y12303D1*
X37078Y12327D1*
X37054Y12375D1*
X30553Y12781D2*
Y12279D1*
X30720D1*
X30792Y12303D1*
X30840Y12351D1*
X30864Y12399D1*
X30887Y12470D1*
Y12590D1*
X30864Y12662D1*
X30840Y12710D1*
X30792Y12758D1*
X30720Y12781D1*
X30553D1*
X31281Y12279D2*
Y12781D1*
X31042Y12447D1*
X31401D1*
X12007Y36047D2*
Y35545D1*
X12175D1*
X12247Y35569D1*
X12295Y35617D1*
X12318Y35665D1*
X12342Y35736D1*
Y35856D1*
X12318Y35928D1*
X12295Y35975D1*
X12247Y36023D1*
X12175Y36047D1*
X12007D1*
X12783D2*
X12545D1*
X12521Y35832D1*
X12545Y35855D1*
X12616Y35880D1*
X12688D1*
X12760Y35855D1*
X12808Y35808D1*
X12831Y35736D1*
Y35688D1*
X12808Y35617D1*
X12760Y35569D1*
X12688Y35545D1*
X12616D1*
X12545Y35569D1*
X12521Y35593D1*
X12497Y35640D1*
X6287Y22530D2*
Y22027D1*
X6455D1*
X6526Y22051D1*
X6574Y22099D1*
X6598Y22147D1*
X6622Y22218D1*
Y22338D1*
X6598Y22410D1*
X6574Y22458D1*
X6526Y22506D1*
X6455Y22530D1*
X6287D1*
X7063Y22458D2*
X7039Y22505D1*
X6968Y22529D1*
X6920D1*
X6848Y22505D1*
X6800Y22433D1*
X6776Y22314D1*
Y22195D1*
X6800Y22099D1*
X6848Y22051D1*
X6920Y22027D1*
X6944D1*
X7015Y22051D1*
X7063Y22099D1*
X7087Y22171D1*
Y22195D1*
X7063Y22266D1*
X7015Y22314D1*
X6944Y22338D1*
X6920D1*
X6848Y22314D1*
X6800Y22266D1*
X6776Y22195D1*
X9275Y22530D2*
Y22027D1*
X9442D1*
X9514Y22051D1*
X9562Y22099D1*
X9586Y22147D1*
X9610Y22218D1*
Y22338D1*
X9586Y22410D1*
X9562Y22458D1*
X9514Y22506D1*
X9442Y22530D1*
X9275D1*
X9860Y22027D2*
X10099Y22529D1*
X9764D1*
X12275Y22530D2*
Y22027D1*
X12443D1*
X12514Y22051D1*
X12563Y22099D1*
X12586Y22147D1*
X12610Y22218D1*
Y22338D1*
X12586Y22410D1*
X12563Y22458D1*
X12514Y22506D1*
X12443Y22530D1*
X12275D1*
X12884Y22529D2*
X12813Y22505D1*
X12788Y22458D1*
Y22410D1*
X12813Y22362D1*
X12860Y22338D1*
X12956Y22314D1*
X13028Y22290D1*
X13075Y22242D1*
X13099Y22195D1*
Y22123D1*
X13075Y22075D1*
X13051Y22051D1*
X12979Y22027D1*
X12884D1*
X12813Y22051D1*
X12788Y22075D1*
X12764Y22123D1*
Y22195D1*
X12788Y22242D1*
X12836Y22290D1*
X12908Y22314D1*
X13003Y22338D1*
X13051Y22362D1*
X13075Y22410D1*
Y22458D1*
X13051Y22505D1*
X12979Y22529D1*
X12884D1*
X15287Y22530D2*
Y22027D1*
X15454D1*
X15526Y22051D1*
X15574Y22099D1*
X15598Y22147D1*
X15622Y22218D1*
Y22338D1*
X15598Y22410D1*
X15574Y22458D1*
X15526Y22506D1*
X15454Y22530D1*
X15287D1*
X16087Y22362D2*
X16063Y22290D1*
X16015Y22242D1*
X15944Y22218D1*
X15920D1*
X15848Y22242D1*
X15800Y22290D1*
X15776Y22362D1*
Y22386D1*
X15800Y22458D1*
X15848Y22505D1*
X15920Y22529D1*
X15944D1*
X16015Y22505D1*
X16063Y22458D1*
X16087Y22362D1*
Y22242D1*
X16063Y22123D1*
X16015Y22051D1*
X15944Y22027D1*
X15896D1*
X15824Y22051D1*
X15800Y22099D1*
X35440Y28352D2*
Y27850D1*
X35954Y28233D2*
X35930Y28280D1*
X35882Y28329D1*
X35834Y28352D1*
X35739D1*
X35690Y28329D1*
X35643Y28280D1*
X35619Y28233D1*
X35595Y28161D1*
Y28041D1*
X35619Y27970D1*
X35643Y27922D1*
X35690Y27874D1*
X35739Y27850D1*
X35834D1*
X35882Y27874D1*
X35930Y27922D1*
X35954Y27970D1*
X36108Y28256D2*
X36156Y28280D1*
X36228Y28352D1*
Y27850D1*
X18328Y29630D2*
Y29127D1*
X18841Y29510D2*
X18817Y29558D1*
X18769Y29606D1*
X18721Y29630D1*
X18626D1*
X18578Y29606D1*
X18530Y29558D1*
X18506Y29510D1*
X18482Y29438D1*
Y29318D1*
X18506Y29247D1*
X18530Y29199D1*
X18578Y29151D1*
X18626Y29127D1*
X18721D1*
X18769Y29151D1*
X18817Y29199D1*
X18841Y29247D1*
X19019Y29510D2*
Y29533D1*
X19043Y29581D1*
X19067Y29605D1*
X19115Y29629D1*
X19211D1*
X19258Y29605D1*
X19282Y29581D1*
X19306Y29533D1*
Y29486D1*
X19282Y29438D1*
X19234Y29366D1*
X18995Y29127D1*
X19330D1*
X5981Y24646D2*
X6483D1*
X6100Y25159D2*
X6052Y25136D1*
X6004Y25088D1*
X5981Y25040D1*
Y24944D1*
X6004Y24896D1*
X6052Y24849D1*
X6100Y24824D1*
X6172Y24801D1*
X6292D1*
X6363Y24824D1*
X6411Y24849D1*
X6459Y24896D1*
X6483Y24944D1*
Y25040D1*
X6459Y25088D1*
X6411Y25136D1*
X6363Y25159D1*
X5981Y25362D2*
Y25624D1*
X6172Y25481D1*
Y25553D1*
X6196Y25601D1*
X6220Y25624D1*
X6292Y25649D1*
X6339D1*
X6411Y25624D1*
X6459Y25577D1*
X6483Y25505D1*
Y25433D1*
X6459Y25362D1*
X6435Y25338D1*
X6387Y25314D1*
X8981Y24634D2*
X9483D1*
X9100Y25147D2*
X9052Y25124D1*
X9004Y25076D1*
X8981Y25028D1*
Y24932D1*
X9004Y24884D1*
X9052Y24837D1*
X9100Y24813D1*
X9172Y24789D1*
X9292D1*
X9363Y24813D1*
X9411Y24837D1*
X9459Y24884D1*
X9483Y24932D1*
Y25028D1*
X9459Y25076D1*
X9411Y25124D1*
X9363Y25147D1*
X9483Y25541D2*
X8981D1*
X9316Y25302D1*
Y25661D1*
X11981Y24646D2*
X12483D1*
X12100Y25159D2*
X12052Y25136D1*
X12004Y25088D1*
X11981Y25040D1*
Y24944D1*
X12004Y24896D1*
X12052Y24849D1*
X12100Y24824D1*
X12172Y24801D1*
X12292D1*
X12363Y24824D1*
X12411Y24849D1*
X12459Y24896D1*
X12483Y24944D1*
Y25040D1*
X12459Y25088D1*
X12411Y25136D1*
X12363Y25159D1*
X11981Y25601D2*
Y25362D1*
X12196Y25338D1*
X12172Y25362D1*
X12148Y25434D1*
Y25505D1*
X12172Y25577D1*
X12220Y25625D1*
X12292Y25649D1*
X12339D1*
X12411Y25625D1*
X12459Y25577D1*
X12483Y25505D1*
Y25434D1*
X12459Y25362D1*
X12435Y25338D1*
X12387Y25314D1*
X14981Y24658D2*
X15483D1*
X15100Y25172D2*
X15052Y25148D1*
X15004Y25100D1*
X14981Y25052D1*
Y24957D1*
X15004Y24908D1*
X15052Y24861D1*
X15100Y24837D1*
X15172Y24813D1*
X15292D1*
X15363Y24837D1*
X15411Y24861D1*
X15459Y24908D1*
X15483Y24957D1*
Y25052D1*
X15459Y25100D1*
X15411Y25148D1*
X15363Y25172D1*
X15052Y25613D2*
X15005Y25589D1*
X14981Y25517D1*
Y25470D1*
X15005Y25398D1*
X15077Y25350D1*
X15196Y25326D1*
X15316D1*
X15411Y25350D1*
X15459Y25398D1*
X15483Y25470D1*
Y25493D1*
X15459Y25565D1*
X15411Y25613D1*
X15339Y25637D1*
X15316D1*
X15244Y25613D1*
X15196Y25565D1*
X15172Y25493D1*
Y25470D1*
X15196Y25398D1*
X15244Y25350D1*
X15316Y25326D1*
X14686Y33939D2*
Y33437D1*
X15199Y33820D2*
X15175Y33867D1*
X15127Y33915D1*
X15080Y33939D1*
X14984D1*
X14936Y33915D1*
X14888Y33867D1*
X14864Y33820D1*
X14840Y33748D1*
Y33628D1*
X14864Y33556D1*
X14888Y33508D1*
X14936Y33461D1*
X14984Y33437D1*
X15080D1*
X15127Y33461D1*
X15175Y33508D1*
X15199Y33556D1*
X15449Y33437D2*
X15688Y33938D1*
X15353D1*
X21186Y19563D2*
Y19061D1*
X21699Y19444D2*
X21675Y19491D1*
X21627Y19539D1*
X21580Y19563D1*
X21484D1*
X21436Y19539D1*
X21389Y19491D1*
X21364Y19444D1*
X21340Y19372D1*
Y19252D1*
X21364Y19180D1*
X21389Y19132D1*
X21436Y19085D1*
X21484Y19061D1*
X21580D1*
X21627Y19085D1*
X21675Y19132D1*
X21699Y19180D1*
X21973Y19562D2*
X21902Y19539D1*
X21877Y19491D1*
Y19443D1*
X21902Y19395D1*
X21949Y19371D1*
X22045Y19347D1*
X22117Y19324D1*
X22164Y19276D1*
X22188Y19228D1*
Y19156D1*
X22164Y19109D1*
X22140Y19084D1*
X22069Y19061D1*
X21973D1*
X21902Y19084D1*
X21877Y19109D1*
X21854Y19156D1*
Y19228D1*
X21877Y19276D1*
X21925Y19324D1*
X21997Y19347D1*
X22092Y19371D1*
X22140Y19395D1*
X22164Y19443D1*
Y19491D1*
X22140Y19539D1*
X22069Y19562D1*
X21973D1*
X25365Y27734D2*
Y27232D1*
X25878Y27615D2*
X25854Y27662D1*
X25806Y27710D1*
X25759Y27734D1*
X25663D1*
X25615Y27710D1*
X25567Y27662D1*
X25543Y27615D1*
X25519Y27543D1*
Y27423D1*
X25543Y27352D1*
X25567Y27304D1*
X25615Y27256D1*
X25663Y27232D1*
X25759D1*
X25806Y27256D1*
X25854Y27304D1*
X25878Y27352D1*
X26344Y27567D2*
X26319Y27495D1*
X26272Y27447D1*
X26200Y27423D1*
X26176D1*
X26104Y27447D1*
X26057Y27495D1*
X26032Y27567D1*
Y27590D1*
X26057Y27662D1*
X26104Y27710D1*
X26176Y27734D1*
X26200D1*
X26272Y27710D1*
X26319Y27662D1*
X26344Y27567D1*
Y27447D1*
X26319Y27327D1*
X26272Y27256D1*
X26200Y27232D1*
X26152D1*
X26081Y27256D1*
X26057Y27304D1*
X35049Y19563D2*
Y19061D1*
X35562Y19444D2*
X35538Y19491D1*
X35490Y19539D1*
X35442Y19563D1*
X35347D1*
X35299Y19539D1*
X35251Y19491D1*
X35227Y19444D1*
X35203Y19372D1*
Y19252D1*
X35227Y19180D1*
X35251Y19132D1*
X35299Y19085D1*
X35347Y19061D1*
X35442D1*
X35490Y19085D1*
X35538Y19132D1*
X35562Y19180D1*
X35716Y19467D2*
X35764Y19491D1*
X35836Y19562D1*
Y19061D1*
X36134Y19562D2*
X36062Y19539D1*
X36014Y19467D1*
X35990Y19347D1*
Y19276D1*
X36014Y19156D1*
X36062Y19084D1*
X36134Y19061D1*
X36182D1*
X36254Y19084D1*
X36301Y19156D1*
X36325Y19276D1*
Y19347D1*
X36301Y19467D1*
X36254Y19539D1*
X36182Y19562D1*
X36134D1*
X36301Y19467D2*
X36014Y19156D1*
X7164Y37563D2*
Y37180D1*
X7140Y37109D1*
X7116Y37085D1*
X7068Y37061D1*
X7020D1*
X6972Y37085D1*
X6949Y37109D1*
X6924Y37180D1*
Y37228D1*
X7318Y37467D2*
X7366Y37491D1*
X7438Y37562D1*
Y37061D1*
X5175Y23134D2*
Y22752D1*
X5151Y22680D1*
X5127Y22656D1*
X5079Y22632D1*
X5031D1*
X4984Y22656D1*
X4960Y22680D1*
X4936Y22752D1*
Y22799D1*
X5329Y22871D2*
X5545D1*
X5616Y22895D1*
X5640Y22919D1*
X5664Y22967D1*
Y23039D1*
X5640Y23086D1*
X5616Y23110D1*
X5545Y23134D1*
X5329D1*
Y22632D1*
X5819Y23038D2*
X5867Y23062D1*
X5938Y23134D1*
Y22632D1*
X8067Y23134D2*
Y22752D1*
X8044Y22680D1*
X8019Y22656D1*
X7972Y22632D1*
X7924D1*
X7876Y22656D1*
X7852Y22680D1*
X7828Y22752D1*
Y22799D1*
X8222Y22871D2*
X8437D1*
X8509Y22895D1*
X8533Y22919D1*
X8557Y22967D1*
Y23039D1*
X8533Y23086D1*
X8509Y23110D1*
X8437Y23134D1*
X8222D1*
Y22632D1*
X8735Y23014D2*
Y23038D1*
X8759Y23086D1*
X8783Y23110D1*
X8831Y23134D1*
X8927D1*
X8974Y23110D1*
X8998Y23086D1*
X9022Y23038D1*
Y22991D1*
X8998Y22942D1*
X8950Y22871D1*
X8711Y22632D1*
X9046D1*
X11067Y23134D2*
Y22752D1*
X11044Y22680D1*
X11019Y22656D1*
X10972Y22632D1*
X10924D1*
X10876Y22656D1*
X10852Y22680D1*
X10828Y22752D1*
Y22799D1*
X11222Y22871D2*
X11437D1*
X11509Y22895D1*
X11533Y22919D1*
X11557Y22967D1*
Y23039D1*
X11533Y23086D1*
X11509Y23110D1*
X11437Y23134D1*
X11222D1*
Y22632D1*
X11759Y23134D2*
X12022D1*
X11879Y22942D1*
X11950D1*
X11998Y22919D1*
X12022Y22895D1*
X12046Y22823D1*
Y22776D1*
X12022Y22704D1*
X11974Y22656D1*
X11902Y22632D1*
X11830D1*
X11759Y22656D1*
X11735Y22680D1*
X11711Y22727D1*
X14055Y23134D2*
Y22752D1*
X14032Y22680D1*
X14007Y22656D1*
X13960Y22632D1*
X13912D1*
X13864Y22656D1*
X13840Y22680D1*
X13816Y22752D1*
Y22799D1*
X14210Y22871D2*
X14425D1*
X14497Y22895D1*
X14521Y22919D1*
X14545Y22967D1*
Y23039D1*
X14521Y23086D1*
X14497Y23110D1*
X14425Y23134D1*
X14210D1*
Y22632D1*
X14938D2*
Y23134D1*
X14699Y22799D1*
X15058D1*
X11156Y33372D2*
Y32870D1*
X11443D1*
X11598Y33276D2*
X11646Y33300D1*
X11718Y33371D1*
Y32870D1*
X6628Y23866D2*
X6580Y23843D1*
X6532Y23795D1*
X6509Y23747D1*
X6484Y23675D1*
Y23555D1*
X6509Y23484D1*
X6532Y23436D1*
X6580Y23388D1*
X6628Y23364D1*
X6724D1*
X6772Y23388D1*
X6819Y23436D1*
X6843Y23484D1*
X6867Y23555D1*
Y23675D1*
X6843Y23747D1*
X6819Y23795D1*
X6772Y23843D1*
X6724Y23866D1*
X6628D1*
X6700Y23460D2*
X6843Y23316D1*
X7022Y23770D2*
X7070Y23794D1*
X7142Y23866D1*
Y23364D1*
X9521Y23866D2*
X9473Y23843D1*
X9425Y23795D1*
X9401Y23747D1*
X9377Y23675D1*
Y23555D1*
X9401Y23484D1*
X9425Y23436D1*
X9473Y23388D1*
X9521Y23364D1*
X9616D1*
X9664Y23388D1*
X9712Y23436D1*
X9736Y23484D1*
X9760Y23555D1*
Y23675D1*
X9736Y23747D1*
X9712Y23795D1*
X9664Y23843D1*
X9616Y23866D1*
X9521D1*
X9592Y23460D2*
X9736Y23316D1*
X9939Y23746D2*
Y23770D1*
X9962Y23818D1*
X9986Y23842D1*
X10034Y23866D1*
X10130D1*
X10177Y23842D1*
X10201Y23818D1*
X10225Y23770D1*
Y23722D1*
X10201Y23674D1*
X10154Y23603D1*
X9914Y23364D1*
X10249D1*
X12521Y23866D2*
X12473Y23843D1*
X12425Y23795D1*
X12401Y23747D1*
X12377Y23675D1*
Y23555D1*
X12401Y23484D1*
X12425Y23436D1*
X12473Y23388D1*
X12521Y23364D1*
X12616D1*
X12664Y23388D1*
X12712Y23436D1*
X12736Y23484D1*
X12760Y23555D1*
Y23675D1*
X12736Y23747D1*
X12712Y23795D1*
X12664Y23843D1*
X12616Y23866D1*
X12521D1*
X12592Y23460D2*
X12736Y23316D1*
X12962Y23866D2*
X13225D1*
X13082Y23674D1*
X13154D1*
X13201Y23651D1*
X13225Y23627D1*
X13249Y23555D1*
Y23507D1*
X13225Y23436D1*
X13177Y23387D1*
X13105Y23364D1*
X13034D1*
X12962Y23387D1*
X12939Y23412D1*
X12914Y23459D1*
X15509Y23866D2*
X15461Y23843D1*
X15413Y23795D1*
X15389Y23747D1*
X15365Y23675D1*
Y23555D1*
X15389Y23484D1*
X15413Y23436D1*
X15461Y23388D1*
X15509Y23364D1*
X15604D1*
X15652Y23388D1*
X15700Y23436D1*
X15724Y23484D1*
X15748Y23555D1*
Y23675D1*
X15724Y23747D1*
X15700Y23795D1*
X15652Y23843D1*
X15604Y23866D1*
X15509D1*
X15580Y23460D2*
X15724Y23316D1*
X16142Y23364D2*
Y23866D1*
X15902Y23531D1*
X16261D1*
X23497Y11298D2*
Y11513D1*
X23473Y11585D1*
X23449Y11609D1*
X23402Y11633D1*
X23354D1*
X23306Y11609D1*
X23282Y11585D1*
X23258Y11513D1*
Y11298D1*
X23760D1*
X23497Y11465D2*
X23760Y11633D1*
X23354Y11787D2*
X23330Y11835D1*
X23258Y11907D1*
X23760D1*
X21247Y11190D2*
Y11405D1*
X21223Y11477D1*
X21199Y11501D1*
X21152Y11525D1*
X21104D1*
X21056Y11501D1*
X21032Y11477D1*
X21008Y11405D1*
Y11190D1*
X21510D1*
X21247Y11358D2*
X21510Y11525D1*
X21128Y11704D2*
X21104D1*
X21056Y11728D1*
X21032Y11751D1*
X21008Y11799D1*
Y11895D1*
X21032Y11943D1*
X21056Y11966D1*
X21104Y11991D1*
X21152D1*
X21200Y11966D1*
X21271Y11919D1*
X21510Y11680D1*
Y12014D1*
X17497Y11190D2*
Y11405D1*
X17473Y11477D1*
X17449Y11501D1*
X17402Y11525D1*
X17354D1*
X17306Y11501D1*
X17282Y11477D1*
X17258Y11405D1*
Y11190D1*
X17760D1*
X17497Y11358D2*
X17760Y11525D1*
X17258Y11728D2*
Y11990D1*
X17450Y11847D1*
Y11919D1*
X17473Y11966D1*
X17497Y11990D1*
X17569Y12014D1*
X17617D1*
X17688Y11990D1*
X17737Y11943D1*
X17760Y11871D1*
Y11799D1*
X17737Y11728D1*
X17712Y11704D1*
X17665Y11680D1*
X15247Y11178D2*
Y11393D1*
X15223Y11465D1*
X15199Y11490D1*
X15152Y11513D1*
X15104D1*
X15056Y11490D1*
X15032Y11465D1*
X15008Y11393D1*
Y11178D1*
X15510D1*
X15247Y11346D2*
X15510Y11513D1*
Y11907D2*
X15008D1*
X15343Y11668D1*
Y12026D1*
X37497Y11190D2*
Y11405D1*
X37473Y11477D1*
X37449Y11501D1*
X37402Y11525D1*
X37354D1*
X37306Y11501D1*
X37282Y11477D1*
X37258Y11405D1*
Y11190D1*
X37760D1*
X37497Y11358D2*
X37760Y11525D1*
X37258Y11966D2*
Y11728D1*
X37473Y11704D1*
X37450Y11728D1*
X37425Y11799D1*
Y11871D1*
X37450Y11943D1*
X37497Y11991D1*
X37569Y12014D1*
X37617D1*
X37688Y11991D1*
X37737Y11943D1*
X37760Y11871D1*
Y11799D1*
X37737Y11728D1*
X37712Y11704D1*
X37665Y11680D1*
X35247Y11202D2*
Y11417D1*
X35223Y11489D1*
X35199Y11514D1*
X35152Y11537D1*
X35104D1*
X35056Y11514D1*
X35032Y11489D1*
X35008Y11417D1*
Y11202D1*
X35510D1*
X35247Y11370D2*
X35510Y11537D1*
X35080Y11979D2*
X35032Y11955D1*
X35008Y11883D1*
Y11835D1*
X35032Y11764D1*
X35104Y11715D1*
X35223Y11692D1*
X35343D1*
X35438Y11715D1*
X35487Y11764D1*
X35510Y11835D1*
Y11859D1*
X35487Y11930D1*
X35438Y11979D1*
X35367Y12002D1*
X35343D1*
X35271Y11979D1*
X35223Y11930D1*
X35200Y11859D1*
Y11835D1*
X35223Y11764D1*
X35271Y11715D1*
X35343Y11692D1*
X31497Y11065D2*
Y11280D1*
X31473Y11352D1*
X31449Y11376D1*
X31402Y11400D1*
X31354D1*
X31306Y11376D1*
X31282Y11352D1*
X31258Y11280D1*
Y11065D1*
X31760D1*
X31497Y11233D2*
X31760Y11400D1*
Y11650D2*
X31258Y11889D1*
Y11555D1*
X29247Y11066D2*
Y11281D1*
X29223Y11352D1*
X29199Y11377D1*
X29152Y11400D1*
X29104D1*
X29056Y11377D1*
X29032Y11352D1*
X29008Y11281D1*
Y11066D1*
X29510D1*
X29247Y11233D2*
X29510Y11400D1*
X29008Y11674D2*
X29032Y11603D1*
X29080Y11579D1*
X29128D1*
X29175Y11603D1*
X29200Y11650D1*
X29223Y11746D1*
X29247Y11818D1*
X29295Y11865D1*
X29343Y11889D1*
X29415D1*
X29462Y11865D1*
X29487Y11842D1*
X29510Y11770D1*
Y11674D1*
X29487Y11603D1*
X29462Y11579D1*
X29415Y11555D1*
X29343D1*
X29295Y11579D1*
X29247Y11627D1*
X29223Y11698D1*
X29200Y11794D1*
X29175Y11842D1*
X29128Y11865D1*
X29080D1*
X29032Y11842D1*
X29008Y11770D1*
Y11674D1*
X5247Y24702D2*
Y24917D1*
X5223Y24989D1*
X5199Y25013D1*
X5152Y25037D1*
X5104D1*
X5056Y25013D1*
X5032Y24989D1*
X5008Y24917D1*
Y24702D1*
X5510D1*
X5247Y24870D2*
X5510Y25037D1*
X5175Y25503D2*
X5247Y25478D1*
X5295Y25431D1*
X5319Y25359D1*
Y25335D1*
X5295Y25263D1*
X5247Y25216D1*
X5175Y25191D1*
X5152D1*
X5080Y25216D1*
X5032Y25263D1*
X5008Y25335D1*
Y25359D1*
X5032Y25431D1*
X5080Y25478D1*
X5175Y25503D1*
X5295D1*
X5415Y25478D1*
X5487Y25431D1*
X5510Y25359D1*
Y25311D1*
X5487Y25240D1*
X5438Y25216D1*
X8247Y24553D2*
Y24768D1*
X8223Y24840D1*
X8199Y24864D1*
X8152Y24888D1*
X8104D1*
X8056Y24864D1*
X8032Y24840D1*
X8008Y24768D1*
Y24553D1*
X8510D1*
X8247Y24721D2*
X8510Y24888D1*
X8104Y25042D2*
X8080Y25090D1*
X8008Y25162D1*
X8510D1*
X8008Y25460D2*
X8032Y25389D1*
X8104Y25340D1*
X8223Y25317D1*
X8295D1*
X8415Y25340D1*
X8487Y25389D1*
X8510Y25460D1*
Y25508D1*
X8487Y25580D1*
X8415Y25627D1*
X8295Y25652D1*
X8223D1*
X8104Y25627D1*
X8032Y25580D1*
X8008Y25508D1*
Y25460D1*
X8104Y25627D2*
X8415Y25340D1*
X11247Y24661D2*
Y24876D1*
X11223Y24947D1*
X11199Y24972D1*
X11152Y24996D1*
X11104D1*
X11056Y24972D1*
X11032Y24947D1*
X11008Y24876D1*
Y24661D1*
X11510D1*
X11247Y24828D2*
X11510Y24996D1*
X11104Y25150D2*
X11080Y25198D1*
X11008Y25270D1*
X11510D1*
X11104Y25424D2*
X11080Y25472D1*
X11008Y25544D1*
X11510D1*
X14247Y24553D2*
Y24768D1*
X14223Y24840D1*
X14199Y24864D1*
X14152Y24888D1*
X14104D1*
X14056Y24864D1*
X14032Y24840D1*
X14008Y24768D1*
Y24553D1*
X14510D1*
X14247Y24721D2*
X14510Y24888D1*
X14104Y25042D2*
X14080Y25090D1*
X14008Y25162D1*
X14510D1*
X14128Y25341D2*
X14104D1*
X14056Y25365D1*
X14032Y25389D1*
X14008Y25437D1*
Y25532D1*
X14032Y25580D1*
X14056Y25604D1*
X14104Y25628D1*
X14152D1*
X14200Y25604D1*
X14271Y25556D1*
X14510Y25317D1*
Y25652D1*
X7247Y23222D2*
Y23437D1*
X7223Y23509D1*
X7199Y23534D1*
X7152Y23557D1*
X7104D1*
X7056Y23534D1*
X7032Y23509D1*
X7008Y23437D1*
Y23222D1*
X7510D1*
X7247Y23390D2*
X7510Y23557D1*
X7104Y23712D2*
X7080Y23760D1*
X7008Y23832D1*
X7510D1*
X7008Y24034D2*
Y24297D1*
X7200Y24153D1*
Y24225D1*
X7223Y24273D1*
X7247Y24297D1*
X7319Y24321D1*
X7367D1*
X7438Y24297D1*
X7487Y24249D1*
X7510Y24177D1*
Y24105D1*
X7487Y24034D1*
X7462Y24010D1*
X7415Y23986D1*
X10247Y23210D2*
Y23425D1*
X10223Y23497D1*
X10199Y23522D1*
X10152Y23545D1*
X10104D1*
X10056Y23522D1*
X10032Y23497D1*
X10008Y23425D1*
Y23210D1*
X10510D1*
X10247Y23378D2*
X10510Y23545D1*
X10104Y23700D2*
X10080Y23748D1*
X10008Y23820D1*
X10510D1*
Y24213D2*
X10008D1*
X10343Y23974D1*
Y24333D1*
X13247Y23222D2*
Y23437D1*
X13223Y23509D1*
X13199Y23534D1*
X13152Y23557D1*
X13104D1*
X13056Y23534D1*
X13032Y23509D1*
X13008Y23437D1*
Y23222D1*
X13510D1*
X13247Y23390D2*
X13510Y23557D1*
X13104Y23712D2*
X13080Y23760D1*
X13008Y23832D1*
X13510D1*
X13008Y24273D2*
Y24034D1*
X13223Y24010D1*
X13200Y24034D1*
X13175Y24106D1*
Y24177D1*
X13200Y24249D1*
X13247Y24297D1*
X13319Y24321D1*
X13367D1*
X13438Y24297D1*
X13487Y24249D1*
X13510Y24177D1*
Y24106D1*
X13487Y24034D1*
X13462Y24010D1*
X13415Y23986D1*
X16247Y23235D2*
Y23450D1*
X16223Y23521D1*
X16199Y23546D1*
X16152Y23569D1*
X16104D1*
X16056Y23546D1*
X16032Y23521D1*
X16008Y23450D1*
Y23235D1*
X16510D1*
X16247Y23402D2*
X16510Y23569D1*
X16104Y23724D2*
X16080Y23772D1*
X16008Y23844D1*
X16510D1*
X16080Y24285D2*
X16032Y24261D1*
X16008Y24189D1*
Y24142D1*
X16032Y24070D1*
X16104Y24022D1*
X16223Y23998D1*
X16343D1*
X16438Y24022D1*
X16487Y24070D1*
X16510Y24142D1*
Y24166D1*
X16487Y24237D1*
X16438Y24285D1*
X16367Y24309D1*
X16343D1*
X16271Y24285D1*
X16223Y24237D1*
X16200Y24166D1*
Y24142D1*
X16223Y24070D1*
X16271Y24022D1*
X16343Y23998D1*
X5247Y23222D2*
Y23437D1*
X5223Y23509D1*
X5199Y23534D1*
X5152Y23557D1*
X5104D1*
X5056Y23534D1*
X5032Y23509D1*
X5008Y23437D1*
Y23222D1*
X5510D1*
X5247Y23390D2*
X5510Y23557D1*
X5104Y23712D2*
X5080Y23760D1*
X5008Y23832D1*
X5510D1*
Y24082D2*
X5008Y24321D1*
Y23986D1*
X8247Y23223D2*
Y23438D1*
X8223Y23509D1*
X8199Y23534D1*
X8152Y23558D1*
X8104D1*
X8056Y23534D1*
X8032Y23509D1*
X8008Y23438D1*
Y23223D1*
X8510D1*
X8247Y23390D2*
X8510Y23558D1*
X8104Y23712D2*
X8080Y23760D1*
X8008Y23832D1*
X8510D1*
X8008Y24106D2*
X8032Y24034D1*
X8080Y24010D1*
X8128D1*
X8175Y24034D1*
X8200Y24082D1*
X8223Y24178D1*
X8247Y24249D1*
X8295Y24297D1*
X8343Y24321D1*
X8415D1*
X8462Y24297D1*
X8487Y24273D1*
X8510Y24201D1*
Y24106D1*
X8487Y24034D1*
X8462Y24010D1*
X8415Y23986D1*
X8343D1*
X8295Y24010D1*
X8247Y24058D1*
X8223Y24129D1*
X8200Y24225D1*
X8175Y24273D1*
X8128Y24297D1*
X8080D1*
X8032Y24273D1*
X8008Y24201D1*
Y24106D1*
X11247Y23234D2*
Y23449D1*
X11223Y23521D1*
X11199Y23545D1*
X11152Y23569D1*
X11104D1*
X11056Y23545D1*
X11032Y23521D1*
X11008Y23449D1*
Y23234D1*
X11510D1*
X11247Y23402D2*
X11510Y23569D1*
X11104Y23724D2*
X11080Y23772D1*
X11008Y23844D1*
X11510D1*
X11175Y24309D2*
X11247Y24285D1*
X11295Y24237D1*
X11319Y24165D1*
Y24142D1*
X11295Y24070D1*
X11247Y24022D1*
X11175Y23998D1*
X11152D1*
X11080Y24022D1*
X11032Y24070D1*
X11008Y24142D1*
Y24165D1*
X11032Y24237D1*
X11080Y24285D1*
X11175Y24309D1*
X11295D1*
X11415Y24285D1*
X11487Y24237D1*
X11510Y24165D1*
Y24118D1*
X11487Y24046D1*
X11438Y24022D1*
X14247Y23115D2*
Y23330D1*
X14223Y23402D1*
X14199Y23426D1*
X14152Y23450D1*
X14104D1*
X14056Y23426D1*
X14032Y23402D1*
X14008Y23330D1*
Y23115D1*
X14510D1*
X14247Y23282D2*
X14510Y23450D1*
X14128Y23629D2*
X14104D1*
X14056Y23652D1*
X14032Y23676D1*
X14008Y23724D1*
Y23820D1*
X14032Y23867D1*
X14056Y23891D1*
X14104Y23915D1*
X14152D1*
X14200Y23891D1*
X14271Y23844D1*
X14510Y23604D1*
Y23939D1*
X14008Y24237D2*
X14032Y24165D1*
X14104Y24117D1*
X14223Y24094D1*
X14295D1*
X14415Y24117D1*
X14487Y24165D1*
X14510Y24237D1*
Y24285D1*
X14487Y24357D1*
X14415Y24404D1*
X14295Y24428D1*
X14223D1*
X14104Y24404D1*
X14032Y24357D1*
X14008Y24285D1*
Y24237D1*
X14104Y24404D2*
X14415Y24117D1*
X7747Y29222D2*
Y29437D1*
X7723Y29509D1*
X7699Y29534D1*
X7652Y29557D1*
X7604D1*
X7556Y29534D1*
X7532Y29509D1*
X7508Y29437D1*
Y29222D1*
X8010D1*
X7747Y29390D2*
X8010Y29557D1*
X7628Y29736D2*
X7604D1*
X7556Y29760D1*
X7532Y29784D1*
X7508Y29832D1*
Y29927D1*
X7532Y29975D1*
X7556Y29999D1*
X7604Y30023D1*
X7652D1*
X7700Y29999D1*
X7771Y29951D1*
X8010Y29712D1*
Y30047D1*
X7604Y30201D2*
X7580Y30249D1*
X7508Y30321D1*
X8010D1*
X7747Y27865D2*
Y28080D1*
X7723Y28152D1*
X7699Y28176D1*
X7652Y28200D1*
X7604D1*
X7556Y28176D1*
X7532Y28152D1*
X7508Y28080D1*
Y27865D1*
X8010D1*
X7747Y28032D2*
X8010Y28200D1*
X7628Y28379D2*
X7604D1*
X7556Y28402D1*
X7532Y28426D1*
X7508Y28474D1*
Y28570D1*
X7532Y28617D1*
X7556Y28641D1*
X7604Y28665D1*
X7652D1*
X7700Y28641D1*
X7771Y28594D1*
X8010Y28354D1*
Y28689D1*
X7628Y28868D2*
X7604D1*
X7556Y28892D1*
X7532Y28915D1*
X7508Y28963D1*
Y29059D1*
X7532Y29107D1*
X7556Y29130D1*
X7604Y29155D1*
X7652D1*
X7700Y29130D1*
X7771Y29083D1*
X8010Y28844D1*
Y29178D1*
X28372Y30990D2*
Y31205D1*
X28348Y31277D1*
X28324Y31301D1*
X28277Y31325D1*
X28229D1*
X28181Y31301D1*
X28157Y31277D1*
X28133Y31205D1*
Y30990D1*
X28635D1*
X28372Y31157D2*
X28635Y31325D1*
X28253Y31504D2*
X28229D1*
X28181Y31527D1*
X28157Y31551D1*
X28133Y31599D1*
Y31695D1*
X28157Y31742D1*
X28181Y31766D1*
X28229Y31790D1*
X28277D1*
X28325Y31766D1*
X28396Y31719D1*
X28635Y31479D1*
Y31814D1*
X28133Y32017D2*
Y32279D1*
X28325Y32136D1*
Y32208D1*
X28348Y32255D1*
X28372Y32279D1*
X28444Y32303D1*
X28492D1*
X28563Y32279D1*
X28612Y32232D1*
X28635Y32160D1*
Y32088D1*
X28612Y32017D1*
X28587Y31993D1*
X28540Y31969D1*
X27372Y30978D2*
Y31193D1*
X27348Y31265D1*
X27324Y31289D1*
X27277Y31313D1*
X27229D1*
X27181Y31289D1*
X27157Y31265D1*
X27133Y31193D1*
Y30978D1*
X27635D1*
X27372Y31145D2*
X27635Y31313D1*
X27253Y31492D2*
X27229D1*
X27181Y31515D1*
X27157Y31539D1*
X27133Y31587D1*
Y31683D1*
X27157Y31730D1*
X27181Y31754D1*
X27229Y31778D1*
X27277D1*
X27325Y31754D1*
X27396Y31707D1*
X27635Y31467D1*
Y31802D1*
Y32196D2*
X27133D1*
X27468Y31957D1*
Y32315D1*
X25492Y23570D2*
X25684Y23331D1*
Y23068D1*
X25875Y23570D2*
X25684Y23331D1*
X26029Y23474D2*
X26077Y23498D1*
X26149Y23570D1*
Y23068D1*
M02*
