G04 DipTrace 2.3.1.0*
%INuCANHub_Bottom.gbl*%
%MOIN*%
%ADD13C,0.024*%
%ADD14C,0.0236*%
%ADD15C,0.01*%
%ADD16C,0.025*%
%ADD23C,0.0591*%
%ADD38O,0.1772X0.0866*%
%ADD39O,0.0866X0.1772*%
%FSLAX44Y44*%
G04*
G70*
G90*
G75*
G01*
%LNBottom*%
%LPD*%
X15748Y29921D2*
D13*
X12205D1*
X11417Y29134D1*
X22312Y16312D2*
X21562D1*
X18062Y23187D2*
Y25687D1*
X33812Y22937D2*
X35062D1*
X36687Y24562D1*
X26562Y23937D2*
D15*
Y23687D1*
X28187Y22062D1*
Y20187D1*
X26937Y23937D2*
Y23687D1*
X28562Y22062D1*
Y19937D1*
X17687Y25187D2*
X8687D1*
X7937Y24437D1*
X17437Y24937D2*
X11437D1*
X10937Y24437D1*
X17687Y24687D2*
X14187D1*
X13937Y24437D1*
X17687Y24187D2*
X7937D1*
X7187Y23437D1*
X24937Y25437D2*
X26437D1*
X26937Y24937D1*
X35687D1*
X17437Y23937D2*
X10687D1*
X10187Y23437D1*
X25062Y24562D2*
X25187Y24687D1*
X35187D1*
X17687Y23687D2*
X13437D1*
X13187Y23437D1*
X24812Y24312D2*
X25187D1*
X25312Y24437D1*
X34687D1*
X17437Y23437D2*
X16187D1*
X25062Y24062D2*
X25312D1*
X25437Y24187D1*
X34187D1*
X6813Y21687D2*
D13*
X6685D1*
X5437Y22935D1*
Y27687D1*
Y32469D1*
X5587Y32618D1*
X9813Y21687D2*
X6813D1*
X12813D2*
X9813D1*
X15812D2*
X12813D1*
X40437Y9937D2*
Y9437D1*
X39937Y8937D1*
Y4437D1*
X33937D1*
X25937D1*
X19937D1*
X5562D1*
X5437Y4562D1*
Y11812D1*
Y22935D1*
X34437Y9937D2*
Y9437D1*
X33937Y8937D1*
Y4437D1*
X26437Y9937D2*
Y9437D1*
X25937Y8937D1*
Y4437D1*
X20437Y9937D2*
Y9437D1*
X19937Y8937D1*
Y4437D1*
X8437Y27687D2*
X5437D1*
X16187Y27812D2*
X8562D1*
X8437Y27687D1*
X16687Y11812D2*
X5437D1*
X22687D2*
X18312D1*
X16687D1*
X30687D2*
X22687D1*
X36687D2*
X32312D1*
X30687D1*
X18312Y16981D2*
Y11812D1*
X32312Y16981D2*
Y11812D1*
X38937Y26062D2*
X32812D1*
X31062Y27812D1*
X23687D1*
X16187D1*
X37437Y30437D2*
X36937Y29937D1*
Y29437D1*
X35312Y27812D1*
X31062D1*
X31437Y30437D2*
X30937Y29937D1*
Y29437D1*
X31062Y29562D1*
Y27812D1*
X32812Y25687D2*
Y26062D1*
X23687Y22437D2*
Y24687D1*
Y24937D1*
Y27812D1*
X27937Y21812D2*
X24312D1*
X23687Y22437D1*
X25562Y24937D2*
D15*
X23687D1*
X22728Y24687D2*
D13*
X23687D1*
X36812Y25187D2*
D15*
X28312D1*
X28062Y25437D2*
X31937D1*
X22187Y24312D2*
D13*
Y25562D1*
X21062Y26687D1*
X28562Y31687D2*
X27312D1*
D14*
X15748Y29921D3*
X11417Y29134D3*
X22312Y16312D3*
X21562D3*
X18062Y23187D3*
Y25687D3*
X33812Y22937D3*
X36687Y24562D3*
X26562Y23937D3*
X28187Y20187D3*
X26937Y23937D3*
X28562Y19937D3*
X17687Y25187D3*
X7937Y24437D3*
D3*
X17437Y24937D3*
X10937Y24437D3*
D3*
X17687Y24687D3*
X13937Y24437D3*
X17687Y24187D3*
X7187Y23437D3*
X24937Y25437D3*
X35687Y24937D3*
X17437Y23937D3*
X10187Y23437D3*
X25062Y24562D3*
X35187Y24687D3*
X17687Y23687D3*
X13187Y23437D3*
X24812Y24312D3*
X34687Y24437D3*
X17437Y23437D3*
X16187D3*
X25062Y24062D3*
X34187Y24187D3*
X6813Y21687D3*
X9813D3*
X6813D3*
X12813D3*
X9813D3*
X15812D3*
X12813D3*
X8437Y27687D3*
X16187Y27812D3*
X8437Y27687D3*
X16687Y11812D3*
X22687D3*
X16687D3*
X30687D3*
X22687D3*
X36687D3*
X30687D3*
X18312Y16981D3*
X32312D3*
X38937Y26062D3*
X16187Y27812D3*
X32812Y25687D3*
X23687Y22437D3*
X27937Y21812D3*
X23687Y22437D3*
X25562Y24937D3*
X22728Y24687D3*
X36812Y25187D3*
X28312D3*
X28062Y25437D3*
X31937D3*
X22187Y24312D3*
X21062Y26687D3*
X28562Y31687D3*
X27312D3*
X4087Y35059D2*
D16*
X43156D1*
X4087Y34811D2*
X43156D1*
X4087Y34562D2*
X43156D1*
X4087Y34313D2*
X43156D1*
X4087Y34065D2*
X43156D1*
X4087Y33816D2*
X43156D1*
X4087Y33567D2*
X29805D1*
X31069D2*
X34305D1*
X35569D2*
X35805D1*
X37069D2*
X40305D1*
X41569D2*
X43156D1*
X4087Y33319D2*
X29625D1*
X31249D2*
X34125D1*
X37249D2*
X40125D1*
X41749D2*
X43156D1*
X4087Y33070D2*
X29547D1*
X31327D2*
X34047D1*
X37327D2*
X40047D1*
X41827D2*
X43156D1*
X4087Y32821D2*
X29547D1*
X31327D2*
X34047D1*
X37327D2*
X40047D1*
X41827D2*
X43156D1*
X4087Y32573D2*
X29617D1*
X31257D2*
X34117D1*
X37257D2*
X40117D1*
X41757D2*
X43156D1*
X4087Y32324D2*
X29789D1*
X31085D2*
X34289D1*
X35585D2*
X35789D1*
X37085D2*
X40289D1*
X41585D2*
X43156D1*
X4087Y32075D2*
X6762D1*
X8112D2*
X30262D1*
X30612D2*
X34762D1*
X35112D2*
X36262D1*
X36612D2*
X40762D1*
X41112D2*
X43156D1*
X4087Y31826D2*
X6418D1*
X8456D2*
X26961D1*
X28913D2*
X43156D1*
X4087Y31578D2*
X6305D1*
X8569D2*
X26949D1*
X28925D2*
X43156D1*
X4087Y31329D2*
X6301D1*
X8573D2*
X43156D1*
X4087Y31080D2*
X6394D1*
X8480D2*
X43156D1*
X4087Y30832D2*
X6676D1*
X8198D2*
X32058D1*
X32816D2*
X33058D1*
X33816D2*
X34058D1*
X34816D2*
X38058D1*
X38816D2*
X39058D1*
X39816D2*
X40058D1*
X40816D2*
X43156D1*
X4087Y30583D2*
X31902D1*
X34972D2*
X37902D1*
X40972D2*
X43156D1*
X4087Y30334D2*
X31891D1*
X34983D2*
X37891D1*
X40983D2*
X43156D1*
X4087Y30086D2*
X11844D1*
X16089D2*
X32016D1*
X32858D2*
X33012D1*
X33858D2*
X34012D1*
X34858D2*
X38016D1*
X38858D2*
X39012D1*
X39858D2*
X40012D1*
X40858D2*
X43156D1*
X4087Y29837D2*
X11594D1*
X16116D2*
X31562D1*
X32312D2*
X32562D1*
X33312D2*
X33562D1*
X34312D2*
X37562D1*
X38312D2*
X38562D1*
X39312D2*
X39562D1*
X40312D2*
X43156D1*
X4087Y29588D2*
X11344D1*
X15898D2*
X31402D1*
X34472D2*
X37402D1*
X40472D2*
X43156D1*
X4087Y29340D2*
X11101D1*
X12151D2*
X31391D1*
X34483D2*
X37391D1*
X40483D2*
X43156D1*
X4087Y29091D2*
X11039D1*
X11901D2*
X31512D1*
X32362D2*
X32512D1*
X33362D2*
X33512D1*
X34362D2*
X37512D1*
X38362D2*
X38512D1*
X39362D2*
X39512D1*
X40362D2*
X43156D1*
X4087Y28842D2*
X11191D1*
X11644D2*
X43156D1*
X4087Y28594D2*
X43156D1*
X4087Y28345D2*
X43156D1*
X4087Y28096D2*
X43156D1*
X4087Y27847D2*
X43156D1*
X4087Y27599D2*
X43156D1*
X4087Y27350D2*
X43156D1*
X4087Y27101D2*
X43156D1*
X4087Y26853D2*
X20723D1*
X21425D2*
X43156D1*
X4087Y26604D2*
X20691D1*
X21671D2*
X43156D1*
X4087Y26355D2*
X20867D1*
X21921D2*
X43156D1*
X4087Y26107D2*
X21117D1*
X22171D2*
X43156D1*
X4087Y25858D2*
X17726D1*
X18398D2*
X21363D1*
X22417D2*
X43156D1*
X4087Y25609D2*
X17683D1*
X18441D2*
X21613D1*
X22566D2*
X24605D1*
X26694D2*
X27730D1*
X32269D2*
X43156D1*
X4087Y25361D2*
X8433D1*
X18441D2*
X21808D1*
X22566D2*
X24566D1*
X26941D2*
X27691D1*
X37144D2*
X43156D1*
X4087Y25112D2*
X8183D1*
X18441D2*
X21808D1*
X22566D2*
X24773D1*
X25101D2*
X26336D1*
X37183D2*
X43156D1*
X4087Y24863D2*
X7933D1*
X8792D2*
X10933D1*
X18441D2*
X21808D1*
X22566D2*
X24851D1*
X36058D2*
X36473D1*
X36976D2*
X43156D1*
X4087Y24615D2*
X7605D1*
X8542D2*
X10605D1*
X11542D2*
X13605D1*
X18441D2*
X21808D1*
X22566D2*
X24605D1*
X35855D2*
X36211D1*
X37062D2*
X43156D1*
X4087Y24366D2*
X7566D1*
X18441D2*
X21808D1*
X22566D2*
X24437D1*
X35358D2*
X35965D1*
X37007D2*
X43156D1*
X4087Y24117D2*
X7437D1*
X18441D2*
X21867D1*
X22507D2*
X24492D1*
X34862D2*
X35715D1*
X36769D2*
X43156D1*
X4087Y23868D2*
X7191D1*
X8046D2*
X10191D1*
X18441D2*
X24742D1*
X25546D2*
X26191D1*
X27308D2*
X34012D1*
X34362D2*
X35465D1*
X36519D2*
X43156D1*
X4087Y23620D2*
X6859D1*
X7796D2*
X9859D1*
X10796D2*
X12859D1*
X18441D2*
X26262D1*
X27433D2*
X35219D1*
X36273D2*
X43156D1*
X4087Y23371D2*
X6816D1*
X7558D2*
X9816D1*
X10558D2*
X12816D1*
X13558D2*
X15816D1*
X18441D2*
X26449D1*
X27683D2*
X34969D1*
X36023D2*
X43156D1*
X4087Y23122D2*
X7004D1*
X7370D2*
X10004D1*
X10370D2*
X13004D1*
X13370D2*
X16004D1*
X16370D2*
X17254D1*
X18437D2*
X26699D1*
X27929D2*
X33484D1*
X35773D2*
X43156D1*
X4087Y22874D2*
X17871D1*
X18253D2*
X26949D1*
X28179D2*
X33437D1*
X35526D2*
X43156D1*
X4087Y22625D2*
X27195D1*
X28429D2*
X33617D1*
X35257D2*
X43156D1*
X4087Y22376D2*
X27445D1*
X28675D2*
X43156D1*
X4087Y22128D2*
X27695D1*
X28862D2*
X43156D1*
X4087Y21879D2*
X27879D1*
X28870D2*
X43156D1*
X4087Y21630D2*
X27879D1*
X28870D2*
X43156D1*
X4087Y21382D2*
X27879D1*
X28870D2*
X43156D1*
X4087Y21133D2*
X27879D1*
X28870D2*
X43156D1*
X4087Y20884D2*
X27879D1*
X28870D2*
X43156D1*
X4087Y20635D2*
X27879D1*
X28870D2*
X43156D1*
X4087Y20387D2*
X27871D1*
X28870D2*
X43156D1*
X4087Y20138D2*
X27812D1*
X28878D2*
X43156D1*
X4087Y19889D2*
X27973D1*
X28937D2*
X43156D1*
X4087Y19641D2*
X28344D1*
X28780D2*
X43156D1*
X4087Y19392D2*
X43156D1*
X4087Y19143D2*
X43156D1*
X4087Y18895D2*
X43156D1*
X4087Y18646D2*
X43156D1*
X4087Y18397D2*
X43156D1*
X4087Y18149D2*
X43156D1*
X4087Y17900D2*
X43156D1*
X4087Y17651D2*
X43156D1*
X4087Y17403D2*
X43156D1*
X4087Y17154D2*
X43156D1*
X4087Y16905D2*
X43156D1*
X4087Y16656D2*
X21453D1*
X22421D2*
X43156D1*
X4087Y16408D2*
X21195D1*
X22679D2*
X43156D1*
X4087Y16159D2*
X21219D1*
X22655D2*
X43156D1*
X4087Y15910D2*
X43156D1*
X4087Y15662D2*
X43156D1*
X4087Y15413D2*
X43156D1*
X4087Y15164D2*
X43156D1*
X4087Y14916D2*
X43156D1*
X4087Y14667D2*
X43156D1*
X4087Y14418D2*
X43156D1*
X4087Y14170D2*
X43156D1*
X4087Y13921D2*
X43156D1*
X4087Y13672D2*
X43156D1*
X4087Y13424D2*
X43156D1*
X4087Y13175D2*
X43156D1*
X4087Y12926D2*
X43156D1*
X4087Y12677D2*
X43156D1*
X4087Y12429D2*
X43156D1*
X4087Y12180D2*
X43156D1*
X4087Y11931D2*
X43156D1*
X4087Y11683D2*
X43156D1*
X4087Y11434D2*
X43156D1*
X4087Y11185D2*
X43156D1*
X4087Y10937D2*
X43156D1*
X4087Y10688D2*
X43156D1*
X4087Y10439D2*
X17242D1*
X17632D2*
X18242D1*
X18632D2*
X19242D1*
X19632D2*
X23242D1*
X23632D2*
X24242D1*
X24632D2*
X25242D1*
X25632D2*
X31242D1*
X31632D2*
X32242D1*
X32632D2*
X33242D1*
X33632D2*
X37242D1*
X37632D2*
X38242D1*
X38632D2*
X39242D1*
X39632D2*
X43156D1*
X4087Y10191D2*
X16945D1*
X19929D2*
X22945D1*
X25929D2*
X30945D1*
X33929D2*
X36945D1*
X39929D2*
X43156D1*
X4087Y9942D2*
X16883D1*
X19991D2*
X22883D1*
X25991D2*
X30883D1*
X33991D2*
X36883D1*
X39991D2*
X43156D1*
X4087Y9693D2*
X16941D1*
X19933D2*
X22941D1*
X25933D2*
X30941D1*
X33933D2*
X36941D1*
X39933D2*
X43156D1*
X4087Y9445D2*
X16758D1*
X17116D2*
X17215D1*
X17659D2*
X17756D1*
X18116D2*
X18215D1*
X18659D2*
X18756D1*
X19116D2*
X19215D1*
X19659D2*
X22758D1*
X23116D2*
X23215D1*
X23659D2*
X23756D1*
X24116D2*
X24215D1*
X24659D2*
X24756D1*
X25116D2*
X25215D1*
X25659D2*
X30758D1*
X31116D2*
X31215D1*
X31659D2*
X31756D1*
X32116D2*
X32215D1*
X32659D2*
X32756D1*
X33116D2*
X33215D1*
X33659D2*
X36758D1*
X37116D2*
X37215D1*
X37659D2*
X37756D1*
X38116D2*
X38215D1*
X38659D2*
X38756D1*
X39116D2*
X39215D1*
X39659D2*
X43156D1*
X4087Y9196D2*
X16449D1*
X19425D2*
X22449D1*
X25425D2*
X30449D1*
X33425D2*
X36449D1*
X39425D2*
X43156D1*
X4087Y8947D2*
X16383D1*
X19491D2*
X22383D1*
X25491D2*
X30383D1*
X33491D2*
X36383D1*
X39491D2*
X43156D1*
X4087Y8698D2*
X16437D1*
X19437D2*
X22437D1*
X25437D2*
X30437D1*
X33437D2*
X36437D1*
X39437D2*
X43156D1*
X4087Y8450D2*
X16703D1*
X17171D2*
X17703D1*
X18171D2*
X18703D1*
X19171D2*
X22703D1*
X23171D2*
X23703D1*
X24171D2*
X24703D1*
X25171D2*
X30703D1*
X31171D2*
X31703D1*
X32171D2*
X32703D1*
X33171D2*
X36703D1*
X37171D2*
X37703D1*
X38171D2*
X38703D1*
X39171D2*
X43156D1*
X4087Y8201D2*
X43156D1*
X4087Y7952D2*
X43156D1*
X4087Y7704D2*
X43156D1*
X4087Y7455D2*
X43156D1*
X4087Y7206D2*
X15996D1*
X16878D2*
X20496D1*
X21378D2*
X21996D1*
X22878D2*
X26496D1*
X27378D2*
X29996D1*
X30878D2*
X34496D1*
X35378D2*
X35996D1*
X36878D2*
X40496D1*
X41378D2*
X43156D1*
X4087Y6958D2*
X15711D1*
X17163D2*
X20211D1*
X23163D2*
X26211D1*
X27663D2*
X29711D1*
X31163D2*
X34211D1*
X37163D2*
X40211D1*
X41663D2*
X43156D1*
X4087Y6709D2*
X15582D1*
X17292D2*
X20082D1*
X23292D2*
X26082D1*
X27792D2*
X29582D1*
X31292D2*
X34082D1*
X37292D2*
X40082D1*
X41792D2*
X43156D1*
X4087Y6460D2*
X15539D1*
X17335D2*
X20039D1*
X23335D2*
X26039D1*
X27835D2*
X29539D1*
X31335D2*
X34039D1*
X37335D2*
X40039D1*
X41835D2*
X43156D1*
X4087Y6212D2*
X15566D1*
X17308D2*
X20066D1*
X23308D2*
X26066D1*
X27808D2*
X29566D1*
X31308D2*
X34066D1*
X37308D2*
X40066D1*
X41808D2*
X43156D1*
X4087Y5963D2*
X15676D1*
X17198D2*
X20176D1*
X23198D2*
X26176D1*
X27698D2*
X29676D1*
X31198D2*
X34176D1*
X37198D2*
X40176D1*
X41698D2*
X43156D1*
X4087Y5714D2*
X15918D1*
X16956D2*
X20418D1*
X21456D2*
X21918D1*
X22956D2*
X26418D1*
X27456D2*
X29918D1*
X30956D2*
X34418D1*
X35456D2*
X35918D1*
X36956D2*
X40418D1*
X41456D2*
X43156D1*
X4087Y5466D2*
X43156D1*
X4087Y5217D2*
X43156D1*
X4087Y4968D2*
X43156D1*
X4087Y4719D2*
X43156D1*
X4087Y4471D2*
X43156D1*
X4087Y4222D2*
X43156D1*
X37435Y8766D2*
X37409Y8696D1*
X37340Y8592D1*
X37249Y8508D1*
X37140Y8447D1*
X37020Y8413D1*
X36895Y8408D1*
X36773Y8433D1*
X36660Y8485D1*
X36562Y8562D1*
X36485Y8660D1*
X36432Y8774D1*
X36408Y8896D1*
X36413Y9021D1*
X36447Y9141D1*
X36509Y9249D1*
X36593Y9341D1*
X36697Y9410D1*
X36814Y9453D1*
X36938Y9467D1*
X37062Y9452D1*
X37179Y9409D1*
X37282Y9339D1*
X37367Y9248D1*
X37435Y9112D1*
X37509Y9249D1*
X37593Y9341D1*
X37697Y9410D1*
X37814Y9453D1*
X37938Y9467D1*
X38062Y9452D1*
X38179Y9409D1*
X38282Y9339D1*
X38367Y9248D1*
X38435Y9112D1*
X38509Y9249D1*
X38593Y9341D1*
X38697Y9410D1*
X38814Y9453D1*
X38938Y9467D1*
X39062Y9452D1*
X39179Y9409D1*
X39282Y9339D1*
X39367Y9248D1*
X39427Y9139D1*
X39461Y9019D1*
X39467Y8937D1*
X39453Y8813D1*
X39409Y8696D1*
X39340Y8592D1*
X39249Y8508D1*
X39140Y8447D1*
X39020Y8413D1*
X38895Y8408D1*
X38773Y8433D1*
X38660Y8485D1*
X38562Y8562D1*
X38485Y8660D1*
X38437Y8763D1*
X38409Y8696D1*
X38340Y8592D1*
X38249Y8508D1*
X38140Y8447D1*
X38020Y8413D1*
X37895Y8408D1*
X37773Y8433D1*
X37660Y8485D1*
X37562Y8562D1*
X37485Y8660D1*
X37437Y8763D1*
X37935Y9766D2*
X37909Y9696D1*
X37840Y9592D1*
X37749Y9508D1*
X37640Y9447D1*
X37520Y9413D1*
X37395Y9408D1*
X37273Y9433D1*
X37160Y9485D1*
X37062Y9562D1*
X36985Y9660D1*
X36932Y9774D1*
X36908Y9896D1*
X36913Y10021D1*
X36947Y10141D1*
X37009Y10249D1*
X37093Y10341D1*
X37197Y10410D1*
X37314Y10453D1*
X37438Y10467D1*
X37562Y10452D1*
X37679Y10409D1*
X37782Y10339D1*
X37867Y10248D1*
X37935Y10112D1*
X38009Y10249D1*
X38093Y10341D1*
X38197Y10410D1*
X38314Y10453D1*
X38438Y10467D1*
X38562Y10452D1*
X38679Y10409D1*
X38782Y10339D1*
X38867Y10248D1*
X38935Y10112D1*
X39009Y10249D1*
X39093Y10341D1*
X39197Y10410D1*
X39314Y10453D1*
X39438Y10467D1*
X39562Y10452D1*
X39679Y10409D1*
X39782Y10339D1*
X39867Y10248D1*
X39927Y10139D1*
X39961Y10018D1*
X39967Y9937D1*
X39953Y9813D1*
X39909Y9696D1*
X39840Y9592D1*
X39749Y9508D1*
X39640Y9447D1*
X39520Y9413D1*
X39395Y9408D1*
X39273Y9433D1*
X39160Y9485D1*
X39062Y9562D1*
X38985Y9660D1*
X38937Y9763D1*
X38909Y9696D1*
X38840Y9592D1*
X38749Y9508D1*
X38640Y9447D1*
X38520Y9413D1*
X38395Y9408D1*
X38273Y9433D1*
X38160Y9485D1*
X38062Y9562D1*
X37985Y9660D1*
X37937Y9763D1*
X37303Y6312D2*
X37276Y6190D1*
X37233Y6073D1*
X37173Y5964D1*
X37098Y5864D1*
X37009Y5776D1*
X36909Y5701D1*
X36800Y5641D1*
X36683Y5597D1*
X36561Y5571D1*
X36436Y5562D1*
X36312Y5571D1*
X36190Y5598D1*
X36073Y5642D1*
X35963Y5702D1*
X35863Y5777D1*
X35775Y5865D1*
X35687Y5989D1*
X35598Y5864D1*
X35509Y5776D1*
X35409Y5701D1*
X35300Y5641D1*
X35183Y5597D1*
X35061Y5571D1*
X34936Y5562D1*
X34812Y5571D1*
X34690Y5598D1*
X34573Y5642D1*
X34463Y5702D1*
X34363Y5777D1*
X34275Y5865D1*
X34200Y5965D1*
X34141Y6075D1*
X34097Y6192D1*
X34071Y6314D1*
X34062Y6439D1*
X34071Y6563D1*
X34098Y6685D1*
X34142Y6802D1*
X34202Y6912D1*
X34277Y7012D1*
X34366Y7100D1*
X34466Y7174D1*
X34576Y7234D1*
X34693Y7277D1*
X34815Y7303D1*
X34940Y7312D1*
X35064Y7302D1*
X35186Y7276D1*
X35303Y7231D1*
X35413Y7171D1*
X35512Y7096D1*
X35600Y7007D1*
X35688Y6883D1*
X35777Y7012D1*
X35866Y7100D1*
X35966Y7174D1*
X36076Y7234D1*
X36193Y7277D1*
X36315Y7303D1*
X36440Y7312D1*
X36564Y7302D1*
X36686Y7276D1*
X36803Y7231D1*
X36913Y7171D1*
X37012Y7096D1*
X37100Y7007D1*
X37175Y6907D1*
X37234Y6797D1*
X37277Y6680D1*
X37303Y6558D1*
X37312Y6437D1*
X37303Y6312D1*
X41803D2*
X41776Y6190D1*
X41733Y6073D1*
X41673Y5964D1*
X41598Y5864D1*
X41509Y5776D1*
X41409Y5701D1*
X41300Y5641D1*
X41183Y5597D1*
X41061Y5571D1*
X40936Y5562D1*
X40812Y5571D1*
X40690Y5598D1*
X40573Y5642D1*
X40463Y5702D1*
X40363Y5777D1*
X40275Y5865D1*
X40200Y5965D1*
X40141Y6075D1*
X40097Y6192D1*
X40071Y6314D1*
X40062Y6439D1*
X40071Y6563D1*
X40098Y6685D1*
X40142Y6802D1*
X40202Y6912D1*
X40277Y7012D1*
X40366Y7100D1*
X40466Y7174D1*
X40576Y7234D1*
X40693Y7277D1*
X40815Y7303D1*
X40940Y7312D1*
X41064Y7302D1*
X41186Y7276D1*
X41303Y7231D1*
X41413Y7171D1*
X41512Y7096D1*
X41600Y7007D1*
X41675Y6907D1*
X41734Y6797D1*
X41777Y6680D1*
X41803Y6558D1*
X41812Y6437D1*
X41803Y6312D1*
X31435Y8766D2*
X31409Y8696D1*
X31340Y8592D1*
X31249Y8508D1*
X31140Y8447D1*
X31020Y8413D1*
X30895Y8408D1*
X30773Y8433D1*
X30660Y8485D1*
X30562Y8562D1*
X30485Y8660D1*
X30432Y8774D1*
X30408Y8896D1*
X30413Y9021D1*
X30447Y9141D1*
X30509Y9249D1*
X30593Y9341D1*
X30697Y9410D1*
X30814Y9453D1*
X30938Y9467D1*
X31062Y9452D1*
X31179Y9409D1*
X31282Y9339D1*
X31367Y9248D1*
X31435Y9112D1*
X31509Y9249D1*
X31593Y9341D1*
X31697Y9410D1*
X31814Y9453D1*
X31938Y9467D1*
X32062Y9452D1*
X32179Y9409D1*
X32282Y9339D1*
X32367Y9248D1*
X32435Y9112D1*
X32509Y9249D1*
X32593Y9341D1*
X32697Y9410D1*
X32814Y9453D1*
X32938Y9467D1*
X33062Y9452D1*
X33179Y9409D1*
X33282Y9339D1*
X33367Y9248D1*
X33427Y9139D1*
X33461Y9019D1*
X33467Y8937D1*
X33453Y8813D1*
X33409Y8696D1*
X33340Y8592D1*
X33249Y8508D1*
X33140Y8447D1*
X33020Y8413D1*
X32895Y8408D1*
X32773Y8433D1*
X32660Y8485D1*
X32562Y8562D1*
X32485Y8660D1*
X32437Y8763D1*
X32409Y8696D1*
X32340Y8592D1*
X32249Y8508D1*
X32140Y8447D1*
X32020Y8413D1*
X31895Y8408D1*
X31773Y8433D1*
X31660Y8485D1*
X31562Y8562D1*
X31485Y8660D1*
X31437Y8763D1*
X31935Y9766D2*
X31909Y9696D1*
X31840Y9592D1*
X31749Y9508D1*
X31640Y9447D1*
X31520Y9413D1*
X31395Y9408D1*
X31273Y9433D1*
X31160Y9485D1*
X31062Y9562D1*
X30985Y9660D1*
X30932Y9774D1*
X30908Y9896D1*
X30913Y10021D1*
X30947Y10141D1*
X31009Y10249D1*
X31093Y10341D1*
X31197Y10410D1*
X31314Y10453D1*
X31438Y10467D1*
X31562Y10452D1*
X31679Y10409D1*
X31782Y10339D1*
X31867Y10248D1*
X31935Y10112D1*
X32009Y10249D1*
X32093Y10341D1*
X32197Y10410D1*
X32314Y10453D1*
X32438Y10467D1*
X32562Y10452D1*
X32679Y10409D1*
X32782Y10339D1*
X32867Y10248D1*
X32935Y10112D1*
X33009Y10249D1*
X33093Y10341D1*
X33197Y10410D1*
X33314Y10453D1*
X33438Y10467D1*
X33562Y10452D1*
X33679Y10409D1*
X33782Y10339D1*
X33867Y10248D1*
X33927Y10139D1*
X33961Y10018D1*
X33967Y9937D1*
X33953Y9813D1*
X33909Y9696D1*
X33840Y9592D1*
X33749Y9508D1*
X33640Y9447D1*
X33520Y9413D1*
X33395Y9408D1*
X33273Y9433D1*
X33160Y9485D1*
X33062Y9562D1*
X32985Y9660D1*
X32937Y9763D1*
X32909Y9696D1*
X32840Y9592D1*
X32749Y9508D1*
X32640Y9447D1*
X32520Y9413D1*
X32395Y9408D1*
X32273Y9433D1*
X32160Y9485D1*
X32062Y9562D1*
X31985Y9660D1*
X31937Y9763D1*
X31303Y6312D2*
X31276Y6190D1*
X31233Y6073D1*
X31173Y5964D1*
X31098Y5864D1*
X31009Y5776D1*
X30909Y5701D1*
X30800Y5641D1*
X30683Y5597D1*
X30561Y5571D1*
X30436Y5562D1*
X30312Y5571D1*
X30190Y5598D1*
X30073Y5642D1*
X29963Y5702D1*
X29863Y5777D1*
X29775Y5865D1*
X29700Y5965D1*
X29641Y6075D1*
X29597Y6192D1*
X29571Y6314D1*
X29562Y6439D1*
X29571Y6563D1*
X29598Y6685D1*
X29642Y6802D1*
X29702Y6912D1*
X29777Y7012D1*
X29866Y7100D1*
X29966Y7174D1*
X30076Y7234D1*
X30193Y7277D1*
X30315Y7303D1*
X30440Y7312D1*
X30564Y7302D1*
X30686Y7276D1*
X30803Y7231D1*
X30913Y7171D1*
X31012Y7096D1*
X31100Y7007D1*
X31175Y6907D1*
X31234Y6797D1*
X31277Y6680D1*
X31303Y6558D1*
X31312Y6437D1*
X31303Y6312D1*
X23435Y8766D2*
X23409Y8696D1*
X23340Y8592D1*
X23249Y8508D1*
X23140Y8447D1*
X23020Y8413D1*
X22895Y8408D1*
X22773Y8433D1*
X22660Y8485D1*
X22562Y8562D1*
X22485Y8660D1*
X22432Y8774D1*
X22408Y8896D1*
X22413Y9021D1*
X22447Y9141D1*
X22509Y9249D1*
X22593Y9341D1*
X22697Y9410D1*
X22814Y9453D1*
X22938Y9467D1*
X23062Y9452D1*
X23179Y9409D1*
X23282Y9339D1*
X23367Y9248D1*
X23435Y9112D1*
X23509Y9249D1*
X23593Y9341D1*
X23697Y9410D1*
X23814Y9453D1*
X23938Y9467D1*
X24062Y9452D1*
X24179Y9409D1*
X24282Y9339D1*
X24367Y9248D1*
X24435Y9112D1*
X24509Y9249D1*
X24593Y9341D1*
X24697Y9410D1*
X24814Y9453D1*
X24938Y9467D1*
X25062Y9452D1*
X25179Y9409D1*
X25282Y9339D1*
X25367Y9248D1*
X25427Y9139D1*
X25461Y9019D1*
X25467Y8937D1*
X25453Y8813D1*
X25409Y8696D1*
X25340Y8592D1*
X25249Y8508D1*
X25140Y8447D1*
X25020Y8413D1*
X24895Y8408D1*
X24773Y8433D1*
X24660Y8485D1*
X24562Y8562D1*
X24485Y8660D1*
X24437Y8763D1*
X24409Y8696D1*
X24340Y8592D1*
X24249Y8508D1*
X24140Y8447D1*
X24020Y8413D1*
X23895Y8408D1*
X23773Y8433D1*
X23660Y8485D1*
X23562Y8562D1*
X23485Y8660D1*
X23437Y8763D1*
X23935Y9766D2*
X23909Y9696D1*
X23840Y9592D1*
X23749Y9508D1*
X23640Y9447D1*
X23520Y9413D1*
X23395Y9408D1*
X23273Y9433D1*
X23160Y9485D1*
X23062Y9562D1*
X22985Y9660D1*
X22932Y9774D1*
X22908Y9896D1*
X22913Y10021D1*
X22947Y10141D1*
X23009Y10249D1*
X23093Y10341D1*
X23197Y10410D1*
X23314Y10453D1*
X23438Y10467D1*
X23562Y10452D1*
X23679Y10409D1*
X23782Y10339D1*
X23867Y10248D1*
X23935Y10112D1*
X24009Y10249D1*
X24093Y10341D1*
X24197Y10410D1*
X24314Y10453D1*
X24438Y10467D1*
X24562Y10452D1*
X24679Y10409D1*
X24782Y10339D1*
X24867Y10248D1*
X24935Y10112D1*
X25009Y10249D1*
X25093Y10341D1*
X25197Y10410D1*
X25314Y10453D1*
X25438Y10467D1*
X25562Y10452D1*
X25679Y10409D1*
X25782Y10339D1*
X25867Y10248D1*
X25927Y10139D1*
X25961Y10018D1*
X25967Y9937D1*
X25953Y9813D1*
X25909Y9696D1*
X25840Y9592D1*
X25749Y9508D1*
X25640Y9447D1*
X25520Y9413D1*
X25395Y9408D1*
X25273Y9433D1*
X25160Y9485D1*
X25062Y9562D1*
X24985Y9660D1*
X24937Y9763D1*
X24909Y9696D1*
X24840Y9592D1*
X24749Y9508D1*
X24640Y9447D1*
X24520Y9413D1*
X24395Y9408D1*
X24273Y9433D1*
X24160Y9485D1*
X24062Y9562D1*
X23985Y9660D1*
X23937Y9763D1*
X23303Y6312D2*
X23276Y6190D1*
X23233Y6073D1*
X23173Y5964D1*
X23098Y5864D1*
X23009Y5776D1*
X22909Y5701D1*
X22800Y5641D1*
X22683Y5597D1*
X22561Y5571D1*
X22436Y5562D1*
X22312Y5571D1*
X22190Y5598D1*
X22073Y5642D1*
X21963Y5702D1*
X21863Y5777D1*
X21775Y5865D1*
X21687Y5989D1*
X21598Y5864D1*
X21509Y5776D1*
X21409Y5701D1*
X21300Y5641D1*
X21183Y5597D1*
X21061Y5571D1*
X20936Y5562D1*
X20812Y5571D1*
X20690Y5598D1*
X20573Y5642D1*
X20463Y5702D1*
X20363Y5777D1*
X20275Y5865D1*
X20200Y5965D1*
X20141Y6075D1*
X20097Y6192D1*
X20071Y6314D1*
X20062Y6439D1*
X20071Y6563D1*
X20098Y6685D1*
X20142Y6802D1*
X20202Y6912D1*
X20277Y7012D1*
X20366Y7100D1*
X20466Y7174D1*
X20576Y7234D1*
X20693Y7277D1*
X20815Y7303D1*
X20940Y7312D1*
X21064Y7302D1*
X21186Y7276D1*
X21303Y7231D1*
X21413Y7171D1*
X21512Y7096D1*
X21600Y7007D1*
X21688Y6883D1*
X21777Y7012D1*
X21866Y7100D1*
X21966Y7174D1*
X22076Y7234D1*
X22193Y7277D1*
X22315Y7303D1*
X22440Y7312D1*
X22564Y7302D1*
X22686Y7276D1*
X22803Y7231D1*
X22913Y7171D1*
X23012Y7096D1*
X23100Y7007D1*
X23175Y6907D1*
X23234Y6797D1*
X23277Y6680D1*
X23303Y6558D1*
X23312Y6437D1*
X23303Y6312D1*
X27803D2*
X27776Y6190D1*
X27733Y6073D1*
X27673Y5964D1*
X27598Y5864D1*
X27509Y5776D1*
X27409Y5701D1*
X27300Y5641D1*
X27183Y5597D1*
X27061Y5571D1*
X26936Y5562D1*
X26812Y5571D1*
X26690Y5598D1*
X26573Y5642D1*
X26463Y5702D1*
X26363Y5777D1*
X26275Y5865D1*
X26200Y5965D1*
X26141Y6075D1*
X26097Y6192D1*
X26071Y6314D1*
X26062Y6439D1*
X26071Y6563D1*
X26098Y6685D1*
X26142Y6802D1*
X26202Y6912D1*
X26277Y7012D1*
X26366Y7100D1*
X26466Y7174D1*
X26576Y7234D1*
X26693Y7277D1*
X26815Y7303D1*
X26940Y7312D1*
X27064Y7302D1*
X27186Y7276D1*
X27303Y7231D1*
X27413Y7171D1*
X27512Y7096D1*
X27600Y7007D1*
X27675Y6907D1*
X27734Y6797D1*
X27777Y6680D1*
X27803Y6558D1*
X27812Y6437D1*
X27803Y6312D1*
X17435Y8766D2*
X17409Y8696D1*
X17340Y8592D1*
X17249Y8508D1*
X17140Y8447D1*
X17020Y8413D1*
X16895Y8408D1*
X16773Y8433D1*
X16660Y8485D1*
X16562Y8562D1*
X16485Y8660D1*
X16432Y8774D1*
X16408Y8896D1*
X16413Y9021D1*
X16447Y9141D1*
X16509Y9249D1*
X16593Y9341D1*
X16697Y9410D1*
X16814Y9453D1*
X16938Y9467D1*
X17062Y9452D1*
X17179Y9409D1*
X17282Y9339D1*
X17367Y9248D1*
X17435Y9112D1*
X17509Y9249D1*
X17593Y9341D1*
X17697Y9410D1*
X17814Y9453D1*
X17938Y9467D1*
X18062Y9452D1*
X18179Y9409D1*
X18282Y9339D1*
X18367Y9248D1*
X18435Y9112D1*
X18509Y9249D1*
X18593Y9341D1*
X18697Y9410D1*
X18814Y9453D1*
X18938Y9467D1*
X19062Y9452D1*
X19179Y9409D1*
X19282Y9339D1*
X19367Y9248D1*
X19427Y9139D1*
X19461Y9019D1*
X19467Y8937D1*
X19453Y8813D1*
X19409Y8696D1*
X19340Y8592D1*
X19249Y8508D1*
X19140Y8447D1*
X19020Y8413D1*
X18895Y8408D1*
X18773Y8433D1*
X18660Y8485D1*
X18562Y8562D1*
X18485Y8660D1*
X18437Y8763D1*
X18409Y8696D1*
X18340Y8592D1*
X18249Y8508D1*
X18140Y8447D1*
X18020Y8413D1*
X17895Y8408D1*
X17773Y8433D1*
X17660Y8485D1*
X17562Y8562D1*
X17485Y8660D1*
X17437Y8763D1*
X17935Y9766D2*
X17909Y9696D1*
X17840Y9592D1*
X17749Y9508D1*
X17640Y9447D1*
X17520Y9413D1*
X17395Y9408D1*
X17273Y9433D1*
X17160Y9485D1*
X17062Y9562D1*
X16985Y9660D1*
X16932Y9774D1*
X16908Y9896D1*
X16913Y10021D1*
X16947Y10141D1*
X17009Y10249D1*
X17093Y10341D1*
X17197Y10410D1*
X17314Y10453D1*
X17438Y10467D1*
X17562Y10452D1*
X17679Y10409D1*
X17782Y10339D1*
X17867Y10248D1*
X17935Y10112D1*
X18009Y10249D1*
X18093Y10341D1*
X18197Y10410D1*
X18314Y10453D1*
X18438Y10467D1*
X18562Y10452D1*
X18679Y10409D1*
X18782Y10339D1*
X18867Y10248D1*
X18935Y10112D1*
X19009Y10249D1*
X19093Y10341D1*
X19197Y10410D1*
X19314Y10453D1*
X19438Y10467D1*
X19562Y10452D1*
X19679Y10409D1*
X19782Y10339D1*
X19867Y10248D1*
X19927Y10139D1*
X19961Y10018D1*
X19967Y9937D1*
X19953Y9813D1*
X19909Y9696D1*
X19840Y9592D1*
X19749Y9508D1*
X19640Y9447D1*
X19520Y9413D1*
X19395Y9408D1*
X19273Y9433D1*
X19160Y9485D1*
X19062Y9562D1*
X18985Y9660D1*
X18937Y9763D1*
X18909Y9696D1*
X18840Y9592D1*
X18749Y9508D1*
X18640Y9447D1*
X18520Y9413D1*
X18395Y9408D1*
X18273Y9433D1*
X18160Y9485D1*
X18062Y9562D1*
X17985Y9660D1*
X17937Y9763D1*
X17303Y6312D2*
X17276Y6190D1*
X17233Y6073D1*
X17173Y5964D1*
X17098Y5864D1*
X17009Y5776D1*
X16909Y5701D1*
X16800Y5641D1*
X16683Y5597D1*
X16561Y5571D1*
X16436Y5562D1*
X16312Y5571D1*
X16190Y5598D1*
X16073Y5642D1*
X15963Y5702D1*
X15863Y5777D1*
X15775Y5865D1*
X15700Y5965D1*
X15641Y6075D1*
X15597Y6192D1*
X15571Y6314D1*
X15562Y6439D1*
X15571Y6563D1*
X15598Y6685D1*
X15642Y6802D1*
X15702Y6912D1*
X15777Y7012D1*
X15866Y7100D1*
X15966Y7174D1*
X16076Y7234D1*
X16193Y7277D1*
X16315Y7303D1*
X16440Y7312D1*
X16564Y7302D1*
X16686Y7276D1*
X16803Y7231D1*
X16913Y7171D1*
X17012Y7096D1*
X17100Y7007D1*
X17175Y6907D1*
X17234Y6797D1*
X17277Y6680D1*
X17303Y6558D1*
X17312Y6437D1*
X17303Y6312D1*
X34953Y30313D2*
X34909Y30196D1*
X34840Y30092D1*
X34749Y30008D1*
X34640Y29947D1*
X34520Y29913D1*
X34395Y29908D1*
X34273Y29933D1*
X34160Y29985D1*
X34062Y30062D1*
X33985Y30160D1*
X33937Y30263D1*
X33909Y30196D1*
X33840Y30092D1*
X33749Y30008D1*
X33640Y29947D1*
X33520Y29913D1*
X33395Y29908D1*
X33273Y29933D1*
X33160Y29985D1*
X33062Y30062D1*
X32985Y30160D1*
X32937Y30263D1*
X32909Y30196D1*
X32840Y30092D1*
X32749Y30008D1*
X32640Y29947D1*
X32520Y29913D1*
X32395Y29908D1*
X32273Y29933D1*
X32160Y29985D1*
X32062Y30062D1*
X31985Y30160D1*
X31932Y30274D1*
X31908Y30396D1*
X31913Y30521D1*
X31947Y30641D1*
X32009Y30749D1*
X32093Y30841D1*
X32197Y30910D1*
X32314Y30953D1*
X32438Y30967D1*
X32562Y30952D1*
X32679Y30909D1*
X32782Y30839D1*
X32867Y30748D1*
X32935Y30612D1*
X33009Y30749D1*
X33093Y30841D1*
X33197Y30910D1*
X33314Y30953D1*
X33438Y30967D1*
X33562Y30952D1*
X33679Y30909D1*
X33782Y30839D1*
X33867Y30748D1*
X33935Y30612D1*
X34009Y30749D1*
X34093Y30841D1*
X34197Y30910D1*
X34314Y30953D1*
X34438Y30967D1*
X34562Y30952D1*
X34679Y30909D1*
X34782Y30839D1*
X34867Y30748D1*
X34927Y30639D1*
X34961Y30519D1*
X34967Y30437D1*
X34953Y30313D1*
X34453Y29313D2*
X34409Y29196D1*
X34340Y29093D1*
X34249Y29008D1*
X34140Y28947D1*
X34020Y28913D1*
X33895Y28908D1*
X33773Y28933D1*
X33660Y28985D1*
X33562Y29062D1*
X33485Y29160D1*
X33437Y29263D1*
X33409Y29196D1*
X33340Y29093D1*
X33249Y29008D1*
X33140Y28947D1*
X33020Y28913D1*
X32895Y28908D1*
X32773Y28933D1*
X32660Y28985D1*
X32562Y29062D1*
X32485Y29160D1*
X32437Y29263D1*
X32409Y29196D1*
X32340Y29093D1*
X32249Y29008D1*
X32140Y28947D1*
X32020Y28913D1*
X31895Y28908D1*
X31773Y28933D1*
X31660Y28985D1*
X31562Y29062D1*
X31485Y29160D1*
X31432Y29274D1*
X31408Y29396D1*
X31413Y29521D1*
X31447Y29641D1*
X31509Y29749D1*
X31593Y29841D1*
X31697Y29910D1*
X31814Y29953D1*
X31938Y29967D1*
X32062Y29952D1*
X32179Y29909D1*
X32282Y29839D1*
X32367Y29748D1*
X32435Y29612D1*
X32509Y29749D1*
X32593Y29841D1*
X32697Y29910D1*
X32814Y29953D1*
X32938Y29967D1*
X33062Y29952D1*
X33179Y29909D1*
X33282Y29839D1*
X33367Y29748D1*
X33435Y29612D1*
X33509Y29749D1*
X33593Y29841D1*
X33697Y29910D1*
X33814Y29953D1*
X33938Y29967D1*
X34062Y29952D1*
X34179Y29909D1*
X34282Y29839D1*
X34367Y29748D1*
X34427Y29639D1*
X34461Y29519D1*
X34467Y29437D1*
X34453Y29313D1*
X35686Y32488D2*
X35598Y32364D1*
X35509Y32276D1*
X35409Y32201D1*
X35300Y32141D1*
X35183Y32097D1*
X35061Y32071D1*
X34936Y32062D1*
X34812Y32071D1*
X34690Y32098D1*
X34573Y32142D1*
X34463Y32202D1*
X34363Y32277D1*
X34275Y32365D1*
X34200Y32465D1*
X34141Y32575D1*
X34097Y32692D1*
X34071Y32814D1*
X34062Y32939D1*
X34071Y33063D1*
X34098Y33185D1*
X34142Y33302D1*
X34202Y33412D1*
X34277Y33512D1*
X34366Y33600D1*
X34466Y33674D1*
X34576Y33734D1*
X34693Y33777D1*
X34815Y33803D1*
X34940Y33812D1*
X35064Y33802D1*
X35186Y33776D1*
X35303Y33731D1*
X35413Y33671D1*
X35512Y33596D1*
X35600Y33507D1*
X35688Y33383D1*
X35777Y33512D1*
X35866Y33600D1*
X35966Y33674D1*
X36076Y33734D1*
X36193Y33777D1*
X36315Y33803D1*
X36440Y33812D1*
X36564Y33802D1*
X36686Y33776D1*
X36803Y33731D1*
X36913Y33671D1*
X37012Y33596D1*
X37100Y33507D1*
X37175Y33407D1*
X37234Y33297D1*
X37277Y33180D1*
X37303Y33058D1*
X37312Y32937D1*
X37303Y32812D1*
X37276Y32690D1*
X37233Y32573D1*
X37173Y32464D1*
X37098Y32364D1*
X37009Y32276D1*
X36909Y32201D1*
X36800Y32141D1*
X36683Y32097D1*
X36561Y32071D1*
X36436Y32062D1*
X36312Y32071D1*
X36190Y32098D1*
X36073Y32142D1*
X35963Y32202D1*
X35863Y32277D1*
X35775Y32365D1*
X35687Y32489D1*
X31303Y32812D2*
X31276Y32690D1*
X31233Y32573D1*
X31173Y32464D1*
X31098Y32364D1*
X31009Y32276D1*
X30909Y32201D1*
X30800Y32141D1*
X30683Y32097D1*
X30561Y32071D1*
X30436Y32062D1*
X30312Y32071D1*
X30190Y32098D1*
X30073Y32142D1*
X29963Y32202D1*
X29863Y32277D1*
X29775Y32365D1*
X29700Y32465D1*
X29641Y32575D1*
X29597Y32692D1*
X29571Y32814D1*
X29562Y32939D1*
X29571Y33063D1*
X29598Y33185D1*
X29642Y33302D1*
X29702Y33412D1*
X29777Y33512D1*
X29866Y33600D1*
X29966Y33674D1*
X30076Y33734D1*
X30193Y33777D1*
X30315Y33803D1*
X30440Y33812D1*
X30564Y33802D1*
X30686Y33776D1*
X30803Y33731D1*
X30913Y33671D1*
X31012Y33596D1*
X31100Y33507D1*
X31175Y33407D1*
X31234Y33297D1*
X31277Y33180D1*
X31303Y33058D1*
X31312Y32937D1*
X31303Y32812D1*
X40953Y30313D2*
X40909Y30196D1*
X40840Y30092D1*
X40749Y30008D1*
X40640Y29947D1*
X40520Y29913D1*
X40395Y29908D1*
X40273Y29933D1*
X40160Y29985D1*
X40062Y30062D1*
X39985Y30160D1*
X39937Y30263D1*
X39909Y30196D1*
X39840Y30092D1*
X39749Y30008D1*
X39640Y29947D1*
X39520Y29913D1*
X39395Y29908D1*
X39273Y29933D1*
X39160Y29985D1*
X39062Y30062D1*
X38985Y30160D1*
X38937Y30263D1*
X38909Y30196D1*
X38840Y30092D1*
X38749Y30008D1*
X38640Y29947D1*
X38520Y29913D1*
X38395Y29908D1*
X38273Y29933D1*
X38160Y29985D1*
X38062Y30062D1*
X37985Y30160D1*
X37932Y30274D1*
X37908Y30396D1*
X37913Y30521D1*
X37947Y30641D1*
X38009Y30749D1*
X38093Y30841D1*
X38197Y30910D1*
X38314Y30953D1*
X38438Y30967D1*
X38562Y30952D1*
X38679Y30909D1*
X38782Y30839D1*
X38867Y30748D1*
X38935Y30612D1*
X39009Y30749D1*
X39093Y30841D1*
X39197Y30910D1*
X39314Y30953D1*
X39438Y30967D1*
X39562Y30952D1*
X39679Y30909D1*
X39782Y30839D1*
X39867Y30748D1*
X39935Y30612D1*
X40009Y30749D1*
X40093Y30841D1*
X40197Y30910D1*
X40314Y30953D1*
X40438Y30967D1*
X40562Y30952D1*
X40679Y30909D1*
X40782Y30839D1*
X40867Y30748D1*
X40927Y30639D1*
X40961Y30519D1*
X40967Y30437D1*
X40953Y30313D1*
X40453Y29313D2*
X40409Y29196D1*
X40340Y29093D1*
X40249Y29008D1*
X40140Y28947D1*
X40020Y28913D1*
X39895Y28908D1*
X39773Y28933D1*
X39660Y28985D1*
X39562Y29062D1*
X39485Y29160D1*
X39437Y29263D1*
X39409Y29196D1*
X39340Y29093D1*
X39249Y29008D1*
X39140Y28947D1*
X39020Y28913D1*
X38895Y28908D1*
X38773Y28933D1*
X38660Y28985D1*
X38562Y29062D1*
X38485Y29160D1*
X38437Y29263D1*
X38409Y29196D1*
X38340Y29093D1*
X38249Y29008D1*
X38140Y28947D1*
X38020Y28913D1*
X37895Y28908D1*
X37773Y28933D1*
X37660Y28985D1*
X37562Y29062D1*
X37485Y29160D1*
X37432Y29274D1*
X37408Y29396D1*
X37413Y29521D1*
X37447Y29641D1*
X37509Y29749D1*
X37593Y29841D1*
X37697Y29910D1*
X37814Y29953D1*
X37938Y29967D1*
X38062Y29952D1*
X38179Y29909D1*
X38282Y29839D1*
X38367Y29748D1*
X38435Y29612D1*
X38509Y29749D1*
X38593Y29841D1*
X38697Y29910D1*
X38814Y29953D1*
X38938Y29967D1*
X39062Y29952D1*
X39179Y29909D1*
X39282Y29839D1*
X39367Y29748D1*
X39435Y29612D1*
X39509Y29749D1*
X39593Y29841D1*
X39697Y29910D1*
X39814Y29953D1*
X39938Y29967D1*
X40062Y29952D1*
X40179Y29909D1*
X40282Y29839D1*
X40367Y29748D1*
X40427Y29639D1*
X40461Y29519D1*
X40467Y29437D1*
X40453Y29313D1*
X41803Y32812D2*
X41776Y32690D1*
X41733Y32573D1*
X41673Y32464D1*
X41598Y32364D1*
X41509Y32276D1*
X41409Y32201D1*
X41300Y32141D1*
X41183Y32097D1*
X41061Y32071D1*
X40936Y32062D1*
X40812Y32071D1*
X40690Y32098D1*
X40573Y32142D1*
X40463Y32202D1*
X40363Y32277D1*
X40275Y32365D1*
X40200Y32465D1*
X40141Y32575D1*
X40097Y32692D1*
X40071Y32814D1*
X40062Y32939D1*
X40071Y33063D1*
X40098Y33185D1*
X40142Y33302D1*
X40202Y33412D1*
X40277Y33512D1*
X40366Y33600D1*
X40466Y33674D1*
X40576Y33734D1*
X40693Y33777D1*
X40815Y33803D1*
X40940Y33812D1*
X41064Y33802D1*
X41186Y33776D1*
X41303Y33731D1*
X41413Y33671D1*
X41512Y33596D1*
X41600Y33507D1*
X41675Y33407D1*
X41734Y33297D1*
X41777Y33180D1*
X41803Y33058D1*
X41812Y32937D1*
X41803Y32812D1*
X6983Y30772D2*
X6909Y30773D1*
X6787Y30799D1*
X6671Y30847D1*
X6567Y30915D1*
X6477Y31002D1*
X6405Y31104D1*
X6353Y31217D1*
X6323Y31339D1*
X6317Y31463D1*
X6333Y31587D1*
X6372Y31705D1*
X6433Y31815D1*
X6513Y31910D1*
X6609Y31990D1*
X6719Y32050D1*
X6837Y32089D1*
X6984Y32105D1*
X7890Y32101D1*
X7991Y32097D1*
X8112Y32067D1*
X8226Y32015D1*
X8327Y31942D1*
X8413Y31852D1*
X8481Y31747D1*
X8529Y31632D1*
X8554Y31509D1*
X8558Y31437D1*
X8546Y31313D1*
X8512Y31193D1*
X8455Y31081D1*
X8379Y30982D1*
X8286Y30899D1*
X8179Y30835D1*
X8062Y30792D1*
X7939Y30771D1*
X7265Y30769D1*
X6984Y30773D1*
X15623Y29566D2*
X12354D1*
X11668Y28883D1*
X11566Y28812D1*
X11446Y28780D1*
X11322Y28792D1*
X11210Y28846D1*
X11123Y28935D1*
X11073Y29048D1*
X11064Y29172D1*
X11099Y29292D1*
X11166Y29385D1*
X11954Y30172D1*
X12056Y30243D1*
X12205Y30276D1*
X15748D1*
X15870Y30254D1*
X15978Y30192D1*
X16057Y30096D1*
X16098Y29979D1*
X16097Y29854D1*
X16052Y29738D1*
X15970Y29645D1*
X15861Y29585D1*
X15748Y29566D1*
X15623D1*
X22187Y15957D2*
X21562D1*
X21440Y15979D1*
X21332Y16041D1*
X21253Y16137D1*
X21212Y16255D1*
X21213Y16379D1*
X21258Y16495D1*
X21340Y16589D1*
X21449Y16648D1*
X21562Y16667D1*
X22312D1*
X22434Y16645D1*
X22542Y16583D1*
X22621Y16487D1*
X22662Y16369D1*
X22661Y16245D1*
X22616Y16129D1*
X22534Y16035D1*
X22425Y15976D1*
X22312Y15957D1*
X22187D1*
X17707Y25542D2*
Y25687D1*
X17729Y25809D1*
X17791Y25917D1*
X17887Y25996D1*
X18005Y26037D1*
X18129Y26036D1*
X18245Y25991D1*
X18339Y25909D1*
X18398Y25800D1*
X18417Y25687D1*
Y23187D1*
X18395Y23065D1*
X18333Y22957D1*
X18237Y22878D1*
X18119Y22837D1*
X17995Y22838D1*
X17879Y22883D1*
X17785Y22965D1*
X17726Y23074D1*
X17705Y23207D1*
X17609Y23129D1*
X17491Y23088D1*
X17367Y23091D1*
X17251Y23137D1*
X17231Y23155D1*
X16394Y23152D1*
X16359Y23129D1*
X16241Y23088D1*
X16117Y23091D1*
X16001Y23137D1*
X15909Y23220D1*
X15851Y23329D1*
X15841Y23403D1*
X13558Y23402D1*
X13536Y23383D1*
X13518Y23315D1*
X13455Y23207D1*
X13359Y23129D1*
X13241Y23088D1*
X13117Y23091D1*
X13001Y23137D1*
X12909Y23220D1*
X12851Y23329D1*
X12834Y23453D1*
X12862Y23574D1*
X12910Y23649D1*
X11687Y23652D1*
X10800Y23647D1*
X10538Y23385D1*
X10518Y23315D1*
X10455Y23207D1*
X10359Y23129D1*
X10241Y23088D1*
X10117Y23091D1*
X10001Y23137D1*
X9909Y23220D1*
X9851Y23329D1*
X9834Y23453D1*
X9862Y23574D1*
X9929Y23678D1*
X10029Y23753D1*
X10129Y23782D1*
X10248Y23901D1*
X8058Y23902D1*
X7534Y23381D1*
X7518Y23315D1*
X7455Y23207D1*
X7359Y23129D1*
X7241Y23088D1*
X7117Y23091D1*
X7001Y23137D1*
X6909Y23220D1*
X6851Y23329D1*
X6834Y23453D1*
X6862Y23574D1*
X6929Y23678D1*
X7029Y23753D1*
X7129Y23782D1*
X7624Y24277D1*
X7601Y24329D1*
X7584Y24453D1*
X7612Y24574D1*
X7679Y24678D1*
X7779Y24753D1*
X7879Y24782D1*
X8485Y25389D1*
X8594Y25456D1*
X8548Y25436D1*
X8687Y25472D1*
X17480D1*
X17529Y25503D1*
X17648Y25538D1*
X17706Y25534D1*
X33937Y23292D2*
X34917D1*
X36436Y24813D1*
X36549Y24887D1*
X36562Y24902D1*
X36035D1*
X36018Y24815D1*
X35955Y24707D1*
X35859Y24629D1*
X35741Y24588D1*
X35617Y24591D1*
X35534Y24624D1*
X35518Y24565D1*
X35455Y24457D1*
X35359Y24379D1*
X35241Y24338D1*
X35117Y24341D1*
X35034Y24374D1*
X35018Y24315D1*
X34955Y24207D1*
X34859Y24129D1*
X34741Y24088D1*
X34617Y24091D1*
X34534Y24124D1*
X34518Y24065D1*
X34455Y23957D1*
X34359Y23879D1*
X34241Y23838D1*
X34117Y23841D1*
X34001Y23887D1*
X33981Y23905D1*
X32937Y23902D1*
X27285D1*
X27268Y23815D1*
X27247Y23778D1*
X28764Y22264D1*
X28831Y22155D1*
X28811Y22201D1*
X28847Y22062D1*
X28850Y20142D1*
X28903Y20030D1*
X28915Y19937D1*
X28893Y19815D1*
X28830Y19707D1*
X28734Y19629D1*
X28616Y19588D1*
X28492Y19591D1*
X28376Y19637D1*
X28284Y19720D1*
X28225Y19833D1*
X28117Y19841D1*
X28001Y19887D1*
X27909Y19970D1*
X27851Y20079D1*
X27834Y20203D1*
X27862Y20324D1*
X27902Y20386D1*
X27897Y21949D1*
X26360Y23485D1*
X26293Y23594D1*
X26313Y23548D1*
X26277Y23687D1*
Y23730D1*
X26226Y23829D1*
X26216Y23903D1*
X25558Y23902D1*
X25514Y23860D1*
X25412Y23796D1*
X25451Y23813D1*
X25312Y23777D1*
X25269D1*
X25234Y23754D1*
X25116Y23713D1*
X24992Y23716D1*
X24876Y23762D1*
X24784Y23845D1*
X24723Y23974D1*
X24626Y24012D1*
X24534Y24095D1*
X24476Y24204D1*
X24459Y24328D1*
X24487Y24449D1*
X24554Y24553D1*
X24654Y24628D1*
X24717Y24646D1*
X24737Y24699D1*
X24804Y24803D1*
X24904Y24878D1*
X25004Y24907D1*
X25048Y24936D1*
X25187Y24972D1*
X26496D1*
X26318Y25153D1*
X25144Y25152D1*
X25109Y25129D1*
X24991Y25088D1*
X24867Y25091D1*
X24751Y25137D1*
X24659Y25220D1*
X24601Y25329D1*
X24584Y25453D1*
X24612Y25574D1*
X24679Y25678D1*
X24779Y25753D1*
X24898Y25788D1*
X25022Y25780D1*
X25144Y25721D1*
X26437Y25722D1*
X26561Y25693D1*
X26515Y25711D1*
X26639Y25639D1*
X27062Y25222D1*
X27785D1*
X27726Y25329D1*
X27709Y25453D1*
X27737Y25574D1*
X27804Y25678D1*
X27904Y25753D1*
X28023Y25788D1*
X28147Y25780D1*
X28269Y25721D1*
X31730Y25722D1*
X31779Y25753D1*
X31898Y25788D1*
X32022Y25780D1*
X32136Y25729D1*
X32225Y25642D1*
X32278Y25530D1*
X32285Y25475D1*
X33187Y25472D1*
X36605D1*
X36654Y25503D1*
X36773Y25538D1*
X36897Y25530D1*
X37011Y25479D1*
X37100Y25392D1*
X37153Y25280D1*
X37165Y25187D1*
X37143Y25065D1*
X37080Y24957D1*
X36984Y24879D1*
X36900Y24850D1*
X36981Y24761D1*
X37032Y24648D1*
X37040Y24524D1*
X37005Y24404D1*
X36938Y24311D1*
X35313Y22686D1*
X35211Y22615D1*
X35062Y22582D1*
X33812D1*
X33690Y22604D1*
X33582Y22666D1*
X33503Y22762D1*
X33462Y22880D1*
X33463Y23004D1*
X33508Y23120D1*
X33590Y23214D1*
X33699Y23273D1*
X33812Y23292D1*
X33937D1*
X13660Y24652D2*
X11550Y24647D1*
X11376Y24473D1*
X13589Y24472D1*
X13612Y24574D1*
X13660Y24649D1*
X10589Y24472D2*
X10612Y24574D1*
X10679Y24678D1*
X10779Y24753D1*
X10879Y24782D1*
X10996Y24902D1*
X8800Y24897D1*
X8378Y24474D1*
X9812Y24472D1*
X10589D1*
X10612Y24574D1*
X10679Y24678D1*
X10779Y24753D1*
X10879Y24782D1*
X10998Y24901D1*
X21832Y24437D2*
Y25417D1*
X20811Y26436D1*
X20740Y26538D1*
X20708Y26658D1*
X20720Y26782D1*
X20774Y26894D1*
X20863Y26981D1*
X20976Y27032D1*
X21100Y27040D1*
X21220Y27005D1*
X21313Y26938D1*
X22438Y25813D1*
X22509Y25711D1*
X22542Y25562D1*
Y24312D1*
X22520Y24190D1*
X22458Y24082D1*
X22362Y24003D1*
X22244Y23962D1*
X22120Y23963D1*
X22004Y24008D1*
X21910Y24090D1*
X21851Y24199D1*
X21832Y24312D1*
Y24437D1*
X28437Y31332D2*
X27312D1*
X27190Y31354D1*
X27082Y31416D1*
X27003Y31512D1*
X26962Y31630D1*
X26963Y31754D1*
X27008Y31870D1*
X27090Y31964D1*
X27199Y32023D1*
X27312Y32042D1*
X28562D1*
X28684Y32020D1*
X28792Y31958D1*
X28871Y31862D1*
X28912Y31744D1*
X28911Y31620D1*
X28866Y31504D1*
X28784Y31410D1*
X28675Y31351D1*
X28562Y31332D1*
X28437D1*
X4187Y4062D2*
X43182D1*
Y35308D1*
X4062D1*
Y4062D1*
X4187D1*
D23*
X36937Y8937D3*
X37437Y9937D3*
X37937Y8937D3*
X38437Y9937D3*
X38937Y8937D3*
X39437Y9937D3*
X39937Y8937D3*
X40437Y9937D3*
X30937Y8937D3*
X31437Y9937D3*
X31937Y8937D3*
X32437Y9937D3*
X32937Y8937D3*
X33437Y9937D3*
X33937Y8937D3*
X34437Y9937D3*
X22937Y8937D3*
X23437Y9937D3*
X23937Y8937D3*
X24437Y9937D3*
X24937Y8937D3*
X25437Y9937D3*
X25937Y8937D3*
X26437Y9937D3*
X16937Y8937D3*
X17437Y9937D3*
X17937Y8937D3*
X18437Y9937D3*
X18937Y8937D3*
X19437Y9937D3*
X19937Y8937D3*
X20437Y9937D3*
X34437Y30437D3*
X33937Y29437D3*
X33437Y30437D3*
X32937Y29437D3*
X32437Y30437D3*
X31937Y29437D3*
X31437Y30437D3*
X30937Y29437D3*
X40437Y30437D3*
X39937Y29437D3*
X39437Y30437D3*
X38937Y29437D3*
X38437Y30437D3*
X37937Y29437D3*
X37437Y30437D3*
X36937Y29437D3*
D38*
X7437Y31437D3*
Y33799D3*
D39*
X5587Y32618D3*
M02*
